0
SECTION
2
HEADER
9
$INSUNITS
70
4
9
$ACADVER
1
AC1014
9
$HANDSEED
5
FFFF
0
ENDSEC
0
SECTION
2
TABLES
0
TABLE
2
VPORT
5
8
100
AcDbSymbolTable
0
ENDTAB
0
TABLE
2
LTYPE
5
5
100
AcDbSymbolTable
0
LTYPE
5
14
100
AcDbSymbolTableRecord
100
AcDbLinetypeTableRecord
2
BYBLOCK
70
0
0
LTYPE
5
15
100
AcDbSymbolTableRecord
100
AcDbLinetypeTableRecord
2
BYLAYER
70
0
0
ENDTAB
0
TABLE
2
LAYER
5
2
100
AcDbSymbolTable
70
2
0
LAYER
5
50
100
AcDbSymbolTableRecord
100
AcDbLayerTableRecord
2
0
70
0
6
CONTINUOUS
0
ENDTAB
0
TABLE
2
STYLE
5
3
100
AcDbSymbolTable
70
1
0
STYLE
5
11
100
AcDbSymbolTableRecord
100
AcDbTextStyleTableRecord
2
STANDARD
70
0
0
ENDTAB
0
TABLE
2
VIEW
5
6
100
AcDbSymbolTable
70
0
0
ENDTAB
0
TABLE
2
UCS
5
7
100
AcDbSymbolTable
70
0
0
ENDTAB
0
TABLE
2
APPID
5
9
100
AcDbSymbolTable
70
2
0
APPID
5
12
100
AcDbSymbolTableRecord
100
AcDbRegAppTableRecord
2
ACAD
70
0
0
ENDTAB
0
TABLE
2
DIMSTYLE
5
A
100
AcDbSymbolTable
70
1
0
ENDTAB
0
TABLE
2
BLOCK_RECORD
5
1
100
AcDbSymbolTable
70
1
0
BLOCK_RECORD
5
1F
100
AcDbSymbolTableRecord
100
AcDbBlockTableRecord
2
*MODEL_SPACE
0
BLOCK_RECORD
5
1B
100
AcDbSymbolTableRecord
100
AcDbBlockTableRecord
2
*PAPER_SPACE
0
ENDTAB
0
ENDSEC
0
SECTION
2
BLOCKS
0
BLOCK
5
20
100
AcDbEntity
100
AcDbBlockBegin
2
*MODEL_SPACE
0
ENDBLK
5
21
100
AcDbEntity
100
AcDbBlockEnd
0
BLOCK
5
1C
100
AcDbEntity
100
AcDbBlockBegin
2
*PAPER_SPACE
0
ENDBLK
5
1D
100
AcDbEntity
100
AcDbBlockEnd
0
ENDSEC
0
SECTION
2
ENTITIES
0
LWPOLYLINE
5
100
100
AcDbEntity
8
0
100
AcDbPolyline
90
68
70
1
43
0.0
10
-1.0000000745058348
20
-42.000001177191699
42
-0.414213527457505
10
0.99999968707558995
20
-40.00000117719172
10
2.00000023841854
20
-40.000001057982402
42
0.41421352745750578
10
3.9999999999999702
20
-38.000001057982402
10
3.9999999999999702
20
-5.0000008195638701
42
0.41421356237309503
10
-1.000000000000032
20
-8.1956387010251319e-07
10
-34.000000596046497
20
-8.1956386566162109e-07
42
0.41421356237309503
10
-36.00000059604649
20
-2.0000008195638599
10
-36.000000596046512
20
-3.0000008940696805
42
-0.41421356237309503
10
-38.000000596046497
20
-5.0000008940696707
10
-49.000000819563908
20
-5.0000008940696734
42
-0.41421356237309503
10
-51.000000819563894
20
-3.0000008940696805
10
-51.000000819563908
20
-2.0000008195638599
42
0.41421356237309503
10
-53.000000819563908
20
-8.1956386982495744e-07
10
-88.999999180436205
20
-8.1956388342518949e-07
42
0.41421356237309503
10
-90.999999180436205
20
-2.0000008195638799
10
-90.999999180436205
20
-3.0000008940697005
42
-0.41421356237309503
10
-92.99999918043622
20
-5.0000008940697107
10
-103.99999940395402
20
-5.0000008940696938
42
-0.41421356237309503
10
-105.99999940395401
20
-3.0000008940697005
10
-105.99999940395401
20
-2.0000008195638799
42
0.41421356237309503
10
-107.99999940395402
20
-8.1956388980897188e-07
10
-141
20
-8.1956388342518949e-07
42
0.41421356237309503
10
-146
20
-5.000000819563879
10
-146
20
-38.000001057982502
42
0.41421352745744
10
-144.00000023841901
20
-40.000001057982487
10
-142.99999968707601
20
-40.000001177191827
42
-0.41421352745759088
10
-140.99999992549402
20
-42.000001177191805
10
-140.999999925494
20
-53.000001639127809
42
-0.41421356237309503
10
-142.999999925494
20
-55.000001639127817
10
-144
20
-55.000001639127703
42
0.41421356237308071
10
-146
20
-57.000001639127703
10
-146
20
-93
42
0.41421356237309503
10
-144
20
-95.000000000000014
10
-142.999999925494
20
-94.999999999999986
42
-0.41421356237309503
10
-140.99999992549397
20
-97.000000000000014
10
-140.99999992549402
20
-108.00000046193601
42
-0.41421352745759088
10
-142.99999968707601
20
-110.00000046193598
10
-144.00000023841901
20
-110.00000058114502
42
0.41421352745744
10
-146
20
-112.000000581145
10
-146
20
-145.00000081956401
42
0.41421356237309503
10
-141
20
-150.00000081956401
10
-107.99999940395402
20
-150.00000081956401
42
0.41421356237309503
10
-105.99999940395404
20
-148.00000081956401
10
-105.99999940395404
20
-147.000000745058
42
-0.41421356237309503
10
-103.99999940395402
20
-145.000000745058
10
-92.999999180436106
20
-145.00000074505803
42
-0.41421356237309503
10
-90.999999180436106
20
-147.000000745058
10
-90.999999180436106
20
-148.00000081956401
42
0.41421356237309503
10
-88.999999180436106
20
-150.00000081956404
10
-53.000000819563908
20
-150.00000081956401
42
0.41421356237309503
10
-51.000000819563915
20
-148.00000081956401
10
-51.000000819563915
20
-147.000000745058
42
-0.41421356237309503
10
-49.000000819563908
20
-145.000000745058
10
-38.000000596046497
20
-145.000000745058
42
-0.41421356237309503
10
-36.00000059604649
20
-147.000000745058
10
-36.000000596046497
20
-148.00000081956401
42
0.41421356237309503
10
-34.000000596046497
20
-150.00000081956401
10
-1.0000000000000098
20
-150.00000081956401
42
0.41421356237309503
10
3.9999999999999902
20
-145.00000081956401
10
3.9999999999999902
20
-112.000000581145
42
0.41421352745750428
10
2.00000023841856
20
-110.00000058114502
10
0.99999968707560838
20
-110.000000461936
42
-0.414213527457505
10
-1.0000000745058377
20
-108.00000046193601
10
-1.0000000745058202
20
-89.999999925494194
10
-6.0000000745058202
20
-89.999999925494194
10
-6.0000000745058397
20
-60.000001713633502
10
-1.0000000745058402
20
-60.000001713633502
0
LWPOLYLINE
5
101
100
AcDbEntity
8
0
100
AcDbPolyline
90
8
70
1
43
0.0
10
-131.00000195205203
20
-18.000000372528799
42
-0.41421356237309503
10
-128.000001952052
20
-15.000000372528779
10
-108.000001639128
20
-15.000000372528756
42
-0.41421356237309503
10
-105.00000163912796
20
-18.000000372528806
10
-105.00000163912796
20
-132.00000186264501
42
-0.41421356237309503
10
-108.000001639128
20
-135.00000186264506
10
-128.000001952052
20
-135.00000186264504
42
-0.41421356237309503
10
-131.000001952052
20
-132.00000186264501
0
LWPOLYLINE
5
102
100
AcDbEntity
8
0
100
AcDbPolyline
90
4
70
1
43
0.0
10
-10.999997988343303
20
-5.0000008940696707
10
-30.999998286366498
20
-5.0000008940696707
10
-30.999998286366495
20
-10.000000968575502
10
-10.999997988343299
20
-10.000000968575502
0
LWPOLYLINE
5
103
100
AcDbEntity
8
0
100
AcDbPolyline
90
4
70
1
43
0.0
10
-6.0000001490116404
20
-15.000001043081301
10
-6.0000001490116404
20
-35.0000013411045
10
-1.0000000745058399
20
-35.0000013411045
10
-1.0000000745058402
20
-15.000001043081301
0
LWPOLYLINE
5
104
100
AcDbEntity
8
0
100
AcDbPolyline
90
4
70
1
43
0.0
10
-1.0000000745058202
20
-115.00000029802301
10
-6.0000001490116306
20
-115.00000029802301
10
-6.0000001490116306
20
-135.00000059604599
10
-1.00000007450582
20
-135.00000059604599
0
LWPOLYLINE
5
105
100
AcDbEntity
8
0
100
AcDbPolyline
90
4
70
1
43
0.0
10
-10.999997988343303
20
-140.000000670552
10
-30.999998286366498
20
-140.000000670552
10
-30.999998286366495
20
-145.000000745058
10
-10.999997988343299
20
-145.000000745058
0
LWPOLYLINE
5
106
100
AcDbEntity
8
0
100
AcDbPolyline
90
4
70
1
43
0.0
10
-56.000001341104507
20
-5.0000008940696707
10
-85.999998658895507
20
-5.0000008940696903
10
-85.999998658895507
20
-10.0000008940697
10
-56.000001341104507
20
-10.0000008940697
0
LWPOLYLINE
5
107
100
AcDbEntity
8
0
100
AcDbPolyline
90
4
70
1
43
0.0
10
-85.999998658895507
20
-145.000000745058
10
-56.000001341104507
20
-145.000000745058
10
-56.000001341104507
20
-140.000000745058
10
-85.999998658895507
20
-140.000000745058
0
LWPOLYLINE
5
108
100
AcDbEntity
8
0
100
AcDbPolyline
90
4
70
1
43
0.0
10
-111.00000171363402
20
-5.0000008940696903
10
-131.00000201165699
20
-5.0000008940696903
10
-131.00000201165699
20
-10.000000968575502
10
-111.00000171363402
20
-10.000000968575502
0
LWPOLYLINE
5
109
100
AcDbEntity
8
0
100
AcDbPolyline
90
4
70
1
43
0.0
10
-140.999999925494
20
-35.0000013411045
10
-135.99999985098799
20
-35.0000013411045
10
-135.99999985098799
20
-15.000001043081301
10
-140.999999925494
20
-15.000001043081301
0
LWPOLYLINE
5
110
100
AcDbEntity
8
0
100
AcDbPolyline
90
4
70
1
43
0.0
10
-140.999999925494
20
-60.000001713633608
10
-140.999999925494
20
-89.999999925494194
10
-135.999999925494
20
-89.999999925494194
10
-135.999999925494
20
-60.000001713633608
0
LWPOLYLINE
5
111
100
AcDbEntity
8
0
100
AcDbPolyline
90
4
70
1
43
0.0
10
-140.999999925494
20
-115.00000029802301
10
-140.999999925494
20
-135.00000059604599
10
-135.99999985098799
20
-135.00000059604599
10
-135.99999985098799
20
-115.00000029802301
0
LWPOLYLINE
5
112
100
AcDbEntity
8
0
100
AcDbPolyline
90
16
70
1
43
0.0
10
-64.500000968575506
20
-15.00000037252892
42
-0.41421356237309503
10
-61.500000968575527
20
-18.000000372528898
10
-61.500000968575499
20
-39.63810095504661
42
-0.22167084075021865
10
-62.214286603793774
20
-41.170073073655146
42
0.46625237270446745
10
-62.214286603793838
20
-48.829934853762637
42
-0.2216708407502275
10
-61.500000968575506
20
-50.361906972371209
10
-61.500000968575506
20
-69.500001043081298
42
-0.41421356237309503
10
-64.500000968575506
20
-72.500001043081298
10
-85.638103615849403
20
-72.500001043081298
42
-0.22167062426384712
10
-87.170074673244642
20
-71.785716672333464
42
0.46625187029467702
10
-94.82992571418562
20
-71.785716672333521
42
-0.2216706242638378
10
-96.361896771580803
20
-72.500001043081298
10
-97.000001490116119
20
-72.500001043081326
42
-0.41421356237309503
10
-100.00000149011613
20
-69.500001043081298
10
-100.00000149011613
20
-18.000000372528902
42
-0.41421356237309548
10
-97.000001490116119
20
-15.000000372528879
0
LWPOLYLINE
5
113
100
AcDbEntity
8
0
100
AcDbPolyline
90
16
70
1
43
0.0
10
-55.785713783636545
20
-101.17006678536514
42
-0.22167084075020724
10
-56.49999941885477
20
-99.638094666756615
10
-56.49999941885477
20
-50.361906972371209
42
-0.2216708407502154
10
-55.785713783636488
20
-48.829934853762637
42
0.46625237270447728
10
-55.785713783636488
20
-41.170073073655061
42
-0.22167084075022472
10
-56.499999418854799
20
-39.638100955046497
10
-56.499999418854799
20
-17.5000032037495
42
-0.41421356237309503
10
-53.999999418854799
20
-15.0000032037495
10
-13.500000163912897
20
-15.000003203749602
42
-0.41421356237309476
10
-11.000000163912899
20
-17.500003203749603
10
-11.00000016391281
20
-132.49999843537802
42
-0.41421356237309503
10
-13.500000163912897
20
-134.9999984353781
10
-53.999999418854799
20
-134.99999843537793
42
-0.41421356237309503
10
-56.499999418854728
20
-132.49999843537802
10
-56.499999418854813
20
-110.36190068408101
42
-0.22167084075017557
10
-55.78571378363678
20
-108.82992856547267
42
0.46625237270449144
0
LWPOLYLINE
5
114
100
AcDbEntity
8
0
100
AcDbPolyline
90
16
70
1
43
0.0
10
-64.500000968575506
20
-77.500000596046476
42
-0.41421356237309503
10
-61.500000968575478
20
-80.500000596046505
10
-61.500000968575492
20
-99.638094666756615
42
-0.22167084075020957
10
-62.214286603793724
20
-101.17006678536511
42
0.46625237270448733
10
-62.214286603793525
20
-108.82992856547267
42
-0.22167084075017579
10
-61.500000968575499
20
-110.36190068408101
10
-61.500000968575534
20
-132.00000126659901
42
-0.41421356237309503
10
-64.500000968575506
20
-135.00000126659899
10
-97.000001490116119
20
-135.00000126659904
42
-0.41421356237309503
10
-100.00000149011613
20
-132.00000126659901
10
-100.00000149011613
20
-80.500000596046505
42
-0.41421356237309503
10
-97.000001490116119
20
-77.500000596046476
10
-96.361897944353217
20
-77.500000596046505
42
-0.22167083299244431
10
-94.829925863773155
20
-78.21428618595256
42
0.46625235470063381
10
-87.170074523657064
20
-78.214286185952545
42
-0.22167083299244336
10
-85.638102443077017
20
-77.500000596046505
0
LWPOLYLINE
5
115
100
AcDbEntity
8
0
100
AcDbPolyline
90
4
70
1
43
0.0
10
-131.00000201165699
20
-145.000000745058
10
-111.00000171363402
20
-145.000000745058
10
-111.00000171363402
20
-140.000000670552
10
-131.00000201165699
20
-140.000000670552
0
CIRCLE
5
116
100
AcDbEntity
8
0
100
AcDbCircle
10
59.00000019371511
20
-45.000003963708899
30
0
40
1.5000000000000002
210
0
220
0
230
-1
0
CIRCLE
5
117
100
AcDbEntity
8
0
100
AcDbCircle
10
91.000000193715096
20
-75.000003963708906
30
0
40
1.5000000000000002
210
0
220
0
230
-1
0
CIRCLE
5
118
100
AcDbEntity
8
0
100
AcDbCircle
10
59.00000019371511
20
-104.99999767541901
30
0
40
1.5000000000000002
210
0
220
0
230
-1
0
LWPOLYLINE
5
119
100
AcDbEntity
8
0
100
AcDbPolyline
90
68
70
1
43
0.0
10
-1.0000000745058359
20
-42.000001177191699
42
-0.41421352745750523
10
0.99999968707559006
20
-40.00000117719172
10
2.00000023841854
20
-40.000001057982402
42
0.414213527457506
10
3.9999999999999671
20
-38.000001057982409
10
3.9999999999999702
20
-5.0000008195638701
42
0.41421356237309503
10
-1.000000000000032
20
-8.1956387121273622e-07
10
-34.000000596046497
20
-8.1956386566162109e-07
42
0.41421356237309453
10
-36.000000596046483
20
-2.0000008195638603
10
-36.000000596046512
20
-3.0000008940696805
42
-0.41421356237309537
10
-38.000000596046497
20
-5.0000008940696707
10
-49.000000819563908
20
-5.0000008940696619
42
-0.41421356237309331
10
-51.000000819563894
20
-3.0000008940696805
10
-51.000000819563908
20
-2.0000008195638599
42
0.41421356237309342
10
-53.000000819563908
20
-8.1956387815163012e-07
10
-88.999999180436205
20
-8.1956388342518949e-07
42
0.41421356237309559
10
-90.999999180436205
20
-2.0000008195638803
10
-90.99999918043622
20
-3.0000008940697005
42
-0.41421356237309631
10
-92.99999918043622
20
-5.0000008940697107
10
-103.99999940395402
20
-5.0000008940696974
42
-0.41421356237309559
10
-105.99999940395401
20
-3.0000008940697005
10
-105.99999940395401
20
-2.0000008195638799
42
0.4142135623730957
10
-107.99999940395402
20
-8.1956388287007798e-07
10
-141
20
-8.1956388342518949e-07
42
0.41421356237309331
10
-146
20
-5.0000008195638834
10
-146
20
-38.000001057982502
42
0.41421352745743412
10
-144.00000023841901
20
-40.000001057982473
10
-142.99999968707601
20
-40.000001177191827
42
-0.41421352745759604
10
-140.99999992549402
20
-42.000001177191805
10
-140.999999925494
20
-53.000001639127809
42
-0.41421356237309892
10
-142.999999925494
20
-55.000001639127817
10
-144
20
-55.000001639127703
42
0.41421356237307944
10
-146
20
-57.000001639127703
10
-146
20
-93
42
0.41421356237310281
10
-144
20
-95
10
-142.999999925494
20
-94.999999999999986
42
-0.41421356237309503
10
-140.99999992549397
20
-97.000000000000014
10
-140.99999992549402
20
-108.00000046193601
42
-0.41421352745759088
10
-142.99999968707601
20
-110.00000046193598
10
-144.00000023841901
20
-110.00000058114502
42
0.41421352745744261
10
-146
20
-112.000000581145
10
-146
20
-145.00000081956401
42
0.41421356237309293
10
-141
20
-150.00000081956401
10
-107.99999940395402
20
-150.00000081956401
42
0.41421356237309503
10
-105.99999940395404
20
-148.00000081956401
10
-105.99999940395405
20
-147.000000745058
42
-0.41421356237310281
10
-103.99999940395402
20
-145.000000745058
10
-92.999999180436106
20
-145.00000074505803
42
-0.41421356237309503
10
-90.999999180436106
20
-147.000000745058
10
-90.999999180436106
20
-148.00000081956401
42
0.41421356237310281
10
-88.999999180436106
20
-150.00000081956401
10
-53.000000819563908
20
-150.00000081956401
42
0.41421356237309631
10
-51.000000819563908
20
-148.00000081956401
10
-51.000000819563915
20
-147.000000745058
42
-0.41421356237309503
10
-49.000000819563908
20
-145.000000745058
10
-38.000000596046497
20
-145.000000745058
42
-0.4142135623730957
10
-36.00000059604649
20
-147.000000745058
10
-36.000000596046497
20
-148.00000081956401
42
0.41421356237309503
10
-34.000000596046497
20
-150.00000081956401
10
-1.0000000000000098
20
-150.00000081956401
42
0.41421356237309326
10
3.9999999999999947
20
-145.00000081956401
10
3.9999999999999902
20
-112.000000581145
42
0.41421352745750467
10
2.0000002384185596
20
-110.00000058114502
10
0.99999968707560838
20
-110.000000461936
42
-0.41421352745751056
10
-1.0000000745058375
20
-108.00000046193601
10
-1.0000000745058202
20
-89.999999925494194
10
-6.0000000745058202
20
-89.999999925494194
10
-6.0000000745058397
20
-60.000001713633502
10
-1.0000000745058402
20
-60.000001713633502
0
LWPOLYLINE
5
120
100
AcDbEntity
8
0
100
AcDbPolyline
90
8
70
1
43
0.0
10
-131.00000195205203
20
-18.000000372528799
42
-0.41421356237309503
10
-128.000001952052
20
-15.000000372528779
10
-108.000001639128
20
-15.000000372528756
42
-0.41421356237309503
10
-105.00000163912796
20
-18.000000372528806
10
-105.00000163912796
20
-132.00000186264501
42
-0.41421356237309503
10
-108.000001639128
20
-135.00000186264506
10
-128.000001952052
20
-135.00000186264504
42
-0.41421356237309503
10
-131.000001952052
20
-132.00000186264501
0
LWPOLYLINE
5
121
100
AcDbEntity
8
0
100
AcDbPolyline
90
4
70
1
43
0.0
10
-10.999997988343303
20
-5.0000008940696707
10
-30.999998286366498
20
-5.0000008940696707
10
-30.999998286366495
20
-10.000000968575502
10
-10.999997988343299
20
-10.000000968575502
0
CIRCLE
5
122
100
AcDbEntity
8
0
100
AcDbCircle
10
-59.00000019371511
20
-45.000003963708899
30
0
40
1.5000000000000002
210
0
220
-0
230
1
0
LWPOLYLINE
5
123
100
AcDbEntity
8
0
100
AcDbPolyline
90
4
70
1
43
0.0
10
-6.0000001490116404
20
-15.000001043081301
10
-6.0000001490116404
20
-35.0000013411045
10
-1.0000000745058399
20
-35.0000013411045
10
-1.0000000745058402
20
-15.000001043081301
0
LWPOLYLINE
5
124
100
AcDbEntity
8
0
100
AcDbPolyline
90
4
70
1
43
0.0
10
-1.0000000745058202
20
-115.00000029802301
10
-6.0000001490116306
20
-115.00000029802301
10
-6.0000001490116306
20
-135.00000059604599
10
-1.00000007450582
20
-135.00000059604599
0
CIRCLE
5
125
100
AcDbEntity
8
0
100
AcDbCircle
10
-91.000000193715096
20
-75.000003963708906
30
0
40
1.5000000000000002
210
0
220
-0
230
1
0
LWPOLYLINE
5
126
100
AcDbEntity
8
0
100
AcDbPolyline
90
4
70
1
43
0.0
10
-10.999997988343303
20
-140.000000670552
10
-30.999998286366498
20
-140.000000670552
10
-30.999998286366495
20
-145.000000745058
10
-10.999997988343299
20
-145.000000745058
0
LWPOLYLINE
5
127
100
AcDbEntity
8
0
100
AcDbPolyline
90
4
70
1
43
0.0
10
-56.000001341104507
20
-5.0000008940696707
10
-85.999998658895507
20
-5.0000008940696903
10
-85.999998658895507
20
-10.0000008940697
10
-56.000001341104507
20
-10.0000008940697
0
LWPOLYLINE
5
128
100
AcDbEntity
8
0
100
AcDbPolyline
90
4
70
1
43
0.0
10
-85.999998658895507
20
-145.000000745058
10
-56.000001341104507
20
-145.000000745058
10
-56.000001341104507
20
-140.000000745058
10
-85.999998658895507
20
-140.000000745058
0
LWPOLYLINE
5
129
100
AcDbEntity
8
0
100
AcDbPolyline
90
4
70
1
43
0.0
10
-111.00000171363402
20
-5.0000008940696903
10
-131.00000201165699
20
-5.0000008940696903
10
-131.00000201165699
20
-10.000000968575502
10
-111.00000171363402
20
-10.000000968575502
0
LWPOLYLINE
5
130
100
AcDbEntity
8
0
100
AcDbPolyline
90
4
70
1
43
0.0
10
-140.999999925494
20
-35.0000013411045
10
-135.99999985098799
20
-35.0000013411045
10
-135.99999985098799
20
-15.000001043081301
10
-140.999999925494
20
-15.000001043081301
0
LWPOLYLINE
5
131
100
AcDbEntity
8
0
100
AcDbPolyline
90
4
70
1
43
0.0
10
-140.999999925494
20
-60.000001713633608
10
-140.999999925494
20
-89.999999925494194
10
-135.999999925494
20
-89.999999925494194
10
-135.999999925494
20
-60.000001713633608
0
LWPOLYLINE
5
132
100
AcDbEntity
8
0
100
AcDbPolyline
90
4
70
1
43
0.0
10
-140.999999925494
20
-115.00000029802301
10
-140.999999925494
20
-135.00000059604599
10
-135.99999985098799
20
-135.00000059604599
10
-135.99999985098799
20
-115.00000029802301
0
LWPOLYLINE
5
133
100
AcDbEntity
8
0
100
AcDbPolyline
90
16
70
1
43
0.0
10
-64.500000968575506
20
-15.00000037252892
42
-0.41421356237309503
10
-61.500000968575527
20
-18.000000372528898
10
-61.500000968575499
20
-39.63810095504661
42
-0.22167084075021865
10
-62.214286603793774
20
-41.170073073655146
42
0.46625237270446745
10
-62.214286603793838
20
-48.829934853762637
42
-0.2216708407502275
10
-61.500000968575506
20
-50.361906972371209
10
-61.500000968575506
20
-69.500001043081298
42
-0.41421356237309503
10
-64.500000968575506
20
-72.500001043081298
10
-85.638103615849403
20
-72.500001043081298
42
-0.22167062426384712
10
-87.170074673244642
20
-71.785716672333464
42
0.46625187029467624
10
-94.82992571418562
20
-71.785716672333521
42
-0.2216706242638378
10
-96.361896771580803
20
-72.500001043081298
10
-97.000001490116119
20
-72.500001043081326
42
-0.41421356237309503
10
-100.00000149011613
20
-69.500001043081298
10
-100.00000149011613
20
-18.000000372528902
42
-0.41421356237309548
10
-97.000001490116119
20
-15.000000372528879
0
LWPOLYLINE
5
134
100
AcDbEntity
8
0
100
AcDbPolyline
90
16
70
1
43
0.0
10
-55.785713783636545
20
-101.17006678536514
42
-0.22167084075020724
10
-56.49999941885477
20
-99.638094666756615
10
-56.49999941885477
20
-50.361906972371209
42
-0.2216708407502154
10
-55.785713783636488
20
-48.829934853762637
42
0.46625237270447806
10
-55.785713783636488
20
-41.170073073655061
42
-0.22167084075022472
10
-56.499999418854799
20
-39.638100955046497
10
-56.499999418854799
20
-17.5000032037495
42
-0.41421356237309503
10
-53.999999418854799
20
-15.0000032037495
10
-13.500000163912897
20
-15.000003203749602
42
-0.41421356237309476
10
-11.000000163912899
20
-17.500003203749603
10
-11.00000016391281
20
-132.49999843537802
42
-0.41421356237309503
10
-13.500000163912897
20
-134.9999984353781
10
-53.999999418854799
20
-134.99999843537793
42
-0.41421356237309503
10
-56.499999418854728
20
-132.49999843537802
10
-56.499999418854813
20
-110.36190068408101
42
-0.22167084075017557
10
-55.78571378363678
20
-108.82992856547267
42
0.46625237270449227
0
LWPOLYLINE
5
135
100
AcDbEntity
8
0
100
AcDbPolyline
90
16
70
1
43
0.0
10
-64.500000968575506
20
-77.500000596046476
42
-0.41421356237309503
10
-61.500000968575478
20
-80.500000596046505
10
-61.500000968575492
20
-99.638094666756615
42
-0.22167084075020957
10
-62.214286603793724
20
-101.17006678536511
42
0.46625237270448872
10
-62.214286603793525
20
-108.82992856547267
42
-0.22167084075017637
10
-61.500000968575499
20
-110.36190068408101
10
-61.500000968575534
20
-132.00000126659901
42
-0.41421356237309503
10
-64.500000968575506
20
-135.00000126659899
10
-97.000001490116119
20
-135.00000126659904
42
-0.41421356237309503
10
-100.00000149011613
20
-132.00000126659901
10
-100.00000149011613
20
-80.500000596046505
42
-0.41421356237309503
10
-97.000001490116119
20
-77.500000596046476
10
-96.361897944353217
20
-77.500000596046505
42
-0.22167083299244431
10
-94.829925863773155
20
-78.21428618595256
42
0.4662523547006327
10
-87.170074523657064
20
-78.214286185952545
42
-0.22167083299244394
10
-85.638102443077017
20
-77.500000596046505
0
CIRCLE
5
136
100
AcDbEntity
8
0
100
AcDbCircle
10
-59.00000019371511
20
-104.99999767541901
30
0
40
1.5000000000000002
210
0
220
0
230
1
0
LWPOLYLINE
5
137
100
AcDbEntity
8
0
100
AcDbPolyline
90
4
70
1
43
0.0
10
-131.00000201165699
20
-145.000000745058
10
-111.00000171363402
20
-145.000000745058
10
-111.00000171363402
20
-140.000000670552
10
-131.00000201165699
20
-140.000000670552
0
ENDSEC
0
SECTION
2
OBJECTS
0
DICTIONARY
5
C
100
AcDbDictionary
3
ACAD_GROUP
350
D
3
ACAD_MLINESTYLE
350
17
0
DICTIONARY
5
D
100
AcDbDictionary
0
DICTIONARY
5
1A
330
C
100
AcDbDictionary
0
DICTIONARY
5
17
100
AcDbDictionary
0
ENDSEC
0
EOF
