0
SECTION
2
HEADER
9
$INSUNITS
70
4
9
$ACADVER
1
AC1014
9
$HANDSEED
5
FFFF
0
ENDSEC
0
SECTION
2
TABLES
0
TABLE
2
VPORT
5
8
100
AcDbSymbolTable
0
ENDTAB
0
TABLE
2
LTYPE
5
5
100
AcDbSymbolTable
0
LTYPE
5
14
100
AcDbSymbolTableRecord
100
AcDbLinetypeTableRecord
2
BYBLOCK
70
0
0
LTYPE
5
15
100
AcDbSymbolTableRecord
100
AcDbLinetypeTableRecord
2
BYLAYER
70
0
0
ENDTAB
0
TABLE
2
LAYER
5
2
100
AcDbSymbolTable
70
2
0
LAYER
5
50
100
AcDbSymbolTableRecord
100
AcDbLayerTableRecord
2
0
70
0
6
CONTINUOUS
0
ENDTAB
0
TABLE
2
STYLE
5
3
100
AcDbSymbolTable
70
1
0
STYLE
5
11
100
AcDbSymbolTableRecord
100
AcDbTextStyleTableRecord
2
STANDARD
70
0
0
ENDTAB
0
TABLE
2
VIEW
5
6
100
AcDbSymbolTable
70
0
0
ENDTAB
0
TABLE
2
UCS
5
7
100
AcDbSymbolTable
70
0
0
ENDTAB
0
TABLE
2
APPID
5
9
100
AcDbSymbolTable
70
2
0
APPID
5
12
100
AcDbSymbolTableRecord
100
AcDbRegAppTableRecord
2
ACAD
70
0
0
ENDTAB
0
TABLE
2
DIMSTYLE
5
A
100
AcDbSymbolTable
70
1
0
ENDTAB
0
TABLE
2
BLOCK_RECORD
5
1
100
AcDbSymbolTable
70
1
0
BLOCK_RECORD
5
1F
100
AcDbSymbolTableRecord
100
AcDbBlockTableRecord
2
*MODEL_SPACE
0
BLOCK_RECORD
5
1B
100
AcDbSymbolTableRecord
100
AcDbBlockTableRecord
2
*PAPER_SPACE
0
ENDTAB
0
ENDSEC
0
SECTION
2
BLOCKS
0
BLOCK
5
20
100
AcDbEntity
100
AcDbBlockBegin
2
*MODEL_SPACE
0
ENDBLK
5
21
100
AcDbEntity
100
AcDbBlockEnd
0
BLOCK
5
1C
100
AcDbEntity
100
AcDbBlockBegin
2
*PAPER_SPACE
0
ENDBLK
5
1D
100
AcDbEntity
100
AcDbBlockEnd
0
ENDSEC
0
SECTION
2
ENTITIES
0
ARC
5
100
100
AcDbEntity
8
0
100
AcDbCircle
10
1.0000002980232601
20
-129.999999701977
30
0
40
5
210
0
220
0
230
1
100
AcDbArc
50
197.33353020040607
51
270.00000043188277
0
LINE
5
101
100
AcDbEntity
8
0
100
AcDbLine
10
1.0000003357121461
20
-134.999999701977
30
0
11
1.0000002980232601
21
-129.999999701977
31
0
0
LINE
5
102
100
AcDbEntity
8
0
100
AcDbLine
10
1.0000002980232601
20
-129.999999701977
30
0
11
6.0000005215406693
21
-129.999999627471
31
1.1102230246250934e-15
0
ARC
5
103
100
AcDbEntity
8
0
100
AcDbCircle
10
6.0000005215406702
20
-124.999999627471
30
1.1102230246250934e-15
40
5
210
0
220
0
230
1
100
AcDbArc
50
-90
51
89.999999999999986
0
LINE
5
104
100
AcDbEntity
8
0
100
AcDbLine
10
6.000000521540672
20
-119.999999627471
30
1.1102230246250934e-15
11
1.0000003725290607
21
-119.999999478459
31
0
0
LINE
5
105
100
AcDbEntity
8
0
100
AcDbLine
10
1.0000003725290607
20
-119.999999478459
30
0
11
1.0000003357121463
21
-114.99999940395404
31
-1.5777218104420236e-29
0
ARC
5
106
100
AcDbEntity
8
0
100
AcDbCircle
10
1.0000003725290607
20
-119.999999478459
30
0
40
5.0000000745049711
210
-2.3234738830680683e-38
220
3.1554435738648008e-30
230
1
100
AcDbArc
50
90.000000421890761
51
162.66646923895911
0
ARC
5
107
100
AcDbEntity
8
0
100
AcDbCircle
10
-8.5458657875765596
20
-117.02066379415902
30
0
40
4.9999999999996918
210
0
220
0
230
1
100
AcDbArc
50
282.66647158462973
51
342.66646979959307
0
ARC
5
108
100
AcDbEntity
8
0
100
AcDbCircle
10
-8.9999998137354495
20
-114.999999478459
30
0
40
7.0710678382072603
210
0
220
0
230
1
100
AcDbArc
50
282.35010035607615
51
282.66647158463229
0
ARC
5
109
100
AcDbEntity
8
0
100
AcDbCircle
10
-8.3431455465731794
20
-117.99999950155602
30
0
40
4.0000000000000018
210
0
220
0
230
1
100
AcDbArc
50
231.05755866478194
51
282.35010035607638
0
ARC
5
110
100
AcDbEntity
8
0
100
AcDbCircle
10
-13.9999998509884
20
-124.99999955296501
30
-1.1102230246252039e-15
40
5.0000000745059312
210
-1.3956377222524195e-16
220
-1.7270135665132404e-16
230
1
100
AcDbArc
50
51.057558664773261
51
308.94244133521954
0
ARC
5
111
100
AcDbEntity
8
0
100
AcDbCircle
10
-8.3431455465731794
20
-131.99999960437401
30
0
40
3.9999999999999938
210
0
220
-0
230
1
100
AcDbArc
50
77.649899643923703
51
128.94244133522699
0
ARC
5
112
100
AcDbEntity
8
0
100
AcDbCircle
10
-8.9999998137354495
20
-134.999999627471
30
0
40
7.0710678382072523
210
0
220
-0
230
1
100
AcDbArc
50
77.333528415366814
51
77.649899643923831
0
ARC
5
113
100
AcDbEntity
8
0
100
AcDbCircle
10
-8.5458657875766697
20
-132.97933531177102
30
0
40
4.9999999999996767
210
0
220
-0
230
1
100
AcDbArc
50
17.333530200406553
51
77.333528415367823
0
LWPOLYLINE
5
114
100
AcDbEntity
8
0
100
AcDbPolyline
90
5
70
1
43
0.0
10
1.0000002980232603
20
-127.499999590218
10
6.0000004470348696
20
-127.499999590218
10
6.0000004470348696
20
-122.49999951571201
10
1.00000037252906
20
-122.49999951571201
10
1.00000037252906
20
-124.99999955296501
0
CIRCLE
5
115
100
AcDbEntity
8
0
100
AcDbCircle
10
-13.9999998509884
20
-124.99999955296501
30
-1.1102230246252039e-15
40
2.0000000298023202
210
0
220
0
230
1
0
ARC
5
116
100
AcDbEntity
8
0
100
AcDbCircle
10
1.0000002980232601
20
-129.999999701977
30
0
40
5
210
0
220
0
230
1
100
AcDbArc
50
197.33353020040607
51
270.00000043188277
0
LINE
5
117
100
AcDbEntity
8
0
100
AcDbLine
10
1.0000003357121454
20
-134.999999701977
30
0
11
1.00000037252906
21
-129.999999627471
31
-4.926439913641935e-46
0
LINE
5
118
100
AcDbEntity
8
0
100
AcDbLine
10
1.00000037252906
20
-129.999999627471
30
-4.926439913641935e-46
11
6.0000005215406693
21
-129.999999627471
31
-8.2094182824221084e-79
0
ARC
5
119
100
AcDbEntity
8
0
100
AcDbCircle
10
6.0000005215406702
20
-124.999999627471
30
0
40
5
210
-3.6457140783694923e-95
220
-1.6418836564844217e-79
230
1
100
AcDbArc
50
-90
51
90
0
LINE
5
120
100
AcDbEntity
8
0
100
AcDbLine
10
6.0000005215406702
20
-119.999999627471
30
0
11
1.0000003725290607
21
-119.999999478459
31
-2.0176762566481085e-39
0
LINE
5
121
100
AcDbEntity
8
0
100
AcDbLine
10
1.0000003725290607
20
-119.999999478459
30
-2.0176762566481085e-39
11
1.0000003357121463
21
-114.99999940395404
31
1.2589790890418278e-45
0
ARC
5
122
100
AcDbEntity
8
0
100
AcDbCircle
10
1.0000003725290607
20
-119.999999478459
30
-2.0176762566481085e-39
40
5.0000000745049711
210
2.9713863248807051e-48
220
-4.0353549711235937e-40
230
1
100
AcDbArc
50
90.000000421890761
51
162.66646923895911
0
ARC
5
123
100
AcDbEntity
8
0
100
AcDbCircle
10
-8.5458657875765667
20
-117.02066379415902
30
-2.2789362589823517e-63
40
4.9999999999996936
210
-1.3063093248439363e-48
220
4.0770882956180129e-49
230
1
100
AcDbArc
50
282.66647158462985
51
342.66646979959319
0
ARC
5
124
100
AcDbEntity
8
0
100
AcDbCircle
10
-8.9999998142216118
20
-114.99999947626489
30
0
40
7.0710678404545888
210
0
220
0
230
1
100
AcDbArc
50
282.35010035612169
51
282.66647158457732
0
ARC
5
125
100
AcDbEntity
8
0
100
AcDbCircle
10
-8.3431455465732078
20
-117.9999995015561
30
0
40
3.9999999999999143
210
0
220
0
230
1
100
AcDbArc
50
231.05755866478148
51
282.35010035607701
0
ARC
5
126
100
AcDbEntity
8
0
100
AcDbCircle
10
-13.9999998509884
20
-124.99999955296501
30
0
40
5.0000000745059312
210
2.0088401078926668e-63
220
-1.6233879611084873e-63
230
1
100
AcDbArc
50
51.057558664773261
51
308.94244133521954
0
ARC
5
127
100
AcDbEntity
8
0
100
AcDbCircle
10
-8.3431455465731794
20
-131.99999960437401
30
5.7733051894219576e-62
40
3.9999999999999929
210
4.0845226932385269e-49
220
3.8489649360184259e-48
230
1
100
AcDbArc
50
77.649899643923703
51
128.94244133522699
0
ARC
5
128
100
AcDbEntity
8
0
100
AcDbCircle
10
-8.9999998137339929
20
-134.9999996274575
30
0
40
7.0710678381937422
210
0
220
-0
230
1
100
AcDbArc
50
77.333528415354351
51
77.649899643911965
0
ARC
5
129
100
AcDbEntity
8
0
100
AcDbCircle
10
-8.5458657875766217
20
-132.97933531177097
30
0
40
4.9999999999996145
210
0
220
-0
230
1
100
AcDbArc
50
17.333530200406106
51
77.333528415368264
0
LWPOLYLINE
5
130
100
AcDbEntity
8
0
100
AcDbPolyline
90
5
70
1
43
0.0
10
1.0000002980232603
20
-127.499999590218
10
6.0000004470348696
20
-127.499999590218
10
6.0000004470348696
20
-122.49999951571201
10
1.00000037252906
20
-122.49999951571201
10
1.00000037252906
20
-124.99999955296501
0
CIRCLE
5
131
100
AcDbEntity
8
0
100
AcDbCircle
10
-13.9999998509884
20
-124.99999955296501
30
0
40
2.0000000298023197
210
0
220
-0
230
1
0
ENDSEC
0
SECTION
2
OBJECTS
0
DICTIONARY
5
C
100
AcDbDictionary
3
ACAD_GROUP
350
D
3
ACAD_MLINESTYLE
350
17
0
DICTIONARY
5
D
100
AcDbDictionary
0
DICTIONARY
5
1A
330
C
100
AcDbDictionary
0
DICTIONARY
5
17
100
AcDbDictionary
0
ENDSEC
0
EOF
