0
SECTION
2
HEADER
9
$INSUNITS
70
4
9
$ACADVER
1
AC1014
9
$HANDSEED
5
FFFF
0
ENDSEC
0
SECTION
2
TABLES
0
TABLE
2
VPORT
5
8
100
AcDbSymbolTable
0
ENDTAB
0
TABLE
2
LTYPE
5
5
100
AcDbSymbolTable
0
LTYPE
5
14
100
AcDbSymbolTableRecord
100
AcDbLinetypeTableRecord
2
BYBLOCK
70
0
0
LTYPE
5
15
100
AcDbSymbolTableRecord
100
AcDbLinetypeTableRecord
2
BYLAYER
70
0
0
ENDTAB
0
TABLE
2
LAYER
5
2
100
AcDbSymbolTable
70
2
0
LAYER
5
50
100
AcDbSymbolTableRecord
100
AcDbLayerTableRecord
2
0
70
0
6
CONTINUOUS
0
ENDTAB
0
TABLE
2
STYLE
5
3
100
AcDbSymbolTable
70
1
0
STYLE
5
11
100
AcDbSymbolTableRecord
100
AcDbTextStyleTableRecord
2
STANDARD
70
0
0
ENDTAB
0
TABLE
2
VIEW
5
6
100
AcDbSymbolTable
70
0
0
ENDTAB
0
TABLE
2
UCS
5
7
100
AcDbSymbolTable
70
0
0
ENDTAB
0
TABLE
2
APPID
5
9
100
AcDbSymbolTable
70
2
0
APPID
5
12
100
AcDbSymbolTableRecord
100
AcDbRegAppTableRecord
2
ACAD
70
0
0
ENDTAB
0
TABLE
2
DIMSTYLE
5
A
100
AcDbSymbolTable
70
1
0
ENDTAB
0
TABLE
2
BLOCK_RECORD
5
1
100
AcDbSymbolTable
70
1
0
BLOCK_RECORD
5
1F
100
AcDbSymbolTableRecord
100
AcDbBlockTableRecord
2
*MODEL_SPACE
0
BLOCK_RECORD
5
1B
100
AcDbSymbolTableRecord
100
AcDbBlockTableRecord
2
*PAPER_SPACE
0
ENDTAB
0
ENDSEC
0
SECTION
2
BLOCKS
0
BLOCK
5
20
100
AcDbEntity
100
AcDbBlockBegin
2
*MODEL_SPACE
0
ENDBLK
5
21
100
AcDbEntity
100
AcDbBlockEnd
0
BLOCK
5
1C
100
AcDbEntity
100
AcDbBlockBegin
2
*PAPER_SPACE
0
ENDBLK
5
1D
100
AcDbEntity
100
AcDbBlockEnd
0
ENDSEC
0
SECTION
2
ENTITIES
0
CIRCLE
5
100
100
AcDbEntity
8
0
100
AcDbCircle
10
-32.999988628812282
20
-112.00000169873238
30
0
40
1.5000000000000036
210
0
220
-0
230
1
0
CIRCLE
5
101
100
AcDbEntity
8
0
100
AcDbCircle
10
-32.999988628812282
20
-54.000001698732383
30
0
40
1.5000000000000036
210
0
220
-0
230
1
0
CIRCLE
5
102
100
AcDbEntity
8
0
100
AcDbCircle
10
-82.000003155320911
20
-54.000001698732383
30
0
40
1.5000000000000036
210
0
220
-0
230
1
0
ARC
5
103
100
AcDbEntity
8
0
100
AcDbCircle
10
-37.999988628812275
20
-35.000000223517425
30
0
40
4.9999999999999911
210
0
220
0
230
1
100
AcDbArc
50
0
51
90
0
LINE
5
104
100
AcDbEntity
8
0
100
AcDbLine
10
-32.999988628812282
20
-35.000000223517425
30
0
11
-32.999988628812275
21
-46.583803211636727
31
0
0
ARC
5
105
100
AcDbEntity
8
0
100
AcDbCircle
10
-35.999988628812275
20
-46.583803211636734
30
0
40
2.9999999999999902
210
0
220
0
230
1
100
AcDbArc
50
-67.975687162957797
51
0
0
ARC
5
106
100
AcDbEntity
8
0
100
AcDbCircle
10
-32.999988628812282
20
-54.000001698732383
30
0
40
4.999999999999992
210
0
220
0
230
1
100
AcDbArc
50
112.0243128370421
51
247.97568716295788
0
ARC
5
107
100
AcDbEntity
8
0
100
AcDbCircle
10
-35.999988628812247
20
-61.416200185828032
30
0
40
2.9999999999999849
210
0
220
0
230
1
100
AcDbArc
50
0
51
67.975687162958224
0
LINE
5
108
100
AcDbEntity
8
0
100
AcDbLine
10
-32.999988628812261
20
-61.416200185828046
30
0
11
-32.999988628812225
21
-104.58380313126582
31
0
0
ARC
5
109
100
AcDbEntity
8
0
100
AcDbCircle
10
-35.999988628812233
20
-104.58380313126584
30
0
40
3.0000000000000009
210
0
220
0
230
1
100
AcDbArc
50
-67.975687378813433
51
0
0
ARC
5
110
100
AcDbEntity
8
0
100
AcDbCircle
10
-32.999988628812282
20
-112.00000169873238
30
0
40
5.0000000745057784
210
0
220
0
230
1
100
AcDbArc
50
112.0243126211866
51
260.40593189340137
0
ARC
5
111
100
AcDbEntity
8
0
100
AcDbCircle
10
-33.999988628812261
20
-117.91608155739466
30
0
40
0.99999999999998312
210
0
220
-0
230
1
100
AcDbArc
50
0
51
80.405931893401984
0
LINE
5
112
100
AcDbEntity
8
0
100
AcDbLine
10
-32.999988628812275
20
-117.91608155739465
30
0
11
-32.999988628812282
21
-118.00000177323803
31
0
0
ARC
5
113
100
AcDbEntity
8
0
100
AcDbCircle
10
-33.999988628812289
20
-118.00000177323797
30
0
40
1.0000000000000142
210
0
220
0
230
1
100
AcDbArc
50
270.00000000000119
51
360
0
LINE
5
114
100
AcDbEntity
8
0
100
AcDbLine
10
-33.999988628812268
20
-119.00000177323798
30
0
11
-39.800335479389226
21
-119.00000177323804
31
0
0
ARC
5
115
100
AcDbEntity
8
0
100
AcDbCircle
10
-39.800335479389283
20
-114.00000177323804
30
0
40
4.9999999999999991
210
0
220
0
230
1
100
AcDbArc
50
247.08044769452312
51
270.00000000000068
0
ARC
5
116
100
AcDbEntity
8
0
100
AcDbCircle
10
-43.499999176793629
20
-122.75000111758703
30
0
40
4.4999999999999769
210
0
220
-0
230
1
100
AcDbArc
50
67.080447694522888
51
112.9195523054784
0
ARC
5
117
100
AcDbEntity
8
0
100
AcDbCircle
10
-47.199662874198289
20
-114.00000177323777
30
0
40
5.0000000000003375
210
0
220
0
230
1
100
AcDbArc
50
270.00000000000136
51
292.91955230547779
0
LINE
5
118
100
AcDbEntity
8
0
100
AcDbLine
10
-47.199662874198168
20
-119.00000177323811
30
0
11
-54.800335479388885
21
-119.00000177323817
31
0
0
ARC
5
119
100
AcDbEntity
8
0
100
AcDbCircle
10
-54.800335479388906
20
-114.0000017732382
30
0
40
4.9999999999999654
210
0
220
0
230
1
100
AcDbArc
50
247.08044769452036
51
270.00000000000023
0
ARC
5
120
100
AcDbEntity
8
0
100
AcDbCircle
10
-58.499999176793629
20
-122.75000111758703
30
0
40
4.5000000000000098
210
0
220
-0
230
1
100
AcDbArc
50
67.080447694520757
51
112.91955230548038
0
ARC
5
121
100
AcDbEntity
8
0
100
AcDbCircle
10
-62.199662874198474
20
-114.00000177323827
30
0
40
4.9999999999999645
210
0
220
0
230
1
100
AcDbArc
50
270.00000000000034
51
292.91955230548018
0
LINE
5
122
100
AcDbEntity
8
0
100
AcDbLine
10
-62.199662874198445
20
-119.00000177323824
30
0
11
-69.800335479388593
21
-119.0000017732383
31
0
0
ARC
5
123
100
AcDbEntity
8
0
100
AcDbCircle
10
-69.800335479388721
20
-114.00000177323869
30
0
40
4.9999999999995905
210
0
220
0
230
1
100
AcDbArc
50
247.08044769451806
51
270.00000000000148
0
ARC
5
124
100
AcDbEntity
8
0
100
AcDbCircle
10
-73.499999176793636
20
-122.75000111758703
30
0
40
4.5
210
0
220
-0
230
1
100
AcDbArc
50
67.080447694518654
51
112.91955230548241
0
ARC
5
125
100
AcDbEntity
8
0
100
AcDbCircle
10
-77.19966287419895
20
-114.00000177323778
30
0
40
5.0000000000005862
210
0
220
0
230
1
100
AcDbArc
50
270.0000000000021
51
292.91955230548115
0
LINE
5
126
100
AcDbEntity
8
0
100
AcDbLine
10
-77.199662874198765
20
-119.00000177323838
30
0
11
-81.000003155320883
21
-119.0000017732384
31
0
0
ARC
5
127
100
AcDbEntity
8
0
100
AcDbCircle
10
-81.000003155320911
20
-118.00000177323838
30
0
40
1.0000000000000142
210
0
220
0
230
1
100
AcDbArc
50
180
51
270.00000000000159
0
LINE
5
128
100
AcDbEntity
8
0
100
AcDbLine
10
-82.000003155320925
20
-118.0000017732384
30
0
11
-82.000003155320954
21
-117.9160815573947
31
0
0
ARC
5
129
100
AcDbEntity
8
0
100
AcDbCircle
10
-81.000003155320911
20
-117.9160815573947
30
0
40
1.0000000000000184
210
0
220
0
230
1
100
AcDbArc
50
99.594068106599366
51
180
0
ARC
5
130
100
AcDbEntity
8
0
100
AcDbCircle
10
-82.000003155320911
20
-112.00000169873238
30
0
40
5.0000000745058202
210
-0
220
0
230
1
100
AcDbArc
50
-80.405931893401473
51
67.975687378813319
0
ARC
5
131
100
AcDbEntity
8
0
100
AcDbCircle
10
-79.000003155320911
20
-104.58380313126582
30
0
40
3.0000000000000338
210
0
220
0
230
1
100
AcDbArc
50
180
51
247.97568737881284
0
LINE
5
132
100
AcDbEntity
8
0
100
AcDbLine
10
-82.00000315532094
20
-104.58380313126582
30
0
11
-82.00000315532094
21
-61.416200185828046
31
0
0
ARC
5
133
100
AcDbEntity
8
0
100
AcDbCircle
10
-79.00000315532094
20
-61.416200185828032
30
0
40
2.9999999999999871
210
0
220
0
230
1
100
AcDbArc
50
112.02431283704202
51
180
0
ARC
5
134
100
AcDbEntity
8
0
100
AcDbCircle
10
-82.000003155320911
20
-54.000001698732383
30
0
40
4.9999999999999893
210
-0
220
0
230
1
100
AcDbArc
50
-67.97568716295801
51
67.975687162957954
0
ARC
5
135
100
AcDbEntity
8
0
100
AcDbCircle
10
-79.000003155320925
20
-46.583803211636706
30
0
40
3.000000000000016
210
0
220
0
230
1
100
AcDbArc
50
180
51
247.975687162958
0
LINE
5
136
100
AcDbEntity
8
0
100
AcDbLine
10
-82.00000315532094
20
-46.583803211636727
30
0
11
-82.000003155320911
21
-35.000000223517425
31
0
0
ARC
5
137
100
AcDbEntity
8
0
100
AcDbCircle
10
-77.000011818222589
20
-35.000000223517397
30
0
40
4.9999999999999609
210
0
220
0
230
1
100
AcDbArc
50
119.55107281264833
51
180
0
ARC
5
138
100
AcDbEntity
8
0
100
AcDbCircle
10
-77.986410197489619
20
-33.260167404715645
30
0
40
2.9999999999998912
210
0
220
-0
230
1
100
AcDbArc
50
53.259757634117037
51
119.55107281265036
0
ARC
5
139
100
AcDbEntity
8
0
100
AcDbCircle
10
-73.499999176793736
20
-27.249999673830185
30
0
40
4.4999999999999982
210
0
220
0
230
1
100
AcDbArc
50
233.25975763411714
51
305.33449605957799
0
ARC
5
140
100
AcDbEntity
8
0
100
AcDbCircle
10
-68.005684708195531
20
-35.000000223517482
30
0
40
5.0000000000000577
210
0
220
0
230
1
100
AcDbArc
50
90.000000000000171
51
125.33449605957782
0
LINE
5
141
100
AcDbEntity
8
0
100
AcDbLine
10
-68.005684708195545
20
-30.000000223517425
30
0
11
-37.999988628812275
21
-30.000000223517436
31
0
0
LWPOLYLINE
5
142
100
AcDbEntity
8
0
100
AcDbPolyline
90
4
70
1
43
0.0
10
-35.00000111758709
20
-5.000000074505806
10
-79.999999329447746
20
-5.000000074505806
10
-79.999999329447746
20
-10.00000111758709
10
-35.00000111758709
20
-10.00000111758709
0
CIRCLE
5
143
100
AcDbEntity
8
0
100
AcDbCircle
10
-43.499999176793629
20
-132.75000111758703
30
0
40
2.5
210
0
220
-0
230
1
0
CIRCLE
5
144
100
AcDbEntity
8
0
100
AcDbCircle
10
-58.499999176793629
20
-132.75000111758703
30
0
40
2.5
210
0
220
-0
230
1
0
CIRCLE
5
145
100
AcDbEntity
8
0
100
AcDbCircle
10
-73.499999176793636
20
-132.75000111758703
30
0
40
2.5
210
0
220
-0
230
1
0
CIRCLE
5
146
100
AcDbEntity
8
0
100
AcDbCircle
10
-43.499999176793629
20
-122.75000111758703
30
0
40
2.9999999999999982
210
0
220
-0
230
1
0
CIRCLE
5
147
100
AcDbEntity
8
0
100
AcDbCircle
10
-58.499999176793629
20
-122.75000111758703
30
0
40
2.9999999999999982
210
0
220
-0
230
1
0
CIRCLE
5
148
100
AcDbEntity
8
0
100
AcDbCircle
10
-73.499999176793636
20
-122.75000111758703
30
0
40
2.9999999999999982
210
0
220
-0
230
1
0
LINE
5
149
100
AcDbEntity
8
0
100
AcDbLine
10
-100.00160487874906
20
-30.000974907160298
30
0
11
-100.00176158649579
21
-20.013686629697318
31
0
0
LINE
5
150
100
AcDbEntity
8
0
100
AcDbLine
10
-100.00176158649579
20
-20.013686629697318
30
0
11
-95.002237088042392
21
-20.013446997650401
31
0
0
LINE
5
151
100
AcDbEntity
8
0
100
AcDbLine
10
-95.002237088042392
20
-20.013446997650401
30
0
11
-95.002117565266119
21
-22.507091131539525
31
0
0
LINE
5
152
100
AcDbEntity
8
0
100
AcDbLine
10
-95.002117565266119
20
-22.507091131539525
30
0
11
-80.002117582496467
21
-22.506372167025841
31
0
0
LINE
5
153
100
AcDbEntity
8
0
100
AcDbLine
10
-80.002117582496467
20
-22.506372167025841
30
0
11
-80.001877927658569
21
-27.506372161282382
31
0
0
LINE
5
154
100
AcDbEntity
8
0
100
AcDbLine
10
-80.001877927658569
20
-27.506372161282382
30
0
11
-95.00187791042822
21
-27.507091125796066
31
0
0
LINE
5
155
100
AcDbEntity
8
0
100
AcDbLine
10
-95.00187791042822
20
-27.507091125796066
30
0
11
-95.001758387651947
21
-30.000735259685172
31
0
0
LINE
5
156
100
AcDbEntity
8
0
100
AcDbLine
10
-95.001758387651947
20
-30.000735259685172
30
0
11
-100.00160487874906
21
-30.000974907160298
31
0
0
CIRCLE
5
157
100
AcDbEntity
8
0
100
AcDbCircle
10
-58.499999176793736
20
-17.249999673830185
30
0
40
2.5
210
0
220
-0
230
1
0
CIRCLE
5
158
100
AcDbEntity
8
0
100
AcDbCircle
10
-43.499999176793736
20
-17.249999673830185
30
0
40
2.5
210
0
220
-0
230
1
0
CIRCLE
5
159
100
AcDbEntity
8
0
100
AcDbCircle
10
-73.499999176793736
20
-27.249999673830185
30
0
40
2.9999999999999982
210
0
220
-0
230
1
0
LINE
5
160
100
AcDbEntity
8
0
100
AcDbLine
10
-95.00187791042822
20
-122.49291110937811
30
0
11
-80.001877927658569
21
-122.49363007389179
31
0
0
LINE
5
161
100
AcDbEntity
8
0
100
AcDbLine
10
-80.001877927658569
20
-122.49363007389179
30
0
11
-80.002117582496467
21
-127.49363006814833
31
0
0
LINE
5
162
100
AcDbEntity
8
0
100
AcDbLine
10
-80.002117582496467
20
-127.49363006814833
30
0
11
-95.002117565266119
21
-127.49291110363465
31
0
0
LINE
5
163
100
AcDbEntity
8
0
100
AcDbLine
10
-95.002117565266119
20
-127.49291110363465
30
0
11
-95.002237088042392
21
-129.98655523752379
31
0
0
LINE
5
164
100
AcDbEntity
8
0
100
AcDbLine
10
-95.002237088042392
20
-129.98655523752379
30
0
11
-100.00176158649579
21
-129.98631560547688
31
0
0
LINE
5
165
100
AcDbEntity
8
0
100
AcDbLine
10
-100.00176158649579
20
-129.98631560547688
30
0
11
-100.00160487874906
21
-119.99902732801388
31
0
0
LINE
5
166
100
AcDbEntity
8
0
100
AcDbLine
10
-100.00160487874906
20
-119.99902732801388
30
0
11
-95.001758387651947
21
-119.99926697548901
31
0
0
LINE
5
167
100
AcDbEntity
8
0
100
AcDbLine
10
-95.001758387651947
20
-119.99926697548901
30
0
11
-95.00187791042822
21
-122.49291110937811
31
0
0
CIRCLE
5
168
100
AcDbEntity
8
0
100
AcDbCircle
10
-82.000003155320911
20
-112.00000169873238
30
0
40
1.5000000000000036
210
0
220
-0
230
1
0
LWPOLYLINE
5
169
100
AcDbEntity
8
0
100
AcDbPolyline
90
4
70
1
43
0.0
10
-35.00000111758709
20
-145.00000216066837
10
-35.00000111758709
20
-140.00000111758709
10
-79.999999329447746
20
-140.00000111758709
10
-79.999999329447746
20
-145.00000216066837
0
LWPOLYLINE
5
170
100
AcDbEntity
8
0
100
AcDbPolyline
90
39
70
1
43
0.0
10
-90.000000223517418
20
-5
42
-0.41421356237309503
10
-85.000000223517418
20
0
10
-30.000000223517418
20
5.5511151231257827e-16
42
-0.41421356237309509
10
-25.000000223517418
20
-5
10
-25.000000223517418
20
-15.000000223517418
10
-20.000000149011612
20
-15.000000223517418
10
-20.000000149011612
20
-35.000000223517418
10
-25.000000223517418
20
-35.000000223517418
10
-25.000000223517418
20
-60.000000894069672
10
-20.000000149011612
20
-60.000000894069672
10
-20.000000149011612
20
-90.000001341104507
10
-25.000000223517418
20
-90.000001341104507
10
-25.000000223517418
20
-115.00000201165676
10
-20.000000149011612
20
-115.00000201165676
10
-20.000000149011612
20
-135.00000201165676
10
-25.000000223517418
20
-135.00000201165676
10
-25.000000223517418
20
-145.00000223517418
42
-0.41421356237309503
10
-30.000000223517418
20
-150.00000223517418
10
-85.000000223517418
20
-150.00000223517418
42
-0.41421356237309503
10
-90.000000223517418
20
-145.00000223517418
10
-89.99999903826911
20
-134.98725869371879
10
-94.999999125036339
20
-134.98660415112514
10
-99.999677904259201
20
-134.98592373173489
10
-100.00205667009958
20
-134.98631559676934
42
-0.41421304143542409
10
-105.00176157830521
20
-129.98602941483699
10
-105.00160487844548
20
-119.99897223120556
42
-0.41421346115823326
10
-100.00155150978657
20
-114.99902732829872
10
-90.000000223517418
20
-115.00000171363354
10
-90.000000223517418
20
-90.000001341104507
10
-95.000000298023224
20
-90.000001341104507
10
-95.000000298023224
20
-60.000000894069672
10
-90.000000223517418
20
-60.000000894069672
10
-89.999998958054306
20
-35.000868152394148
10
-100.00155150978657
20
-35.000974906875527
42
-0.41421346115823326
10
-105.00160487844555
20
-30.001030003968623
10
-105.00176157830539
20
-20.01397282033718
42
-0.41421304143542409
10
-100.00205667009958
20
-15.013686638404646
10
-99.999677904259201
20
-15.014078503439308
10
-90.000000223517418
20
-15.000000223517418
0
ENDSEC
0
SECTION
2
OBJECTS
0
DICTIONARY
5
C
100
AcDbDictionary
3
ACAD_GROUP
350
D
3
ACAD_MLINESTYLE
350
17
0
DICTIONARY
5
D
100
AcDbDictionary
0
DICTIONARY
5
1A
330
C
100
AcDbDictionary
0
DICTIONARY
5
17
100
AcDbDictionary
0
ENDSEC
0
EOF
