<?xml version="1.0" encoding="UTF-8"?>
<svg xmlns="http://www.w3.org/2000/svg" width="800.000" height="600.000" viewBox="0.0 0.0 800.000 600.000" version="1.1">
  <title>Produce by Acme CAD Converter</title>
  <desc>Produce by Acme CAD Converter</desc>
<polyline points="148.92,551.08 148.92,461.41 166.86,461.41 166.86,533.14 166.86,551.08 148.92,551.08" style="fill:none;stroke:black;stroke-width:0.5"/>
<polyline points="651.08,461.41 651.08,551.08 633.14,551.08 633.14,533.14 633.14,461.41 651.08,461.41" style="fill:none;stroke:black;stroke-width:0.5"/>
<polyline points="148.92,138.59 148.92,48.92 166.86,48.92 166.86,66.86 166.86,138.59 148.92,138.59" style="fill:none;stroke:black;stroke-width:0.5"/>
<polyline points="651.08,48.92 651.08,138.59 633.14,138.59 633.14,66.86 633.14,48.92 651.08,48.92" style="fill:none;stroke:black;stroke-width:0.5"/>
<polyline points="633.14,443.47 630.59,443.66 628.09,444.2 625.69,445.09 623.45,446.32 621.4,447.85 619.59,449.66 618.06,451.71 616.83,453.96 615.94,456.36 615.39,458.86 615.21,461.41 615.21,533.14 615.21,533.14 615.03,535.7 614.48,538.2 613.59,540.59 612.36,542.84 610.83,544.89 609.02,546.7 606.97,548.23 604.73,549.46 602.33,550.35 599.83,550.9 597.28,551.08 202.72,551.08 202.72,551.08 200.17,550.9 197.67,550.35 195.27,549.46 193.03,548.23 190.98,546.7 189.17,544.89 187.64,542.84 186.41,540.59 185.52,538.2 184.97,535.7 184.79,533.14 184.79,461.41 184.79,461.41 184.61,458.86 184.06,456.36 183.17,453.96 181.94,451.71 180.41,449.66 178.6,447.85 176.55,446.32 174.31,445.09 171.91,444.2 169.41,443.66 166.86,443.47 166.86,443.47 164.3,443.29 161.8,442.75 159.41,441.85 157.16,440.63 155.11,439.09 153.3,437.28 151.77,435.24 150.54,432.99 149.65,430.59 149.1,428.09 148.92,425.54 148.92,174.46 148.92,174.46 149.1,171.91 149.65,169.41 150.54,167.01 151.77,164.76 153.3,162.72 155.11,160.91 157.16,159.37 159.41,158.15 161.8,157.25 164.3,156.71 166.86,156.53 166.86,156.53 169.41,156.34 171.91,155.8 174.31,154.91 176.55,153.68 178.6,152.15 180.41,150.34 181.94,148.29 183.17,146.04 184.06,143.64 184.61,141.14 184.79,138.59 184.79,66.86 184.79,66.86 184.97,64.3 185.52,61.8 186.41,59.41 187.64,57.16 189.17,55.11 190.98,53.3 193.03,51.77 195.27,50.54 197.67,49.65 200.17,49.1 202.72,48.92 597.28,48.92 597.28,48.92 599.83,49.1 602.33,49.65 604.73,50.54 606.97,51.77 609.02,53.3 610.83,55.11 612.36,57.16 613.59,59.41 614.48,61.8 615.03,64.3 615.21,66.86 615.21,138.59 615.21,138.59 615.39,141.14 615.94,143.64 616.83,146.04 618.06,148.29 619.59,150.34 621.4,152.15 623.45,153.68 625.69,154.91 628.09,155.8 630.59,156.34 633.14,156.53 633.14,156.53 635.7,156.71 638.2,157.25 640.59,158.15 642.84,159.37 644.89,160.91 646.7,162.72 648.23,164.76 649.46,167.01 650.35,169.41 650.9,171.91 651.08,174.46 651.08,425.54 651.08,425.54 650.9,428.09 650.35,430.59 649.46,432.99 648.23,435.24 646.7,437.28 644.89,439.09 642.84,440.63 640.59,441.85 638.2,442.75 635.7,443.29 633.14,443.47" style="fill:none;stroke:black;stroke-width:0.5"/>
<polyline points="651.08,30.99 148.92,30.99 148.92,30.99 146.37,31.17 143.87,31.71 141.47,32.61 139.23,33.83 137.18,35.37 135.37,37.18 133.83,39.23 132.61,41.47 131.71,43.87 131.17,46.37 130.99,48.92 130.99,551.08 130.99,551.08 131.17,553.63 131.71,556.13 132.61,558.53 133.83,560.77 135.37,562.82 137.18,564.63 139.23,566.17 141.47,567.39 143.87,568.29 146.37,568.83 148.92,569.01 651.08,569.01 651.08,569.01 653.63,568.83 656.13,568.29 658.53,567.39 660.77,566.17 662.82,564.63 664.63,562.82 666.17,560.77 667.39,558.53 668.29,556.13 668.83,553.63 669.01,551.08 669.01,48.92 669.01,48.92 668.83,46.37 668.29,43.87 667.39,41.47 666.17,39.23 664.63,37.18 662.82,35.37 660.77,33.83 658.53,32.61 656.13,31.71 653.63,31.17 651.08,30.99" style="fill:none;stroke:black;stroke-width:0.5"/>
</svg>
