<?xml version="1.0" encoding="UTF-8"?>
<svg xmlns="http://www.w3.org/2000/svg" width="800.000" height="600.000" viewBox="0.0 0.0 800.000 600.000" version="1.1">
  <title>Produce by Acme CAD Converter</title>
  <desc>Produce by Acme CAD Converter</desc>
<polyline points="445.45,118.18 445.45,209.09 400,209.09 354.55,209.09 354.55,118.18 445.45,118.18" style="fill:none;stroke:black;stroke-width:0.5"/>
<polyline points="517.99,295.87 523.44,293.98 528.75,291.75 533.92,289.18 538.9,286.3 543.7,283.1 548.28,279.61 552.64,275.83 556.74,271.78 560.58,267.49 564.14,262.95 567.41,258.2 570.37,253.26 573.01,248.13 575.32,242.85 577.29,237.43 578.91,231.9 580.18,226.28 581.09,220.59 581.64,214.85 581.82,209.09 490.91,209.09 490.91,118.18 490.91,118.18 490.71,112.24 490.13,106.32 489.16,100.45 487.81,94.65 486.08,88.96 483.99,83.39 481.53,77.97 478.73,72.73 475.59,67.68 472.12,62.84 468.35,58.24 464.28,53.9 459.94,49.83 455.34,46.06 450.51,42.59 445.45,39.45 440.21,36.65 434.79,34.19 429.22,32.1 423.53,30.37 417.74,29.02 411.87,28.05 405.95,27.47 400,27.27 394.05,27.47 388.13,28.05 382.26,29.02 376.47,30.37 370.78,32.1 365.21,34.19 359.79,36.65 354.55,39.45 349.49,42.59 344.66,46.06 340.06,49.83 335.72,53.9 331.65,58.24 327.88,62.84 324.41,67.68 321.27,72.73 318.47,77.97 316.01,83.39 313.92,88.96 312.19,94.65 310.84,100.45 309.87,106.32 309.29,112.24 309.09,118.18 309.09,209.09 218.18,209.09 218.18,209.09 218.36,214.85 218.91,220.59 219.82,226.28 221.09,231.9 222.71,237.43 224.68,242.85 226.99,248.13 229.63,253.26 232.59,258.2 235.86,262.95 239.42,267.49 243.26,271.78 247.36,275.83 251.72,279.61 256.3,283.1 261.1,286.3 266.08,289.18 271.25,291.75 276.56,293.98 282.01,295.87 282.01,295.87 287.62,297.83 293.1,300.15 298.42,302.82 303.54,305.84 308.46,309.18 313.15,312.84 317.59,316.8 321.77,321.04 325.65,325.54 329.24,330.29 332.5,335.27 335.44,340.44 338.02,345.8 340.26,351.31 342.12,356.96 343.62,362.72 343.62,362.72 343.77,363.41 343.77,363.41 344.67,368.34 345.23,373.31 345.45,378.31 345.32,383.32 344.85,388.31 344.04,393.25 342.89,398.12 341.4,402.9 339.59,407.57 337.47,412.1 335.03,416.48 332.3,420.68 329.29,424.68 329.29,424.68 325.67,429.48 322.37,434.51 319.41,439.75 316.8,445.17 314.56,450.75 312.7,456.47 311.21,462.3 310.11,468.22 309.41,474.19 309.11,480.2 309.2,486.22 309.69,492.21 310.57,498.17 311.85,504.04 313.51,509.83 315.55,515.49 317.97,521 320.74,526.34 323.86,531.48 327.31,536.41 331.08,541.1 335.15,545.53 339.5,549.68 344.13,553.53 348.99,557.07 354.08,560.28 359.37,563.14 364.84,565.65 370.46,567.79 376.21,569.56 382.07,570.94 388,571.93 393.99,572.53 400,572.73 406.01,572.53 412,571.93 417.93,570.94 423.79,569.56 429.54,567.79 435.16,565.65 440.63,563.14 445.92,560.28 451.01,557.07 455.87,553.53 460.5,549.68 464.85,545.53 468.92,541.1 472.69,536.41 476.14,531.48 479.26,526.34 482.03,521 484.45,515.49 486.49,509.83 488.15,504.04 489.43,498.17 490.31,492.21 490.8,486.22 490.89,480.2 490.59,474.19 489.89,468.22 488.79,462.3 487.3,456.47 485.44,450.75 483.2,445.17 480.59,439.75 477.63,434.51 474.33,429.48 470.71,424.68 470.71,424.68 467.7,420.68 464.97,416.48 462.53,412.1 460.41,407.57 458.6,402.9 457.11,398.12 455.96,393.25 455.15,388.31 454.68,383.32 454.55,378.31 454.77,373.31 455.33,368.34 456.23,363.41 456.23,363.41 456.38,362.72 456.38,362.72 457.88,356.96 459.74,351.31 461.98,345.8 464.56,340.44 467.5,335.27 470.76,330.29 474.35,325.54 478.23,321.04 482.41,316.8 486.85,312.84 491.54,309.18 496.46,305.84 501.58,302.82 506.9,300.15 512.38,297.83 517.99,295.87" style="fill:none;stroke:black;stroke-width:0.5"/>
<polyline points="363.64,481.82 363.84,478.02 364.43,474.26 365.42,470.58 366.78,467.03 368.51,463.64 370.58,460.44 372.98,457.49 375.67,454.79 378.63,452.4 381.82,450.33 385.21,448.6 388.76,447.23 392.44,446.25 396.2,445.65 400,445.45 403.8,445.65 407.56,446.25 411.24,447.23 414.79,448.6 418.18,450.33 421.37,452.4 424.33,454.79 427.02,457.49 429.42,460.44 431.49,463.64 433.22,467.03 434.58,470.58 435.57,474.26 436.16,478.02 436.36,481.82 436.16,485.62 435.57,489.38 434.58,493.06 433.22,496.61 431.49,500 429.42,503.19 427.02,506.15 424.33,508.84 421.37,511.24 418.18,513.31 414.79,515.04 411.24,516.4 407.56,517.39 403.8,517.98 400,518.18 396.2,517.98 392.44,517.39 388.76,516.4 385.21,515.04 381.82,513.31 378.63,511.24 375.67,508.84 372.98,506.15 370.58,503.19 368.51,500 366.78,496.61 365.42,493.06 364.43,489.38 363.84,485.62 363.64,481.82" style="fill:none;stroke:black;stroke-width:0.5"/>
</svg>
