<?xml version="1.0" encoding="UTF-8"?>
<svg xmlns="http://www.w3.org/2000/svg" width="800.000" height="600.000" viewBox="0.0 0.0 800.000 600.000" version="1.1">
  <title>Produce by Acme CAD Converter</title>
  <desc>Produce by Acme CAD Converter</desc>
<polyline points="379.97,359.91 382.44,359.76 384.91,359.95 387.34,360.47 389.66,361.33 391.85,362.5 393.85,363.95 393.85,363.95 395.83,365.39 397.98,366.55 400.27,367.41 402.65,367.94 405.09,368.15 407.53,368.02 409.93,367.56 412.25,366.78 412.25,366.78 414.6,366 417.03,365.54 419.51,365.42 421.98,365.65 424.39,366.21 426.7,367.1 426.7,367.1 431.77,369.68 436.66,372.6 441.34,375.84 445.79,379.39 449.99,383.23 453.92,387.35 457.57,391.72 460.91,396.33 463.93,401.15 466.62,406.17 468.96,411.35 470.95,416.69 472.58,422.14 473.83,427.69 474.71,433.32 475.2,438.99 475.32,444.68 475.04,450.36 474.38,456.02 473.35,461.61 471.94,467.13 470.16,472.53 468.01,477.81 465.52,482.92 462.69,487.86 459.53,492.6 456.06,497.11 452.29,501.37 448.24,505.38 443.94,509.1 439.39,512.52 434.62,515.62 429.65,518.4 429.65,518.4 426.54,519.82 423.32,520.93 420,521.74 416.62,522.22 413.22,522.38 368.85,522.38 368.85,522.38 365.44,522.22 362.06,521.74 358.75,520.93 355.52,519.82 352.42,518.4 352.42,518.4 347.38,515.58 342.55,512.42 337.94,508.94 333.59,505.16 329.5,501.08 325.7,496.74 322.21,492.14 319.04,487.32 316.21,482.29 313.73,477.08 311.61,471.71 309.86,466.2 308.5,460.6 307.52,454.91 306.93,449.17 306.74,443.4 306.94,437.63 307.54,431.89 308.53,426.2 309.91,420.6 311.66,415.1 313.79,409.73 316.28,404.53 319.12,399.5 322.3,394.68 325.8,390.09 329.6,385.75 333.7,381.69 338.06,377.91 342.67,374.44 347.51,371.29 352.55,368.48 357.77,366.02 363.15,363.93 368.66,362.21 374.28,360.87 379.97,359.91" style="fill:none;stroke:black;stroke-width:0.5"/>
<polyline points="290.6,353.8 288.36,353.63 286.17,353.1 284.09,352.24 282.17,351.06 280.46,349.6 278.99,347.89 277.82,345.97 276.96,343.89 276.43,341.7 276.25,339.46 276.25,260.54 276.25,260.54 276.43,258.3 276.96,256.11 277.82,254.03 278.99,252.11 280.46,250.4 282.17,248.94 284.09,247.76 286.17,246.9 288.36,246.37 290.6,246.2 330.06,246.2 330.06,246.2 332.3,246.37 334.49,246.9 336.57,247.76 338.49,248.94 340.2,250.4 341.66,252.11 342.84,254.03 343.7,256.11 344.23,258.3 344.4,260.54 344.4,339.46 344.4,339.46 344.23,341.7 343.7,343.89 342.84,345.97 341.66,347.89 340.2,349.6 338.49,351.06 336.57,352.24 334.49,353.1 332.3,353.63 330.06,353.8 290.6,353.8" style="fill:none;stroke:black;stroke-width:0.5"/>
<polyline points="247.56,129.63 247.56,138.59 229.63,138.59 229.63,102.72 247.56,102.72 247.56,111.69 301.36,111.69 301.36,129.63 247.56,129.63" style="fill:none;stroke:black;stroke-width:0.5"/>
<polyline points="426.7,232.9 424.39,233.79 421.98,234.35 419.51,234.58 417.03,234.46 414.6,234 412.25,233.22 412.25,233.22 409.93,232.44 407.53,231.98 405.09,231.85 402.65,232.06 400.27,232.59 397.98,233.45 395.83,234.61 393.85,236.05 393.85,236.05 391.85,237.5 389.66,238.67 387.34,239.53 384.91,240.05 382.44,240.24 379.97,240.09 379.97,240.09 374.28,239.13 368.66,237.79 363.15,236.07 357.77,233.98 352.55,231.52 347.51,228.71 342.67,225.56 338.06,222.09 333.7,218.31 329.6,214.25 325.8,209.91 322.3,205.32 319.12,200.5 316.28,195.47 313.79,190.27 311.66,184.9 309.91,179.4 308.53,173.8 307.54,168.11 306.94,162.37 306.74,156.6 306.93,150.83 307.52,145.09 308.5,139.4 309.86,133.8 311.61,128.29 313.73,122.92 316.21,117.71 319.04,112.68 322.21,107.86 325.7,103.26 329.5,98.92 333.59,94.84 337.94,91.06 342.55,87.58 347.38,84.42 352.42,81.6 352.42,81.6 355.52,80.18 358.75,79.07 362.06,78.26 365.44,77.78 368.85,77.62 413.22,77.62 413.22,77.62 416.62,77.78 420,78.26 423.32,79.07 426.54,80.18 429.65,81.6 429.65,81.6 434.62,84.38 439.39,87.48 443.94,90.9 448.24,94.62 452.29,98.63 456.06,102.89 459.53,107.4 462.69,112.14 465.52,117.08 468.01,122.19 470.16,127.47 471.94,132.87 473.35,138.39 474.38,143.98 475.04,149.64 475.32,155.32 475.2,161.01 474.71,166.68 473.83,172.31 472.58,177.86 470.95,183.31 468.96,188.65 466.62,193.83 463.93,198.85 460.91,203.67 457.57,208.28 453.92,212.65 449.99,216.77 445.79,220.61 441.34,224.16 436.66,227.4 431.77,230.32 426.7,232.9" style="fill:none;stroke:black;stroke-width:0.5"/>
<polyline points="481.75,350.22 429.44,350.22 429.44,350.22 427.92,350.05 426.47,349.57 425.15,348.79 424.03,347.75 423.16,346.5 422.57,345.09 422.57,345.09 421.67,342.72 420.45,340.49 418.93,338.46 417.13,336.67 415.1,335.15 412.88,333.92 410.5,333.03 410.5,333.03 409.09,332.44 407.84,331.56 406.8,330.44 406.02,329.13 405.54,327.67 405.38,326.15 405.38,273.85 405.38,273.85 405.54,272.33 406.02,270.87 406.8,269.56 407.84,268.44 409.09,267.56 410.5,266.97 410.5,266.97 412.88,266.08 415.1,264.85 417.13,263.33 418.93,261.54 420.45,259.51 421.67,257.28 422.57,254.91 422.57,254.91 423.16,253.5 424.03,252.25 425.15,251.21 426.47,250.43 427.92,249.95 429.44,249.78 481.75,249.78 481.75,249.78 483.27,249.95 484.72,250.43 486.04,251.21 487.16,252.25 488.03,253.5 488.63,254.91 488.63,254.91 489.52,257.28 490.74,259.51 492.26,261.54 494.06,263.33 496.09,264.85 498.31,266.08 500.69,266.97 500.69,266.97 502.1,267.56 503.35,268.44 504.39,269.56 505.17,270.87 505.65,272.33 505.81,273.85 505.81,326.15 505.81,326.15 505.65,327.67 505.17,329.13 504.39,330.44 503.35,331.56 502.1,332.44 500.69,333.03 500.69,333.03 498.31,333.92 496.09,335.15 494.06,336.67 492.26,338.46 490.74,340.49 489.52,342.72 488.63,345.09 488.63,345.09 488.03,346.5 487.16,347.75 486.04,348.79 484.72,349.57 483.27,350.05 481.75,350.22" style="fill:none;stroke:black;stroke-width:0.5"/>
<polyline points="301.36,48.92 462.77,48.92 462.77,66.86 301.36,66.86 301.36,48.92" style="fill:none;stroke:black;stroke-width:0.5"/>
<polyline points="462.77,551.08 301.36,551.08 301.36,533.14 462.77,533.14 462.77,551.08" style="fill:none;stroke:black;stroke-width:0.5"/>
<polyline points="276.25,508.04 276.43,506.44 276.96,504.92 277.82,503.56 278.95,502.43 280.32,501.57 281.83,501.04 283.43,500.86 297.78,500.86 297.78,500.86 299.37,501.04 300.89,501.57 302.25,502.43 303.38,503.56 304.24,504.92 304.77,506.44 304.95,508.04 304.95,513.42 304.95,513.42 304.77,515.01 304.24,516.53 303.38,517.89 302.25,519.03 300.89,519.88 299.37,520.41 297.78,520.59 283.43,520.59 283.43,520.59 281.83,520.41 280.32,519.88 278.95,519.03 277.82,517.89 276.96,516.53 276.43,515.01 276.25,513.42 276.25,508.04" style="fill:none;stroke:black;stroke-width:0.5"/>
<polyline points="301.36,470.37 301.36,488.31 247.56,488.31 247.56,497.28 229.63,497.28 229.63,461.41 247.56,461.41 247.56,470.37 301.36,470.37" style="fill:none;stroke:black;stroke-width:0.5"/>
<polyline points="529.34,294.62 579.56,294.62 579.56,344.84 529.34,344.84 529.34,294.62" style="fill:none;stroke:black;stroke-width:0.5"/>
<polyline points="276.25,86.58 276.43,84.99 276.96,83.47 277.82,82.11 278.95,80.97 280.32,80.12 281.83,79.59 283.43,79.41 297.78,79.41 297.78,79.41 299.37,79.59 300.89,80.12 302.25,80.97 303.38,82.11 304.24,83.47 304.77,84.99 304.95,86.58 304.95,91.96 304.95,91.96 304.77,93.56 304.24,95.08 303.38,96.44 302.25,97.57 300.89,98.43 299.37,98.96 297.78,99.14 283.43,99.14 283.43,99.14 281.83,98.96 280.32,98.43 278.95,97.57 277.82,96.44 276.96,95.08 276.43,93.56 276.25,91.96 276.25,86.58" style="fill:none;stroke:black;stroke-width:0.5"/>
<polyline points="371.31,258.75 371.48,257.64 371.99,256.64 372.78,255.85 373.78,255.34 374.89,255.16 376,255.34 377,255.85 377.79,256.64 378.3,257.64 378.48,258.75 378.48,341.25 378.48,341.25 378.3,342.36 377.79,343.36 377,344.15 376,344.66 374.89,344.84 373.78,344.66 372.78,344.15 371.99,343.36 371.48,342.36 371.31,341.25 371.31,258.75" style="fill:none;stroke:black;stroke-width:0.5"/>
<polyline points="229.63,443.47 227.07,443.66 224.57,444.2 222.17,445.09 219.93,446.32 217.88,447.85 216.07,449.66 214.54,451.71 213.31,453.96 212.42,456.36 211.87,458.86 211.69,461.41 211.69,497.28 211.69,497.28 211.87,499.83 212.42,502.33 213.31,504.73 214.54,506.97 216.07,509.02 217.88,510.83 219.93,512.36 222.17,513.59 224.57,514.48 227.07,515.03 229.63,515.21 265.49,515.21 265.49,551.08 265.49,551.08 265.68,553.63 266.22,556.13 267.11,558.53 268.34,560.77 269.87,562.82 271.68,564.63 273.73,566.17 275.98,567.39 278.38,568.29 280.88,568.83 283.43,569.01 480.7,569.01 480.7,569.01 483.26,568.83 485.76,568.29 488.15,567.39 490.4,566.17 492.45,564.63 494.26,562.82 495.79,560.77 497.02,558.53 497.91,556.13 498.46,553.63 498.64,551.08 498.64,515.21 516.57,515.21 516.57,443.47 498.64,443.47 498.64,362.77 570.37,362.77 570.37,362.77 572.93,362.59 575.43,362.04 577.83,361.15 580.07,359.92 582.12,358.39 583.93,356.58 585.46,354.53 586.69,352.29 587.58,349.89 588.13,347.39 588.31,344.84 588.31,255.16 588.31,255.16 588.13,252.61 587.58,250.11 586.69,247.71 585.46,245.47 583.93,243.42 582.12,241.61 580.07,240.08 577.83,238.85 575.43,237.96 572.93,237.41 570.37,237.23 498.64,237.23 498.64,156.53 516.57,156.53 516.57,84.79 498.64,84.79 498.64,48.92 498.64,48.92 498.46,46.37 497.91,43.87 497.02,41.47 495.79,39.23 494.26,37.18 492.45,35.37 490.4,33.83 488.15,32.61 485.76,31.71 483.26,31.17 480.7,30.99 283.43,30.99 283.43,30.99 280.88,31.17 278.38,31.71 275.98,32.61 273.73,33.83 271.68,35.37 269.87,37.18 268.34,39.23 267.11,41.47 266.22,43.87 265.68,46.37 265.49,48.92 265.49,84.79 229.63,84.79 229.63,84.79 227.07,84.97 224.57,85.52 222.17,86.41 219.93,87.64 217.88,89.17 216.07,90.98 214.54,93.03 213.31,95.27 212.42,97.67 211.87,100.17 211.69,102.72 211.69,138.59 211.69,138.59 211.87,141.14 212.42,143.64 213.31,146.04 214.54,148.29 216.07,150.34 217.88,152.15 219.93,153.68 222.17,154.91 224.57,155.8 227.07,156.34 229.63,156.53 247.56,156.53 265.49,156.53 265.49,246.2 247.56,246.2 247.56,353.8 265.49,353.8 265.49,443.47 247.56,443.47 229.63,443.47" style="fill:none;stroke:black;stroke-width:0.5"/>
<polyline points="313.92,371.74 314.1,370.34 314.64,369.05 315.49,367.93 316.61,367.08 317.9,366.54 319.3,366.36 320.69,366.54 321.99,367.08 323.1,367.93 323.96,369.05 324.49,370.34 324.68,371.74 324.49,373.13 323.96,374.43 323.1,375.54 321.99,376.4 320.69,376.93 319.3,377.12 317.9,376.93 316.61,376.4 315.49,375.54 314.64,374.43 314.1,373.13 313.92,371.74" style="fill:none;stroke:black;stroke-width:0.5"/>
<polyline points="457.39,84.79 457.57,83.4 458.11,82.1 458.97,80.99 460.08,80.13 461.38,79.59 462.77,79.41 464.16,79.59 465.46,80.13 466.57,80.99 467.43,82.1 467.97,83.4 468.15,84.79 467.97,86.18 467.43,87.48 466.57,88.59 465.46,89.45 464.16,89.99 462.77,90.17 461.38,89.99 460.08,89.45 458.97,88.59 458.11,87.48 457.57,86.18 457.39,84.79" style="fill:none;stroke:black;stroke-width:0.5"/>
<polyline points="313.92,228.26 314.1,226.87 314.64,225.57 315.49,224.46 316.61,223.6 317.9,223.07 319.3,222.88 320.69,223.07 321.99,223.6 323.1,224.46 323.96,225.57 324.49,226.87 324.68,228.26 324.49,229.66 323.96,230.95 323.1,232.07 321.99,232.92 320.69,233.46 319.3,233.64 317.9,233.46 316.61,232.92 315.49,232.07 314.64,230.95 314.1,229.66 313.92,228.26" style="fill:none;stroke:black;stroke-width:0.5"/>
<polyline points="548.58,264.13 548.78,261.73 549.38,259.39 550.35,257.17 551.67,255.15 553.3,253.38 555.21,251.9 557.33,250.75 559.61,249.96 561.99,249.57 564.41,249.57 566.79,249.96 569.07,250.75 571.2,251.9 573.1,253.38 574.74,255.15 576.06,257.17 577.03,259.39 577.62,261.73 577.82,264.13 577.62,266.54 577.03,268.88 576.06,271.09 574.74,273.11 573.1,274.89 571.2,276.37 569.07,277.52 566.79,278.3 564.41,278.7 561.99,278.7 559.61,278.3 557.33,277.52 555.21,276.37 553.3,274.89 551.67,273.11 550.35,271.09 549.38,268.88 548.78,266.54 548.58,264.13" style="fill:none;stroke:black;stroke-width:0.5"/>
<polyline points="401.79,350.22 401.99,349.05 402.55,348.01 403.42,347.21 404.5,346.74 405.68,346.64 406.82,346.93 407.81,347.58 408.53,348.51 408.92,349.63 408.92,350.81 408.53,351.92 407.81,352.85 406.82,353.5 405.68,353.79 404.5,353.69 403.42,353.22 402.55,352.42 401.99,351.38 401.79,350.22" style="fill:none;stroke:black;stroke-width:0.5"/>
<polyline points="457.39,515.21 457.57,513.82 458.11,512.52 458.97,511.41 460.08,510.55 461.38,510.01 462.77,509.83 464.16,510.01 465.46,510.55 466.57,511.41 467.43,512.52 467.97,513.82 468.15,515.21 467.97,516.6 467.43,517.9 466.57,519.01 465.46,519.87 464.16,520.41 462.77,520.59 461.38,520.41 460.08,519.87 458.97,519.01 458.11,517.9 457.57,516.6 457.39,515.21" style="fill:none;stroke:black;stroke-width:0.5"/>
<polyline points="502.22,249.78 502.42,248.62 502.98,247.58 503.85,246.78 504.93,246.31 506.11,246.21 507.25,246.5 508.24,247.15 508.97,248.08 509.35,249.19 509.35,250.37 508.97,251.49 508.24,252.42 507.25,253.07 506.11,253.36 504.93,253.26 503.85,252.79 502.98,251.99 502.42,250.95 502.22,249.78" style="fill:none;stroke:black;stroke-width:0.5"/>
<polyline points="401.79,249.78 401.99,248.62 402.55,247.58 403.42,246.78 404.5,246.31 405.68,246.21 406.82,246.5 407.81,247.15 408.53,248.08 408.92,249.19 408.92,250.37 408.53,251.49 407.81,252.42 406.82,253.07 405.68,253.36 404.5,253.26 403.42,252.79 402.55,251.99 401.99,250.95 401.79,249.78" style="fill:none;stroke:black;stroke-width:0.5"/>
<polyline points="502.22,350.22 502.42,349.05 502.98,348.01 503.85,347.21 504.93,346.74 506.11,346.64 507.25,346.93 508.24,347.58 508.97,348.51 509.35,349.63 509.35,350.81 508.97,351.92 508.24,352.85 507.25,353.5 506.11,353.79 504.93,353.69 503.85,353.22 502.98,352.42 502.42,351.38 502.22,350.22" style="fill:none;stroke:black;stroke-width:0.5"/>
</svg>
