<?xml version="1.0" encoding="UTF-8"?>
<svg xmlns="http://www.w3.org/2000/svg" width="800.000" height="600.000" viewBox="0.0 0.0 800.000 600.000" version="1.1">
  <title>Produce by Acme CAD Converter</title>
  <desc>Produce by Acme CAD Converter</desc>
<polyline points="228.44,517.5 228.63,521.18 229.22,524.81 230.2,528.35 231.55,531.78 233.26,535.03 235.3,538.09 237.66,540.91 240.31,543.46 243.22,545.72 246.36,547.64 249.68,549.23 253.15,550.44 256.73,551.28 260.38,551.73 264.06,551.79 267.72,551.45 271.33,550.72 271.33,550.72 279.1,548.52 286.76,545.96 294.28,543.03 301.67,539.76 308.89,536.14 315.93,532.19 322.77,527.91 329.41,523.31 335.83,518.4 342.01,513.2 347.93,507.72 353.59,501.96 358.98,495.94 364.07,489.67 368.86,483.17 373.35,476.45 377.51,469.53 381.34,462.42 384.83,455.14 387.98,447.7 390.77,440.13 393.2,432.43 395.27,424.62 396.97,416.73 398.29,408.76 399.24,400.74 399.81,392.68 400,384.61 400,213.05 502.94,213.05 502.94,213.05 508.07,212.86 513.17,212.28 518.21,211.33 523.16,210 528.01,208.3 532.71,206.25 537.25,203.85 541.6,201.12 545.72,198.08 549.61,194.73 553.24,191.1 556.59,187.21 559.64,183.08 562.37,178.74 564.77,174.2 566.82,169.49 568.51,164.65 569.84,159.69 570.8,154.65 571.37,149.55 571.56,144.42 571.56,110.11 571.56,110.11 571.37,104.98 570.8,99.88 569.84,94.84 568.51,89.88 566.82,85.04 564.77,80.34 562.37,75.8 559.64,71.45 556.59,67.32 553.24,63.43 549.61,59.8 545.72,56.46 541.6,53.41 537.25,50.68 532.71,48.28 528.01,46.23 523.16,44.53 518.21,43.21 513.17,42.25 508.07,41.68 502.94,41.49 297.06,41.49 297.06,41.49 291.93,41.68 286.83,42.25 281.79,43.21 276.84,44.53 271.99,46.23 267.29,48.28 262.75,50.68 258.4,53.41 254.28,56.46 250.39,59.8 246.76,63.43 243.41,67.32 240.36,71.45 237.63,75.8 235.23,80.34 233.18,85.04 231.49,89.88 230.16,94.84 229.2,99.88 228.63,104.98 228.44,110.11 228.44,517.5" style="fill:none;stroke:black;stroke-width:0.5"/>
</svg>
