<?xml version="1.0" encoding="UTF-8"?>
<svg xmlns="http://www.w3.org/2000/svg" width="800.000" height="600.000" viewBox="0.0 0.0 800.000 600.000" version="1.1">
  <title>Produce by Acme CAD Converter</title>
  <desc>Produce by Acme CAD Converter</desc>
<polyline points="356.48,165.7 356.48,150.77 356.48,150.77 356.65,149.49 357.14,148.29 357.93,147.26 358.96,146.47 360.16,145.97 361.45,145.8 397.31,145.8 397.31,145.8 398.24,145.98 399.04,146.51 399.59,147.29 399.59,147.29 400.52,148.97 401.76,150.44 403.26,151.64 404.96,152.53 406.79,153.08 408.7,153.26 441.04,153.26 441.04,153.26 441.04,153.26 441.04,153.26 441.99,153.45 442.8,153.99 443.33,154.8 443.52,155.75 443.52,165.7 443.52,165.7 443.35,166.98 442.86,168.18 442.07,169.21 441.04,170 439.84,170.5 438.55,170.67 361.45,170.67 361.45,170.67 360.16,170.5 358.96,170 357.93,169.21 357.14,168.18 356.65,166.98 356.48,165.7" style="fill:none;stroke:black;stroke-width:0.5"/>
<polyline points="263.21,232.85 263.38,231.56 263.88,230.36 264.67,229.33 265.7,228.54 266.9,228.04 268.18,227.87 337.82,227.87 337.82,227.87 339.76,228.07 341.63,228.63 343.35,229.55 344.86,230.79 346.09,232.3 347.01,234.02 347.58,235.88 347.77,237.82 347.77,339.79 347.77,339.79 347.6,340.69 347.12,341.47 346.4,342.02 345.52,342.27 344.61,342.19 343.79,341.78 343.79,341.78 342.17,340.79 340.39,340.13 338.51,339.82 336.61,339.87 334.75,340.28 333.01,341.03 331.44,342.11 330.11,343.46 329.05,345.05 328.32,346.8 327.93,348.66 327.91,350.56 328.25,352.43 328.93,354.21 329.94,355.82 331.24,357.2 332.78,358.32 334.51,359.12 334.51,359.12 335.6,359.67 336.53,360.46 337.23,361.46 337.67,362.6 337.82,363.81 337.82,367.15 337.82,367.15 337.65,368.44 337.16,369.64 336.37,370.67 335.34,371.46 334.14,371.96 332.85,372.13 263.21,372.13 263.21,372.13 261.27,371.93 259.4,371.37 257.68,370.45 256.18,369.21 254.94,367.7 254.02,365.98 253.45,364.12 253.26,362.18 253.26,260.21 253.26,260.21 253.43,259.31 253.91,258.53 254.64,257.98 255.51,257.73 256.42,257.81 257.24,258.22 257.24,258.22 258.86,259.21 260.65,259.87 262.52,260.18 264.42,260.13 266.28,259.72 268.02,258.97 269.59,257.89 270.93,256.54 271.98,254.95 272.71,253.2 273.1,251.34 273.12,249.44 272.79,247.57 272.1,245.79 271.09,244.18 269.79,242.8 268.25,241.68 266.53,240.88 266.53,240.88 265.43,240.33 264.51,239.54 263.8,238.54 263.36,237.4 263.21,236.19 263.21,232.85" style="fill:none;stroke:black;stroke-width:0.5"/>
<polyline points="361.45,454.2 360.16,454.03 358.96,453.53 357.93,452.74 357.14,451.71 356.65,450.51 356.48,449.23 356.48,434.3 356.48,434.3 356.65,433.02 357.14,431.82 357.93,430.79 358.96,430 360.16,429.5 361.45,429.33 438.55,429.33 438.55,429.33 439.84,429.5 441.04,430 442.07,430.79 442.86,431.82 443.35,433.02 443.52,434.3 443.52,444.25 443.52,444.25 443.33,445.2 442.8,446.01 441.99,446.55 441.04,446.74 441.04,446.74 441.04,446.74 408.7,446.74 408.7,446.74 406.79,446.92 404.96,447.47 403.26,448.36 401.76,449.56 400.52,451.03 399.59,452.71 399.59,452.71 399.04,453.49 398.24,454.02 397.31,454.2 361.45,454.2" style="fill:none;stroke:black;stroke-width:0.5"/>
<polyline points="307.98,461.66 307.98,459.17 307.98,459.17 307.81,457.89 307.31,456.69 306.52,455.66 305.49,454.87 304.29,454.37 303,454.2 250.77,454.2 250.77,454.2 249.49,454.03 248.29,453.53 247.26,452.74 246.47,451.71 245.97,450.51 245.8,449.23 245.8,434.3 245.8,434.3 245.97,433.02 246.47,431.82 247.26,430.79 248.29,430 249.49,429.5 250.77,429.33 344.04,429.33 344.04,429.33 345.33,429.5 346.53,430 347.56,430.79 348.35,431.82 348.85,433.02 349.01,434.3 349.01,461.66 349.01,461.66 348.85,462.95 348.35,464.15 347.56,465.18 346.53,465.97 345.33,466.47 344.04,466.64 312.95,466.64 312.95,466.64 311.66,466.47 310.46,465.97 309.43,465.18 308.64,464.15 308.15,462.95 307.98,461.66" style="fill:none;stroke:black;stroke-width:0.5"/>
<polyline points="455.96,170.67 454.67,170.5 453.47,170 452.44,169.21 451.65,168.18 451.15,166.98 450.99,165.7 450.99,138.34 450.99,138.34 451.15,137.05 451.65,135.85 452.44,134.82 453.47,134.03 454.67,133.53 455.96,133.36 487.05,133.36 487.05,133.36 488.34,133.53 489.54,134.03 490.57,134.82 491.36,135.85 491.85,137.05 492.02,138.34 492.02,140.83 492.02,140.83 492.19,142.11 492.69,143.31 493.48,144.34 494.51,145.13 495.71,145.63 497,145.8 549.23,145.8 549.23,145.8 550.51,145.97 551.71,146.47 552.74,147.26 553.53,148.29 554.03,149.49 554.2,150.77 554.2,165.7 554.2,165.7 554.03,166.98 553.53,168.18 552.74,169.21 551.71,170 550.51,170.5 549.23,170.67 455.96,170.67" style="fill:none;stroke:black;stroke-width:0.5"/>
<polyline points="459.69,359.69 459.69,374.61 459.69,374.61 459.86,375.9 460.36,377.1 461.15,378.13 462.18,378.92 463.38,379.42 464.66,379.59 556.69,379.59 556.69,379.59 557.97,379.76 559.17,380.25 560.2,381.04 560.99,382.07 561.49,383.27 561.66,384.56 561.66,394.51 561.66,394.51 561.83,395.8 562.33,397 563.12,398.03 564.15,398.82 565.35,399.31 566.64,399.48 574.1,399.48 574.1,404.46 574.1,404.46 574.27,405.75 574.76,406.95 575.55,407.98 576.58,408.77 577.78,409.26 579.07,409.43 648.71,409.43 648.71,409.43 650.65,409.62 652.52,410.19 654.24,411.11 655.74,412.35 656.98,413.85 657.9,415.57 658.47,417.44 658.66,419.38 658.66,429.33 658.66,429.33 658.47,431.27 657.9,433.14 656.98,434.86 655.74,436.36 654.24,437.6 652.52,438.52 650.65,439.09 648.71,439.28 579.07,439.28 579.07,439.28 577.78,439.45 576.58,439.94 575.55,440.73 574.76,441.76 574.27,442.96 574.1,444.25 574.1,449.23 561.66,449.23 561.66,426.84 561.66,426.84 561.49,425.55 560.99,424.35 560.2,423.32 559.17,422.53 557.97,422.04 556.69,421.87 400,421.87 243.31,421.87 243.31,421.87 242.03,422.04 240.83,422.53 239.8,423.32 239.01,424.35 238.51,425.55 238.34,426.84 238.34,449.23 225.9,449.23 225.9,444.25 225.9,444.25 225.73,442.96 225.24,441.76 224.45,440.73 223.42,439.94 222.22,439.45 220.93,439.28 151.29,439.28 151.29,439.28 149.35,439.09 147.48,438.52 145.76,437.6 144.26,436.36 143.02,434.86 142.1,433.14 141.53,431.27 141.34,429.33 141.34,419.38 141.34,419.38 141.53,417.44 142.1,415.57 143.02,413.85 144.26,412.35 145.76,411.11 147.48,410.19 149.35,409.62 151.29,409.43 220.93,409.43 220.93,409.43 222.22,409.26 223.42,408.77 224.45,407.98 225.24,406.95 225.73,405.75 225.9,404.46 225.9,399.48 233.36,399.48 233.36,399.48 234.65,399.31 235.85,398.82 236.88,398.03 237.67,397 238.17,395.8 238.34,394.51 238.34,384.56 238.34,384.56 238.51,383.27 239.01,382.07 239.8,381.04 240.83,380.25 242.03,379.76 243.31,379.59 350.26,379.59 350.26,379.59 351.55,379.42 352.75,378.92 353.78,378.13 354.57,377.1 355.06,375.9 355.23,374.61 355.23,359.69 355.23,359.69 355.4,358.4 355.9,357.2 356.69,356.17 357.72,355.38 358.92,354.89 360.21,354.72 454.72,354.72 454.72,354.72 456,354.89 457.2,355.38 458.23,356.17 459.02,357.2 459.52,358.4 459.69,359.69" style="fill:none;stroke:black;stroke-width:0.5"/>
<polyline points="245.8,150.77 245.97,149.49 246.47,148.29 247.26,147.26 248.29,146.47 249.49,145.97 250.77,145.8 303,145.8 303,145.8 304.29,145.63 305.49,145.13 306.52,144.34 307.31,143.31 307.81,142.11 307.98,140.83 307.98,138.34 307.98,138.34 308.15,137.05 308.64,135.85 309.43,134.82 310.46,134.03 311.66,133.53 312.95,133.36 344.04,133.36 344.04,133.36 345.33,133.53 346.53,134.03 347.56,134.82 348.35,135.85 348.85,137.05 349.01,138.34 349.01,165.7 349.01,165.7 348.85,166.98 348.35,168.18 347.56,169.21 346.53,170 345.33,170.5 344.04,170.67 250.77,170.67 250.77,170.67 249.49,170.5 248.29,170 247.26,169.21 246.47,168.18 245.97,166.98 245.8,165.7 245.8,150.77" style="fill:none;stroke:black;stroke-width:0.5"/>
<polyline points="450.99,434.3 451.15,433.02 451.65,431.82 452.44,430.79 453.47,430 454.67,429.5 455.96,429.33 549.23,429.33 549.23,429.33 550.51,429.5 551.71,430 552.74,430.79 553.53,431.82 554.03,433.02 554.2,434.3 554.2,449.23 554.2,449.23 554.03,450.51 553.53,451.71 552.74,452.74 551.71,453.53 550.51,454.03 549.23,454.2 497,454.2 497,454.2 495.71,454.37 494.51,454.87 493.48,455.66 492.69,456.69 492.19,457.89 492.02,459.17 492.02,461.66 492.02,461.66 491.85,462.95 491.36,464.15 490.57,465.18 489.54,465.97 488.34,466.47 487.05,466.64 455.96,466.64 455.96,466.64 454.67,466.47 453.47,465.97 452.44,465.18 451.65,464.15 451.15,462.95 450.99,461.66 450.99,434.3" style="fill:none;stroke:black;stroke-width:0.5"/>
<polyline points="270.67,41.34 280.62,41.34 280.62,41.34 282.56,41.53 284.43,42.1 286.15,43.02 287.65,44.26 288.89,45.76 289.81,47.48 290.38,49.35 290.57,51.29 290.57,120.93 290.57,120.93 290.74,122.22 291.23,123.42 292.02,124.45 293.05,125.24 294.25,125.73 295.54,125.9 300.52,125.9 300.52,138.34 250.77,138.34 250.77,125.9 255.75,125.9 255.75,125.9 257.04,125.73 258.24,125.24 259.27,124.45 260.06,123.42 260.56,122.22 260.73,120.93 260.72,51.29 260.72,51.29 260.91,49.35 261.48,47.48 262.4,45.76 263.64,44.26 265.14,43.02 266.86,42.1 268.73,41.53 270.67,41.34" style="fill:none;stroke:black;stroke-width:0.5"/>
<polyline points="400,178.13 556.69,178.13 556.69,178.13 557.97,177.96 559.17,177.47 560.2,176.68 560.99,175.65 561.49,174.45 561.66,173.16 561.66,150.77 574.1,150.77 574.1,155.75 574.1,155.75 574.27,157.04 574.76,158.24 575.55,159.27 576.58,160.06 577.78,160.55 579.07,160.72 648.71,160.72 648.71,160.72 650.65,160.91 652.52,161.48 654.24,162.4 655.74,163.64 656.98,165.14 657.9,166.86 658.47,168.73 658.66,170.67 658.66,180.62 658.66,180.62 658.47,182.56 657.9,184.43 656.98,186.15 655.74,187.65 654.24,188.89 652.52,189.81 650.65,190.38 648.71,190.57 579.07,190.57 579.07,190.57 577.78,190.74 576.58,191.23 575.55,192.02 574.76,193.05 574.27,194.25 574.1,195.54 574.1,200.52 566.64,200.52 566.64,200.52 565.35,200.69 564.15,201.18 563.12,201.97 562.33,203 561.83,204.2 561.66,205.49 561.66,215.44 561.66,215.44 561.49,216.73 560.99,217.93 560.2,218.96 559.17,219.75 557.97,220.24 556.69,220.41 464.66,220.41 464.66,220.41 463.38,220.58 462.18,221.08 461.15,221.87 460.36,222.9 459.86,224.1 459.69,225.39 459.69,240.31 459.69,240.31 459.52,241.6 459.02,242.8 458.23,243.83 457.2,244.62 456,245.11 454.72,245.28 360.21,245.28 360.21,245.28 358.92,245.11 357.72,244.62 356.69,243.83 355.9,242.8 355.4,241.6 355.23,240.31 355.23,225.39 355.23,225.39 355.06,224.1 354.57,222.9 353.78,221.87 352.75,221.08 351.55,220.58 350.26,220.41 243.31,220.41 243.31,220.41 242.03,220.24 240.83,219.75 239.8,218.96 239.01,217.93 238.51,216.73 238.34,215.44 238.34,205.49 238.34,205.49 238.17,204.2 237.67,203 236.88,201.97 235.85,201.18 234.65,200.69 233.36,200.52 225.9,200.52 225.9,195.54 225.9,195.54 225.73,194.25 225.24,193.05 224.45,192.02 223.42,191.23 222.22,190.74 220.93,190.57 151.29,190.57 151.29,190.57 149.35,190.38 147.48,189.81 145.76,188.89 144.26,187.65 143.02,186.15 142.1,184.43 141.53,182.56 141.34,180.62 141.34,170.67 141.34,170.67 141.53,168.73 142.1,166.86 143.02,165.14 144.26,163.64 145.76,162.4 147.48,161.48 149.35,160.91 151.29,160.72 220.93,160.72 220.93,160.72 222.22,160.55 223.42,160.06 224.45,159.27 225.24,158.24 225.73,157.04 225.9,155.75 225.9,150.77 238.34,150.77 238.34,173.16 238.34,173.16 238.51,174.45 239.01,175.65 239.8,176.68 240.83,177.47 242.03,177.96 243.31,178.13 400,178.13" style="fill:none;stroke:black;stroke-width:0.5"/>
<polyline points="255.75,474.1 250.77,474.1 250.77,461.66 300.52,461.66 300.52,474.1 295.54,474.1 295.54,474.1 294.25,474.27 293.05,474.76 292.02,475.55 291.23,476.58 290.74,477.78 290.57,479.07 290.57,548.71 290.57,548.71 290.38,550.65 289.81,552.52 288.89,554.24 287.65,555.74 286.15,556.98 284.43,557.9 282.56,558.47 280.62,558.66 270.67,558.66 270.67,558.66 268.73,558.47 266.86,557.9 265.14,556.98 263.64,555.74 262.4,554.24 261.48,552.52 260.91,550.65 260.72,548.71 260.73,479.07 260.73,479.07 260.56,477.78 260.06,476.58 259.27,475.55 258.24,474.76 257.04,474.27 255.75,474.1" style="fill:none;stroke:black;stroke-width:0.5"/>
<polyline points="529.33,558.66 519.38,558.66 519.38,558.66 517.44,558.47 515.57,557.9 513.85,556.98 512.35,555.74 511.11,554.24 510.19,552.52 509.62,550.65 509.43,548.71 509.43,479.07 509.43,479.07 509.26,477.78 508.77,476.58 507.98,475.55 506.95,474.76 505.75,474.27 504.46,474.1 499.48,474.1 499.48,461.66 549.23,461.66 549.23,474.1 544.25,474.1 544.25,474.1 542.96,474.27 541.76,474.76 540.73,475.55 539.94,476.58 539.44,477.78 539.27,479.07 539.28,548.71 539.28,548.71 539.09,550.65 538.52,552.52 537.6,554.24 536.36,555.74 534.86,556.98 533.14,557.9 531.27,558.47 529.33,558.66" style="fill:none;stroke:black;stroke-width:0.5"/>
<polyline points="486,364.42 484.78,364.26 483.64,363.82 482.63,363.1 481.84,362.16 481.3,361.06 481.04,359.86 481.04,359.86 480.68,357.9 479.93,356.05 478.83,354.39 477.43,352.98 475.76,351.88 473.92,351.14 471.96,350.77 471.96,350.77 470.76,350.52 469.65,349.98 468.71,349.18 468,348.18 467.55,347.03 467.4,345.81 467.4,254.19 467.4,254.19 467.55,252.97 468,251.82 468.71,250.82 469.65,250.02 470.76,249.48 471.96,249.23 471.96,249.23 473.92,248.86 475.76,248.12 477.43,247.02 478.83,245.61 479.93,243.95 480.68,242.1 481.04,240.14 481.04,240.14 481.3,238.94 481.84,237.84 482.63,236.9 483.64,236.18 484.78,235.74 486,235.58 534.35,235.58 534.35,235.58 535.58,235.74 536.72,236.18 537.72,236.9 538.52,237.84 539.06,238.94 539.31,240.14 539.31,240.14 539.68,242.1 540.42,243.95 541.52,245.61 542.93,247.02 544.59,248.12 546.44,248.86 548.4,249.23 548.4,249.23 549.6,249.48 550.7,250.02 551.64,250.82 552.36,251.82 552.8,252.97 552.96,254.19 552.96,345.81 552.96,345.81 552.8,347.03 552.36,348.18 551.64,349.18 550.7,349.98 549.6,350.52 548.4,350.77 548.4,350.77 546.44,351.14 544.59,351.88 542.93,352.98 541.52,354.39 540.42,356.05 539.68,357.9 539.31,359.86 539.31,359.86 539.06,361.06 538.52,362.16 537.72,363.1 536.72,363.82 535.58,364.26 534.35,364.42 486,364.42" style="fill:none;stroke:black;stroke-width:0.5"/>
<polyline points="377.37,341.04 377.37,335.07 377.37,335.07 377.18,332.91 376.62,330.81 375.7,328.85 374.46,327.07 372.93,325.54 371.15,324.3 369.19,323.38 367.09,322.82 364.93,322.63 358.96,322.63 358.96,322.63 357.58,322.48 356.27,322.02 355.09,321.28 354.1,320.29 353.36,319.11 352.9,317.8 352.75,316.41 352.75,272.64 352.75,272.64 352.92,270.04 353.42,267.49 354.26,265.03 355.41,262.69 356.86,260.53 358.57,258.57 360.53,256.86 362.69,255.41 365.03,254.26 367.49,253.42 370.04,252.92 372.64,252.75 416.41,252.75 416.41,252.75 417.8,252.9 419.11,253.36 420.29,254.1 421.28,255.09 422.02,256.27 422.48,257.58 422.63,258.96 422.63,264.93 422.63,264.93 422.82,267.09 423.38,269.19 424.3,271.15 425.54,272.93 427.07,274.46 428.85,275.7 430.81,276.62 432.91,277.18 435.07,277.37 441.04,277.37 441.04,277.37 442.42,277.52 443.73,277.98 444.91,278.72 445.9,279.71 446.64,280.89 447.1,282.2 447.25,283.59 447.25,327.36 447.25,327.36 447.08,329.96 446.58,332.51 445.74,334.97 444.59,337.31 443.14,339.47 441.43,341.43 439.47,343.14 437.31,344.59 434.97,345.74 432.51,346.58 429.96,347.08 427.36,347.25 383.59,347.25 383.59,347.25 382.2,347.1 380.89,346.64 379.71,345.9 378.72,344.91 377.98,343.73 377.52,342.42 377.37,341.04" style="fill:none;stroke:black;stroke-width:0.5"/>
<polyline points="499.48,138.34 499.48,125.9 504.46,125.9 504.46,125.9 505.75,125.73 506.95,125.24 507.98,124.45 508.77,123.42 509.26,122.22 509.43,120.93 509.43,51.29 509.43,51.29 509.62,49.35 510.19,47.48 511.11,45.76 512.35,44.26 513.85,43.02 515.57,42.1 517.44,41.53 519.38,41.34 529.33,41.34 529.33,41.34 531.27,41.53 533.14,42.1 534.86,43.02 536.36,44.26 537.6,45.76 538.52,47.48 539.09,49.35 539.28,51.29 539.27,120.93 539.27,120.93 539.44,122.22 539.94,123.42 540.73,124.45 541.76,125.24 542.96,125.73 544.25,125.9 549.23,125.9 549.23,138.34 499.48,138.34" style="fill:none;stroke:black;stroke-width:0.5"/>
<polyline points="243.31,293.78 240.83,293.78 240.83,293.78 239.87,293.97 239.07,294.51 238.53,295.32 238.34,296.27 238.34,343.52 225.9,343.52 225.9,382.07 225.9,382.07 225.73,383.36 225.24,384.56 224.45,385.59 223.42,386.38 222.22,386.88 220.93,387.05 218.44,387.05 218.44,387.05 217.15,387.22 215.96,387.71 214.92,388.51 214.13,389.54 213.64,390.74 213.47,392.02 213.47,394.51 213.47,394.51 213.3,395.8 212.8,397 212.01,398.03 210.98,398.82 209.78,399.31 208.49,399.48 151.29,399.48 151.29,399.48 148.69,399.65 146.14,400.16 143.68,401 141.34,402.15 139.18,403.6 137.22,405.31 135.51,407.27 134.06,409.43 132.91,411.77 132.07,414.23 131.56,416.78 131.39,419.38 131.39,429.33 131.39,429.33 131.56,431.93 132.07,434.48 132.91,436.94 134.06,439.28 135.51,441.44 137.22,443.4 139.18,445.11 141.34,446.56 143.68,447.71 146.14,448.55 148.69,449.05 151.29,449.23 208.49,449.23 208.49,449.23 209.78,449.39 210.98,449.89 212.01,450.68 212.8,451.71 213.3,452.91 213.47,454.2 213.47,474.1 213.47,474.1 213.66,476.26 214.22,478.35 215.13,480.31 216.38,482.09 217.91,483.62 219.69,484.87 221.65,485.78 223.74,486.34 225.9,486.53 245.8,486.53 245.8,486.53 247.09,486.7 248.29,487.2 249.32,487.99 250.11,489.02 250.6,490.22 250.77,491.51 250.77,548.71 250.77,548.71 250.94,551.31 251.45,553.86 252.29,556.32 253.44,558.66 254.89,560.82 256.6,562.78 258.56,564.49 260.72,565.94 263.06,567.09 265.52,567.93 268.07,568.44 270.67,568.61 280.62,568.61 280.62,568.61 283.22,568.44 285.77,567.93 288.23,567.09 290.57,565.94 292.73,564.49 294.69,562.78 296.4,560.82 297.85,558.66 299,556.32 299.84,553.86 300.35,551.31 300.52,548.71 300.52,491.51 300.52,491.51 300.69,490.22 301.18,489.02 301.97,487.99 303,487.2 304.2,486.7 305.49,486.53 307.98,486.53 307.98,486.53 309.26,486.36 310.46,485.87 311.49,485.08 312.29,484.04 312.78,482.85 312.95,481.56 312.95,479.07 312.95,479.07 313.12,477.78 313.62,476.58 314.41,475.55 315.44,474.76 316.64,474.27 317.93,474.1 356.48,474.1 356.48,461.66 403.73,461.66 403.73,461.66 404.68,461.47 405.49,460.93 406.03,460.13 406.22,459.17 406.22,456.69 406.22,456.69 406.41,455.74 406.95,454.93 407.75,454.39 408.7,454.2 441.04,454.2 441.04,454.2 441.99,454.39 442.8,454.93 443.33,455.74 443.52,456.69 443.52,474.1 482.07,474.1 482.07,474.1 483.36,474.27 484.56,474.76 485.59,475.55 486.38,476.58 486.88,477.78 487.05,479.07 487.05,481.56 487.05,481.56 487.22,482.84 487.72,484.04 488.51,485.07 489.54,485.87 490.74,486.36 492.02,486.53 494.51,486.53 494.51,486.53 495.8,486.7 497,487.2 498.03,487.99 498.82,489.02 499.31,490.22 499.48,491.51 499.48,548.71 499.48,548.71 499.65,551.31 500.16,553.86 501,556.32 502.15,558.66 503.6,560.82 505.31,562.78 507.27,564.49 509.43,565.94 511.77,567.09 514.23,567.93 516.78,568.44 519.38,568.61 529.33,568.61 529.33,568.61 531.93,568.44 534.48,567.93 536.94,567.09 539.28,565.94 541.44,564.49 543.4,562.78 545.12,560.82 546.56,558.66 547.71,556.32 548.55,553.86 549.06,551.3 549.23,548.71 549.23,491.51 549.23,491.51 549.4,490.22 549.89,489.02 550.68,487.99 551.71,487.2 552.91,486.7 554.2,486.53 574.1,486.53 574.1,486.53 576.26,486.34 578.35,485.78 580.31,484.87 582.09,483.62 583.62,482.09 584.87,480.31 585.78,478.35 586.34,476.26 586.53,474.1 586.53,454.2 586.53,454.2 586.7,452.91 587.2,451.71 587.99,450.68 589.02,449.89 590.22,449.39 591.51,449.23 648.73,449.23 648.73,449.23 651.33,449.05 653.88,448.54 656.34,447.7 658.67,446.55 660.83,445.11 662.79,443.39 664.5,441.43 665.94,439.27 667.09,436.94 667.93,434.47 668.44,431.92 668.61,429.33 668.61,419.38 668.61,419.38 668.44,416.78 667.93,414.23 667.09,411.77 665.94,409.43 664.49,407.27 662.78,405.31 660.82,403.6 658.66,402.15 656.32,401 653.86,400.16 651.31,399.65 648.71,399.48 591.51,399.48 591.51,399.48 590.22,399.31 589.02,398.82 587.99,398.03 587.2,397 586.7,395.8 586.53,394.51 586.53,392.02 586.53,392.02 586.36,390.74 585.87,389.54 585.08,388.51 584.04,387.71 582.85,387.22 581.56,387.05 579.07,387.05 579.07,387.05 577.78,386.88 576.58,386.38 575.55,385.59 574.76,384.56 574.27,383.36 574.1,382.07 574.1,337.31 561.66,337.31 561.66,262.69 574.1,262.69 574.1,217.93 574.1,217.93 574.27,216.64 574.76,215.44 575.55,214.41 576.58,213.62 577.78,213.12 579.07,212.95 581.56,212.95 581.56,212.95 582.85,212.78 584.04,212.29 585.08,211.49 585.87,210.46 586.36,209.26 586.53,207.98 586.53,205.49 586.53,205.49 586.7,204.2 587.2,203 587.99,201.97 589.02,201.18 590.22,200.69 591.51,200.52 648.71,200.52 648.71,200.52 651.31,200.35 653.86,199.84 656.32,199 658.66,197.85 660.82,196.4 662.78,194.69 664.49,192.73 665.94,190.57 667.09,188.23 667.93,185.77 668.44,183.22 668.61,180.62 668.61,170.67 668.61,170.67 668.44,168.08 667.93,165.53 667.09,163.06 665.94,160.73 664.5,158.57 662.79,156.61 660.83,154.89 658.67,153.45 656.34,152.3 653.88,151.46 651.33,150.95 648.73,150.77 591.51,150.77 591.51,150.77 590.22,150.61 589.02,150.11 587.99,149.32 587.2,148.29 586.7,147.09 586.53,145.8 586.53,125.9 586.53,125.9 586.34,123.74 585.78,121.65 584.87,119.69 583.62,117.91 582.09,116.38 580.31,115.13 578.35,114.22 576.26,113.66 574.1,113.47 554.2,113.47 554.2,113.47 552.91,113.3 551.71,112.8 550.68,112.01 549.89,110.98 549.4,109.78 549.23,108.49 549.23,51.29 549.23,51.29 549.06,48.7 548.55,46.14 547.71,43.68 546.56,41.34 545.12,39.18 543.4,37.22 541.44,35.51 539.28,34.06 536.94,32.91 534.48,32.07 531.93,31.56 529.33,31.39 519.38,31.39 519.38,31.39 516.78,31.56 514.23,32.07 511.77,32.91 509.43,34.06 507.27,35.51 505.31,37.22 503.6,39.18 502.15,41.34 501,43.68 500.16,46.14 499.65,48.69 499.48,51.29 499.48,108.49 499.48,108.49 499.31,109.78 498.82,110.98 498.03,112.01 497,112.8 495.8,113.3 494.51,113.47 492.02,113.47 492.02,113.47 490.74,113.64 489.54,114.13 488.51,114.93 487.72,115.96 487.22,117.16 487.05,118.44 487.05,120.93 487.05,120.93 486.88,122.22 486.38,123.42 485.59,124.45 484.56,125.24 483.36,125.73 482.07,125.9 443.52,125.9 443.52,143.31 443.52,143.31 443.33,144.26 442.8,145.07 441.99,145.61 441.04,145.8 408.7,145.8 408.7,145.8 407.75,145.61 406.95,145.07 406.41,144.26 406.22,143.31 406.22,140.83 406.22,140.83 406.03,139.87 405.49,139.07 404.68,138.53 403.73,138.34 356.48,138.34 356.48,125.9 317.93,125.9 317.93,125.9 316.64,125.73 315.44,125.24 314.41,124.45 313.62,123.42 313.12,122.22 312.95,120.93 312.95,118.44 312.95,118.44 312.78,117.15 312.29,115.96 311.49,114.92 310.46,114.13 309.26,113.64 307.98,113.47 305.49,113.47 305.49,113.47 304.2,113.3 303,112.8 301.97,112.01 301.18,110.98 300.69,109.78 300.52,108.49 300.52,51.29 300.52,51.29 300.35,48.69 299.84,46.14 299,43.68 297.85,41.34 296.4,39.18 294.69,37.22 292.73,35.51 290.57,34.06 288.23,32.91 285.77,32.07 283.22,31.56 280.62,31.39 270.67,31.39 270.67,31.39 268.07,31.56 265.52,32.07 263.06,32.91 260.72,34.06 258.56,35.51 256.6,37.22 254.89,39.18 253.44,41.34 252.29,43.68 251.45,46.14 250.94,48.69 250.77,51.29 250.77,108.49 250.77,108.49 250.6,109.78 250.11,110.98 249.32,112.01 248.29,112.8 247.09,113.3 245.8,113.47 225.9,113.47 225.9,113.47 223.74,113.66 221.65,114.22 219.69,115.13 217.91,116.38 216.38,117.91 215.13,119.69 214.22,121.65 213.66,123.74 213.47,125.9 213.47,145.8 213.47,145.8 213.3,147.09 212.8,148.29 212.01,149.32 210.98,150.11 209.78,150.61 208.49,150.77 151.29,150.77 151.29,150.77 148.69,150.95 146.14,151.45 143.68,152.29 141.34,153.44 139.18,154.89 137.22,156.6 135.51,158.56 134.06,160.72 132.91,163.06 132.07,165.52 131.56,168.07 131.39,170.67 131.39,180.62 131.39,180.62 131.56,183.22 132.07,185.77 132.91,188.23 134.06,190.57 135.51,192.73 137.22,194.69 139.18,196.4 141.34,197.85 143.68,199 146.14,199.84 148.69,200.35 151.29,200.52 208.49,200.52 208.49,200.52 209.78,200.69 210.98,201.18 212.01,201.97 212.8,203 213.3,204.2 213.47,205.49 213.47,207.98 213.47,207.98 213.64,209.26 214.13,210.46 214.92,211.49 215.96,212.29 217.15,212.78 218.44,212.95 220.93,212.95 220.93,212.95 222.22,213.12 223.42,213.62 224.45,214.41 225.24,215.44 225.73,216.64 225.9,217.93 225.9,256.48 243.31,256.48 243.31,256.48 244.26,256.67 245.07,257.2 245.61,258.01 245.8,258.96 245.8,291.3 245.8,291.3 245.61,292.25 245.07,293.05 244.26,293.59 243.31,293.78" style="fill:none;stroke:black;stroke-width:0.5"/>
<polyline points="467.4,239.31 467.58,238.16 468.11,237.12 468.94,236.3 469.98,235.77 471.13,235.58 472.28,235.77 473.32,236.3 474.15,237.12 474.68,238.16 474.86,239.31 474.68,240.47 474.15,241.51 473.32,242.33 472.28,242.86 471.13,243.05 469.98,242.86 468.94,242.33 468.11,241.51 467.58,240.47 467.4,239.31" style="fill:none;stroke:black;stroke-width:0.5"/>
<polyline points="545.49,239.31 545.68,238.16 546.21,237.12 547.03,236.3 548.07,235.77 549.23,235.58 550.38,235.77 551.42,236.3 552.24,237.12 552.77,238.16 552.96,239.31 552.77,240.47 552.24,241.51 551.42,242.33 550.38,242.86 549.23,243.05 548.07,242.86 547.03,242.33 546.21,241.51 545.68,240.47 545.49,239.31" style="fill:none;stroke:black;stroke-width:0.5"/>
<polyline points="467.4,360.69 467.58,359.53 468.11,358.49 468.94,357.67 469.98,357.14 471.13,356.95 472.28,357.14 473.32,357.67 474.15,358.49 474.68,359.53 474.86,360.69 474.68,361.84 474.15,362.88 473.32,363.7 472.28,364.23 471.13,364.42 469.98,364.23 468.94,363.7 468.11,362.88 467.58,361.84 467.4,360.69" style="fill:none;stroke:black;stroke-width:0.5"/>
<polyline points="545.49,360.69 545.68,359.53 546.21,358.49 547.03,357.67 548.07,357.14 549.23,356.95 550.38,357.14 551.42,357.67 552.24,358.49 552.77,359.53 552.96,360.69 552.77,361.84 552.24,362.88 551.42,363.7 550.38,364.23 549.23,364.42 548.07,364.23 547.03,363.7 546.21,362.88 545.68,361.84 545.49,360.69" style="fill:none;stroke:black;stroke-width:0.5"/>
<polyline points="431.96,264.93 432.15,263.87 432.69,262.93 433.51,262.24 434.53,261.87 435.61,261.87 436.62,262.24 437.45,262.93 437.99,263.87 438.18,264.93 437.99,266 437.45,266.93 436.62,267.62 435.61,267.99 434.53,267.99 433.51,267.62 432.69,266.93 432.15,266 431.96,264.93" style="fill:none;stroke:black;stroke-width:0.5"/>
<polyline points="361.82,335.07 362.01,334 362.55,333.07 363.38,332.38 364.39,332.01 365.47,332.01 366.49,332.38 367.31,333.07 367.85,334 368.04,335.07 367.85,336.13 367.31,337.07 366.49,337.76 365.47,338.13 364.39,338.13 363.38,337.76 362.55,337.07 362.01,336.13 361.82,335.07" style="fill:none;stroke:black;stroke-width:0.5"/>
<polyline points="334.09,349.74 334.27,348.59 334.8,347.55 335.63,346.72 336.67,346.19 337.82,346.01 338.98,346.19 340.02,346.72 340.84,347.55 341.37,348.59 341.55,349.74 341.37,350.89 340.84,351.93 340.02,352.76 338.98,353.29 337.82,353.47 336.67,353.29 335.63,352.76 334.8,351.93 334.27,350.89 334.09,349.74" style="fill:none;stroke:black;stroke-width:0.5"/>
<polyline points="259.48,250.26 259.66,249.11 260.19,248.07 261.02,247.24 262.06,246.71 263.21,246.53 264.36,246.71 265.4,247.24 266.23,248.07 266.76,249.11 266.94,250.26 266.76,251.41 266.23,252.45 265.4,253.28 264.36,253.81 263.21,253.99 262.06,253.81 261.02,253.28 260.19,252.45 259.66,251.41 259.48,250.26" style="fill:none;stroke:black;stroke-width:0.5"/>
</svg>
