0
SECTION
2
HEADER
9
$INSUNITS
70
4
9
$ACADVER
1
AC1014
9
$HANDSEED
5
FFFF
0
ENDSEC
0
SECTION
2
TABLES
0
TABLE
2
VPORT
5
8
100
AcDbSymbolTable
0
ENDTAB
0
TABLE
2
LTYPE
5
5
100
AcDbSymbolTable
0
LTYPE
5
14
100
AcDbSymbolTableRecord
100
AcDbLinetypeTableRecord
2
BYBLOCK
70
0
0
LTYPE
5
15
100
AcDbSymbolTableRecord
100
AcDbLinetypeTableRecord
2
BYLAYER
70
0
0
ENDTAB
0
TABLE
2
LAYER
5
2
100
AcDbSymbolTable
70
2
0
LAYER
5
50
100
AcDbSymbolTableRecord
100
AcDbLayerTableRecord
2
0
70
0
6
CONTINUOUS
0
ENDTAB
0
TABLE
2
STYLE
5
3
100
AcDbSymbolTable
70
1
0
STYLE
5
11
100
AcDbSymbolTableRecord
100
AcDbTextStyleTableRecord
2
STANDARD
70
0
0
ENDTAB
0
TABLE
2
VIEW
5
6
100
AcDbSymbolTable
70
0
0
ENDTAB
0
TABLE
2
UCS
5
7
100
AcDbSymbolTable
70
0
0
ENDTAB
0
TABLE
2
APPID
5
9
100
AcDbSymbolTable
70
2
0
APPID
5
12
100
AcDbSymbolTableRecord
100
AcDbRegAppTableRecord
2
ACAD
70
0
0
ENDTAB
0
TABLE
2
DIMSTYLE
5
A
100
AcDbSymbolTable
70
1
0
ENDTAB
0
TABLE
2
BLOCK_RECORD
5
1
100
AcDbSymbolTable
70
1
0
BLOCK_RECORD
5
1F
100
AcDbSymbolTableRecord
100
AcDbBlockTableRecord
2
*MODEL_SPACE
0
BLOCK_RECORD
5
1B
100
AcDbSymbolTableRecord
100
AcDbBlockTableRecord
2
*PAPER_SPACE
0
ENDTAB
0
ENDSEC
0
SECTION
2
BLOCKS
0
BLOCK
5
20
100
AcDbEntity
100
AcDbBlockBegin
2
*MODEL_SPACE
0
ENDBLK
5
21
100
AcDbEntity
100
AcDbBlockEnd
0
BLOCK
5
1C
100
AcDbEntity
100
AcDbBlockBegin
2
*PAPER_SPACE
0
ENDBLK
5
1D
100
AcDbEntity
100
AcDbBlockEnd
0
ENDSEC
0
SECTION
2
ENTITIES
0
LWPOLYLINE
5
100
100
AcDbEntity
8
0
100
AcDbPolyline
90
4
70
1
43
0.0
10
145.00000186264515
20
59.999999180436134
10
140.00000081956387
20
59.999999180436134
10
140.00000081956387
20
15.000000968575478
10
145.00000186264515
20
15.000000968575478
0
CIRCLE
5
101
100
AcDbEntity
8
0
100
AcDbCircle
10
132.75000081956381
20
51.500001121229595
30
0
40
2.5
210
0
220
-0
230
1
0
LWPOLYLINE
5
102
100
AcDbEntity
8
0
100
AcDbPolyline
90
4
70
1
43
0.0
10
4.9999997764825821
20
59.999999180436134
10
4.9999997764825821
20
15.000000968575478
10
10.000000819563866
20
15.000000968575478
10
10.000000819563866
20
59.999999180436134
0
ARC
5
103
100
AcDbEntity
8
0
100
AcDbCircle
10
34.999999925494222
20
57.000011669210934
30
0
40
5.0000000000000089
210
0
220
0
230
1
100
AcDbArc
50
90.000000000000242
51
180
0
LINE
5
104
100
AcDbEntity
8
0
100
AcDbLine
10
34.999999925494201
20
62.000011669210942
30
0
11
46.583802913613503
21
62.000011669210949
31
0
0
ARC
5
105
100
AcDbEntity
8
0
100
AcDbCircle
10
46.583802913613511
20
59.000011669210949
30
0
40
2.9999999999999902
210
0
220
-0
230
1
100
AcDbArc
50
22.024312837042217
51
90.000000000000142
0
ARC
5
106
100
AcDbEntity
8
0
100
AcDbCircle
10
54.000001400709159
20
62.000011669210942
30
0
40
4.999999999999992
210
0
220
0
230
1
100
AcDbArc
50
202.02431283704212
51
337.97568716295791
0
ARC
5
107
100
AcDbEntity
8
0
100
AcDbCircle
10
61.416199887804801
20
59.000011669210991
30
0
40
2.9999999999999716
210
0
220
-0
230
1
100
AcDbArc
50
89.999999999999588
51
157.97568716295845
0
LINE
5
108
100
AcDbEntity
8
0
100
AcDbLine
10
61.416199887804822
20
62.000011669210963
30
0
11
104.5838028332426
21
62.000011669210991
31
0
0
ARC
5
109
100
AcDbEntity
8
0
100
AcDbCircle
10
104.58380283324259
20
59.00001166921097
30
0
40
3.0000000000000422
210
0
220
-0
230
1
100
AcDbArc
50
22.024312621186752
51
89.99999999999973
0
ARC
5
110
100
AcDbEntity
8
0
100
AcDbCircle
10
112.00000140070915
20
62.000011669210942
30
0
40
5.0000000745057784
210
0
220
0
230
1
100
AcDbArc
50
202.02431262118657
51
350.40593189340137
0
ARC
5
111
100
AcDbEntity
8
0
100
AcDbCircle
10
117.91608125937144
20
61.000011669210956
30
0
40
0.99999999999999645
210
0
220
0
230
1
100
AcDbArc
50
90.00000000000081
51
170.4059318934016
0
LINE
5
112
100
AcDbEntity
8
0
100
AcDbLine
10
117.91608125937142
20
62.000011669210949
30
0
11
118.0000014752148
21
62.000011669210942
31
0
0
ARC
5
113
100
AcDbEntity
8
0
100
AcDbCircle
10
118.00000147521476
20
61.000011669210934
30
0
40
0.99999999999999645
210
0
220
-0
230
1
100
AcDbArc
50
0
51
89.999999999997556
0
LINE
5
114
100
AcDbEntity
8
0
100
AcDbLine
10
119.00000147521476
20
61.000011669210956
30
0
11
119.00000147521482
21
55.199664818633991
31
0
0
ARC
5
115
100
AcDbEntity
8
0
100
AcDbCircle
10
114.00000147521482
20
55.199664818633948
30
0
40
5
210
0
220
0
230
1
100
AcDbArc
50
-22.919552305476916
51
0
0
ARC
5
116
100
AcDbEntity
8
0
100
AcDbCircle
10
122.75000081956381
20
51.500001121229595
30
0
40
4.4999999999999769
210
0
220
0
230
1
100
AcDbArc
50
157.08044769452289
51
202.91955230547842
0
ARC
5
117
100
AcDbEntity
8
0
100
AcDbCircle
10
114.00000147521455
20
47.800337423824935
30
0
40
5.0000000000003375
210
0
220
-0
230
1
100
AcDbArc
50
0
51
22.919552305477765
0
LINE
5
118
100
AcDbEntity
8
0
100
AcDbLine
10
119.00000147521489
20
47.800337423825056
30
0
11
119.00000147521494
21
40.199664818634339
31
0
0
ARC
5
119
100
AcDbEntity
8
0
100
AcDbCircle
10
114.00000147521489
20
40.199664818634332
30
0
40
5.0000000000000542
210
0
220
0
230
1
100
AcDbArc
50
-22.919552305479513
51
0
0
ARC
5
120
100
AcDbEntity
8
0
100
AcDbCircle
10
122.75000081956381
20
36.500001121229595
30
0
40
4.5000000000000071
210
0
220
0
230
1
100
AcDbArc
50
157.08044769452096
51
202.91955230548038
0
ARC
5
121
100
AcDbEntity
8
0
100
AcDbCircle
10
114.00000147521433
20
32.800337423824558
30
0
40
5.0000000000006928
210
0
220
-0
230
1
100
AcDbArc
50
0
51
22.919552305479019
0
LINE
5
122
100
AcDbEntity
8
0
100
AcDbLine
10
119.00000147521503
20
32.800337423824779
30
0
11
119.00000147521507
21
25.199664818634631
31
0
0
ARC
5
123
100
AcDbEntity
8
0
100
AcDbCircle
10
114.00000147521531
20
25.199664818634531
30
0
40
4.9999999999997513
210
0
220
0
230
1
100
AcDbArc
50
-22.919552305481652
51
0
0
ARC
5
124
100
AcDbEntity
8
0
100
AcDbCircle
10
122.75000081956381
20
21.500001121229595
30
0
40
4.4999999999999964
210
0
220
0
230
1
100
AcDbArc
50
157.08044769451885
51
202.91955230548231
0
ARC
5
125
100
AcDbEntity
8
0
100
AcDbCircle
10
114.00000147521456
20
17.800337423824278
30
0
40
5.0000000000005862
210
0
220
-0
230
1
100
AcDbArc
50
0
51
22.919552305481258
0
LINE
5
126
100
AcDbEntity
8
0
100
AcDbLine
10
119.00000147521516
20
17.800337423824466
30
0
11
119.00000147521517
21
13.999997142702334
31
0
0
ARC
5
127
100
AcDbEntity
8
0
100
AcDbCircle
10
118.00000147521514
20
13.999997142702343
30
0
40
1.0000000000000409
210
0
220
0
230
1
100
AcDbArc
50
270.00000000000159
51
360
0
LINE
5
128
100
AcDbEntity
8
0
100
AcDbLine
10
118.00000147521517
20
12.999997142702302
30
0
11
117.91608125937148
21
12.999997142702266
31
0
0
ARC
5
129
100
AcDbEntity
8
0
100
AcDbCircle
10
117.91608125937148
20
13.999997142702295
30
0
40
1.0000000000000149
210
0
220
0
230
1
100
AcDbArc
50
189.59406810659834
51
270
0
ARC
5
130
100
AcDbEntity
8
0
100
AcDbCircle
10
112.00000140070915
20
12.99999714270232
30
0
40
5.0000000745058202
210
0
220
-0
230
1
100
AcDbArc
50
9.5940681065984297
51
157.97568737881332
0
ARC
5
131
100
AcDbEntity
8
0
100
AcDbCircle
10
104.5838028332426
20
15.999997142702293
30
0
40
3.0000000000000093
210
0
220
0
230
1
100
AcDbArc
50
270
51
337.97568737881323
0
LINE
5
132
100
AcDbEntity
8
0
100
AcDbLine
10
104.5838028332426
20
12.999997142702284
30
0
11
61.416199887804822
21
12.999997142702284
31
0
0
ARC
5
133
100
AcDbEntity
8
0
100
AcDbCircle
10
61.416199887804822
20
15.999997142702295
30
0
40
2.9999999999999978
210
0
220
0
230
1
100
AcDbArc
50
202.02431283704203
51
270
0
ARC
5
134
100
AcDbEntity
8
0
100
AcDbCircle
10
54.000001400709159
20
12.99999714270232
30
0
40
4.9999999999999885
210
0
220
-0
230
1
100
AcDbArc
50
22.024312837041958
51
157.975687162958
0
ARC
5
135
100
AcDbEntity
8
0
100
AcDbCircle
10
46.583802913613511
20
15.9999971427023
30
0
40
2.9999999999999982
210
0
220
0
230
1
100
AcDbArc
50
269.99999999999983
51
337.97568716295785
0
LINE
5
136
100
AcDbEntity
8
0
100
AcDbLine
10
46.583802913613503
20
12.999997142702302
30
0
11
34.999999925494201
21
12.99999714270232
31
0
0
ARC
5
137
100
AcDbEntity
8
0
100
AcDbCircle
10
34.999999925494208
20
17.999988479800674
30
0
40
5.0000000000000142
210
0
220
0
230
1
100
AcDbArc
50
209.5510728126485
51
269.99999999999989
0
ARC
5
138
100
AcDbEntity
8
0
100
AcDbCircle
10
33.260167106692428
20
17.013590100533598
30
0
40
2.9999999999998983
210
0
220
0
230
1
100
AcDbArc
50
143.25975763411708
51
209.5510728126502
0
ARC
5
139
100
AcDbEntity
8
0
100
AcDbCircle
10
27.249999375806961
20
21.500001121229488
30
0
40
4.4999999999999982
210
-0
220
0
230
1
100
AcDbArc
50
-36.740242365882914
51
35.33449605957798
0
ARC
5
140
100
AcDbEntity
8
0
100
AcDbCircle
10
34.999999925494322
20
26.994315589827718
30
0
40
5.0000000000001199
210
0
220
0
230
1
100
AcDbArc
50
180
51
215.33449605957759
0
LINE
5
141
100
AcDbEntity
8
0
100
AcDbLine
10
29.999999925494201
20
26.994315589827679
30
0
11
29.999999925494212
21
57.000011669210942
31
0
0
CIRCLE
5
142
100
AcDbEntity
8
0
100
AcDbCircle
10
132.75000081956381
20
36.500001121229595
30
0
40
2.5
210
0
220
-0
230
1
0
CIRCLE
5
143
100
AcDbEntity
8
0
100
AcDbCircle
10
132.75000081956381
20
21.500001121229595
30
0
40
2.5
210
0
220
-0
230
1
0
CIRCLE
5
144
100
AcDbEntity
8
0
100
AcDbCircle
10
122.75000081956381
20
51.500001121229595
30
0
40
2.9999999999999982
210
0
220
-0
230
1
0
CIRCLE
5
145
100
AcDbEntity
8
0
100
AcDbCircle
10
122.75000081956381
20
36.500001121229595
30
0
40
2.9999999999999982
210
0
220
-0
230
1
0
CIRCLE
5
146
100
AcDbEntity
8
0
100
AcDbCircle
10
122.75000081956381
20
21.500001121229595
30
0
40
2.9999999999999982
210
0
220
-0
230
1
0
LINE
5
147
100
AcDbEntity
8
0
100
AcDbLine
10
30.000974609137074
20
-5.0016045807258358
30
0
11
20.013686331674094
21
-5.0017612884725615
31
0
0
LINE
5
148
100
AcDbEntity
8
0
100
AcDbLine
10
20.013686331674094
20
-5.0017612884725615
30
0
11
20.013446699627178
21
-0.0022367900191611056
31
0
0
LINE
5
149
100
AcDbEntity
8
0
100
AcDbLine
10
20.013446699627178
20
-0.0022367900191611056
30
0
11
22.507090833516301
21
-0.0021172672428984018
31
0
0
LINE
5
150
100
AcDbEntity
8
0
100
AcDbLine
10
22.507090833516301
20
-0.0021172672428984018
30
0
11
22.506371869002617
21
14.99788271552676
31
0
0
LINE
5
151
100
AcDbEntity
8
0
100
AcDbLine
10
22.506371869002617
20
14.99788271552676
30
0
11
27.506371863259158
21
14.998122370364655
31
0
0
LINE
5
152
100
AcDbEntity
8
0
100
AcDbLine
10
27.506371863259158
20
14.998122370364655
30
0
11
27.507090827772842
21
-0.0018776124050035037
31
0
0
LINE
5
153
100
AcDbEntity
8
0
100
AcDbLine
10
27.507090827772842
20
-0.0018776124050035037
30
0
11
30.000734961661948
21
-0.0017580896287230363
31
0
0
LINE
5
154
100
AcDbEntity
8
0
100
AcDbLine
10
30.000734961661948
20
-0.0017580896287230363
30
0
11
30.000974609137074
21
-5.0016045807258358
31
0
0
CIRCLE
5
155
100
AcDbEntity
8
0
100
AcDbCircle
10
17.249999375806961
20
36.500001121229488
30
0
40
2.5
210
0
220
-0
230
1
0
CIRCLE
5
156
100
AcDbEntity
8
0
100
AcDbCircle
10
17.249999375806961
20
51.500001121229488
30
0
40
2.5
210
0
220
-0
230
1
0
CIRCLE
5
157
100
AcDbEntity
8
0
100
AcDbCircle
10
27.249999375806961
20
21.500001121229488
30
0
40
2.9999999999999982
210
0
220
-0
230
1
0
LINE
5
158
100
AcDbEntity
8
0
100
AcDbLine
10
122.49291081135489
20
-0.0018776124050037257
30
0
11
122.49362977586857
21
14.998122370364655
31
0
0
LINE
5
159
100
AcDbEntity
8
0
100
AcDbLine
10
122.49362977586857
20
14.998122370364655
30
0
11
127.49362977012511
21
14.99788271552676
31
0
0
LINE
5
160
100
AcDbEntity
8
0
100
AcDbLine
10
127.49362977012511
20
14.99788271552676
30
0
11
127.49291080561143
21
-0.0021172672428981798
31
0
0
LINE
5
161
100
AcDbEntity
8
0
100
AcDbLine
10
127.49291080561143
20
-0.0021172672428981798
30
0
11
129.98655493950056
21
-0.0022367900191613277
31
0
0
LINE
5
162
100
AcDbEntity
8
0
100
AcDbLine
10
129.98655493950056
20
-0.0022367900191613277
30
0
11
129.98631530745365
21
-5.0017612884725615
31
0
0
LINE
5
163
100
AcDbEntity
8
0
100
AcDbLine
10
129.98631530745365
20
-5.0017612884725615
30
0
11
119.99902702999066
21
-5.0016045807258358
31
0
0
LINE
5
164
100
AcDbEntity
8
0
100
AcDbLine
10
119.99902702999066
20
-5.0016045807258358
30
0
11
119.99926667746578
21
-0.0017580896287228143
31
0
0
LINE
5
165
100
AcDbEntity
8
0
100
AcDbLine
10
119.99926667746578
20
-0.0017580896287228143
30
0
11
122.49291081135489
21
-0.0018776124050037257
31
0
0
CIRCLE
5
166
100
AcDbEntity
8
0
100
AcDbCircle
10
54.000001400709159
20
62.000011669210942
30
0
40
1.5000000000000036
210
0
220
-0
230
1
0
CIRCLE
5
167
100
AcDbEntity
8
0
100
AcDbCircle
10
112.00000140070915
20
62.000011669210942
30
0
40
1.5000000000000036
210
0
220
-0
230
1
0
CIRCLE
5
168
100
AcDbEntity
8
0
100
AcDbCircle
10
54.000001400709159
20
12.99999714270232
30
0
40
1.5000000000000036
210
0
220
-0
230
1
0
CIRCLE
5
169
100
AcDbEntity
8
0
100
AcDbCircle
10
112.00000140070915
20
12.99999714270232
30
0
40
1.5000000000000036
210
0
220
-0
230
1
0
LWPOLYLINE
5
170
100
AcDbEntity
8
0
100
AcDbPolyline
90
39
70
1
43
0.0
10
4.999999701976777
20
5.000000074505806
42
-0.41421356237309503
10
-2.9802322387695312e-07
20
10.000000074505806
10
-2.9802322443206464e-07
20
65.000000074505806
42
-0.41421356237309509
10
4.9999997019767761
20
70.000000074505806
10
14.999999925494194
20
70.000000074505806
10
14.999999925494194
20
75.000000149011612
10
34.999999925494194
20
75.000000149011612
10
34.999999925494194
20
70.000000074505806
10
60.000000596046448
20
70.000000074505806
10
60.000000596046448
20
75.000000149011612
10
90.000001043081284
20
75.000000149011612
10
90.000001043081284
20
70.000000074505806
10
115.00000171363354
20
70.000000074505806
10
115.00000171363354
20
75.000000149011612
10
135.00000171363354
20
75.000000149011612
10
135.00000171363354
20
70.000000074505806
10
145.00000193715096
20
70.000000074505806
42
-0.41421356237309503
10
150.00000193715096
20
65.000000074505806
10
150.00000193715096
20
10.000000074505806
42
-0.41421356237309503
10
145.00000193715096
20
5.000000074505806
10
134.98725839569556
20
5.0000012597541144
10
134.98660385310191
20
1.17298688095957e-06
10
134.98592343371166
20
-4.9996776062359771
10
134.98631529874612
20
-5.0020563720763533
42
-0.41421304143542409
10
129.98602911681377
20
-10.001761280281976
10
119.99897193318233
20
-10.001604580422256
42
-0.41421346115823326
10
114.9990270302755
20
-5.0015512117633421
10
115.00000141561031
20
5.000000074505806
10
90.000001043081284
20
5.000000074505806
10
90.000001043081284
20
-2.2204462146864671e-16
10
60.000000596046448
20
0
10
60.000000596046448
20
5.000000074505806
10
35.000867854370924
20
5.000001339968918
10
35.000974608852303
20
-5.0015512117633421
42
-0.41421346115823326
10
30.001029705945399
20
-10.001604580422327
10
20.013972522313956
20
-10.001761280282157
42
-0.41421304143542409
10
15.013686340381422
20
-5.0020563720763533
10
15.014078205416084
20
-4.9996776062359771
10
14.999999925494194
20
5.000000074505806
0
ENDSEC
0
SECTION
2
OBJECTS
0
DICTIONARY
5
C
100
AcDbDictionary
3
ACAD_GROUP
350
D
3
ACAD_MLINESTYLE
350
17
0
DICTIONARY
5
D
100
AcDbDictionary
0
DICTIONARY
5
1A
330
C
100
AcDbDictionary
0
DICTIONARY
5
17
100
AcDbDictionary
0
ENDSEC
0
EOF
