0
SECTION
2
HEADER
9
$INSUNITS
70
4
9
$ACADVER
1
AC1014
9
$HANDSEED
5
FFFF
0
ENDSEC
0
SECTION
2
TABLES
0
TABLE
2
VPORT
5
8
100
AcDbSymbolTable
0
ENDTAB
0
TABLE
2
LTYPE
5
5
100
AcDbSymbolTable
0
LTYPE
5
14
100
AcDbSymbolTableRecord
100
AcDbLinetypeTableRecord
2
BYBLOCK
70
0
0
LTYPE
5
15
100
AcDbSymbolTableRecord
100
AcDbLinetypeTableRecord
2
BYLAYER
70
0
0
ENDTAB
0
TABLE
2
LAYER
5
2
100
AcDbSymbolTable
70
2
0
LAYER
5
50
100
AcDbSymbolTableRecord
100
AcDbLayerTableRecord
2
0
70
0
6
CONTINUOUS
0
ENDTAB
0
TABLE
2
STYLE
5
3
100
AcDbSymbolTable
70
1
0
STYLE
5
11
100
AcDbSymbolTableRecord
100
AcDbTextStyleTableRecord
2
STANDARD
70
0
0
ENDTAB
0
TABLE
2
VIEW
5
6
100
AcDbSymbolTable
70
0
0
ENDTAB
0
TABLE
2
UCS
5
7
100
AcDbSymbolTable
70
0
0
ENDTAB
0
TABLE
2
APPID
5
9
100
AcDbSymbolTable
70
2
0
APPID
5
12
100
AcDbSymbolTableRecord
100
AcDbRegAppTableRecord
2
ACAD
70
0
0
ENDTAB
0
TABLE
2
DIMSTYLE
5
A
100
AcDbSymbolTable
70
1
0
ENDTAB
0
TABLE
2
BLOCK_RECORD
5
1
100
AcDbSymbolTable
70
1
0
BLOCK_RECORD
5
1F
100
AcDbSymbolTableRecord
100
AcDbBlockTableRecord
2
*MODEL_SPACE
0
BLOCK_RECORD
5
1B
100
AcDbSymbolTableRecord
100
AcDbBlockTableRecord
2
*PAPER_SPACE
0
ENDTAB
0
ENDSEC
0
SECTION
2
BLOCKS
0
BLOCK
5
20
100
AcDbEntity
100
AcDbBlockBegin
2
*MODEL_SPACE
0
ENDBLK
5
21
100
AcDbEntity
100
AcDbBlockEnd
0
BLOCK
5
1C
100
AcDbEntity
100
AcDbBlockBegin
2
*PAPER_SPACE
0
ENDBLK
5
1D
100
AcDbEntity
100
AcDbBlockEnd
0
ENDSEC
0
SECTION
2
ENTITIES
0
LWPOLYLINE
5
100
100
AcDbEntity
8
0
100
AcDbPolyline
90
16
70
1
43
0.0
10
-48.500000968575506
20
-15.000000372528897
42
-0.41421356237309503
10
-45.500000968575527
20
-18.000000372528877
10
-45.500000968575513
20
-39.638100955046561
42
-0.22167084075022866
10
-46.214286603793838
20
-41.170073073655146
42
0.46625237270446429
10
-46.214286603793838
20
-48.829934853762573
42
-0.22167084075022972
10
-45.500000968575506
20
-50.361906972371159
10
-45.500000968575485
20
-69.500001043081284
42
-0.41421356237309503
10
-48.500000968575485
20
-72.500001043081284
10
-69.638103615849417
20
-72.500001043081298
42
-0.22167062426384945
10
-71.170074673244685
20
-71.78571667233345
42
0.4662518702946758
10
-78.829925714185578
20
-71.78571667233345
42
-0.22167062426384887
10
-80.361896771580831
20
-72.500001043081284
10
-81.000001490116119
20
-72.500001043081312
42
-0.41421356237309503
10
-84.000001490116148
20
-69.500001043081284
10
-84.000001490116148
20
-18.000000372528859
42
-0.41421356237309331
10
-81.000001490116134
20
-15.000000372528834
0
LWPOLYLINE
5
101
100
AcDbEntity
8
0
100
AcDbPolyline
90
16
70
1
43
0.0
10
-39.785713783636453
20
-101.17006678536519
42
-0.22167084075022309
10
-40.499999418854806
20
-99.638094666756587
10
-40.499999418854806
20
-50.361906972371173
42
-0.22167084075022261
10
-39.78571378363646
20
-48.82993485376258
42
0.46625237270446712
10
-39.785713783636467
20
-41.170073073655132
42
-0.22167084075023169
10
-40.499999418854813
20
-39.638100955046532
10
-40.499999418854841
20
-17.500003203749515
42
-0.41421356237309503
10
-37.999999418854841
20
-15.000003203749515
10
-13.500000163912871
20
-15.000003203749586
42
-0.41421356237309531
10
-11.000000163912873
20
-17.500003203749586
10
-11.000000163912773
20
-132.49999843537819
42
-0.41421356237309503
10
-13.500000163912862
20
-134.99999843537827
10
-37.999999418854827
20
-134.99999843537819
42
-0.41421356237309503
10
-40.499999418854756
20
-132.49999843537825
10
-40.499999418854813
20
-110.36190068408123
42
-0.22167084075023019
10
-39.785713783636467
20
-108.82992856547263
42
0.46625237270446479
0
LINE
5
102
100
AcDbEntity
8
0
100
AcDbLine
10
-141.00000000000003
20
-145.00000081956389
30
0
11
-141.00000000000003
21
-140.00000067055228
31
0
0
LINE
5
103
100
AcDbEntity
8
0
100
AcDbLine
10
-141.00000000000003
20
-140.00000067055228
30
0
11
-135.99999985098839
21
-140.00000067055228
31
0
0
LINE
5
104
100
AcDbEntity
8
0
100
AcDbLine
10
-135.99999985098839
20
-140.00000067055228
30
0
11
-135.99999985098839
21
-145.00000081956389
31
0
0
LINE
5
105
100
AcDbEntity
8
0
100
AcDbLine
10
-135.99999985098839
20
-145.00000081956389
30
0
11
-141.00000000000003
21
-145.00000081956389
31
0
0
LINE
5
106
100
AcDbEntity
8
0
100
AcDbLine
10
-1.000000000000032
20
-145.00000081956404
30
0
11
-6.0000001490116617
21
-145.00000081956404
31
0
0
LINE
5
107
100
AcDbEntity
8
0
100
AcDbLine
10
-6.0000001490116617
20
-145.00000081956404
30
0
11
-6.0000001490116439
21
-140.00000067055242
31
0
0
LINE
5
108
100
AcDbEntity
8
0
100
AcDbLine
10
-6.0000001490116439
20
-140.00000067055242
30
0
11
-1.0000000000000142
21
-140.00000067055242
31
0
0
LINE
5
109
100
AcDbEntity
8
0
100
AcDbLine
10
-1.0000000000000142
20
-140.00000067055242
30
0
11
-1.000000000000032
21
-145.00000081956404
31
0
0
LWPOLYLINE
5
110
100
AcDbEntity
8
0
100
AcDbPolyline
90
16
70
1
43
0.0
10
-48.500000968575478
20
-77.500000596046476
42
-0.41421356237309503
10
-45.500000968575456
20
-80.50000059604649
10
-45.500000968575485
20
-99.638094666756615
42
-0.221670840750231
10
-46.214286603793838
20
-101.17006678536521
42
0.4662523727044639
10
-46.214286603793859
20
-108.82992856547261
42
-0.22167084075023263
10
-45.500000968575506
20
-110.36190068408121
10
-45.500000968575534
20
-132.0000012665989
42
-0.41421356237309503
10
-48.500000968575506
20
-135.00000126659887
10
-81.000001490116134
20
-135.00000126659893
42
-0.41421356237309331
10
-84.000001490116148
20
-132.0000012665989
10
-84.000001490116148
20
-80.50000059604649
42
-0.41421356237309503
10
-81.000001490116119
20
-77.500000596046462
10
-80.361897944353231
20
-77.500000596046462
42
-0.22167083299245011
10
-78.829925863773155
20
-78.214286185952545
42
0.46625235470062798
10
-71.170074523657107
20
-78.214286185952545
42
-0.22167083299244988
10
-69.638102443077017
20
-77.500000596046462
0
CIRCLE
5
111
100
AcDbEntity
8
0
100
AcDbCircle
10
-75.000000193715124
20
-75.000003963708849
30
0
40
1.4999999999999947
210
0
220
-0
230
1
0
LWPOLYLINE
5
112
100
AcDbEntity
8
0
100
AcDbPolyline
90
4
70
1
43
0.0
10
-10.999997988343253
20
-140.00000067055225
10
-30.999998286366477
20
-140.00000067055225
10
-30.999998286366477
20
-145.00000074505806
10
-10.999997988343253
20
-145.00000074505806
0
CIRCLE
5
113
100
AcDbEntity
8
0
100
AcDbCircle
10
-43.000000193715138
20
-45.000003963708863
30
0
40
1.5000000000000036
210
0
220
-0
230
1
0
LWPOLYLINE
5
114
100
AcDbEntity
8
0
100
AcDbPolyline
90
8
70
1
43
0.0
10
-131.00000195205212
20
-18.000000372528774
42
-0.41421356237309331
10
-128.00000195205212
20
-15.000000372528749
10
-92.00000163912776
20
-15.000000372528767
42
-0.41421356237309503
10
-89.000001639127703
20
-18.000000372528824
10
-89.000001639127731
20
-132.00000186264509
42
-0.41421356237309503
10
-92.000001639127774
20
-135.00000186264515
10
-128.00000195205212
20
-135.00000186264515
42
-0.41421356237309331
10
-131.00000195205212
20
-132.00000186264515
0
LWPOLYLINE
5
115
100
AcDbEntity
8
0
100
AcDbPolyline
90
4
70
1
43
0.0
10
-10.999997988343271
20
-5.0000008940696716
10
-30.999998286366495
20
-5.0000008940696716
10
-30.999998286366495
20
-10.000000968575478
10
-10.999997988343271
20
-10.000000968575478
0
LWPOLYLINE
5
116
100
AcDbEntity
8
0
100
AcDbPolyline
90
4
70
1
43
0.0
10
-6.0000001490116439
20
-15.000001043081284
10
-6.0000001490116439
20
-35.000001341104507
10
-1.0000000745058379
20
-35.000001341104507
10
-1.0000000745058379
20
-15.000001043081284
0
LWPOLYLINE
5
117
100
AcDbEntity
8
0
100
AcDbPolyline
90
4
70
1
43
0.0
10
-1.0000000745058202
20
-115.00000029802322
10
-6.0000001490116261
20
-115.00000029802322
10
-6.0000001490116261
20
-135.00000059604645
10
-1.0000000745058202
20
-135.00000059604645
0
LWPOLYLINE
5
118
100
AcDbEntity
8
0
100
AcDbPolyline
90
4
70
1
43
0.0
10
-140.99999992549419
20
-35.000001341104522
10
-135.99999985098839
20
-35.000001341104522
10
-135.99999985098839
20
-15.000001043081301
10
-140.99999992549419
20
-15.000001043081301
0
LWPOLYLINE
5
119
100
AcDbEntity
8
0
100
AcDbPolyline
90
4
70
1
43
0.0
10
-111.00000171363355
20
-5.0000008940696894
10
-131.00000201165676
20
-5.0000008940696894
10
-131.00000201165676
20
-10.000000968575495
10
-111.00000171363355
20
-10.000000968575495
0
LWPOLYLINE
5
120
100
AcDbEntity
8
0
100
AcDbPolyline
90
4
70
1
43
0.0
10
-140.99999992549419
20
-115.00000029802324
10
-140.99999992549419
20
-135.00000059604648
10
-135.99999985098839
20
-135.00000059604648
10
-135.99999985098839
20
-115.00000029802324
0
LINE
5
121
100
AcDbEntity
8
0
100
AcDbLine
10
-1.0000000000000142
20
-10.000000968575346
30
0
11
-6.0000001490116439
21
-10.000000968575357
31
0
0
LINE
5
122
100
AcDbEntity
8
0
100
AcDbLine
10
-6.0000001490116439
20
-10.000000968575357
30
0
11
-6.0000001490116617
21
-5.0000008195637449
31
0
0
LINE
5
123
100
AcDbEntity
8
0
100
AcDbLine
10
-6.0000001490116617
20
-5.0000008195637449
30
0
11
-1.000000000000032
21
-5.0000008195637342
31
0
0
LINE
5
124
100
AcDbEntity
8
0
100
AcDbLine
10
-1.000000000000032
20
-5.0000008195637342
30
0
11
-1.0000000000000142
21
-10.000000968575346
31
0
0
LINE
5
125
100
AcDbEntity
8
0
100
AcDbLine
10
-141.00000000000003
20
-10.000000968575495
30
0
11
-141.00000000000003
21
-5.0000008195638834
31
0
0
LINE
5
126
100
AcDbEntity
8
0
100
AcDbLine
10
-141.00000000000003
20
-5.0000008195638834
30
0
11
-135.99999985098839
21
-5.0000008195638834
31
0
0
LINE
5
127
100
AcDbEntity
8
0
100
AcDbLine
10
-135.99999985098839
20
-5.0000008195638834
30
0
11
-135.99999985098839
21
-10.000000968575495
31
0
0
LINE
5
128
100
AcDbEntity
8
0
100
AcDbLine
10
-135.99999985098839
20
-10.000000968575495
30
0
11
-141.00000000000003
21
-10.000000968575495
31
0
0
CIRCLE
5
129
100
AcDbEntity
8
0
100
AcDbCircle
10
-43.000000193715159
20
-104.99999767541891
30
0
40
1.5000000000000036
210
0
220
-0
230
1
0
LWPOLYLINE
5
130
100
AcDbEntity
8
0
100
AcDbPolyline
90
4
70
1
43
0.0
10
-131.00000201165676
20
-145.00000074505809
10
-111.00000171363355
20
-145.00000074505809
10
-111.00000171363355
20
-140.00000067055228
10
-131.00000201165676
20
-140.00000067055228
0
LWPOLYLINE
5
131
100
AcDbEntity
8
0
100
AcDbPolyline
90
56
70
1
43
0.0
10
-135.99999992549419
20
-60.000001713633552
10
-140.99999992549419
20
-60.000001713633552
10
-140.99999992549422
20
-42.000001177191763
42
0.4142135274575024
10
-142.99999968707564
20
-40.000001177191784
10
-144.00000023841858
20
-40.000001057982438
42
-0.41421352745750567
10
-146
20
-38.000001057982459
10
-146.00000000000003
20
-5.0000008195638843
42
-0.41421356237309509
10
-141.00000000000003
20
-8.1956388342518949e-07
10
-107.99999940395358
20
-8.1956386205339626e-07
42
-0.41421356237309553
10
-105.99999940395357
20
-2.0000008195638763
10
-105.99999940395357
20
-3.0000008940696965
42
0.41421356237309553
10
-103.99999940395358
20
-5.0000008940696894
10
-85.999998658895507
20
-5.0000008940696894
10
-85.999998658895507
20
-10.000000894069689
10
-56.000001341104536
20
-10.000000894069672
10
-56.000001341104536
20
-5.0000008940696716
10
-38.000000596046476
20
-5.0000008940696716
42
0.41421356237309631
10
-36.000000596046476
20
-3.0000008940696787
10
-36.000000596046476
20
-2.000000819563859
42
-0.41421356237309631
10
-34.00000059604649
20
-8.1956386566162109e-07
10
-1.0000000000000333
20
-8.1956373465530419e-07
42
-0.41421356237310275
10
3.999999999999968
20
-5.0000008195638657
10
3.999999999999964
20
-38.000001057982438
42
-0.41421352745750623
10
2.00000023841854
20
-40.000001057982416
10
0.99999968707559006
20
-40.000001177191763
42
0.41421352745750806
10
-1.0000000745058379
20
-42.000001177191741
10
-1.0000000745058379
20
-60.000001713633537
10
-6.0000000745058379
20
-60.000001713633537
10
-6.0000000745058202
20
-89.999999925494194
10
-1.0000000745058202
20
-89.999999925494194
10
-1.0000000745058344
20
-108.00000046193597
42
0.41421352745749968
10
0.99999968707560782
20
-110.00000046193597
10
2.0000002384185573
20
-110.00000058114534
42
-0.41421352745749995
10
3.9999999999999858
20
-112.00000058114531
10
3.9999999999997904
20
-145.00000081956387
42
-0.41421356237310442
10
-1.0000000000000142
20
-150.00000081956387
10
-34.000000596046469
20
-150.00000081956387
42
-0.41421356237309631
10
-36.000000596046462
20
-148.00000081956387
10
-36.000000596046448
20
-147.00000074505806
42
0.41421356237309959
10
-38.000000596046455
20
-145.00000074505806
10
-56.000001341104522
20
-145.00000074505806
10
-56.000001341104522
20
-140.00000074505806
10
-85.999998658895507
20
-140.00000074505809
10
-85.999998658895507
20
-145.00000074505809
10
-103.99999940395355
20
-145.00000074505806
42
0.41421356237310542
10
-105.99999940395357
20
-147.00000074505806
10
-105.99999940395357
20
-148.00000081956387
42
-0.41421356237309503
10
-107.99999940395355
20
-150.00000081956387
10
-141
20
-150.00000081956387
42
-0.41421356237309609
10
-146
20
-145.00000081956389
10
-146
20
-112.00000058114531
42
-0.41421352745749723
10
-144.00000023841858
20
-110.00000058114531
10
-142.99999968707564
20
-110.00000046193598
42
0.414213527457505
10
-140.99999992549419
20
-108.00000046193601
10
-140.99999992549419
20
-89.999999925494208
10
-135.99999992549419
20
-89.999999925494208
0
ENDSEC
0
SECTION
2
OBJECTS
0
DICTIONARY
5
C
100
AcDbDictionary
3
ACAD_GROUP
350
D
3
ACAD_MLINESTYLE
350
17
0
DICTIONARY
5
D
100
AcDbDictionary
0
DICTIONARY
5
1A
330
C
100
AcDbDictionary
0
DICTIONARY
5
17
100
AcDbDictionary
0
ENDSEC
0
EOF
