0
SECTION
2
HEADER
9
$INSUNITS
70
4
9
$ACADVER
1
AC1014
9
$HANDSEED
5
FFFF
0
ENDSEC
0
SECTION
2
TABLES
0
TABLE
2
VPORT
5
8
100
AcDbSymbolTable
0
ENDTAB
0
TABLE
2
LTYPE
5
5
100
AcDbSymbolTable
0
LTYPE
5
14
100
AcDbSymbolTableRecord
100
AcDbLinetypeTableRecord
2
BYBLOCK
70
0
0
LTYPE
5
15
100
AcDbSymbolTableRecord
100
AcDbLinetypeTableRecord
2
BYLAYER
70
0
0
ENDTAB
0
TABLE
2
LAYER
5
2
100
AcDbSymbolTable
70
2
0
LAYER
5
50
100
AcDbSymbolTableRecord
100
AcDbLayerTableRecord
2
0
70
0
6
CONTINUOUS
0
ENDTAB
0
TABLE
2
STYLE
5
3
100
AcDbSymbolTable
70
1
0
STYLE
5
11
100
AcDbSymbolTableRecord
100
AcDbTextStyleTableRecord
2
STANDARD
70
0
0
ENDTAB
0
TABLE
2
VIEW
5
6
100
AcDbSymbolTable
70
0
0
ENDTAB
0
TABLE
2
UCS
5
7
100
AcDbSymbolTable
70
0
0
ENDTAB
0
TABLE
2
APPID
5
9
100
AcDbSymbolTable
70
2
0
APPID
5
12
100
AcDbSymbolTableRecord
100
AcDbRegAppTableRecord
2
ACAD
70
0
0
ENDTAB
0
TABLE
2
DIMSTYLE
5
A
100
AcDbSymbolTable
70
1
0
ENDTAB
0
TABLE
2
BLOCK_RECORD
5
1
100
AcDbSymbolTable
70
1
0
BLOCK_RECORD
5
1F
100
AcDbSymbolTableRecord
100
AcDbBlockTableRecord
2
*MODEL_SPACE
0
BLOCK_RECORD
5
1B
100
AcDbSymbolTableRecord
100
AcDbBlockTableRecord
2
*PAPER_SPACE
0
ENDTAB
0
ENDSEC
0
SECTION
2
BLOCKS
0
BLOCK
5
20
100
AcDbEntity
100
AcDbBlockBegin
2
*MODEL_SPACE
0
ENDBLK
5
21
100
AcDbEntity
100
AcDbBlockEnd
0
BLOCK
5
1C
100
AcDbEntity
100
AcDbBlockBegin
2
*PAPER_SPACE
0
ENDBLK
5
1D
100
AcDbEntity
100
AcDbBlockEnd
0
ENDSEC
0
SECTION
2
ENTITIES
0
LWPOLYLINE
5
100
100
AcDbEntity
8
0
100
AcDbPolyline
90
50
70
1
43
0.0
10
-57.861098131190062
20
63.510484533574669
42
-0.16386560240745959
10
-58.989503061272998
20
64.638889463657605
42
0.2849150464413161
10
-60.781115894228236
20
65.750000574768691
10
-80.718858145929687
20
65.750000574768691
42
0.28491504644131449
10
-82.510470978884896
20
64.638889463657577
42
-0.16386560240745926
10
-83.638875908967833
20
63.510484533574633
42
0.28491504644130683
10
-84.749987020078947
20
61.718871700619424
10
-84.749987020078962
20
41.781129448917945
42
0.28491504644132748
10
-83.638875908967862
20
39.989516615962714
42
-0.28491504644131754
10
-82.249987020078976
20
37.750000574768691
10
-82.249987020078976
20
35.00020214263467
42
-0.4142135642792602
10
-85.249987039603155
20
32.00020214263467
10
-89.71875827309924
20
32.000202171717717
42
0.2849285552630399
10
-91.510415535979661
20
30.889001529845682
42
-0.79273005806825769
10
-96.249987090193301
20
32.000202181683058
10
-96.24998707223304
20
38.5000007716664
42
-0.2849150456944522
10
-94.86109818334414
20
40.739516805952547
42
0.28491504644131632
10
-93.749987072233012
20
42.531129638907778
10
-93.749987072233012
20
45.96887171924589
42
0.28491504644131632
10
-94.86109818334414
20
47.76048455220112
42
-0.28491504644131788
10
-96.24998707223304
20
50.000000593395157
10
-96.249987098310044
20
56.500000620618415
42
-0.76732700893640382
10
-91.584923527909723
20
57.750000525098145
42
0.26794920549403323
10
-89.852872671589438
20
56.750000440658226
10
-89.249987020078976
20
56.750000440658248
42
0.41421356237309764
10
-87.249987020078962
20
58.750000440658241
10
-87.249987020078976
20
65.750000574768691
42
-0.41421356237309503
10
-84.749987020078962
20
68.25000057476872
10
-56.749987020078962
20
68.250000574768691
42
-0.41421356237309503
10
-54.249987020078962
20
65.750000574768691
10
-54.249987020078962
20
58.750000440658241
42
0.41421356237309503
10
-52.249987020078962
20
56.750000440658248
10
-51.647101368568485
20
56.750000440658248
42
0.26794920549403833
10
-49.915050512248214
20
57.750000525098145
42
-0.76732700893640515
10
-45.249986941847865
20
56.500000620618415
10
-45.249986967924904
20
50.000000593395157
42
-0.28491504644131754
10
-46.63887585681379
20
47.760484552201127
42
0.28491504644131488
10
-47.749986967924904
20
45.968871719245882
10
-47.749986967924897
20
42.531129638907778
42
0.28491504644132037
10
-46.638875856813783
20
40.73951680595254
42
-0.28491504569445147
10
-45.249986967924897
20
38.5000007716664
10
-45.249986949964629
20
32.000202181683058
42
-0.79273005806825825
10
-49.989558504178234
20
30.889001529845686
42
0.28492855526303384
10
-51.78121576705869
20
32.000202171717731
10
-56.249987000554754
20
32.00020214263467
42
-0.41421356427926148
10
-59.24998702007894
20
35.000202142634677
10
-59.249987020078962
20
37.750000574768691
42
-0.28491504644131826
10
-57.861098131190062
20
39.989516615962735
42
0.28491504644130927
10
-56.749987020078976
20
41.781129448917945
10
-56.749987020078962
20
61.718871700619424
42
0.28491504644132087
0
CIRCLE
5
101
100
AcDbEntity
8
0
100
AcDbCircle
10
-84.749987020078962
20
65.750000574768691
30
0
40
0.99999999999999645
210
0
220
2.4651903288156619e-32
230
1
0
CIRCLE
5
102
100
AcDbEntity
8
0
100
AcDbCircle
10
-84.749987020078962
20
37.750000574768691
30
0
40
1.0000000000000009
210
0
220
2.4651903288156619e-32
230
1
0
LWPOLYLINE
5
103
100
AcDbEntity
8
0
100
AcDbPolyline
90
4
70
1
43
0.0
10
-92.499987032165464
20
50.000000591361385
10
-92.499987095907684
20
56.499799235043177
42
1.0000805655431013
10
-94.999987116936509
20
56.50000062050718
10
-94.999987112300602
20
50.000000595428922
42
0.99999999999999989
0
LINE
5
104
100
AcDbEntity
8
0
100
AcDbLine
10
-94.999987125049358
20
32.000000737646673
30
0
11
-94.999987069997843
21
38.500000777797013
31
0
0
ARC
5
105
100
AcDbEntity
8
0
100
AcDbCircle
10
-93.74998707223304
20
38.500000764758504
30
0
40
1.2500000186264515
210
0
220
0
230
1
100
AcDbArc
50
0
51
180
0
LINE
5
106
100
AcDbEntity
8
0
100
AcDbLine
10
-92.499987053606588
20
38.500000751719988
30
0
11
-92.499987095907684
21
32.000202123110483
31
0
0
ARC
5
107
100
AcDbEntity
8
0
100
AcDbCircle
10
-93.749987098310058
20
32.000000727505615
30
0
40
1.2500000267393041
210
0
220
0
230
1
100
AcDbArc
50
-180
51
0.0092312944197821285
0
CIRCLE
5
108
100
AcDbEntity
8
0
100
AcDbCircle
10
-56.749987020078962
20
37.750000574768691
30
0
40
0.99999999999999645
210
0
220
2.4651903288156619e-32
230
1
0
ARC
5
109
100
AcDbEntity
8
0
100
AcDbCircle
10
-47.749986941847865
20
32.000000727505615
30
0
40
1.2500000186264562
210
0
220
0
230
1
100
AcDbArc
50
-180.00923129441978
51
0
0
LINE
5
110
100
AcDbEntity
8
0
100
AcDbLine
10
-48.999986944250239
20
32.000202123110483
30
0
11
-48.999986986551349
21
38.500000751719988
31
0
0
ARC
5
111
100
AcDbEntity
8
0
100
AcDbCircle
10
-47.749986967924897
20
38.500000764758504
30
0
40
1.2499999977648191
210
0
220
-0
230
1
100
AcDbArc
50
0
51
180
0
LINE
5
112
100
AcDbEntity
8
0
100
AcDbLine
10
-46.49998697016008
20
38.500000777797013
30
0
11
-46.4999869232214
21
32.000000737646481
31
0
0
LINE
5
113
100
AcDbEntity
8
0
100
AcDbLine
10
-46.499986915108558
20
56.500000620506981
30
0
11
-46.499986927857329
21
50.000000595428922
31
0
0
ARC
5
114
100
AcDbEntity
8
0
100
AcDbCircle
10
-47.749986967924897
20
50.000000593395157
30
0
40
1.2500000018224267
210
0
220
0
230
1
100
AcDbArc
50
-180
51
0
0
LINE
5
115
100
AcDbEntity
8
0
100
AcDbLine
10
-48.999986969747326
20
50.000000598298591
30
0
11
-48.999986944250239
21
56.499799235043177
31
0
0
ARC
5
116
100
AcDbEntity
8
0
100
AcDbCircle
10
-47.749986941847865
20
56.500000630648046
30
0
40
1.2500000267393041
210
0
220
0
230
1
100
AcDbArc
50
0
51
180.00923129441978
0
CIRCLE
5
117
100
AcDbEntity
8
0
100
AcDbCircle
10
-56.749987020078962
20
65.750000574768691
30
0
40
0.99999999999999645
210
0
220
2.4651903288156619e-32
230
1
0
ENDSEC
0
SECTION
2
OBJECTS
0
DICTIONARY
5
C
100
AcDbDictionary
3
ACAD_GROUP
350
D
3
ACAD_MLINESTYLE
350
17
0
DICTIONARY
5
D
100
AcDbDictionary
0
DICTIONARY
5
1A
330
C
100
AcDbDictionary
0
DICTIONARY
5
17
100
AcDbDictionary
0
ENDSEC
0
EOF
