0
SECTION
2
HEADER
9
$INSUNITS
70
4
9
$ACADVER
1
AC1014
9
$HANDSEED
5
FFFF
0
ENDSEC
0
SECTION
2
TABLES
0
TABLE
2
VPORT
5
8
100
AcDbSymbolTable
0
ENDTAB
0
TABLE
2
LTYPE
5
5
100
AcDbSymbolTable
0
LTYPE
5
14
100
AcDbSymbolTableRecord
100
AcDbLinetypeTableRecord
2
BYBLOCK
70
0
0
LTYPE
5
15
100
AcDbSymbolTableRecord
100
AcDbLinetypeTableRecord
2
BYLAYER
70
0
0
ENDTAB
0
TABLE
2
LAYER
5
2
100
AcDbSymbolTable
70
2
0
LAYER
5
50
100
AcDbSymbolTableRecord
100
AcDbLayerTableRecord
2
0
70
0
6
CONTINUOUS
0
ENDTAB
0
TABLE
2
STYLE
5
3
100
AcDbSymbolTable
70
1
0
STYLE
5
11
100
AcDbSymbolTableRecord
100
AcDbTextStyleTableRecord
2
STANDARD
70
0
0
ENDTAB
0
TABLE
2
VIEW
5
6
100
AcDbSymbolTable
70
0
0
ENDTAB
0
TABLE
2
UCS
5
7
100
AcDbSymbolTable
70
0
0
ENDTAB
0
TABLE
2
APPID
5
9
100
AcDbSymbolTable
70
2
0
APPID
5
12
100
AcDbSymbolTableRecord
100
AcDbRegAppTableRecord
2
ACAD
70
0
0
ENDTAB
0
TABLE
2
DIMSTYLE
5
A
100
AcDbSymbolTable
70
1
0
ENDTAB
0
TABLE
2
BLOCK_RECORD
5
1
100
AcDbSymbolTable
70
1
0
BLOCK_RECORD
5
1F
100
AcDbSymbolTableRecord
100
AcDbBlockTableRecord
2
*MODEL_SPACE
0
BLOCK_RECORD
5
1B
100
AcDbSymbolTableRecord
100
AcDbBlockTableRecord
2
*PAPER_SPACE
0
ENDTAB
0
ENDSEC
0
SECTION
2
BLOCKS
0
BLOCK
5
20
100
AcDbEntity
100
AcDbBlockBegin
2
*MODEL_SPACE
0
ENDBLK
5
21
100
AcDbEntity
100
AcDbBlockEnd
0
BLOCK
5
1C
100
AcDbEntity
100
AcDbBlockBegin
2
*PAPER_SPACE
0
ENDBLK
5
1D
100
AcDbEntity
100
AcDbBlockEnd
0
ENDSEC
0
SECTION
2
ENTITIES
0
LWPOLYLINE
5
100
100
AcDbEntity
8
0
100
AcDbPolyline
90
4
70
1
43
0.0
10
-94.749990617130422
20
35.249992597103166
10
-101.24999061713038
20
35.249992597103166
42
0.99999999999999989
10
-101.24999061713038
20
32.749992597103173
10
-94.749990617130422
20
32.749992597103166
42
0.99999999999999989
0
LWPOLYLINE
5
101
100
AcDbEntity
8
0
100
AcDbPolyline
90
4
70
1
43
0.0
10
-55.250017691873161
20
32.749992597103159
42
-0.99999999999999989
10
-55.250017691873161
20
35.249992597103159
10
-48.750017691873104
20
35.249992597103159
42
-0.99999999999999989
10
-48.750017691873246
20
32.749992597103159
0
LWPOLYLINE
5
102
100
AcDbEntity
8
0
100
AcDbPolyline
90
16
70
1
43
0.0
10
-13.499996498227318
20
32.824548305072739
42
-0.28968986385002271
10
-15.214282217986906
20
30.114024593760497
42
0.17293729967893687
10
-17.114028140237032
20
28.214278671510414
42
-0.28968986385002859
10
-19.824551851549298
20
26.499992951750755
10
-39.175440138859095
20
26.499992951750755
42
-0.28968988054095407
10
-41.885963929364465
20
28.214278838464175
42
0.17293733139733047
10
-43.785710611513871
20
30.114025520613616
42
-0.28968988054095191
10
-45.499996498227304
20
32.824549311119007
10
-45.499996498227247
20
52.17543906626701
42
-0.28968983949768284
10
-43.785711022056049
20
54.885962662035112
42
0.17293725340125268
10
-41.885966208511654
20
56.785707475579549
42
-0.28968983949768334
10
-39.175442612743552
20
58.499992951750748
10
-19.824550383710967
20
58.499992951750755
42
-0.28968983949768623
10
-17.114026787942866
20
56.785707475579542
42
0.17293725340125279
10
-15.214281974398464
20
54.885962662035155
42
-0.2896898394976824
10
-13.499996498227279
20
52.175439066267053
0
LWPOLYLINE
5
103
100
AcDbEntity
8
0
100
AcDbPolyline
90
4
70
1
43
0.0
10
-94.749990617130422
20
53.249992597103166
10
-101.24999061713038
20
53.249992597103166
42
0.99999999999999989
10
-101.24999061713034
20
50.749992597103166
10
-94.749990617130422
20
50.749992597103166
42
0.99999999999999989
0
LWPOLYLINE
5
104
100
AcDbEntity
8
0
100
AcDbPolyline
90
4
70
1
43
0.0
10
-55.250017691873161
20
50.749992597103159
42
-0.99999999999999989
10
-55.250017691873161
20
53.249992597103159
10
-48.750017691873104
20
53.249992597103159
42
-0.99999999999999989
10
-48.750017691873246
20
50.749992597103159
0
LWPOLYLINE
5
105
100
AcDbEntity
8
0
100
AcDbPolyline
90
16
70
1
43
0.0
10
-130.17544978757837
20
26.499992951750841
42
-0.28968986385002488
10
-132.88597349889056
20
28.214278671510414
42
0.17293729967893601
10
-134.7857194211407
20
30.114024593760462
42
-0.28968986385002438
10
-136.50000514090036
20
32.824548305072753
10
-136.50000514090027
20
52.175439066267082
42
-0.28968983949768407
10
-134.7857196647291
20
54.885962662035162
42
0.17293725340125174
10
-132.8859748511847
20
56.785707475579585
42
-0.2896898394976814
10
-130.17545125541662
20
58.49999295175077
10
-110.82455902638404
20
58.499992951750734
42
-0.28968983949767685
10
-108.11403543061598
20
56.785707475579549
42
0.17293725340125421
10
-106.21429061707153
20
54.885962662035148
42
-0.28968983949768262
10
-104.50000514090033
20
52.175439066267018
10
-104.50000514090037
20
32.824549311119029
42
-0.28968988054094569
10
-106.2142910276138
20
30.11402552061363
42
0.17293733139733047
10
-108.11403770976321
20
28.2142788384642
42
-0.28968988054094952
10
-110.82456150026857
20
26.499992951750777
0
CIRCLE
5
106
100
AcDbEntity
8
0
100
AcDbCircle
10
-104.50000514090036
20
26.499992951750777
30
0
40
1.4999999999999858
210
-2.4651903288156619e-32
220
5.4738221262688167e-48
230
1
0
CIRCLE
5
107
100
AcDbEntity
8
0
100
AcDbCircle
10
-13.499996498227315
20
26.499992951750755
30
0
40
1.5000000000000213
210
0
220
-0
230
1
0
CIRCLE
5
108
100
AcDbEntity
8
0
100
AcDbCircle
10
-13.499996498227279
20
58.499992951750741
30
0
40
1.5000000000000213
210
0
220
-0
230
1
0
CIRCLE
5
109
100
AcDbEntity
8
0
100
AcDbCircle
10
-45.499996498227269
20
58.499992951750748
30
0
40
1.5000000000000213
210
0
220
-0
230
1
0
CIRCLE
5
110
100
AcDbEntity
8
0
100
AcDbCircle
10
-45.499996498227304
20
26.499992951750755
30
0
40
1.4999999999999858
210
-2.4651903288156619e-32
220
5.4738221262688167e-48
230
1
0
LWPOLYLINE
5
111
100
AcDbEntity
8
0
100
AcDbPolyline
90
8
70
1
43
0.0
10
-30.499996662140067
20
11.499991387128832
42
-0.41421356237309681
10
-33.499996662140106
20
8.4999913871288424
10
-116.49999798834337
20
8.4999913871288513
42
-0.41421356237309076
10
-119.49999798834341
20
11.499991387128849
10
-119.49999798834342
20
17.499991536140442
42
-0.41421356237309548
10
-116.49999798834337
20
20.499991536140428
10
-33.499996662140106
20
20.499991536140424
42
-0.41421356237309159
10
-30.499996662140067
20
17.499991536140421
0
CIRCLE
5
112
100
AcDbEntity
8
0
100
AcDbCircle
10
-136.50000514090036
20
26.499992951750777
30
0
40
1.4999999999999858
210
-2.4651903288156619e-32
220
5.4738221262688167e-48
230
1
0
CIRCLE
5
113
100
AcDbEntity
8
0
100
AcDbCircle
10
-136.50000514090036
20
58.49999295175077
30
0
40
1.4999999999999858
210
-2.4651903288156619e-32
220
5.4738221262688167e-48
230
1
0
CIRCLE
5
114
100
AcDbEntity
8
0
100
AcDbCircle
10
-104.50000514090033
20
58.499992951750755
30
0
40
1.5000000000000213
210
0
220
-0
230
1
0
LWPOLYLINE
5
115
100
AcDbEntity
8
0
100
AcDbPolyline
90
8
70
1
43
0.0
10
-134.50000165402881
20
7.9999932348728464
42
-0.41421356237309132
10
-136.50000165402884
20
9.9999932348728855
10
-136.50000165402884
20
13.999993339180969
42
-0.41421356237309115
10
-134.50000165402881
20
15.999993339180998
10
-133.00000165402889
20
15.999993339181007
42
-0.41421356237309115
10
-131.00000165402886
20
13.999993339180969
10
-131.00000165402886
20
9.9999932348728837
42
-0.41421356237309132
10
-133.00000165402889
20
7.9999932348728553
0
LINE
5
116
100
AcDbEntity
8
0
100
AcDbLine
10
-27.499999916180865
20
14.999993339180966
30
0
11
-22.500000232830612
21
14.999993339180966
31
0
0
LINE
5
117
100
AcDbEntity
8
0
100
AcDbLine
10
-22.500000232830612
20
14.999993339180966
30
0
11
-22.500000232830612
21
-2.3748726540873122e-07
31
3.6462964529463019e-62
0
LINE
5
118
100
AcDbEntity
8
0
100
AcDbLine
10
-22.500000232830612
20
-2.3748726540873122e-07
30
3.6462964529463019e-62
11
-19.999999767169253
21
-4.7497452193567824e-07
31
0
0
LINE
5
119
100
AcDbEntity
8
0
100
AcDbLine
10
-19.999999767169253
20
-4.7497452193567824e-07
30
0
11
-19.999999925494162
21
-5.0000013411045163
31
0
0
LINE
5
120
100
AcDbEntity
8
0
100
AcDbLine
10
-19.999999925494162
20
-5.0000013411045163
30
0
11
-30.000000223517386
21
-5.0000013411045163
31
0
0
LINE
5
121
100
AcDbEntity
8
0
100
AcDbLine
10
-30.000000223517386
20
-5.0000013411045163
30
0
11
-30.000000065192477
21
-1.5832484656641554e-07
31
0
0
LINE
5
122
100
AcDbEntity
8
0
100
AcDbLine
10
-30.000000065192477
20
-1.5832484656641554e-07
30
0
11
-27.499999916180865
21
-2.3748726540873122e-07
31
0
0
LINE
5
123
100
AcDbEntity
8
0
100
AcDbLine
10
-27.499999916180865
20
-2.3748726540873122e-07
30
0
11
-27.499999916180865
21
14.999993339180966
31
0
0
LWPOLYLINE
5
124
100
AcDbEntity
8
0
100
AcDbPolyline
90
8
70
1
43
0.0
10
-90.000004154501809
20
23.999992132186868
42
-0.41421356237309048
10
-92.000004154501838
20
25.999992132186904
10
-92.000004154501795
20
71.999992132186904
42
-0.41421356237309764
10
-90.000004154501767
20
73.999992132186904
10
-60.000004154501774
20
73.999992132186904
42
-0.41421356237308721
10
-58.000004154501781
20
71.99999213218689
10
-58.000004154501838
20
25.999992132186883
42
-0.41421356237309825
10
-60.000004154501809
20
23.99999213218689
0
CIRCLE
5
125
100
AcDbEntity
8
0
100
AcDbCircle
10
-85.000000819563795
20
80.999995008110943
30
0
40
4.0749999999999877
210
1.2154326714572545e-63
220
5.4738221262688179e-48
230
1
0
LWPOLYLINE
5
126
100
AcDbEntity
8
0
100
AcDbPolyline
90
8
70
1
43
0.0
10
-16.999999985098778
20
7.9999932348727656
42
-0.41421356237308432
10
-18.999999985098807
20
9.9999932348728677
10
-18.999999985098807
20
13.999993339180952
42
-0.41421356237309437
10
-16.999999985098778
20
15.99999333918098
10
-15.499999985098793
20
15.99999333918098
42
-0.41421356237309437
10
-13.499999985098764
20
13.999993339180952
10
-13.499999985098764
20
9.999993234872866
42
-0.41421356237309503
10
-15.499999985098793
20
7.9999932348728375
0
LINE
5
127
100
AcDbEntity
8
0
100
AcDbLine
10
-122.50000172294673
20
-2.3748724764516282e-07
30
0
11
-120.00000157393518
21
-1.5832482880284715e-07
31
0
0
LINE
5
128
100
AcDbEntity
8
0
100
AcDbLine
10
-120.00000157393518
20
-1.5832482880284715e-07
30
0
11
-120.00000141561028
21
-5.0000013411044986
31
0
0
LINE
5
129
100
AcDbEntity
8
0
100
AcDbLine
10
-120.00000141561028
20
-5.0000013411044986
30
0
11
-130.00000171363351
21
-5.0000013411044986
31
0
0
LINE
5
130
100
AcDbEntity
8
0
100
AcDbLine
10
-130.00000171363351
20
-5.0000013411044986
30
0
11
-130.00000187195835
21
-4.7497450417210985e-07
31
0
0
LINE
5
131
100
AcDbEntity
8
0
100
AcDbLine
10
-130.00000187195835
20
-4.7497450417210985e-07
30
0
11
-127.50000140629706
21
-2.3748724764516282e-07
31
0
0
LINE
5
132
100
AcDbEntity
8
0
100
AcDbLine
10
-127.50000140629706
20
-2.3748724764516282e-07
30
0
11
-127.50000140629706
21
14.999993339180984
31
-3.6462964529463019e-62
0
LINE
5
133
100
AcDbEntity
8
0
100
AcDbLine
10
-127.50000140629706
20
14.999993339180984
30
-3.6462964529463019e-62
11
-122.50000172294673
21
14.999993339180984
31
0
0
LINE
5
134
100
AcDbEntity
8
0
100
AcDbLine
10
-122.50000172294673
20
14.999993339180984
30
0
11
-122.50000172294673
21
-2.3748724764516282e-07
31
0
0
LWPOLYLINE
5
135
100
AcDbEntity
8
0
100
AcDbPolyline
90
4
70
1
43
0.0
10
-145.00000186264512
20
59.999999180436212
10
-145.00000186264512
20
15.000000968575486
10
-140.00000081956384
20
15.000000968575486
10
-140.00000081956384
20
59.999999180436212
0
LWPOLYLINE
5
136
100
AcDbEntity
8
0
100
AcDbPolyline
90
4
70
1
43
0.0
10
-4.999999776482551
20
15.000000968575451
10
-4.9999997764825155
20
59.999999180436191
10
-10.000000819563798
20
59.999999180436191
10
-10.000000819563834
20
15.000000968575469
0
LWPOLYLINE
5
137
100
AcDbEntity
8
0
100
AcDbPolyline
90
4
70
1
43
0.0
10
-76.500000596046362
20
90.559995008110903
10
-76.500000596046362
20
76.559995008110903
10
-62.500000596046377
20
76.559995008110903
10
-62.500000596046377
20
90.559995008110903
0
LWPOLYLINE
5
138
100
AcDbEntity
8
0
100
AcDbPolyline
90
40
70
1
43
0.0
10
-30.000000223517382
20
-10.000001341104516
42
-0.41421356237309515
10
-35.000000223517389
20
-5.0000013411045146
10
-34.999999925494166
20
-8.8817841970012523e-15
10
-34.999999925494159
20
5.0000000745057971
10
-60.000000596046412
20
5.0000000745057971
10
-60.000000596046412
20
-8.8817841970012602e-15
10
-90.000001043081255
20
8.8817841970012523e-15
10
-90.000001043081255
20
5.0000000745058149
10
-115.00000171363351
20
5.0000000745058149
10
-115.00000171363351
20
8.8817841970012523e-15
10
-115.00000141561028
20
-5.0000013411044995
42
-0.41421356237309498
10
-120.00000141561028
20
-10.000001341104499
10
-130.00000171363351
20
-10.000001341104499
42
-0.41421356237309503
10
-135.00000171363351
20
-5.0000013411044986
10
-135.00000171363351
20
5.0000000745058149
10
-145.00000193715093
20
5.0000000745058149
42
-0.41421356237309503
10
-150.00000193715093
20
10.000000074505815
10
-150.00000193715093
20
65.000000074505891
42
-0.41421356237309503
10
-145.00000193715093
20
70.000000074505891
10
-135.00000171363351
20
70.000000074505891
10
-135.00000171363351
20
75.000000149011697
10
-115.00000171363347
20
75.000000149011697
10
-115.00000171363347
20
70.000000074505891
10
-94.500001043081198
20
70.000000074505877
10
-94.500001043081198
20
90.000000149011754
42
-0.41421356237309087
10
-89.500001043081198
20
95.000000149011683
10
-60.500000596046384
20
95.000000149011683
42
-0.41421356237309503
10
-55.500000596046384
20
90.000000149011683
10
-55.500000596046384
20
70.000000074505863
10
-34.99999992549413
20
70.000000074505863
10
-34.99999992549413
20
75.000000149011669
10
-14.999999925494127
20
75.000000149011655
10
-14.999999925494127
20
70.000000074505863
10
-4.9999997019767086
20
70.000000074505863
42
-0.41421356237309498
10
2.9802329071237921e-07
20
65.000000074505863
10
2.9802332601747139e-07
20
10.000000074505779
42
-0.41421356237309503
10
-4.999999701976674
20
5.0000000745057793
10
-14.999999925494162
20
5.0000000745057962
10
-14.999999925494162
20
-5.0000013411045172
42
-0.41421356237309498
10
-19.999999925494162
20
-10.000001341104516
0
ENDSEC
0
SECTION
2
OBJECTS
0
DICTIONARY
5
C
100
AcDbDictionary
3
ACAD_GROUP
350
D
3
ACAD_MLINESTYLE
350
17
0
DICTIONARY
5
D
100
AcDbDictionary
0
DICTIONARY
5
1A
330
C
100
AcDbDictionary
0
DICTIONARY
5
17
100
AcDbDictionary
0
ENDSEC
0
EOF
