0
SECTION
2
HEADER
9
$INSUNITS
70
4
9
$ACADVER
1
AC1014
9
$HANDSEED
5
FFFF
0
ENDSEC
0
SECTION
2
TABLES
0
TABLE
2
VPORT
5
8
100
AcDbSymbolTable
0
ENDTAB
0
TABLE
2
LTYPE
5
5
100
AcDbSymbolTable
0
LTYPE
5
14
100
AcDbSymbolTableRecord
100
AcDbLinetypeTableRecord
2
BYBLOCK
70
0
0
LTYPE
5
15
100
AcDbSymbolTableRecord
100
AcDbLinetypeTableRecord
2
BYLAYER
70
0
0
ENDTAB
0
TABLE
2
LAYER
5
2
100
AcDbSymbolTable
70
2
0
LAYER
5
50
100
AcDbSymbolTableRecord
100
AcDbLayerTableRecord
2
0
70
0
6
CONTINUOUS
0
ENDTAB
0
TABLE
2
STYLE
5
3
100
AcDbSymbolTable
70
1
0
STYLE
5
11
100
AcDbSymbolTableRecord
100
AcDbTextStyleTableRecord
2
STANDARD
70
0
0
ENDTAB
0
TABLE
2
VIEW
5
6
100
AcDbSymbolTable
70
0
0
ENDTAB
0
TABLE
2
UCS
5
7
100
AcDbSymbolTable
70
0
0
ENDTAB
0
TABLE
2
APPID
5
9
100
AcDbSymbolTable
70
2
0
APPID
5
12
100
AcDbSymbolTableRecord
100
AcDbRegAppTableRecord
2
ACAD
70
0
0
ENDTAB
0
TABLE
2
DIMSTYLE
5
A
100
AcDbSymbolTable
70
1
0
ENDTAB
0
TABLE
2
BLOCK_RECORD
5
1
100
AcDbSymbolTable
70
1
0
BLOCK_RECORD
5
1F
100
AcDbSymbolTableRecord
100
AcDbBlockTableRecord
2
*MODEL_SPACE
0
BLOCK_RECORD
5
1B
100
AcDbSymbolTableRecord
100
AcDbBlockTableRecord
2
*PAPER_SPACE
0
ENDTAB
0
ENDSEC
0
SECTION
2
BLOCKS
0
BLOCK
5
20
100
AcDbEntity
100
AcDbBlockBegin
2
*MODEL_SPACE
0
ENDBLK
5
21
100
AcDbEntity
100
AcDbBlockEnd
0
BLOCK
5
1C
100
AcDbEntity
100
AcDbBlockBegin
2
*PAPER_SPACE
0
ENDBLK
5
1D
100
AcDbEntity
100
AcDbBlockEnd
0
ENDSEC
0
SECTION
2
ENTITIES
0
LWPOLYLINE
5
100
100
AcDbEntity
8
0
100
AcDbPolyline
90
7
70
1
43
0.0
10
133.99998855499814
20
55.000000789761771
10
132.99998840300634
20
55.000000789761742
42
-0.18392532362014974
10
131.66987488922939
20
55.50641515764422
10
131.66987511746066
20
50.801273770229244
10
135.99998937189309
20
48.301281419864026
10
135.99998937082989
20
48.30739702143471
10
135.98968642223264
20
53.202738051069048
42
0.38477551474365973
0
LWPOLYLINE
5
101
100
AcDbEntity
8
0
100
AcDbPolyline
90
7
70
1
43
0.0
10
125.99999485522049
20
65.621773320798042
10
126.37286459946952
20
65.837048018953766
42
-0.15639201195024868
10
125.99999208078331
20
66.999999552965932
10
125.99999210462514
20
67.999999627471738
42
0.4142135623730937
10
123.99999215230886
20
69.999999675155408
10
121.66988323935632
20
69.999999730709533
10
121.66987663160162
20
68.121788554648418
0
CIRCLE
5
102
100
AcDbEntity
8
0
100
AcDbCircle
10
47.097227382907732
20
64.570581400079462
30
0
40
1.4999999999999944
210
-1.6543612251060565e-24
220
-2.958229309462076e-32
230
1
0
LWPOLYLINE
5
103
100
AcDbEntity
8
0
100
AcDbPolyline
90
7
70
1
43
0.0
10
115.99999180660197
20
67.99999986589026
42
-0.41421356237309503
10
117.99999185428564
20
69.999999818206533
10
120.33013727725404
20
69.999999762651555
10
120.33013066939246
20
68.121758206125975
10
115.99999485522049
20
65.621773440007289
10
115.62712263331218
20
65.83705306677723
42
0.156391257735324
10
115.99999178276015
20
66.999999791384411
0
LWPOLYLINE
5
104
100
AcDbEntity
8
0
100
AcDbPolyline
90
8
70
1
43
0.0
10
115.33013427916006
20
64.461519410112203
10
114.34540847010476
20
65.030053821507266
42
-0.04342193351964007
10
113.99999173507639
20
64.999999839068124
10
107.60252954595929
20
64.999999991595487
10
106.66988024133401
20
64.461537222151705
10
106.6698699575482
20
59.461537222162292
10
110.99999183456838
20
56.961528316147827
10
115.33012399537427
20
59.461519410122811
0
CIRCLE
5
105
100
AcDbEntity
8
0
100
AcDbCircle
10
11.741887480643783
20
29.215243183688692
30
0
40
1.5000000000000036
210
-1.6543612251060561e-24
220
-2.9582293094620766e-32
230
1
0
LWPOLYLINE
5
106
100
AcDbEntity
8
0
100
AcDbPolyline
90
8
70
1
43
0.0
10
105.33013427916005
20
64.461519529321436
10
104.39746305734305
20
65.000000068010209
10
101.72431153709761
20
65.000000131743121
42
0.34938330896823888
10
99.775302781466721
20
63.448737311332692
42
-0.2508938203409003
10
96.669870845481768
20
59.893252655895395
10
96.669869957548201
20
59.461537341371518
10
100.99999183456836
20
56.961528435357067
10
105.33012399537425
20
59.461519529332037
0
LWPOLYLINE
5
107
100
AcDbEntity
8
0
100
AcDbPolyline
90
4
70
1
43
0.0
10
58.500016243455619
20
90.560000938773186
10
58.50001607656268
20
76.560000938773186
10
72.500016076562659
20
76.560000771880254
10
72.500016243455605
20
90.560000771880254
0
LWPOLYLINE
5
108
100
AcDbEntity
8
0
100
AcDbPolyline
90
8
70
1
43
0.0
10
131.75416483634211
20
14.564580790745978
10
130.99999974284725
20
14.999998015081218
10
126.66987320974583
20
12.499997173615174
10
126.66987379397726
20
9.4935820427102708
42
-0.18392590618010871
10
127.99999067938673
20
9.9999993952428028
10
128.99999080891214
20
9.9999993851558493
42
0.41421355834436785
10
130.99999082908607
20
11.999999337472154
10
130.99999085292785
20
12.999998614192805
42
-0.22843746416339833
0
CIRCLE
5
109
100
AcDbEntity
8
0
100
AcDbCircle
10
30.480216735330849
20
10.476913035488796
30
0
40
1.5000000000000036
210
-1.6543612251060561e-24
220
-2.9582293094620766e-32
230
1
0
CIRCLE
5
110
100
AcDbEntity
8
0
100
AcDbCircle
10
25.141560856845405
20
23.876586666257275
30
0
40
6.0000000000000053
210
0
220
0
230
1
0
LWPOLYLINE
5
111
100
AcDbEntity
8
0
100
AcDbPolyline
90
6
70
1
43
0.0
10
130.33013164815765
20
21.160245510792176
10
127.79291398613596
20
22.62511396863211
42
0.017599796393911401
10
127.77022055670841
20
22.48620063561161
42
-0.20171923035829453
10
123.4967963697475
20
15.105478561778021
10
125.99999319469971
20
13.660252112536114
10
130.33012402513046
20
16.160245510798003
0
LWPOLYLINE
5
112
100
AcDbEntity
8
0
100
AcDbPolyline
90
5
70
1
43
0.0
10
100.99999974284727
20
14.999998372708923
10
96.66987320974583
20
12.499997531242879
10
96.669873695566068
20
9.999999800696731
10
105.33012773341065
20
9.9999997729018979
10
105.3301272475901
20
12.499999214175091
0
LWPOLYLINE
5
113
100
AcDbEntity
8
0
100
AcDbPolyline
90
6
70
1
43
0.0
10
40.999995066687134
20
32.32050716364688
10
36.669872006155288
20
29.820500307526178
10
36.669879922925183
20
24.820500307532431
10
41.000010900226897
20
22.320507163659403
10
45.330133960758715
20
24.820514019780106
10
45.330126043988848
20
29.820514019773835
0
LWPOLYLINE
5
114
100
AcDbEntity
8
0
100
AcDbPolyline
90
5
70
1
43
0.0
10
46.669875758058609
20
10.000000472186279
10
55.330129795903176
20
10.000000293504641
10
55.330130341327973
20
12.49999802405079
10
51.00000386783119
20
14.999998968755033
10
46.669876303483775
20
12.499999913459437
0
LWPOLYLINE
5
115
100
AcDbEntity
8
0
100
AcDbPolyline
90
6
70
1
43
0.0
10
11.669875308941931
20
50.801275724059323
10
16.000002146992568
20
48.301275410780569
10
20.330129346786315
20
50.801275097501829
10
20.330129708529459
20
55.801275097501815
10
16.000002870478838
20
58.301275410780569
10
11.669875670685075
20
55.801275724059316
0
LWPOLYLINE
5
116
100
AcDbEntity
8
0
100
AcDbPolyline
90
5
70
1
43
0.0
10
30.330131203204683
20
38.480767729197652
10
26.000001709532579
20
40.980763442800161
10
21.669877165364557
20
38.480759156405128
10
21.669881289671075
20
34.314375533242121
42
-0.2059137708502822
10
30.330136058437237
20
33.57600102268141
0
LWPOLYLINE
5
117
100
AcDbEntity
8
0
100
AcDbPolyline
90
6
70
1
43
0.0
10
45.999995376400811
20
23.660253066198521
10
41.669872109392472
20
21.160246567704352
10
41.669879613210441
20
16.160246567709986
10
46.000010384036742
20
13.660253066209787
10
50.330133651045074
20
16.160259564703935
10
50.330126147227112
20
21.160259564698304
0
LWPOLYLINE
5
118
100
AcDbEntity
8
0
100
AcDbPolyline
90
6
70
1
43
0.0
10
14.207089806339352
20
22.625115322680024
10
11.669872109392479
20
21.160246925332057
10
11.669879613210444
20
16.160246925337692
10
16.000010384036742
20
13.660253423837474
10
18.503207243445832
20
15.105479813398567
42
-0.20171923035829509
10
14.229783232455002
20
22.48620198911847
42
0.01759979639391298
0
LWPOLYLINE
5
119
100
AcDbEntity
8
0
100
AcDbPolyline
90
6
70
1
43
0.0
10
31.669882114868603
20
33.480759037198368
10
36.000011608540703
20
30.980763323595845
10
40.330136152708732
20
33.48076760999087
10
40.330131203204658
20
38.480767609988426
10
36.000001709532569
20
40.980763323590921
10
31.669877165364536
20
38.480759037195902
0
LWPOLYLINE
5
120
100
AcDbEntity
8
0
100
AcDbPolyline
90
9
70
1
43
0.0
10
61.754178758649694
20
5.4354229659967572
10
65.330129250477384
20
7.499997904841667
10
65.330130341327958
20
12.49999790484156
10
61.00000386783119
20
14.999998849545804
10
56.669876303483775
20
12.499999794250208
10
56.669875758058588
20
10.000000265862468
10
59.000011559238736
20
10.00000021778628
42
-0.41421355633000884
10
61.000011517973988
20
8.0000002177863188
10
61.000011517973938
20
6.9999998211861403
42
0.22843633680801467
0
LWPOLYLINE
5
121
100
AcDbEntity
8
0
100
AcDbPolyline
90
6
70
1
43
0.0
10
30.330129708529459
20
55.801274978292589
10
26.000002870478838
20
58.301275291571329
10
21.669875670685073
20
55.80127560485009
10
21.669875308941929
20
50.80127560485009
10
26.000002146992564
20
48.301275291571343
10
30.330129346786311
20
50.801274978292589
0
LWPOLYLINE
5
122
100
AcDbEntity
8
0
100
AcDbPolyline
90
6
70
1
43
0.0
10
33.241197832311407
20
15.253048834372208
42
-0.22428300870972576
10
33.654757383791292
20
16.910565182158592
42
0.16622762032913335
10
36.13758121903264
20
23.580818237439082
10
40.330126147227091
20
21.160259683907551
10
40.330133651045074
20
16.160259683913182
10
36.00001038403672
20
13.660253185419016
0
LWPOLYLINE
5
123
100
AcDbEntity
8
0
100
AcDbPolyline
90
8
70
1
43
0.0
10
40.275693265673233
20
65.000000864267378
10
37.602541745427772
20
65.000000864267349
10
36.669870510772419
20
64.461520347815181
10
36.669880675348985
20
59.461520347825541
10
41.000012776550477
20
56.961529150612222
10
45.330134713175447
20
59.461537953388572
10
45.330133835534795
20
59.893253267912456
42
-0.25089382034090385
10
42.224701984319147
20
63.448737997389003
42
0.34938330896823722
0
LWPOLYLINE
5
124
100
AcDbEntity
8
0
100
AcDbPolyline
90
7
70
1
43
0.0
10
18.175537834343309
20
32.389784731606454
42
-0.39828623493945603
10
15.432673257879868
20
32.588382737459554
42
0.21438070319923919
10
11.66988138831702
20
34.21472329598334
10
11.669877165364541
20
38.480759275614361
10
16.000001709532579
20
40.980763562009379
10
20.330131203204665
20
38.480767848406884
10
20.330135867870229
20
33.768512326600309
42
0.058333379889289771
0
LWPOLYLINE
5
125
100
AcDbEntity
8
0
100
AcDbPolyline
90
6
70
1
43
0.0
10
6.6698818919406877
20
42.141013938001009
10
11.000011059447701
20
39.641017659462719
10
15.330135929781918
20
42.141021380922588
10
15.330131632609127
20
47.141021380920762
10
11.000002465102149
20
49.641017659459052
10
6.6698775947679314
20
47.14101393799919
0
LWPOLYLINE
5
126
100
AcDbEntity
8
0
100
AcDbPolyline
90
6
70
1
43
0.0
10
26.66988189194068
20
42.141013699582537
10
31.000011059447694
20
39.641017421044239
10
35.330135929781918
20
42.141021142504115
10
35.330131632609117
20
47.141021142502282
10
31.000002465102146
20
49.641017421040587
10
26.669877594767929
20
47.141013699580718
0
LWPOLYLINE
5
127
100
AcDbEntity
8
0
100
AcDbPolyline
90
5
70
1
43
0.0
10
36.669875758058609
20
10.000000591395509
10
45.330129795903176
20
10.000000412713888
10
45.330130341327973
20
12.499998143260019
10
41.00000386783119
20
14.99999908796428
10
36.669876303483775
20
12.500000032668684
0
LWPOLYLINE
5
128
100
AcDbEntity
8
0
100
AcDbPolyline
90
6
70
1
43
0.0
10
31.669875670685069
20
55.801275485640851
10
31.669875308941926
20
50.801275485640858
10
36.000002146992564
20
48.301275172362111
10
40.330129346786308
20
50.801274859083357
10
40.330129708529455
20
55.80127485908335
10
36.000002870478831
20
58.301275172362097
0
LWPOLYLINE
5
129
100
AcDbEntity
8
0
100
AcDbPolyline
90
4
70
1
43
0.0
10
68.320509077808481
20
4.999999314922519
10
66.000013291980949
20
6.3397447520856502
10
63.67949562185337
20
4.9999998211862433
10
66.000011554050531
20
4.99999982118619
0
LWPOLYLINE
5
130
100
AcDbEntity
8
0
100
AcDbPolyline
90
8
70
1
43
0.0
10
34.397475256811553
20
65.000000864267335
10
28.000013067694425
20
65.000000864267264
42
-0.043421933519619156
10
27.654596333382639
20
65.030054854941795
10
26.669870510772423
20
64.461520467024414
10
26.669880675348981
20
59.461520467034781
10
31.000012776550481
20
56.961529269821447
10
35.330134713175447
20
59.461538072597804
10
35.330124548598882
20
64.461538072587473
0
LWPOLYLINE
5
131
100
AcDbEntity
8
0
100
AcDbPolyline
90
7
70
1
43
0.0
10
16.000012769671244
20
68.000000938773056
42
-0.41421356237309798
10
18.000012769671216
20
70.000000938773027
10
20.330121682623744
20
70.000000938773056
10
20.330128245598416
20
68.121789762711813
10
16.00000996237458
20
65.621774632099445
10
15.627140223258083
20
65.837049339145068
42
0.15639201195023572
10
16.000012769671208
20
67.000000864267264
0
LWPOLYLINE
5
132
100
AcDbEntity
8
0
100
AcDbPolyline
90
6
70
1
43
0.0
10
25.330124548598889
20
64.461538191796691
10
20.999992447397354
20
66.961529389009996
10
16.669870510772423
20
64.461520586233661
10
16.669880675348985
20
59.461520586244006
10
21.000012776550484
20
56.961529389030687
10
25.330134713175454
20
59.461538191807037
0
LWPOLYLINE
5
133
100
AcDbEntity
8
0
100
AcDbPolyline
90
7
70
1
43
0.0
10
24.00001306769445
20
70.00000093877307
42
-0.41421356237309503
10
26.000013067694432
20
68.000000938773113
10
26.000013067694411
20
67.000000864267278
42
0.15639125773530066
10
26.372882189415581
20
65.837054130770184
10
26.00000996237458
20
65.621774512890212
10
21.669874207806878
20
68.121759382247333
10
21.669867644726061
20
70.00000093877307
0
LWPOLYLINE
5
134
100
AcDbEntity
8
0
100
AcDbPolyline
90
4
70
1
43
0.0
10
116.00005830376155
20
79.999998786060516
10
116.00005811258629
20
74.999999874423565
10
126.00005811258627
20
74.999999492072945
10
126.00005830376155
20
79.99999840370991
0
LWPOLYLINE
5
135
100
AcDbEntity
8
0
100
AcDbPolyline
90
6
70
1
43
0.0
10
75.33012724759007
20
12.499999571802778
10
70.99999974284728
20
14.99999873033661
10
66.669876303483761
20
12.499999675040979
10
66.669875212633187
20
7.4999996750410851
10
71.000001686129991
20
4.9999987303368059
10
75.330128219231426
20
7.4999995718028849
0
LWPOLYLINE
5
136
100
AcDbEntity
8
0
100
AcDbPolyline
90
7
70
1
43
0.0
10
23.751174641303386
20
12.964810580270182
42
-0.26359977466422424
10
25.330130185068903
20
11.783772758694184
10
25.330129250477391
20
7.4999983816786013
10
21.000001686130002
20
4.9999993263829872
10
16.669875212633197
20
7.5000002710872664
10
16.669876303483786
20
12.500000271087142
10
19.758959397458327
20
14.283482328348395
42
0.096442490164348735
0
LWPOLYLINE
5
137
100
AcDbEntity
8
0
100
AcDbPolyline
90
6
70
1
43
0.0
10
36.669881891940683
20
42.141013580373311
10
41.000011059447694
20
39.641017301835014
10
45.330135929781918
20
42.141021023294883
10
45.330131632609117
20
47.141021023293057
10
41.000002465102142
20
49.641017301831354
10
36.669877594767925
20
47.141013580371485
0
LWPOLYLINE
5
138
100
AcDbEntity
8
0
100
AcDbPolyline
90
6
70
1
43
0.0
10
16.669881891940683
20
42.141013818791784
10
21.000011059447697
20
39.641017540253486
10
25.330135929781918
20
42.141021261713341
10
25.330131632609124
20
47.141021261711515
10
21.000002465102146
20
49.64101754024982
10
16.669877594767929
20
47.141013818789965
0
LWPOLYLINE
5
139
100
AcDbEntity
8
0
100
AcDbPolyline
90
6
70
1
43
0.0
10
135.33012581756631
20
25.99999084385772
10
134.08724228775381
20
25.999992841414908
42
-0.24058082511830159
10
129.89816237960522
20
24.228214083066444
42
0.19298456453014981
10
128.48031868780464
20
23.775246066274075
10
130.999992884986
20
22.320506090776501
10
135.33012392189215
20
24.820499131411221
0
LWPOLYLINE
5
140
100
AcDbEntity
8
0
100
AcDbPolyline
90
6
70
1
43
0.0
10
12.101841451090971
20
24.228215487307384
42
-0.19298456453014648
10
13.519685132091929
20
23.775247436711009
10
11.000010900226902
20
22.320507521287109
10
6.6698799229251904
20
24.820500665160136
10
6.6698780553662198
20
25.999996214655667
10
7.9127583632897878
20
25.999998182575162
42
0.2405810901350614
0
LWPOLYLINE
5
141
100
AcDbEntity
8
0
100
AcDbPolyline
90
8
70
1
43
0.0
10
121.77318276225598
20
14.035580536938943
42
-0.25182371323971858
10
122.7199768816932
20
14.006969315831295
10
125.3301272475901
20
12.499998975756615
10
125.33012821923143
20
7.4999989757567036
10
121.00000168612999
20
4.9999981342906423
10
116.66987418138719
20
7.49999729282451
10
116.66987334892875
20
11.783771669840114
42
-0.26359977466422385
10
118.24882892085242
20
12.964809453770929
42
0.084309252348743105
0
LWPOLYLINE
5
142
100
AcDbEntity
8
0
100
AcDbPolyline
90
4
70
1
43
0.0
10
15.999992182111168
20
75.000002250653722
10
25.999992182111168
20
75.000002131444489
10
25.999992241715773
20
80.00000104308144
10
15.999992241715768
20
80.000001162290673
0
LWPOLYLINE
5
143
100
AcDbEntity
8
0
100
AcDbPolyline
90
6
70
1
43
0.0
10
13.000012682557102
20
10.000000767982769
10
14.000012812082518
20
10.000000754227807
42
-0.1839259061801041
10
15.33012968541804
20
9.4935833699828436
10
15.33013034132798
20
12.499998500887724
10
11.000013917143285
20
14.999993643616019
10
11.000012710066937
20
12.000000767982701
42
0.41421355834436524
0
LWPOLYLINE
5
144
100
AcDbEntity
8
0
100
AcDbPolyline
90
6
70
1
43
0.0
10
8.0000151748896045
20
20.000001546739735
10
9.0000151719094053
20
20.0000015228979
42
-0.1839253192761435
10
10.330128648509106
20
19.493587145658932
10
10.330126147227098
20
21.16026004153526
10
6.0000126355609797
20
23.660243578489208
10
6.0000152225732881
20
22.000001594423452
42
0.41421356237309098
0
LWPOLYLINE
5
145
100
AcDbEntity
8
0
100
AcDbPolyline
90
5
70
1
43
0.0
10
10.330131203204667
20
38.48076796761611
10
6.0000119886474925
20
40.980757746582441
10
6.0000116085407127
20
30.980763681223557
10
7.485105595061869
20
31.838185054242203
42
-0.18515375969424405
10
10.330135627040352
20
34.011799337911896
0
LWPOLYLINE
5
146
100
AcDbEntity
8
0
100
AcDbPolyline
90
6
70
1
43
0.0
10
6.0000159616705755
20
53.000002339481476
42
-0.41421356237309293
10
8.0000160093542512
20
55.000002291797792
10
9.0000161613460783
20
55.000002267955949
42
0.18392532362015285
10
10.330129687196845
20
55.506416604126031
10
10.330129346786316
20
50.801275216711055
10
6.0000150327494612
20
48.301282969583774
0
LWPOLYLINE
5
147
100
AcDbEntity
8
0
100
AcDbPolyline
90
10
70
1
43
0.0
10
130.99999183456836
20
56.961528077729362
10
131.00035445754253
20
56.961737437206651
42
-0.0047832488613050658
10
130.99998840300634
20
57.000000801682695
10
130.99999202117868
20
61.99999935925085
10
130.99999204502052
20
62.99999943375667
42
0.41421356237309892
10
128.99999209270422
20
64.999999481440341
10
127.9999920330996
20
64.999999505282219
42
-0.043421044323504542
10
127.65458229299432
20
65.030052277943454
10
126.66988024133401
20
64.461536983733239
10
126.6698699575482
20
59.461536983743812
0
LWPOLYLINE
5
148
100
AcDbEntity
8
0
100
AcDbPolyline
90
10
70
1
43
0.0
10
11.000016209029758
20
57.000002232193154
42
-0.0047832488612992918
10
10.999650153581319
20
56.961738867725884
10
11.000012776550484
20
56.961529508239927
10
15.330134713175456
20
59.46153831101627
10
15.330124548598894
20
64.461538311005938
10
14.345422510493025
20
65.030053628693281
42
-0.04342104432350076
10
14.00001276967124
20
65.000000864267207
10
13.000012710066621
20
65.000000864267207
42
0.41421356237309664
10
11.000012710066631
20
63.000000864267236
10
11.000012710066606
20
62.000000789761415
0
LWPOLYLINE
5
149
100
AcDbEntity
8
0
100
AcDbPolyline
90
6
70
1
43
0.0
10
131.66987761032337
20
21.160258595053378
10
131.66987506930479
20
19.493585699177096
42
-0.18392531927614486
10
132.99998855797833
20
20.000000044703711
10
133.99998855499814
20
20.000000044703693
42
0.41421356237309243
10
135.99998855499814
20
22.000000044703722
10
135.99999118159369
20
23.660242028769435
0
LWPOLYLINE
5
150
100
AcDbEntity
8
0
100
AcDbPolyline
90
7
70
1
43
0.0
10
88.165070044455888
20
22.410249288495269
10
83.900214643027326
20
22.447940343473455
10
81.669877610323368
20
21.160259191099541
10
81.669869987296138
20
16.160259191105347
10
85.999993194699712
20
13.660252589373048
10
90.330124025130459
20
16.160245987634937
10
90.330131648157646
20
21.160245987629128
0
LWPOLYLINE
5
151
100
AcDbEntity
8
0
100
AcDbPolyline
90
7
70
1
43
0.0
10
80.330124025130459
20
16.160246106844166
10
80.330131648157646
20
21.160246106838358
10
78.009619699225937
20
22.499999022369494
10
73.99038311383768
20
22.499999070282509
10
71.66987761032334
20
21.160259310308767
10
71.669869987296138
20
16.160259310314576
10
75.999993194699698
20
13.660252708582277
0
CIRCLE
5
152
100
AcDbEntity
8
0
100
AcDbCircle
10
80.999995308374736
20
81.000000670552652
30
0
40
4.0750000000000055
210
-1.6543612251060557e-24
220
1.9721513481692464e-32
230
1
0
LWPOLYLINE
5
153
100
AcDbEntity
8
0
100
AcDbPolyline
90
7
70
1
43
0.0
10
70.330126147227105
20
21.160259326279846
10
68.009620675654617
20
22.499999141578741
10
63.990384090266126
20
22.499999189492165
10
61.669872109392465
20
21.160246329285883
10
61.669879613210426
20
16.16024632929151
10
66.000010384036727
20
13.660252827791311
10
70.33013365104506
20
16.160259326285477
0
CIRCLE
5
154
100
AcDbEntity
8
0
100
AcDbCircle
10
21.00001161036079
20
89.000001236796294
30
0
40
2.5
210
5.8774690275467841e-40
220
4.9303806576313238e-32
230
1
0
CIRCLE
5
155
100
AcDbEntity
8
0
100
AcDbCircle
10
120.99999376461439
20
89.000000044704137
30
0
40
2.5
210
5.8774690275467841e-40
220
4.9303806576313238e-32
230
1
0
LWPOLYLINE
5
156
100
AcDbEntity
8
0
100
AcDbPolyline
90
4
70
1
43
0.0
10
51.250015798685958
20
53.250001117587146
42
-0.99999999999999989
10
51.25001576888365
20
50.750001117587146
10
44.750015768883735
20
50.750001195073146
42
-0.99999999999999989
10
44.750015798685865
20
53.250001195073146
0
LWPOLYLINE
5
157
100
AcDbEntity
8
0
100
AcDbPolyline
90
7
70
1
43
0.0
10
60.330126147227091
20
21.160259445489075
10
58.009620675653906
20
22.499999260788361
10
53.990384090267057
20
22.499999308701376
10
51.669872109392472
20
21.16024644849513
10
51.669879613210419
20
16.160246448500757
10
56.000010384036713
20
13.66025294700054
10
60.33013365104506
20
16.160259445494706
0
LWPOLYLINE
5
158
100
AcDbEntity
8
0
100
AcDbPolyline
90
8
70
1
43
0.0
10
88.000001936469388
20
26.000000214577081
42
-0.41421356237309437
10
86.000001912627539
20
24.000000238418945
10
56.000001912627546
20
24.00000059604665
42
-0.41421356237309959
10
54.000001936469403
20
26.000000619888493
10
54.000002484831874
20
72.000000619888482
42
-0.41421356237309115
10
56.000002508673717
20
74.000000596046661
10
86.000002508673731
20
74.000000238418949
42
-0.41421356237309892
10
88.000002484831867
20
72.000000214577099
0
LWPOLYLINE
5
159
100
AcDbEntity
8
0
100
AcDbPolyline
90
4
70
1
43
0.0
10
51.250015584109335
20
35.250001117587153
42
-0.99999999999999989
10
51.250015554307026
20
32.750001117587153
10
44.750015554307112
20
32.750001195073153
42
-0.99999999999999989
10
44.750015584109242
20
35.250001195073153
0
LWPOLYLINE
5
160
100
AcDbEntity
8
0
100
AcDbPolyline
90
4
70
1
43
0.0
10
90.74998847956428
20
32.750000646710994
42
-0.99999999999999989
10
90.749988509366574
20
35.250000646710994
10
97.249988509366545
20
35.250000569224994
42
-0.99999999999999989
10
97.24998847956428
20
32.750000569224994
0
LWPOLYLINE
5
161
100
AcDbEntity
8
0
100
AcDbPolyline
90
4
70
1
43
0.0
10
97.249988723943176
20
53.250000569224987
10
90.74998872394319
20
53.250000646710987
42
0.99999999999999989
10
90.749988694140896
20
50.750000646710987
10
97.24998869414091
20
50.750000569224987
42
0.99999999999999989
0
CIRCLE
5
162
100
AcDbEntity
8
0
100
AcDbCircle
10
111.51978907978935
20
10.476911103355498
30
1.7763568394002505e-14
40
1.5000000000000036
210
-1.6543612251060561e-24
220
-2.9582293094620766e-32
230
1
0
CIRCLE
5
163
100
AcDbEntity
8
0
100
AcDbCircle
10
130.25811922798931
20
29.215240358042479
30
3.2142423655296924e-38
40
1.5000000000000036
210
-1.6543612251060561e-24
220
-2.9582293094620766e-32
230
1
0
CIRCLE
5
164
100
AcDbEntity
8
0
100
AcDbCircle
10
116.85844559722078
20
23.87658447955712
30
1.8941071082585687e-39
40
6.0000000000000142
210
-1.6543612251060561e-24
220
-2.9582293094620766e-32
230
1
0
LWPOLYLINE
5
165
100
AcDbEntity
8
0
100
AcDbPolyline
90
6
70
1
43
0.0
10
96.669868327988638
20
42.141020411277864
10
100.99999313871814
20
39.641016586579816
10
105.33012236582968
20
42.14101276187985
10
105.33012678221168
20
47.14101276187791
10
101.00000197148218
20
49.641016586575958
10
96.669872744370679
20
47.141020411275932
0
LWPOLYLINE
5
166
100
AcDbEntity
8
0
100
AcDbPolyline
90
6
70
1
43
0.0
10
106.66986832798864
20
42.141020292068617
10
110.99999313871814
20
39.641016467370584
10
115.33012236582969
20
42.141012642670617
10
115.33012678221168
20
47.141012642668684
10
111.00000197148218
20
49.641016467366718
10
106.66987274437068
20
47.141020292066685
0
LWPOLYLINE
5
167
100
AcDbEntity
8
0
100
AcDbPolyline
90
6
70
1
43
0.0
10
116.66986832798864
20
42.141020172859385
10
120.99999313871814
20
39.641016348161358
10
125.33012236582968
20
42.141012523461391
10
125.33012678221168
20
47.141012523459452
10
121.00000197148219
20
49.641016348157486
10
116.66987274437069
20
47.141020172857459
0
LWPOLYLINE
5
168
100
AcDbEntity
8
0
100
AcDbPolyline
90
6
70
1
43
0.0
10
110.33012891277116
20
55.801274547937993
10
106.00000177258201
20
58.301274337897475
10
101.66987487492678
20
55.801274127856942
10
101.66987511746066
20
50.801274127856942
10
106.00000225764981
20
48.301274337897475
10
110.33012915530507
20
50.801274547937993
0
LWPOLYLINE
5
169
100
AcDbEntity
8
0
100
AcDbPolyline
90
6
70
1
43
0.0
10
116.66988024133403
20
64.461537102942458
10
116.66986995754823
20
59.461537102953052
10
120.99999183456836
20
56.961528196938588
10
125.33012399537425
20
59.461519290913571
10
125.33013427916005
20
64.46151929090297
10
121.00001240213996
20
66.961528196917428
0
LWPOLYLINE
5
170
100
AcDbEntity
8
0
100
AcDbPolyline
90
6
70
1
43
0.0
10
120.33012891277117
20
55.80127442872876
10
116.00000177258202
20
58.301274218688235
10
111.66987487492678
20
55.801274008647717
10
111.66987511746069
20
50.801274008647709
10
116.00000225764981
20
48.301274218688228
10
120.33012915530507
20
50.801274428728753
0
LWPOLYLINE
5
171
100
AcDbEntity
8
0
100
AcDbPolyline
90
6
70
1
43
0.0
10
126.66986832798864
20
42.141020053650152
10
130.99999313871814
20
39.641016228952111
10
135.33012236582968
20
42.141012404252145
10
135.33012678221166
20
47.141012404250205
10
131.00000197148216
20
49.641016228948246
10
126.66987274437068
20
47.141020053648226
0
LWPOLYLINE
5
172
100
AcDbEntity
8
0
100
AcDbPolyline
90
6
70
1
43
0.0
10
130.33012891277116
20
55.801274309519528
10
126.00000177258201
20
58.301274099479002
10
121.66987487492678
20
55.801273889438477
10
121.66987511746066
20
50.801273889438477
10
126.00000225764981
20
48.301274099478995
10
130.33012915530509
20
50.801274309519528
0
LWPOLYLINE
5
173
100
AcDbEntity
8
0
100
AcDbPolyline
90
6
70
1
43
0.0
10
101.6698729672987
20
38.480766878762054
10
101.66986789858539
20
33.480766878764626
10
105.99999238314867
20
30.980762489131436
10
110.33012193642529
20
33.480758099495674
10
110.33012700513859
20
38.48075809949308
10
106.00000252057528
20
40.980762489126263
0
LWPOLYLINE
5
174
100
AcDbEntity
8
0
100
AcDbPolyline
90
6
70
1
43
0.0
10
96.669869884058969
20
24.820513407763038
10
100.999992884986
20
22.320506448404206
10
105.33012392189215
20
24.820499489038927
10
105.33013195787129
20
29.820499489032478
10
101.00000895694423
20
32.320506448391313
10
96.669877920038033
20
29.820513407756589
0
LWPOLYLINE
5
175
100
AcDbEntity
8
0
100
AcDbPolyline
90
4
70
1
43
0.0
10
75.999990112221042
20
6.3397446328766875
10
73.679494294451501
20
4.9999992510384743
10
75.999991818209466
20
4.9999997019771918
10
78.32050775040662
20
4.9999996466518652
0
LWPOLYLINE
5
176
100
AcDbEntity
8
0
100
AcDbPolyline
90
6
70
1
43
0.0
10
105.99999319469971
20
13.660252350954572
10
108.75880578440024
20
15.253047934132578
42
0.22428300870972392
10
108.3452462724386
20
16.910564291778996
42
-0.16622762032913355
10
105.86242259622837
20
23.580817406254585
10
101.66987761032337
20
21.160258952681062
10
101.66986998729614
20
16.160258952686888
0
LWPOLYLINE
5
177
100
AcDbEntity
8
0
100
AcDbPolyline
90
5
70
1
43
0.0
10
116.00000252057528
20
40.980762369917031
10
111.66987296729866
20
38.480766759552807
10
111.66986799512743
20
33.576000053036729
42
-0.20591377085028198
10
120.33012278149778
20
34.314374357120954
10
120.33012700513862
20
38.480757980283855
0
LWPOLYLINE
5
178
100
AcDbEntity
8
0
100
AcDbPolyline
90
6
70
1
43
0.0
10
100.33012402513046
20
16.16024586842569
10
100.33013164815765
20
21.160245868419882
10
96.000008440754087
20
23.660252470152198
10
91.669877610323326
20
21.160259071890309
10
91.669869987296138
20
16.160259071896117
10
95.999993194699712
20
13.660252470163819
0
CIRCLE
5
179
100
AcDbEntity
8
0
100
AcDbCircle
10
94.902781011598719
20
64.570580260306627
30
0
40
1.4999999999999858
210
0
220
0
230
1
0
LWPOLYLINE
5
180
100
AcDbEntity
8
0
100
AcDbPolyline
90
9
70
1
43
0.0
10
80.999991901969736
20
6.9999995827679022
10
80.999991925811599
20
7.9999999793680736
42
-0.41421355633002038
10
82.999991932230529
20
9.9999999316843251
10
85.330127733410649
20
9.9999999242058095
10
85.330127247590099
20
12.499999452593549
10
80.999999742847265
20
14.999998611127381
10
76.66987320974583
20
12.499997769661356
10
76.669874181387186
20
7.4999977696614444
10
80.245824623991595
20
5.4354227455592818
42
0.22843633680801231
0
LWPOLYLINE
5
181
100
AcDbEntity
8
0
100
AcDbPolyline
90
7
70
1
43
0.0
10
121.6698729672987
20
38.480766640343575
10
121.66986819028423
20
33.768511118537099
42
-0.058333379889289751
10
123.82446619093972
20
32.389783472173626
42
0.39828623493945697
10
126.56733077213816
20
32.588381412631776
42
-0.21438070319923858
10
130.33012268047594
20
34.21472188144368
10
130.33012700513859
20
38.480757861074622
10
126.00000252057528
20
40.980762250707805
0
LWPOLYLINE
5
182
100
AcDbEntity
8
0
100
AcDbPolyline
90
5
70
1
43
0.0
10
131.66987296729869
20
38.480766521134349
10
131.6698684369145
20
34.011797891430227
42
-0.18515375969424461
10
134.51489841707004
20
31.838183539929762
10
135.99999238314868
20
30.980762131503738
10
135.99999224146023
20
40.980756196862615
0
LWPOLYLINE
5
183
100
AcDbEntity
8
0
100
AcDbPolyline
90
5
70
1
43
0.0
10
90.999999742847265
20
14.999998491918152
10
86.66987320974583
20
12.499997650452109
10
86.669873695566068
20
9.9999999199059602
10
95.330127733410649
20
9.9999998921111448
10
95.330127247590099
20
12.49999933338432
0
LWPOLYLINE
5
184
100
AcDbEntity
8
0
100
AcDbPolyline
90
48
70
1
43
0.0
10
110.99998812286445
20
70.000000864267534
10
110.99998812286445
20
80.000000938773326
42
-0.30670135370168555
10
114.14342363699221
20
84.642539932664306
42
0.39601229266633392
10
115.30059680190421
20
87.124666651855364
42
-1.381784016851199
10
126.69938975625611
20
87.12466370064692
42
0.39601200458840263
10
127.85655978612706
20
84.642537121989562
42
-0.30670093147136956
10
130.99998827187602
20
80.000001087784966
10
130.99998842088769
20
75.000000938773368
10
130.99998842088769
20
70.000000864267562
10
135.99998848049231
20
70.000000864267562
10
135.99998842088772
20
60.000000789761756
10
140.99998855499814
20
60.000000789761728
10
140.99998855499814
20
15.000000044703661
10
135.99998854009695
20
15.000000044703697
10
135.99998848049236
20
5.0000008642675624
10
130.99998840598653
20
5.0000007954929409
10
130.99998840598653
20
-1.788137393710087e-07
10
110.9999881079633
20
-1.7881375713457714e-07
10
110.9999881079633
20
5.0000007954929586
10
85.999989743513382
20
5.0000002701735085
10
85.999989752453914
20
-1.7881377489814554e-07
10
56.00001358540468
20
1.7881364611227468e-07
10
56.000013704061011
20
5.0000006854331751
10
31.000015264296724
20
5.0000017491665076
10
31.000015145087477
20
7.7485979188551823e-07
10
11.000014847064259
20
1.2516967617948183e-06
10
11.000014966273511
20
5.000002226003442
10
6.0000148917677079
20
5.0000024139872927
10
6.000015070581556
20
15.000001594423427
10
1.0000150556803704
20
15.000001713632622
10
1.0000161285635023
20
60.00000245869068
10
6.0000162626739231
20
60.000002339481469
10
6.0000164414877988
20
70.000002413987275
10
11.000016501092421
20
70.000002294778042
10
11.000016620301681
20
75.000002369283834
10
11.000016888522509
20
80.000002518295418
42
-0.30670093147137062
10
14.143445484958171
20
84.642538477554893
42
0.39601200458839614
10
15.300615574007587
20
87.124665028623156
42
-1.3817840168512037
10
26.699408528359548
20
87.124667708063356
42
0.39601229266633825
10
27.856581634093054
20
84.642540961283146
42
-0.30670135370168605
10
31.000017037534118
20
80.000001892446875
10
31.000016799115642
20
70.000001817941069
10
51.500015699457563
20
70.00000132918322
10
51.500016181703565
20
90.000001334349932
42
-0.4142135626559364
10
56.500016296384501
20
95.000001203079435
10
85.499989221641727
20
95.000000857372981
42
-0.41421356265593745
10
90.499989217113438
20
90.000000869434231
10
90.499989222522515
20
70.000000864267534
0
ENDSEC
0
SECTION
2
OBJECTS
0
DICTIONARY
5
C
100
AcDbDictionary
3
ACAD_GROUP
350
D
3
ACAD_MLINESTYLE
350
17
0
DICTIONARY
5
D
100
AcDbDictionary
0
DICTIONARY
5
1A
330
C
100
AcDbDictionary
0
DICTIONARY
5
17
100
AcDbDictionary
0
ENDSEC
0
EOF
