0
SECTION
2
HEADER
9
$INSUNITS
70
4
9
$ACADVER
1
AC1014
9
$HANDSEED
5
FFFF
0
ENDSEC
0
SECTION
2
TABLES
0
TABLE
2
VPORT
5
8
100
AcDbSymbolTable
0
ENDTAB
0
TABLE
2
LTYPE
5
5
100
AcDbSymbolTable
0
LTYPE
5
14
100
AcDbSymbolTableRecord
100
AcDbLinetypeTableRecord
2
BYBLOCK
70
0
0
LTYPE
5
15
100
AcDbSymbolTableRecord
100
AcDbLinetypeTableRecord
2
BYLAYER
70
0
0
ENDTAB
0
TABLE
2
LAYER
5
2
100
AcDbSymbolTable
70
2
0
LAYER
5
50
100
AcDbSymbolTableRecord
100
AcDbLayerTableRecord
2
0
70
0
6
CONTINUOUS
0
ENDTAB
0
TABLE
2
STYLE
5
3
100
AcDbSymbolTable
70
1
0
STYLE
5
11
100
AcDbSymbolTableRecord
100
AcDbTextStyleTableRecord
2
STANDARD
70
0
0
ENDTAB
0
TABLE
2
VIEW
5
6
100
AcDbSymbolTable
70
0
0
ENDTAB
0
TABLE
2
UCS
5
7
100
AcDbSymbolTable
70
0
0
ENDTAB
0
TABLE
2
APPID
5
9
100
AcDbSymbolTable
70
2
0
APPID
5
12
100
AcDbSymbolTableRecord
100
AcDbRegAppTableRecord
2
ACAD
70
0
0
ENDTAB
0
TABLE
2
DIMSTYLE
5
A
100
AcDbSymbolTable
70
1
0
ENDTAB
0
TABLE
2
BLOCK_RECORD
5
1
100
AcDbSymbolTable
70
1
0
BLOCK_RECORD
5
1F
100
AcDbSymbolTableRecord
100
AcDbBlockTableRecord
2
*MODEL_SPACE
0
BLOCK_RECORD
5
1B
100
AcDbSymbolTableRecord
100
AcDbBlockTableRecord
2
*PAPER_SPACE
0
ENDTAB
0
ENDSEC
0
SECTION
2
BLOCKS
0
BLOCK
5
20
100
AcDbEntity
100
AcDbBlockBegin
2
*MODEL_SPACE
0
ENDBLK
5
21
100
AcDbEntity
100
AcDbBlockEnd
0
BLOCK
5
1C
100
AcDbEntity
100
AcDbBlockBegin
2
*PAPER_SPACE
0
ENDBLK
5
1D
100
AcDbEntity
100
AcDbBlockEnd
0
ENDSEC
0
SECTION
2
ENTITIES
0
CIRCLE
5
100
100
AcDbEntity
8
0
100
AcDbCircle
10
56.900003501772858
20
-89.10000193715095
30
0
40
1.25
210
0
220
-0
230
1
0
LWPOLYLINE
5
101
100
AcDbEntity
8
0
100
AcDbPolyline
90
16
70
1
43
0.0
10
80.100003501772861
20
-60.900001937150954
10
80.100003501772861
20
-58.500001654028893
42
0.4142135623730992
10
77.600003501772818
20
-56.000001654028893
10
60.000003218650697
20
-56.000001654029141
42
0.41421356237309342
10
52.000003218650797
20
-64.000001654029134
10
52.000003218650797
20
-81.60000193715095
42
0.41421356237309398
10
54.500003218650797
20
-84.10000193715095
10
56.900003501772858
20
-84.10000193715095
42
-0.41421356237309503
10
61.900003501772858
20
-89.10000193715095
10
61.900003501772858
20
-91.500002220273018
42
0.41421356237309398
10
64.400003501772858
20
-94.000002220273018
10
82.000003784894886
20
-94.000002220273018
42
0.4142135623730937
10
90.000003784894886
20
-86.000002220273018
10
90.000003784894886
20
-68.400001937150961
42
0.41421356237309814
10
87.500003784894915
20
-65.900001937150989
10
85.100003501772861
20
-65.900001937150961
42
-0.41421356237309503
0
CIRCLE
5
102
100
AcDbEntity
8
0
100
AcDbCircle
10
85.100003501772861
20
-60.900001937150954
30
0
40
1.25
210
0
220
-0
230
1
0
LWPOLYLINE
5
103
100
AcDbEntity
8
0
100
AcDbPolyline
90
12
70
1
43
0.0
10
132.99999865889552
20
-135.0000028312206
42
-0.41421356237310025
10
130.99999865889549
20
-137.00000283122063
10
110.00000452995297
20
-137.00000283122063
42
0.41421356237309503
10
108.00000452995299
20
-139.00000283122063
10
108.00000452995299
20
-140.00000067055225
42
-0.41421356237309503
10
106.000004529953
20
-142.00000067055225
10
95.500001341101353
20
-142.00000067055225
42
-0.41421356237309503
10
93.500001341101353
20
-140.00000067055225
10
93.500001341101353
20
-129.00000047683716
42
-0.41421356237309503
10
95.500001341101353
20
-127.00000047683716
10
130.99999865889549
20
-127.00000047683709
42
-0.41421356237308982
10
132.99999865889555
20
-129.0000004768371
0
LWPOLYLINE
5
104
100
AcDbEntity
8
0
100
AcDbPolyline
90
12
70
1
43
0.0
10
131.00000201165676
20
-5.0000008940696716
10
128.99789513119885
20
-5.0000008940696983
42
-0.41424618846884098
10
126.99789514360674
20
-2.9997781117229039
10
127.00000149880303
20
15.909755916585386
42
0.41424619177555821
10
123.00000147791572
20
19.910201481823755
10
119.00000154876956
20
19.910201436901293
42
0.41421356266561354
10
115.00000157672969
20
15.910201389601148
10
115.00000176407106
20
-3.0000008734029961
42
-0.41421356539965842
10
113.00000176407107
20
-5.0000008940696539
10
111.00000171363351
20
-5.0000008940696716
10
111.00000171363351
20
-10.000000968575478
10
131.00000201165676
20
-10.000000894069441
0
LWPOLYLINE
5
105
100
AcDbEntity
8
0
100
AcDbPolyline
90
12
70
1
43
0.0
10
22.999998655207996
20
19.910201436893349
10
18.99999872606184
20
19.910201481815264
42
0.41388849038435122
10
15.000001144576771
20
15.914641496461144
10
15.002104863141202
20
-2.9998504435516877
42
-0.41423559551435629
10
13.002104868800295
20
-5.0000008940792107
10
10.999997988342365
20
-5.0000008940795482
10
10.999997988343182
20
-10.000000894079308
10
30.999998286366441
20
-10.000000968582059
10
30.999998286365624
20
-5.0000008940762442
10
28.999998235928071
20
-5.0000008940765319
42
-0.41421356539966103
10
26.999998235927762
20
-3.0000008734102401
10
26.999998392259172
20
15.911572528999365
42
0.41411316686880228
0
LWPOLYLINE
5
106
100
AcDbEntity
8
0
100
AcDbPolyline
90
12
70
1
43
0.0
10
108.00000452995306
20
-10.999998807907101
10
108.00000452995303
20
-10.000000968575478
42
0.41421356237309115
10
106.000004529953
20
-8.0000009685754492
10
95.500001341101353
20
-8.0000009685754776
42
0.4142135623730957
10
93.500001341101353
20
-10.000000968575478
10
93.500001341101353
20
-21.000001162290573
42
0.4142135623730957
10
95.500001341101353
20
-23.000001162290573
10
130.99999865889549
20
-23.000001162290577
42
0.41421356237308982
10
132.99999865889555
20
-21.000001162290616
10
132.99999865889555
20
-14.999998807907147
42
0.41421356237309925
10
130.99999865889549
20
-12.999998807907094
10
110.00000452995297
20
-12.999998807907021
42
-0.4142135623730947
0
LWPOLYLINE
5
107
100
AcDbEntity
8
0
100
AcDbPolyline
90
12
70
1
43
0.0
10
30.99999828636566
20
-145.00000074505147
10
30.999998286366477
20
-140.00000067054566
10
10.999997988343218
20
-140.00000074504842
10
10.9999979883424
20
-145.00000074504817
10
13.00210486880033
20
-145.00000074504845
42
-0.41423559551435796
10
15.002104863141277
20
-147.00015119557605
10
15.000670081090419
20
-166.07329198647224
42
0.40885678298658285
10
18.99999862406986
20
-170.00000098572772
10
22.999998553216013
20
-170.00000094080582
42
0.41415040561259409
10
26.999998432266956
20
-166.00086343942843
10
26.999998235927762
20
-147.00000076571746
42
-0.41421356539966114
10
28.999998235928111
20
-145.00000074505115
0
ARC
5
108
100
AcDbEntity
8
0
100
AcDbCircle
10
46.50005957413984
20
-20.999960392772287
30
0
40
1.9999999999999964
210
0
220
0
230
1
100
AcDbArc
50
269.89082387198715
51
359.99989618309053
0
LINE
5
109
100
AcDbEntity
8
0
100
AcDbLine
10
46.496248610649218
20
-22.999956761908305
30
0
11
11.000058632445402
21
-22.999892443488772
31
0
0
ARC
5
110
100
AcDbEntity
8
0
100
AcDbCircle
10
11.00006225640726
20
-20.999892443492104
30
0
40
2.0000000000000409
210
0
220
0
230
1
100
AcDbArc
50
179.99989618309056
51
269.99989618114023
0
LINE
5
111
100
AcDbEntity
8
0
100
AcDbLine
10
9.0000622564105015
20
-20.99988881953022
30
0
11
9.0000731283003788
21
-14.999886465156607
31
0
0
ARC
5
112
100
AcDbEntity
8
0
100
AcDbCircle
10
11.000073128297139
20
-14.999890089118457
30
0
40
2.000000000000028
210
0
220
-0
230
1
100
AcDbArc
50
89.99989618113915
51
179.99989618309056
0
LINE
5
113
100
AcDbEntity
8
0
100
AcDbLine
10
11.000076752259034
20
-12.999890089121713
30
0
11
32.000070881167062
21
-12.999928140710724
31
0
0
ARC
5
114
100
AcDbEntity
8
0
100
AcDbCircle
10
32.000074505128957
20
-10.999928140714006
30
0
40
2.0000000000000009
210
0
220
0
230
1
100
AcDbArc
50
269.99989618113915
51
359.99989618309053
0
LINE
5
115
100
AcDbEntity
8
0
100
AcDbLine
10
34.000074505125674
20
-10.999931764675877
30
0
11
34.000076317102632
21
-9.9999339253458963
31
0
0
ARC
5
116
100
AcDbEntity
8
0
100
AcDbCircle
10
36.000076317099349
20
-9.9999375493077647
30
0
40
1.9999999999999947
210
0
220
-0
230
1
100
AcDbArc
50
89.999896181138951
51
179.99989618309056
0
LINE
5
117
100
AcDbEntity
8
0
100
AcDbLine
10
36.000079941061252
20
-7.9999375493110536
30
0
11
46.500083129895629
21
-7.9999583870975854
31
0
0
ARC
5
118
100
AcDbEntity
8
0
100
AcDbCircle
10
46.500079505930508
20
-9.9999601990752325
30
0
40
1.9999999999999987
210
0
220
0
230
1
100
AcDbArc
50
-0.00010381690941464522
51
89.999896181140812
0
LINE
5
119
100
AcDbEntity
8
0
100
AcDbLine
10
48.500079505927225
20
-9.9999638230371115
30
0
11
48.500059574136557
21
-20.99996401673415
31
0
0
CIRCLE
5
120
100
AcDbEntity
8
0
100
AcDbCircle
10
96.000003874301882
20
-55.000001639127731
30
0
40
1.5000000000000213
210
0
220
-0
230
1
0
LWPOLYLINE
5
121
100
AcDbEntity
8
0
100
AcDbPolyline
90
12
70
1
43
0.0
10
119.00000144677765
20
-170.00000094081369
10
123.0000013759238
20
-170.00000098573622
42
0.41963495130461748
10
126.99931884697243
20
-165.92610828372315
10
126.99789513685766
20
-147.00015119558518
42
-0.41423559551435274
10
128.9978951311989
20
-145.00000074505797
10
131.00000201165685
20
-145.00000074505797
10
131.00000201165685
20
-140.0000007450582
10
111.00000171363355
20
-140.0000006705522
10
111.00000171363355
20
-145.000000745058
10
113.0000017640711
20
-145.00000074505797
42
-0.41421356539965853
10
115.00000176407113
20
-147.00000076572468
10
115.00000156772884
20
-166.00086344618541
42
0.41415040511836854
0
LWPOLYLINE
5
122
100
AcDbEntity
8
0
100
AcDbPolyline
90
16
70
1
43
0.0
10
126.00000432133672
20
-102.00000236928463
42
-0.41421356237309503
10
124.00000432133673
20
-104.00000236928463
10
96.000003874301882
20
-104.00000236928462
42
-0.41421356237309764
10
92.00000387430191
20
-100.00000236928463
10
92.00000387430191
20
-59.000001639127731
42
-0.61803398874987947
10
93.600003874301905
20
-58.200001639127727
42
1.1646479451087646
10
97.333337207635225
20
-51.228765472799523
42
-0.31783724519578416
10
96.000003874301825
20
-49.343147389635348
10
96.000003874301882
20
-48.000001490116134
42
-0.4142135623730937
10
98.000003874301882
20
-46.000001490116141
10
126.00000432133683
20
-46.000001490116212
42
-0.41421356237308721
10
130.00000432133669
20
-50.000001490116126
10
130.00000432133677
20
-91.000002235174179
42
-0.61803398874989735
10
128.40000432133672
20
-91.80000223517419
42
1.1646479451087519
10
124.66667098800336
20
-98.771238401502359
42
-0.31783724519579365
10
126.00000432133676
20
-100.65685648466655
0
CIRCLE
5
123
100
AcDbEntity
8
0
100
AcDbCircle
10
126.00000432133676
20
-95.000002235174179
30
0
40
1.4999999999999858
210
0
220
-0
230
1
0
ARC
5
124
100
AcDbEntity
8
0
100
AcDbCircle
10
46.500059574139854
20
-129.00004124635541
30
0
40
1.9999999999999987
210
0
220
-0
230
1
100
AcDbArc
50
0.00010381690943943504
51
90.109176128618813
0
LINE
5
125
100
AcDbEntity
8
0
100
AcDbLine
10
48.500059574136571
20
-129.00003762239356
30
0
11
48.500079505927225
21
-140.00003781609061
31
0
0
ARC
5
126
100
AcDbEntity
8
0
100
AcDbCircle
10
46.500079505930501
20
-140.00004144005248
30
0
40
2.0000018119809373
210
0
220
0
230
1
100
AcDbArc
50
-89.999896181140372
51
0.00010381690943943504
0
LINE
5
127
100
AcDbEntity
8
0
100
AcDbLine
10
46.500083129895636
20
-142.00004325203014
30
0
11
36.000079941061252
21
-142.00006408981668
31
0
0
ARC
5
128
100
AcDbEntity
8
0
100
AcDbCircle
10
36.000076317099371
20
-140.00006408981994
30
0
40
2.0000000000000209
210
0
220
0
230
1
100
AcDbArc
50
180.00010381690942
51
270.00010381886045
0
LINE
5
129
100
AcDbEntity
8
0
100
AcDbLine
10
34.000076317102632
20
-140.00006771378185
30
0
11
34.000074505125575
21
-139.00006987445184
31
0
0
ARC
5
130
100
AcDbEntity
8
0
100
AcDbCircle
10
32.000074505128957
20
-139.00007349841371
30
0
40
1.999999999999901
210
0
220
-0
230
1
100
AcDbArc
50
0.00010381690943943504
51
90.00010381886085
0
LINE
5
131
100
AcDbEntity
8
0
100
AcDbLine
10
32.000070881167062
20
-137.00007349841709
30
0
11
11.000076752259034
21
-137.00011155000601
31
0
0
ARC
5
132
100
AcDbEntity
8
0
100
AcDbCircle
10
11.00007312829714
20
-135.00011155000925
30
0
40
2.0000000000000453
210
0
220
0
230
1
100
AcDbArc
50
180.00010381690942
51
270.00010381886079
0
LINE
5
133
100
AcDbEntity
8
0
100
AcDbLine
10
9.0000731283003788
20
-135.00011517397112
30
0
11
9.0000622564105015
21
-129.00011281959752
31
0
0
ARC
5
134
100
AcDbEntity
8
0
100
AcDbCircle
10
11.000062256407269
20
-129.00010919563562
30
0
40
1.9999999999999543
210
0
220
0
230
1
100
AcDbArc
50
90.00010381886004
51
180.00010381690942
0
LINE
5
135
100
AcDbEntity
8
0
100
AcDbLine
10
11.000058632445402
20
-127.00010919563896
30
0
11
46.496248610628079
21
-127.00004487721942
31
0
0
ARC
5
136
100
AcDbEntity
8
0
100
AcDbCircle
10
162.00001692720355
20
-123.00006401575544
30
0
40
3.9999896589294641
210
0
220
-0
230
1
100
AcDbArc
50
0.00091278265773879637
51
89.999927002355051
0
LINE
5
137
100
AcDbEntity
8
0
100
AcDbLine
10
166.00000658562544
20
-123.00000029164998
30
0
11
166.00000759978491
21
-127.0000028247353
31
0
0
ARC
5
138
100
AcDbEntity
8
0
100
AcDbCircle
10
161.99999192502582
20
-127.00008514680833
30
0
40
4.0000156756062522
210
0
220
0
230
1
100
AcDbArc
50
-90.000072997647266
51
0.0011791720632143899
0
LINE
5
139
100
AcDbEntity
8
0
100
AcDbLine
10
161.99998682880869
20
-131.00010082241135
30
0
11
143.00000502161055
21
-131.00006514905536
31
0
0
ARC
5
140
100
AcDbEntity
8
0
100
AcDbCircle
10
143.00000247351207
20
-133.00006514905368
30
0
40
1.999999999999964
210
0
220
-0
230
1
100
AcDbArc
50
89.99992700235569
51
179.99992700360147
0
LINE
5
141
100
AcDbEntity
8
0
100
AcDbLine
10
141.00000247351372
20
-133.00006260095523
30
0
11
140.99999992549419
21
-135.00000059604645
31
0
0
LINE
5
142
100
AcDbEntity
8
0
100
AcDbLine
10
140.99999992549419
20
-135.00000059604645
30
0
11
135.99999985098839
21
-135.00000059604645
31
0
0
LINE
5
143
100
AcDbEntity
8
0
100
AcDbLine
10
135.99999985098839
20
-135.00000059604645
30
0
11
135.99999985098839
21
-126.00010386407138
31
0
0
ARC
5
144
100
AcDbEntity
8
0
100
AcDbCircle
10
133.9999998509883
20
-126.00010386407146
30
0
40
2.0000000000000995
210
0
220
-0
230
1
100
AcDbArc
50
0
51
89.999948090560522
0
LINE
5
145
100
AcDbEntity
8
0
100
AcDbLine
10
134.00000166296957
20
-124.00010386407217
30
0
11
70.999974072310181
21
-124.00004678663974
31
0
0
LINE
5
146
100
AcDbEntity
8
0
100
AcDbLine
10
70.999974072310181
20
-124.00004678663974
30
0
11
7.9999983370323946
21
-124.00010386406433
31
0
0
ARC
5
147
100
AcDbEntity
8
0
100
AcDbCircle
10
8.0000001490134309
20
-126.00010386406356
30
0
40
2.0000000000000675
210
0
220
0
230
1
100
AcDbArc
50
90.000051909432969
51
180
0
LINE
5
148
100
AcDbEntity
8
0
100
AcDbLine
10
6.0000001490133634
20
-126.00010386406325
30
0
11
6.0000001490121946
21
-135.00000059603832
31
0
0
LINE
5
149
100
AcDbEntity
8
0
100
AcDbLine
10
6.0000001490121946
20
-135.00000059603832
30
0
11
1.0000000745063886
21
-135.00000059603769
31
0
0
LINE
5
150
100
AcDbEntity
8
0
100
AcDbLine
10
1.0000000745063886
20
-135.00000059603769
30
0
11
0.99999752648706419
21
-133.00006260094648
31
0
0
ARC
5
151
100
AcDbEntity
8
0
100
AcDbCircle
10
-1.0000024735112589
20
-133.0000651490447
30
0
40
1.9999999999999463
210
0
220
-0
230
1
100
AcDbArc
50
7.299639853675914e-05
51
90.000072997636167
0
LINE
5
152
100
AcDbEntity
8
0
100
AcDbLine
10
-1.0000050216094536
20
-131.00006514904638
30
0
11
-19.999986828807579
21
-131.00010082239885
31
0
0
ARC
5
153
100
AcDbEntity
8
0
100
AcDbCircle
10
-19.999991925024165
20
-127.0000851467958
30
0
40
4.0000156756062779
210
0
220
0
230
1
100
AcDbArc
50
179.99882082793681
51
270.00007299763945
0
LINE
5
154
100
AcDbEntity
8
0
100
AcDbLine
10
-24.000007599783331
20
-127.0000028247223
30
0
11
-24.000006585623268
21
-123.00000029163698
31
0
0
ARC
5
155
100
AcDbEntity
8
0
100
AcDbCircle
10
-20.000016927201408
20
-123.00006401574295
30
0
40
3.9999896589294393
210
0
220
0
230
1
100
AcDbArc
50
90.00007299763854
51
179.99908721734226
0
LINE
5
156
100
AcDbEntity
8
0
100
AcDbLine
10
-20.000022023384787
20
-119.00007435681675
30
0
11
-1.0000203102327987
21
-119.0000386834389
31
0
0
ARC
5
157
100
AcDbEntity
8
0
100
AcDbCircle
10
-1.0000228583310289
20
-117.00003868344054
30
0
40
1.9999999999999996
210
-0
220
0
230
1
100
AcDbArc
50
-89.999927002362824
51
7.299639853675914e-05
0
LINE
5
158
100
AcDbEntity
8
0
100
AcDbLine
10
0.99997714166734752
20
-117.0000361353422
30
0
11
0.99997459352358931
21
-115.00000029801447
31
0
0
LINE
5
159
100
AcDbEntity
8
0
100
AcDbLine
10
0.99997459352358931
20
-115.00000029801447
30
0
11
3.999998337032693
21
-115.00000029801484
31
0
0
ARC
5
160
100
AcDbEntity
8
0
100
AcDbCircle
10
3.9999983370329417
20
-113.00000029801483
30
0
40
2.0000000000000107
210
0
220
0
230
1
100
AcDbArc
50
-90.000000000007134
51
5.1904943952083148e-05
0
LINE
5
161
100
AcDbEntity
8
0
100
AcDbLine
10
5.9999983370321308
20
-112.99999848603392
30
0
11
5.9999953925658644
21
-109.00000213979882
31
0
0
ARC
5
162
100
AcDbEntity
8
0
100
AcDbCircle
10
7.9999956190625046
20
-109.00000032781769
30
0
40
2.0000000000000284
210
0
220
-0
230
1
100
AcDbArc
50
89.999999999992724
51
180.00005190494394
0
LINE
5
163
100
AcDbEntity
8
0
100
AcDbLine
10
7.9999956190627586
20
-107.00000032781766
30
0
11
45.000006247315945
21
-107.000000327823
31
0
0
ARC
5
164
100
AcDbEntity
8
0
100
AcDbCircle
10
45.000006247316193
20
-105.00000032782374
30
0
40
1.9999999999992646
210
0
220
0
230
1
100
AcDbArc
50
269.99999999999284
51
360
0
LINE
5
165
100
AcDbEntity
8
0
100
AcDbLine
10
47.000006247315454
20
-105.00000032782398
30
0
11
47.000006247316364
21
-99.000000327823926
31
0
0
ARC
5
166
100
AcDbEntity
8
0
100
AcDbCircle
10
49.000006247316897
20
-99.000000327824154
30
0
40
2.0000000000005258
210
0
220
-0
230
1
100
AcDbArc
50
89.999999999995111
51
180
0
LINE
5
167
100
AcDbEntity
8
0
100
AcDbLine
10
49.000006247317067
20
-97.000000327823628
30
0
11
86.999993752688283
21
-97.000000327825575
31
0
0
ARC
5
168
100
AcDbEntity
8
0
100
AcDbCircle
10
86.999993752688198
20
-99.000000327825447
30
0
40
1.9999999999999574
210
0
220
0
230
1
100
AcDbArc
50
0
51
89.999999999997556
0
LINE
5
169
100
AcDbEntity
8
0
100
AcDbLine
10
88.999993752688169
20
-99.000000327825489
30
0
11
88.999993752688169
21
-105.00000032782555
31
0
0
ARC
5
170
100
AcDbEntity
8
0
100
AcDbCircle
10
90.999993752688155
20
-105.00000032782555
30
0
40
1.9999999999999929
210
0
220
0
230
1
100
AcDbArc
50
180
51
270
0
LINE
5
171
100
AcDbEntity
8
0
100
AcDbLine
10
90.999993752688155
20
-107.00000032782555
30
0
11
134.00000438094133
21
-107.00000010132811
31
0
0
ARC
5
172
100
AcDbEntity
8
0
100
AcDbCircle
10
134.00000438094133
20
-109.00000032782557
30
0
40
2.0000004529948652
210
0
220
0
230
1
100
AcDbArc
50
-5.1904943960176338e-05
51
90
0
LINE
5
173
100
AcDbEntity
8
0
100
AcDbLine
10
136.00000483393535
20
-109.00000213980718
30
0
11
136.00000120997629
21
-112.9999984860416
31
0
0
ARC
5
174
100
AcDbEntity
8
0
100
AcDbCircle
10
138.00000166297039
20
-113.00000029802321
30
0
40
2.0000004529949358
210
0
220
0
230
1
100
AcDbArc
50
179.99994809505606
51
270
0
LINE
5
175
100
AcDbEntity
8
0
100
AcDbLine
10
138.00000166297039
20
-115.00000075101815
30
0
11
141.00002540647949
21
-115.00000029802322
31
0
0
LINE
5
176
100
AcDbEntity
8
0
100
AcDbLine
10
141.00002540647949
20
-115.00000029802322
30
0
11
141.00002285833546
21
-117.00003613535095
31
0
0
ARC
5
177
100
AcDbEntity
8
0
100
AcDbCircle
10
143.00002285833386
20
-117.00003868344953
30
0
40
2.0000000000000173
210
0
220
0
230
1
100
AcDbArc
50
179.99992700360147
51
269.99992700235572
0
LINE
5
178
100
AcDbEntity
8
0
100
AcDbLine
10
143.00002031023539
20
-119.00003868344794
30
0
11
162.00002202338737
21
-119.00007435682922
31
0
0
LWPOLYLINE
5
179
100
AcDbEntity
8
0
100
AcDbPolyline
90
8
70
1
43
0.0
10
53.50000134110136
20
-23.000001162290573
10
88.499998658898733
20
-23.000001162290573
42
0.41421356237315488
10
90.49999865891823
20
-21.0000011622658
10
90.499998658916923
20
-17.999998807812652
42
0.41421356237316365
10
88.499998658896544
20
-15.999998807793601
10
53.500001341099335
20
-15.999998807802683
42
0.41421356237312301
10
51.500001341100052
20
-17.999998807803212
10
51.500001341101367
20
-21.000001162290573
42
0.41421356237309437
0
LWPOLYLINE
5
180
100
AcDbEntity
8
0
100
AcDbPolyline
90
8
70
1
43
0.0
10
51.500001341101296
20
-129.00000047683716
42
-0.41421356237312101
10
53.500001341101502
20
-127.00000047683709
10
88.499998658898733
20
-127.00000047684199
42
-0.41421356237316009
10
90.49999865891823
20
-129.00000047686194
10
90.499998658922237
20
-132.0000028313151
42
-0.41421356237316265
10
88.499998658896544
20
-134.00000283133943
10
53.500001341099193
20
-134.00000283132539
42
-0.41421356237309631
10
51.500001341100052
20
-132.00000283132451
0
ARC
5
181
100
AcDbEntity
8
0
100
AcDbCircle
10
162.00001692720346
20
-26.99993762337224
30
0
40
3.9999896589294703
210
0
220
0
230
1
100
AcDbArc
50
270.0000729976461
51
359.99908721734221
0
LINE
5
182
100
AcDbEntity
8
0
100
AcDbLine
10
162.00002202338737
20
-30.999927282298465
30
0
11
143.00002031023539
21
-30.999962955679816
31
0
0
ARC
5
183
100
AcDbEntity
8
0
100
AcDbCircle
10
143.00002285833386
20
-32.9999629556782
30
0
40
2.000000000000004
210
0
220
0
230
1
100
AcDbArc
50
90.00007299764431
51
180.00007299639853
0
LINE
5
184
100
AcDbEntity
8
0
100
AcDbLine
10
141.00002285833548
20
-32.999965503776778
30
0
11
141.00002540647949
21
-35.000001341104507
31
0
0
LINE
5
185
100
AcDbEntity
8
0
100
AcDbLine
10
141.00002540647949
20
-35.000001341104507
30
0
11
138.00000166297039
21
-35.000001341104507
31
0
0
ARC
5
186
100
AcDbEntity
8
0
100
AcDbCircle
10
138.00000166297039
20
-37.000001341104522
30
0
40
2.0000000000000107
210
0
220
-0
230
1
100
AcDbArc
50
90
51
180.00005190494394
0
LINE
5
187
100
AcDbEntity
8
0
100
AcDbLine
10
136.00000166297119
20
-37.000003153085714
30
0
11
136.00000483393535
21
-40.999999499320552
31
0
0
ARC
5
188
100
AcDbEntity
8
0
100
AcDbCircle
10
134.0000048339362
20
-41.000001311301773
30
0
40
2.0000000000002061
210
0
220
0
230
1
100
AcDbArc
50
-90
51
5.1904943952083148e-05
0
LINE
5
189
100
AcDbEntity
8
0
100
AcDbLine
10
134.0000048339362
20
-43.000001311301979
30
0
11
90.999993752688155
21
-43.000001311302185
31
0
0
ARC
5
190
100
AcDbEntity
8
0
100
AcDbCircle
10
90.999993752688155
20
-45.000001311302178
30
0
40
1.9999999999999929
210
0
220
-0
230
1
100
AcDbArc
50
90
51
180
0
LINE
5
191
100
AcDbEntity
8
0
100
AcDbLine
10
88.999993752688169
20
-45.000001311302185
30
0
11
88.999993752688169
21
-51.000001311302242
31
0
0
ARC
5
192
100
AcDbEntity
8
0
100
AcDbCircle
10
86.999993752688226
20
-51.000001311302306
30
0
40
1.9999999999999396
210
0
220
0
230
1
100
AcDbArc
50
-90.00000000000081
51
0
0
LINE
5
193
100
AcDbEntity
8
0
100
AcDbLine
10
86.999993752688198
20
-53.000001311302249
30
0
11
49.000006247317067
21
-53.000001311304068
31
0
0
ARC
5
194
100
AcDbEntity
8
0
100
AcDbCircle
10
49.000006247316904
20
-51.000001311303585
30
0
40
1.9999999999999751
210
0
220
0
230
1
100
AcDbArc
50
180
51
270.00000000000472
0
LINE
5
195
100
AcDbEntity
8
0
100
AcDbLine
10
47.000006247316932
20
-51.000001311303805
30
0
11
47.000006247316186
21
-45.000001311303748
31
0
0
ARC
5
196
100
AcDbEntity
8
0
100
AcDbCircle
10
45.000006247316193
20
-45.00000131130399
30
0
40
1.9999999999999929
210
0
220
-0
230
1
100
AcDbArc
50
0
51
90.000000000007134
0
LINE
5
197
100
AcDbEntity
8
0
100
AcDbLine
10
45.000006247315945
20
-43.000001311303997
30
0
11
7.9999956190627586
21
-43.000001537807492
31
0
0
ARC
5
198
100
AcDbEntity
8
0
100
AcDbCircle
10
7.9999956190624957
20
-41.000001311310058
30
0
40
2.0000004529948505
210
0
220
0
230
1
100
AcDbArc
50
179.99994809505606
51
270.0000000000075
0
LINE
5
199
100
AcDbEntity
8
0
100
AcDbLine
10
5.9999951660684658
20
-40.99999949932868
30
0
11
5.9999987900270568
21
-37.000003153094248
31
0
0
ARC
5
200
100
AcDbEntity
8
0
100
AcDbCircle
10
3.9999983370329417
20
-37.000001341112906
30
0
40
2.0000004529949358
210
-0
220
0
230
1
100
AcDbArc
50
-5.1904943960176338e-05
51
90.000000000007134
0
LINE
5
201
100
AcDbEntity
8
0
100
AcDbLine
10
3.999998337032693
20
-35.000000888117967
30
0
11
0.99997459352358931
21
-35.000001341113261
31
0
0
LINE
5
202
100
AcDbEntity
8
0
100
AcDbLine
10
0.99997459352358931
20
-35.000001341113261
30
0
11
0.99997714166736529
21
-32.999965503785532
31
0
0
ARC
5
203
100
AcDbEntity
8
0
100
AcDbCircle
10
-1.0000228583310289
20
-32.999962955687195
30
0
40
2.0000000000000173
210
-0
220
0
230
1
100
AcDbArc
50
-7.2996398552187649e-05
51
89.999927002362824
0
LINE
5
204
100
AcDbEntity
8
0
100
AcDbLine
10
-1.0000203102327987
20
-30.999962955688805
30
0
11
-20.000022023384787
21
-30.999927282310971
31
0
0
ARC
5
205
100
AcDbEntity
8
0
100
AcDbCircle
10
-20.000016927201401
20
-26.999937623384774
30
0
40
3.9999896589295352
210
0
220
0
230
1
100
AcDbArc
50
180.00091278265774
51
269.9999270023614
0
LINE
5
206
100
AcDbEntity
8
0
100
AcDbLine
10
-24.000006585623339
20
-27.000001347490745
30
0
11
-24.000007599783331
21
-22.999998814405433
31
0
0
ARC
5
207
100
AcDbEntity
8
0
100
AcDbCircle
10
-19.99999192502414
20
-22.99991649233197
30
0
40
4.0000156756063321
210
0
220
-0
230
1
100
AcDbArc
50
89.999927002360906
51
180.00117917206322
0
LINE
5
208
100
AcDbEntity
8
0
100
AcDbLine
10
-19.999986828807575
20
-18.999900816728882
30
0
11
-1.0000050216094536
21
-18.999936490081375
31
0
0
ARC
5
209
100
AcDbEntity
8
0
100
AcDbCircle
10
-1.0000024735112589
20
-16.999936490083037
30
0
40
1.9999999999999596
210
0
220
0
230
1
100
AcDbArc
50
269.99992700236385
51
359.99992700859451
0
LINE
5
210
100
AcDbEntity
8
0
100
AcDbLine
10
0.99999752648707996
20
-16.999939038181257
30
0
11
1.0000000745063886
21
-15.000001043090041
31
0
0
LINE
5
211
100
AcDbEntity
8
0
100
AcDbLine
10
1.0000000745063886
20
-15.000001043090041
30
0
11
6.0000001490121946
21
-15.00000104308941
31
0
0
LINE
5
212
100
AcDbEntity
8
0
100
AcDbLine
10
6.0000001490121946
20
-15.00000104308941
30
0
11
6.0000001490133315
21
-23.999897775064476
31
0
0
ARC
5
213
100
AcDbEntity
8
0
100
AcDbCircle
10
8.0000001490134309
20
-23.999897775064156
30
0
40
2.0000000000000995
210
0
220
0
230
1
100
AcDbArc
50
180
51
269.99994809056705
0
LINE
5
214
100
AcDbEntity
8
0
100
AcDbLine
10
7.9999983370323946
20
-25.999897775063431
30
0
11
71.000025927691752
21
-25.999954852487992
31
0
0
LINE
5
215
100
AcDbEntity
8
0
100
AcDbLine
10
71.000025927691752
20
-25.999954852487992
30
0
11
134.00000166296957
21
-25.99989777505554
31
0
0
ARC
5
216
100
AcDbEntity
8
0
100
AcDbCircle
10
133.9999998509883
20
-23.999897775056276
30
0
40
2.0000000000000857
210
-0
220
0
230
1
100
AcDbArc
50
270.00005190943949
51
360
0
LINE
5
217
100
AcDbEntity
8
0
100
AcDbLine
10
135.99999985098839
20
-23.999897775056347
30
0
11
135.99999985098839
21
-15.000001043081284
31
0
0
LINE
5
218
100
AcDbEntity
8
0
100
AcDbLine
10
135.99999985098839
20
-15.000001043081284
30
0
11
140.99999992549419
21
-15.000001043081284
31
0
0
LINE
5
219
100
AcDbEntity
8
0
100
AcDbLine
10
140.99999992549419
20
-15.000001043081284
30
0
11
141.00000247351375
21
-16.999939038172506
31
0
0
ARC
5
220
100
AcDbEntity
8
0
100
AcDbCircle
10
143.00000247351207
20
-16.999936490074031
30
0
40
1.9999999999999463
210
0
220
0
230
1
100
AcDbArc
50
180.00007299639853
51
270.00007299764349
0
LINE
5
221
100
AcDbEntity
8
0
100
AcDbLine
10
143.00000502161052
20
-18.999936490072354
30
0
11
161.99998682880869
21
-18.999900816716384
31
0
0
ARC
5
222
100
AcDbEntity
8
0
100
AcDbCircle
10
161.99999192502571
20
-22.999916492319485
30
0
40
4.0000156756063312
210
0
220
0
230
1
100
AcDbArc
50
-0.001179172063230151
51
90.00007299764566
0
LINE
5
223
100
AcDbEntity
8
0
100
AcDbLine
10
166.00000759978491
20
-22.999998814392431
30
0
11
166.00000658562533
21
-27.000001347477742
31
0
0
LWPOLYLINE
5
224
100
AcDbEntity
8
0
100
AcDbPolyline
90
16
70
1
43
0.0
10
13.714288605415026
20
-87.385970529848294
42
-0.28968983949768118
10
12.000003129243842
20
-84.675446934080156
10
12.000003129243836
20
-65.324556172885849
42
-0.28968986385002188
10
13.714288849003431
20
-62.614032461573601
42
0.17293729967893803
10
15.614034771253566
20
-60.71428653932351
42
-0.28968986385002943
10
18.324558482565827
20
-59.000000819563866
10
37.67544676987562
20
-59.00000081956388
42
-0.28968988054094952
10
40.385970560380997
20
-60.714286706277285
42
0.17293733139733072
10
42.285717242530403
20
-62.614033388426719
42
-0.28968988054095024
10
44.000003129243836
20
-65.32455717893211
10
44.000003129243808
20
-84.675446934080128
42
-0.28968983949768601
10
42.285717653072616
20
-87.385970529848223
42
0.17293725340125393
10
40.385972839528222
20
-89.285715343392681
42
-0.28968983949767396
10
37.67544924376012
20
-91.000000819563866
10
18.324557014727532
20
-91.000000819563866
42
-0.28968983949768862
10
15.61403341895943
20
-89.285715343392667
42
0.17293725340125274
0
CIRCLE
5
225
100
AcDbEntity
8
0
100
AcDbCircle
10
44.000003129243836
20
-59.000000819563866
30
0
40
1.4999999999999858
210
0
220
-0
230
1
0
CIRCLE
5
226
100
AcDbEntity
8
0
100
AcDbCircle
10
12.000003129243844
20
-59.000000819563866
30
0
40
1.5000000000000213
210
0
220
-0
230
1
0
CIRCLE
5
227
100
AcDbEntity
8
0
100
AcDbCircle
10
12.000003129243844
20
-91.000000819563866
30
0
40
1.5000000000000213
210
0
220
-0
230
1
0
CIRCLE
5
228
100
AcDbEntity
8
0
100
AcDbCircle
10
44.000003129243836
20
-91.000000819563866
30
0
40
1.5000000000000213
210
0
220
-0
230
1
0
LWPOLYLINE
5
229
100
AcDbEntity
8
0
100
AcDbPolyline
90
126
70
1
43
0.0
10
162.00001739212786
20
-15.00018313894361
42
-0.41421311301571462
10
170.00000508337735
20
-23.000183174066162
10
170.00000506581162
20
-27.000115682962843
42
-0.41421401173062505
10
161.99999275706105
20
-35.000115647821559
10
148.00000662240123
20
-35.000080260187104
42
0.41421385207289163
10
146.00000156702328
20
-37.000077182992115
10
146.00000002854537
20
-38.000001057982516
42
-0.41421352764494174
10
144.00000023841855
20
-40.0000010603503
10
142.99999968707561
20
-40.000001179552633
42
0.41421352753736063
10
140.9999999256936
20
-42.000001178790029
10
140.99999992563326
20
-55.500001713633523
10
134.99999992563318
20
-55.500001713606721
42
0.41421356237440743
10
132.99999992562425
20
-57.500001713606693
10
132.99999992562425
20
-92.499999925520996
42
0.41421356237442175
10
134.99999992563332
20
-94.499999925521024
10
140.99999992563326
20
-94.499999925494194
10
140.9999999256936
20
-108.0000004603377
42
0.41421352753736584
10
142.99999968707561
20
-110.00000045957509
10
144.00000023841855
20
-110.0000005787774
42
-0.41421352764494235
10
146.00000002854543
20
-112.00000058114523
10
146.00000156702231
20
-112.99992445613562
42
0.41421356237309764
10
148.00000464420754
20
-114.99992137894563
10
161.99999275706105
20
-114.9998859913061
42
-0.41421401173062505
10
170.00000506581165
20
-122.99988595616489
10
170.00000508337735
20
-126.99981846506157
42
-0.41421311301571495
10
162.00001739212786
20
-134.99981850018412
10
148.00003343778513
20
-134.99985388781892
42
0.41421327267325048
10
146.00003849316971
20
-136.99985696499922
10
146.00005080214152
20
-145.00000081932893
42
-0.41421357449047347
10
141
20
-150.00000118892808
10
133.0000017136245
20
-150.00000109916411
42
0.41421356237310542
10
131.0000016911836
20
-152.00000107672309
10
131.00000143311212
20
-166.00000107738666
42
-0.4142135623730937
10
123.00000134334826
20
-174.00000098762268
10
119.00000134334522
20
-174.00000094274071
42
-0.41416702528187677
10
111.00000153407933
20
-166.00127197442896
10
111.00000169118047
20
-152.00000085231375
42
0.41421356237310542
10
109.00000171362137
20
-150.00000082987268
10
107.99999940395352
20
-150.00000081865215
42
-0.41421356230661327
10
105.99999940404305
20
-148.00000081956387
10
105.999999404043
20
-147.00000074505806
42
0.41421356236755402
10
103.99999940398527
20
-145.00000074503839
10
90.499998658895464
20
-145.00000074503942
10
90.499998658895066
20
-139.00000062584877
42
0.41421356237310025
10
88.499998658894896
20
-137.00000062584888
10
53.500001341201262
20
-137.00000062585104
42
0.41421356237306639
10
51.500001341201482
20
-139.00000062585096
10
51.500001341201376
20
-144.99985659406349
10
37.999907544461671
20
-144.99986524998997
42
0.41421338853631057
10
35.999695708711634
20
-147.00007813259336
10
35.999695673663012
20
-147.99940102019437
42
-0.41421355315642255
10
33.999008512353406
20
-150.00008810412297
10
32.999998637006343
20
-150.00008806908528
42
0.41421356141697901
10
30.999997898669314
20
-152.00008732467916
10
30.999998295049718
20
-166.00201972575655
42
-0.4141396494671184
10
22.999998599182732
20
-174.00000095226812
10
18.999998596868899
20
-174.00000109385971
42
-0.41421355615750716
10
10.999998408594855
20
-166.00000125310453
10
10.999997859083519
20
-152.00008803504059
42
0.4142135611812206
10
8.9999986749579008
20
-150.00008722734691
10
1.0000001739729572
20
-150.00008694676748
42
-0.41421368290399579
10
-3.9999996506643143
20
-145.00008471381432
10
-4.000038381131823
20
-136.99985688422461
42
0.41421356237488999
10
-6.0000353014707741
20
-134.99985380455604
10
-20.008614497198103
20
-134.99981837577562
42
-0.4138983932161443
10
-28.000005101421657
20
-126.99982300855554
10
-28.000005111333188
20
-122.99988845337411
42
-0.41421401742903219
10
-19.999992762426757
20
-114.99988837302693
10
-6.0000045925694323
20
-114.99992152766464
42
0.41421356238475943
10
-4.0000015057079708
20
-112.99992461445122
10
-3.9999999658750749
20
-111.99999752226975
42
-0.41421307645246119
10
-2.0000002040635678
20
-110.00000060216257
10
-0.99999968239565373
20
-110.00000048307061
42
0.41421352744514289
10
1.0000000794206088
20
-108.00000048338987
10
1.0000000745057847
20
-89.999999925494194
10
6.0000000745057847
20
-89.999999925494194
10
6.0000000745057847
20
-60.000001713633537
10
1.0000000745057847
20
-60.000001713633537
10
1.000000079420609
20
-42.000001155737863
42
0.41421352744514484
10
-0.99999968239565362
20
-40.000001156057117
10
-2.0000002040635678
20
-40.000001036965159
42
-0.41421307645246314
10
-3.9999999658750696
20
-38.000004116857966
10
-4.0000015057079708
20
-37.000077024676507
42
0.41421356238475815
10
-6.0000045925694323
20
-35.000080111463099
10
-19.999986165809958
20
-35.000113266087901
42
-0.41421425894217118
10
-28.000005111333195
20
-27.000113185753616
10
-28.000005101421781
20
-23.000178630572194
42
-0.4138983932161453
10
-20.008614497198067
20
-15.000183263351996
10
-6.0000353014707741
20
-15.000147834571679
42
0.4142135623748851
10
-4.000038381131823
20
-13.000144754903111
10
-3.9999996506642956
20
-4.9999169253134319
42
-0.41421368290399657
10
1.0000001739729569
20
8.5307639743348318e-05
10
8.9999986749579008
20
8.5588219185250836e-05
42
0.41421356118121816
10
10.99999785908345
20
2.0000863959128523
10
11.000011589582662
20
15.924613769666664
42
-0.41368600637096109
10
18.999998698860949
20
23.91020149307387
10
22.999998701174775
20
23.910201448355632
42
-0.41389485453585867
10
30.999993914622692
20
15.918907405601352
10
30.999997898669314
20
2.0000856855514253
42
0.41421356141697296
10
32.999998637006343
20
8.6429957573130878e-05
10
33.999008512353406
20
8.6464995142643275e-05
42
-0.41421355315642711
10
35.999695673662906
20
-2.0006006189333725
10
35.999695708711634
20
-2.999923506534357
42
0.41421338853630169
10
37.999907544461671
20
-5.0001363891377615
10
51.500001341201376
20
-5.0001439281772697
10
51.500001341201376
20
-11.000001013276764
42
0.41421356237305179
10
53.500001341201262
20
-13.000001013276643
10
88.499998658894896
20
-13.000001013278972
42
0.41421356237309209
10
90.499998658895066
20
-11.000001013279093
10
90.499998658895464
20
-5.00000089408843
10
103.99999940398527
20
-5.0000008940893359
42
0.41421356236754348
10
105.999999404043
20
-3.0000008940696787
10
105.99999940404302
20
-2.0000008195638657
42
-0.41421356230661249
10
107.99999940395352
20
-8.2047554528230648e-07
10
109.00000171362137
20
-8.0925504269968584e-07
42
0.41421356237310014
10
111.00000169118047
20
1.9999992131860012
10
111.00000153510116
20
15.910201349064383
42
-0.41421356237309503
10
119.0000014453372
20
23.910201438828285
10
123.00000144534025
20
23.910201483710335
42
-0.41421356237309426
10
131.00000153510422
20
15.910201573474172
10
131.0000016911836
20
1.9999994375953745
42
0.41421356237309792
10
133.0000017136245
20
-5.3996355831031906e-07
10
141
20
-4.5019971639526091e-07
42
-0.4142135744904733
10
146.00005080214146
20
-5.0000008197988066
10
146.00003849316971
20
-13.000144674128505
42
0.41421327267324393
10
148.00003343778513
20
-15.000147751308788
0
ENDSEC
0
SECTION
2
OBJECTS
0
DICTIONARY
5
C
100
AcDbDictionary
3
ACAD_GROUP
350
D
3
ACAD_MLINESTYLE
350
17
0
DICTIONARY
5
D
100
AcDbDictionary
0
DICTIONARY
5
1A
330
C
100
AcDbDictionary
0
DICTIONARY
5
17
100
AcDbDictionary
0
ENDSEC
0
EOF
