<?xml version="1.0" encoding="UTF-8"?>
<svg xmlns="http://www.w3.org/2000/svg" width="800.000" height="600.000" viewBox="0.0 0.0 800.000 600.000" version="1.1">
  <title>Produce by Acme CAD Converter</title>
  <desc>Produce by Acme CAD Converter</desc>
<polyline points="478.84,569.01 481.4,568.83 483.9,568.29 486.29,567.39 488.54,566.17 490.59,564.63 492.4,562.82 493.93,560.77 495.16,558.53 496.05,556.13 496.6,553.63 496.78,551.08 496.78,515.21 532.64,515.16 532.65,515.16 532.65,515.16 535.21,514.98 537.71,514.43 540.1,513.54 542.35,512.31 544.4,510.78 546.21,508.97 547.74,506.92 548.97,504.68 549.86,502.28 550.4,499.78 550.59,497.23 550.59,461.4 550.59,461.4 550.4,458.85 549.86,456.35 548.97,453.95 547.74,451.71 546.21,449.66 544.4,447.85 542.35,446.32 540.1,445.09 537.7,444.2 535.2,443.65 532.65,443.47 496.78,443.47 496.78,353.8 514.71,353.8 514.71,246.2 496.78,246.2 496.78,156.53 532.65,156.53 532.65,156.53 535.2,156.35 537.7,155.8 540.1,154.91 542.35,153.68 544.4,152.15 546.21,150.34 547.74,148.29 548.97,146.05 549.86,143.65 550.4,141.15 550.59,138.6 550.59,102.77 550.59,102.77 550.4,100.22 549.86,97.72 548.97,95.32 547.74,93.08 546.21,91.03 544.4,89.22 542.35,87.69 540.1,86.46 537.71,85.57 535.21,85.02 532.65,84.84 532.64,84.84 514.71,84.84 496.78,84.84 496.78,48.92 496.78,48.92 496.6,46.37 496.05,43.87 495.16,41.47 493.93,39.23 492.4,37.18 490.59,35.37 488.54,33.83 486.29,32.61 483.9,31.71 481.4,31.17 478.84,30.99 281.57,30.99 281.57,30.99 279.01,31.17 276.51,31.71 274.12,32.61 271.87,33.83 269.82,35.37 268.01,37.18 266.48,39.23 265.25,41.47 264.36,43.87 263.82,46.37 263.63,48.92 263.63,84.79 245.7,84.79 245.7,156.53 263.63,156.53 263.63,246.2 245.7,246.2 245.7,353.8 263.63,353.8 263.63,443.47 245.7,443.47 245.7,515.21 263.63,515.21 263.63,551.08 263.63,551.08 263.82,553.63 264.36,556.13 265.25,558.53 266.48,560.77 268.01,562.82 269.82,564.63 271.87,566.17 274.12,567.39 276.51,568.29 279.01,568.83 281.57,569.01 478.84,569.01" style="fill:none;stroke:black;stroke-width:0.5"/>
<polyline points="460.91,551.08 299.5,551.08 299.5,533.14 460.91,533.14 460.91,551.08" style="fill:none;stroke:black;stroke-width:0.5"/>
<polyline points="299.5,66.86 299.5,48.92 460.91,48.92 460.91,66.86 299.5,66.86" style="fill:none;stroke:black;stroke-width:0.5"/>
<polyline points="532.65,461.4 532.65,497.23 514.72,497.23 514.72,488.28 460.92,488.29 460.92,470.35 514.72,470.35 514.72,461.41 532.65,461.4" style="fill:none;stroke:black;stroke-width:0.5"/>
<polyline points="464.5,142.18 465.6,142.35 466.6,142.86 467.4,143.66 467.91,144.66 468.08,145.77 468.08,146.07 468.08,146.07 467.94,147.06 467.53,147.98 466.88,148.74 466.05,149.3 465.09,149.6 465.09,149.6 462.59,150.21 460.2,151.18 457.97,152.48 455.95,154.08 454.18,155.95 452.7,158.06 451.54,160.37 450.72,162.81 450.25,165.35 450.16,167.92 450.44,170.48 451.08,172.98 452.07,175.36 453.39,177.57 455.02,179.57 456.92,181.32 459.04,182.78 461.36,183.91 461.36,183.91 462.98,184.74 464.44,185.82 465.7,187.14 466.72,188.65 467.47,190.31 467.93,192.07 468.08,193.89 468.08,348.72 468.08,348.72 467.93,350.54 467.47,352.3 466.72,353.96 465.7,355.47 464.44,356.79 462.98,357.87 461.36,358.7 461.36,358.7 458.97,359.87 456.79,361.39 454.86,363.21 453.21,365.3 451.89,367.61 450.93,370.08 450.35,372.67 450.15,375.32 450.35,377.97 450.93,380.57 451.89,383.04 453.21,385.35 454.86,387.44 456.79,389.26 458.97,390.77 461.36,391.95 461.36,391.95 462.98,392.77 464.44,393.86 465.7,395.18 466.72,396.69 467.47,398.35 467.93,400.11 468.08,401.92 468.08,443.47 468.08,443.47 467.9,446.03 467.36,448.53 466.46,450.92 465.24,453.17 463.7,455.22 461.89,457.03 459.84,458.56 457.6,459.79 455.2,460.68 452.7,461.23 450.15,461.41 310.26,461.41 310.26,461.41 307.71,461.23 305.21,460.68 302.81,459.79 300.57,458.56 298.52,457.03 296.71,455.22 295.17,453.17 293.95,450.92 293.05,448.53 292.51,446.03 292.33,443.47 292.33,401.92 292.33,401.92 292.48,400.11 292.94,398.35 293.69,396.69 294.71,395.18 295.97,393.86 297.43,392.77 299.05,391.95 299.05,391.95 301.44,390.77 303.62,389.26 305.55,387.44 307.2,385.35 308.52,383.04 309.48,380.57 310.07,377.97 310.26,375.32 310.07,372.67 309.48,370.08 308.52,367.61 307.2,365.3 305.55,363.21 303.62,361.39 301.44,359.87 299.05,358.7 299.05,358.7 297.43,357.87 295.97,356.79 294.71,355.47 293.69,353.96 292.94,352.3 292.48,350.54 292.33,348.72 292.33,193.89 292.33,193.89 292.48,192.07 292.94,190.31 293.69,188.65 294.71,187.14 295.97,185.82 297.43,184.74 299.05,183.91 299.05,183.91 301.37,182.78 303.49,181.32 305.39,179.57 307.02,177.57 308.34,175.36 309.33,172.98 309.97,170.48 310.25,167.92 310.16,165.35 309.69,162.81 308.87,160.37 307.71,158.06 306.23,155.95 304.46,154.08 302.44,152.48 300.21,151.18 297.82,150.21 295.32,149.6 295.32,149.6 294.36,149.3 293.53,148.74 292.88,147.98 292.47,147.06 292.33,146.07 292.33,145.77 292.33,145.77 292.5,144.66 293.01,143.66 293.81,142.86 294.81,142.35 295.91,142.18 316.72,142.18 316.72,142.18 319.1,142.34 321.45,142.81 323.7,143.59 323.7,143.59 325.74,144.3 327.84,144.73 329.99,144.87 332.14,144.73 334.24,144.3 336.28,143.59 336.28,143.59 338.53,142.81 340.88,142.34 343.26,142.18 370.52,142.18 370.52,142.18 372.91,142.34 375.25,142.81 377.51,143.59 377.51,143.59 379.54,144.3 381.65,144.73 383.79,144.87 385.94,144.73 388.05,144.3 390.08,143.59 390.08,143.59 392.34,142.81 394.68,142.34 397.06,142.18 424.32,142.18 424.32,142.18 426.71,142.34 429.05,142.81 431.31,143.59 431.31,143.59 433.34,144.3 435.45,144.73 437.59,144.87 439.74,144.73 441.85,144.3 443.88,143.59 443.88,143.59 446.14,142.81 448.48,142.34 450.86,142.18 464.5,142.18" style="fill:none;stroke:black;stroke-width:0.5"/>
<polyline points="514.72,129.65 460.92,129.65 460.92,111.71 514.72,111.72 514.72,102.77 532.65,102.77 532.65,138.6 514.72,138.59 514.72,129.65" style="fill:none;stroke:black;stroke-width:0.5"/>
<polyline points="295.91,115.52 313.85,115.52 313.85,117.89 295.91,117.89 295.91,115.52" style="fill:none;stroke:black;stroke-width:0.5"/>
<polyline points="359.5,132.63 367.65,132.63 367.65,135.01 349.72,135.01 349.72,122.91 351.83,122.91 351.83,132.63 357.39,132.63 357.39,124.22 359.5,124.22 359.5,132.63" style="fill:none;stroke:black;stroke-width:0.5"/>
<polyline points="360.56,103.97 367.65,103.97 367.65,106.17 354.66,106.17 354.66,104.19 356.51,104.19 356.04,103.78 355.59,103.35 355.2,102.9 354.89,102.41 354.67,101.87 354.52,101.29 354.43,100.68 354.37,100.05 354.38,99.78 354.4,99.5 354.42,99.22 354.47,98.95 354.61,98.42 354.69,98.16 354.79,97.9 354.89,97.68 355,97.47 355.11,97.27 355.24,97.08 355.39,96.9 355.55,96.74 355.72,96.58 355.9,96.42 356.09,96.3 356.28,96.19 356.47,96.09 356.67,95.99 356.88,95.92 357.09,95.85 357.31,95.79 357.52,95.74 357.79,95.7 358.06,95.67 358.32,95.65 358.59,95.63 358.86,95.62 359.13,95.61 359.39,95.61 359.66,95.61 367.65,95.61 367.65,97.82 359.75,97.82 359.49,97.82 359.24,97.82 358.98,97.84 358.73,97.86 358.48,97.9 358.23,97.95 357.98,98.01 357.74,98.07 357.57,98.15 357.42,98.24 357.27,98.33 357.13,98.44 357,98.56 356.89,98.69 356.78,98.84 356.67,98.98 356.58,99.17 356.5,99.35 356.42,99.53 356.37,99.72 356.33,99.92 356.3,100.12 356.29,100.32 356.27,100.52 356.3,100.85 356.34,101.18 356.4,101.51 356.49,101.82 356.62,102.11 356.79,102.4 356.97,102.68 357.17,102.95 357.54,103.21 357.93,103.45 358.33,103.66 358.74,103.81 359.18,103.9 359.63,103.94 360.09,103.96 360.56,103.97" style="fill:none;stroke:black;stroke-width:0.5"/>
<polyline points="419.41,114.68 419.45,114.59 419.49,114.5 419.52,114.41 419.54,114.31 419.56,114.22 419.56,114.12 419.57,114.03 419.57,113.93 419.57,113.81 419.56,113.68 419.55,113.56 419.54,113.44 419.53,113.32 419.52,113.2 419.5,113.08 419.48,112.96 421.43,112.64 421.47,112.85 421.51,113.06 421.57,113.47 421.59,113.68 421.61,113.89 421.62,114.1 421.63,114.31 421.62,114.55 421.61,114.79 421.59,115.03 421.55,115.26 421.5,115.49 421.42,115.72 421.34,115.94 421.25,116.17 421.15,116.31 421.05,116.45 420.94,116.59 420.82,116.71 420.69,116.82 420.55,116.92 420.4,117.01 420.25,117.1 419.93,117.17 419.61,117.24 419.29,117.3 418.96,117.34 418.64,117.36 418.31,117.37 417.98,117.37 417.65,117.36 410.17,117.36 410.17,118.98 408.46,118.98 408.46,117.36 405.24,117.36 403.92,115.17 408.46,115.17 408.46,112.96 410.17,112.96 410.17,115.17 417.77,115.17 417.93,115.18 418.08,115.18 418.23,115.17 418.38,115.16 418.53,115.15 418.68,115.12 418.83,115.09 418.98,115.06 419.05,115.02 419.11,114.99 419.17,114.95 419.23,114.9 419.28,114.85 419.32,114.8 419.37,114.74 419.41,114.68" style="fill:none;stroke:black;stroke-width:0.5"/>
<polyline points="421.45,99.59 421.45,101.89 421.26,101.97 421.07,102.05 420.87,102.12 420.67,102.18 420.47,102.23 420.27,102.27 420.06,102.3 419.85,102.33 420.07,102.6 420.29,102.88 420.49,103.16 420.69,103.45 420.86,103.74 421.02,104.05 421.17,104.37 421.32,104.68 421.41,104.98 421.5,105.28 421.58,105.58 421.64,105.88 421.69,106.18 421.72,106.49 421.73,106.8 421.75,107.11 421.73,107.56 421.63,108.44 421.53,108.86 421.38,109.27 421.18,109.65 420.95,110.03 420.7,110.4 420.41,110.66 420.12,110.89 419.82,111.11 419.49,111.27 419.15,111.39 418.78,111.47 418.41,111.52 418.03,111.55 417.8,111.54 417.57,111.52 417.35,111.49 417.13,111.45 416.91,111.39 416.7,111.31 416.49,111.22 416.29,111.12 416.1,111.01 415.92,110.89 415.75,110.76 415.58,110.63 415.43,110.48 415.29,110.32 415.15,110.15 415.02,109.98 414.91,109.79 414.79,109.61 414.69,109.42 414.59,109.22 414.51,109.02 414.43,108.81 414.36,108.61 414.3,108.4 414.24,108.16 414.19,107.91 414.14,107.67 414.1,107.42 414.06,107.18 414.03,106.93 414,106.69 413.97,106.44 413.91,105.94 413.84,105.45 413.77,104.95 413.68,104.46 413.58,103.97 413.47,103.48 413.34,103 413.21,102.51 413.14,102.51 413.06,102.51 412.99,102.51 412.92,102.51 412.85,102.5 412.78,102.5 412.71,102.5 412.63,102.5 412.37,102.51 412.11,102.52 411.86,102.56 411.61,102.61 411.38,102.7 411.16,102.83 410.95,102.97 410.74,103.13 410.56,103.41 410.39,103.7 410.25,104 410.14,104.31 410.07,104.63 410.03,104.96 410,105.29 409.99,105.63 410,105.94 410.01,106.24 410.04,106.53 410.09,106.83 410.17,107.11 410.27,107.39 410.4,107.66 410.54,107.93 410.74,108.13 410.95,108.32 411.17,108.49 411.4,108.64 411.65,108.76 411.92,108.86 412.19,108.94 412.46,109.02 412.17,111.17 411.87,111.1 411.57,111.02 411.28,110.93 411,110.82 410.72,110.69 410.45,110.54 410.19,110.38 409.94,110.21 409.72,110 409.51,109.79 409.32,109.57 409.15,109.33 408.99,109.08 408.86,108.81 408.74,108.54 408.63,108.26 408.52,107.9 408.42,107.54 408.34,107.18 408.27,106.81 408.23,106.44 408.2,106.07 408.18,105.69 408.17,105.31 408.18,104.97 408.19,104.63 408.21,104.28 408.25,103.94 408.3,103.61 408.38,103.27 408.47,102.94 408.56,102.61 408.65,102.4 408.74,102.19 408.84,101.98 408.95,101.78 409.08,101.6 409.23,101.42 409.38,101.25 409.54,101.08 409.72,100.96 409.89,100.85 410.07,100.74 410.25,100.65 410.44,100.57 410.64,100.51 410.84,100.45 411.04,100.4 411.3,100.37 411.55,100.34 411.8,100.32 412.06,100.3 412.31,100.29 412.56,100.29 412.82,100.29 413.07,100.29 416.01,100.29 416.5,100.29 416.98,100.29 417.47,100.29 417.95,100.28 418.44,100.26 418.93,100.23 419.41,100.19 419.89,100.15 420.1,100.1 420.3,100.05 420.5,100 420.7,99.93 420.89,99.86 421.08,99.77 421.27,99.68 421.45,99.59" style="fill:none;stroke:black;stroke-width:0.5"/>
<polyline points="414.16,518.22 421.45,518.22 421.45,520.59 403.52,520.59 403.52,513.83 403.52,513.48 403.53,513.14 403.53,512.8 403.55,512.46 403.57,512.12 403.61,511.78 403.69,511.1 403.75,510.8 403.82,510.51 403.89,510.22 403.99,509.94 404.1,509.67 404.23,509.4 404.38,509.14 404.53,508.88 404.71,508.66 404.9,508.45 405.09,508.24 405.3,508.05 405.53,507.88 405.76,507.73 406.01,507.58 406.26,507.45 406.55,507.33 406.85,507.21 407.15,507.11 407.45,507.03 407.76,506.98 408.07,506.94 408.39,506.92 408.71,506.9 409.24,506.95 409.77,507.01 410.29,507.1 410.79,507.25 411.26,507.47 411.71,507.73 412.15,508.04 412.58,508.36 412.98,508.95 413.36,509.54 413.67,510.16 413.9,510.81 414.04,511.49 414.12,512.18 414.15,512.9 414.16,513.62 414.16,518.22" style="fill:none;stroke:black;stroke-width:0.5"/>
<polyline points="407.79,494.52 421.45,498.33 421.45,500.75 403.52,505.51 403.52,503.07 415.28,500.34 415.73,500.24 416.19,500.14 416.65,500.03 417.11,499.94 417.56,499.84 418.02,499.76 418.49,499.67 418.95,499.59 418.53,499.49 418.12,499.39 417.7,499.29 417.29,499.19 416.87,499.09 416.04,498.88 415.63,498.78 403.52,495.37 403.52,492.5 412.6,489.93 413.38,489.72 414.17,489.51 414.96,489.31 415.75,489.13 416.54,488.96 417.34,488.81 418.14,488.67 418.95,488.54 418.46,488.44 417.97,488.33 417.48,488.22 416.99,488.11 416.5,488 416.02,487.88 415.53,487.77 415.04,487.65 403.52,484.83 403.52,482.45 421.45,487.36 421.45,489.65 407.79,493.43 407.53,493.51 407.26,493.58 407,493.65 406.74,493.72 406.48,493.79 406.21,493.86 405.95,493.93 405.69,494 405.95,494.06 406.21,494.12 406.48,494.18 406.74,494.25 407,494.31 407.27,494.38 407.53,494.45 407.79,494.52" style="fill:none;stroke:black;stroke-width:0.5"/>
<polyline points="349.72,478.37 367.65,478.37 367.65,480.42 366.01,480.42 366.44,480.77 366.84,481.14 367.19,481.53 367.47,481.97 367.67,482.44 367.8,482.96 367.88,483.5 367.95,484.05 367.92,484.43 367.88,484.81 367.73,485.54 367.61,485.89 367.45,486.24 367.27,486.57 367.09,486.91 366.84,487.22 366.59,487.53 366.32,487.82 366.04,488.08 365.72,488.32 365.39,488.54 365.05,488.73 364.7,488.92 364.27,489.09 363.84,489.24 363.41,489.37 362.97,489.48 362.53,489.55 362.08,489.59 361.62,489.62 361.17,489.64 360.71,489.62 360.26,489.6 359.81,489.55 359.37,489.49 358.93,489.39 358.5,489.27 358.07,489.14 357.64,488.99 357.28,488.82 356.93,488.63 356.59,488.43 356.27,488.21 355.98,487.95 355.71,487.66 355.46,487.36 355.21,487.05 355.03,486.71 354.85,486.37 354.7,486.02 354.57,485.66 354.49,485.29 354.43,484.92 354.39,484.53 354.37,484.15 354.38,483.87 354.4,483.6 354.43,483.33 354.48,483.07 354.55,482.81 354.65,482.56 354.75,482.31 354.86,482.06 354.99,481.84 355.13,481.63 355.27,481.43 355.42,481.24 355.59,481.05 355.77,480.88 355.96,480.72 356.15,480.56 349.72,480.56 349.72,478.37" style="fill:none;stroke:black;stroke-width:0.5"/>
<polyline points="313.45,517.02 313.25,517.41 313.04,517.78 312.82,518.14 312.57,518.48 312.29,518.78 311.98,519.07 311.65,519.34 311.31,519.61 310.93,519.81 310.55,520.01 310.17,520.18 309.77,520.33 309.36,520.43 308.94,520.5 308.52,520.55 308.09,520.59 307.89,518.35 308.18,518.31 308.47,518.26 308.76,518.19 309.04,518.11 309.31,518.01 309.58,517.89 309.84,517.75 310.1,517.61 310.32,517.42 310.54,517.23 310.74,517.03 310.93,516.81 311.09,516.58 311.23,516.33 311.37,516.07 311.49,515.81 311.61,515.47 311.82,514.8 311.9,514.46 311.96,514.11 311.99,513.76 312.01,513.41 312.03,513.05 312.02,512.75 312,512.44 311.98,512.14 311.94,511.84 311.88,511.54 311.8,511.24 311.71,510.95 311.62,510.66 311.52,510.43 311.42,510.21 311.31,510 311.18,509.8 311.03,509.61 310.87,509.44 310.7,509.27 310.52,509.11 310.34,509 310.16,508.9 309.98,508.81 309.79,508.73 309.59,508.68 309.39,508.64 309.19,508.62 308.98,508.6 308.78,508.62 308.58,508.64 308.39,508.67 308.2,508.72 308.02,508.79 307.85,508.88 307.67,508.98 307.51,509.09 307.33,509.27 307.16,509.44 307.01,509.63 306.87,509.83 306.75,510.03 306.64,510.25 306.54,510.48 306.45,510.71 306.32,511.1 306.2,511.5 306.08,511.89 305.97,512.29 305.87,512.69 305.77,513.09 305.67,513.5 305.57,513.9 305.47,514.34 305.36,514.79 305.24,515.23 305.11,515.66 304.96,516.09 304.8,516.52 304.63,516.94 304.45,517.36 304.29,517.64 304.12,517.92 303.94,518.18 303.75,518.43 303.53,518.66 303.29,518.88 303.04,519.08 302.78,519.28 302.52,519.41 302.26,519.54 301.99,519.66 301.71,519.75 301.43,519.82 301.14,519.86 300.85,519.89 300.55,519.91 300.21,519.88 299.88,519.84 299.55,519.79 299.22,519.71 298.91,519.6 298.61,519.46 298.31,519.3 298.01,519.13 297.72,518.91 297.44,518.67 297.18,518.42 296.94,518.15 296.74,517.85 296.55,517.54 296.38,517.22 296.22,516.88 296.08,516.48 295.95,516.08 295.84,515.68 295.75,515.27 295.69,514.86 295.65,514.44 295.63,514.02 295.61,513.59 295.63,513.14 295.65,512.69 295.69,512.24 295.75,511.8 295.85,511.36 295.97,510.93 296.11,510.5 296.25,510.08 296.42,509.73 296.6,509.39 296.8,509.07 297.02,508.76 297.27,508.48 297.55,508.22 297.84,507.97 298.14,507.73 298.47,507.55 298.81,507.38 299.14,507.22 299.49,507.1 299.85,507 300.22,506.94 300.59,506.89 300.97,506.85 301.14,509.13 300.77,509.19 300.41,509.26 300.06,509.36 299.73,509.49 299.41,509.67 299.12,509.88 298.84,510.12 298.57,510.37 298.36,510.73 298.16,511.09 297.99,511.47 297.87,511.85 297.79,512.25 297.74,512.66 297.71,513.08 297.7,513.5 297.71,513.91 297.73,514.33 297.77,514.74 297.84,515.13 297.95,515.52 298.11,515.9 298.29,516.27 298.49,516.63 298.69,516.84 298.89,517.03 299.1,517.21 299.33,517.35 299.57,517.46 299.84,517.53 300.11,517.58 300.39,517.62 300.62,517.6 300.84,517.57 301.06,517.52 301.27,517.45 301.46,517.34 301.64,517.22 301.81,517.07 301.98,516.92 302.21,516.5 302.43,516.08 302.63,515.64 302.8,515.2 302.94,514.74 303.06,514.28 303.16,513.81 303.26,513.34 303.37,512.84 303.49,512.33 303.61,511.83 303.75,511.33 303.89,510.84 304.06,510.35 304.23,509.86 304.4,509.37 304.58,509.04 304.75,508.71 304.95,508.39 305.16,508.09 305.4,507.81 305.67,507.55 305.95,507.3 306.23,507.06 306.53,506.9 306.83,506.74 307.14,506.6 307.45,506.49 307.78,506.42 308.11,506.37 308.44,506.34 308.78,506.31 309.14,506.34 309.5,506.38 309.85,506.44 310.19,506.52 310.52,506.64 310.85,506.79 311.17,506.96 311.48,507.13 311.79,507.37 312.09,507.62 312.38,507.88 312.64,508.17 312.87,508.48 313.08,508.8 313.27,509.14 313.45,509.49 313.61,509.91 313.76,510.33 313.89,510.75 313.99,511.18 314.06,511.61 314.11,512.05 314.13,512.5 314.15,512.94 314.14,513.47 314.12,513.99 314.07,514.51 314.01,515.02 313.9,515.53 313.77,516.03 313.61,516.53 313.45,517.02" style="fill:none;stroke:black;stroke-width:0.5"/>
<polyline points="307.05,487.24 313.85,487.24 313.85,489.44 300.86,489.44 300.86,487.46 302.83,487.46 302.57,487.32 302.32,487.18 302.07,487.02 301.84,486.86 301.61,486.68 301.4,486.48 301.2,486.27 300.91,485.9 300.82,485.73 300.74,485.56 300.67,485.39 300.63,485.21 300.6,485.03 300.58,484.84 300.56,484.65 300.59,484.35 300.63,484.05 300.68,483.76 300.76,483.47 300.86,483.19 300.99,482.92 301.13,482.65 301.27,482.39 303.32,483.14 303.22,483.33 303.12,483.53 303.04,483.72 302.97,483.92 302.92,484.12 302.88,484.33 302.86,484.55 302.84,484.76 302.85,484.93 302.87,485.11 302.9,485.28 302.95,485.44 303.01,485.6 303.09,485.76 303.18,485.91 303.27,486.06 303.4,486.19 303.53,486.33 303.66,486.45 303.81,486.56 303.97,486.65 304.13,486.74 304.3,486.81 304.48,486.88 304.79,486.96 305.11,487.03 305.43,487.1 305.75,487.16 306.07,487.19 306.4,487.22 306.72,487.23 307.05,487.24" style="fill:none;stroke:black;stroke-width:0.5"/>
<polyline points="312.33,497.89 312.31,497.61 312.29,497.33 312.25,497.06 312.18,496.8 312.09,496.54 311.97,496.3 311.84,496.06 311.7,495.82 311.48,495.59 311.26,495.37 311.03,495.17 310.78,494.99 310.52,494.84 310.24,494.7 309.67,494.46 309.95,492.18 310.4,492.34 310.84,492.5 311.26,492.69 311.67,492.92 312.04,493.19 312.39,493.5 312.72,493.83 313.04,494.18 313.29,494.61 313.53,495.04 313.74,495.49 313.9,495.94 314.01,496.42 314.08,496.9 314.12,497.4 314.14,497.9 314.1,498.53 314.03,499.16 313.92,499.77 313.74,500.35 313.49,500.9 313.16,501.42 312.79,501.92 312.39,502.42 311.84,502.81 311.28,503.17 310.7,503.49 310.1,503.73 309.46,503.9 308.81,503.99 308.14,504.05 307.46,504.09 306.77,504.05 306.08,504 305.4,503.9 304.75,503.73 304.12,503.49 303.53,503.17 302.95,502.8 302.37,502.4 301.97,501.93 301.59,501.44 301.26,500.94 300.99,500.41 300.81,499.84 300.69,499.25 300.62,498.64 300.56,498.02 300.62,497.42 300.69,496.82 300.81,496.25 300.99,495.7 301.25,495.18 301.57,494.69 301.94,494.22 302.34,493.76 302.9,493.38 303.47,493.01 304.05,492.7 304.67,492.46 305.31,492.3 305.97,492.2 306.64,492.15 307.33,492.11 307.4,492.11 307.48,492.11 307.55,492.11 307.62,492.12 307.7,492.12 307.77,492.12 307.84,492.12 307.92,492.12 307.92,501.81 308.37,501.77 308.81,501.71 309.25,501.62 309.67,501.5 310.07,501.33 310.45,501.11 310.83,500.86 311.19,500.6 311.44,500.31 311.68,500.01 311.89,499.69 312.05,499.37 312.17,499.02 312.25,498.65 312.3,498.27 312.33,497.89" style="fill:none;stroke:black;stroke-width:0.5"/>
<polyline points="366.13,497.31 366.12,497.03 366.09,496.76 366.05,496.49 365.99,496.22 365.89,495.97 365.78,495.72 365.64,495.48 365.5,495.24 365.28,495.02 365.06,494.8 364.83,494.6 364.58,494.42 364.32,494.26 364.04,494.12 363.47,493.89 363.75,491.61 364.2,491.76 364.64,491.93 365.07,492.12 365.47,492.34 365.84,492.61 366.19,492.92 366.52,493.26 366.84,493.6 367.1,494.03 367.33,494.47 367.54,494.91 367.7,495.37 367.81,495.84 367.88,496.33 367.92,496.82 367.95,497.32 367.9,497.96 367.83,498.58 367.72,499.19 367.55,499.77 367.29,500.32 366.96,500.85 366.59,501.35 366.19,501.84 365.64,502.23 365.08,502.6 364.5,502.92 363.9,503.16 363.27,503.32 362.61,503.42 361.94,503.48 361.27,503.51 360.57,503.48 359.88,503.42 359.2,503.32 358.55,503.16 357.93,502.91 357.33,502.59 356.75,502.22 356.18,501.82 355.77,501.35 355.4,500.87 355.06,500.36 354.8,499.83 354.61,499.27 354.49,498.68 354.42,498.06 354.37,497.45 354.42,496.84 354.49,496.25 354.61,495.67 354.79,495.12 355.05,494.61 355.38,494.12 355.75,493.65 356.14,493.19 356.7,492.8 357.27,492.44 357.86,492.12 358.47,491.88 359.11,491.72 359.77,491.63 360.45,491.57 361.13,491.54 361.2,491.54 361.28,491.54 361.35,491.54 361.42,491.54 361.5,491.54 361.57,491.54 361.64,491.55 361.72,491.55 361.72,501.24 362.17,501.19 362.61,501.13 363.05,501.05 363.47,500.93 363.87,500.75 364.26,500.54 364.63,500.29 365,500.03 365.25,499.73 365.48,499.43 365.69,499.12 365.86,498.79 365.97,498.44 366.05,498.07 366.1,497.69 366.13,497.31" style="fill:none;stroke:black;stroke-width:0.5"/>
<polyline points="367.35,511.24 367.42,511.59 367.48,511.95 367.54,512.31 367.58,512.67 367.61,513.03 367.63,513.39 367.64,513.76 367.65,514.12 367.65,520.59 349.72,520.59 349.72,514.41 349.73,513.61 349.74,513.21 349.76,512.81 349.8,512.41 349.85,512.01 349.91,511.62 349.97,511.22 350.08,510.86 350.19,510.51 350.31,510.16 350.46,509.83 350.63,509.5 350.83,509.19 351.04,508.89 351.26,508.59 351.59,508.25 351.93,507.92 352.28,507.61 352.65,507.33 353.05,507.08 353.46,506.86 353.89,506.66 354.32,506.47 354.84,506.31 355.37,506.16 355.89,506.03 356.42,505.92 356.96,505.85 357.5,505.81 358.04,505.78 358.59,505.76 359.05,505.78 359.5,505.79 359.96,505.82 360.42,505.87 360.87,505.94 361.31,506.03 361.76,506.13 362.21,506.24 362.55,506.36 362.9,506.47 363.23,506.6 363.56,506.75 363.89,506.91 364.2,507.08 364.51,507.27 364.82,507.46 365.05,507.64 365.28,507.82 365.5,508.01 365.71,508.21 365.9,508.42 366.09,508.64 366.27,508.87 366.45,509.1 366.59,509.35 366.74,509.6 366.87,509.86 366.99,510.13 367.09,510.4 367.18,510.68 367.27,510.96 367.35,511.24" style="fill:none;stroke:black;stroke-width:0.5"/>
<polyline points="413.49,477.82 421.45,477.82 421.45,480.2 403.52,480.2 403.52,472.24 403.52,471.78 403.54,471.32 403.56,470.86 403.6,470.4 403.67,469.94 403.77,469.49 403.88,469.05 404,468.6 404.15,468.3 404.31,468 404.49,467.72 404.69,467.46 404.92,467.22 405.17,467 405.71,466.6 406.03,466.44 406.35,466.29 406.68,466.15 407.01,466.04 407.35,465.96 407.7,465.91 408.06,465.88 408.41,465.86 408.86,465.9 409.3,465.95 409.73,466.03 410.15,466.16 410.54,466.34 410.91,466.56 411.27,466.82 411.63,467.09 411.96,467.51 412.28,467.94 412.56,468.39 412.79,468.85 412.96,469.35 413.1,469.86 413.2,470.38 413.29,470.91 413.39,470.72 413.49,470.53 413.59,470.35 413.69,470.16 413.81,469.99 413.93,469.82 414.06,469.65 414.19,469.48 414.46,469.21 414.74,468.93 415.02,468.67 415.32,468.42 415.62,468.18 415.93,467.95 416.25,467.73 416.57,467.51 421.45,464.39 421.45,467.38 417.72,469.75 417.41,469.95 417.09,470.16 416.78,470.37 416.47,470.58 416.16,470.79 415.86,471.01 415.55,471.24 415.25,471.46 415.08,471.6 414.92,471.73 414.76,471.87 414.6,472.02 414.46,472.17 414.32,472.33 414.18,472.5 414.05,472.67 413.98,472.79 413.9,472.92 413.83,473.05 413.77,473.19 413.71,473.32 413.66,473.46 413.62,473.61 413.58,473.75 413.55,473.91 413.53,474.08 413.51,474.24 413.5,474.41 413.5,474.57 413.49,474.74 413.49,474.9 413.49,475.07 413.49,477.82" style="fill:none;stroke:black;stroke-width:0.5"/>
<polyline points="414.65,94.7 421.45,94.7 421.45,96.9 408.46,96.9 408.46,94.92 410.43,94.92 410.18,94.77 409.93,94.63 409.68,94.48 409.44,94.31 409.22,94.13 409.01,93.94 408.81,93.73 408.51,93.35 408.42,93.19 408.34,93.02 408.28,92.84 408.23,92.66 408.2,92.48 408.18,92.29 408.17,92.1 408.2,91.8 408.23,91.5 408.29,91.21 408.36,90.92 408.47,90.64 408.59,90.37 408.73,90.1 408.88,89.84 410.92,90.6 410.82,90.79 410.73,90.98 410.64,91.17 410.57,91.37 410.52,91.58 410.49,91.79 410.46,92 410.44,92.21 410.46,92.39 410.48,92.56 410.51,92.73 410.55,92.9 410.62,93.06 410.69,93.21 410.78,93.36 410.88,93.51 411,93.65 411.13,93.78 411.27,93.9 411.42,94.01 411.57,94.11 411.74,94.19 411.91,94.26 412.08,94.33 412.4,94.41 412.72,94.49 413.03,94.56 413.35,94.61 413.68,94.65 414,94.67 414.33,94.69 414.65,94.7" style="fill:none;stroke:black;stroke-width:0.5"/>
<polyline points="419.41,85.44 419.45,85.35 419.49,85.26 419.52,85.17 419.54,85.08 419.56,84.98 419.56,84.88 419.57,84.79 419.57,84.69 419.57,84.57 419.56,84.45 419.55,84.33 419.54,84.2 419.53,84.08 419.52,83.96 419.5,83.84 419.48,83.72 421.43,83.4 421.47,83.61 421.51,83.82 421.57,84.23 421.59,84.44 421.61,84.65 421.62,84.86 421.63,85.07 421.62,85.31 421.61,85.55 421.59,85.79 421.55,86.02 421.5,86.25 421.42,86.48 421.34,86.71 421.25,86.93 421.15,87.07 421.05,87.22 420.94,87.35 420.82,87.48 420.69,87.59 420.55,87.68 420.4,87.77 420.25,87.86 419.93,87.93 419.61,88 419.29,88.06 418.96,88.1 418.64,88.12 418.31,88.13 417.98,88.13 417.65,88.13 410.17,88.13 410.17,89.74 408.46,89.74 408.46,88.13 405.24,88.13 403.92,85.94 408.46,85.94 408.46,83.72 410.17,83.72 410.17,85.94 417.77,85.94 417.93,85.94 418.08,85.94 418.23,85.93 418.38,85.93 418.53,85.91 418.68,85.89 418.83,85.85 418.98,85.82 419.05,85.79 419.11,85.75 419.17,85.71 419.23,85.67 419.28,85.62 419.32,85.56 419.37,85.5 419.41,85.44" style="fill:none;stroke:black;stroke-width:0.5"/>
<polyline points="421.05,131.44 420.85,131.82 420.65,132.19 420.43,132.55 420.18,132.89 419.89,133.2 419.58,133.49 419.25,133.76 418.92,134.02 418.54,134.23 418.16,134.42 417.77,134.6 417.37,134.74 416.97,134.84 416.55,134.92 416.12,134.97 415.69,135.01 415.5,132.77 415.79,132.72 416.08,132.67 416.37,132.61 416.65,132.53 416.92,132.43 417.18,132.3 417.45,132.17 417.7,132.03 417.93,131.84 418.14,131.65 418.35,131.44 418.53,131.23 418.69,130.99 418.84,130.74 418.97,130.48 419.1,130.22 419.22,129.89 419.43,129.22 419.51,128.87 419.56,128.53 419.6,128.18 419.62,127.82 419.63,127.47 419.62,127.16 419.61,126.86 419.58,126.55 419.54,126.25 419.48,125.95 419.41,125.66 419.32,125.36 419.23,125.07 419.13,124.85 419.03,124.63 418.91,124.42 418.79,124.22 418.64,124.03 418.48,123.85 418.3,123.69 418.12,123.52 417.94,123.42 417.76,123.31 417.58,123.22 417.39,123.15 417.2,123.09 417,123.06 416.79,123.03 416.59,123.02 416.39,123.03 416.19,123.05 415.99,123.09 415.81,123.14 415.63,123.21 415.45,123.3 415.28,123.4 415.11,123.51 414.94,123.68 414.77,123.86 414.61,124.04 414.47,124.24 414.35,124.45 414.25,124.67 414.15,124.89 414.05,125.12 413.93,125.52 413.8,125.91 413.69,126.31 413.57,126.71 413.47,127.11 413.37,127.51 413.27,127.91 413.18,128.31 413.07,128.76 412.96,129.2 412.84,129.64 412.71,130.08 412.57,130.51 412.41,130.93 412.24,131.36 412.06,131.78 411.9,132.06 411.73,132.33 411.55,132.6 411.35,132.84 411.13,133.08 410.89,133.29 410.64,133.49 410.39,133.69 410.13,133.83 409.86,133.96 409.59,134.07 409.32,134.17 409.04,134.23 408.75,134.27 408.45,134.3 408.16,134.32 407.82,134.29 407.48,134.26 407.15,134.2 406.83,134.12 406.52,134.01 406.21,133.87 405.91,133.72 405.62,133.55 405.33,133.32 405.05,133.08 404.79,132.83 404.55,132.56 404.34,132.27 404.16,131.96 403.99,131.63 403.83,131.3 403.69,130.9 403.56,130.5 403.45,130.09 403.36,129.68 403.3,129.27 403.26,128.85 403.23,128.43 403.21,128.01 403.23,127.56 403.25,127.11 403.3,126.66 403.36,126.22 403.45,125.78 403.57,125.35 403.71,124.92 403.86,124.49 404.03,124.15 404.21,123.81 404.4,123.48 404.62,123.18 404.87,122.89 405.15,122.63 405.44,122.39 405.75,122.15 406.08,121.97 406.41,121.79 406.75,121.64 407.1,121.51 407.46,121.42 407.82,121.35 408.2,121.31 408.57,121.27 408.74,123.54 408.38,123.6 408.01,123.68 407.66,123.78 407.33,123.91 407.02,124.08 406.73,124.29 406.45,124.53 406.17,124.78 405.96,125.14 405.77,125.51 405.6,125.88 405.47,126.27 405.39,126.67 405.34,127.08 405.32,127.49 405.31,127.91 405.31,128.33 405.33,128.74 405.37,129.15 405.44,129.55 405.56,129.94 405.71,130.31 405.9,130.68 406.09,131.05 406.29,131.25 406.49,131.45 406.7,131.62 406.93,131.77 407.18,131.87 407.44,131.95 407.72,131.99 408,132.03 408.22,132.01 408.45,131.98 408.67,131.93 408.87,131.86 409.06,131.76 409.24,131.63 409.42,131.49 409.59,131.34 409.82,130.92 410.04,130.49 410.24,130.06 410.4,129.61 410.54,129.16 410.66,128.7 410.77,128.23 410.87,127.76 410.98,127.25 411.1,126.75 411.22,126.25 411.35,125.75 411.5,125.25 411.66,124.76 411.83,124.27 412.01,123.79 412.18,123.45 412.36,123.12 412.55,122.8 412.77,122.5 413.01,122.22 413.27,121.96 413.55,121.72 413.84,121.48 414.14,121.31 414.44,121.15 414.74,121.02 415.06,120.91 415.38,120.83 415.71,120.78 416.05,120.75 416.39,120.73 416.75,120.76 417.11,120.8 417.46,120.85 417.8,120.94 418.13,121.06 418.45,121.21 418.77,121.37 419.09,121.55 419.4,121.79 419.7,122.04 419.98,122.3 420.24,122.58 420.47,122.89 420.68,123.22 420.87,123.56 421.06,123.9 421.21,124.32 421.36,124.74 421.49,125.16 421.6,125.59 421.67,126.03 421.71,126.47 421.74,126.91 421.76,127.36 421.75,127.88 421.72,128.4 421.68,128.92 421.61,129.44 421.51,129.94 421.37,130.45 421.22,130.94 421.05,131.44" style="fill:none;stroke:black;stroke-width:0.5"/>
<polyline points="367.65,108.89 367.65,111.19 367.46,111.27 367.26,111.35 367.07,111.42 366.87,111.48 366.67,111.53 366.46,111.57 366.26,111.6 366.05,111.63 366.27,111.9 366.48,112.17 366.69,112.45 366.88,112.74 367.06,113.04 367.22,113.35 367.37,113.66 367.52,113.98 367.61,114.28 367.7,114.58 367.78,114.87 367.84,115.18 367.89,115.48 367.91,115.79 367.93,116.1 367.95,116.41 367.92,116.86 367.83,117.74 367.73,118.16 367.58,118.56 367.38,118.95 367.15,119.33 366.9,119.7 366.61,119.95 366.32,120.19 366.01,120.4 365.69,120.57 365.35,120.69 364.98,120.77 364.61,120.82 364.23,120.85 364,120.84 363.77,120.82 363.55,120.79 363.33,120.75 363.11,120.68 362.9,120.6 362.69,120.51 362.48,120.42 362.3,120.3 362.12,120.18 361.95,120.06 361.78,119.92 361.63,119.78 361.49,119.62 361.35,119.45 361.22,119.28 361.1,119.09 360.99,118.9 360.89,118.71 360.79,118.52 360.71,118.32 360.63,118.11 360.56,117.9 360.49,117.7 360.44,117.45 360.39,117.21 360.34,116.97 360.3,116.72 360.26,116.48 360.23,116.23 360.2,115.98 360.16,115.74 360.1,115.24 360.04,114.74 359.97,114.25 359.88,113.75 359.78,113.26 359.67,112.78 359.54,112.29 359.41,111.81 359.33,111.81 359.26,111.81 359.19,111.81 359.12,111.8 359.05,111.8 358.97,111.8 358.9,111.8 358.83,111.8 358.57,111.81 358.31,111.82 358.06,111.85 357.81,111.91 357.58,112 357.36,112.12 357.14,112.27 356.93,112.42 356.75,112.71 356.59,113 356.44,113.3 356.33,113.6 356.26,113.92 356.22,114.25 356.2,114.59 356.19,114.93 356.19,115.23 356.21,115.53 356.24,115.83 356.29,116.12 356.36,116.41 356.47,116.68 356.6,116.96 356.73,117.22 356.94,117.42 357.15,117.61 357.37,117.79 357.6,117.93 357.85,118.05 358.11,118.15 358.38,118.24 358.66,118.32 358.37,120.47 358.07,120.4 357.77,120.32 357.48,120.23 357.19,120.12 356.92,119.99 356.65,119.84 356.39,119.67 356.13,119.51 355.92,119.3 355.71,119.08 355.52,118.86 355.34,118.63 355.19,118.37 355.06,118.11 354.94,117.84 354.82,117.56 354.72,117.2 354.62,116.84 354.53,116.47 354.47,116.11 354.42,115.74 354.39,115.36 354.38,114.99 354.37,114.61 354.37,114.27 354.38,113.92 354.41,113.58 354.44,113.24 354.5,112.91 354.58,112.57 354.66,112.24 354.76,111.91 354.85,111.69 354.94,111.48 355.04,111.28 355.15,111.08 355.28,110.89 355.43,110.72 355.58,110.55 355.74,110.38 355.91,110.26 356.09,110.15 356.27,110.04 356.45,109.95 356.64,109.87 356.84,109.8 357.04,109.75 357.24,109.69 357.49,109.66 357.75,109.64 358,109.61 358.25,109.6 358.51,109.59 358.76,109.59 359.02,109.58 359.27,109.58 362.21,109.58 362.69,109.59 363.18,109.59 363.67,109.58 364.15,109.57 364.64,109.55 365.12,109.52 365.61,109.49 366.09,109.44 366.3,109.4 366.5,109.35 366.7,109.3 366.9,109.23 367.09,109.16 367.28,109.07 367.47,108.98 367.65,108.89" style="fill:none;stroke:black;stroke-width:0.5"/>
<polyline points="306.56,132.63 313.85,132.63 313.85,135.01 295.91,135.01 295.91,128.24 295.92,127.9 295.92,127.56 295.93,127.21 295.94,126.87 295.97,126.53 296,126.19 296.09,125.51 296.15,125.22 296.21,124.93 296.29,124.64 296.38,124.36 296.5,124.08 296.63,123.82 296.77,123.56 296.92,123.3 297.11,123.08 297.29,122.86 297.49,122.66 297.7,122.47 297.92,122.3 298.16,122.14 298.4,122 298.65,121.86 298.95,121.74 299.24,121.63 299.54,121.53 299.85,121.45 300.16,121.39 300.47,121.36 300.78,121.33 301.1,121.32 301.64,121.36 302.17,121.42 302.68,121.52 303.18,121.67 303.65,121.88 304.1,122.15 304.54,122.45 304.97,122.77 305.38,123.36 305.75,123.96 306.07,124.58 306.29,125.22 306.44,125.9 306.51,126.6 306.55,127.31 306.56,128.03 306.56,132.63" style="fill:none;stroke:black;stroke-width:0.5"/>
<polyline points="321.02,92.86 321.22,91 321.8,89.21 322.74,87.59 323.99,86.2 325.51,85.09 327.22,84.33 329.05,83.94 330.93,83.94 332.76,84.33 334.47,85.09 335.99,86.2 337.24,87.59 338.18,89.21 338.76,91 338.96,92.86 338.76,94.72 338.18,96.51 337.24,98.13 335.99,99.52 334.47,100.63 332.76,101.39 330.93,101.78 329.05,101.78 327.22,101.39 325.51,100.63 323.99,99.52 322.74,98.13 321.8,96.51 321.22,94.72 321.02,92.86" style="fill:none;stroke:black;stroke-width:0.5"/>
<polyline points="321.02,507.14 321.22,505.28 321.8,503.49 322.74,501.87 323.99,500.48 325.51,499.37 327.22,498.61 329.05,498.22 330.93,498.22 332.76,498.61 334.47,499.37 335.99,500.48 337.24,501.87 338.18,503.49 338.76,505.28 338.96,507.14 338.76,509 338.18,510.79 337.24,512.41 335.99,513.8 334.47,514.91 332.76,515.67 330.93,516.06 329.05,516.06 327.22,515.67 325.51,514.91 323.99,513.8 322.74,512.41 321.8,510.79 321.22,509 321.02,507.14" style="fill:none;stroke:black;stroke-width:0.5"/>
<polyline points="374.83,507.14 375.02,505.28 375.6,503.49 376.54,501.87 377.79,500.48 379.31,499.37 381.02,498.61 382.85,498.22 384.73,498.22 386.56,498.61 388.28,499.37 389.79,500.48 391.05,501.87 391.98,503.49 392.56,505.28 392.76,507.14 392.56,509 391.98,510.79 391.05,512.41 389.79,513.8 388.28,514.91 386.56,515.67 384.73,516.06 382.85,516.06 381.02,515.67 379.31,514.91 377.79,513.8 376.54,512.41 375.6,510.79 375.02,509 374.83,507.14" style="fill:none;stroke:black;stroke-width:0.5"/>
<polyline points="428.63,92.86 428.82,91 429.4,89.21 430.34,87.59 431.59,86.2 433.11,85.09 434.82,84.33 436.66,83.94 438.53,83.94 440.37,84.33 442.08,85.09 443.59,86.2 444.85,87.59 445.79,89.21 446.37,91 446.56,92.86 446.37,94.72 445.79,96.51 444.85,98.13 443.59,99.52 442.08,100.63 440.37,101.39 438.53,101.78 436.66,101.78 434.82,101.39 433.11,100.63 431.59,99.52 430.34,98.13 429.4,96.51 428.82,94.72 428.63,92.86" style="fill:none;stroke:black;stroke-width:0.5"/>
<polyline points="374.83,92.86 375.02,91 375.6,89.21 376.54,87.59 377.79,86.2 379.31,85.09 381.02,84.33 382.85,83.94 384.73,83.94 386.56,84.33 388.28,85.09 389.79,86.2 391.05,87.59 391.98,89.21 392.56,91 392.76,92.86 392.56,94.72 391.98,96.51 391.05,98.13 389.79,99.52 388.28,100.63 386.56,101.39 384.73,101.78 382.85,101.78 381.02,101.39 379.31,100.63 377.79,99.52 376.54,98.13 375.6,96.51 375.02,94.72 374.83,92.86" style="fill:none;stroke:black;stroke-width:0.5"/>
<polyline points="426.83,478.45 427.03,476.41 427.61,474.45 428.54,472.63 429.81,471.02 431.35,469.68 433.12,468.66 435.06,467.99 437.08,467.7 439.13,467.79 441.11,468.28 442.98,469.13 444.64,470.31 446.05,471.79 447.16,473.51 447.92,475.41 448.31,477.42 448.31,479.47 447.92,481.48 447.16,483.38 446.05,485.1 444.64,486.58 442.98,487.76 441.11,488.61 439.13,489.1 437.08,489.19 435.06,488.9 433.12,488.23 431.35,487.21 429.81,485.87 428.54,484.26 427.61,482.44 427.03,480.48 426.83,478.45" style="fill:none;stroke:black;stroke-width:0.5"/>
<polyline points="426.83,128.73 427.03,126.69 427.61,124.73 428.54,122.91 429.81,121.3 431.35,119.96 433.12,118.94 435.06,118.27 437.08,117.98 439.13,118.08 441.11,118.56 442.98,119.41 444.64,120.6 446.05,122.08 447.16,123.8 447.92,125.7 448.31,127.71 448.31,129.75 447.92,131.76 447.16,133.66 446.05,135.38 444.64,136.86 442.98,138.05 441.11,138.9 439.13,139.38 437.08,139.48 435.06,139.19 433.12,138.52 431.35,137.49 429.81,136.15 428.54,134.55 427.61,132.73 427.03,130.76 426.83,128.73" style="fill:none;stroke:black;stroke-width:0.5"/>
<polyline points="373.03,128.73 373.23,126.69 373.8,124.73 374.74,122.91 376,121.3 377.55,119.96 379.32,118.94 381.26,118.27 383.28,117.98 385.32,118.08 387.31,118.56 389.17,119.41 390.84,120.6 392.25,122.08 393.36,123.8 394.12,125.7 394.5,127.71 394.5,129.75 394.12,131.76 393.36,133.66 392.25,135.38 390.84,136.86 389.17,138.05 387.31,138.9 385.32,139.38 383.28,139.48 381.26,139.19 379.32,138.52 377.55,137.49 376,136.15 374.74,134.55 373.8,132.73 373.23,130.76 373.03,128.73" style="fill:none;stroke:black;stroke-width:0.5"/>
<polyline points="319.23,128.73 319.42,126.69 320,124.73 320.94,122.91 322.2,121.3 323.75,119.96 325.52,118.94 327.45,118.27 329.48,117.98 331.52,118.08 333.51,118.56 335.37,119.41 337.04,120.6 338.45,122.08 339.55,123.8 340.31,125.7 340.7,127.71 340.7,129.75 340.31,131.76 339.55,133.66 338.45,135.38 337.04,136.86 335.37,138.05 333.51,138.9 331.52,139.38 329.48,139.48 327.45,139.19 325.52,138.52 323.75,137.49 322.2,136.15 320.94,134.55 320,132.73 319.42,130.76 319.23,128.73" style="fill:none;stroke:black;stroke-width:0.5"/>
<polyline points="462.7,167.29 462.89,165.89 463.42,164.6 464.28,163.48 465.39,162.63 466.69,162.09 468.08,161.91 469.48,162.09 470.77,162.63 471.89,163.48 472.74,164.6 473.28,165.89 473.46,167.29 473.28,168.68 472.74,169.98 471.89,171.09 470.77,171.95 469.48,172.48 468.08,172.67 466.69,172.48 465.39,171.95 464.28,171.09 463.42,169.98 462.89,168.68 462.7,167.29" style="fill:none;stroke:black;stroke-width:0.5"/>
<polyline points="462.7,375.32 462.89,373.93 463.42,372.63 464.28,371.52 465.39,370.66 466.69,370.13 468.08,369.94 469.48,370.13 470.77,370.66 471.89,371.52 472.74,372.63 473.28,373.93 473.46,375.32 473.28,376.72 472.74,378.01 471.89,379.13 470.77,379.98 469.48,380.52 468.08,380.7 466.69,380.52 465.39,379.98 464.28,379.13 463.42,378.01 462.89,376.72 462.7,375.32" style="fill:none;stroke:black;stroke-width:0.5"/>
<polyline points="286.95,375.32 287.13,373.93 287.67,372.63 288.52,371.52 289.64,370.66 290.94,370.13 292.33,369.94 293.72,370.13 295.02,370.66 296.13,371.52 296.99,372.63 297.52,373.93 297.71,375.32 297.52,376.72 296.99,378.01 296.13,379.13 295.02,379.98 293.72,380.52 292.33,380.7 290.94,380.52 289.64,379.98 288.52,379.13 287.67,378.01 287.13,376.72 286.95,375.32" style="fill:none;stroke:black;stroke-width:0.5"/>
<polyline points="286.95,167.29 287.13,165.89 287.67,164.6 288.52,163.48 289.64,162.63 290.94,162.09 292.33,161.91 293.72,162.09 295.02,162.63 296.13,163.48 296.99,164.6 297.52,165.89 297.71,167.29 297.52,168.68 296.99,169.98 296.13,171.09 295.02,171.95 293.72,172.48 292.33,172.67 290.94,172.48 289.64,171.95 288.52,171.09 287.67,169.98 287.13,168.68 286.95,167.29" style="fill:none;stroke:black;stroke-width:0.5"/>
</svg>
