<?xml version="1.0" encoding="UTF-8"?>
<svg xmlns="http://www.w3.org/2000/svg" width="800.000" height="600.000" viewBox="0.0 0.0 800.000 600.000" version="1.1">
  <title>Produce by Acme CAD Converter</title>
  <desc>Produce by Acme CAD Converter</desc>
<polyline points="162.75,330.53 140.26,343.52 117.77,330.53 117.77,304.55 140.26,291.57 162.75,304.55 162.75,330.53" style="fill:none;stroke:black;stroke-width:0.5"/>
<polyline points="214.7,330.53 192.21,343.52 169.71,330.53 169.71,304.55 192.21,291.57 214.7,304.55 214.7,330.53" style="fill:none;stroke:black;stroke-width:0.5"/>
<polyline points="299.58,375.52 299.58,349.54 315.22,340.52 328.94,340.52 344.57,349.54 344.57,375.52 322.08,388.5 299.58,375.52" style="fill:none;stroke:black;stroke-width:0.5"/>
<polyline points="351.53,465.49 351.53,439.52 363.59,432.56 384.47,432.56 396.52,439.52 396.52,465.49 374.03,478.48 351.53,465.49" style="fill:none;stroke:black;stroke-width:0.5"/>
<polyline points="403.48,439.52 415.53,432.56 436.41,432.56 448.47,439.52 448.47,465.49 425.97,478.48 403.48,465.49 403.48,439.52" style="fill:none;stroke:black;stroke-width:0.5"/>
<polyline points="459.74,396.2 429.45,396.2 429.45,394.53 451.95,381.54 474.44,394.53 474.44,403.68 474.44,403.68 472.87,401.81 471.07,400.16 469.06,398.77 466.88,397.66 464.57,396.85 462.18,396.36 459.74,396.2" style="fill:none;stroke:black;stroke-width:0.5"/>
<polyline points="110.81,330.53 88.31,343.52 65.82,330.53 65.82,304.55 88.31,291.57 110.81,304.55 110.81,330.53" style="fill:none;stroke:black;stroke-width:0.5"/>
<polyline points="422.49,394.53 422.49,396.2 377.51,396.2 377.51,394.53 400,381.54 422.49,394.53" style="fill:none;stroke:black;stroke-width:0.5"/>
<polyline points="266.65,330.53 244.16,343.52 221.66,330.53 221.66,304.55 244.16,291.57 266.65,304.55 266.65,330.53" style="fill:none;stroke:black;stroke-width:0.5"/>
<polyline points="270.13,298.53 247.64,285.54 247.64,259.57 270.13,246.58 292.62,259.57 292.62,285.54 270.13,298.53" style="fill:none;stroke:black;stroke-width:0.5"/>
<polyline points="247.64,375.52 247.64,349.54 270.13,336.56 292.62,349.54 292.62,375.52 270.13,388.5 247.64,375.52" style="fill:none;stroke:black;stroke-width:0.5"/>
<polyline points="351.53,375.52 351.53,349.54 367.17,340.52 380.89,340.52 396.52,349.54 396.52,375.52 374.03,388.5 351.53,375.52" style="fill:none;stroke:black;stroke-width:0.5"/>
<polyline points="240.68,349.54 240.68,375.52 218.18,388.5 195.69,375.52 195.69,349.54 218.18,336.56 240.68,349.54" style="fill:none;stroke:black;stroke-width:0.5"/>
<polyline points="403.48,375.52 403.48,349.54 419.11,340.52 432.83,340.52 448.47,349.54 448.47,375.52 425.97,388.5 403.48,375.52" style="fill:none;stroke:black;stroke-width:0.5"/>
<polyline points="266.65,420.51 244.16,433.49 221.66,420.51 221.66,394.53 244.16,381.54 266.65,394.53 266.65,420.51" style="fill:none;stroke:black;stroke-width:0.5"/>
<polyline points="455.43,375.52 455.43,349.54 471.06,340.52 484.78,340.52 500.42,349.54 500.42,375.52 477.92,388.5 455.43,375.52" style="fill:none;stroke:black;stroke-width:0.5"/>
<polyline points="318.6,420.51 296.1,433.49 273.61,420.51 273.61,394.53 296.1,381.54 318.6,394.53 318.6,420.51" style="fill:none;stroke:black;stroke-width:0.5"/>
<polyline points="434.2,175.42 436.5,175.59 438.76,176.1 440.91,176.93 442.91,178.08 444.73,179.51 446.31,181.19 447.63,183.09 448.65,185.16 448.65,185.16 449.92,187.85 451.49,190.37 453.34,192.7 455.44,194.8 457.77,196.65 460.3,198.22 462.99,199.5 462.99,199.5 465.06,200.52 466.95,201.83 468.64,203.42 470.06,205.23 471.21,207.24 472.05,209.39 472.56,211.64 472.73,213.94 472.73,282.35 472.73,282.35 472.56,284.65 472.05,286.9 471.21,289.05 470.06,291.06 468.64,292.87 466.95,294.45 465.06,295.77 462.99,296.79 462.99,296.79 460.3,298.06 457.77,299.63 455.44,301.48 453.34,303.59 451.49,305.92 449.92,308.44 448.65,311.13 448.65,311.13 447.63,313.2 446.31,315.1 444.73,316.78 442.91,318.21 440.91,319.35 438.76,320.19 436.5,320.7 434.2,320.87 365.8,320.87 365.8,320.87 363.5,320.7 361.24,320.19 359.09,319.35 357.09,318.21 355.27,316.78 353.69,315.1 352.37,313.2 351.35,311.13 351.35,311.13 350.08,308.44 348.51,305.92 346.66,303.59 344.56,301.48 342.23,299.63 339.7,298.06 337.01,296.79 337.01,296.79 334.94,295.77 333.05,294.45 331.36,292.87 329.94,291.06 328.79,289.05 327.95,286.9 327.44,284.65 327.27,282.35 327.27,213.94 327.27,213.94 327.44,211.64 327.95,209.39 328.79,207.24 329.94,205.23 331.36,203.42 333.05,201.83 334.94,200.52 337.01,199.5 337.01,199.5 339.7,198.22 342.23,196.65 344.56,194.8 346.66,192.7 348.51,190.37 350.08,187.85 351.35,185.16 351.35,185.16 352.37,183.09 353.69,181.19 355.27,179.51 357.09,178.08 359.09,176.93 361.24,176.1 363.5,175.59 365.8,175.42 434.2,175.42" style="fill:none;stroke:black;stroke-width:0.5"/>
<polyline points="630.29,330.53 607.79,343.52 585.3,330.53 585.3,304.55 607.79,291.57 630.29,304.55 630.29,330.53" style="fill:none;stroke:black;stroke-width:0.5"/>
<polyline points="247.64,465.49 247.64,439.52 270.13,426.53 292.62,439.52 292.62,465.49 270.13,478.48 247.64,465.49" style="fill:none;stroke:black;stroke-width:0.5"/>
<polyline points="374.03,516.51 386.08,523.47 374.03,523.47 361.97,523.47 374.03,516.51" style="fill:none;stroke:black;stroke-width:0.5"/>
<polyline points="734.18,330.53 711.69,343.52 689.19,330.53 689.19,304.55 711.69,291.57 734.18,304.55 734.18,330.53" style="fill:none;stroke:black;stroke-width:0.5"/>
<polyline points="578.34,497.49 533.35,497.49 533.35,484.51 555.84,471.52 578.34,484.51 578.34,497.49" style="fill:none;stroke:black;stroke-width:0.5"/>
<polyline points="688.66,380.15 687.2,381.47 685.52,382.49 683.68,383.18 681.74,383.51 679.78,383.46 677.86,383.05 676.05,382.28 674.41,381.18 674.41,381.18 670.87,378.51 667.13,376.12 663.22,374.02 663.22,349.54 685.71,336.56 708.21,349.54 708.21,371.7 708.21,371.7 705.08,371.85 701.99,372.37 698.99,373.26 696.11,374.5 693.41,376.08 690.91,377.97 688.66,380.15" style="fill:none;stroke:black;stroke-width:0.5"/>
<polyline points="594,461.6 595.03,463.11 595.78,464.78 596.22,466.56 596.35,468.39 596.15,470.21 581.82,478.48 559.32,465.49 559.32,439.52 581.1,426.95 581.1,426.95 581.42,431.64 582.13,436.29 583.21,440.87 584.67,445.34 586.49,449.68 588.67,453.85 591.17,457.83 594,461.6" style="fill:none;stroke:black;stroke-width:0.5"/>
<polyline points="604.31,259.57 604.31,285.54 581.82,298.53 559.32,285.54 559.32,259.57 581.82,246.58 604.31,259.57" style="fill:none;stroke:black;stroke-width:0.5"/>
<polyline points="559.61,211.78 573.49,211.78 578.34,214.58 578.34,240.55 555.84,253.54 533.35,240.55 533.35,238.31 533.35,238.31 536.26,237 538.99,235.34 541.49,233.37 543.73,231.1 545.68,228.57 547.3,225.82 548.58,222.9 549.48,219.84 549.48,219.84 550.11,217.95 551.09,216.21 552.39,214.7 553.95,213.46 555.71,212.54 557.62,211.97 559.61,211.78" style="fill:none;stroke:black;stroke-width:0.5"/>
<polyline points="413.92,523.47 425.97,516.51 438.03,523.47 425.97,523.47 413.92,523.47" style="fill:none;stroke:black;stroke-width:0.5"/>
<polyline points="590.14,211.78 623.38,211.78 623.38,211.78 625.17,211.62 630.29,214.58 630.29,240.55 607.79,253.54 585.3,240.55 585.3,214.58 590.14,211.78" style="fill:none;stroke:black;stroke-width:0.5"/>
<polyline points="611.27,259.57 633.77,246.58 656.26,259.57 656.26,285.54 633.77,298.53 611.27,285.54 611.27,259.57" style="fill:none;stroke:black;stroke-width:0.5"/>
<polyline points="675.32,185.81 677.13,185.96 678.88,186.43 680.52,187.2 682,188.24 683.28,189.52 684.32,191 685.09,192.64 685.56,194.39 685.71,196.2 685.71,201.39 685.71,201.39 685.84,203 686.21,204.56 686.82,206.05 687.65,207.43 685.71,208.55 663.22,195.56 663.22,185.81 675.32,185.81" style="fill:none;stroke:black;stroke-width:0.5"/>
<polyline points="448.03,521.21 429.45,510.48 429.45,484.51 451.95,471.52 474.44,484.51 474.44,497.49 462.34,497.49 462.34,497.49 460.53,497.65 458.78,498.12 457.14,498.89 455.66,499.93 454.38,501.21 453.34,502.69 452.57,504.33 452.11,506.08 451.95,507.88 451.95,513.08 451.95,513.08 451.78,514.94 451.28,516.73 450.48,518.41 449.38,519.92 448.03,521.21" style="fill:none;stroke:black;stroke-width:0.5"/>
<polyline points="637.25,214.58 659.74,201.59 682.23,214.58 682.23,240.55 659.74,253.54 637.25,240.55 637.25,214.58" style="fill:none;stroke:black;stroke-width:0.5"/>
<polyline points="604.31,375.52 581.82,388.5 559.32,375.52 559.32,349.54 581.82,336.56 604.31,349.54 604.31,375.52" style="fill:none;stroke:black;stroke-width:0.5"/>
<polyline points="633.77,196.2 633.92,194.39 634.39,192.64 635.16,191 636.2,189.52 637.48,188.24 638.96,187.2 640.6,186.43 642.35,185.96 644.16,185.81 656.26,185.81 656.26,195.56 633.77,208.55 631.83,207.43 631.83,207.43 632.66,206.05 633.27,204.56 633.64,203 633.77,201.39 633.77,196.2" style="fill:none;stroke:black;stroke-width:0.5"/>
<polyline points="695.03,431.91 708.21,439.52 708.21,465.49 685.71,478.48 672.71,470.97 672.71,470.97 676.23,468.09 679.5,464.93 682.51,461.52 685.24,457.88 687.68,454.04 689.8,450.02 691.59,445.84 693.05,441.53 694.16,437.12 694.91,432.63 694.91,432.63 695.03,431.91" style="fill:none;stroke:black;stroke-width:0.5"/>
<polyline points="377.51,484.51 400,471.52 422.49,484.51 422.49,510.48 400,523.47 377.51,510.48 377.51,484.51" style="fill:none;stroke:black;stroke-width:0.5"/>
<polyline points="529.87,426.53 552.36,439.52 552.36,465.49 529.87,478.48 507.38,465.49 507.38,439.52 529.87,426.53" style="fill:none;stroke:black;stroke-width:0.5"/>
<polyline points="637.25,488.23 638.1,486.66 639.21,485.27 640.54,484.08 642.05,483.14 643.71,482.47 645.45,482.09 645.45,482.09 649.78,481.37 654.05,480.32 658.22,478.94 662.28,477.24 666.19,475.24 682.23,484.51 682.23,510.48 659.74,523.47 637.25,510.48 637.25,488.23" style="fill:none;stroke:black;stroke-width:0.5"/>
<polyline points="552.36,259.57 552.36,285.54 529.87,298.53 507.38,285.54 507.38,259.57 529.87,246.58 552.36,259.57" style="fill:none;stroke:black;stroke-width:0.5"/>
<polyline points="455.43,439.52 477.92,426.53 500.42,439.52 500.42,465.49 477.92,478.48 455.43,465.49 455.43,439.52" style="fill:none;stroke:black;stroke-width:0.5"/>
<polyline points="578.34,330.53 555.84,343.52 533.35,330.53 533.35,304.55 555.84,291.57 578.34,304.55 578.34,330.53" style="fill:none;stroke:black;stroke-width:0.5"/>
<polyline points="555.84,381.54 578.34,394.53 578.34,420.51 555.84,433.49 533.35,420.51 533.35,394.53 555.84,381.54" style="fill:none;stroke:black;stroke-width:0.5"/>
<polyline points="611.27,349.54 633.77,336.56 656.26,349.54 656.26,371.19 656.26,371.19 651.8,369.9 647.25,368.98 642.64,368.44 638.01,368.27 633.37,368.47 628.77,369.05 624.23,370.01 619.78,371.33 615.45,373 611.27,375.02 611.27,349.54" style="fill:none;stroke:black;stroke-width:0.5"/>
<polyline points="526.39,394.53 526.39,420.51 503.9,433.49 481.4,420.51 481.4,394.53 503.9,381.54 526.39,394.53" style="fill:none;stroke:black;stroke-width:0.5"/>
<polyline points="526.39,497.49 481.4,497.49 481.4,484.51 503.9,471.52 526.39,484.51 526.39,497.49" style="fill:none;stroke:black;stroke-width:0.5"/>
<polyline points="708.21,285.54 685.71,298.53 663.22,285.54 663.22,259.57 685.71,246.58 708.21,259.57 708.21,285.54" style="fill:none;stroke:black;stroke-width:0.5"/>
<polyline points="682.23,330.53 659.74,343.52 637.25,330.53 637.25,304.55 659.74,291.57 682.23,304.55 682.23,330.53" style="fill:none;stroke:black;stroke-width:0.5"/>
<polyline points="529.87,388.5 507.38,375.52 507.38,349.54 529.87,336.56 552.36,349.54 552.36,375.52 529.87,388.5" style="fill:none;stroke:black;stroke-width:0.5"/>
<polyline points="685.71,159.83 633.77,159.83 633.77,133.86 685.71,133.86 685.71,159.83" style="fill:none;stroke:black;stroke-width:0.5"/>
<polyline points="244.16,471.52 266.65,484.51 266.65,497.49 221.66,497.49 221.66,484.51 244.16,471.52" style="fill:none;stroke:black;stroke-width:0.5"/>
<polyline points="65.82,414.38 72.27,414.38 72.27,414.38 74.38,416.6 76.73,418.57 79.3,420.24 82.05,421.6 84.94,422.62 87.92,423.3 90.97,423.62 94.04,423.58 94.04,423.58 96.01,423.63 97.95,424.05 99.76,424.83 101.4,425.94 88.31,433.49 65.82,420.51 65.82,414.38" style="fill:none;stroke:black;stroke-width:0.5"/>
<polyline points="91.79,439.52 104.97,431.91 104.97,431.91 105.09,432.63 105.09,432.63 105.84,437.12 106.95,441.53 108.41,445.84 110.2,450.02 112.32,454.04 114.76,457.88 117.49,461.52 120.5,464.93 123.77,468.09 127.29,470.97 114.29,478.48 91.79,465.49 91.79,439.52" style="fill:none;stroke:black;stroke-width:0.5"/>
<polyline points="698.6,425.94 700.24,424.83 702.05,424.05 703.99,423.63 705.96,423.58 705.96,423.58 709.03,423.62 712.08,423.3 715.06,422.62 717.95,421.6 720.7,420.24 723.27,418.57 725.62,416.6 727.73,414.38 734.18,414.38 734.18,420.51 711.69,433.49 698.6,425.94" style="fill:none;stroke:black;stroke-width:0.5"/>
<polyline points="340.26,419.57 338.92,419.4 337.66,418.88 336.59,418.05 335.76,416.98 335.24,415.72 335.06,414.38 335.24,413.03 335.76,411.78 336.59,410.7 337.66,409.88 338.92,409.36 340.26,409.18 459.74,409.18 459.74,409.18 461.08,409.36 462.34,409.88 463.41,410.7 464.24,411.78 464.76,413.03 464.94,414.38 464.76,415.72 464.24,416.98 463.41,418.05 462.34,418.88 461.08,419.4 459.74,419.57 340.26,419.57" style="fill:none;stroke:black;stroke-width:0.5"/>
<polyline points="166.23,133.86 166.23,159.83 114.29,159.83 114.29,133.86 166.23,133.86" style="fill:none;stroke:black;stroke-width:0.5"/>
<polyline points="131.32,476.68 132.5,476.18 133.77,475.99 135.04,476.1 136.24,476.53 136.24,476.53 139.74,478.13 143.33,479.49 147.01,480.61 150.76,481.48 154.55,482.09 154.55,482.09 156.29,482.47 157.95,483.14 159.46,484.08 160.79,485.27 161.9,486.66 162.75,488.23 162.75,510.48 140.26,523.47 117.77,510.48 117.77,484.51 131.32,476.68" style="fill:none;stroke:black;stroke-width:0.5"/>
<polyline points="464.94,68.61 464.94,141.34 392.21,141.34 392.21,68.61 464.94,68.61" style="fill:none;stroke:black;stroke-width:0.5"/>
<polyline points="498.7,294.57 503.9,291.57 526.39,304.55 526.39,330.53 503.9,343.52 498.7,340.52 498.7,294.57" style="fill:none;stroke:black;stroke-width:0.5"/>
<polyline points="498.7,219.24 498.86,219.84 498.86,219.84 499.73,222.81 500.95,225.65 502.5,228.33 504.35,230.8 506.49,233.04 508.88,235.01 511.48,236.68 514.27,238.02 517.19,239.03 520.22,239.68 523.3,239.97 526.39,239.89 526.39,240.55 503.9,253.54 498.7,250.54 498.7,219.24" style="fill:none;stroke:black;stroke-width:0.5"/>
<polyline points="273.61,304.55 296.1,291.57 301.3,294.57 301.3,340.52 296.1,343.52 273.61,330.53 273.61,304.55" style="fill:none;stroke:black;stroke-width:0.5"/>
<polyline points="84.39,473.78 88.31,471.52 110.81,484.51 110.81,500.13 110.81,500.13 109.29,499 107.59,498.17 105.78,497.67 103.9,497.49 98.7,497.49 98.7,497.49 96.9,497.34 95.15,496.87 93.51,496.1 92.02,495.06 90.74,493.78 89.7,492.3 88.94,490.66 88.47,488.91 88.31,487.11 88.31,481.91 88.31,481.91 88.14,480.05 87.65,478.26 86.84,476.58 85.74,475.07 84.39,473.78" style="fill:none;stroke:black;stroke-width:0.5"/>
<polyline points="273.61,240.55 273.61,239.89 273.61,239.89 276.7,239.97 279.78,239.68 282.81,239.03 285.73,238.02 288.52,236.68 291.12,235.01 293.51,233.04 295.65,230.8 297.5,228.33 299.05,225.65 300.27,222.81 301.14,219.84 301.14,219.84 301.3,219.24 301.3,250.54 296.1,253.54 273.61,240.55" style="fill:none;stroke:black;stroke-width:0.5"/>
<polyline points="221.66,214.58 226.51,211.78 240.39,211.78 240.39,211.78 242.38,211.97 244.29,212.54 246.05,213.46 247.61,214.7 248.91,216.21 249.89,217.95 250.52,219.84 250.52,219.84 251.42,222.9 252.7,225.82 254.32,228.57 256.27,231.1 258.51,233.37 261.01,235.34 263.74,237 266.65,238.31 266.65,240.55 244.16,253.54 221.66,240.55 221.66,214.58" style="fill:none;stroke:black;stroke-width:0.5"/>
<polyline points="169.71,214.58 174.83,211.62 174.83,211.62 176.62,211.78 209.86,211.78 214.7,214.58 214.7,240.55 192.21,253.54 169.71,240.55 169.71,214.58" style="fill:none;stroke:black;stroke-width:0.5"/>
<polyline points="155.84,185.81 157.65,185.96 159.4,186.43 161.04,187.2 162.52,188.24 163.8,189.52 164.84,191 165.61,192.64 166.08,194.39 166.23,196.2 166.23,201.39 166.23,201.39 166.36,203 166.73,204.56 167.34,206.05 168.17,207.43 166.23,208.55 143.74,195.56 143.74,185.81 155.84,185.81" style="fill:none;stroke:black;stroke-width:0.5"/>
<polyline points="701.3,497.49 696.1,497.49 696.1,497.49 694.22,497.67 692.41,498.17 690.71,499 689.19,500.13 689.19,484.51 711.69,471.52 711.69,487.11 711.69,487.11 711.53,488.91 711.06,490.66 710.3,492.3 709.26,493.78 707.98,495.06 706.49,496.1 704.85,496.87 703.1,497.34 701.3,497.49" style="fill:none;stroke:black;stroke-width:0.5"/>
<polyline points="114.29,208.55 112.35,207.43 112.35,207.43 113.18,206.05 113.79,204.56 114.16,203 114.29,201.39 114.29,196.2 114.29,196.2 114.44,194.39 114.91,192.64 115.68,191 116.72,189.52 118,188.24 119.48,187.2 121.12,186.43 122.87,185.96 124.68,185.81 136.78,185.81 136.78,195.56 114.29,208.55" style="fill:none;stroke:black;stroke-width:0.5"/>
<polyline points="727.27,445.55 722.08,445.55 722.08,445.55 720.2,445.72 718.38,446.23 716.69,447.06 715.17,448.18 715.17,439.52 737.66,426.53 737.66,435.16 737.66,435.16 737.5,436.96 737.04,438.71 736.27,440.35 735.23,441.84 733.95,443.12 732.47,444.15 730.83,444.92 729.08,445.39 727.27,445.55" style="fill:none;stroke:black;stroke-width:0.5"/>
<polyline points="84.83,349.54 84.83,372.76 84.83,372.76 81.85,373.84 79.03,375.27 76.4,377.04 74,379.11 71.88,381.46 70.05,384.05 62.34,388.5 62.34,336.56 84.83,349.54" style="fill:none;stroke:black;stroke-width:0.5"/>
<polyline points="715.17,349.54 737.66,336.56 737.66,388.5 729.95,384.05 729.95,384.05 728.12,381.46 726,379.11 723.6,377.04 720.97,375.27 718.15,373.84 715.17,372.76 715.17,349.54" style="fill:none;stroke:black;stroke-width:0.5"/>
<polyline points="136.78,349.54 136.78,374.02 136.78,374.02 132.87,376.12 129.13,378.51 125.59,381.18 125.59,381.18 123.95,382.28 122.14,383.05 120.22,383.46 118.26,383.51 116.32,383.18 114.48,382.49 112.8,381.47 111.34,380.15 111.34,380.15 109.09,377.97 106.59,376.08 103.89,374.5 101.01,373.26 98.01,372.37 94.92,371.85 91.79,371.7 91.79,349.54 114.29,336.56 136.78,349.54" style="fill:none;stroke:black;stroke-width:0.5"/>
<polyline points="166.23,336.56 188.73,349.54 188.73,375.02 188.73,375.02 184.55,373 180.22,371.33 175.77,370.01 171.23,369.05 166.63,368.47 161.99,368.27 157.36,368.44 152.75,368.98 148.2,369.9 143.74,371.19 143.74,349.54 166.23,336.56" style="fill:none;stroke:black;stroke-width:0.5"/>
<polyline points="727.27,263.73 729.08,263.89 730.83,264.36 732.47,265.12 733.95,266.16 735.23,267.44 736.27,268.92 737.04,270.56 737.5,272.31 737.66,274.12 737.66,298.53 715.17,285.54 715.17,261.1 715.17,261.1 716.69,262.22 718.38,263.05 720.2,263.56 722.08,263.73 727.27,263.73" style="fill:none;stroke:black;stroke-width:0.5"/>
<polyline points="84.83,439.52 84.83,448.18 84.83,448.18 83.31,447.06 81.62,446.23 79.8,445.72 77.92,445.55 72.73,445.55 72.73,445.55 70.92,445.39 69.17,444.92 67.53,444.15 66.05,443.12 64.77,441.84 63.73,440.35 62.96,438.71 62.5,436.96 62.34,435.16 62.34,426.53 84.83,439.52" style="fill:none;stroke:black;stroke-width:0.5"/>
<polyline points="218.18,478.48 203.85,470.21 203.85,470.21 203.65,468.39 203.78,466.56 204.22,464.78 204.97,463.11 206,461.6 206,461.6 208.83,457.83 211.33,453.85 213.51,449.68 215.33,445.34 216.79,440.87 217.87,436.29 218.58,431.64 218.9,426.95 240.68,439.52 240.68,465.49 218.18,478.48" style="fill:none;stroke:black;stroke-width:0.5"/>
<polyline points="711.69,253.34 711.69,253.54 711.69,253.54 689.19,240.55 689.19,214.58 694.31,211.62 694.31,211.62 696.1,211.78 701.3,211.78 701.3,211.78 703.1,211.94 704.85,212.41 706.49,213.17 707.98,214.21 709.26,215.49 710.3,216.98 711.06,218.62 711.53,220.37 711.69,222.17 711.69,227.37 711.69,253.34" style="fill:none;stroke:black;stroke-width:0.5"/>
<polyline points="91.79,259.57 114.29,246.58 136.78,259.57 136.78,285.54 114.29,298.53 91.79,285.54 91.79,259.57" style="fill:none;stroke:black;stroke-width:0.5"/>
<polyline points="296.1,471.52 318.6,484.51 318.6,497.49 273.61,497.49 273.61,484.51 296.1,471.52" style="fill:none;stroke:black;stroke-width:0.5"/>
<polyline points="195.69,259.57 218.18,246.58 240.68,259.57 240.68,285.54 218.18,298.53 195.69,285.54 195.69,259.57" style="fill:none;stroke:black;stroke-width:0.5"/>
<polyline points="348.05,513.08 348.05,507.88 348.05,507.88 347.89,506.08 347.43,504.33 346.66,502.69 345.62,501.21 344.34,499.93 342.86,498.89 341.22,498.12 339.47,497.65 337.66,497.49 325.56,497.49 325.56,484.51 348.05,471.52 370.55,484.51 370.55,510.48 351.97,521.21 351.97,521.21 350.62,519.92 349.52,518.41 348.72,516.73 348.22,514.94 348.05,513.08" style="fill:none;stroke:black;stroke-width:0.5"/>
<polyline points="162.75,214.58 162.75,240.55 140.26,253.54 117.77,240.55 117.77,214.58 140.26,201.59 162.75,214.58" style="fill:none;stroke:black;stroke-width:0.5"/>
<polyline points="88.31,253.54 88.31,253.54 88.31,253.54 88.31,253.34 88.31,227.37 88.31,222.17 88.31,222.17 88.47,220.37 88.94,218.62 89.7,216.98 90.74,215.49 92.02,214.21 93.51,213.17 95.15,212.41 96.9,211.94 98.7,211.78 103.9,211.78 103.9,211.78 105.69,211.62 110.81,214.58 110.81,240.55 88.31,253.54" style="fill:none;stroke:black;stroke-width:0.5"/>
<polyline points="143.74,259.57 166.23,246.58 188.73,259.57 188.73,285.54 166.23,298.53 143.74,285.54 143.74,259.57" style="fill:none;stroke:black;stroke-width:0.5"/>
<polyline points="348.05,381.54 370.55,394.53 370.55,396.2 340.26,396.2 340.26,396.2 337.82,396.36 335.43,396.85 333.12,397.66 330.94,398.77 328.93,400.16 327.13,401.81 325.56,403.68 325.56,394.53 348.05,381.54" style="fill:none;stroke:black;stroke-width:0.5"/>
<polyline points="72.73,263.73 77.92,263.73 77.92,263.73 79.8,263.56 81.62,263.05 83.31,262.22 84.83,261.1 84.83,285.54 62.34,298.53 62.34,298.5 62.39,273.07 62.39,273.07 62.76,271.2 63.46,269.42 64.47,267.81 65.76,266.41 67.29,265.27 69,264.42 70.83,263.9 72.73,263.73" style="fill:none;stroke:black;stroke-width:0.5"/>
<polyline points="344.57,465.49 322.08,478.48 299.58,465.49 299.58,439.52 322.08,426.53 344.57,439.52 344.57,465.49" style="fill:none;stroke:black;stroke-width:0.5"/>
<polyline points="607.79,185.81 490.91,185.81 490.91,81.91 490.91,81.91 490.72,78.78 490.15,75.69 489.22,72.7 487.93,69.84 486.31,67.16 484.38,64.69 482.16,62.47 479.69,60.53 477.01,58.91 474.15,57.62 471.15,56.69 468.07,56.13 464.94,55.94 335.06,55.94 335.06,55.94 331.93,56.13 328.85,56.69 325.85,57.62 322.99,58.91 320.31,60.53 317.84,62.47 315.62,64.69 313.69,67.16 312.07,69.84 310.78,72.7 309.85,75.69 309.28,78.78 309.09,81.91 309.09,185.81 192.21,185.81 192.21,133.86 192.21,133.86 192.02,130.77 191.48,127.73 190.57,124.78 189.32,121.95 187.74,119.3 185.86,116.84 183.7,114.63 181.29,112.7 178.67,111.06 175.88,109.74 175.88,109.74 174.14,108.85 172.6,107.64 171.31,106.17 170.32,104.48 169.66,102.64 169.36,100.71 169.43,98.75 169.87,96.85 169.87,96.85 170.76,93.5 171.29,90.08 171.42,86.62 171.18,83.17 170.55,79.77 169.55,76.46 168.19,73.27 166.49,70.26 164.46,67.46 162.13,64.9 159.53,62.61 156.7,60.62 153.66,58.96 150.46,57.65 147.13,56.7 143.72,56.13 140.26,55.94 136.8,56.13 133.39,56.7 130.06,57.65 126.86,58.96 123.82,60.62 120.99,62.61 118.39,64.9 116.06,67.46 114.03,70.26 112.33,73.27 110.97,76.46 109.97,79.77 109.34,83.17 109.09,86.62 109.23,90.08 109.75,93.5 110.65,96.85 110.65,96.85 111.09,98.75 111.15,100.71 110.86,102.64 110.2,104.48 109.21,106.17 107.92,107.64 106.38,108.85 104.64,109.74 104.64,109.74 101.85,111.06 99.23,112.7 96.82,114.63 94.66,116.84 92.78,119.3 91.2,121.95 89.95,124.78 89.04,127.73 88.5,130.77 88.31,133.86 88.31,159.83 88.31,185.81 62.34,185.81 62.34,237.75 36.36,237.75 36.36,471.52 62.34,471.52 62.34,523.47 88.31,523.47 88.31,549.44 192.21,549.44 192.21,523.47 322.08,523.47 322.08,549.44 477.92,549.44 477.92,523.47 607.79,523.47 607.79,549.44 711.69,549.44 711.69,523.47 737.66,523.47 737.66,471.52 763.64,471.52 763.64,237.75 737.66,237.75 737.66,185.81 711.69,185.81 711.69,159.83 711.69,133.86 711.69,133.86 711.5,130.77 710.96,127.73 710.05,124.78 708.8,121.95 707.22,119.3 705.34,116.84 703.18,114.63 700.77,112.7 698.15,111.06 695.36,109.74 695.36,109.74 693.62,108.85 692.08,107.64 690.79,106.17 689.8,104.48 689.14,102.64 688.85,100.71 688.91,98.75 689.35,96.85 689.35,96.85 690.25,93.5 690.77,90.08 690.91,86.62 690.66,83.17 690.03,79.77 689.03,76.46 687.67,73.27 685.97,70.26 683.94,67.46 681.61,64.9 679.01,62.61 676.18,60.62 673.14,58.96 669.94,57.65 666.61,56.7 663.2,56.13 659.74,55.94 656.28,56.13 652.87,56.7 649.54,57.65 646.34,58.96 643.3,60.62 640.47,62.61 637.87,64.9 635.54,67.46 633.51,70.26 631.81,73.27 630.45,76.46 629.45,79.77 628.82,83.17 628.58,86.62 628.71,90.08 629.24,93.5 630.13,96.85 630.13,96.85 630.57,98.75 630.64,100.71 630.34,102.64 629.68,104.48 628.69,106.17 627.4,107.64 625.86,108.85 624.12,109.74 624.12,109.74 621.33,111.06 618.71,112.7 616.3,114.63 614.14,116.84 612.26,119.3 610.68,121.95 609.43,124.78 608.52,127.73 607.98,130.77 607.79,133.86 607.79,185.81" style="fill:none;stroke:black;stroke-width:0.5"/>
<polyline points="181.72,495.02 181.91,493.28 182.49,491.64 183.42,490.16 184.65,488.93 186.13,488 187.77,487.42 189.51,487.23 191.24,487.42 192.89,488 194.37,488.93 195.6,490.16 196.53,491.64 197.1,493.28 197.3,495.02 197.1,496.75 196.53,498.4 195.6,499.88 194.37,501.11 192.89,502.04 191.24,502.61 189.51,502.81 187.77,502.61 186.13,502.04 184.65,501.11 183.42,499.88 182.49,498.4 181.91,496.75 181.72,495.02" style="fill:none;stroke:black;stroke-width:0.5"/>
<polyline points="84.37,397.68 84.57,395.94 85.15,394.29 86.07,392.82 87.31,391.58 88.78,390.65 90.43,390.08 92.17,389.88 93.9,390.08 95.55,390.65 97.02,391.58 98.26,392.82 99.19,394.29 99.76,395.94 99.96,397.68 99.76,399.41 99.19,401.06 98.26,402.53 97.02,403.77 95.55,404.7 93.9,405.27 92.17,405.47 90.43,405.27 88.78,404.7 87.31,403.77 86.07,402.53 85.15,401.06 84.57,399.41 84.37,397.68" style="fill:none;stroke:black;stroke-width:0.5"/>
<polyline points="646.75,87.11 646.95,84.85 647.54,82.66 648.49,80.61 649.79,78.76 651.39,77.16 653.25,75.86 655.3,74.9 657.49,74.32 659.74,74.12 662,74.32 664.18,74.9 666.23,75.86 668.09,77.16 669.69,78.76 670.99,80.61 671.94,82.66 672.53,84.85 672.73,87.11 672.53,89.36 671.94,91.55 670.99,93.6 669.69,95.45 668.09,97.05 666.23,98.35 664.18,99.31 662,99.89 659.74,100.09 657.49,99.89 655.3,99.31 653.25,98.35 651.39,97.05 649.79,95.45 648.49,93.6 647.54,91.55 646.95,89.36 646.75,87.11" style="fill:none;stroke:black;stroke-width:0.5"/>
<polyline points="130.61,425.41 130.8,421.92 131.39,418.47 132.35,415.11 133.69,411.89 135.38,408.83 137.41,405.98 139.73,403.37 142.34,401.04 145.19,399.02 148.25,397.33 151.48,395.99 154.84,395.02 158.28,394.44 161.77,394.24 165.26,394.44 168.71,395.02 172.07,395.99 175.3,397.33 178.36,399.02 181.21,401.04 183.81,403.37 186.14,405.98 188.17,408.83 189.86,411.89 191.19,415.11 192.16,418.47 192.75,421.92 192.94,425.41 192.75,428.9 192.16,432.34 191.19,435.7 189.86,438.93 188.17,441.99 186.14,444.84 183.81,447.45 181.21,449.78 178.36,451.8 175.3,453.49 172.07,454.83 168.71,455.8 165.26,456.38 161.77,456.58 158.28,456.38 154.84,455.8 151.48,454.83 148.25,453.49 145.19,451.8 142.34,449.78 139.73,447.45 137.41,444.84 135.38,441.99 133.69,438.93 132.35,435.7 131.39,432.34 130.8,428.9 130.61,425.41" style="fill:none;stroke:black;stroke-width:0.5"/>
<polyline points="322.08,320.87 322.27,319.47 322.83,318.17 323.73,317.07 324.88,316.26 326.22,315.79 327.63,315.69 329.01,315.98 330.27,316.63 331.3,317.59 332.04,318.8 332.42,320.16 332.42,321.58 332.04,322.94 331.3,324.15 330.27,325.12 329.01,325.77 327.63,326.05 326.22,325.96 324.88,325.48 323.73,324.67 322.83,323.57 322.27,322.27 322.08,320.87" style="fill:none;stroke:black;stroke-width:0.5"/>
<polyline points="467.53,175.42 467.73,174.02 468.29,172.72 469.18,171.62 470.34,170.8 471.67,170.33 473.08,170.23 474.47,170.52 475.72,171.17 476.76,172.14 477.49,173.35 477.87,174.71 477.87,176.12 477.49,177.49 476.76,178.7 475.72,179.66 474.47,180.31 473.08,180.6 471.67,180.5 470.34,180.03 469.18,179.21 468.29,178.12 467.73,176.82 467.53,175.42" style="fill:none;stroke:black;stroke-width:0.5"/>
<polyline points="516.38,214.01 516.57,212.28 517.15,210.63 518.08,209.15 519.31,207.92 520.79,206.99 522.44,206.41 524.17,206.22 525.9,206.41 527.55,206.99 529.03,207.92 530.26,209.15 531.19,210.63 531.77,212.28 531.96,214.01 531.77,215.75 531.19,217.39 530.26,218.87 529.03,220.1 527.55,221.03 525.9,221.61 524.17,221.8 522.44,221.61 520.79,221.03 519.31,220.1 518.08,218.87 517.15,217.39 516.57,215.75 516.38,214.01" style="fill:none;stroke:black;stroke-width:0.5"/>
<polyline points="700.04,397.68 700.24,395.94 700.81,394.29 701.74,392.82 702.98,391.58 704.45,390.65 706.1,390.08 707.83,389.88 709.57,390.08 711.22,390.65 712.69,391.58 713.93,392.82 714.85,394.29 715.43,395.94 715.63,397.68 715.43,399.41 714.85,401.06 713.93,402.53 712.69,403.77 711.22,404.7 709.57,405.27 707.83,405.47 706.1,405.27 704.45,404.7 702.98,403.77 701.74,402.53 700.81,401.06 700.24,399.41 700.04,397.68" style="fill:none;stroke:black;stroke-width:0.5"/>
<polyline points="602.7,495.02 602.9,493.28 603.47,491.64 604.4,490.16 605.63,488.93 607.11,488 608.76,487.42 610.49,487.23 612.23,487.42 613.87,488 615.35,488.93 616.58,490.16 617.51,491.64 618.09,493.28 618.28,495.02 618.09,496.75 617.51,498.4 616.58,499.88 615.35,501.11 613.87,502.04 612.23,502.61 610.49,502.81 608.76,502.61 607.11,502.04 605.63,501.11 604.4,499.88 603.47,498.4 602.9,496.75 602.7,495.02" style="fill:none;stroke:black;stroke-width:0.5"/>
<polyline points="607.06,425.41 607.25,421.92 607.84,418.47 608.81,415.11 610.14,411.89 611.83,408.83 613.86,405.98 616.19,403.37 618.79,401.04 621.64,399.02 624.7,397.33 627.93,395.99 631.29,395.02 634.74,394.44 638.23,394.24 641.72,394.44 645.16,395.02 648.52,395.99 651.75,397.33 654.81,399.02 657.66,401.04 660.27,403.37 662.59,405.98 664.62,408.83 666.31,411.89 667.65,415.11 668.61,418.47 669.2,421.92 669.39,425.41 669.2,428.9 668.61,432.34 667.65,435.7 666.31,438.93 664.62,441.99 662.59,444.84 660.27,447.45 657.66,449.78 654.81,451.8 651.75,453.49 648.52,454.83 645.16,455.8 641.72,456.38 638.23,456.58 634.74,456.38 631.29,455.8 627.93,454.83 624.7,453.49 621.64,451.8 618.79,449.78 616.19,447.45 613.86,444.84 611.83,441.99 610.14,438.93 608.81,435.7 607.84,432.34 607.25,428.9 607.06,425.41" style="fill:none;stroke:black;stroke-width:0.5"/>
<polyline points="467.53,320.87 467.73,319.47 468.29,318.17 469.18,317.07 470.34,316.26 471.67,315.79 473.08,315.69 474.47,315.98 475.72,316.63 476.76,317.59 477.49,318.8 477.87,320.16 477.87,321.58 477.49,322.94 476.76,324.15 475.72,325.12 474.47,325.77 473.08,326.05 471.67,325.96 470.34,325.48 469.18,324.67 468.29,323.57 467.73,322.27 467.53,320.87" style="fill:none;stroke:black;stroke-width:0.5"/>
<polyline points="322.08,175.42 322.27,174.02 322.83,172.72 323.73,171.62 324.88,170.8 326.22,170.33 327.63,170.23 329.01,170.52 330.27,171.17 331.3,172.14 332.04,173.35 332.42,174.71 332.42,176.12 332.04,177.49 331.3,178.7 330.27,179.66 329.01,180.31 327.63,180.6 326.22,180.5 324.88,180.03 323.73,179.21 322.83,178.12 322.27,176.82 322.08,175.42" style="fill:none;stroke:black;stroke-width:0.5"/>
<polyline points="326.88,92.3 327.08,89.42 327.67,86.59 328.64,83.87 329.96,81.3 331.63,78.94 333.6,76.83 335.84,75.01 338.31,73.5 340.96,72.35 343.75,71.57 346.61,71.18 349.5,71.18 352.36,71.57 355.14,72.35 357.79,73.5 360.26,75.01 362.5,76.83 364.47,78.94 366.14,81.3 367.47,83.87 368.44,86.59 369.02,89.42 369.22,92.3 369.02,95.18 368.44,98.01 367.47,100.73 366.14,103.3 364.47,105.66 362.5,107.77 360.26,109.59 357.79,111.1 355.14,112.25 352.36,113.03 349.5,113.42 346.61,113.42 343.75,113.03 340.96,112.25 338.31,111.1 335.84,109.59 333.6,107.77 331.63,105.66 329.96,103.3 328.64,100.73 327.67,98.01 327.08,95.18 326.88,92.3" style="fill:none;stroke:black;stroke-width:0.5"/>
<polyline points="268.04,214.01 268.23,212.28 268.81,210.63 269.74,209.15 270.97,207.92 272.45,206.99 274.1,206.41 275.83,206.22 277.56,206.41 279.21,206.99 280.69,207.92 281.92,209.15 282.85,210.63 283.43,212.28 283.62,214.01 283.43,215.75 282.85,217.39 281.92,218.87 280.69,220.1 279.21,221.03 277.56,221.61 275.83,221.8 274.1,221.61 272.45,221.03 270.97,220.1 269.74,218.87 268.81,217.39 268.23,215.75 268.04,214.01" style="fill:none;stroke:black;stroke-width:0.5"/>
<polyline points="127.27,87.11 127.47,84.85 128.06,82.66 129.01,80.61 130.31,78.76 131.91,77.16 133.77,75.86 135.82,74.9 138,74.32 140.26,74.12 142.51,74.32 144.7,74.9 146.75,75.86 148.61,77.16 150.21,78.76 151.51,80.61 152.46,82.66 153.05,84.85 153.25,87.11 153.05,89.36 152.46,91.55 151.51,93.6 150.21,95.45 148.61,97.05 146.75,98.35 144.7,99.31 142.51,99.89 140.26,100.09 138,99.89 135.82,99.31 133.77,98.35 131.91,97.05 130.31,95.45 129.01,93.6 128.06,91.55 127.47,89.36 127.27,87.11" style="fill:none;stroke:black;stroke-width:0.5"/>
</svg>
