0
SECTION
2
HEADER
9
$INSUNITS
70
4
9
$ACADVER
1
AC1014
9
$HANDSEED
5
FFFF
0
ENDSEC
0
SECTION
2
TABLES
0
TABLE
2
VPORT
5
8
100
AcDbSymbolTable
0
ENDTAB
0
TABLE
2
LTYPE
5
5
100
AcDbSymbolTable
0
LTYPE
5
14
100
AcDbSymbolTableRecord
100
AcDbLinetypeTableRecord
2
BYBLOCK
70
0
0
LTYPE
5
15
100
AcDbSymbolTableRecord
100
AcDbLinetypeTableRecord
2
BYLAYER
70
0
0
ENDTAB
0
TABLE
2
LAYER
5
2
100
AcDbSymbolTable
70
2
0
LAYER
5
50
100
AcDbSymbolTableRecord
100
AcDbLayerTableRecord
2
0
70
0
6
CONTINUOUS
0
ENDTAB
0
TABLE
2
STYLE
5
3
100
AcDbSymbolTable
70
1
0
STYLE
5
11
100
AcDbSymbolTableRecord
100
AcDbTextStyleTableRecord
2
STANDARD
70
0
0
ENDTAB
0
TABLE
2
VIEW
5
6
100
AcDbSymbolTable
70
0
0
ENDTAB
0
TABLE
2
UCS
5
7
100
AcDbSymbolTable
70
0
0
ENDTAB
0
TABLE
2
APPID
5
9
100
AcDbSymbolTable
70
2
0
APPID
5
12
100
AcDbSymbolTableRecord
100
AcDbRegAppTableRecord
2
ACAD
70
0
0
ENDTAB
0
TABLE
2
DIMSTYLE
5
A
100
AcDbSymbolTable
70
1
0
ENDTAB
0
TABLE
2
BLOCK_RECORD
5
1
100
AcDbSymbolTable
70
1
0
BLOCK_RECORD
5
1F
100
AcDbSymbolTableRecord
100
AcDbBlockTableRecord
2
*MODEL_SPACE
0
BLOCK_RECORD
5
1B
100
AcDbSymbolTableRecord
100
AcDbBlockTableRecord
2
*PAPER_SPACE
0
ENDTAB
0
ENDSEC
0
SECTION
2
BLOCKS
0
BLOCK
5
20
100
AcDbEntity
100
AcDbBlockBegin
2
*MODEL_SPACE
0
ENDBLK
5
21
100
AcDbEntity
100
AcDbBlockEnd
0
BLOCK
5
1C
100
AcDbEntity
100
AcDbBlockBegin
2
*PAPER_SPACE
0
ENDBLK
5
1D
100
AcDbEntity
100
AcDbBlockEnd
0
ENDSEC
0
SECTION
2
ENTITIES
0
CIRCLE
5
100
100
AcDbEntity
8
0
100
AcDbCircle
10
208.00000312924385
20
-59
30
0
40
1.5000000000000213
210
0
220
-0
230
1
0
CIRCLE
5
101
100
AcDbEntity
8
0
100
AcDbCircle
10
240.00000312924385
20
-59
30
0
40
1.4999999999999858
210
0
220
-0
230
1
0
LWPOLYLINE
5
102
100
AcDbEntity
8
0
100
AcDbPolyline
90
16
70
1
43
0.0
10
209.71428860541505
20
-87.385969710284414
42
-0.28968983949767996
10
208.00000312924385
20
-84.675446114516305
10
208.00000312924385
20
-65.324555353321983
42
-0.28968986385003465
10
209.71428884900345
20
-62.614031642009735
42
0.17293729967893845
10
211.61403477125359
20
-60.714285719759637
42
-0.28968986385002005
10
214.32455848256583
20
-59
10
233.67544676987563
20
-59.000000000000021
42
-0.28968988054094963
10
236.385970560381
20
-60.714285886713419
42
0.17293733139733025
10
238.28571724253041
20
-62.614032568862832
42
-0.28968988054095263
10
240.00000312924385
20
-65.324556359368245
10
240.00000312924379
20
-84.675446114516262
42
-0.28968983949767613
10
238.28571765307262
20
-87.385969710284357
42
0.17293725340125424
10
236.38597283952819
20
-89.285714523828801
42
-0.2896898394976844
10
233.67544924376011
20
-91
10
214.32455701472753
20
-91.000000000000014
42
-0.28968983949767962
10
211.61403341895945
20
-89.285714523828801
42
0.17293725340125282
0
CIRCLE
5
103
100
AcDbEntity
8
0
100
AcDbCircle
10
281.1000035017729
20
-60.900001117587088
30
0
40
1.25
210
0
220
-0
230
1
0
LWPOLYLINE
5
104
100
AcDbEntity
8
0
100
AcDbPolyline
90
16
70
1
43
0.0
10
276.1000035017729
20
-60.900001117587088
10
276.1000035017729
20
-58.500000834465027
42
0.41421356237309709
10
273.60000350177285
20
-56.000000834465027
10
256.0000032186507
20
-56.000000834465276
42
0.41421356237309342
10
248.00000321865082
20
-64.000000834465268
10
248.00000321865082
20
-81.600001117587084
42
0.41421356237310336
10
250.50000321865082
20
-84.100001117587084
10
252.90000350177286
20
-84.100001117587084
42
-0.41421356237309503
10
257.90000350177286
20
-89.100001117587084
10
257.90000350177286
20
-91.500001400709152
42
0.41421356237310336
10
260.40000350177286
20
-94.000001400709152
10
278.00000378489489
20
-94.000001400709152
42
0.41421356237309176
10
286.00000378489489
20
-86.000001400709152
10
286.00000378489489
20
-68.400001117587095
42
0.41421356237309503
10
283.50000378489494
20
-65.900001117587124
10
281.1000035017729
20
-65.900001117587095
42
-0.41421356237309503
0
LWPOLYLINE
5
105
100
AcDbEntity
8
0
100
AcDbPolyline
90
16
70
1
43
0.0
10
322.00000432133675
20
-102.00000154972076
42
-0.41421356237310542
10
320.00000432133675
20
-104.00000154972076
10
292.00000387430191
20
-104.00000154972076
42
-0.41421356237309631
10
288.00000387430191
20
-100.00000154972076
10
288.00000387430191
20
-59.000000819563866
42
-0.61803398874988436
10
289.60000387430193
20
-58.200000819563861
42
1.1646479451087672
10
293.33333720763522
20
-51.228764653235629
42
-0.31783724519579976
10
292.00000387430185
20
-49.343146570071482
10
292.00000387430191
20
-48.000000670552268
42
-0.41421356237309503
10
294.00000387430191
20
-46.000000670552275
10
322.00000432133686
20
-46.000000670552353
42
-0.41421356237309959
10
326.00000432133669
20
-50.000000670552261
10
326.00000432133686
20
-91.000001415610313
42
-0.61803398874988746
10
324.40000432133672
20
-91.800001415610325
42
1.1646479451087519
10
320.66667098800337
20
-98.771237581938536
42
-0.31783724519578804
10
322.00000432133675
20
-100.65685566510268
0
CIRCLE
5
106
100
AcDbEntity
8
0
100
AcDbCircle
10
322.00000432133675
20
-95.000001415610313
30
0
40
1.4999999999999858
210
0
220
-0
230
1
0
CIRCLE
5
107
100
AcDbEntity
8
0
100
AcDbCircle
10
292.00000387430191
20
-55.000000819563866
30
0
40
1.5000000000000213
210
0
220
-0
230
1
0
LWPOLYLINE
5
108
100
AcDbEntity
8
0
100
AcDbPolyline
90
12
70
1
43
0.0
10
327.00000201165676
20
-5.000000074505806
10
324.99789513119885
20
-5.0000000745058326
42
-0.41424618846884226
10
322.99789514360674
20
-2.9997772921590293
10
323.00000149880304
20
15.909756736149252
42
0.41424619177555511
10
319.0000014779157
20
19.910202301387621
10
315.00000154876955
20
19.910202256465158
42
0.4142135626656156
10
311.00000157672969
20
15.910202209165014
10
311.00000176407104
20
-3.0000000538391305
42
-0.41421356539965842
10
309.0000017640711
20
-5.0000000745057882
10
307.00000171363354
20
-5.000000074505806
10
307.00000171363354
20
-10.000000149011612
10
327.00000201165676
20
-10.000000074505575
0
LWPOLYLINE
5
109
100
AcDbEntity
8
0
100
AcDbPolyline
90
12
70
1
43
0.0
10
218.999998655208
20
19.910202256457215
10
214.99999872606185
20
19.910202301379137
42
0.41388849038435122
10
211.0000011445768
20
15.914642316025009
10
211.00210486314123
20
-2.9998496239878221
42
-0.41423559551435629
10
209.0021048688003
20
-5.000000074515345
10
206.99999798834239
20
-5.0000000745156825
10
206.99999798834318
20
-10.000000074515443
10
226.99999828636646
20
-10.000000149018193
10
226.99999828636564
20
-5.0000000745123874
10
224.9999982359281
20
-5.0000000745126663
42
-0.41421356539966164
10
222.99999823592776
20
-3.0000000538463745
10
222.99999839225919
20
15.91157334856323
42
0.41411316686880573
0
CIRCLE
5
110
100
AcDbEntity
8
0
100
AcDbCircle
10
208.00000312924385
20
-91
30
0
40
1.5000000000000213
210
0
220
-0
230
1
0
LWPOLYLINE
5
111
100
AcDbEntity
8
0
100
AcDbPolyline
90
12
70
1
43
0.0
10
226.99999828636567
20
-144.9999999254876
10
226.99999828636649
20
-139.99999985098179
10
206.99999798834324
20
-139.99999992548456
10
206.99999798834241
20
-144.9999999254843
10
209.00210486880036
20
-144.99999992548459
42
-0.41423559551435796
10
211.00210486314128
20
-147.00015037601219
10
211.00067008109045
20
-166.07329116690838
42
0.40885678298658717
10
214.99999862406986
20
-170.00000016616386
10
218.99999855321602
20
-170.00000012124195
42
0.4141504056125983
10
222.99999843226698
20
-166.00086261986456
10
222.99999823592776
20
-146.99999994615359
42
-0.41421356539966114
10
224.99999823592813
20
-144.99999992548729
0
LWPOLYLINE
5
112
100
AcDbEntity
8
0
100
AcDbPolyline
90
12
70
1
43
0.0
10
315.00000144677767
20
-170.00000012124983
10
319.00000137592383
20
-170.00000016617236
42
0.41963495130462808
10
322.99931884697241
20
-165.92610746415929
10
322.99789513685766
20
-147.00015037602131
42
-0.41423559551435274
10
324.9978951311989
20
-144.99999992549411
10
327.00000201165687
20
-144.99999992549411
10
327.00000201165687
20
-139.99999992549434
10
307.00000171363354
20
-139.99999985098833
10
307.00000171363354
20
-144.99999992549414
10
309.0000017640711
20
-144.99999992549411
42
-0.41421356539965853
10
311.00000176407116
20
-146.99999994616081
10
311.00000156772887
20
-166.00086262662154
42
0.41415040511836726
0
LWPOLYLINE
5
113
100
AcDbEntity
8
0
100
AcDbPolyline
90
12
70
1
43
0.0
10
304.00000452995306
20
-10.999997988343235
10
304.00000452995306
20
-10.000000149011612
42
0.41421356237309798
10
302.000004529953
20
-8.0000001490115835
10
291.50000134110138
20
-8.0000001490116119
42
0.41421356237309698
10
289.50000134110138
20
-10.000000149011612
10
289.50000134110138
20
-21.000000342726707
42
0.41421356237309698
10
291.50000134110138
20
-23.000000342726711
10
326.99999865889549
20
-23.000000342726711
42
0.41421356237311452
10
328.99999865889555
20
-21.000000342726747
10
328.99999865889555
20
-14.999997988343281
42
0.4142135623730957
10
326.99999865889549
20
-12.999997988343228
10
306.000004529953
20
-12.999997988343155
42
-0.4142135623730947
0
ARC
5
114
100
AcDbEntity
8
0
100
AcDbCircle
10
358.00001692720343
20
-26.999936803808314
30
0
40
3.9999896589295325
210
0
220
0
230
1
100
AcDbArc
50
270.00007299764655
51
359.99908721734221
0
LINE
5
115
100
AcDbEntity
8
0
100
AcDbLine
10
358.00002202338737
20
-30.999926462734599
30
0
11
339.00002031023541
21
-30.999962136115954
31
0
0
ARC
5
116
100
AcDbEntity
8
0
100
AcDbCircle
10
339.00002285833386
20
-32.999962136114334
30
0
40
1.9999999999999996
210
0
220
0
230
1
100
AcDbArc
50
90.0000729976435
51
180.00007299639853
0
LINE
5
117
100
AcDbEntity
8
0
100
AcDbLine
10
337.00002285833546
20
-32.999964684212912
30
0
11
337.00002540647949
21
-35.000000521540642
31
0
0
LINE
5
118
100
AcDbEntity
8
0
100
AcDbLine
10
337.00002540647949
20
-35.000000521540642
30
0
11
334.00000166297042
21
-35.000000521540642
31
0
0
ARC
5
119
100
AcDbEntity
8
0
100
AcDbCircle
10
334.00000166297042
20
-37.000000521540656
30
0
40
2.0000000000000107
210
0
220
-0
230
1
100
AcDbArc
50
90
51
180.00005190494394
0
LINE
5
120
100
AcDbEntity
8
0
100
AcDbLine
10
332.00000166297121
20
-37.000002333521849
30
0
11
332.00000483393535
21
-40.999998679756686
31
0
0
ARC
5
121
100
AcDbEntity
8
0
100
AcDbCircle
10
330.00000483393615
20
-41.000000491737829
30
0
40
2.000000000000286
210
0
220
0
230
1
100
AcDbArc
50
-89.99999999999838
51
5.1904943952083148e-05
0
LINE
5
122
100
AcDbEntity
8
0
100
AcDbLine
10
330.0000048339362
20
-43.000000491738113
30
0
11
286.99999375268817
21
-43.000000491738319
31
0
0
ARC
5
123
100
AcDbEntity
8
0
100
AcDbCircle
10
286.99999375268817
20
-45.000000491738312
30
0
40
1.9999999999999929
210
0
220
-0
230
1
100
AcDbArc
50
90
51
180
0
LINE
5
124
100
AcDbEntity
8
0
100
AcDbLine
10
284.99999375268817
20
-45.000000491738319
30
0
11
284.99999375268817
21
-51.000000491738376
31
0
0
ARC
5
125
100
AcDbEntity
8
0
100
AcDbCircle
10
282.99999375268828
20
-51.00000049173844
30
0
40
1.9999999999999396
210
0
220
0
230
1
100
AcDbArc
50
-90.000000000001634
51
0
0
LINE
5
126
100
AcDbEntity
8
0
100
AcDbLine
10
282.99999375268823
20
-53.000000491738383
30
0
11
245.00000624731709
21
-53.000000491740202
31
0
0
ARC
5
127
100
AcDbEntity
8
0
100
AcDbCircle
10
245.00000624731695
20
-51.000000491739698
30
0
40
1.9999999999999929
210
0
220
0
230
1
100
AcDbArc
50
180
51
270.00000000000409
0
LINE
5
128
100
AcDbEntity
8
0
100
AcDbLine
10
243.00000624731695
20
-51.000000491739939
30
0
11
243.00000624731621
21
-45.000000491739883
31
0
0
ARC
5
129
100
AcDbEntity
8
0
100
AcDbCircle
10
241.00000624731621
20
-45.000000491740124
30
0
40
1.9999999999999929
210
0
220
-0
230
1
100
AcDbArc
50
0
51
90.000000000007333
0
LINE
5
130
100
AcDbEntity
8
0
100
AcDbLine
10
241.00000624731595
20
-43.000000491740131
30
0
11
203.99999561906276
21
-43.000000718243626
31
0
0
ARC
5
131
100
AcDbEntity
8
0
100
AcDbCircle
10
203.99999561906256
20
-41.000000491746171
30
0
40
2.0000004529949007
210
0
220
0
230
1
100
AcDbArc
50
179.99994809505606
51
270.00000000000568
0
LINE
5
132
100
AcDbEntity
8
0
100
AcDbLine
10
201.99999516606849
20
-40.999998679764815
30
0
11
201.99999879002706
21
-37.000002333530382
31
0
0
ARC
5
133
100
AcDbEntity
8
0
100
AcDbCircle
10
199.99999833703296
20
-37.00000052154904
30
0
40
2.0000004529949358
210
-0
220
0
230
1
100
AcDbArc
50
-5.1904943960176338e-05
51
90.000000000007333
0
LINE
5
134
100
AcDbEntity
8
0
100
AcDbLine
10
199.99999833703271
20
-35.000000068554101
30
0
11
196.9999745935236
21
-35.000000521549396
31
0
0
LINE
5
135
100
AcDbEntity
8
0
100
AcDbLine
10
196.9999745935236
20
-35.000000521549396
30
0
11
196.99997714166739
21
-32.999964684221666
31
0
0
ARC
5
136
100
AcDbEntity
8
0
100
AcDbCircle
10
194.99997714166898
20
-32.99996213612333
30
0
40
2.0000000000000173
210
-0
220
0
230
1
100
AcDbArc
50
-7.2996398552187649e-05
51
89.999927002363023
0
LINE
5
137
100
AcDbEntity
8
0
100
AcDbLine
10
194.9999796897672
20
-30.999962136124939
30
0
11
175.99997797661524
21
-30.999926462747105
31
0
0
ARC
5
138
100
AcDbEntity
8
0
100
AcDbCircle
10
175.99998307279859
20
-26.999936803820908
30
0
40
3.9999896589294996
210
0
220
0
230
1
100
AcDbArc
50
180.00091278265774
51
269.99992700236197
0
LINE
5
139
100
AcDbEntity
8
0
100
AcDbLine
10
171.99999341437666
20
-27.000000527926879
30
0
11
171.99999240021668
21
-22.999997994841568
31
0
0
ARC
5
140
100
AcDbEntity
8
0
100
AcDbCircle
10
176.00000807497582
20
-22.999915672768093
30
0
40
4.0000156756063232
210
0
220
-0
230
1
100
AcDbArc
50
89.999927002360039
51
180.00117917206322
0
LINE
5
141
100
AcDbEntity
8
0
100
AcDbLine
10
176.00001317119245
20
-18.999899997165016
30
0
11
194.99999497839056
21
-18.999935670517509
31
0
0
ARC
5
142
100
AcDbEntity
8
0
100
AcDbCircle
10
194.99999752648876
20
-16.999935670519172
30
0
40
1.9999999999999596
210
0
220
0
230
1
100
AcDbArc
50
269.99992700236385
51
359.99992700360144
0
LINE
5
143
100
AcDbEntity
8
0
100
AcDbLine
10
196.99999752648708
20
-16.999938218617391
30
0
11
197.0000000745064
21
-15.000000223526175
31
0
0
LINE
5
144
100
AcDbEntity
8
0
100
AcDbLine
10
197.0000000745064
20
-15.000000223526175
30
0
11
202.00000014901221
21
-15.000000223525545
31
0
0
LINE
5
145
100
AcDbEntity
8
0
100
AcDbLine
10
202.00000014901221
20
-15.000000223525545
30
0
11
202.00000014901335
21
-23.99989695550061
31
0
0
ARC
5
146
100
AcDbEntity
8
0
100
AcDbCircle
10
204.00000014901343
20
-23.99989695550029
30
0
40
2.0000000000000995
210
0
220
0
230
1
100
AcDbArc
50
180
51
269.99994809056784
0
LINE
5
147
100
AcDbEntity
8
0
100
AcDbLine
10
203.99999833703242
20
-25.999896955499565
30
0
11
267.00002592769175
21
-25.99995403292413
31
0
0
LINE
5
148
100
AcDbEntity
8
0
100
AcDbLine
10
267.00002592769175
20
-25.99995403292413
30
0
11
330.00000166296957
21
-25.999896955491675
31
0
0
ARC
5
149
100
AcDbEntity
8
0
100
AcDbCircle
10
329.99999985098833
20
-23.99989695549241
30
0
40
2.0000000000000857
210
-0
220
0
230
1
100
AcDbArc
50
270.00005190943864
51
360
0
LINE
5
150
100
AcDbEntity
8
0
100
AcDbLine
10
331.99999985098839
20
-23.999896955492481
30
0
11
331.99999985098839
21
-15.000000223517418
31
0
0
LINE
5
151
100
AcDbEntity
8
0
100
AcDbLine
10
331.99999985098839
20
-15.000000223517418
30
0
11
336.99999992549419
21
-15.000000223517418
31
0
0
LINE
5
152
100
AcDbEntity
8
0
100
AcDbLine
10
336.99999992549419
20
-15.000000223517418
30
0
11
337.00000247351375
21
-16.999938218608641
31
0
0
ARC
5
153
100
AcDbEntity
8
0
100
AcDbCircle
10
339.0000024735121
20
-16.999935670510165
30
0
40
1.9999999999999463
210
0
220
0
230
1
100
AcDbArc
50
180.00007299639853
51
270.00007299764349
0
LINE
5
154
100
AcDbEntity
8
0
100
AcDbLine
10
339.00000502161055
20
-18.999935670508489
30
0
11
357.99998682880869
21
-18.999899997152518
31
0
0
ARC
5
155
100
AcDbEntity
8
0
100
AcDbCircle
10
357.99999192502577
20
-22.999915672755584
30
0
40
4.0000156756062948
210
0
220
0
230
1
100
AcDbArc
50
-0.001179172063230151
51
90.00007299764647
0
LINE
5
156
100
AcDbEntity
8
0
100
AcDbLine
10
362.00000759978491
20
-22.999997994828565
30
0
11
362.00000658562539
21
-27.000000527913876
31
0
0
ARC
5
157
100
AcDbEntity
8
0
100
AcDbCircle
10
242.50005957413987
20
-20.999959573208397
30
0
40
2.0000000000000187
210
0
220
0
230
1
100
AcDbArc
50
269.89082387198636
51
359.99989618309053
0
LINE
5
158
100
AcDbEntity
8
0
100
AcDbLine
10
242.49624861064922
20
-22.999955942344439
30
0
11
207.00005863244542
21
-22.99989162392491
31
0
0
ARC
5
159
100
AcDbEntity
8
0
100
AcDbCircle
10
207.00006225640723
20
-20.999891623928264
30
0
40
2.0000000000000075
210
0
220
0
230
1
100
AcDbArc
50
179.99989618309056
51
269.99989618114142
0
LINE
5
160
100
AcDbEntity
8
0
100
AcDbLine
10
205.0000622564105
20
-20.999887999966354
30
0
11
205.00007312830039
21
-14.999885645592741
31
0
0
ARC
5
161
100
AcDbEntity
8
0
100
AcDbCircle
10
207.00007312829717
20
-14.999889269554615
30
0
40
2.0000000000000502
210
0
220
-0
230
1
100
AcDbArc
50
89.999896181139761
51
179.99989618309056
0
LINE
5
162
100
AcDbEntity
8
0
100
AcDbLine
10
207.00007675225905
20
-12.999889269557848
30
0
11
228.00007088116706
21
-12.999927321146858
31
0
0
ARC
5
163
100
AcDbEntity
8
0
100
AcDbCircle
10
228.00007450512896
20
-10.999927321150141
30
0
40
2.0000000000000009
210
0
220
0
230
1
100
AcDbArc
50
269.99989618113892
51
359.99989618309053
0
LINE
5
164
100
AcDbEntity
8
0
100
AcDbLine
10
230.0000745051257
20
-10.999930945112011
30
0
11
230.00007631710264
21
-9.9999331057820307
31
0
0
ARC
5
165
100
AcDbEntity
8
0
100
AcDbCircle
10
232.00007631709937
20
-9.9999367297439239
30
0
40
2.00000000000002
210
0
220
-0
230
1
100
AcDbArc
50
89.999896181138951
51
179.99989618309056
0
LINE
5
166
100
AcDbEntity
8
0
100
AcDbLine
10
232.00007994106127
20
-7.9999367297471879
30
0
11
242.50008312989564
21
-7.9999575675337198
31
0
0
ARC
5
167
100
AcDbEntity
8
0
100
AcDbCircle
10
242.50007950593047
20
-9.999959379511397
30
0
40
2.0000000000000431
210
0
220
0
230
1
100
AcDbArc
50
-0.00010381690941464522
51
89.999896181139377
0
LINE
5
168
100
AcDbEntity
8
0
100
AcDbLine
10
244.50007950592723
20
-9.9999630034732636
30
0
11
244.50005957413657
21
-20.999963197170285
31
0
0
LWPOLYLINE
5
169
100
AcDbEntity
8
0
100
AcDbPolyline
90
12
70
1
43
0.0
10
328.99999865889555
20
-135.00000201165673
42
-0.41421356237309503
10
326.99999865889549
20
-137.00000201165676
10
306.000004529953
20
-137.00000201165676
42
0.41421356237309503
10
304.000004529953
20
-139.00000201165676
10
304.000004529953
20
-139.99999985098839
42
-0.41421356237309503
10
302.000004529953
20
-141.99999985098839
10
291.50000134110138
20
-141.99999985098839
42
-0.41421356237309764
10
289.50000134110138
20
-139.99999985098839
10
289.50000134110144
20
-128.99999965727329
42
-0.41421356237309764
10
291.50000134110138
20
-126.99999965727329
10
326.99999865889549
20
-126.99999965727324
42
-0.41421356237309243
10
328.99999865889555
20
-128.99999965727324
0
LWPOLYLINE
5
170
100
AcDbEntity
8
0
100
AcDbPolyline
90
8
70
1
43
0.0
10
247.50000134110132
20
-128.99999965727329
42
-0.41421356237312623
10
249.50000134110152
20
-126.99999965727322
10
284.49999865889873
20
-126.99999965727815
42
-0.41421356237315488
10
286.49999865891823
20
-128.99999965729808
10
286.49999865892227
20
-132.00000201175123
42
-0.41421356237314183
10
284.49999865889657
20
-134.00000201177556
10
249.50000134109922
20
-134.00000201176152
42
-0.41421356237309764
10
247.50000134110007
20
-132.00000201176064
0
ARC
5
171
100
AcDbEntity
8
0
100
AcDbCircle
10
242.50005957413987
20
-129.00004042679154
30
0
40
2.0000000000000075
210
0
220
-0
230
1
100
AcDbArc
50
0.00010381690943943504
51
90.109176128618614
0
LINE
5
172
100
AcDbEntity
8
0
100
AcDbLine
10
244.50005957413657
20
-129.0000368028297
30
0
11
244.50007950592723
21
-140.00003699652675
31
0
0
ARC
5
173
100
AcDbEntity
8
0
100
AcDbCircle
10
242.50007950593056
20
-140.00004062048868
30
0
40
2.0000018119809018
210
0
220
0
230
1
100
AcDbArc
50
-89.999896181141793
51
0.00010381690943943504
0
LINE
5
174
100
AcDbEntity
8
0
100
AcDbLine
10
242.50008312989564
20
-142.00004243246627
30
0
11
232.00007994106127
21
-142.00006327025281
31
0
0
ARC
5
175
100
AcDbEntity
8
0
100
AcDbCircle
10
232.00007631709937
20
-140.00006327025611
30
0
40
2.0000000000000075
210
0
220
0
230
1
100
AcDbArc
50
180.00010381690942
51
270.00010381886102
0
LINE
5
176
100
AcDbEntity
8
0
100
AcDbLine
10
230.00007631710264
20
-140.00006689421798
30
0
11
230.00007450512558
21
-139.00006905488797
31
0
0
ARC
5
177
100
AcDbEntity
8
0
100
AcDbCircle
10
228.00007450512896
20
-139.00007267884985
30
0
40
1.999999999999901
210
0
220
-0
230
1
100
AcDbArc
50
0.00010381690943943504
51
90.000103818861049
0
LINE
5
178
100
AcDbEntity
8
0
100
AcDbLine
10
228.00007088116706
20
-137.00007267885323
30
0
11
207.00007675225905
21
-137.00011073044215
31
0
0
ARC
5
179
100
AcDbEntity
8
0
100
AcDbCircle
10
207.00007312829717
20
-135.00011073044539
30
0
40
2.0000000000000786
210
0
220
0
230
1
100
AcDbArc
50
180.00010381690942
51
270.00010381886023
0
LINE
5
180
100
AcDbEntity
8
0
100
AcDbLine
10
205.00007312830039
20
-135.00011435440726
30
0
11
205.0000622564105
21
-129.00011200003365
31
0
0
ARC
5
181
100
AcDbEntity
8
0
100
AcDbCircle
10
207.00006225640726
20
-129.00010837607178
30
0
40
1.9999999999999725
210
0
220
0
230
1
100
AcDbArc
50
90.000103818859429
51
180.00010381690942
0
LINE
5
182
100
AcDbEntity
8
0
100
AcDbLine
10
207.00005863244542
20
-127.00010837607509
30
0
11
242.4962486106281
21
-127.00004405765556
31
0
0
CIRCLE
5
183
100
AcDbEntity
8
0
100
AcDbCircle
10
240.00000312924385
20
-91
30
0
40
1.5000000000000213
210
0
220
-0
230
1
0
LWPOLYLINE
5
184
100
AcDbEntity
8
0
100
AcDbPolyline
90
8
70
1
43
0.0
10
249.50000134110138
20
-23.000000342726711
10
284.49999865889873
20
-23.000000342726711
42
0.41421356237314899
10
286.49999865891823
20
-21.000000342701931
10
286.49999865891692
20
-17.999997988248786
42
0.41421356237316237
10
284.49999865889657
20
-15.999997988229735
10
249.50000134109933
20
-15.999997988238817
42
0.41421356237312884
10
247.50000134110007
20
-17.999997988239347
10
247.50000134110138
20
-21.000000342726707
42
0.41421356237309437
0
CIRCLE
5
185
100
AcDbEntity
8
0
100
AcDbCircle
10
252.90000350177286
20
-89.100001117587084
30
0
40
1.25
210
0
220
-0
230
1
0
ARC
5
186
100
AcDbEntity
8
0
100
AcDbCircle
10
358.00001692720349
20
-123.00006319619163
30
0
40
3.9999896589295352
210
0
220
-0
230
1
100
AcDbArc
50
0.00091278265773879637
51
89.999927002354241
0
LINE
5
187
100
AcDbEntity
8
0
100
AcDbLine
10
362.00000658562544
20
-122.99999947208612
30
0
11
362.00000759978491
21
-127.00000200517144
31
0
0
ARC
5
188
100
AcDbEntity
8
0
100
AcDbCircle
10
357.99999192502577
20
-127.00008432724445
30
0
40
4.0000156756062699
210
0
220
0
230
1
100
AcDbArc
50
-90.000072997646456
51
0.0011791720632143899
0
LINE
5
189
100
AcDbEntity
8
0
100
AcDbLine
10
357.99998682880869
20
-131.00010000284749
30
0
11
339.00000502161055
21
-131.00006432949149
31
0
0
ARC
5
190
100
AcDbEntity
8
0
100
AcDbCircle
10
339.0000024735121
20
-133.00006432948982
30
0
40
1.999999999999964
210
0
220
-0
230
1
100
AcDbArc
50
89.9999270023565
51
179.99992700360147
0
LINE
5
191
100
AcDbEntity
8
0
100
AcDbLine
10
337.00000247351375
20
-133.00006178139137
30
0
11
336.99999992549419
21
-134.99999977648258
31
0
0
LINE
5
192
100
AcDbEntity
8
0
100
AcDbLine
10
336.99999992549419
20
-134.99999977648258
30
0
11
331.99999985098839
21
-134.99999977648258
31
0
0
LINE
5
193
100
AcDbEntity
8
0
100
AcDbLine
10
331.99999985098839
20
-134.99999977648258
30
0
11
331.99999985098839
21
-126.00010304450751
31
0
0
ARC
5
194
100
AcDbEntity
8
0
100
AcDbCircle
10
329.99999985098833
20
-126.0001030445076
30
0
40
2.0000000000000995
210
0
220
-0
230
1
100
AcDbArc
50
0
51
89.999948090561332
0
LINE
5
195
100
AcDbEntity
8
0
100
AcDbLine
10
330.00000166296957
20
-124.00010304450831
30
0
11
266.99997407231018
21
-124.00004596707588
31
0
0
LINE
5
196
100
AcDbEntity
8
0
100
AcDbLine
10
266.99997407231018
20
-124.00004596707588
30
0
11
203.99999833703242
21
-124.00010304450046
31
0
0
ARC
5
197
100
AcDbEntity
8
0
100
AcDbCircle
10
204.00000014901343
20
-126.0001030444997
30
0
40
2.0000000000000675
210
0
220
0
230
1
100
AcDbArc
50
90.000051909432159
51
180
0
LINE
5
198
100
AcDbEntity
8
0
100
AcDbLine
10
202.00000014901337
20
-126.00010304449938
30
0
11
202.00000014901221
21
-134.99999977647445
31
0
0
LINE
5
199
100
AcDbEntity
8
0
100
AcDbLine
10
202.00000014901221
20
-134.99999977647445
30
0
11
197.0000000745064
21
-134.99999977647383
31
0
0
LINE
5
200
100
AcDbEntity
8
0
100
AcDbLine
10
197.0000000745064
20
-134.99999977647383
30
0
11
196.99999752648708
21
-133.00006178138261
31
0
0
ARC
5
201
100
AcDbEntity
8
0
100
AcDbCircle
10
194.99999752648876
20
-133.00006432948084
30
0
40
1.9999999999999463
210
0
220
-0
230
1
100
AcDbArc
50
7.299639853675914e-05
51
90.000072997636167
0
LINE
5
202
100
AcDbEntity
8
0
100
AcDbLine
10
194.99999497839056
20
-131.00006432948251
30
0
11
176.00001317119245
21
-131.00010000283498
31
0
0
ARC
5
203
100
AcDbEntity
8
0
100
AcDbCircle
10
176.00000807497588
20
-127.00008432723192
30
0
40
4.0000156756062948
210
0
220
0
230
1
100
AcDbArc
50
179.99882082793681
51
270.00007299763911
0
LINE
5
204
100
AcDbEntity
8
0
100
AcDbLine
10
171.99999240021668
20
-127.00000200515844
30
0
11
171.99999341437675
21
-122.99999947207311
31
0
0
ARC
5
205
100
AcDbEntity
8
0
100
AcDbCircle
10
175.99998307279864
20
-123.00006319617913
30
0
40
3.9999896589294748
210
0
220
0
230
1
100
AcDbArc
50
90.000072997638853
51
179.99908721734226
0
LINE
5
206
100
AcDbEntity
8
0
100
AcDbLine
10
175.99997797661524
20
-119.00007353725289
30
0
11
194.9999796897672
21
-119.00003786387504
31
0
0
ARC
5
207
100
AcDbEntity
8
0
100
AcDbCircle
10
194.99997714166898
20
-117.00003786387667
30
0
40
1.9999999999999996
210
-0
220
0
230
1
100
AcDbArc
50
-89.999927002363023
51
7.299639853675914e-05
0
LINE
5
208
100
AcDbEntity
8
0
100
AcDbLine
10
196.99997714166733
20
-117.00003531577833
30
0
11
196.9999745935236
21
-114.9999994784506
31
0
0
LINE
5
209
100
AcDbEntity
8
0
100
AcDbLine
10
196.9999745935236
20
-114.9999994784506
30
0
11
199.99999833703271
21
-114.99999947845097
31
0
0
ARC
5
210
100
AcDbEntity
8
0
100
AcDbCircle
10
199.99999833703296
20
-112.99999947845096
30
0
40
2.0000000000000107
210
0
220
0
230
1
100
AcDbArc
50
-90.000000000007333
51
5.1904943952083148e-05
0
LINE
5
211
100
AcDbEntity
8
0
100
AcDbLine
10
201.99999833703214
20
-112.99999766647005
30
0
11
201.99999539256589
21
-109.00000132023496
31
0
0
ARC
5
212
100
AcDbEntity
8
0
100
AcDbCircle
10
203.99999561906247
20
-108.99999950825382
30
0
40
2.0000000000000284
210
0
220
-0
230
1
100
AcDbArc
50
89.999999999991857
51
180.00005190494394
0
LINE
5
213
100
AcDbEntity
8
0
100
AcDbLine
10
203.99999561906276
20
-106.99999950825379
30
0
11
241.00000624731595
21
-106.99999950825914
31
0
0
ARC
5
214
100
AcDbEntity
8
0
100
AcDbCircle
10
241.00000624731621
20
-104.99999950825988
30
0
40
1.9999999999992646
210
0
220
0
230
1
100
AcDbArc
50
269.99999999999267
51
360
0
LINE
5
215
100
AcDbEntity
8
0
100
AcDbLine
10
243.00000624731547
20
-104.99999950826012
30
0
11
243.00000624731638
21
-98.999999508260061
31
0
0
ARC
5
216
100
AcDbEntity
8
0
100
AcDbCircle
10
245.00000624731686
20
-98.999999508260274
30
0
40
2.000000000000508
210
0
220
-0
230
1
100
AcDbArc
50
89.999999999993491
51
180
0
LINE
5
217
100
AcDbEntity
8
0
100
AcDbLine
10
245.00000624731709
20
-96.999999508259762
30
0
11
282.99999375268828
21
-96.999999508261709
31
0
0
ARC
5
218
100
AcDbEntity
8
0
100
AcDbCircle
10
282.99999375268817
20
-98.999999508261624
30
0
40
1.9999999999999929
210
0
220
0
230
1
100
AcDbArc
50
0
51
89.999999999996746
0
LINE
5
219
100
AcDbEntity
8
0
100
AcDbLine
10
284.99999375268817
20
-98.999999508261624
30
0
11
284.99999375268817
21
-104.99999950826168
31
0
0
ARC
5
220
100
AcDbEntity
8
0
100
AcDbCircle
10
286.99999375268817
20
-104.99999950826168
30
0
40
1.9999999999999929
210
0
220
0
230
1
100
AcDbArc
50
180
51
270
0
LINE
5
221
100
AcDbEntity
8
0
100
AcDbLine
10
286.99999375268817
20
-106.99999950826168
30
0
11
330.00000438094133
21
-106.99999928176425
31
0
0
ARC
5
222
100
AcDbEntity
8
0
100
AcDbCircle
10
330.00000438094139
20
-108.99999950826164
30
0
40
2.0000004529947937
210
0
220
0
230
1
100
AcDbArc
50
-5.1904943960176338e-05
51
90.000000000001634
0
LINE
5
223
100
AcDbEntity
8
0
100
AcDbLine
10
332.00000483393535
20
-109.00000132024331
30
0
11
332.00000120997629
21
-112.99999766647774
31
0
0
ARC
5
224
100
AcDbEntity
8
0
100
AcDbCircle
10
334.00000166297042
20
-112.99999947845934
30
0
40
2.0000004529949358
210
0
220
0
230
1
100
AcDbArc
50
179.99994809505606
51
270
0
LINE
5
225
100
AcDbEntity
8
0
100
AcDbLine
10
334.00000166297042
20
-114.99999993145428
30
0
11
337.00002540647949
21
-114.99999947845936
31
0
0
LINE
5
226
100
AcDbEntity
8
0
100
AcDbLine
10
337.00002540647949
20
-114.99999947845936
30
0
11
337.00002285833546
21
-117.00003531578709
31
0
0
ARC
5
227
100
AcDbEntity
8
0
100
AcDbCircle
10
339.00002285833386
20
-117.00003786388567
30
0
40
2.0000000000000173
210
0
220
0
230
1
100
AcDbArc
50
179.99992700360147
51
269.99992700235651
0
LINE
5
228
100
AcDbEntity
8
0
100
AcDbLine
10
339.00002031023541
20
-119.00003786388407
30
0
11
358.00002202338737
21
-119.00007353726534
31
0
0
LWPOLYLINE
5
229
100
AcDbEntity
8
0
100
AcDbPolyline
90
126
70
1
43
0.0
10
358.00001739212792
20
-15.000182319379745
42
-0.41421311301571462
10
366.00000508337735
20
-23.000182354502297
10
366.00000506581159
20
-27.000114863398977
42
-0.41421401173062505
10
357.99999275706108
20
-35.000114828257693
10
344.00000662240126
20
-35.000079440623239
42
0.4142138520728923
10
342.00000156702333
20
-37.000076363428242
10
342.0000000285454
20
-38.00000023841865
42
-0.41421352764494174
10
340.00000023841858
20
-40.000000240786434
10
338.99999968707561
20
-40.000000359988768
42
0.41421352753736063
10
336.9999999256936
20
-42.000000359226163
10
336.99999992562431
20
-57.500000894069672
10
330.99999992563323
20
-57.500000894042856
42
0.41421356237440354
10
328.99999992562437
20
-59.500000894042842
10
328.99999992562425
20
-90.499999105957144
42
0.41421356237441392
10
330.99999992563335
20
-92.499999105957173
10
336.99999992562431
20
-92.499999105930328
10
336.9999999256936
20
-107.99999964077384
42
0.41421352753738144
10
338.99999968707561
20
-109.99999964001123
10
340.00000023841858
20
-109.99999975921354
42
-0.41421352764494235
10
342.00000002854546
20
-111.99999976158136
10
342.00000156702231
20
-112.99992363657175
42
0.41421356237310281
10
344.00000464420759
20
-114.99992055938176
10
357.99999275706108
20
-114.99988517174224
42
-0.41421401173062505
10
366.00000506581171
20
-122.99988513660102
10
366.00000508337735
20
-126.9998176454977
42
-0.41421311301571495
10
358.00001739212792
20
-134.99981768062025
10
344.00003343778513
20
-134.99985306825505
42
0.41421327267324004
10
342.00003849316971
20
-136.99985614543536
10
342.00005080214157
20
-144.99999999976507
42
-0.41421357449047347
10
337
20
-150.00000036936422
10
329.0000017136245
20
-150.00000027960024
42
0.41421356237311846
10
327.00000169118363
20
-152.00000025715923
10
327.00000143311217
20
-166.00000025782279
42
-0.4142135623730937
10
319.00000134334829
20
-174.00000016805882
10
315.00000134334522
20
-174.00000012317685
42
-0.41416702528187677
10
307.00000153407933
20
-166.00127115486509
10
307.0000016911805
20
-152.00000003274988
42
0.41421356237310025
10
305.00000171362137
20
-150.00000001030881
10
303.99999940395355
20
-149.99999999908829
42
-0.41421356230661327
10
301.99999940404308
20
-148
10
301.99999940404302
20
-146.99999992549419
42
0.41421356236755663
10
299.99999940398527
20
-144.99999992547453
10
286.49999865889549
20
-144.99999992547555
10
286.49999865889509
20
-138.9999998062849
42
0.41421356237309764
10
284.49999865889492
20
-136.99999980628502
10
249.50000134120131
20
-136.99999980628718
42
0.41421356237309764
10
247.50000134120148
20
-138.99999980628709
10
247.5000013412014
20
-144.99985577449962
10
233.99990754446173
20
-144.9998644304261
42
0.41421338853629946
10
231.99969570871164
20
-147.00007731302949
10
231.99969567366304
20
-147.9994002006305
42
-0.41421355315642255
10
229.99900851235341
20
-150.0000872845591
10
228.99999863700634
20
-150.00008724952141
42
0.41421356141697641
10
226.99999789866933
20
-152.00008650511529
10
226.99999829504972
20
-166.00201890619269
42
-0.4141396494671184
10
218.99999859918273
20
-174.00000013270426
10
214.99999859686892
20
-174.00000027429584
42
-0.41421355615750716
10
206.99999840859488
20
-166.00000043354066
10
206.99999785908352
20
-152.00008721547673
42
0.41421356118121799
10
204.99999867495791
20
-150.00008640778304
10
197.00000017397301
20
-150.00008612720362
42
-0.41421368290399579
10
192.00000034933569
20
-145.00008389425045
10
191.99996161886818
20
-136.99985606466075
42
0.41421356237489521
10
189.99996469852925
20
-134.99985298499217
10
175.9913855028019
20
-134.99981755621175
42
-0.4138983932161443
10
167.99999489857836
20
-126.99982218899167
10
167.99999488866683
20
-122.99988763381025
42
-0.41421401742903219
10
176.00000723757324
20
-114.99988755346307
10
189.99999540743059
20
-114.99992070810077
42
0.41421356238476759
10
191.99999849429204
20
-112.99992379488735
10
192.00000003412495
20
-111.99999670270589
42
-0.41421307645246119
10
193.99999979593645
20
-109.99999978259871
10
195.00000031760436
20
-109.99999966350674
42
0.41421352744514828
10
197.00000007942063
20
-107.999999663826
10
197.00000007450581
20
-89.999999105930328
10
202.00000007450581
20
-89.999999105930328
10
202.00000007450581
20
-60.000000894069672
10
197.00000007450581
20
-60.000000894069672
10
197.00000007942063
20
-42.000000336173997
42
0.41421352744513401
10
195.00000031760436
20
-40.000000336493251
10
193.99999979593645
20
-40.000000217401293
42
-0.41421307645246314
10
192.00000003412495
20
-38.0000032972941
10
191.99999849429204
20
-37.000076205112642
42
0.4142135623847682
10
189.99999540743059
20
-35.00007929189924
10
176.00001383419004
20
-35.000112446524035
42
-0.41421425894217134
10
167.99999488866683
20
-27.000112366189747
10
167.99999489857825
20
-23.000177811008328
42
-0.4138983932161453
10
175.99138550280196
20
-15.00018244378813
10
189.99996469852925
20
-15.000147015007814
42
0.41421356237487733
10
191.99996161886818
20
-13.000143935339246
10
192.00000034933572
20
-4.9999161057495662
42
-0.41421368290399657
10
197.00000017397298
20
8.6127203609009939e-05
10
204.99999867495791
20
8.6407783051745124e-05
42
0.41421356118121022
10
206.99999785908346
20
2.000087215476718
10
207.00001158958264
20
15.924614589230529
42
-0.41368600637096109
10
214.99999869886096
20
23.910202312637754
10
218.9999987011748
20
23.910202267919498
42
-0.4138948545358585
10
226.99999391462271
20
15.918908225165218
10
226.99999789866933
20
2.000086505115291
42
0.41421356141697163
10
228.99999863700634
20
8.7249521429910715e-05
10
229.99900851235341
20
8.7284559008304896e-05
42
-0.41421355315642583
10
231.99969567366293
20
-2.0005997993694979
10
231.99969570871164
20
-2.9999226869704914
42
0.41421338853631096
10
233.99990754446168
20
-5.0001355695738958
10
247.5000013412014
20
-5.0001431086133952
10
247.5000013412014
20
-11.000000193712898
42
0.41421356237305634
10
249.50000134120128
20
-13.000000193712777
10
284.49999865889492
20
-13.000000193715106
42
0.41421356237309664
10
286.49999865889509
20
-11.000000193715227
10
286.49999865889549
20
-5.0000000745245643
10
299.99999940398527
20
-5.0000000745254702
42
0.41421356236755075
10
301.99999940404302
20
-3.0000000745058042
10
301.99999940404302
20
-1.9999999999999998
42
-0.41421356230661249
10
303.99999940395355
20
-9.1167962068539055e-10
10
305.00000171362137
20
1.0308822961935249e-08
42
0.4142135623730932
10
307.0000016911805
20
2.0000000327498668
10
307.00000153510121
20
15.910202168628249
42
-0.41421356237309503
10
315.0000014453372
20
23.91020225839215
10
319.00000144534027
20
23.9102023032742
42
-0.41421356237309426
10
327.00000153510422
20
15.910202393038038
10
327.00000169118363
20
2.0000002571592401
42
0.4142135623730831
10
329.0000017136245
20
2.7960031623308623e-07
10
337
20
3.6936414926636019e-07
42
-0.4142135744904733
10
342.00005080214146
20
-5.000000000234941
10
342.00003849316971
20
-13.000143854564639
42
0.41421327267322217
10
344.00003343778513
20
-15.000146931744922
0
ENDSEC
0
SECTION
2
OBJECTS
0
DICTIONARY
5
C
100
AcDbDictionary
3
ACAD_GROUP
350
D
3
ACAD_MLINESTYLE
350
17
0
DICTIONARY
5
D
100
AcDbDictionary
0
DICTIONARY
5
1A
330
C
100
AcDbDictionary
0
DICTIONARY
5
17
100
AcDbDictionary
0
ENDSEC
0
EOF
