0
SECTION
2
HEADER
9
$INSUNITS
70
4
9
$ACADVER
1
AC1014
9
$HANDSEED
5
FFFF
0
ENDSEC
0
SECTION
2
TABLES
0
TABLE
2
VPORT
5
8
100
AcDbSymbolTable
0
ENDTAB
0
TABLE
2
LTYPE
5
5
100
AcDbSymbolTable
0
LTYPE
5
14
100
AcDbSymbolTableRecord
100
AcDbLinetypeTableRecord
2
BYBLOCK
70
0
0
LTYPE
5
15
100
AcDbSymbolTableRecord
100
AcDbLinetypeTableRecord
2
BYLAYER
70
0
0
ENDTAB
0
TABLE
2
LAYER
5
2
100
AcDbSymbolTable
70
2
0
LAYER
5
50
100
AcDbSymbolTableRecord
100
AcDbLayerTableRecord
2
0
70
0
6
CONTINUOUS
0
ENDTAB
0
TABLE
2
STYLE
5
3
100
AcDbSymbolTable
70
1
0
STYLE
5
11
100
AcDbSymbolTableRecord
100
AcDbTextStyleTableRecord
2
STANDARD
70
0
0
ENDTAB
0
TABLE
2
VIEW
5
6
100
AcDbSymbolTable
70
0
0
ENDTAB
0
TABLE
2
UCS
5
7
100
AcDbSymbolTable
70
0
0
ENDTAB
0
TABLE
2
APPID
5
9
100
AcDbSymbolTable
70
2
0
APPID
5
12
100
AcDbSymbolTableRecord
100
AcDbRegAppTableRecord
2
ACAD
70
0
0
ENDTAB
0
TABLE
2
DIMSTYLE
5
A
100
AcDbSymbolTable
70
1
0
ENDTAB
0
TABLE
2
BLOCK_RECORD
5
1
100
AcDbSymbolTable
70
1
0
BLOCK_RECORD
5
1F
100
AcDbSymbolTableRecord
100
AcDbBlockTableRecord
2
*MODEL_SPACE
0
BLOCK_RECORD
5
1B
100
AcDbSymbolTableRecord
100
AcDbBlockTableRecord
2
*PAPER_SPACE
0
ENDTAB
0
ENDSEC
0
SECTION
2
BLOCKS
0
BLOCK
5
20
100
AcDbEntity
100
AcDbBlockBegin
2
*MODEL_SPACE
0
ENDBLK
5
21
100
AcDbEntity
100
AcDbBlockEnd
0
BLOCK
5
1C
100
AcDbEntity
100
AcDbBlockBegin
2
*PAPER_SPACE
0
ENDBLK
5
1D
100
AcDbEntity
100
AcDbBlockEnd
0
ENDSEC
0
SECTION
2
ENTITIES
0
CIRCLE
5
100
100
AcDbEntity
8
0
100
AcDbCircle
10
432.00000514090061
20
-55.000000223517418
30
0
40
1.4999999999999858
210
0
220
-0
230
1
0
LINE
5
101
100
AcDbEntity
8
0
100
AcDbLine
10
437.00000651180744
20
-27.500000214204157
30
0
11
437.00000651180744
21
-22.500000530853903
31
0
0
LINE
5
102
100
AcDbEntity
8
0
100
AcDbLine
10
437.00000651180744
20
-22.500000530853903
30
0
11
452.00000008847564
21
-22.500000530853903
31
0
0
LINE
5
103
100
AcDbEntity
8
0
100
AcDbLine
10
452.00000008847564
20
-22.500000530853903
30
0
11
452.0000003259629
21
-20.000000065192562
31
0
0
LINE
5
104
100
AcDbEntity
8
0
100
AcDbLine
10
452.0000003259629
20
-20.000000065192562
30
0
11
457.0000011920929
21
-20.000000223517418
31
0
0
LINE
5
105
100
AcDbEntity
8
0
100
AcDbLine
10
457.0000011920929
20
-20.000000223517418
30
0
11
457.0000011920929
21
-30.000000521540642
31
0
0
LINE
5
106
100
AcDbEntity
8
0
100
AcDbLine
10
457.0000011920929
20
-30.000000521540642
30
0
11
452.00000000931323
21
-30.000000363215751
31
0
0
LINE
5
107
100
AcDbEntity
8
0
100
AcDbLine
10
452.00000000931323
20
-30.000000363215751
30
0
11
452.00000008847564
21
-27.500000214204157
31
0
0
LINE
5
108
100
AcDbEntity
8
0
100
AcDbLine
10
452.00000008847564
20
-27.500000214204157
30
0
11
437.00000651180744
21
-27.500000214204157
31
0
0
LWPOLYLINE
5
109
100
AcDbEntity
8
0
100
AcDbPolyline
90
8
70
1
43
0.0
10
444.00000661611557
20
-17.000000283122063
42
-0.41421356237309243
10
442.00000661611557
20
-19.000000283122063
10
438.00000651180744
20
-19.000000283122077
42
-0.41421356237307194
10
436.00000651180744
20
-17.000000283122063
10
436.00000651180744
20
-15.500000283122063
42
-0.41421356237307128
10
438.00000651180744
20
-13.50000028312207
10
442.00000661611557
20
-13.500000283122048
42
-0.41421356237309309
10
444.00000661611557
20
-15.500000283122064
0
LWPOLYLINE
5
110
100
AcDbEntity
8
0
100
AcDbPolyline
90
4
70
1
43
0.0
10
436.99999888241291
20
-5.000000074505806
10
392.00000067055225
20
-5.000000074505806
10
392.00000067055225
20
-10.00000111758709
10
436.99999888241291
20
-10.00000111758709
0
LWPOLYLINE
5
111
100
AcDbEntity
8
0
100
AcDbPolyline
90
8
70
1
43
0.0
10
440.0000065863133
20
-60.0000008940697
42
-0.41421356237309437
10
444.00000658631325
20
-64.000000894069672
10
444.00000658631325
20
-86.000001341104507
42
-0.4142135623730937
10
440.0000065863133
20
-90.000001341104507
10
429.00000633299351
20
-90.000001341104479
42
-0.4142135623730937
10
425.00000633299351
20
-86.000001341104507
10
425.00000633299351
20
-64.000000894069672
42
-0.4142135623730937
10
429.00000633299351
20
-60.000000894069672
0
LINE
5
112
100
AcDbEntity
8
0
100
AcDbLine
10
452.00000008847564
20
-122.50000202097002
30
0
11
452.00000000931323
21
-120.00000187195843
31
0
0
LINE
5
113
100
AcDbEntity
8
0
100
AcDbLine
10
452.00000000931323
20
-120.00000187195843
30
0
11
457.0000011920929
21
-120.00000171363354
31
0
0
LINE
5
114
100
AcDbEntity
8
0
100
AcDbLine
10
457.0000011920929
20
-120.00000171363354
30
0
11
457.0000011920929
21
-130.00000201165676
31
0
0
LINE
5
115
100
AcDbEntity
8
0
100
AcDbLine
10
457.0000011920929
20
-130.00000201165676
30
0
11
452.0000003259629
21
-130.00000216998163
31
0
0
LINE
5
116
100
AcDbEntity
8
0
100
AcDbLine
10
452.0000003259629
20
-130.00000216998163
30
0
11
452.00000008847564
21
-127.50000170432028
31
0
0
LINE
5
117
100
AcDbEntity
8
0
100
AcDbLine
10
452.00000008847564
20
-127.50000170432028
30
0
11
437.00000651180744
21
-127.50000170432028
31
0
0
LINE
5
118
100
AcDbEntity
8
0
100
AcDbLine
10
437.00000651180744
20
-127.50000170432028
30
0
11
437.00000651180744
21
-122.50000202097002
31
0
0
LINE
5
119
100
AcDbEntity
8
0
100
AcDbLine
10
437.00000651180744
20
-122.50000202097002
30
0
11
452.00000008847564
21
-122.50000202097002
31
0
0
CIRCLE
5
120
100
AcDbEntity
8
0
100
AcDbCircle
10
408.00000566244131
20
-61.000001117587097
30
0
40
1.0000000000000142
210
0
220
-0
230
1
0
CIRCLE
5
121
100
AcDbEntity
8
0
100
AcDbCircle
10
392.00000514090061
20
-135.00000201165676
30
0
40
1.4999999999999858
210
0
220
-0
230
1
0
CIRCLE
5
122
100
AcDbEntity
8
0
100
AcDbCircle
10
432.00000514090061
20
-95.000002011656761
30
0
40
1.4999999999999858
210
0
220
-0
230
1
0
CIRCLE
5
123
100
AcDbEntity
8
0
100
AcDbCircle
10
408.00000566244131
20
-89.000001117587118
30
0
40
1.0000000000000142
210
0
220
-0
230
1
0
CIRCLE
5
124
100
AcDbEntity
8
0
100
AcDbCircle
10
380.00000566244131
20
-61.000001117587104
30
0
40
0.99999980628489027
210
0
220
-0
230
1
0
LWPOLYLINE
5
125
100
AcDbEntity
8
0
100
AcDbPolyline
90
8
70
1
43
0.0
10
444.00000661611557
20
-134.50000195205212
42
-0.41421356237309243
10
442.00000661611557
20
-136.50000195205212
10
438.00000651180738
20
-136.50000195205212
42
-0.41421356237305862
10
436.00000651180744
20
-134.50000195205212
10
436.00000651180744
20
-133.00000195205212
42
-0.41421356237307161
10
438.00000651180744
20
-131.00000195205212
10
442.00000661611557
20
-131.00000195205209
42
-0.41421356237309243
10
444.00000661611557
20
-133.00000195205212
0
CIRCLE
5
126
100
AcDbEntity
8
0
100
AcDbCircle
10
371.00000484287756
20
-85.00000111758709
30
0
40
4.0749999999999877
210
0
220
-0
230
1
0
LWPOLYLINE
5
127
100
AcDbEntity
8
0
100
AcDbPolyline
90
4
70
1
43
0.0
10
417.49999970197683
20
-86.500001117587203
42
-0.99999999999999989
10
415.49999970197683
20
-86.50000111758709
10
415.49999970197683
20
-63.500001117586997
42
-0.99999999999999989
10
417.49999970197683
20
-63.50000111758709
0
CIRCLE
5
128
100
AcDbEntity
8
0
100
AcDbCircle
10
380.00000566244131
20
-89.00000111758709
30
0
40
0.99999980628489027
210
0
220
-0
230
1
0
LWPOLYLINE
5
129
100
AcDbEntity
8
0
100
AcDbPolyline
90
4
70
1
43
0.0
10
361.44000484287756
20
-76.500000894069686
10
375.44000484287756
20
-76.500000894069686
10
375.44000484287756
20
-62.500000894069679
10
361.44000484287756
20
-62.500000894069679
0
LWPOLYLINE
5
130
100
AcDbEntity
8
0
100
AcDbPolyline
90
4
70
1
43
0.0
10
392.00000067055225
20
-145.00000216066837
10
436.99999888241291
20
-145.00000216066837
10
436.99999888241291
20
-140.00000111758709
10
392.00000067055225
20
-140.00000111758709
0
LWPOLYLINE
5
131
100
AcDbEntity
8
0
100
AcDbPolyline
90
16
70
1
43
0.0
10
401.29180172994199
20
-61.000001117587097
10
386.70820959494074
20
-61.000001117587104
42
0.33167926656829605
10
384.79157989994087
20
-62.428572546158549
42
-0.25302451236004198
10
381.42857709101281
20
-65.79157535508665
42
0.33167926656827212
10
380.00000566244131
20
-67.708205050086463
10
380.00000566244131
20
-82.291797185087731
42
0.33167926656826519
10
381.42857709101281
20
-84.208426880087643
42
-0.25302451236004103
10
384.79157989994076
20
-87.571429689015687
42
0.33167926656826585
10
386.70820959494074
20
-89.00000111758709
10
401.29180172994199
20
-89.000001117587118
42
0.33167926656829794
10
403.20843142494175
20
-87.571429689015687
42
-0.25302451236004136
10
406.57143423386981
20
-84.2084268800876
42
0.33167926656827568
10
408.00000566244131
20
-82.291797185087773
10
408.00000566244131
20
-67.708205050086406
42
0.3316792665682608
10
406.57143423386981
20
-65.791575355086621
42
-0.25302451236004148
10
403.20843142494175
20
-62.428572546158534
42
0.33167926656827551
0
LWPOLYLINE
5
132
100
AcDbEntity
8
0
100
AcDbPolyline
90
8
70
1
43
0.0
10
402.05554674206894
20
-93.707802802699916
42
-0.21048625694688219
10
406.08569730851394
20
-93.619029535564536
42
0.27974330977728856
10
411.21416938104062
20
-92.830033962104963
42
-0.2104862569473594
10
415.08463795334978
20
-91.70332756201995
42
-0.73451580924724025
10
422.76589507198491
20
-135.88888934420214
42
-0.11953509815864247
10
418.18466531407665
20
-137.00000111758709
10
405.81534496772457
20
-137.00000111758709
42
-0.11953509815864539
10
401.23411520981631
20
-135.88888934420214
42
-0.62304564346121982
0
LWPOLYLINE
5
133
100
AcDbEntity
8
0
100
AcDbPolyline
90
8
70
1
43
0.0
10
415.08463795335052
20
-58.296674673160467
42
-0.21048625694736392
10
411.21416938103948
20
-57.169968273070573
42
0.27974330977728529
10
406.08569730851394
20
-56.380972699609615
42
-0.21048625694688519
10
402.05554674206894
20
-56.292199432474334
42
-0.62304564346122016
10
401.23411520981631
20
-14.111112890972047
42
-0.11953509815864381
10
405.81534496772457
20
-13.000001117587088
10
418.18466531407665
20
-13.000001117587114
42
-0.11953509815864101
10
422.76589507198776
20
-14.111112890966403
42
-0.73451580924724214
0
CIRCLE
5
134
100
AcDbEntity
8
0
100
AcDbCircle
10
392.00000514090061
20
-15.000000223517418
30
0
40
1.4999999999999858
210
0
220
-0
230
1
0
LWPOLYLINE
5
135
100
AcDbEntity
8
0
100
AcDbPolyline
90
40
70
1
43
0.0
10
462.0000011920929
20
-30.000000521540642
42
-0.41421356237309503
10
457.0000011920929
20
-35.000000521540642
10
451.99999985098839
20
-35.000000223517418
10
446.99999977648258
20
-35.000000223517418
10
446.99999977648258
20
-60.000000894069672
10
451.99999985098839
20
-60.000000894069672
10
451.99999985098839
20
-90.000001341104507
10
446.99999977648258
20
-90.000001341104507
10
446.99999977648258
20
-115.00000201165676
10
451.99999985098839
20
-115.00000201165676
10
457.0000011920929
20
-115.00000171363354
42
-0.41421356237309503
10
462.0000011920929
20
-120.00000171363354
10
462.0000011920929
20
-130.00000201165676
42
-0.41421356237309503
10
457.0000011920929
20
-135.00000201165676
10
446.99999977648258
20
-135.00000201165676
10
446.99999977648258
20
-145.00000223517418
42
-0.41421356237309503
10
441.99999977648258
20
-150.00000223517418
10
386.99999977648258
20
-150.00000223517418
42
-0.41421356237309503
10
381.99999977648258
20
-145.00000223517418
10
381.99999977648258
20
-135.00000201165676
10
376.99999970197678
20
-135.00000201165676
10
376.99999970197678
20
-115.00000201165676
10
381.99999977648258
20
-115.00000201165676
10
381.99999977648258
20
-92.500001341104507
10
361.99999970197672
20
-92.500001341104507
42
-0.41421356237309087
10
356.99999970197678
20
-87.500001341104507
10
356.99999970197678
20
-62.500000894069679
42
-0.41421356237309503
10
361.99999970197678
20
-57.500000894069679
10
381.99999977648258
20
-57.500000894069672
10
381.99999977648258
20
-35.000000223517418
10
376.99999970197678
20
-35.000000223517418
10
376.99999970197678
20
-15.000000223517418
10
381.99999977648258
20
-15.000000223517418
10
381.99999977648258
20
-5
42
-0.41421356237309503
10
386.99999977648258
20
0
10
441.99999977648258
20
5.5511151231257827e-16
42
-0.41421356237309509
10
446.99999977648258
20
-5
10
446.99999977648258
20
-15.000000223517418
10
457.0000011920929
20
-15.000000223517418
42
-0.41421356237309503
10
462.0000011920929
20
-20.000000223517418
0
ENDSEC
0
SECTION
2
OBJECTS
0
DICTIONARY
5
C
100
AcDbDictionary
3
ACAD_GROUP
350
D
3
ACAD_MLINESTYLE
350
17
0
DICTIONARY
5
D
100
AcDbDictionary
0
DICTIONARY
5
1A
330
C
100
AcDbDictionary
0
DICTIONARY
5
17
100
AcDbDictionary
0
ENDSEC
0
EOF
