0
SECTION
2
HEADER
9
$INSUNITS
70
4
9
$ACADVER
1
AC1014
9
$HANDSEED
5
FFFF
0
ENDSEC
0
SECTION
2
TABLES
0
TABLE
2
VPORT
5
8
100
AcDbSymbolTable
0
ENDTAB
0
TABLE
2
LTYPE
5
5
100
AcDbSymbolTable
0
LTYPE
5
14
100
AcDbSymbolTableRecord
100
AcDbLinetypeTableRecord
2
BYBLOCK
70
0
0
LTYPE
5
15
100
AcDbSymbolTableRecord
100
AcDbLinetypeTableRecord
2
BYLAYER
70
0
0
ENDTAB
0
TABLE
2
LAYER
5
2
100
AcDbSymbolTable
70
2
0
LAYER
5
50
100
AcDbSymbolTableRecord
100
AcDbLayerTableRecord
2
0
70
0
6
CONTINUOUS
0
ENDTAB
0
TABLE
2
STYLE
5
3
100
AcDbSymbolTable
70
1
0
STYLE
5
11
100
AcDbSymbolTableRecord
100
AcDbTextStyleTableRecord
2
STANDARD
70
0
0
ENDTAB
0
TABLE
2
VIEW
5
6
100
AcDbSymbolTable
70
0
0
ENDTAB
0
TABLE
2
UCS
5
7
100
AcDbSymbolTable
70
0
0
ENDTAB
0
TABLE
2
APPID
5
9
100
AcDbSymbolTable
70
2
0
APPID
5
12
100
AcDbSymbolTableRecord
100
AcDbRegAppTableRecord
2
ACAD
70
0
0
ENDTAB
0
TABLE
2
DIMSTYLE
5
A
100
AcDbSymbolTable
70
1
0
ENDTAB
0
TABLE
2
BLOCK_RECORD
5
1
100
AcDbSymbolTable
70
1
0
BLOCK_RECORD
5
1F
100
AcDbSymbolTableRecord
100
AcDbBlockTableRecord
2
*MODEL_SPACE
0
BLOCK_RECORD
5
1B
100
AcDbSymbolTableRecord
100
AcDbBlockTableRecord
2
*PAPER_SPACE
0
ENDTAB
0
ENDSEC
0
SECTION
2
BLOCKS
0
BLOCK
5
20
100
AcDbEntity
100
AcDbBlockBegin
2
*MODEL_SPACE
0
ENDBLK
5
21
100
AcDbEntity
100
AcDbBlockEnd
0
BLOCK
5
1C
100
AcDbEntity
100
AcDbBlockBegin
2
*PAPER_SPACE
0
ENDBLK
5
1D
100
AcDbEntity
100
AcDbBlockEnd
0
ENDSEC
0
SECTION
2
ENTITIES
0
LWPOLYLINE
5
100
100
AcDbEntity
8
0
100
AcDbPolyline
90
40
70
1
43
0.0
10
-30.000000521540592
20
-9.9999963492152908
42
-0.41421356237309503
10
-35.000000521540592
20
-4.9999963492152899
10
-35.000000223517389
20
4.9918892175426777e-06
10
-35.000000223517389
20
5.0000050663950208
10
-60.000000894069593
20
5.0000050663950208
10
-60.000000894069593
20
4.9918892177647197e-06
10
-90.000001341104493
20
4.9918892175426777e-06
10
-90.000001341104493
20
5.0000050663950208
10
-115.00000201165702
20
5.0000050663950208
10
-115.00000201165702
20
4.9918892175426777e-06
10
-115.00000171363402
20
-4.999996349215289
42
-0.41421356237309503
10
-120.00000171363402
20
-9.999996349215289
10
-130.00000201165699
20
-9.9999963492152908
42
-0.41421356237309503
10
-135.00000201165699
20
-4.9999963492152899
10
-135.00000201165699
20
5.0000050663950208
10
-145.00000223517401
20
5.0000050663950297
42
-0.41421356237309515
10
-150.00000223517401
20
10.000005066395028
10
-150.00000223517401
20
65.000005066395047
42
-0.41421356237309503
10
-145.00000223517401
20
70.000005066395047
10
-135.00000201165699
20
70.000005066395047
10
-135.00000201165699
20
75.000005140900839
10
-115.00000201165702
20
75.000005140900839
10
-115.00000201165702
20
70.000005066395047
10
-92.500001341104493
20
70.000005066395047
10
-92.500001341104493
20
90.000005140900925
42
-0.41421356237308982
10
-87.500001341104493
20
95.000005140900839
10
-62.5000008940697
20
95.000005140900839
42
-0.41421356237309503
10
-57.5000008940697
20
90.000005140900839
10
-57.500000894069593
20
70.000005066395047
10
-35.000000223517389
20
70.000005066395047
10
-35.000000223517389
20
75.000005140900839
10
-15.000000223517391
20
75.000005140900839
10
-15.000000223517391
20
70.000005066395047
10
-4.9999999999999716
20
70.000005066395047
42
-0.41421356237309503
10
3.2024514080557428e-14
20
65.000005066395047
10
4.7739590058881731e-14
20
10.000005066395033
42
-0.41421356237309498
10
-4.99999999999996
20
5.0000050663950208
10
-15.000000223517391
20
5.0000050663950208
10
-15.000000223517391
20
-4.999996349215289
42
-0.41421356237309503
10
-20.000000223517389
20
-9.999996349215289
0
LINE
5
101
100
AcDbEntity
8
0
100
AcDbLine
10
-140.00000111758703
20
10.00000596046473
30
1.7763568394002505e-14
11
-145.00000223517401
21
10.00000506639503
31
1.7763568394002505e-14
0
LINE
5
102
100
AcDbEntity
8
0
100
AcDbLine
10
-145.00000223517401
20
10.00000506639503
30
1.7763568394002505e-14
11
-145.00000223517401
21
65.000005066395047
31
0
0
LINE
5
103
100
AcDbEntity
8
0
100
AcDbLine
10
-145.00000223517401
20
65.000005066395047
30
0
11
-140.00000111758703
21
65.000004172325347
31
0
0
LINE
5
104
100
AcDbEntity
8
0
100
AcDbLine
10
-140.00000111758703
20
65.000004172325347
30
0
11
-140.00000111758703
21
10.00000596046473
31
1.7763568394002505e-14
0
LWPOLYLINE
5
105
100
AcDbEntity
8
0
100
AcDbPolyline
90
4
70
1
43
0.0
10
-86.500001117587118
20
35.000005140900996
42
-0.99999999999999989
10
-86.500001117587118
20
37.000005140900882
10
-63.500001117586883
20
37.000005140900669
42
-0.99999999999999989
10
-63.500001117587097
20
35.000005140900782
0
LINE
5
106
100
AcDbEntity
8
0
100
AcDbLine
10
-4.9999999999999716
20
65.000005066395047
30
0
11
-4.9999999999999609
21
10.00000506639503
31
1.7763568394002505e-14
0
LINE
5
107
100
AcDbEntity
8
0
100
AcDbLine
10
-4.9999999999999609
20
10.00000506639503
30
1.7763568394002505e-14
11
-10.000001117587091
21
10.00000596046473
31
1.7763568394002505e-14
0
LINE
5
108
100
AcDbEntity
8
0
100
AcDbLine
10
-10.000001117587091
20
10.00000596046473
30
1.7763568394002505e-14
11
-10.000001117587091
21
65.000004172325347
31
0
0
LINE
5
109
100
AcDbEntity
8
0
100
AcDbLine
10
-10.000001117587091
20
65.000004172325347
30
0
11
-4.9999999999999716
21
65.000005066395047
31
0
0
LWPOLYLINE
5
110
100
AcDbEntity
8
0
100
AcDbPolyline
90
12
70
1
43
0.0
10
-53.125000328291179
20
24.635122995086078
42
-0.30561467428254724
10
-55.000000223517361
20
27.416197385363837
10
-55.000000223517461
20
54.999999701977046
42
-0.41421356237309503
10
-50.000000223517389
20
59.999999701977117
10
-22.416199032096593
20
59.999999701977067
42
-0.30561468869996661
10
-19.635124582482433
20
58.124999660067466
42
0.20323136497624544
10
-16.875000265426888
20
55.364875343011953
42
-0.30561468869995784
10
-15.000000223517382
20
52.583800893397843
10
-15.000000223517462
20
24.999999701977032
42
-0.41421356237310103
10
-20.000000223517389
20
19.999999701977003
10
-47.583802540130492
20
19.999999701976936
42
-0.30561467428255579
10
-50.364876930408315
20
21.874999597203221
42
0.20323133751532271
0
LWPOLYLINE
5
111
100
AcDbEntity
8
0
100
AcDbPolyline
90
4
70
1
43
0.0
10
-76.5000008940697
20
92.560000000000031
10
-76.5000008940697
20
78.560000000000144
10
-62.5000008940697
20
78.560000000000144
10
-62.5000008940697
20
92.560000000000031
0
LWPOLYLINE
5
112
100
AcDbEntity
8
0
100
AcDbPolyline
90
8
70
1
43
0.0
10
-98.000001415610299
20
15.999998345971331
10
-116.000001773238
20
15.999998345971331
42
0.41421356237309503
10
-119.00000177323801
20
12.999998345971433
10
-119.00000177323801
20
10.999998226762031
42
0.41421356237309503
10
-116.000001773238
20
7.9999982267620613
10
-98.000001415610299
20
7.9999982267620613
42
0.41421356237309503
10
-95.000001415610299
20
10.999998226762031
10
-95.000001415610299
20
12.999998345971433
42
0.41421356237309503
0
LWPOLYLINE
5
113
100
AcDbEntity
8
0
100
AcDbPolyline
90
8
70
1
43
0.0
10
-60.000000894069707
20
11.999998256564332
42
-0.41421356237308787
10
-64.000000894069601
20
7.9999982565643428
10
-86.000001341104507
20
7.9999982565643464
42
-0.41421356237309503
10
-90.000001341104493
20
11.999998256564332
10
-90.000001341104493
20
22.999998509884133
42
-0.41421356237309503
10
-86.000001341104507
20
26.999998509884122
10
-64.000000894069601
20
26.999998509884144
42
-0.41421356237308787
10
-60.000000894069679
20
22.999998509884133
0
LINE
5
114
100
AcDbEntity
8
0
100
AcDbLine
10
-27.500000214204093
20
14.999998331070232
30
1.7763568394002505e-14
11
-22.500000530853889
21
14.999998331070232
31
1.7763568394002505e-14
0
LINE
5
115
100
AcDbEntity
8
0
100
AcDbLine
10
-22.500000530853889
20
14.999998331070232
30
1.7763568394002505e-14
11
-22.500000530853889
21
4.7544019612377761e-06
31
1.7763568394002505e-14
0
LINE
5
116
100
AcDbEntity
8
0
100
AcDbLine
10
-22.500000530853889
20
4.7544019612377761e-06
30
1.7763568394002505e-14
11
-20.000000065192491
21
4.5169147047108299e-06
31
1.7763568394002505e-14
0
LINE
5
117
100
AcDbEntity
8
0
100
AcDbLine
10
-20.000000065192491
20
4.5169147047108299e-06
30
1.7763568394002505e-14
11
-20.000000223517389
21
-4.999996349215289
31
1.7763568394002505e-14
0
LINE
5
118
100
AcDbEntity
8
0
100
AcDbLine
10
-20.000000223517389
20
-4.999996349215289
30
1.7763568394002505e-14
11
-30.000000521540592
21
-4.999996349215289
31
1.7763568394002505e-14
0
LINE
5
119
100
AcDbEntity
8
0
100
AcDbLine
10
-30.000000521540592
20
-4.999996349215289
30
1.7763568394002505e-14
11
-30.000000363215694
21
4.8335643795249803e-06
31
1.7763568394002505e-14
0
LINE
5
120
100
AcDbEntity
8
0
100
AcDbLine
10
-30.000000363215694
20
4.8335643795249803e-06
30
1.7763568394002505e-14
11
-27.500000214204093
21
4.7544019612377803e-06
31
1.7763568394002505e-14
0
LINE
5
121
100
AcDbEntity
8
0
100
AcDbLine
10
-27.500000214204093
20
4.7544019612377803e-06
30
1.7763568394002505e-14
11
-27.500000214204093
21
14.999998331070232
31
1.7763568394002505e-14
0
LWPOLYLINE
5
122
100
AcDbEntity
8
0
100
AcDbPolyline
90
8
70
1
43
0.0
10
-52.000000819563795
20
7.9999982267620329
42
-0.41421356237309503
10
-55.000000819563795
20
10.999998226762031
10
-55.000000819563766
20
12.999998345971433
42
-0.41421356237308554
10
-52.000000819563894
20
15.999998345971402
10
-34.00000046193599
20
15.999998345971436
42
-0.41421356237309503
10
-31.00000046193599
20
12.999998345971433
10
-31.000000461936025
20
10.999998226762031
42
-0.41421356237309503
10
-34.00000046193599
20
7.9999982267620613
0
LWPOLYLINE
5
123
100
AcDbEntity
8
0
100
AcDbPolyline
90
12
70
1
43
0.0
10
-61.000001117587111
20
51.708203112935642
42
-0.3316792665682689
10
-62.428572546158463
20
49.791573417935865
42
0.25302451236004125
10
-65.791575355086522
20
46.428570609007842
42
-0.33167926656829055
10
-67.708205050086406
20
44.999999180436305
10
-84.000001117587118
20
44.999999180436276
42
-0.41421356237310075
10
-89.000001117587075
20
49.99999918043634
10
-89.000001117587161
20
66.291795247936946
42
-0.331679266568286
10
-87.57142968901573
20
68.208424942936915
42
0.2530245123600402
10
-84.208426880087586
20
71.571427751864832
42
-0.33167926656829011
10
-82.291797185087717
20
72.999999180436376
10
-66.00000111758709
20
72.999999180436348
42
-0.41421356237308932
10
-61.000001117587097
20
67.999999180436447
0
LINE
5
124
100
AcDbEntity
8
0
100
AcDbLine
10
-122.50000202097
20
4.7544019612377803e-06
30
1.7763568394002505e-14
11
-120.00000187195802
21
4.8335643800800909e-06
31
1.7763568394002505e-14
0
LINE
5
125
100
AcDbEntity
8
0
100
AcDbLine
10
-120.00000187195802
20
4.8335643800800909e-06
30
1.7763568394002505e-14
11
-120.00000171363402
21
-4.999996349215289
31
1.7763568394002505e-14
0
LINE
5
126
100
AcDbEntity
8
0
100
AcDbLine
10
-120.00000171363402
20
-4.999996349215289
30
1.7763568394002505e-14
11
-130.00000201165699
21
-4.999996349215289
31
1.7763568394002505e-14
0
LINE
5
127
100
AcDbEntity
8
0
100
AcDbLine
10
-130.00000201165699
20
-4.999996349215289
30
1.7763568394002505e-14
11
-130.000002169982
21
4.5169147052659406e-06
31
1.7763568394002505e-14
0
LINE
5
128
100
AcDbEntity
8
0
100
AcDbLine
10
-130.000002169982
20
4.5169147052659406e-06
30
1.7763568394002505e-14
11
-127.50000170432001
21
4.7544019612377803e-06
31
1.7763568394002505e-14
0
LINE
5
129
100
AcDbEntity
8
0
100
AcDbLine
10
-127.50000170432001
20
4.7544019612377803e-06
30
1.7763568394002505e-14
11
-127.50000170432001
21
14.999998331070232
31
1.7763568394002505e-14
0
LINE
5
130
100
AcDbEntity
8
0
100
AcDbLine
10
-127.50000170432001
20
14.999998331070232
30
1.7763568394002505e-14
11
-122.50000202097
21
14.999998331070232
31
1.7763568394002505e-14
0
LINE
5
131
100
AcDbEntity
8
0
100
AcDbLine
10
-122.50000202097
20
14.999998331070232
30
1.7763568394002505e-14
11
-122.50000202097
21
4.7544019612377803e-06
31
1.7763568394002505e-14
0
LWPOLYLINE
5
132
100
AcDbEntity
8
0
100
AcDbPolyline
90
12
70
1
43
0.0
10
-135.00000201165702
20
52.583800893397843
42
-0.30561468870000019
10
-133.12500196974707
20
55.364875343012152
42
0.20323136497621938
10
-130.36487765269126
20
58.124999660067125
42
-0.30561468869999747
10
-127.58380320307701
20
59.999999701977018
10
-100.00000201165702
20
59.999999701977046
42
-0.41421356237309503
10
-95.000002011657017
20
54.999999701977046
10
-95.000002011656733
20
27.416197385363837
42
-0.30561467428255551
10
-96.875001906883
20
24.635122995086039
42
0.20323133751531727
10
-99.635125304766149
20
21.874999597203377
42
-0.30561467428256983
10
-102.416199695044
20
19.999999701976961
10
-130.00000201165699
20
19.999999701977003
42
-0.41421356237310103
10
-135.00000201165693
20
24.999999701977032
0
CIRCLE
5
133
100
AcDbEntity
8
0
100
AcDbCircle
10
-15.000000223517391
20
59.999999701977046
30
0
40
1.49999999999999
210
0
220
8.3253392105900459e-49
230
1
0
CIRCLE
5
134
100
AcDbEntity
8
0
100
AcDbCircle
10
-55.000000223517389
20
19.999999701977032
30
1.7763568394002505e-14
40
1.49999999999999
210
0
220
8.3253392105900459e-49
230
1
0
CIRCLE
5
135
100
AcDbEntity
8
0
100
AcDbCircle
10
-85.000001117587104
20
88.000000000000128
30
0
40
4.5599999999999596
210
0
220
-2.4651903288156619e-32
230
1
0
CIRCLE
5
136
100
AcDbEntity
8
0
100
AcDbCircle
10
-95.000002011656704
20
19.999999701977032
30
1.7763568394002505e-14
40
1.49999999999999
210
0
220
8.3253392105900459e-49
230
1
0
CIRCLE
5
137
100
AcDbEntity
8
0
100
AcDbCircle
10
-89.000001117587118
20
72.999999180436348
30
0
40
0.99999980628489016
210
0
220
2.4651903288156619e-32
230
1
0
CIRCLE
5
138
100
AcDbEntity
8
0
100
AcDbCircle
10
-135.00000201165699
20
59.999999701977046
30
0
40
1.49999999999999
210
0
220
8.3253392105900459e-49
230
1
0
CIRCLE
5
139
100
AcDbEntity
8
0
100
AcDbCircle
10
-61.000001117587097
20
44.99999918043634
30
0
40
1.00000000000001
210
0
220
-2.4651903288156619e-32
230
1
0
LWPOLYLINE
5
140
100
AcDbEntity
8
0
100
AcDbPolyline
90
40
70
1
43
0.0
10
-30.000000521540592
20
-9.9999963492152908
42
-0.41421356237309509
10
-35.000000521540592
20
-4.9999963492152872
10
-35.000000223517389
20
4.9918892175426777e-06
10
-35.000000223517389
20
5.0000050663950208
10
-60.000000894069593
20
5.0000050663950208
10
-60.000000894069601
20
4.9918892177647197e-06
10
-90.000001341104493
20
4.9918892175426777e-06
10
-90.000001341104493
20
5.0000050663950208
10
-115.00000201165702
20
5.0000050663950208
10
-115.00000201165702
20
4.9918892169875662e-06
10
-115.00000171363402
20
-4.999996349215289
42
-0.41421356237309503
10
-120.00000171363402
20
-9.999996349215289
10
-130.00000201165699
20
-9.9999963492152908
42
-0.41421356237309503
10
-135.00000201165699
20
-4.9999963492152899
10
-135.00000201165699
20
5.0000050663950208
10
-145.00000223517401
20
5.0000050663950297
42
-0.41421356237309542
10
-150.00000223517401
20
10.000005066395037
10
-150.00000223517401
20
65.000005066395047
42
-0.41421356237309503
10
-145.00000223517401
20
70.000005066395047
10
-135.00000201165699
20
70.000005066395047
10
-135.00000201165699
20
75.000005140900839
10
-115.00000201165702
20
75.000005140900839
10
-115.00000201165702
20
70.000005066395047
10
-92.500001341104493
20
70.000005066395047
10
-92.500001341104493
20
90.000005140900925
42
-0.41421356237309087
10
-87.500001341104479
20
95.000005140900839
10
-62.5000008940697
20
95.000005140900839
42
-0.41421356237309503
10
-57.5000008940697
20
90.000005140900839
10
-57.500000894069593
20
70.000005066395047
10
-35.000000223517389
20
70.000005066395047
10
-35.000000223517389
20
75.000005140900839
10
-15.000000223517391
20
75.000005140900839
10
-15.000000223517391
20
70.000005066395047
10
-4.9999999999999716
20
70.000005066395047
42
-0.41421356237309553
10
3.2024514080557428e-14
20
65.000005066395033
10
4.7739590058881731e-14
20
10.000005066395033
42
-0.41421356237309498
10
-4.99999999999996
20
5.0000050663950208
10
-15.000000223517391
20
5.0000050663950208
10
-15.000000223517391
20
-4.999996349215289
42
-0.41421356237309503
10
-20.000000223517389
20
-9.999996349215289
0
LWPOLYLINE
5
141
100
AcDbEntity
8
0
100
AcDbPolyline
90
4
70
1
43
0.0
10
-145.00000216066803
20
10.00000596046473
10
-140.00000111758703
20
10.000005960464726
10
-140.00000111758703
20
65.000004172325347
10
-145.00000216066803
20
65.000004172325347
0
LWPOLYLINE
5
142
100
AcDbEntity
8
0
100
AcDbPolyline
90
4
70
1
43
0.0
10
-86.500001117587118
20
35.000005140900996
42
-0.99999999999999989
10
-86.500001117587118
20
37.000005140900882
10
-63.500001117586883
20
37.000005140900669
42
-0.99999999999999989
10
-63.500001117587097
20
35.000005140900782
0
CIRCLE
5
143
100
AcDbEntity
8
0
100
AcDbCircle
10
-15.000000223517391
20
59.999999701977046
30
0
40
1.49999999999999
210
2.295845021658461e-49
220
-3.7493994566546372e-33
230
1
0
LWPOLYLINE
5
144
100
AcDbEntity
8
0
100
AcDbPolyline
90
4
70
1
43
0.0
10
-5.0000000745057713
20
10.000005960464735
10
-5.0000000745057713
20
65.000004172325347
10
-10.000001117587091
20
65.000004172325347
10
-10.000001117587091
20
10.00000596046473
0
CIRCLE
5
145
100
AcDbEntity
8
0
100
AcDbCircle
10
-55.000000223517389
20
19.999999701977032
30
0
40
1.49999999999999
210
2.295845021658461e-49
220
-3.7493994566546372e-33
230
1
0
LWPOLYLINE
5
146
100
AcDbEntity
8
0
100
AcDbPolyline
90
12
70
1
43
0.0
10
-53.125000328291193
20
24.635122995086085
42
-0.30561467428254679
10
-55.000000223517361
20
27.416197385363837
10
-55.000000223517475
20
54.999999701977046
42
-0.41421356237309348
10
-50.000000223517389
20
59.999999701977117
10
-22.416199032096593
20
59.999999701977067
42
-0.30561468869996788
10
-19.635124582482433
20
58.124999660067466
42
0.20323136497624567
10
-16.875000265426884
20
55.364875343011946
42
-0.30561468869995517
10
-15.000000223517381
20
52.583800893397843
10
-15.000000223517457
20
24.999999701977039
42
-0.41421356237310103
10
-20.000000223517389
20
19.999999701977003
10
-47.583802540130492
20
19.999999701976925
42
-0.30561467428255684
10
-50.364876930408315
20
21.874999597203221
42
0.20323133751532282
0
CIRCLE
5
147
100
AcDbEntity
8
0
100
AcDbCircle
10
-85.000001117587104
20
88.000000000000128
30
0
40
4.5599999999999588
210
2.295845021658461e-49
220
-3.7493994566546372e-33
230
1
0
LWPOLYLINE
5
148
100
AcDbEntity
8
0
100
AcDbPolyline
90
4
70
1
43
0.0
10
-76.5000008940697
20
92.560000000000031
10
-76.5000008940697
20
78.560000000000144
10
-62.5000008940697
20
78.560000000000144
10
-62.5000008940697
20
92.560000000000031
0
LWPOLYLINE
5
149
100
AcDbEntity
8
0
100
AcDbPolyline
90
8
70
1
43
0.0
10
-98.000001415610299
20
15.999998345971331
10
-116.000001773238
20
15.999998345971331
42
0.41421356237309503
10
-119.00000177323801
20
12.999998345971433
10
-119.00000177323801
20
10.999998226762031
42
0.4142135623730992
10
-116.000001773238
20
7.9999982267620613
10
-98.000001415610299
20
7.9999982267620613
42
0.41421356237309465
10
-95.000001415610299
20
10.999998226762031
10
-95.000001415610299
20
12.999998345971433
42
0.41421356237309592
0
LWPOLYLINE
5
150
100
AcDbEntity
8
0
100
AcDbPolyline
90
8
70
1
43
0.0
10
-60.000000894069707
20
11.999998256564332
42
-0.41421356237308915
10
-64.000000894069601
20
7.9999982565643428
10
-86.000001341104479
20
7.9999982565643402
42
-0.41421356237309687
10
-90.000001341104493
20
11.999998256564332
10
-90.000001341104493
20
22.999998509884133
42
-0.41421356237309503
10
-86.000001341104507
20
26.999998509884122
10
-64.000000894069601
20
26.99999850988414
42
-0.41421356237308693
10
-60.000000894069679
20
22.999998509884133
0
CIRCLE
5
151
100
AcDbEntity
8
0
100
AcDbCircle
10
-95.000002011656704
20
19.999999701977032
30
0
40
1.49999999999999
210
2.295845021658461e-49
220
-3.7493994566546372e-33
230
1
0
LWPOLYLINE
5
152
100
AcDbEntity
8
0
100
AcDbPolyline
90
8
70
1
43
0.0
10
-22.500000530853889
20
14.999998331070232
10
-27.500000214204093
20
14.999998331070232
10
-27.500000214204093
20
4.7544019612377803e-06
10
-30.000000363215694
20
4.8335643793029348e-06
10
-30.000000521540592
20
-4.999996349215289
10
-20.000000223517389
20
-4.9999963492152899
10
-20.000000065192491
20
4.5169147047108299e-06
10
-22.500000530853889
20
4.7544019610157306e-06
0
LWPOLYLINE
5
153
100
AcDbEntity
8
0
100
AcDbPolyline
90
8
70
1
43
0.0
10
-52.000000819563788
20
7.9999982267620284
42
-0.41421356237309809
10
-55.000000819563795
20
10.999998226762031
10
-55.00000081956378
20
12.999998345971433
42
-0.4142135623730866
10
-52.000000819563894
20
15.999998345971402
10
-34.000000461935997
20
15.999998345971434
42
-0.41421356237309481
10
-31.00000046193599
20
12.999998345971433
10
-31.000000461936015
20
10.999998226762031
42
-0.41421356237309465
10
-34.00000046193599
20
7.9999982267620613
0
LWPOLYLINE
5
154
100
AcDbEntity
8
0
100
AcDbPolyline
90
12
70
1
43
0.0
10
-61.000001117587111
20
51.708203112935642
42
-0.33167926656826685
10
-62.428572546158463
20
49.791573417935865
42
0.25302451236004125
10
-65.791575355086522
20
46.428570609007842
42
-0.33167926656828517
10
-67.708205050086406
20
44.999999180436305
10
-84.000001117587118
20
44.999999180436276
42
-0.41421356237310281
10
-89.000001117587075
20
49.99999918043634
10
-89.000001117587161
20
66.291795247936946
42
-0.33167926656828839
10
-87.57142968901573
20
68.208424942936915
42
0.2530245123600402
10
-84.208426880087586
20
71.571427751864832
42
-0.33167926656829133
10
-82.291797185087717
20
72.999999180436376
10
-66.000001117587104
20
72.999999180436348
42
-0.41421356237309087
10
-61.000001117587097
20
67.999999180436447
0
LWPOLYLINE
5
155
100
AcDbEntity
8
0
100
AcDbPolyline
90
8
70
1
43
0.0
10
-120.00000187195802
20
4.8335643800800909e-06
10
-122.50000202097
20
4.7544019610157306e-06
10
-122.50000202097
20
14.999998331070232
10
-127.50000170432001
20
14.999998331070232
10
-127.50000170432001
20
4.7544019612377803e-06
10
-130.000002169982
20
4.5169147050438951e-06
10
-130.00000201165699
20
-4.999996349215289
10
-120.00000171363402
20
-4.999996349215289
0
LWPOLYLINE
5
156
100
AcDbEntity
8
0
100
AcDbPolyline
90
12
70
1
43
0.0
10
-135.00000201165702
20
52.583800893397843
42
-0.30561468870000325
10
-133.12500196974707
20
55.364875343012152
42
0.20323136497621974
10
-130.36487765269123
20
58.124999660067132
42
-0.30561468870000075
10
-127.58380320307701
20
59.999999701977018
10
-100.00000201165702
20
59.999999701977032
42
-0.41421356237309453
10
-95.000002011657017
20
54.999999701977046
10
-95.000002011656733
20
27.416197385363841
42
-0.30561467428254918
10
-96.875001906883
20
24.635122995086039
42
0.20323133751531708
10
-99.635125304766149
20
21.874999597203377
42
-0.3056146742825695
10
-102.416199695044
20
19.999999701976961
10
-130.00000201165699
20
19.999999701977011
42
-0.41421356237310258
10
-135.00000201165693
20
24.999999701977032
0
CIRCLE
5
157
100
AcDbEntity
8
0
100
AcDbCircle
10
-89.000001117587118
20
72.999999180436348
30
0
40
0.99999980628489016
210
-1.279909220570708e-48
220
2.0902503831501983e-32
230
1
0
CIRCLE
5
158
100
AcDbEntity
8
0
100
AcDbCircle
10
-135.00000201165699
20
59.999999701977046
30
-1.7763568394002505e-14
40
1.49999999999999
210
2.295845021658461e-49
220
-3.7493994566546372e-33
230
1
0
CIRCLE
5
159
100
AcDbEntity
8
0
100
AcDbCircle
10
-61.000001117587097
20
44.99999918043634
30
-1.7763568394002505e-14
40
1.00000000000001
210
-1.2325951644078312e-32
220
-3.7493994566546385e-33
230
1
0
ENDSEC
0
SECTION
2
OBJECTS
0
DICTIONARY
5
C
100
AcDbDictionary
3
ACAD_GROUP
350
D
3
ACAD_MLINESTYLE
350
17
0
DICTIONARY
5
D
100
AcDbDictionary
0
DICTIONARY
5
1A
330
C
100
AcDbDictionary
0
DICTIONARY
5
17
100
AcDbDictionary
0
ENDSEC
0
EOF
