0
SECTION
2
HEADER
9
$INSUNITS
70
4
9
$ACADVER
1
AC1014
9
$HANDSEED
5
FFFF
0
ENDSEC
0
SECTION
2
TABLES
0
TABLE
2
VPORT
5
8
100
AcDbSymbolTable
0
ENDTAB
0
TABLE
2
LTYPE
5
5
100
AcDbSymbolTable
0
LTYPE
5
14
100
AcDbSymbolTableRecord
100
AcDbLinetypeTableRecord
2
BYBLOCK
70
0
0
LTYPE
5
15
100
AcDbSymbolTableRecord
100
AcDbLinetypeTableRecord
2
BYLAYER
70
0
0
ENDTAB
0
TABLE
2
LAYER
5
2
100
AcDbSymbolTable
70
2
0
LAYER
5
50
100
AcDbSymbolTableRecord
100
AcDbLayerTableRecord
2
0
70
0
6
CONTINUOUS
0
ENDTAB
0
TABLE
2
STYLE
5
3
100
AcDbSymbolTable
70
1
0
STYLE
5
11
100
AcDbSymbolTableRecord
100
AcDbTextStyleTableRecord
2
STANDARD
70
0
0
ENDTAB
0
TABLE
2
VIEW
5
6
100
AcDbSymbolTable
70
0
0
ENDTAB
0
TABLE
2
UCS
5
7
100
AcDbSymbolTable
70
0
0
ENDTAB
0
TABLE
2
APPID
5
9
100
AcDbSymbolTable
70
2
0
APPID
5
12
100
AcDbSymbolTableRecord
100
AcDbRegAppTableRecord
2
ACAD
70
0
0
ENDTAB
0
TABLE
2
DIMSTYLE
5
A
100
AcDbSymbolTable
70
1
0
ENDTAB
0
TABLE
2
BLOCK_RECORD
5
1
100
AcDbSymbolTable
70
1
0
BLOCK_RECORD
5
1F
100
AcDbSymbolTableRecord
100
AcDbBlockTableRecord
2
*MODEL_SPACE
0
BLOCK_RECORD
5
1B
100
AcDbSymbolTableRecord
100
AcDbBlockTableRecord
2
*PAPER_SPACE
0
ENDTAB
0
ENDSEC
0
SECTION
2
BLOCKS
0
BLOCK
5
20
100
AcDbEntity
100
AcDbBlockBegin
2
*MODEL_SPACE
0
ENDBLK
5
21
100
AcDbEntity
100
AcDbBlockEnd
0
BLOCK
5
1C
100
AcDbEntity
100
AcDbBlockBegin
2
*PAPER_SPACE
0
ENDBLK
5
1D
100
AcDbEntity
100
AcDbBlockEnd
0
ENDSEC
0
SECTION
2
ENTITIES
0
LWPOLYLINE
5
100
100
AcDbEntity
8
0
100
AcDbPolyline
90
8
70
1
43
0.0
10
179.99987863077513
20
-19.999998882412907
42
-0.41421356237309398
10
174.99987863077513
20
-24.999998882412907
10
154.99987813903684
20
-24.999998882412889
42
-0.41421356237309503
10
149.99987813903681
20
-19.999998882412907
10
149.99987813903684
20
-9.999998733401295
42
-0.41421356237309304
10
154.99987813903684
20
-4.9999987334012932
10
174.99987863077513
20
-4.999998733401311
42
-0.41421356237309404
10
179.99987863077513
20
-9.999998733401295
0
CIRCLE
5
101
100
AcDbEntity
8
0
100
AcDbCircle
10
258.74987964405415
20
-42.423392804984459
30
-1.7763568394002505e-14
40
1.500000000000008
210
1.2325951644078309e-32
220
3.3735033418337674e-80
230
1
0
CIRCLE
5
102
100
AcDbEntity
8
0
100
AcDbCircle
10
235.49987964405409
20
-28.999999046325676
30
0
40
1.4999999999999947
210
-0
220
0
230
1
0
CIRCLE
5
103
100
AcDbEntity
8
0
100
AcDbCircle
10
243.24987964405409
20
-42.423392804984459
30
-1.7763568394002505e-14
40
1.5000000000000036
210
-1.0128605595477095e-63
220
-2.7721092708386333e-111
230
1
0
CIRCLE
5
104
100
AcDbEntity
8
0
100
AcDbCircle
10
243.24987964405409
20
-15.57660528766689
30
0
40
1.5000000000000036
210
-1.0128605595477095e-63
220
-2.7721092708386333e-111
230
1
0
CIRCLE
5
105
100
AcDbEntity
8
0
100
AcDbCircle
10
250.99987964405415
20
-35.999999046325676
30
0
40
5.9999999999999964
210
-0
220
0
230
1
0
LWPOLYLINE
5
106
100
AcDbEntity
8
0
100
AcDbPolyline
90
8
70
1
43
0.0
10
174.99987855626932
20
-44.999999105930293
42
-0.41421356237310025
10
172.99987855626938
20
-46.9999991059303
10
145.99987813903681
20
-46.9999991059303
42
-0.41421356237310025
10
143.99987813903681
20
-44.999999105930314
10
143.99987813903681
20
-40.999999016523354
42
-0.41421356237309764
10
145.99987813903678
20
-38.999999016523361
10
172.99987855626932
20
-38.999999016523375
42
-0.41421356237310802
10
174.99987855626932
20
-40.999999016523354
0
CIRCLE
5
107
100
AcDbEntity
8
0
100
AcDbCircle
10
264.9998798526704
20
-4.9999985843896813
30
0
40
1.5000000000000036
210
-1.0128605595477095e-63
220
-2.7721092708386333e-111
230
1
0
CIRCLE
5
108
100
AcDbEntity
8
0
100
AcDbCircle
10
144.99988029970518
20
-4.999992862343662
30
0
40
1.5000000000000036
210
-1.0128605595477095e-63
220
-2.7721092708386333e-111
230
1
0
LWPOLYLINE
5
109
100
AcDbEntity
8
0
100
AcDbPolyline
90
4
70
1
43
0.0
10
173.49987855626935
20
-49.499999180436127
42
-0.99999999999999989
10
173.49987855626935
20
-52.499999180436149
10
145.4998780943333
20
-52.499999180436127
42
-0.99999999999999989
10
145.49987809433333
20
-49.499999180436099
0
CIRCLE
5
110
100
AcDbEntity
8
0
100
AcDbCircle
10
265.0001235745969
20
10.000001639127735
30
-1.7763568394002505e-14
40
1.4999999999999991
210
-0
220
0
230
1
0
LWPOLYLINE
5
111
100
AcDbEntity
8
0
100
AcDbPolyline
90
16
70
1
43
0.0
10
182.99987863077516
20
-18.999998733401299
10
182.99987863077516
20
-38.999998733401299
10
188.00000193715107
20
-38.999998733401291
10
188.00000193715107
20
-41.999998733401284
10
194.99987910761232
20
-41.999998733401284
10
194.99987910761232
20
-46.999999046325669
10
214.99987910761232
20
-46.999999046325669
10
214.99987910761232
20
-41.999998733401284
10
222.00000193715107
20
-41.999998733401291
10
222.00000193715107
20
-38.999998733401299
10
227.00000193715107
20
-38.999998733401299
10
227.00000193715107
20
-18.999998733401299
10
222.00000193715107
20
-18.999998733401299
10
222.00000193715107
20
-15.999998733401291
10
188.00000193715107
20
-15.999998733401291
10
188.00000193715107
20
-18.999998733401299
0
LWPOLYLINE
5
112
100
AcDbEntity
8
0
100
AcDbPolyline
90
4
70
1
43
0.0
10
178.49987863077516
20
-33.499998942017541
42
-0.99999999999999989
10
178.49987863077516
20
-36.499998942017569
10
140.49987801982752
20
-36.499998942017534
42
-0.99999999999999989
10
140.49987801982749
20
-33.499998942017527
0
CIRCLE
5
113
100
AcDbEntity
8
0
100
AcDbCircle
10
205.00000193715107
20
10.000000852346322
30
0
40
1.5000000000000036
210
-1.0128605595477095e-63
220
-2.7721092708386333e-111
230
1
0
CIRCLE
5
114
100
AcDbEntity
8
0
100
AcDbCircle
10
144.99988029970518
20
10.000000065564908
30
0
40
1.5000000000000036
210
-1.0128605595477095e-63
220
-2.7721092708386333e-111
230
1
0
CIRCLE
5
115
100
AcDbEntity
8
0
100
AcDbCircle
10
258.74987964405415
20
-15.57660528766689
30
0
40
1.500000000000008
210
1.2325951644078309e-32
220
3.3735033418337674e-80
230
1
0
CIRCLE
5
116
100
AcDbEntity
8
0
100
AcDbCircle
10
266.49987964405409
20
-28.999999046325676
30
0
40
1.4999999999999991
210
-0
220
0
230
1
0
LWPOLYLINE
5
117
100
AcDbEntity
8
0
100
AcDbPolyline
90
34
70
1
43
0.0
10
127.99987910695725
20
-24.99999873340094
10
110.99987746848458
20
-24.999998733400929
42
-0.41421356237309287
10
104.99987746848456
20
-18.99999873340089
10
104.99987746848454
20
-6.0000000000000462
42
-0.41421356237309592
10
110.99987746848457
20
-2.9976021664879252e-14
10
134.99988029970518
20
-4.7739590058881731e-14
10
134.99988029970521
20
9.9999999999999503
42
-0.4142135623730917
10
139.99988029970518
20
14.99999999999995
10
149.99988029970518
20
14.999999999999963
42
-0.41421356237309664
10
154.99988029970518
20
9.9999999999999343
10
154.99988029970521
20
-4.7739590058881744e-14
10
195.00000193715107
20
-2.9976021664879227e-14
10
195.0000019371511
20
9.999999999999968
42
-0.41421356237309814
10
200.0000019371511
20
14.999999999999968
10
210.00000193715107
20
14.999999999999996
42
-0.41421356237309237
10
215.00000193715107
20
9.9999999999999698
10
215.00000193715107
20
-2.9976021664879252e-14
10
255.00012357459696
20
-4.7739590058881731e-14
10
255.00012357459696
20
9.9999999999999325
42
-0.41421356237309453
10
260.00012357459696
20
14.999999999999932
10
270.00012357459696
20
14.999999999999931
42
-0.41421356237309381
10
275.00012357459696
20
9.999999999999952
10
275.00012357459696
20
-4.7739590058881756e-14
10
298.99988044871685
20
-5.9952043329758453e-14
42
-0.41421356237309365
10
304.99988044871685
20
-6.0000000000000453
10
304.99988044871685
20
-18.999998733401299
42
-0.41421356237309342
10
298.99988044871685
20
-24.999998733401295
10
282.00012357459696
20
-24.999998733401299
42
0.41421356237309503
10
275.00012357459696
20
-31.999998733401291
10
275.00012357459701
20
-41.000001771620411
42
-0.41421356237309781
10
261.00012357459696
20
-55.000001771620418
10
148.99987987241462
20
-55.00000177162044
42
-0.41421355057324249
10
134.99987987241457
20
-41.000002335641469
10
134.99987910695737
20
-31.999998451390482
42
0.41421355057324138
0
ENDSEC
0
SECTION
2
OBJECTS
0
DICTIONARY
5
C
100
AcDbDictionary
3
ACAD_GROUP
350
D
3
ACAD_MLINESTYLE
350
17
0
DICTIONARY
5
D
100
AcDbDictionary
0
DICTIONARY
5
1A
330
C
100
AcDbDictionary
0
DICTIONARY
5
17
100
AcDbDictionary
0
ENDSEC
0
EOF
