0
SECTION
2
HEADER
9
$INSUNITS
70
4
9
$ACADVER
1
AC1014
9
$HANDSEED
5
FFFF
0
ENDSEC
0
SECTION
2
TABLES
0
TABLE
2
VPORT
5
8
100
AcDbSymbolTable
0
ENDTAB
0
TABLE
2
LTYPE
5
5
100
AcDbSymbolTable
0
LTYPE
5
14
100
AcDbSymbolTableRecord
100
AcDbLinetypeTableRecord
2
BYBLOCK
70
0
0
LTYPE
5
15
100
AcDbSymbolTableRecord
100
AcDbLinetypeTableRecord
2
BYLAYER
70
0
0
ENDTAB
0
TABLE
2
LAYER
5
2
100
AcDbSymbolTable
70
2
0
LAYER
5
50
100
AcDbSymbolTableRecord
100
AcDbLayerTableRecord
2
0
70
0
6
CONTINUOUS
0
ENDTAB
0
TABLE
2
STYLE
5
3
100
AcDbSymbolTable
70
1
0
STYLE
5
11
100
AcDbSymbolTableRecord
100
AcDbTextStyleTableRecord
2
STANDARD
70
0
0
ENDTAB
0
TABLE
2
VIEW
5
6
100
AcDbSymbolTable
70
0
0
ENDTAB
0
TABLE
2
UCS
5
7
100
AcDbSymbolTable
70
0
0
ENDTAB
0
TABLE
2
APPID
5
9
100
AcDbSymbolTable
70
2
0
APPID
5
12
100
AcDbSymbolTableRecord
100
AcDbRegAppTableRecord
2
ACAD
70
0
0
ENDTAB
0
TABLE
2
DIMSTYLE
5
A
100
AcDbSymbolTable
70
1
0
ENDTAB
0
TABLE
2
BLOCK_RECORD
5
1
100
AcDbSymbolTable
70
1
0
BLOCK_RECORD
5
1F
100
AcDbSymbolTableRecord
100
AcDbBlockTableRecord
2
*MODEL_SPACE
0
BLOCK_RECORD
5
1B
100
AcDbSymbolTableRecord
100
AcDbBlockTableRecord
2
*PAPER_SPACE
0
ENDTAB
0
ENDSEC
0
SECTION
2
BLOCKS
0
BLOCK
5
20
100
AcDbEntity
100
AcDbBlockBegin
2
*MODEL_SPACE
0
ENDBLK
5
21
100
AcDbEntity
100
AcDbBlockEnd
0
BLOCK
5
1C
100
AcDbEntity
100
AcDbBlockBegin
2
*PAPER_SPACE
0
ENDBLK
5
1D
100
AcDbEntity
100
AcDbBlockEnd
0
ENDSEC
0
SECTION
2
ENTITIES
0
CIRCLE
5
100
100
AcDbEntity
8
0
100
AcDbCircle
10
36.250000655651093
20
84.423394712333106
30
0
40
1.500000000000008
210
0
220
0
230
1
0
CIRCLE
5
101
100
AcDbEntity
8
0
100
AcDbCircle
10
28.500000655651093
20
71.000000953674316
30
0
40
1.4999999999999987
210
0
220
0
230
1
0
CIRCLE
5
102
100
AcDbEntity
8
0
100
AcDbCircle
10
36.250000655651093
20
57.576607195015526
30
0
40
1.500000000000008
210
0
220
0
230
1
0
CIRCLE
5
103
100
AcDbEntity
8
0
100
AcDbCircle
10
59.500000655651093
20
71.000000953674316
30
0
40
1.4999999999999987
210
0
220
0
230
1
0
CIRCLE
5
104
100
AcDbEntity
8
0
100
AcDbCircle
10
51.750000655651093
20
57.576607195015526
30
0
40
1.500000000000008
210
0
220
0
230
1
0
CIRCLE
5
105
100
AcDbEntity
8
0
100
AcDbCircle
10
51.750000655651093
20
84.423394712333106
30
0
40
1.500000000000008
210
0
220
0
230
1
0
CIRCLE
5
106
100
AcDbEntity
8
0
100
AcDbCircle
10
44.000000655651093
20
64.000000953674316
30
0
40
5.9999999999999964
210
0
220
0
230
1
0
LINE
5
107
100
AcDbEntity
8
0
100
AcDbLine
10
19.999756725108281
20
99.999999999999943
30
0
11
19.999756725108291
21
65.000000745058074
31
0
0
LINE
5
108
100
AcDbEntity
8
0
100
AcDbLine
10
34.999756725108298
20
50.000000745058088
30
0
11
145.00000166893
21
50.000000745058117
31
0
0
LINE
5
109
100
AcDbEntity
8
0
100
AcDbLine
10
160
20
100
30
0
11
160.00000166893003
21
65.00000146031384
31
0
0
ARC
5
110
100
AcDbEntity
8
0
100
AcDbCircle
10
34.999756725108284
20
65.000000745058074
30
0
40
14.999999999999993
210
0
220
0
230
1
100
AcDbArc
50
180
51
270.00000000000006
0
ARC
5
111
100
AcDbEntity
8
0
100
AcDbCircle
10
145.00000166893003
20
65.000000745058117
30
0
40
15.000000000000009
210
0
220
0
230
1
100
AcDbArc
50
-90.000000000000099
51
2.699869328381916e-06
0
LWPOLYLINE
5
112
100
AcDbEntity
8
0
100
AcDbPolyline
90
8
70
1
43
0.0
10
122.00000174343586
20
59.000000894069672
10
149.0000021606684
20
59.000000894069672
42
0.41421356237309764
10
151.00000216066837
20
61.000000894069679
10
151.00000216066837
20
65.000000983476639
42
0.41421356237309764
10
149.0000021606684
20
67.000000983476625
10
122.00000174343586
20
67.000000983476625
42
0.41421356237310025
10
120.00000174343586
20
65.000000983476639
10
120.00000174343586
20
61.000000894069679
42
0.41421356237310025
0
LINE
5
113
100
AcDbEntity
8
0
100
AcDbLine
10
116.50000166893007
20
72.500001057982445
30
0
11
154.50000227987766
21
72.500001057982445
31
0
0
LINE
5
114
100
AcDbEntity
8
0
100
AcDbLine
10
154.50000227987766
20
69.500001057982459
30
0
11
116.50000166893007
21
69.500001057982445
31
0
0
LINE
5
115
100
AcDbEntity
8
0
100
AcDbLine
10
115.00000166893005
20
71.000001057982459
30
0
11
115.00000166893005
21
71.000001057982445
31
0
0
LINE
5
116
100
AcDbEntity
8
0
100
AcDbLine
10
121.50000174343587
20
53.500000819563866
30
0
11
149.50000220537186
21
53.500000819563866
31
0
0
LINE
5
117
100
AcDbEntity
8
0
100
AcDbLine
10
151.00000220537186
20
55.000000819563866
30
0
11
151.00000220537186
21
55.000000819563859
31
0
0
LINE
5
118
100
AcDbEntity
8
0
100
AcDbLine
10
149.50000220537186
20
56.500000819563851
30
0
11
121.50000174343587
21
56.500000819563859
31
0
0
LINE
5
119
100
AcDbEntity
8
0
100
AcDbLine
10
120.00000174343586
20
55.000000819563859
30
0
11
120.00000174343586
21
55.000000819563866
31
0
0
ARC
5
120
100
AcDbEntity
8
0
100
AcDbCircle
10
116.50000166893007
20
71.000001057982459
30
0
40
1.5000000000000036
210
0
220
0
230
1
100
AcDbArc
50
180
51
270
0
ARC
5
121
100
AcDbEntity
8
0
100
AcDbCircle
10
116.50000166893007
20
71.000001057982431
30
0
40
1.5000000000000124
210
0
220
-0
230
1
100
AcDbArc
50
90
51
180
0
ARC
5
122
100
AcDbEntity
8
0
100
AcDbCircle
10
149.50000220537186
20
55.000000819563851
30
0
40
1.5000000000000036
210
0
220
-0
230
1
100
AcDbArc
50
0
51
90
0
ARC
5
123
100
AcDbEntity
8
0
100
AcDbCircle
10
149.50000220537186
20
55.000000819563873
30
0
40
1.5000000000000124
210
0
220
0
230
1
100
AcDbArc
50
270
51
360
0
ARC
5
124
100
AcDbEntity
8
0
100
AcDbCircle
10
121.50000174343587
20
55.000000819563873
30
0
40
1.5000000000000036
210
0
220
0
230
1
100
AcDbArc
50
180
51
270
0
ARC
5
125
100
AcDbEntity
8
0
100
AcDbCircle
10
121.50000174343587
20
55.000000819563851
30
0
40
1.5000000000000124
210
0
220
-0
230
1
100
AcDbArc
50
90
51
180
0
LINE
5
126
100
AcDbEntity
8
0
100
AcDbLine
10
156.00000227987766
20
71.000001057982459
30
0
11
156.00000227987766
21
71.000001057982445
31
0
0
ARC
5
127
100
AcDbEntity
8
0
100
AcDbCircle
10
154.50000227987766
20
71.000001057982445
30
0
40
1.5000000000000036
210
0
220
0
230
1
100
AcDbArc
50
0
51
90
0
ARC
5
128
100
AcDbEntity
8
0
100
AcDbCircle
10
154.50000227987766
20
71.000001057982459
30
0
40
1.5000000000000036
210
0
220
0
230
1
100
AcDbArc
50
-90
51
0
0
CIRCLE
5
129
100
AcDbEntity
8
0
100
AcDbCircle
10
175.00000291466716
20
63.000001057982438
30
0
40
1.9999999999999929
210
0
220
0
230
1
0
CIRCLE
5
130
100
AcDbEntity
8
0
100
AcDbCircle
10
175.00000329613692
20
55.000000819563851
30
0
40
1.4999999999999858
210
0
220
0
230
1
0
CIRCLE
5
131
100
AcDbEntity
8
0
100
AcDbCircle
10
170.0000025331974
20
71.000001057982445
30
0
40
1.4999999999999876
210
0
220
0
230
1
0
CIRCLE
5
132
100
AcDbEntity
8
0
100
AcDbCircle
10
180.0000025331974
20
71.000001534819617
30
0
40
1.4999999999999876
210
0
220
0
230
1
0
LINE
5
133
100
AcDbEntity
8
0
100
AcDbLine
10
170.00000260770321
20
68.000001057982431
30
0
11
170.00000246614266
21
68.000001057982445
31
0
0
LINE
5
134
100
AcDbEntity
8
0
100
AcDbLine
10
170.00000246614266
20
74.000001057982445
30
0
11
180.00000239014636
21
74.000001534819631
31
0
0
LINE
5
135
100
AcDbEntity
8
0
100
AcDbLine
10
180.00000350773317
20
68.000001534819773
30
0
11
180.00000331550896
21
68.000001534819717
31
0
0
ARC
5
136
100
AcDbEntity
8
0
100
AcDbCircle
10
170.0000025331974
20
71.000001057982445
30
0
40
3.0000000000000075
210
0
220
0
230
1
100
AcDbArc
50
90.000001280651247
51
269.99999871934875
0
ARC
5
137
100
AcDbEntity
8
0
100
AcDbCircle
10
180.0000025331974
20
71.000001534819617
30
0
40
3.0000000000000115
210
0
220
0
230
1
100
AcDbArc
50
-89.99998505894979
51
90.000002732073611
0
ARC
5
138
100
AcDbEntity
8
0
100
AcDbCircle
10
175.00000329613692
20
55.000000819563851
30
0
40
3.0000007331371847
210
0
220
0
230
1
100
AcDbArc
50
-180
51
0
0
ARC
5
139
100
AcDbEntity
8
0
100
AcDbCircle
10
170.00000256299973
20
66.000001057982431
30
0
40
1.9999999999999929
210
0
220
0
230
1
100
AcDbArc
50
0
51
89.99999871933953
0
ARC
5
140
100
AcDbEntity
8
0
100
AcDbCircle
10
180.00000402927412
20
66.00000153481983
30
0
40
2.0000000000000253
210
0
220
0
230
1
100
AcDbArc
50
90.000014941047766
51
180
0
LINE
5
141
100
AcDbEntity
8
0
100
AcDbLine
10
172.00000256299973
20
55.000000819563866
30
0
11
172.0000025629997
21
59.683376797785776
31
0
0
ARC
5
142
100
AcDbEntity
8
0
100
AcDbCircle
10
175.00000291466716
20
63.000001057982438
30
0
40
4
210
0
220
0
230
1
100
AcDbArc
50
-33.557290506715667
51
36.869876358359093
0
ARC
5
143
100
AcDbEntity
8
0
100
AcDbCircle
10
175.00000291466716
20
63.000001057982438
30
0
40
3.9999999999999813
210
0
220
0
230
1
100
AcDbArc
50
143.13010907050807
51
213.55730368674969
0
LINE
5
144
100
AcDbEntity
8
0
100
AcDbLine
10
178.00000402927409
20
55.000000819563851
30
0
11
178.00000402927409
21
59.683377947960842
31
0
0
ARC
5
145
100
AcDbEntity
8
0
100
AcDbCircle
10
170.00000256299973
20
59.683376797785783
30
0
40
1.9999999999999574
210
0
220
0
230
1
100
AcDbArc
50
0
51
33.557303686748973
0
ARC
5
146
100
AcDbEntity
8
0
100
AcDbCircle
10
180.00000402927407
20
59.683377947960849
30
0
40
1.9999999999999556
210
0
220
0
230
1
100
AcDbArc
50
146.44270949328342
51
180
0
ARC
5
147
100
AcDbEntity
8
0
100
AcDbCircle
10
171.00000256299455
20
66.000000589094341
30
0
40
1.000000000005274
210
-0
220
0
230
1
100
AcDbArc
50
-36.869890929391225
51
2.6863360635695186e-05
0
ARC
5
148
100
AcDbEntity
8
0
100
AcDbCircle
10
179.00000402930908
20
65.999999571854161
30
0
40
1.0000000000368994
210
0
220
0
230
1
100
AcDbArc
50
179.99988753496709
51
216.86987635811474
0
LINE
5
149
100
AcDbEntity
8
0
100
AcDbLine
10
39.999756725108277
20
99.999999999999943
30
0
11
39.999756725108277
21
109.99999999999993
31
0
0
LINE
5
150
100
AcDbEntity
8
0
100
AcDbLine
10
34.999756725108291
20
114.99999999999997
30
0
11
24.999756725108277
21
114.99999999999993
31
0
0
LINE
5
151
100
AcDbEntity
8
0
100
AcDbLine
10
19.999756725108277
20
109.99999999999994
30
0
11
19.999756725108281
21
99.999999999999943
31
0
0
LINE
5
152
100
AcDbEntity
8
0
100
AcDbLine
10
79.999878362554142
20
99.999999999999972
30
0
11
79.999878362554142
21
109.99999999999997
31
0
0
LINE
5
153
100
AcDbEntity
8
0
100
AcDbLine
10
84.999878362554142
20
114.99999999999997
30
0
11
89.999878362554142
21
114.99999999999997
31
0
0
LINE
5
154
100
AcDbEntity
8
0
100
AcDbLine
10
99.999878362554142
20
99.999999999999972
30
0
11
99.999878362554142
21
109.99999999999997
31
0
0
LINE
5
155
100
AcDbEntity
8
0
100
AcDbLine
10
94.999878362554128
20
114.99999999999999
30
0
11
89.999878362554142
21
114.99999999999997
31
0
0
LINE
5
156
100
AcDbEntity
8
0
100
AcDbLine
10
145
20
114.99999999999994
30
0
11
155
21
114.99999999999994
31
0
0
LINE
5
157
100
AcDbEntity
8
0
100
AcDbLine
10
160
20
109.99999999999994
30
0
11
160
21
99.999999999999943
31
0
0
LINE
5
158
100
AcDbEntity
8
0
100
AcDbLine
10
140
20
99.999999999999943
30
0
11
140
21
109.99999999999993
31
0
0
LINE
5
159
100
AcDbEntity
8
0
100
AcDbLine
10
140
20
99.999999999999943
30
0
11
99.999878362554142
21
99.999999999999972
31
0
0
LINE
5
160
100
AcDbEntity
8
0
100
AcDbLine
10
79.999878362554142
20
99.999999999999972
30
0
11
39.999756725108277
21
99.999999999999943
31
0
0
ARC
5
161
100
AcDbEntity
8
0
100
AcDbCircle
10
24.999756725108277
20
109.99999999999993
30
0
40
5
210
0
220
-0
230
1
100
AcDbArc
50
90
51
180
0
ARC
5
162
100
AcDbEntity
8
0
100
AcDbCircle
10
34.999756725108277
20
109.99999999999993
30
0
40
5
210
0
220
-0
230
1
100
AcDbArc
50
0
51
89.999999999999844
0
ARC
5
163
100
AcDbEntity
8
0
100
AcDbCircle
10
84.999878362554142
20
109.99999999999997
30
0
40
5
210
0
220
-0
230
1
100
AcDbArc
50
90
51
180
0
ARC
5
164
100
AcDbEntity
8
0
100
AcDbCircle
10
94.999878362554142
20
109.99999999999997
30
0
40
5
210
0
220
-0
230
1
100
AcDbArc
50
0
51
90.000000000000171
0
ARC
5
165
100
AcDbEntity
8
0
100
AcDbCircle
10
145
20
109.99999999999994
30
0
40
5
210
0
220
-0
230
1
100
AcDbArc
50
90
51
180
0
ARC
5
166
100
AcDbEntity
8
0
100
AcDbCircle
10
154.99999999999997
20
109.99999999999993
30
0
40
5.0000000000000178
210
0
220
-0
230
1
100
AcDbArc
50
0
51
89.999999999999673
0
CIRCLE
5
167
100
AcDbEntity
8
0
100
AcDbCircle
10
29.999756725108302
20
110.00000163912773
30
0
40
1.4999999999999993
210
0
220
0
230
1
0
CIRCLE
5
168
100
AcDbEntity
8
0
100
AcDbCircle
10
89.999878362554142
20
110.00000085234632
30
0
40
1.5000000000000036
210
0
220
0
230
1
0
CIRCLE
5
169
100
AcDbEntity
8
0
100
AcDbCircle
10
150
20
110.0000000655649
30
0
40
1.5000000000000038
210
0
220
0
230
1
0
CIRCLE
5
170
100
AcDbEntity
8
0
100
AcDbCircle
10
30.000000447034836
20
95.000001415610313
30
0
40
1.5000000000000036
210
0
220
0
230
1
0
CIRCLE
5
171
100
AcDbEntity
8
0
100
AcDbCircle
10
150
20
95.000007137656326
30
0
40
1.4999999999999967
210
0
220
0
230
1
0
ARC
5
172
100
AcDbEntity
8
0
100
AcDbCircle
10
10
20
275.00000193715101
30
0
40
5
210
0
220
-0
230
1
100
AcDbArc
50
90
51
180
0
ARC
5
173
100
AcDbEntity
8
0
100
AcDbCircle
10
10.000000000000011
20
135.00000193715104
30
0
40
5.0000000000000107
210
0
220
0
230
1
100
AcDbArc
50
180
51
270
0
LWPOLYLINE
5
174
100
AcDbEntity
8
0
100
AcDbPolyline
90
4
70
1
43
0.0
10
20.000000149011612
20
135.00000193715098
10
10.000000000000011
20
135.00000193715104
10
10.000000000000011
20
155.00000193715104
10
20.000000149011612
20
155.00000193715098
0
LINE
5
175
100
AcDbEntity
8
0
100
AcDbLine
10
20
20
205.00000193715096
30
0
11
20
21
195.00000193715096
31
0
0
LINE
5
176
100
AcDbEntity
8
0
100
AcDbLine
10
20
20
195.00000193715096
30
0
11
10
21
195.00000193715096
31
0
0
LINE
5
177
100
AcDbEntity
8
0
100
AcDbLine
10
10
20
195.00000193715096
30
0
11
10
21
205.00000193715096
31
0
0
LINE
5
178
100
AcDbEntity
8
0
100
AcDbLine
10
20
20
205.00000193715096
30
0
11
20
21
215.00000193715096
31
0
0
LINE
5
179
100
AcDbEntity
8
0
100
AcDbLine
10
20
20
215.00000193715096
30
0
11
10
21
215.00000193715096
31
0
0
LINE
5
180
100
AcDbEntity
8
0
100
AcDbLine
10
10
20
215.00000193715096
30
0
11
10
21
205.00000193715096
31
0
0
LWPOLYLINE
5
181
100
AcDbEntity
8
0
100
AcDbPolyline
90
4
70
1
43
0.0
10
20.000000149011612
20
255.00000193715096
10
20.000000149011612
20
275.00000193715096
10
10.000000000000011
20
275.00000193715096
10
10.000000000000011
20
255.00000193715096
0
LWPOLYLINE
5
182
100
AcDbEntity
8
0
100
AcDbPolyline
90
4
70
1
43
0.0
10
140.00000000000003
20
275.00000193715101
10
140.00000000000003
20
255.00000193715098
10
129.99999985098844
20
255.00000193715098
10
129.99999985098842
20
275.00000193715101
0
LINE
5
183
100
AcDbEntity
8
0
100
AcDbLine
10
130.00000000000009
20
205.00000193715101
30
0
11
130.00000000000009
21
195.00000193715107
31
0
0
LINE
5
184
100
AcDbEntity
8
0
100
AcDbLine
10
130.00000000000009
20
195.00000193715107
30
0
11
140.00000000000009
21
195.00000193715107
31
0
0
LINE
5
185
100
AcDbEntity
8
0
100
AcDbLine
10
140.00000000000009
20
195.00000193715107
30
0
11
140.00000000000009
21
205.00000193715107
31
0
0
LWPOLYLINE
5
186
100
AcDbEntity
8
0
100
AcDbPolyline
90
4
70
1
43
0.0
10
129.9999998509885
20
155.00000193715101
10
129.99999985098853
20
135.00000193715101
10
140.00000000000014
20
135.00000193715101
10
140.00000000000011
20
155.00000193715101
0
LINE
5
187
100
AcDbEntity
8
0
100
AcDbLine
10
130.00000000000009
20
205.00000193715098
30
0
11
130.00000000000009
21
215.00000193715098
31
0
0
LINE
5
188
100
AcDbEntity
8
0
100
AcDbLine
10
130.00000000000009
20
215.00000193715098
30
0
11
140.00000000000009
21
215.00000193715107
31
0
0
LINE
5
189
100
AcDbEntity
8
0
100
AcDbLine
10
140.00000000000009
20
215.00000193715107
30
0
11
140.00000000000009
21
205.00000193715107
31
0
0
LINE
5
190
100
AcDbEntity
8
0
100
AcDbLine
10
10.000000000000011
20
162.50000238418579
30
0
11
10.000000000000011
21
187.50000283122063
31
0
0
LINE
5
191
100
AcDbEntity
8
0
100
AcDbLine
10
7.5000000000000133
20
160.00000238418579
30
0
11
7.5000000000000018
21
160.00000238418579
31
0
0
LINE
5
192
100
AcDbEntity
8
0
100
AcDbLine
10
7.5000000000000124
20
190.00000283122063
30
0
11
7.5
21
190.00000283122063
31
0
0
LINE
5
193
100
AcDbEntity
8
0
100
AcDbLine
10
7.5000000000000018
20
220.00000327825546
30
0
11
7.5000000000000018
21
220.00000327825546
31
0
0
LINE
5
194
100
AcDbEntity
8
0
100
AcDbLine
10
9.9999999999999893
20
222.50000327825546
30
0
11
10.000000000000011
21
247.5000037252903
31
0
0
LINE
5
195
100
AcDbEntity
8
0
100
AcDbLine
10
7.5000000000000107
20
250.0000037252903
30
0
11
7.5
21
250.0000037252903
31
0
0
LINE
5
196
100
AcDbEntity
8
0
100
AcDbLine
10
5
20
275.00000193715101
30
0
11
5.0000000000000107
21
252.5000037252903
31
0
0
LINE
5
197
100
AcDbEntity
8
0
100
AcDbLine
10
5.0000000000000124
20
217.50000327825546
30
0
11
5.0000000000000107
21
192.50000283122063
31
0
0
LINE
5
198
100
AcDbEntity
8
0
100
AcDbLine
10
5.0000000000000018
20
157.50000238418582
30
0
11
5
21
135.00000193715101
31
0
0
ARC
5
199
100
AcDbEntity
8
0
100
AcDbCircle
10
7.5000000000000018
20
157.50000238418579
30
0
40
2.5
210
0
220
-0
230
1
100
AcDbArc
50
90
51
180
0
ARC
5
200
100
AcDbEntity
8
0
100
AcDbCircle
10
7.5000000000000364
20
162.50000238418576
30
0
40
2.4999999999999645
210
0
220
0
230
1
100
AcDbArc
50
-90.000000000000512
51
0
0
ARC
5
201
100
AcDbEntity
8
0
100
AcDbCircle
10
7.5000000000000364
20
187.50000283122066
30
0
40
2.4999999999999742
210
0
220
0
230
1
100
AcDbArc
50
0
51
90.00000000000054
0
ARC
5
202
100
AcDbEntity
8
0
100
AcDbCircle
10
7.4999999999999751
20
192.5000028312206
30
0
40
2.4999999999999645
210
0
220
0
230
1
100
AcDbArc
50
180
51
270.00000000000057
0
ARC
5
203
100
AcDbEntity
8
0
100
AcDbCircle
10
7.4999999999999751
20
252.50000372529027
30
0
40
2.4999999999999645
210
0
220
0
230
1
100
AcDbArc
50
180
51
270.00000000000057
0
ARC
5
204
100
AcDbEntity
8
0
100
AcDbCircle
10
7.5000000000000355
20
247.50000372529033
30
0
40
2.4999999999999756
210
0
220
0
230
1
100
AcDbArc
50
0
51
90.000000000000583
0
ARC
5
205
100
AcDbEntity
8
0
100
AcDbCircle
10
7.5000000000000258
20
222.50000327825543
30
0
40
2.4999999999999645
210
0
220
0
230
1
100
AcDbArc
50
-90.000000000000568
51
0
0
ARC
5
206
100
AcDbEntity
8
0
100
AcDbCircle
10
7.4999999999999769
20
217.50000327825549
30
0
40
2.4999999999999645
210
0
220
-0
230
1
100
AcDbArc
50
89.999999999999417
51
180
0
ARC
5
207
100
AcDbEntity
8
0
100
AcDbCircle
10
140
20
275.00000193715101
30
0
40
5
210
0
220
-0
230
1
100
AcDbArc
50
0
51
90
0
LINE
5
208
100
AcDbEntity
8
0
100
AcDbLine
10
145
20
275.00000193715101
30
0
11
145
21
252.5000037252903
31
0
0
ARC
5
209
100
AcDbEntity
8
0
100
AcDbCircle
10
142.50000000000003
20
252.50000372529027
30
0
40
2.4999999999999645
210
0
220
0
230
1
100
AcDbArc
50
-90.000000000000654
51
0
0
LINE
5
210
100
AcDbEntity
8
0
100
AcDbLine
10
142.5
20
250.0000037252903
30
0
11
142.5
21
250.0000037252903
31
0
0
ARC
5
211
100
AcDbEntity
8
0
100
AcDbCircle
10
142.49999999999997
20
247.50000372529033
30
0
40
2.4999999999999645
210
0
220
-0
230
1
100
AcDbArc
50
89.999999999999346
51
180
0
LINE
5
212
100
AcDbEntity
8
0
100
AcDbLine
10
140
20
222.50000327825546
30
0
11
140
21
247.5000037252903
31
0
0
ARC
5
213
100
AcDbEntity
8
0
100
AcDbCircle
10
142.49999999999997
20
222.50000327825543
30
0
40
2.4999999999999645
210
0
220
0
230
1
100
AcDbArc
50
180
51
270.00000000000068
0
LINE
5
214
100
AcDbEntity
8
0
100
AcDbLine
10
142.5
20
220.00000327825546
30
0
11
142.5
21
220.00000327825546
31
0
0
ARC
5
215
100
AcDbEntity
8
0
100
AcDbCircle
10
142.50000000000003
20
217.50000327825549
30
0
40
2.4999999999999645
210
-0
220
0
230
1
100
AcDbArc
50
0
51
90.000000000000654
0
LINE
5
216
100
AcDbEntity
8
0
100
AcDbLine
10
145
20
217.50000327825546
30
0
11
145
21
192.50000283122063
31
0
0
ARC
5
217
100
AcDbEntity
8
0
100
AcDbCircle
10
142.50000000000003
20
192.5000028312206
30
0
40
2.4999999999999645
210
0
220
0
230
1
100
AcDbArc
50
-90.000000000000654
51
0
0
LINE
5
218
100
AcDbEntity
8
0
100
AcDbLine
10
142.5
20
190.00000283122063
30
0
11
142.5
21
190.00000283122063
31
0
0
ARC
5
219
100
AcDbEntity
8
0
100
AcDbCircle
10
142.49999999999997
20
187.50000283122066
30
0
40
2.4999999999999645
210
0
220
-0
230
1
100
AcDbArc
50
89.999999999999346
51
180
0
LINE
5
220
100
AcDbEntity
8
0
100
AcDbLine
10
140
20
162.50000238418579
30
0
11
140
21
187.50000283122063
31
0
0
ARC
5
221
100
AcDbEntity
8
0
100
AcDbCircle
10
142.49999999999997
20
162.50000238418576
30
0
40
2.4999999999999645
210
0
220
0
230
1
100
AcDbArc
50
180
51
270.00000000000068
0
LINE
5
222
100
AcDbEntity
8
0
100
AcDbLine
10
142.5
20
160.00000238418579
30
0
11
142.5
21
160.00000238418579
31
0
0
ARC
5
223
100
AcDbEntity
8
0
100
AcDbCircle
10
142.5
20
157.50000238418579
30
0
40
2.5
210
0
220
-0
230
1
100
AcDbArc
50
0
51
90
0
LINE
5
224
100
AcDbEntity
8
0
100
AcDbLine
10
145
20
157.50000238418582
30
0
11
145
21
135.00000193715101
31
0
0
ARC
5
225
100
AcDbEntity
8
0
100
AcDbCircle
10
140
20
135.00000193715104
30
0
40
5.0000000000000888
210
0
220
0
230
1
100
AcDbArc
50
270
51
360
0
LINE
5
226
100
AcDbEntity
8
0
100
AcDbLine
10
10.000000000000011
20
130.00000193715096
30
0
11
140
21
130.00000193715096
31
0
0
CIRCLE
5
227
100
AcDbEntity
8
0
100
AcDbCircle
10
62.000001788139336
20
189.00000208616257
30
0
40
1.2499999999999958
210
0
220
0
230
1
0
CIRCLE
5
228
100
AcDbEntity
8
0
100
AcDbCircle
10
62.000001788139336
20
140.00000208616257
30
0
40
1.25
210
0
220
0
230
1
0
CIRCLE
5
229
100
AcDbEntity
8
0
100
AcDbCircle
10
120.00000178813934
20
189.00000208616257
30
0
40
1.25
210
0
220
0
230
1
0
CIRCLE
5
230
100
AcDbEntity
8
0
100
AcDbCircle
10
120.00000178813934
20
140.00000208616257
30
0
40
1.2499999999999982
210
0
220
0
230
1
0
LWPOLYLINE
5
231
100
AcDbEntity
8
0
100
AcDbPolyline
90
20
70
1
43
0.0
10
30.000001788139343
20
184.00000281631947
10
30.000001788139343
20
145.00000208616257
42
0.41421356237309453
10
35.000001788139343
20
140.00000208616257
10
56.343147538646967
20
140.00000208616257
42
0.31783724519578033
10
58.228765621811078
20
141.33333541949588
42
-0.70710678118654935
10
65.77123795446758
20
141.33333541949588
42
0.31783724519578227
10
67.656856037631712
20
140.00000208616257
10
114.34314753864695
20
140.00000208616257
42
0.3178372451957826
10
116.22876562181106
20
141.33333541949588
42
-0.22654091966098799
10
118.66666845480601
20
143.77123825249083
42
0.3178372451957826
10
120.00000178813934
20
145.65685633565496
10
120.00000178813934
20
183.34314783667014
42
0.31783724519578349
10
118.66666845480601
20
185.2287659198343
42
-0.22654095358572157
10
116.22876544971149
20
187.66666923960048
42
0.3178372807242561
10
114.34314728049756
20
189.00000281631947
10
67.656856295781125
20
189.00000281631947
42
0.31783728072426359
10
65.771238126567198
20
187.66666923960048
42
-0.70710687799259353
10
58.228765449711481
20
187.66666923960048
42
0.31783728072426404
10
56.343147280497554
20
189.00000281631947
10
35.00000178813935
20
189.00000281631949
42
0.41421356237309553
0
LWPOLYLINE
5
232
100
AcDbEntity
8
0
100
AcDbPolyline
90
20
70
1
43
0.0
10
118.66666845480601
20
242.2287659198343
42
-0.22654095358572157
10
116.22876544971149
20
244.66666923960048
42
0.3178372807242561
10
114.34314728049756
20
246.00000281631947
10
67.656856295781125
20
246.00000281631947
42
0.31783728072426359
10
65.771238126567198
20
244.66666923960048
42
-0.70710687799259353
10
58.228765449711481
20
244.66666923960048
42
0.31783728072426404
10
56.343147280497554
20
246.00000281631947
10
35.00000178813935
20
246.00000281631949
42
0.41421356237309553
10
30.000001788139343
20
241.00000281631947
10
30.000001788139343
20
202.00000208616257
42
0.41421356237309453
10
35.000001788139343
20
197.00000208616257
10
56.343147538646967
20
197.00000208616257
42
0.31783724519577805
10
58.228765621811078
20
198.33333541949585
42
-0.7071067811865509
10
65.77123795446758
20
198.33333541949588
42
0.31783724519578227
10
67.656856037631712
20
197.00000208616257
10
114.34314753864695
20
197.00000208616257
42
0.3178372451957826
10
116.22876562181106
20
198.33333541949588
42
-0.22654091966098752
10
118.66666845480601
20
200.77123825249083
42
0.31783724519578349
10
120.00000178813934
20
202.65685633565496
10
120.00000178813934
20
240.34314783667014
42
0.31783724519578349
0
CIRCLE
5
233
100
AcDbEntity
8
0
100
AcDbCircle
10
120.00000178813934
20
197.00000208616257
30
0
40
1.2499999999999982
210
0
220
0
230
1
0
CIRCLE
5
234
100
AcDbEntity
8
0
100
AcDbCircle
10
62.000001788139336
20
197.00000208616257
30
0
40
1.25
210
0
220
0
230
1
0
CIRCLE
5
235
100
AcDbEntity
8
0
100
AcDbCircle
10
62.000001788139336
20
246.00000208616254
30
0
40
1.2499999999999958
210
0
220
0
230
1
0
CIRCLE
5
236
100
AcDbEntity
8
0
100
AcDbCircle
10
120.00000178813934
20
246.00000208616254
30
0
40
1.25
210
0
220
0
230
1
0
LWPOLYLINE
5
237
100
AcDbEntity
8
0
100
AcDbPolyline
90
16
70
1
43
0.0
10
106.99987836255414
20
95.000001266598701
10
72.999878362554142
20
95.000001266598701
10
72.999878362554142
20
92.000001266598701
10
67.999878362554142
20
92.000001266598701
10
67.999878362554142
20
72.000001266598701
10
72.999878362554142
20
72.000001266598701
10
72.999878362554142
20
69.000001266598701
10
80.000001192092896
20
69.000001266598701
10
80.000001192092896
20
64.000000953674316
10
100.0000011920929
20
64.000000953674316
10
100.0000011920929
20
69.000001266598701
10
106.99987836255414
20
69.000001266598701
10
106.99987836255414
20
72.000001266598701
10
112.00000166893005
20
72.000001266598701
10
112.00000166893005
20
92.000001266598701
10
106.99987836255414
20
92.000001266598701
0
CIRCLE
5
238
100
AcDbEntity
8
0
100
AcDbCircle
10
60.000000894069672
20
259.0000037997961
30
0
40
1.5000000000000036
210
0
220
0
230
1
0
CIRCLE
5
239
100
AcDbEntity
8
0
100
AcDbCircle
10
90.000001341104507
20
259.0000037997961
30
0
40
1.5000000000000036
210
0
220
0
230
1
0
LINE
5
240
100
AcDbEntity
8
0
100
AcDbLine
10
25.00000037252903
20
269.00000387430191
30
0
11
25.00000037252903
21
275.00000193715101
31
0
0
LINE
5
241
100
AcDbEntity
8
0
100
AcDbLine
10
30.000000372529033
20
264.00000387430191
30
0
11
120.00000186264514
21
264.00000387430191
31
0
0
LINE
5
242
100
AcDbEntity
8
0
100
AcDbLine
10
125.00000186264514
20
269.00000387430191
30
0
11
125.00000186264515
21
275.00000193715101
31
0
0
LINE
5
243
100
AcDbEntity
8
0
100
AcDbLine
10
10
20
280.00000193715101
30
0
11
20.00000037252903
21
280.00000193715107
31
0
0
LINE
5
244
100
AcDbEntity
8
0
100
AcDbLine
10
130.00000186264515
20
280.00000193715101
30
0
11
140
21
280.00000193715101
31
0
0
ARC
5
245
100
AcDbEntity
8
0
100
AcDbCircle
10
20.00000037252903
20
275.00000193715101
30
0
40
5
210
0
220
0
230
1
100
AcDbArc
50
0
51
90
0
ARC
5
246
100
AcDbEntity
8
0
100
AcDbCircle
10
30.00000037252903
20
269.00000387430191
30
0
40
5
210
0
220
0
230
1
100
AcDbArc
50
180
51
270.00000000000006
0
ARC
5
247
100
AcDbEntity
8
0
100
AcDbCircle
10
120.00000186264514
20
269.00000387430191
30
0
40
5
210
0
220
0
230
1
100
AcDbArc
50
-90
51
0
0
ARC
5
248
100
AcDbEntity
8
0
100
AcDbCircle
10
130.00000186264518
20
275.00000193715101
30
0
40
5
210
0
220
0
230
1
100
AcDbArc
50
90.000000000000327
51
180
0
LINE
5
249
100
AcDbEntity
8
0
100
AcDbLine
10
180.00000238418579
20
275.00000409781933
30
0
11
180.00000238418579
21
155.00000409781933
31
0
0
LINE
5
250
100
AcDbEntity
8
0
100
AcDbLine
10
160.00000238418579
20
155.00000409781933
30
0
11
160.00000238418579
21
275.00000409781933
31
0
0
LINE
5
251
100
AcDbEntity
8
0
100
AcDbLine
10
160.00000230967999
20
280.00000417232513
30
0
11
180.00000230967999
21
280.00000417232513
31
0
0
LINE
5
252
100
AcDbEntity
8
0
100
AcDbLine
10
185.00000230967999
20
275.00000417232513
30
0
11
185.00000230967999
21
275.00000409781933
31
0
0
LINE
5
253
100
AcDbEntity
8
0
100
AcDbLine
10
155.00000230967999
20
275.00000409781933
30
0
11
155.00000230968001
21
275.00000417232513
31
0
0
LINE
5
254
100
AcDbEntity
8
0
100
AcDbLine
10
160.00000230967999
20
150.00000238418579
30
0
11
180.00000275671482
21
150.00000238418579
31
0
0
LINE
5
255
100
AcDbEntity
8
0
100
AcDbLine
10
185.00000275671482
20
155.00000238418579
30
0
11
185.00000275671482
21
155.0000024586916
31
0
0
LINE
5
256
100
AcDbEntity
8
0
100
AcDbLine
10
155.00000707805157
20
155.00000245869316
30
0
11
155.00000707476002
21
155.00690533844923
31
0
0
LINE
5
257
100
AcDbEntity
8
0
100
AcDbLine
10
185.00000275671482
20
155.0000024586916
30
0
11
180.00000238418579
21
155.00000409781933
31
0
0
LINE
5
258
100
AcDbEntity
8
0
100
AcDbLine
10
160.00000238418579
20
155.00000409781933
30
0
11
155.00000707805157
21
155.00000245869316
31
0
0
LINE
5
259
100
AcDbEntity
8
0
100
AcDbLine
10
185.00000230967999
20
275.00000409781933
30
0
11
180.00000238418579
21
275.00000409781933
31
0
0
LINE
5
260
100
AcDbEntity
8
0
100
AcDbLine
10
160.00000238418579
20
275.00000409781933
30
0
11
155.00000230967999
21
275.00000409781933
31
0
0
ARC
5
261
100
AcDbEntity
8
0
100
AcDbCircle
10
160.00000230968001
20
275.00000417232513
30
0
40
5
210
0
220
0
230
1
100
AcDbArc
50
90.000000000000327
51
180
0
ARC
5
262
100
AcDbEntity
8
0
100
AcDbCircle
10
180.00000230967999
20
275.00000417232513
30
0
40
5
210
0
220
-0
230
1
100
AcDbArc
50
0
51
90
0
ARC
5
263
100
AcDbEntity
8
0
100
AcDbCircle
10
160.00000230968001
20
155.00000238418579
30
0
40
5.0000000000000346
210
0
220
0
230
1
100
AcDbArc
50
179.92089794578015
51
269.99999999999972
0
ARC
5
264
100
AcDbEntity
8
0
100
AcDbCircle
10
180.00000275671482
20
155.00000238418579
30
0
40
5
210
0
220
0
230
1
100
AcDbArc
50
-90
51
0
0
LWPOLYLINE
5
265
100
AcDbEntity
8
0
100
AcDbPolyline
90
32
70
1
43
0.0
10
342
20
114.99999999999994
10
332
20
114.99999999999994
42
0.41421356237309609
10
327
20
109.99999999999993
10
327
20
99.999999999999943
10
286.99987836255417
20
99.999999999999972
10
287.00000427663326
20
105.00000156462193
10
266.99987836255417
20
105.00000156462193
10
266.99987836255417
20
99.999999999999972
10
226.99975672510831
20
99.999999999999943
10
226.99975672510831
20
109.99999999999993
42
0.41421356237309503
10
221.99975672510831
20
114.99999999999997
10
211.99975672510831
20
114.99999999999993
42
0.41421356237309398
10
206.99975672510831
20
109.99999999999994
10
206.99975672510831
20
99.999999999999943
10
206.99988263920943
20
39.999990028700573
42
0.41421294771689549
10
211.9998826391874
20
35.000000521540642
10
213.99987761749614
20
35.000000521540656
42
0.41421356237309503
10
216.99987761749611
20
38.000000521540656
10
216.99987761749611
20
55.000000819563866
10
257.99987822844372
20
55.000000819563866
10
257.99987822844372
20
38.000000521540642
42
0.41421356237308898
10
260.99987822844366
20
35.000000521540656
10
293.00000441074371
20
35.000000521540656
42
0.41421356237308898
10
296.00000441074371
20
38.000000521540642
10
296.00000441074371
20
55.000000819563866
10
337.00000502169132
20
55.000000819563866
10
337.00000502169132
20
38.000000521540656
42
0.41421356237309503
10
340.00000502169132
20
35.000000521540656
10
342
20
35.000000521540642
42
0.41421356237310231
10
347
20
40.000000521540642
10
347
20
99.999999999999943
10
347
20
109.99999999999994
42
0.41421356237309398
0
CIRCLE
5
266
100
AcDbEntity
8
0
100
AcDbCircle
10
217.00000044703486
20
95.000001415610313
30
0
40
1.5000000000000036
210
0
220
0
230
1
0
CIRCLE
5
267
100
AcDbEntity
8
0
100
AcDbCircle
10
216.99975672510831
20
110.00000163912773
30
0
40
1.4999999999999993
210
0
220
0
230
1
0
CIRCLE
5
268
100
AcDbEntity
8
0
100
AcDbCircle
10
337
20
110.0000000655649
30
0
40
1.5000000000000038
210
0
220
0
230
1
0
CIRCLE
5
269
100
AcDbEntity
8
0
100
AcDbCircle
10
337
20
95.000007137656326
30
0
40
1.4999999999999967
210
0
220
0
230
1
0
CIRCLE
5
270
100
AcDbEntity
8
0
100
AcDbCircle
10
341.00000508129597
20
49.50000074505806
30
0
40
2.0000000298023224
210
0
220
0
230
1
0
CIRCLE
5
271
100
AcDbEntity
8
0
100
AcDbCircle
10
341.00000508129597
20
40.500000596046448
30
0
40
2.0000000298023224
210
0
220
0
230
1
0
CIRCLE
5
272
100
AcDbEntity
8
0
100
AcDbCircle
10
292.00000435113907
20
49.50000074505806
30
0
40
2.0000000298023224
210
0
220
0
230
1
0
CIRCLE
5
273
100
AcDbEntity
8
0
100
AcDbCircle
10
292.00000435113907
20
40.500000596046448
30
0
40
2.0000000298023224
210
0
220
0
230
1
0
CIRCLE
5
274
100
AcDbEntity
8
0
100
AcDbCircle
10
276.99994131959374
20
95.000001415610313
30
0
40
1.4999999999999858
210
0
220
0
230
1
0
CIRCLE
5
275
100
AcDbEntity
8
0
100
AcDbCircle
10
261.99987828804836
20
49.50000074505806
30
0
40
2.0000000298023224
210
0
220
0
230
1
0
CIRCLE
5
276
100
AcDbEntity
8
0
100
AcDbCircle
10
261.99987828804836
20
40.500000596046448
30
0
40
2.0000000298023224
210
0
220
0
230
1
0
CIRCLE
5
277
100
AcDbEntity
8
0
100
AcDbCircle
10
212.99987755789147
20
49.50000074505806
30
0
40
2.0000000298023224
210
0
220
0
230
1
0
CIRCLE
5
278
100
AcDbEntity
8
0
100
AcDbCircle
10
212.99987755789147
20
40.500000596046448
30
0
40
2.0000000298023224
210
0
220
0
230
1
0
LWPOLYLINE
5
279
100
AcDbEntity
8
0
100
AcDbPolyline
90
26
70
1
43
0.0
10
257.99987822844372
20
150.00000081956387
10
216.99987761749611
20
150.00000081956387
10
216.99987761749611
20
133.00000052154064
42
-0.41421356237309503
10
213.99987761749614
20
130.00000052154067
10
211.9998826391874
20
130.00000052155167
42
-0.41421294771689521
10
206.99988263920943
20
134.99999002870058
10
206.99975672510831
20
194.99999999999994
10
206.99975672510831
20
204.99999999999994
42
-0.41421356237309503
10
211.99975672510831
20
209.99999999999994
10
221.99975672510831
20
209.99999999999994
42
-0.41421356237309503
10
226.99975672510831
20
204.99999999999994
10
226.99975672510831
20
194.99999999999994
10
266.99987836255417
20
194.99999999999997
10
266.99987836255417
20
200.00000156462193
10
287.00000427663326
20
200.00000156462193
10
286.99987836255417
20
194.99999999999997
10
327
20
194.99999999999994
10
327
20
204.99999999999994
42
-0.41421356237309503
10
332
20
209.99999999999994
10
342
20
209.99999999999994
42
-0.41421356237309503
10
347
20
204.99999999999994
10
347
20
194.99999999999994
10
347
20
135.00000052154064
42
-0.41421356237310231
10
342
20
130.00000052154064
10
260.99987822844366
20
130.00000052154067
42
-0.41421356237308982
10
257.99987822844372
20
133.00000052154064
0
LWPOLYLINE
5
280
100
AcDbEntity
8
0
100
AcDbPolyline
90
14
70
1
43
0.0
10
337.00000323355192
20
152.0000006705522
10
295.00000323355181
20
152.0000006705522
42
-0.41421356237309293
10
290.00000323355181
20
157.00000067055217
10
290.00000323355192
20
162.0000006705522
42
-0.26794919243111881
10
292.50000323355187
20
166.33012768947438
42
0.26794919243112209
10
295.00000323355181
20
170.66025470839651
10
295.00000323355181
20
177.0000006705522
42
-0.41421356237310125
10
300.00000323355181
20
182.00000067055217
10
332.00000323355187
20
182.0000006705522
42
-0.41421356237309503
10
337.00000323355187
20
177.0000006705522
10
337.00000323355187
20
170.66025470839651
42
0.26794919243111964
10
339.50000323355187
20
166.33012768947441
42
-0.26794919243112497
10
342.00000323355192
20
162.0000006705522
10
342.00000323355192
20
157.0000006705522
42
-0.41421356237309503
0
CIRCLE
5
281
100
AcDbEntity
8
0
100
AcDbCircle
10
261.99987828804836
20
144.50000074505806
30
0
40
2.0000000298023224
210
0
220
0
230
1
0
CIRCLE
5
282
100
AcDbEntity
8
0
100
AcDbCircle
10
344.00000323355187
20
150.0000006705522
30
0
40
1.4999999999999869
210
0
220
0
230
1
0
CIRCLE
5
283
100
AcDbEntity
8
0
100
AcDbCircle
10
217.00000044703486
20
190.00000141561031
30
0
40
1.5000000000000036
210
0
220
0
230
1
0
CIRCLE
5
284
100
AcDbEntity
8
0
100
AcDbCircle
10
337
20
190.00000713765633
30
0
40
1.4999999999999967
210
0
220
0
230
1
0
CIRCLE
5
285
100
AcDbEntity
8
0
100
AcDbCircle
10
212.99987755789147
20
144.50000074505806
30
0
40
2.0000000298023224
210
0
220
0
230
1
0
CIRCLE
5
286
100
AcDbEntity
8
0
100
AcDbCircle
10
276.99994131959374
20
190.00000141561031
30
0
40
1.4999999999999858
210
0
220
0
230
1
0
CIRCLE
5
287
100
AcDbEntity
8
0
100
AcDbCircle
10
261.99987828804836
20
135.50000059604645
30
0
40
2.0000000298023224
210
0
220
0
230
1
0
CIRCLE
5
288
100
AcDbEntity
8
0
100
AcDbCircle
10
337
20
205.0000000655649
30
0
40
1.5000000000000038
210
0
220
0
230
1
0
CIRCLE
5
289
100
AcDbEntity
8
0
100
AcDbCircle
10
216.99975672510831
20
205.00000163912773
30
0
40
1.4999999999999993
210
0
220
0
230
1
0
CIRCLE
5
290
100
AcDbEntity
8
0
100
AcDbCircle
10
212.99987755789147
20
135.50000059604645
30
0
40
2.0000000298023224
210
0
220
0
230
1
0
CIRCLE
5
291
100
AcDbEntity
8
0
100
AcDbCircle
10
288.00000323355192
20
169.0000006705522
30
0
40
1.4999999999999858
210
0
220
0
230
1
0
CIRCLE
5
292
100
AcDbEntity
8
0
100
AcDbCircle
10
288.00000323355192
20
150.0000006705522
30
0
40
1.5000000000000009
210
0
220
0
230
1
0
CIRCLE
5
293
100
AcDbEntity
8
0
100
AcDbCircle
10
326
20
140.00000052154064
30
0
40
3.9999984949856868
210
0
220
0
230
1
0
CIRCLE
5
294
100
AcDbEntity
8
0
100
AcDbCircle
10
276.99994131959374
20
69.760001266598707
30
0
40
1.5000000000000036
210
0
220
0
230
1
0
CIRCLE
5
295
100
AcDbEntity
8
0
100
AcDbCircle
10
276.99994131959374
20
85.000001266598701
30
0
40
1.4999999999999858
210
0
220
0
230
1
0
LWPOLYLINE
5
296
100
AcDbEntity
8
0
100
AcDbPolyline
90
8
70
1
43
0.0
10
260.0000037997961
20
90.000001266598701
10
265.00000402331352
20
90.000001266598687
42
-0.41421356237309398
10
270.00000402331352
20
85.000001266598701
10
270.00000402331352
20
70.000000968575492
42
-0.41421356237309503
10
265.00000402331352
20
65.000000968575492
10
260.0000037997961
20
65.000000968575492
42
-0.41421356237309503
10
255.0000037997961
20
70.000000968575492
10
255.0000037997961
20
85.000001266598701
42
-0.41421356237309503
0
LWPOLYLINE
5
297
100
AcDbEntity
8
0
100
AcDbPolyline
90
8
70
1
43
0.0
10
260.0000037997961
20
185.0000012665987
10
265.00000402331352
20
185.0000012665987
42
-0.41421356237309503
10
270.00000402331352
20
180.0000012665987
10
270.00000402331352
20
165.00000096857548
42
-0.41421356237309503
10
265.00000402331352
20
160.00000096857548
10
260.0000037997961
20
160.00000096857548
42
-0.41421356237309503
10
255.0000037997961
20
165.00000096857548
10
255.0000037997961
20
180.0000012665987
42
-0.41421356237309503
0
CIRCLE
5
298
100
AcDbEntity
8
0
100
AcDbCircle
10
276.99994131959374
20
164.76000126659869
30
0
40
1.5000000000000036
210
0
220
0
230
1
0
CIRCLE
5
299
100
AcDbEntity
8
0
100
AcDbCircle
10
276.99994131959374
20
180.0000012665987
30
0
40
1.4999999999999858
210
0
220
0
230
1
0
CIRCLE
5
300
100
AcDbEntity
8
0
100
AcDbCircle
10
344.00000323355181
20
169.0000006705522
30
0
40
1.4999999999999858
210
0
220
0
230
1
0
LINE
5
301
100
AcDbEntity
8
0
100
AcDbLine
10
72.999878362554142
20
92.000001266598701
30
0
11
72.999878362554142
21
95.000001266598701
31
0
0
LWPOLYLINE
5
302
100
AcDbEntity
8
0
100
AcDbPolyline
90
8
70
1
43
0.0
10
140.00000216066837
20
95.000001266598701
10
120.00000166893005
20
95.000001266598701
42
0.41421356237309293
10
115.00000166893005
20
90.000001266598701
10
115.00000166893004
20
80.00000111758709
42
0.41421356237309398
10
120.00000166893005
20
75.00000111758709
10
140.00000216066837
20
75.000001117587104
42
0.41421356237309398
10
145.00000216066837
20
80.00000111758709
10
145.00000216066837
20
90.000001266598701
42
0.41421356237309293
0
ENDSEC
0
SECTION
2
OBJECTS
0
DICTIONARY
5
C
100
AcDbDictionary
3
ACAD_GROUP
350
D
3
ACAD_MLINESTYLE
350
17
0
DICTIONARY
5
D
100
AcDbDictionary
0
DICTIONARY
5
1A
330
C
100
AcDbDictionary
0
DICTIONARY
5
17
100
AcDbDictionary
0
ENDSEC
0
EOF
