<?xml version="1.0" encoding="UTF-8"?>
<svg xmlns="http://www.w3.org/2000/svg" width="800.000" height="600.000" viewBox="0.0 0.0 800.000 600.000" version="1.1">
  <title>Produce by Acme CAD Converter</title>
  <desc>Produce by Acme CAD Converter</desc>
<polyline points="195.55,515.21 193.68,515.05 191.87,514.56 190.17,513.77 188.63,512.69 187.31,511.37 186.23,509.83 185.44,508.13 184.95,506.32 184.79,504.45 184.79,95.55 184.79,95.55 184.95,93.68 185.44,91.87 186.23,90.17 187.31,88.63 188.63,87.31 190.17,86.23 191.87,85.44 193.68,84.95 195.55,84.79 267.29,84.79 267.29,84.79 269.16,84.95 270.97,85.44 272.67,86.23 274.2,87.31 275.53,88.63 276.61,90.17 277.4,91.87 277.88,93.68 278.05,95.55 278.05,504.45 278.05,504.45 277.88,506.32 277.4,508.13 276.61,509.83 275.53,511.37 274.2,512.69 272.67,513.77 270.97,514.56 269.16,515.05 267.29,515.21 195.55,515.21" style="fill:none;stroke:black;stroke-width:0.5"/>
<polyline points="633.14,48.92 651.08,48.92 651.08,66.86 633.14,66.86 633.14,48.92" style="fill:none;stroke:black;stroke-width:0.5"/>
<polyline points="434.07,504.45 433.91,506.32 433.43,508.13 432.63,509.83 431.56,511.37 430.23,512.69 428.69,513.77 426.99,514.56 425.18,515.05 423.31,515.21 306.74,515.21 306.74,515.21 304.87,515.05 303.06,514.56 301.36,513.77 299.83,512.69 298.5,511.37 297.42,509.83 296.63,508.13 296.15,506.32 295.98,504.45 295.98,319.73 295.98,319.73 296.15,317.86 296.63,316.05 297.42,314.35 298.5,312.81 299.83,311.48 301.36,310.41 303.06,309.62 304.87,309.13 306.74,308.97 309.03,308.97 309.03,308.97 310.58,309.14 312.06,309.64 313.4,310.45 314.53,311.53 314.53,311.53 316.34,313.4 318.41,314.98 320.68,316.25 323.12,317.18 325.66,317.74 328.26,317.93 330.86,317.74 333.41,317.18 335.84,316.25 338.12,314.98 340.18,313.4 342,311.53 342,311.53 343.13,310.45 344.46,309.64 345.94,309.14 347.5,308.97 423.31,308.97 423.31,308.97 425.18,309.13 426.99,309.62 428.69,310.41 430.23,311.48 431.56,312.81 432.63,314.35 433.43,316.05 433.91,317.86 434.07,319.73 434.07,388.37 434.07,388.37 433.9,389.93 433.4,391.4 432.59,392.74 431.51,393.87 431.51,393.87 429.64,395.68 428.06,397.75 426.79,400.03 425.86,402.46 425.3,405.01 425.11,407.61 425.3,410.2 425.86,412.75 426.79,415.18 428.06,417.46 429.64,419.53 431.51,421.34 431.51,421.34 432.59,422.47 433.4,423.81 433.9,425.28 434.07,426.84 434.07,504.45" style="fill:none;stroke:black;stroke-width:0.5"/>
<polyline points="184.79,48.92 256.53,48.92 256.53,66.86 184.79,66.86 184.79,48.92" style="fill:none;stroke:black;stroke-width:0.5"/>
<polyline points="434.07,280.27 433.91,282.14 433.43,283.95 432.63,285.65 431.56,287.19 430.23,288.52 428.69,289.59 426.99,290.38 425.18,290.87 423.31,291.03 347.5,291.03 347.5,291.03 345.94,290.86 344.46,290.36 343.13,289.55 342,288.47 342,288.47 340.18,286.6 338.12,285.02 335.84,283.75 333.41,282.82 330.86,282.26 328.26,282.07 325.66,282.26 323.12,282.82 320.68,283.75 318.41,285.02 316.34,286.6 314.53,288.47 314.53,288.47 313.4,289.55 312.06,290.36 310.58,290.86 309.03,291.03 306.74,291.03 306.74,291.03 304.87,290.87 303.06,290.38 301.36,289.59 299.83,288.52 298.5,287.19 297.42,285.65 296.63,283.95 296.15,282.14 295.98,280.27 295.98,95.55 295.98,95.55 296.15,93.68 296.63,91.87 297.42,90.17 298.5,88.63 299.83,87.31 301.36,86.23 303.06,85.44 304.87,84.95 306.74,84.79 423.31,84.79 423.31,84.79 425.18,84.95 426.99,85.44 428.69,86.23 430.23,87.31 431.56,88.63 432.63,90.17 433.43,91.87 433.91,93.68 434.07,95.55 434.07,173.16 434.07,173.16 433.9,174.72 433.4,176.19 432.59,177.53 431.51,178.66 431.51,178.66 429.64,180.47 428.06,182.54 426.79,184.82 425.86,187.25 425.3,189.8 425.11,192.39 425.3,194.99 425.86,197.54 426.79,199.97 428.06,202.25 429.64,204.32 431.51,206.13 431.51,206.13 432.59,207.26 433.4,208.6 433.9,210.07 434.07,211.63 434.07,280.27" style="fill:none;stroke:black;stroke-width:0.5"/>
<polyline points="256.53,551.08 184.79,551.08 184.79,533.14 256.53,533.14 256.53,551.08" style="fill:none;stroke:black;stroke-width:0.5"/>
<polyline points="651.08,156.53 633.14,156.53 633.14,84.79 651.08,84.79 651.08,156.53" style="fill:none;stroke:black;stroke-width:0.5"/>
<polyline points="148.92,156.53 148.92,84.79 166.86,84.79 166.86,156.53 148.92,156.53" style="fill:none;stroke:black;stroke-width:0.5"/>
<polyline points="148.92,443.47 166.86,443.47 166.86,515.21 148.92,515.21 148.92,443.47" style="fill:none;stroke:black;stroke-width:0.5"/>
<polyline points="615.21,551.08 543.47,551.08 543.47,533.14 615.21,533.14 615.21,551.08" style="fill:none;stroke:black;stroke-width:0.5"/>
<polyline points="633.14,515.21 633.14,443.47 651.08,443.47 651.08,515.21 633.14,515.21" style="fill:none;stroke:black;stroke-width:0.5"/>
<polyline points="452.01,211.63 452.18,210.07 452.68,208.6 453.49,207.26 454.57,206.13 454.57,206.13 456.44,204.32 458.03,202.25 459.3,199.97 460.22,197.54 460.79,194.99 460.98,192.39 460.79,189.8 460.22,187.25 459.3,184.82 458.03,182.54 456.44,180.47 454.57,178.66 454.57,178.66 453.49,177.53 452.68,176.19 452.18,174.72 452.01,173.16 452.01,93.76 452.01,93.76 452.18,92.01 452.69,90.33 453.52,88.77 454.64,87.42 455.99,86.3 457.54,85.47 459.23,84.96 460.98,84.79 606.24,84.79 606.24,84.79 607.99,84.96 609.67,85.47 611.23,86.3 612.58,87.42 613.7,88.77 614.53,90.33 615.04,92.01 615.21,93.76 615.21,506.24 615.21,506.24 615.04,507.99 614.53,509.67 613.7,511.23 612.58,512.58 611.23,513.7 609.67,514.53 607.99,515.04 606.24,515.21 460.98,515.21 460.98,515.21 459.23,515.04 457.54,514.53 455.99,513.7 454.64,512.58 453.52,511.23 452.69,509.67 452.18,507.99 452.01,506.24 452.01,426.84 452.01,426.84 452.18,425.28 452.68,423.81 453.49,422.47 454.57,421.34 454.57,421.34 456.44,419.53 458.03,417.46 459.3,415.18 460.22,412.75 460.79,410.2 460.98,407.61 460.79,405.01 460.22,402.46 459.3,400.03 458.03,397.75 456.44,395.68 454.57,393.87 454.57,393.87 453.49,392.74 452.68,391.4 452.18,389.93 452.01,388.37 452.01,211.63" style="fill:none;stroke:black;stroke-width:0.5"/>
<polyline points="148.92,551.08 148.92,533.14 166.86,533.14 166.86,551.08 148.92,551.08" style="fill:none;stroke:black;stroke-width:0.5"/>
<polyline points="615.21,66.86 543.47,66.86 543.47,48.92 615.21,48.92 615.21,66.86" style="fill:none;stroke:black;stroke-width:0.5"/>
<polyline points="148.92,66.86 148.92,48.92 166.86,48.92 166.86,66.86 148.92,66.86" style="fill:none;stroke:black;stroke-width:0.5"/>
<polyline points="633.14,533.14 651.08,533.14 651.08,551.08 633.14,551.08 633.14,533.14" style="fill:none;stroke:black;stroke-width:0.5"/>
<polyline points="166.86,353.8 148.92,353.8 148.92,418.37 148.92,418.37 148.74,419.96 148.21,421.48 147.36,422.84 146.22,423.97 144.86,424.83 143.34,425.36 141.75,425.54 138.16,425.54 138.16,425.54 136.56,425.72 135.05,426.25 133.69,427.1 132.55,428.24 131.7,429.6 131.17,431.12 130.99,432.71 130.99,551.08 130.99,551.08 131.17,553.63 131.71,556.13 132.61,558.53 133.83,560.77 135.37,562.82 137.18,564.63 139.23,566.17 141.47,567.39 143.87,568.29 146.37,568.83 148.92,569.01 267.29,569.01 267.29,569.01 268.88,568.83 270.4,568.3 271.76,567.45 272.9,566.31 273.75,564.95 274.28,563.44 274.46,561.84 274.46,558.25 274.46,558.25 274.64,556.66 275.17,555.14 276.03,553.78 277.16,552.64 278.52,551.79 280.04,551.26 281.63,551.08 346.2,551.08 346.2,533.14 453.8,533.14 453.8,551.08 518.37,551.08 518.37,551.08 519.96,551.26 521.48,551.79 522.84,552.64 523.97,553.78 524.83,555.14 525.36,556.66 525.54,558.25 525.54,561.84 525.54,561.84 525.72,563.44 526.25,564.95 527.1,566.31 528.24,567.45 529.6,568.3 531.12,568.83 532.71,569.01 651.08,569.01 651.08,569.01 653.63,568.83 656.13,568.29 658.53,567.39 660.77,566.17 662.82,564.63 664.63,562.82 666.17,560.77 667.39,558.53 668.29,556.13 668.83,553.63 669.01,551.08 669.01,432.71 669.01,432.71 668.83,431.12 668.3,429.6 667.45,428.24 666.31,427.1 664.95,426.25 663.44,425.72 661.84,425.54 658.25,425.54 658.25,425.54 656.66,425.36 655.14,424.83 653.78,423.97 652.64,422.84 651.79,421.48 651.26,419.96 651.08,418.37 651.08,353.8 633.14,353.8 633.14,246.2 651.08,246.2 651.08,181.63 651.08,181.63 651.26,180.04 651.79,178.52 652.64,177.16 653.78,176.03 655.14,175.17 656.66,174.64 658.25,174.46 661.84,174.46 661.84,174.46 663.44,174.28 664.95,173.75 666.31,172.9 667.45,171.76 668.3,170.4 668.83,168.88 669.01,167.29 669.01,48.92 669.01,48.92 668.83,46.37 668.29,43.87 667.39,41.47 666.17,39.23 664.63,37.18 662.82,35.37 660.77,33.83 658.53,32.61 656.13,31.71 653.63,31.17 651.08,30.99 532.71,30.99 532.71,30.99 531.12,31.17 529.6,31.7 528.24,32.55 527.1,33.69 526.25,35.05 525.72,36.56 525.54,38.16 525.54,41.75 525.54,41.75 525.36,43.34 524.83,44.86 523.97,46.22 522.84,47.36 521.48,48.21 519.96,48.74 518.37,48.92 453.8,48.92 453.8,66.86 346.2,66.86 346.2,48.92 281.63,48.92 281.63,48.92 280.04,48.74 278.52,48.21 277.16,47.36 276.03,46.22 275.17,44.86 274.64,43.34 274.46,41.75 274.46,38.16 274.46,38.16 274.28,36.56 273.75,35.05 272.9,33.69 271.76,32.55 270.4,31.7 268.88,31.17 267.29,30.99 148.92,30.99 148.92,30.99 146.37,31.17 143.87,31.71 141.47,32.61 139.23,33.83 137.18,35.37 135.37,37.18 133.83,39.23 132.61,41.47 131.71,43.87 131.17,46.37 130.99,48.92 130.99,167.29 130.99,167.29 131.17,168.88 131.7,170.4 132.55,171.76 133.69,172.9 135.05,173.75 136.56,174.28 138.16,174.46 141.75,174.46 141.75,174.46 143.34,174.64 144.86,175.17 146.22,176.03 147.36,177.16 148.21,178.52 148.74,180.04 148.92,181.63 148.92,246.2 166.86,246.2 166.86,353.8" style="fill:none;stroke:black;stroke-width:0.5"/>
<polyline points="437.66,407.61 437.85,406.21 438.38,404.92 439.24,403.8 440.35,402.95 441.65,402.41 443.04,402.22 444.43,402.41 445.73,402.95 446.85,403.8 447.7,404.92 448.24,406.21 448.42,407.61 448.24,409 447.7,410.3 446.85,411.41 445.73,412.26 444.43,412.8 443.04,412.99 441.65,412.8 440.35,412.26 439.24,411.41 438.38,410.3 437.85,409 437.66,407.61" style="fill:none;stroke:black;stroke-width:0.5"/>
<polyline points="437.66,192.39 437.85,191 438.38,189.7 439.24,188.59 440.35,187.74 441.65,187.2 443.04,187.01 444.43,187.2 445.73,187.74 446.85,188.59 447.7,189.7 448.24,191 448.42,192.39 448.24,193.79 447.7,195.08 446.85,196.2 445.73,197.05 444.43,197.59 443.04,197.78 441.65,197.59 440.35,197.05 439.24,196.2 438.38,195.08 437.85,193.79 437.66,192.39" style="fill:none;stroke:black;stroke-width:0.5"/>
<polyline points="322.88,300 323.07,298.61 323.6,297.31 324.46,296.2 325.57,295.34 326.87,294.8 328.26,294.62 329.66,294.8 330.95,295.34 332.07,296.2 332.92,297.31 333.46,298.61 333.64,300 333.46,301.39 332.92,302.69 332.07,303.8 330.95,304.66 329.66,305.2 328.26,305.38 326.87,305.2 325.57,304.66 324.46,303.8 323.6,302.69 323.07,301.39 322.88,300" style="fill:none;stroke:black;stroke-width:0.5"/>
</svg>
