<?xml version="1.0" encoding="UTF-8"?>
<svg xmlns="http://www.w3.org/2000/svg" width="800.000" height="600.000" viewBox="0.0 0.0 800.000 600.000" version="1.1">
  <title>Produce by Acme CAD Converter</title>
  <desc>Produce by Acme CAD Converter</desc>
<polyline points="362.39,111.19 366.26,111.01 370.1,110.47 373.87,109.59 377.54,108.36 381.09,106.79 384.47,104.9 387.67,102.71 390.65,100.24 393.39,97.5 395.87,94.52 398.06,91.32 399.95,87.93 401.51,84.39 402.74,80.71 403.63,76.94 404.17,73.1 404.34,69.23 362.39,69.23 362.39,27.27 320.43,27.27 320.43,69.23 278.47,69.23 278.47,69.23 278.65,73.1 279.19,76.94 280.07,80.71 281.3,84.39 282.87,87.93 284.76,91.32 286.95,94.52 289.42,97.5 292.16,100.24 295.14,102.71 298.34,104.9 301.73,106.79 305.27,108.36 308.95,109.59 312.72,110.47 316.56,111.01 320.43,111.19 320.43,572.73 530.22,572.73 530.22,530.77 404.34,530.77 404.34,530.77 400.47,530.59 396.64,530.05 392.86,529.17 389.19,527.94 385.64,526.37 382.26,524.48 379.06,522.29 376.08,519.82 373.34,517.08 370.86,514.1 368.67,510.9 366.79,507.51 365.22,503.97 363.99,500.29 363.1,496.52 362.57,492.68 362.39,488.81 362.39,111.19" style="fill:none;stroke:black;stroke-width:0.5"/>
</svg>
