0
SECTION
2
HEADER
9
$INSUNITS
70
4
9
$ACADVER
1
AC1014
9
$HANDSEED
5
FFFF
0
ENDSEC
0
SECTION
2
TABLES
0
TABLE
2
VPORT
5
8
100
AcDbSymbolTable
0
ENDTAB
0
TABLE
2
LTYPE
5
5
100
AcDbSymbolTable
0
LTYPE
5
14
100
AcDbSymbolTableRecord
100
AcDbLinetypeTableRecord
2
BYBLOCK
70
0
0
LTYPE
5
15
100
AcDbSymbolTableRecord
100
AcDbLinetypeTableRecord
2
BYLAYER
70
0
0
ENDTAB
0
TABLE
2
LAYER
5
2
100
AcDbSymbolTable
70
2
0
LAYER
5
50
100
AcDbSymbolTableRecord
100
AcDbLayerTableRecord
2
0
70
0
6
CONTINUOUS
0
ENDTAB
0
TABLE
2
STYLE
5
3
100
AcDbSymbolTable
70
1
0
STYLE
5
11
100
AcDbSymbolTableRecord
100
AcDbTextStyleTableRecord
2
STANDARD
70
0
0
ENDTAB
0
TABLE
2
VIEW
5
6
100
AcDbSymbolTable
70
0
0
ENDTAB
0
TABLE
2
UCS
5
7
100
AcDbSymbolTable
70
0
0
ENDTAB
0
TABLE
2
APPID
5
9
100
AcDbSymbolTable
70
2
0
APPID
5
12
100
AcDbSymbolTableRecord
100
AcDbRegAppTableRecord
2
ACAD
70
0
0
ENDTAB
0
TABLE
2
DIMSTYLE
5
A
100
AcDbSymbolTable
70
1
0
ENDTAB
0
TABLE
2
BLOCK_RECORD
5
1
100
AcDbSymbolTable
70
1
0
BLOCK_RECORD
5
1F
100
AcDbSymbolTableRecord
100
AcDbBlockTableRecord
2
*MODEL_SPACE
0
BLOCK_RECORD
5
1B
100
AcDbSymbolTableRecord
100
AcDbBlockTableRecord
2
*PAPER_SPACE
0
ENDTAB
0
ENDSEC
0
SECTION
2
BLOCKS
0
BLOCK
5
20
100
AcDbEntity
100
AcDbBlockBegin
2
*MODEL_SPACE
0
ENDBLK
5
21
100
AcDbEntity
100
AcDbBlockEnd
0
BLOCK
5
1C
100
AcDbEntity
100
AcDbBlockBegin
2
*PAPER_SPACE
0
ENDBLK
5
1D
100
AcDbEntity
100
AcDbBlockEnd
0
ENDSEC
0
SECTION
2
ENTITIES
0
LWPOLYLINE
5
100
100
AcDbEntity
8
0
100
AcDbPolyline
90
50
70
1
43
0.0
10
-56.888889335923736
20
82.239517233286932
42
-0.16386560240745959
10
-55.760484405840806
20
81.111112303203981
42
0.28491504644132454
10
-53.968871572885568
20
80.000001192092896
10
-34.031129321184117
20
80.000001192092896
42
0.28491504644131943
10
-32.239516488228908
20
81.11111230320401
42
-0.16386560240746029
10
-31.11111155814595
20
82.239517233286961
42
0.28491504644131366
10
-30.00000044703485
20
84.03113006624217
10
-30.000000447034836
20
103.96887231794365
42
0.28491504644131715
10
-31.111111558145939
20
105.76048515089887
42
-0.28491504644131788
10
-32.500000447034822
20
108.0000011920929
10
-32.500000447034822
20
110.74979962422691
42
-0.41421356427926187
10
-29.500000427510635
20
113.74979962422692
10
-25.031229194014564
20
113.74979959514388
42
0.2849285552630334
10
-23.23957193113413
20
114.86100023701593
42
-0.79273005806825669
10
-18.500000376920497
20
113.74979958517854
10
-18.500000394880765
20
107.25000099519519
42
-0.28491504569445208
10
-19.888889283769661
20
105.01048496090904
42
0.28491504644132498
10
-21.000000394880779
20
103.21887212795382
10
-21.000000394880772
20
99.781130047615704
42
0.28491504644132198
10
-19.888889283769664
20
97.989517214660481
42
-0.28491504644131788
10
-18.500000394880772
20
95.750001173466444
10
-18.50000036880374
20
89.250001146243179
42
-0.76732700893640515
10
-23.165063939204096
20
88.000001241763442
42
0.26794920549403806
10
-24.89711479552437
20
89.00000132620336
10
-25.500000447034839
20
89.000001326203346
42
0.41421356237309631
10
-27.500000447034843
20
87.000001326203346
10
-27.500000447034807
20
80.000001192092896
42
-0.41421356237309503
10
-30.000000447034836
20
77.500001192092867
10
-58.000000447034843
20
77.500001192092896
42
-0.41421356237309503
10
-60.500000447034843
20
80.000001192092896
10
-60.500000447034843
20
87.000001326203346
42
0.41421356237309631
10
-62.500000447034836
20
89.000001326203346
10
-63.102886098545312
20
89.000001326203346
42
0.26794920549403833
10
-64.834936954865583
20
88.000001241763442
42
-0.76732700893640515
10
-69.500000525265932
20
89.250001146243179
10
-69.5000004991889
20
95.750001173466444
42
-0.28491504644131754
10
-68.111111610300014
20
97.989517214660466
42
0.28491504644131876
10
-67.0000004991889
20
99.781130047615704
10
-67.0000004991889
20
103.21887212795382
42
0.28491504644132437
10
-68.111111610300014
20
105.01048496090904
42
-0.28491504569445181
10
-69.5000004991889
20
107.25000099519519
10
-69.500000517149175
20
113.74979958517854
42
-0.79273005806825825
10
-64.760428962935563
20
114.8610002370159
42
0.28492855526303984
10
-62.968771700055115
20
113.74979959514386
10
-58.500000466559044
20
113.74979962422692
42
-0.41421356427926148
10
-55.500000447034864
20
110.74979962422691
10
-55.500000447034843
20
108.00000119209288
42
-0.28491504644131632
10
-56.888889335923736
20
105.76048515089886
42
0.28491504644130983
10
-58.000000447034822
20
103.96887231794365
10
-58.000000447034843
20
84.03113006624217
42
0.28491504644132087
0
CIRCLE
5
101
100
AcDbEntity
8
0
100
AcDbCircle
10
-30.000000447034836
20
80.000001192092896
30
0
40
0.99999999999999645
210
0
220
-0
230
1
0
CIRCLE
5
102
100
AcDbEntity
8
0
100
AcDbCircle
10
-30.000000447034836
20
108.0000011920929
30
0
40
1.0000000000000009
210
0
220
-0
230
1
0
LWPOLYLINE
5
103
100
AcDbEntity
8
0
100
AcDbPolyline
90
4
70
1
43
0.0
10
-22.25000043494834
20
95.750001175500202
10
-22.250000371206117
20
89.250202531818417
42
1.0000805655431013
10
-19.750000350177288
20
89.250001146354407
10
-19.750000354813206
20
95.750001171432672
42
0.99999999999999989
0
LINE
5
104
100
AcDbEntity
8
0
100
AcDbLine
10
-19.750000342064435
20
113.75000102921491
30
0
11
-19.750000397115951
21
107.25000098906457
31
0
0
ARC
5
105
100
AcDbEntity
8
0
100
AcDbCircle
10
-21.000000394880772
20
107.25000100210309
30
0
40
1.2500000186264515
210
0
220
0
230
1
100
AcDbArc
50
180
51
360
0
LINE
5
106
100
AcDbEntity
8
0
100
AcDbLine
10
-22.250000413507223
20
107.25000101514161
30
0
11
-22.250000371206117
21
113.74979964375112
31
0
0
ARC
5
107
100
AcDbEntity
8
0
100
AcDbCircle
10
-21.00000036880374
20
113.75000103935598
30
0
40
1.2500000267393041
210
0
220
0
230
1
100
AcDbArc
50
0
51
180.00923129441978
0
CIRCLE
5
108
100
AcDbEntity
8
0
100
AcDbCircle
10
-58.000000447034843
20
108.0000011920929
30
0
40
0.99999999999999645
210
0
220
-0
230
1
0
ARC
5
109
100
AcDbEntity
8
0
100
AcDbCircle
10
-67.000000525265932
20
113.75000103935598
30
0
40
1.2500000186264562
210
0
220
0
230
1
100
AcDbArc
50
-0.0092312944197606127
51
180
0
LINE
5
110
100
AcDbEntity
8
0
100
AcDbLine
10
-65.750000522863559
20
113.74979964375112
30
0
11
-65.750000480562449
21
107.25000101514161
31
0
0
ARC
5
111
100
AcDbEntity
8
0
100
AcDbCircle
10
-67.0000004991889
20
107.25000100210309
30
0
40
1.2499999977648191
210
0
220
0
230
1
100
AcDbArc
50
-180
51
0
0
LINE
5
112
100
AcDbEntity
8
0
100
AcDbLine
10
-68.250000496953731
20
107.25000098906457
30
0
11
-68.250000543892398
21
113.75000102921511
31
0
0
LINE
5
113
100
AcDbEntity
8
0
100
AcDbLine
10
-68.250000552005247
20
89.250001146354606
30
0
11
-68.250000539256476
21
95.750001171432672
31
0
0
ARC
5
114
100
AcDbEntity
8
0
100
AcDbCircle
10
-67.0000004991889
20
95.750001173466444
30
0
40
1.2500000018224267
210
0
220
0
230
1
100
AcDbArc
50
0
51
180
0
LINE
5
115
100
AcDbEntity
8
0
100
AcDbLine
10
-65.750000497366472
20
95.750001168563003
30
0
11
-65.750000522863559
21
89.250202531818417
31
0
0
ARC
5
116
100
AcDbEntity
8
0
100
AcDbCircle
10
-67.000000525265932
20
89.250001136213541
30
0
40
1.2500000267393041
210
0
220
0
230
1
100
AcDbArc
50
-180
51
0.0092312944197821285
0
CIRCLE
5
117
100
AcDbEntity
8
0
100
AcDbCircle
10
-58.000000447034843
20
80.000001192092896
30
0
40
0.99999999999999645
210
0
220
-0
230
1
0
ENDSEC
0
SECTION
2
OBJECTS
0
DICTIONARY
5
C
100
AcDbDictionary
3
ACAD_GROUP
350
D
3
ACAD_MLINESTYLE
350
17
0
DICTIONARY
5
D
100
AcDbDictionary
0
DICTIONARY
5
1A
330
C
100
AcDbDictionary
0
DICTIONARY
5
17
100
AcDbDictionary
0
ENDSEC
0
EOF
