0
SECTION
2
HEADER
9
$INSUNITS
70
4
9
$ACADVER
1
AC1014
9
$HANDSEED
5
FFFF
0
ENDSEC
0
SECTION
2
TABLES
0
TABLE
2
VPORT
5
8
100
AcDbSymbolTable
0
ENDTAB
0
TABLE
2
LTYPE
5
5
100
AcDbSymbolTable
0
LTYPE
5
14
100
AcDbSymbolTableRecord
100
AcDbLinetypeTableRecord
2
BYBLOCK
70
0
0
LTYPE
5
15
100
AcDbSymbolTableRecord
100
AcDbLinetypeTableRecord
2
BYLAYER
70
0
0
ENDTAB
0
TABLE
2
LAYER
5
2
100
AcDbSymbolTable
70
2
0
LAYER
5
50
100
AcDbSymbolTableRecord
100
AcDbLayerTableRecord
2
0
70
0
6
CONTINUOUS
0
ENDTAB
0
TABLE
2
STYLE
5
3
100
AcDbSymbolTable
70
1
0
STYLE
5
11
100
AcDbSymbolTableRecord
100
AcDbTextStyleTableRecord
2
STANDARD
70
0
0
ENDTAB
0
TABLE
2
VIEW
5
6
100
AcDbSymbolTable
70
0
0
ENDTAB
0
TABLE
2
UCS
5
7
100
AcDbSymbolTable
70
0
0
ENDTAB
0
TABLE
2
APPID
5
9
100
AcDbSymbolTable
70
2
0
APPID
5
12
100
AcDbSymbolTableRecord
100
AcDbRegAppTableRecord
2
ACAD
70
0
0
ENDTAB
0
TABLE
2
DIMSTYLE
5
A
100
AcDbSymbolTable
70
1
0
ENDTAB
0
TABLE
2
BLOCK_RECORD
5
1
100
AcDbSymbolTable
70
1
0
BLOCK_RECORD
5
1F
100
AcDbSymbolTableRecord
100
AcDbBlockTableRecord
2
*MODEL_SPACE
0
BLOCK_RECORD
5
1B
100
AcDbSymbolTableRecord
100
AcDbBlockTableRecord
2
*PAPER_SPACE
0
ENDTAB
0
ENDSEC
0
SECTION
2
BLOCKS
0
BLOCK
5
20
100
AcDbEntity
100
AcDbBlockBegin
2
*MODEL_SPACE
0
ENDBLK
5
21
100
AcDbEntity
100
AcDbBlockEnd
0
BLOCK
5
1C
100
AcDbEntity
100
AcDbBlockBegin
2
*PAPER_SPACE
0
ENDBLK
5
1D
100
AcDbEntity
100
AcDbBlockEnd
0
ENDSEC
0
SECTION
2
ENTITIES
0
LWPOLYLINE
5
100
100
AcDbEntity
8
0
100
AcDbPolyline
90
6
70
1
43
0.0
10
135.66988399591619
20
109.50641481437864
10
135.66988651706649
20
107.83974191850236
10
140.00000005853471
20
105.33975843316733
10
139.99999745173079
20
107.00000041723308
42
0.41421356237309243
10
137.99999747557263
20
109.00000044107495
10
136.99999747855281
20
109.00000045299586
42
-0.18392531927614431
0
CIRCLE
5
101
100
AcDbEntity
8
0
100
AcDbCircle
10
85.000003501772881
20
48.00000044703485
30
0
40
4.0750000000000064
210
0
220
-0
230
1
0
LWPOLYLINE
5
102
100
AcDbEntity
8
0
100
AcDbPolyline
90
7
70
1
43
0.0
10
72.00962956642681
20
106.50000213086602
10
74.330135053970224
20
107.83974191850236
10
74.330142617392809
20
112.83974191849664
10
70.000019380186856
20
115.33974846860987
10
65.669888579558332
20
112.83975501872882
10
65.669881016135747
20
107.83975501873455
10
67.990392981038326
20
106.50000213086562
0
LWPOLYLINE
5
103
100
AcDbEntity
8
0
100
AcDbPolyline
90
7
70
1
43
0.0
10
84.330140554900936
20
107.83975501873455
10
84.330132991478365
20
112.83975501872882
10
80.000002190849827
20
115.33974846860987
10
75.669878953643888
20
112.83974191849664
10
75.669886517066459
20
107.83974191850236
10
77.990392004609873
20
106.50000213086605
10
82.00962858999813
20
106.50000213086605
0
LWPOLYLINE
5
104
100
AcDbEntity
8
0
100
AcDbPolyline
90
10
70
1
43
0.0
10
14.999658633537745
20
72.038263084330396
42
-0.0047832488613036225
10
15.000024688530049
20
71.999999719858735
10
15.000021129962295
20
67.000001162290545
10
15.000021118041396
20
66.000001087784725
42
0.41421356237309731
10
17.000021094199536
20
64.000001063942889
10
18.000021153804155
20
64.000001052021958
42
-0.04342104432350076
10
18.345430894267682
20
63.969948283478303
10
19.330132939150779
20
64.538463589427096
10
19.330143163331961
20
69.538463589416622
10
15.000021256509406
20
72.038472443812026
0
LWPOLYLINE
5
105
100
AcDbEntity
8
0
100
AcDbPolyline
90
10
70
1
43
0.0
10
135.00036293749895
20
72.038263084330396
10
135.00000031452728
20
72.038472443812026
10
130.66987840770474
20
69.538463589416622
10
130.6698886318859
20
64.538463589427096
10
131.654590676769
20
63.969948283478317
42
-0.043421044323500538
10
132.00000041723254
20
64.000001052021972
10
133.00000047683716
20
64.000001063942889
42
0.41421356237309631
10
135.00000045299529
20
66.000001087784725
10
135.00000044107441
20
67.000001162290545
10
134.99999688250665
20
71.999999719858721
42
-0.0047832488613050658
0
LWPOLYLINE
5
106
100
AcDbEntity
8
0
100
AcDbPolyline
90
6
70
1
43
0.0
10
12.000024512696385
20
73.999999696016886
42
-0.41421356237309148
10
10.000024488854553
20
75.999999672175051
10
10.000023615946514
20
80.698719042072767
10
14.330137900181157
20
78.198726743326517
10
14.330138184502061
20
73.493585355911534
42
0.18392532362014713
10
13.000024664688215
20
73.999999707937803
0
LWPOLYLINE
5
107
100
AcDbEntity
8
0
100
AcDbPolyline
90
5
70
1
43
0.0
10
10.000020659111968
20
88.019244265074136
10
14.330139903471331
20
90.519233992421434
10
14.330144380581249
20
94.988202622125598
42
-0.18515375969424416
10
11.485114374514254
20
97.161816939710675
10
10.000020398214353
20
98.019238330433026
0
LWPOLYLINE
5
108
100
AcDbEntity
8
0
100
AcDbPolyline
90
6
70
1
43
0.0
10
13.000024092483873
20
109.00000045299586
10
12.00002409546407
20
109.00000044107495
42
0.41421356237309082
10
10.000024119305913
20
107.00000041723308
10
10.000021512501984
20
105.33975843316736
10
14.33013505397021
20
107.83974191850236
10
14.330137575120496
20
109.50641481437867
42
-0.18392531927614383
0
LWPOLYLINE
5
109
100
AcDbEntity
8
0
100
AcDbPolyline
90
6
70
1
43
0.0
10
18.000021851866226
20
119.00000116206142
10
17.000021722340808
20
119.00000116022733
42
0.41421355834436036
10
15.000021726008743
20
117.00000118406925
10
15.000022897322456
20
114.00000830843592
10
19.330139351309406
20
116.50000339954522
10
19.330138731238673
20
119.50641853045015
42
-0.1839259061801071
0
LWPOLYLINE
5
110
100
AcDbEntity
8
0
100
AcDbPolyline
90
4
70
1
43
0.0
10
30.000000447034836
20
53.999999641793856
10
20.000000447034836
20
53.999999641793856
10
20.000000447034836
20
49.000000730156898
10
30.000000447034836
20
49.000000730156898
0
LWPOLYLINE
5
111
100
AcDbEntity
8
0
100
AcDbPolyline
90
8
70
1
43
0.0
10
126.71998587371013
20
114.99303130441552
42
-0.25182371323972474
10
125.77319175393184
20
114.96442009459454
42
0.084309252348743105
10
122.24883792529286
20
116.0351912197761
42
-0.26359977466422635
10
120.66988236744825
20
117.21622902252952
10
120.66988325097326
20
121.50000339954511
10
125.00001078551834
20
124.00000250645986
10
129.33013728881747
20
121.50000161337468
10
129.3301362575715
20
116.50000161337479
0
LWPOLYLINE
5
112
100
AcDbEntity
8
0
100
AcDbPolyline
90
4
70
1
43
0.0
10
120.00006637750998
20
54.00000082593089
10
120.00006650908063
20
49.000001914293932
10
130.00006650908063
20
49.000002177435313
10
130.00006637750997
20
54.000001089072271
0
LWPOLYLINE
5
113
100
AcDbEntity
8
0
100
AcDbPolyline
90
6
70
1
43
0.0
10
75.000008723026397
20
114.00000250646008
10
79.330136257571496
20
116.50000161337479
10
79.330137288817468
20
121.50000161337468
10
75.000010785518342
20
124.00000250645986
10
70.669884282219215
20
121.50000161337468
10
70.669885313465187
20
116.50000161337479
0
LWPOLYLINE
5
114
100
AcDbEntity
8
0
100
AcDbPolyline
90
7
70
1
43
0.0
10
29.330139203588402
20
117.21622902252953
42
-0.26359977466421874
10
27.751183645743822
20
116.03519121977614
42
0.096442490164348429
10
23.758968386178978
20
114.71651951928882
10
20.669885313465191
20
116.50000161337479
10
20.669884282219222
20
121.50000161337468
10
25.000010785518345
20
124.00000250645986
10
29.330138320063437
20
121.50000339954511
0
LWPOLYLINE
5
115
100
AcDbEntity
8
0
100
AcDbPolyline
90
6
70
1
43
0.0
10
45.000019745883115
20
89.358984292589255
10
40.669890548573839
20
86.85898806567009
10
40.669886191796465
20
81.858988065671966
10
45.000011032328331
20
79.358984292593021
10
49.330140229637571
20
81.858980519512187
10
49.330144586414981
20
86.858980519510297
0
LWPOLYLINE
5
116
100
AcDbEntity
8
0
100
AcDbPolyline
90
6
70
1
43
0.0
10
25.000019745883115
20
89.358984292589255
10
20.669890548573839
20
86.85898806567009
10
20.669886191796465
20
81.858988065671966
10
25.000011032328331
20
79.358984292593021
10
29.330140229637571
20
81.858980519512187
10
29.330144586414981
20
86.858980519510297
0
LWPOLYLINE
5
117
100
AcDbEntity
8
0
100
AcDbPolyline
90
6
70
1
43
0.0
10
138.08725113680282
20
103.00000764332356
10
139.33013466661538
20
103.00000962606447
10
139.33013278500184
20
104.17950133851099
10
135.00000177789789
20
106.67949443076486
10
132.48032756337474
20
105.22475448530413
42
0.19298456453015836
10
133.89817124977549
20
104.77178645160973
42
-0.24058082511830217
0
LWPOLYLINE
5
118
100
AcDbEntity
8
0
100
AcDbPolyline
90
6
70
1
43
0.0
10
17.519694007661975
20
105.22475448530412
42
-0.19298456453014487
10
16.101850321261217
20
104.77178645160974
42
0.24058109013506099
10
11.912767212338746
20
103.00000380627971
10
10.669886904415211
20
103.00000578901547
10
10.669888786034853
20
104.17950133851099
10
15.00001979313879
20
106.67949443076486
0
LWPOLYLINE
5
119
100
AcDbEntity
8
0
100
AcDbPolyline
90
4
70
1
43
0.0
10
70.000022375398302
20
122.6602565443155
10
72.320518177196831
20
124.00000195381617
10
70.000020653438867
20
124.00000147521497
10
67.679504721241713
20
124.00000150287761
0
LWPOLYLINE
5
120
100
AcDbEntity
8
0
100
AcDbPolyline
90
8
70
1
43
0.0
10
32.000021451827351
20
64.000000885128969
10
38.397483640944472
20
64.000000808865266
10
39.330132939150779
20
64.538463589427096
10
39.330143163331961
20
69.538463589416622
10
35.000021256509406
20
72.038472443812026
10
30.669889125505705
20
69.538481298217874
10
30.669878901324523
20
64.538481298228362
10
31.654604717157287
20
63.969946898572147
42
-0.043421933519637732
0
LWPOLYLINE
5
121
100
AcDbEntity
8
0
100
AcDbPolyline
90
7
70
1
43
0.0
10
22.000021094199518
20
59.000000929832467
42
-0.41421356237310025
10
20.000021118041396
20
61.000000953674274
10
20.000021129962278
20
62.00000102818008
42
0.15639201195023669
10
19.62714859741261
20
63.162952557747246
10
20.00001833909538
20
63.378227260347927
10
24.330136592516727
20
60.878212078116562
10
24.330130007152047
20
59.000000902055376
0
LWPOLYLINE
5
122
100
AcDbEntity
8
0
100
AcDbPolyline
90
6
70
1
43
0.0
10
35.669883862336761
20
78.198726220007245
10
35.669884164475292
20
73.198726220007245
10
40.000011334466748
20
70.698726481666881
10
44.330138202319688
20
73.198726743326517
10
44.330137900181157
20
78.198726743326517
10
40.000010730189715
20
80.698726481666881
0
LWPOLYLINE
5
123
100
AcDbEntity
8
0
100
AcDbPolyline
90
5
70
1
43
0.0
10
49.330138835686896
20
119.00000113009136
10
40.669884797842322
20
119.00000105464797
10
40.669885313465187
20
116.50000161337479
10
45.0000128480103
20
114.00000250646008
10
49.330139351309406
20
116.50000339954522
0
LWPOLYLINE
5
124
100
AcDbEntity
8
0
100
AcDbPolyline
90
7
70
1
43
0.0
10
30.000021416064591
20
61.000000834464991
42
-0.4142135623730937
10
28.000021392222756
20
59.000000858306869
10
25.669875969254363
20
59.000000886084365
10
25.669882554725554
20
60.878242442610016
10
30.00001833909538
20
63.378227260347927
10
30.372890563570056
20
63.162947638022956
42
0.15639125773532539
10
30.000021427985487
20
62.000000908970833
0
LWPOLYLINE
5
125
100
AcDbEntity
8
0
100
AcDbPolyline
90
6
70
1
43
0.0
10
25.000000808147043
20
62.038472443832958
10
29.330132939150779
20
64.538463589427096
10
29.330143163331961
20
69.538463589416622
10
25.000021256509406
20
72.038472443812026
10
20.669889125505705
20
69.538481298217874
10
20.669878901324523
20
64.538481298228362
0
LWPOLYLINE
5
126
100
AcDbEntity
8
0
100
AcDbPolyline
90
6
70
1
43
0.0
10
35.000019745883115
20
89.358984292589255
10
30.669890548573839
20
86.85898806567009
10
30.669886191796465
20
81.858988065671966
10
35.000011032328331
20
79.358984292593021
10
39.330140229637571
20
81.858980519512187
10
39.330144586414981
20
86.858980519510297
0
LWPOLYLINE
5
127
100
AcDbEntity
8
0
100
AcDbPolyline
90
6
70
1
43
0.0
10
15.000019745883115
20
89.358984292589255
10
10.669890548573839
20
86.85898806567009
10
10.669886191796465
20
81.858988065671966
10
15.000011032328331
20
79.358984292593021
10
19.330140229637571
20
81.858980519512187
10
19.330144586414981
20
86.858980519510297
0
LWPOLYLINE
5
128
100
AcDbEntity
8
0
100
AcDbPolyline
90
7
70
1
43
0.0
10
19.432682028389209
20
96.411619161750991
42
-0.39828623493945248
10
22.17554660722012
20
96.610217134906605
42
0.058333379889289536
10
24.330144624311316
20
95.231489514227945
10
24.330139903471331
20
90.519233992421434
10
20.000010379996986
20
88.019238330438071
10
15.669885865631308
20
90.519242668452179
10
15.669890139438873
20
94.78527864808315
42
0.21438070319923966
0
LWPOLYLINE
5
129
100
AcDbEntity
8
0
100
AcDbPolyline
90
8
70
1
43
0.0
10
41.602550129560697
20
64.000000770657891
10
44.275701649806152
20
64.000000738791428
42
0.34938330896824116
10
46.224710386944579
20
65.551263582435823
42
-0.25089382034089996
10
49.330142280544855
20
69.106748274892723
10
49.330143163331961
20
69.538463589416622
10
45.000021256509406
20
72.038472443812026
10
40.669889125505705
20
69.538481298217874
10
40.669878901324523
20
64.538481298228362
0
LWPOLYLINE
5
130
100
AcDbEntity
8
0
100
AcDbPolyline
90
6
70
1
43
0.0
10
37.654766341194701
20
112.08943649982787
42
-0.22428300870972145
10
37.241206809473937
20
113.74695285254425
10
40.000019380186842
20
115.33974846860987
10
44.330142617392809
20
112.83974191849664
10
44.33013505397021
20
107.83974191850236
10
40.137590096920462
20
105.41918341494983
42
0.16622762032913349
0
LWPOLYLINE
5
131
100
AcDbEntity
8
0
100
AcDbPolyline
90
6
70
1
43
0.0
10
30.000011334466752
20
70.698726481666881
10
34.330138202319688
20
73.198726743326517
10
34.330137900181157
20
78.198726743326517
10
30.000010730189715
20
80.698726481666881
10
25.669883862336764
20
78.198726220007245
10
25.669884164475292
20
73.198726220007245
0
LWPOLYLINE
5
132
100
AcDbEntity
8
0
100
AcDbPolyline
90
9
70
1
43
0.0
10
69.33013832006344
20
121.50000339954511
10
65.754187852847394
20
123.56457838101866
42
0.22843633680801184
10
65.000020593520432
20
122.00000153481965
10
65.0000205815995
20
121.00000113821947
42
-0.4142135563300095
10
63.000020599022442
20
119.00000116206138
10
60.6698847978423
20
119.00000114176252
10
60.669885313465187
20
116.50000161337479
10
65.0000128480103
20
114.00000250646008
10
69.330139351309413
20
116.50000339954522
0
LWPOLYLINE
5
133
100
AcDbEntity
8
0
100
AcDbPolyline
90
6
70
1
43
0.0
10
40.000020398214353
20
98.019238330433026
10
35.669890874739991
20
95.51924266844965
10
35.669885865631308
20
90.519242668452179
10
40.000010379996986
20
88.019238330438071
10
44.330139903471334
20
90.519233992421434
10
44.33014491258001
20
95.519233992418918
0
LWPOLYLINE
5
134
100
AcDbEntity
8
0
100
AcDbPolyline
90
6
70
1
43
0.0
10
15.669881016135747
20
107.83975501873455
10
18.207098695620036
20
106.37488659114061
42
0.017599796393911796
10
18.229792123391647
20
106.51379992443162
42
-0.2017192303582952
10
22.503216222367506
20
113.89452204920838
10
20.00001938018686
20
115.33974846860987
10
15.669888579558329
20
112.83975501872882
0
LWPOLYLINE
5
135
100
AcDbEntity
8
0
100
AcDbPolyline
90
6
70
1
43
0.0
10
45.669881016135747
20
107.83975501873455
10
50.0000042533417
20
105.33974846862131
10
54.330135053970224
20
107.83974191850236
10
54.330142617392809
20
112.83974191849664
10
50.000019380186856
20
115.33974846860987
10
45.669888579558332
20
112.83975501872882
0
LWPOLYLINE
5
136
100
AcDbEntity
8
0
100
AcDbPolyline
90
5
70
1
43
0.0
10
30.000010379996986
20
88.019238330438071
10
34.330139903471348
20
90.519233992421434
10
34.330144817173256
20
95.424000698937604
42
-0.20591377085028187
10
25.66989003960499
20
94.685626291615122
10
25.669885865631326
20
90.519242668452179
0
LWPOLYLINE
5
137
100
AcDbEntity
8
0
100
AcDbPolyline
90
6
70
1
43
0.0
10
20.000010730189715
20
80.698726481666881
10
15.669883862336764
20
78.198726220007245
10
15.669884164475292
20
73.198726220007245
10
20.000011334466752
20
70.698726481666881
10
24.330138202319684
20
73.198726743326517
10
24.330137900181157
20
78.198726743326517
0
LWPOLYLINE
5
138
100
AcDbEntity
8
0
100
AcDbPolyline
90
5
70
1
43
0.0
10
59.330138835686896
20
119.00000113009136
10
50.669884797842322
20
119.00000105464797
10
50.669885313465187
20
116.50000161337479
10
55.0000128480103
20
114.00000250646008
10
59.330139351309406
20
116.50000339954522
0
LWPOLYLINE
5
139
100
AcDbEntity
8
0
100
AcDbPolyline
90
6
70
1
43
0.0
10
40.669880809660341
20
99.179501338517341
10
45.000003840389802
20
96.679494430777581
10
49.330134847493738
20
99.179487523031455
10
49.330142823868215
20
104.17948752302509
10
45.00001979313879
20
106.67949443076486
10
40.669888786034853
20
104.17950133851099
0
LWPOLYLINE
5
140
100
AcDbEntity
8
0
100
AcDbPolyline
90
5
70
1
43
0.0
10
100.66988221972728
20
116.50000339954522
10
105.00000872302638
20
114.00000250646008
10
109.3301362575715
20
116.50000161337479
10
109.33013677319437
20
119.00000105464797
10
100.6698827353498
20
119.00000113009136
0
LWPOLYLINE
5
141
100
AcDbEntity
8
0
100
AcDbPolyline
90
6
70
1
43
0.0
10
131.79292287541665
20
106.37488659114061
10
134.33014055490094
20
107.83975501873455
10
134.33013299147837
20
112.83975501872882
10
130.00000219084984
20
115.33974846860987
10
127.49680534866918
20
113.89452204920838
42
-0.2017192303582952
10
131.77022944764505
20
106.51379992443162
42
0.01759979639391298
0
CIRCLE
5
142
100
AcDbEntity
8
0
100
AcDbCircle
10
29.141569731207397
20
105.12341511721436
30
0
40
6.0000000000000053
210
0
220
-0
230
1
0
CIRCLE
5
143
100
AcDbEntity
8
0
100
AcDbCircle
10
34.480225769429325
20
118.52308868434113
30
0
40
1.5000000000000036
210
0
220
-0
230
1
0
LWPOLYLINE
5
144
100
AcDbEntity
8
0
100
AcDbPolyline
90
8
70
1
43
0.0
10
135.00000872302638
20
114.00000250646008
10
135.75417382171182
20
114.43541972180496
42
-0.22843746416339833
10
134.99999985694882
20
116.00000190734859
10
134.99999984502796
20
117.00000118406925
42
0.41421355834436785
10
132.99999984869589
20
119.00000116022738
10
131.99999971917046
20
119.00000116206137
42
-0.18392590618010754
10
130.66988283979799
20
119.50641853045012
10
130.6698822197273
20
116.50000339954522
0
LWPOLYLINE
5
145
100
AcDbEntity
8
0
100
AcDbPolyline
90
4
70
1
43
0.0
10
62.500024322889729
20
52.440000447034862
10
62.500024322889729
20
38.440000447034855
10
76.500024322889715
20
38.440000447034855
10
76.500024322889715
20
52.440000447034862
0
LWPOLYLINE
5
146
100
AcDbEntity
8
0
100
AcDbPolyline
90
8
70
1
43
0.0
10
108.397471441476
20
64.000000770657891
10
109.33014266971216
20
64.538481298228362
10
109.33013244553098
20
69.538481298217874
10
105.00000031452728
20
72.038472443812026
10
100.66987840770473
20
69.538463589416622
10
100.66987929049183
20
69.106748274892738
42
-0.25089382034090046
10
103.77531118409212
20
65.551263582435823
42
0.34938330896823289
10
105.72431992123055
20
64.000000738791428
0
CIRCLE
5
147
100
AcDbEntity
8
0
100
AcDbCircle
10
15.741896291364057
20
99.78475875951942
30
0
40
1.5000000000000036
210
0
220
-0
230
1
0
LWPOLYLINE
5
148
100
AcDbEntity
8
0
100
AcDbPolyline
90
8
70
1
43
0.0
10
118.3454168538794
20
63.969946898572104
10
119.33014266971216
20
64.538481298228362
10
119.33013244553098
20
69.538481298217874
10
115.00000031452728
20
72.038472443812026
10
110.66987840770473
20
69.538463589416622
10
110.66988863188591
20
64.538463589427096
10
111.60253793009221
20
64.000000808865266
10
118.00000011920935
20
64.000000885128941
42
-0.043421933519638065
0
LWPOLYLINE
5
149
100
AcDbEntity
8
0
100
AcDbPolyline
90
7
70
1
43
0.0
10
122.00000017881393
20
59.000000858306869
42
-0.41421356237309503
10
120.0000001549721
20
61.000000834464991
10
120.00000014305121
20
62.000000908970833
42
0.15639125773532545
10
119.62713100746663
20
63.162947638022956
10
120.00000323194131
20
63.378227260347927
10
124.33013901631114
20
60.878242442610016
10
124.33014560178233
20
59.000000886084365
0
CIRCLE
5
150
100
AcDbEntity
8
0
100
AcDbCircle
10
51.097235772159735
20
64.429420121660357
30
0
40
1.4999999999999947
210
0
220
-0
230
1
0
LWPOLYLINE
5
151
100
AcDbEntity
8
0
100
AcDbPolyline
90
7
70
1
43
0.0
10
130.37287297362408
20
63.162952557747246
10
130.00000323194132
20
63.378227260347927
10
125.66988497851996
20
60.878212078116562
10
125.66989156388465
20
59.000000902055376
10
128.00000047683716
20
59.000000929832446
42
0.41421356237309243
10
130.00000045299532
20
61.000000953674274
10
130.00000044107441
20
62.000001028180066
42
-0.15639201195023777
0
LWPOLYLINE
5
152
100
AcDbEntity
8
0
100
AcDbPolyline
90
5
70
1
43
0.0
10
135.66987719045545
20
94.988202622125598
10
135.66988166756536
20
90.519233992421434
10
140.00000091192473
20
88.019244265074136
10
140.00000117282235
20
98.019238330433026
10
138.51490719652244
20
97.161816939710675
42
-0.18515375969424416
0
LWPOLYLINE
5
153
100
AcDbEntity
8
0
100
AcDbPolyline
90
7
70
1
43
0.0
10
125.66987694672535
20
95.23148951422796
10
125.66988166756536
20
90.519233992421434
10
130.0000111910397
20
88.019238330438071
10
134.33013570540538
20
90.519242668452179
10
134.33013143159781
20
94.785278648083192
42
-0.21438070319923974
10
130.56733954264752
20
96.41161916175102
42
0.39828623493945281
10
127.82447496381656
20
96.61021713490662
42
-0.05833337988928964
0
LWPOLYLINE
5
154
100
AcDbEntity
8
0
100
AcDbPolyline
90
5
70
1
43
0.0
10
115.66988166756533
20
90.519233992421434
10
120.0000111910397
20
88.019238330438071
10
124.33013570540537
20
90.519242668452179
10
124.3301315314317
20
94.685626291615122
42
-0.20591377085028187
10
115.66987675386343
20
95.424000698937604
0
LWPOLYLINE
5
155
100
AcDbEntity
8
0
100
AcDbPolyline
90
5
70
1
43
0.0
10
90.669882219727285
20
116.50000339954522
10
95.000008723026383
20
114.00000250646008
10
99.330136257571496
20
116.50000161337479
10
99.330136773194369
20
119.00000105464797
10
90.669882735349802
20
119.00000113009136
0
LWPOLYLINE
5
156
100
AcDbEntity
8
0
100
AcDbPolyline
90
9
70
1
43
0.0
10
85.00000098943714
20
121.00000113821947
10
85.000000977516237
20
122.00000153481965
42
0.22843633680800907
10
84.245833718189289
20
123.56457838101866
10
80.669883250973257
20
121.50000339954511
10
80.669882219727285
20
116.50000339954522
10
85.000008723026383
20
114.00000250646008
10
89.330136257571496
20
116.50000161337479
10
89.330136773194383
20
119.00000114176252
10
87.000000972014249
20
119.00000116206132
42
-0.4142135563300095
0
LWPOLYLINE
5
157
100
AcDbEntity
8
0
100
AcDbPolyline
90
6
70
1
43
0.0
10
104.33014055490094
20
107.83975501873455
10
104.33013299147837
20
112.83975501872882
10
100.00000219084983
20
115.33974846860987
10
95.669878953643888
20
112.83974191849664
10
95.669886517066459
20
107.83974191850236
10
100.000017317695
20
105.33974846862131
0
LWPOLYLINE
5
158
100
AcDbEntity
8
0
100
AcDbPolyline
90
6
70
1
43
0.0
10
110.00001023656993
20
70.698726481666881
10
114.33013740656139
20
73.198726220007245
10
114.33013770869992
20
78.198726220007245
10
110.00001084084698
20
80.698726481666881
10
105.66988367085554
20
78.198726743326517
10
105.66988336871701
20
73.198726743326517
0
LWPOLYLINE
5
159
100
AcDbEntity
8
0
100
AcDbPolyline
90
6
70
1
43
0.0
10
112.75881476156275
20
113.74695285254427
10
110.00000219084984
20
115.33974846860987
10
105.66987895364389
20
112.83974191849664
10
105.66988651706649
20
107.83974191850236
10
109.86243147411622
20
105.41918341494983
42
-0.16622762032913344
10
112.345255229842
20
112.08943649982787
42
0.22428300870972251
0
LWPOLYLINE
5
160
100
AcDbEntity
8
0
100
AcDbPolyline
90
4
70
1
43
0.0
10
77.679503393839852
20
124.00000195381617
10
79.999999195638395
20
122.6602565443155
10
82.32051684979497
20
124.00000150287761
10
80.000000917597816
20
124.00000147521497
0
LWPOLYLINE
5
161
100
AcDbEntity
8
0
100
AcDbPolyline
90
6
70
1
43
0.0
10
105.00000177789789
20
106.67949443076486
10
100.66987874716847
20
104.17948752302509
10
100.66988672354296
20
99.179487523031455
10
105.00001773064689
20
96.679494430777581
10
109.33014076137636
20
99.179501338517341
10
109.33013278500184
20
104.17950133851099
0
LWPOLYLINE
5
162
100
AcDbEntity
8
0
100
AcDbPolyline
90
6
70
1
43
0.0
10
105.66987665845667
20
95.519233992418918
10
105.66988166756536
20
90.519233992421434
10
110.0000111910397
20
88.019238330438071
10
114.33013570540538
20
90.519242668452179
10
114.33013069629669
20
95.51924266844965
10
110.00000117282234
20
98.019238330433026
0
LWPOLYLINE
5
163
100
AcDbEntity
8
0
100
AcDbPolyline
90
6
70
1
43
0.0
10
120.66987840770473
20
69.538463589416622
10
120.66988863188591
20
64.538463589427096
10
125.00002076288965
20
62.038472443832958
10
129.33014266971216
20
64.538481298228362
10
129.33013244553098
20
69.538481298217874
10
125.00000031452728
20
72.038472443812026
0
LWPOLYLINE
5
164
100
AcDbEntity
8
0
100
AcDbPolyline
90
6
70
1
43
0.0
10
135.00000182515356
20
89.358984292589255
10
130.66987698462171
20
86.858980519510297
10
130.6698813413991
20
81.858980519512187
10
135.00001053870835
20
79.358984292593021
10
139.33013537924023
20
81.858988065671966
10
139.33013102246287
20
86.85898806567009
0
LWPOLYLINE
5
165
100
AcDbEntity
8
0
100
AcDbPolyline
90
6
70
1
43
0.0
10
130.00001023656995
20
70.698726481666881
10
134.33013740656139
20
73.198726220007245
10
134.33013770869994
20
78.198726220007245
10
130.00001084084698
20
80.698726481666881
10
125.66988367085554
20
78.198726743326517
10
125.66988336871701
20
73.198726743326517
0
LWPOLYLINE
5
166
100
AcDbEntity
8
0
100
AcDbPolyline
90
6
70
1
43
0.0
10
120.00001023656993
20
70.698726481666881
10
124.33013740656139
20
73.198726220007245
10
124.33013770869992
20
78.198726220007245
10
120.00001084084698
20
80.698726481666881
10
115.66988367085554
20
78.198726743326517
10
115.66988336871701
20
73.198726743326517
0
LWPOLYLINE
5
167
100
AcDbEntity
8
0
100
AcDbPolyline
90
6
70
1
43
0.0
10
125.00000182515357
20
89.358984292589255
10
120.66987698462171
20
86.858980519510297
10
120.66988134139912
20
81.858980519512187
10
125.00001053870835
20
79.358984292593021
10
129.33013537924023
20
81.858988065671966
10
129.33013102246287
20
86.85898806567009
0
LWPOLYLINE
5
168
100
AcDbEntity
8
0
100
AcDbPolyline
90
6
70
1
43
0.0
10
115.00000182515357
20
89.358984292589255
10
110.66987698462171
20
86.858980519510297
10
110.66988134139912
20
81.858980519512187
10
115.00001053870835
20
79.358984292593021
10
119.33013537924023
20
81.858988065671966
10
119.33013102246285
20
86.85898806567009
0
LWPOLYLINE
5
169
100
AcDbEntity
8
0
100
AcDbPolyline
90
6
70
1
43
0.0
10
105.00000182515357
20
89.358984292589255
10
100.66987698462171
20
86.858980519510297
10
100.66988134139912
20
81.858980519512187
10
105.00001053870835
20
79.358984292593021
10
109.33013537924023
20
81.858988065671966
10
109.33013102246285
20
86.85898806567009
0
CIRCLE
5
170
100
AcDbEntity
8
0
100
AcDbCircle
10
98.902789400850708
20
64.429420691546838
30
0
40
1.4999999999999858
210
0
220
-0
230
1
0
CIRCLE
5
171
100
AcDbEntity
8
0
100
AcDbCircle
10
120.8584544715828
20
105.12341621056459
30
0
40
6.0000000000000142
210
0
220
-0
230
1
0
CIRCLE
5
172
100
AcDbEntity
8
0
100
AcDbCircle
10
115.51979811388783
20
118.5230896504079
30
0
40
1.5000000000000036
210
0
220
-0
230
1
0
LWPOLYLINE
5
173
100
AcDbEntity
8
0
100
AcDbPolyline
90
7
70
1
43
0.0
10
136.99999690634849
20
73.999999707937803
10
137.99999705834028
20
73.999999696016886
42
0.38477551474365213
10
139.98969494699983
20
75.797262410990569
10
139.99999795395405
20
80.692603440502083
10
139.99999795509018
20
80.698719042072767
10
135.66988367085554
20
78.198726743326517
10
135.66988338653465
20
73.493585355911534
42
-0.1839253236201448
0
CIRCLE
5
174
100
AcDbEntity
8
0
100
AcDbCircle
10
134.25812803870963
20
99.7847601723427
30
0
40
1.5000000000000036
210
0
220
-0
230
1
0
LWPOLYLINE
5
175
100
AcDbEntity
8
0
100
AcDbPolyline
90
7
70
1
43
0.0
10
87.900223534420107
20
106.55206073954076
10
92.165078936297974
20
106.58975174367794
10
94.330140554900936
20
107.83975501873455
10
94.330132991478379
20
112.83975501872882
10
90.000002190849841
20
115.33974846860987
10
85.669878953643888
20
112.83974191849664
10
85.669886517066487
20
107.83974191850236
0
CIRCLE
5
176
100
AcDbEntity
8
0
100
AcDbCircle
10
25.000019708391541
20
40.000000596046448
30
0
40
2.5
210
0
220
-0
230
1
0
CIRCLE
5
177
100
AcDbEntity
8
0
100
AcDbCircle
10
125.00000186264515
20
40.000000596046448
30
0
40
2.5
210
0
220
-0
230
1
0
LWPOLYLINE
5
178
100
AcDbEntity
8
0
100
AcDbPolyline
90
4
70
1
43
0.0
10
55.250024322889722
20
78.250000354647597
42
-0.99999999999999989
10
55.250024322889722
20
75.750000354647597
10
48.75002432288963
20
75.750000354647597
42
-0.99999999999999989
10
48.750024322889807
20
78.250000354647597
0
LWPOLYLINE
5
179
100
AcDbEntity
8
0
100
AcDbPolyline
90
7
70
1
43
0.0
10
62.009629566426092
20
106.50000213086564
10
64.33013505397021
20
107.83974191850236
10
64.330142617392809
20
112.83974191849664
10
60.000019380186842
20
115.33974846860987
10
55.669888579558311
20
112.83975501872882
10
55.669881016135747
20
107.83975501873455
10
57.990392981039243
20
106.50000213086564
0
LWPOLYLINE
5
180
100
AcDbEntity
8
0
100
AcDbPolyline
90
8
70
1
43
0.0
10
90.000010785518342
20
105.00000081956387
42
-0.41421356237309503
10
92.000010785518342
20
103.00000081956387
10
92.000010785518356
20
57.000000819563866
42
-0.41421356237309503
10
90.000010785518342
20
55.000000819563866
10
60.000010785518334
20
55.000000819563866
42
-0.41421356237308982
10
58.000010785518334
20
57.000000819563866
10
58.000010785518334
20
103.00000081956387
42
-0.41421356237309631
10
60.000010785518334
20
105.00000081956387
0
LWPOLYLINE
5
181
100
AcDbEntity
8
0
100
AcDbPolyline
90
4
70
1
43
0.0
10
55.250024322889722
20
96.250000354647597
42
-0.99999999999999989
10
55.250024322889722
20
93.750000354647597
10
48.75002432288963
20
93.750000354647639
42
-0.99999999999999989
10
48.750024322889807
20
96.250000354647597
0
LWPOLYLINE
5
182
100
AcDbEntity
8
0
100
AcDbPolyline
90
4
70
1
43
0.0
10
94.749997248146968
20
93.750000354647597
42
-0.99999999999999989
10
94.749997248146968
20
96.250000354647597
10
101.24999724814698
20
96.250000354647597
42
-0.99999999999999989
10
101.24999724814694
20
93.750000354647597
0
LWPOLYLINE
5
183
100
AcDbEntity
8
0
100
AcDbPolyline
90
4
70
1
43
0.0
10
94.749997248146968
20
75.750000354647597
10
101.24999724814694
20
75.750000354647597
42
0.99999999999999989
10
101.24999724814688
20
78.250000354647597
10
94.749997248146968
20
78.250000354647597
42
0.99999999999999989
0
LWPOLYLINE
5
184
100
AcDbEntity
8
0
100
AcDbPolyline
90
48
70
1
43
0.0
10
114.99999632818351
20
48.999999821186563
10
114.99999644739276
20
58.999999895692369
10
94.499997547050825
20
59.000000140071279
10
94.499997303223296
20
39.000000134904589
42
-0.41421356265593745
10
89.499997248146954
20
34.000000206570462
10
60.500024322889729
20
34.000000206570505
42
-0.41421356265593745
10
55.500024267813437
20
39.000000134904589
10
55.500024023985866
20
59.000000140071279
10
35.00002512364393
20
58.999999895692369
10
35.000025242853177
20
48.999999821186563
42
-0.30670135370168716
10
31.856589784068756
20
44.357460789822952
42
0.39601229266633586
10
30.699416648746009
20
41.875334056837296
42
-1.3817840168512026
10
19.300623694394083
20
41.875336872161625
42
0.39601200458838998
10
18.143453634933895
20
44.357463437024435
42
-0.30670093147136712
10
15.000025093841582
20
48.999999433756464
10
15.000024885225347
20
53.999999582768069
10
15.000024825620706
20
58.999999657273875
10
10.000024766016082
20
58.999999597669245
10
10.000024706411441
20
68.999999672175051
10
5.0000245723010117
20
68.999999612570463
10
5.0000240358594539
20
114.00000035762852
10
10.000024050760636
20
114.00000041723311
10
10.000023991156013
20
123.99999959766924
10
15.000024065661819
20
123.99999972604847
10
15.000024006057195
20
129.00000070035514
10
35.000024304080419
20
129.00000093877364
10
35.000024363685043
20
123.99999996446694
10
60.000022803449333
20
124.00000073017721
10
60.000022744397626
20
129.00000123679672
10
89.999998911446838
20
129.00000123679672
10
89.999998842901704
20
124.00000078780946
10
114.99999720735164
20
123.99999996446694
10
114.99999726695627
20
129.00000093877364
10
134.99999756497948
20
129.00000070035514
10
134.99999750537486
20
123.99999972604847
10
139.99999757988067
20
123.99999959766924
10
139.99999752027605
20
114.00000041723311
10
144.99999753517724
20
114.00000035762852
10
144.99999699873567
20
68.999999612570463
10
139.99999686462525
20
68.999999672175051
10
139.9999968050206
20
58.999999597669245
10
134.99999674541598
20
58.999999657273875
10
134.99999668581134
20
53.999999582768069
10
134.99999647719511
20
48.999999433756464
42
-0.30670093147136729
10
131.85656793610281
20
44.357463437024421
42
0.39601200458838798
10
130.69939787664259
20
41.875336872161625
42
-1.3817840168512026
10
119.30060492229067
20
41.875334056837296
42
0.39601229266634241
10
118.14343178696794
20
44.357460789822952
42
-0.30670135370168716
0
ENDSEC
0
SECTION
2
OBJECTS
0
DICTIONARY
5
C
100
AcDbDictionary
3
ACAD_GROUP
350
D
3
ACAD_MLINESTYLE
350
17
0
DICTIONARY
5
D
100
AcDbDictionary
0
DICTIONARY
5
1A
330
C
100
AcDbDictionary
0
DICTIONARY
5
17
100
AcDbDictionary
0
ENDSEC
0
EOF
