0
SECTION
2
HEADER
9
$INSUNITS
70
4
9
$ACADVER
1
AC1014
9
$HANDSEED
5
FFFF
0
ENDSEC
0
SECTION
2
TABLES
0
TABLE
2
VPORT
5
8
100
AcDbSymbolTable
0
ENDTAB
0
TABLE
2
LTYPE
5
5
100
AcDbSymbolTable
0
LTYPE
5
14
100
AcDbSymbolTableRecord
100
AcDbLinetypeTableRecord
2
BYBLOCK
70
0
0
LTYPE
5
15
100
AcDbSymbolTableRecord
100
AcDbLinetypeTableRecord
2
BYLAYER
70
0
0
ENDTAB
0
TABLE
2
LAYER
5
2
100
AcDbSymbolTable
70
2
0
LAYER
5
50
100
AcDbSymbolTableRecord
100
AcDbLayerTableRecord
2
0
70
0
6
CONTINUOUS
0
ENDTAB
0
TABLE
2
STYLE
5
3
100
AcDbSymbolTable
70
1
0
STYLE
5
11
100
AcDbSymbolTableRecord
100
AcDbTextStyleTableRecord
2
STANDARD
70
0
0
ENDTAB
0
TABLE
2
VIEW
5
6
100
AcDbSymbolTable
70
0
0
ENDTAB
0
TABLE
2
UCS
5
7
100
AcDbSymbolTable
70
0
0
ENDTAB
0
TABLE
2
APPID
5
9
100
AcDbSymbolTable
70
2
0
APPID
5
12
100
AcDbSymbolTableRecord
100
AcDbRegAppTableRecord
2
ACAD
70
0
0
ENDTAB
0
TABLE
2
DIMSTYLE
5
A
100
AcDbSymbolTable
70
1
0
ENDTAB
0
TABLE
2
BLOCK_RECORD
5
1
100
AcDbSymbolTable
70
1
0
BLOCK_RECORD
5
1F
100
AcDbSymbolTableRecord
100
AcDbBlockTableRecord
2
*MODEL_SPACE
0
BLOCK_RECORD
5
1B
100
AcDbSymbolTableRecord
100
AcDbBlockTableRecord
2
*PAPER_SPACE
0
ENDTAB
0
ENDSEC
0
SECTION
2
BLOCKS
0
BLOCK
5
20
100
AcDbEntity
100
AcDbBlockBegin
2
*MODEL_SPACE
0
ENDBLK
5
21
100
AcDbEntity
100
AcDbBlockEnd
0
BLOCK
5
1C
100
AcDbEntity
100
AcDbBlockBegin
2
*PAPER_SPACE
0
ENDBLK
5
1D
100
AcDbEntity
100
AcDbBlockEnd
0
ENDSEC
0
SECTION
2
ENTITIES
0
LWPOLYLINE
5
100
100
AcDbEntity
8
0
100
AcDbPolyline
90
44
70
1
43
0.0
10
-111.00004171326199
20
79.999982787715112
10
-111.00004156932999
20
69.999982713209306
10
-88.5000426689882
20
69.999983037056595
10
-88.500042951443419
20
89.999983066065113
42
-0.4142135626559364
10
-83.500043027937807
20
94.999983125969919
10
-58.500024322889708
20
94.999983454896892
42
-0.4142135626559359
10
-53.500024267813409
20
89.999983526562801
10
-53.500024023985908
20
69.999983497554197
10
-31.000025123643905
20
69.999983765774999
10
-31.000025242853194
20
79.999983840280805
42
-0.41421356237309453
10
-26.0000253024578
20
84.999983899885393
10
-16.000025153446199
20
84.999984019094711
42
-0.4142135536441976
10
-11.0000250938416
20
79.999984227710897
10
-11.000024885225301
20
74.999984078699299
10
-11.0000248256207
20
69.999984004193493
10
-6.0000247660160797
20
69.999984063798095
10
-6.0000247064114411
20
64.999983989292303
10
-1.0000246319056301
20
64.99998404889692
10
-1.0000239762548302
20
9.9999833038388388
10
-6.0000240507606311
20
9.9999832442342491
10
-6.0000239911560103
20
4.9999840637981094
10
-11.000024065661799
20
4.9999839354188893
10
-11.000024006057201
20
-1.7038887795139919e-05
10
-31.000024304080402
20
-1.7277306289531502e-05
10
-31.000024363685004
20
4.9999836970004292
10
-56.000022799063103
20
4.9999828831678697
10
-56.000022739458508
20
-1.757532937074482e-05
10
-86.000042111525914
20
-1.7970041686909966e-05
10
-86.000042183491999
20
4.999982488455549
10
-111.00004061887
20
4.9999826444347297
10
-111.00004054690402
20
-1.8329871985800518e-05
10
-131.00004084492701
20
-1.8617736242676486e-05
10
-131.000040916893
20
4.9999823565704391
10
-136.00004099139903
20
4.9999823533789787
10
-136.00004106336499
20
9.9999815338151201
10
-141.00004113787099
20
9.9999814618490035
10
-141.000041929498
20
64.999982206907106
10
-136.00004185499199
20
64.999982278873205
10
-136.000041926958
20
69.999982353378996
10
-131.00004186735299
20
69.999982425344996
10
-131.00004193931903
20
74.999982499850802
10
-131.00004186227403
20
79.999982648862499
42
-0.41421355364419848
10
-126.00004193424
20
84.999982571816901
10
-116.00004178522802
20
84.999982715748985
42
-0.41421356237309037
0
LWPOLYLINE
5
101
100
AcDbEntity
8
0
100
AcDbPolyline
90
6
70
1
43
0.0
10
-101.66987665845701
20
33.4807496690484
10
-101.66988166756499
20
38.480749669045899
10
-106.00001119104
20
40.980745331029304
10
-110.33013570540501
20
38.480740993015203
10
-110.33013069629702
20
33.480740993017697
10
-106.000001172822
20
30.980745331034303
0
LWPOLYLINE
5
102
100
AcDbEntity
8
0
100
AcDbPolyline
90
6
70
1
43
0.0
10
-100.33013570540501
20
38.480740993015203
10
-100.33013069629702
20
33.480740993017697
10
-96.000001172822294
20
30.980745331034303
10
-91.669876658456701
20
33.4807496690484
10
-91.669881667565306
20
38.480749669045899
10
-96.000011191039718
20
40.980745331029304
0
LWPOLYLINE
5
103
100
AcDbEntity
8
0
100
AcDbPolyline
90
6
70
1
43
0.0
10
-111.00000182515402
20
39.640999368878099
10
-106.66987698462201
20
42.141003141957107
10
-106.66988134139901
20
47.141003141955203
10
-111.000010538708
20
49.640999368874297
10
-115.33013537924001
20
47.140995595795403
10
-115.33013102246301
20
42.1409955957973
0
LWPOLYLINE
5
104
100
AcDbEntity
8
0
100
AcDbPolyline
90
6
70
1
43
0.0
10
-101.00000182515402
20
39.640999368878099
10
-96.669876984621709
20
42.141003141957107
10
-96.669881341399119
20
47.141003141955203
10
-101.000010538708
20
49.640999368874297
10
-105.33013537924001
20
47.140995595795403
10
-105.33013102246301
20
42.1409955957973
0
LWPOLYLINE
5
105
100
AcDbEntity
8
0
100
AcDbPolyline
90
6
70
1
43
0.0
10
-101.00000177789802
20
22.320489230702499
10
-96.669878747168511
20
24.820496138442305
10
-96.669886723542916
20
29.8204961384359
10
-101.00001773064702
20
32.320489230689802
10
-105.33014076137601
20
29.820482322949999
10
-105.33013278500199
20
24.820482322956401
0
LWPOLYLINE
5
106
100
AcDbEntity
8
0
100
AcDbPolyline
90
6
70
1
43
0.0
10
-91.000001777897893
20
22.320489230702499
10
-86.669878747168511
20
24.820496138442305
10
-86.669886723542916
20
29.8204961384359
10
-91.000017730646903
20
32.320489230689802
10
-95.330140761376313
20
29.820482322949999
10
-95.330132785001794
20
24.820482322956401
0
LWPOLYLINE
5
107
100
AcDbEntity
8
0
100
AcDbPolyline
90
6
70
1
43
0.0
10
-85.330132785001908
20
24.820482322956401
10
-81.000001777897893
20
22.320489230702499
10
-76.669878747168497
20
24.820496138442305
10
-76.669886723543001
20
29.8204961384359
10
-81.000017730646903
20
32.320489230689802
10
-85.330140761376313
20
29.820482322949999
0
LWPOLYLINE
5
108
100
AcDbEntity
8
0
100
AcDbPolyline
90
4
70
1
43
0.0
10
-73.679503393839894
20
4.9999817076511892
10
-75.999999195638395
20
6.3397271171518588
10
-78.320516849795013
20
4.9999821585897495
10
-76.000000917597802
20
4.9999821862523888
0
LWPOLYLINE
5
109
100
AcDbEntity
8
0
100
AcDbPolyline
90
6
70
1
43
0.0
10
-108.75881476156302
20
15.2530308089231
10
-106.00000219085001
20
13.660235192857503
10
-101.669878953644
20
16.160241742970701
10
-101.66988651706602
20
21.160241742964999
10
-105.86243147411639
20
23.580800246517512
42
-0.1662276203291298
10
-108.34525522984211
20
16.910547161639592
42
0.22428300870973977
0
LWPOLYLINE
5
110
100
AcDbEntity
8
0
100
AcDbPolyline
90
6
70
1
43
0.0
10
-100.33014055490101
20
21.1602286427328
10
-100.330132991478
20
16.160228642738499
10
-96.000002190849813
20
13.660235192857503
10
-91.669878953643916
20
16.160241742970701
10
-91.669886517066516
20
21.160241742964999
10
-96.000017317695011
20
23.660235192845999
0
LWPOLYLINE
5
111
100
AcDbEntity
8
0
100
AcDbPolyline
90
6
70
1
43
0.0
10
-76.000002190849798
20
13.660235192857503
10
-71.669878953643902
20
16.160241742970701
10
-71.669886517066502
20
21.160241742964999
10
-76.000017317694997
20
23.660235192845999
10
-80.330140554900908
20
21.1602286427328
10
-80.330132991478393
20
16.160228642738499
0
LWPOLYLINE
5
112
100
AcDbEntity
8
0
100
AcDbPolyline
90
6
70
1
43
0.0
10
-121.00000182515402
20
39.640999368878099
10
-116.66987698462201
20
42.141003141957107
10
-116.66988134139901
20
47.141003141955203
10
-121.000010538708
20
49.640999368874297
10
-125.33013537924001
20
47.140995595795403
10
-125.33013102246301
20
42.1409955957973
0
LWPOLYLINE
5
113
100
AcDbEntity
8
0
100
AcDbPolyline
90
6
70
1
43
0.0
10
-131.00000182515399
20
39.640999368878099
10
-126.66987698462201
20
42.141003141957107
10
-126.66988134139901
20
47.141003141955203
10
-131.00001053870801
20
49.640999368874297
10
-135.33013537924001
20
47.140995595795403
10
-135.33013102246301
20
42.1409955957973
0
LWPOLYLINE
5
114
100
AcDbEntity
8
0
100
AcDbPolyline
90
6
70
1
43
0.0
10
-100.33013770869999
20
50.801257441460102
10
-96.000010840847011
20
48.301257179800501
10
-91.669883670855498
20
50.801256918140808
10
-91.669883368716995
20
55.801256918140808
10
-96.000010236569921
20
58.301257179800501
10
-100.33013740656101
20
55.801257441460102
0
LWPOLYLINE
5
115
100
AcDbEntity
8
0
100
AcDbPolyline
90
6
70
1
43
0.0
10
-126.00001023657001
20
58.301257179800501
10
-130.33013740656099
20
55.801257441460102
10
-130.33013770869999
20
50.801257441460102
10
-126.00001084084701
20
48.301257179800501
10
-121.66988367085601
20
50.801256918140808
10
-121.669883368717
20
55.801256918140808
0
LWPOLYLINE
5
116
100
AcDbEntity
8
0
100
AcDbPolyline
90
6
70
1
43
0.0
10
-116.00001023657001
20
58.301257179800501
10
-120.33013740656101
20
55.801257441460102
10
-120.33013770869999
20
50.801257441460102
10
-116.00001084084701
20
48.301257179800501
10
-111.66988367085601
20
50.801256918140808
10
-111.669883368717
20
55.801256918140808
0
LWPOLYLINE
5
117
100
AcDbEntity
8
0
100
AcDbPolyline
90
6
70
1
43
0.0
10
-106.00001023657001
20
58.301257179800501
10
-110.33013740656101
20
55.801257441460102
10
-110.33013770869999
20
50.801257441460102
10
-106.00001084084701
20
48.301257179800501
10
-101.66988367085601
20
50.801256918140808
10
-101.669883368717
20
55.801256918140808
0
LWPOLYLINE
5
118
100
AcDbEntity
8
0
100
AcDbPolyline
90
6
70
1
43
0.0
10
-116.66987840770501
20
59.46152007205071
10
-116.669888631886
20
64.461520072040315
10
-121.00002076289002
20
66.961511217634396
10
-125.330142669712
20
64.461502363239006
10
-125.33013244553102
20
59.461502363249501
10
-121.00000031452701
20
56.961511217655307
0
LWPOLYLINE
5
119
100
AcDbEntity
8
0
100
AcDbPolyline
90
9
70
1
43
0.0
10
-81.000000989437098
20
7.9999825232478896
10
-81.000000977516194
20
6.9999821266477191
42
0.22843633680801295
10
-80.245833718189317
20
5.4354052804487001
10
-76.6698832509732
20
7.4999802619222491
10
-76.669882219727299
20
12.499980261922101
10
-81.000008723026411
20
14.999981155007301
10
-85.330136257571496
20
12.499982048092599
10
-85.330136773194397
20
9.9999825197048295
10
-83.000000972014206
20
9.9999824994060287
42
-0.4142135563300095
0
LWPOLYLINE
5
120
100
AcDbEntity
8
0
100
AcDbPolyline
90
5
70
1
43
0.0
10
-111.66988166756499
20
38.480749669045899
10
-116.00001119104
20
40.980745331029304
10
-120.33013570540501
20
38.480740993015203
10
-120.33013153143209
20
34.314357369852431
42
-0.20591377085029922
10
-111.66987675386301
20
33.5759829625297
0
LWPOLYLINE
5
121
100
AcDbEntity
8
0
100
AcDbPolyline
90
5
70
1
43
0.0
10
-86.669882219727299
20
12.499980261922101
10
-91.000008723026411
20
14.999981155007301
10
-95.330136257571496
20
12.499982048092599
10
-95.330136773194397
20
9.9999826068193993
10
-86.669882735349816
20
9.9999825313759896
0
LWPOLYLINE
5
122
100
AcDbEntity
8
0
100
AcDbPolyline
90
3
70
1
43
0.0
10
-123.99999968707601
20
4.9999816140478783
42
-0.30666671327786371
10
-125.8569212314279
20
6.2571206131442203
10
-123.67950314677501
20
4.9999815650074595
0
LWPOLYLINE
5
123
100
AcDbEntity
8
0
100
AcDbPolyline
90
3
70
1
43
0.0
10
-106.669886723543
20
29.8204961384359
10
-108.26217424316732
20
30.739800379672751
42
-0.07193895955033075
10
-106.669883856067
20
28.023015185126205
0
LWPOLYLINE
5
124
100
AcDbEntity
8
0
100
AcDbPolyline
90
7
70
1
43
0.0
10
-121.669876946725
20
33.768494147239409
10
-121.66988166756499
20
38.480749669045899
10
-126.00001119104
20
40.980745331029304
10
-130.33013570540501
20
38.480740993015203
10
-130.33013143159801
20
34.214705013384261
42
-0.21438070319922872
10
-126.56733954264789
20
32.588364499716405
42
0.3982862349394436
10
-123.82447496381678
20
32.389766526560393
42
-0.058333379889306688
0
LWPOLYLINE
5
125
100
AcDbEntity
8
0
100
AcDbPolyline
90
7
70
1
43
0.0
10
-118.00000017881403
20
69.999982803160478
42
-0.41421356237311197
10
-116.00000015497203
20
67.999982827002412
10
-116.00000014305101
20
66.999982752496521
42
0.15639125773528087
10
-115.62713100746662
20
65.837036023444682
10
-116.00000323194101
20
65.621756401119399
10
-120.33013901631101
20
68.121741218857295
10
-120.33014560178201
20
69.999982775383003
0
LWPOLYLINE
5
126
100
AcDbEntity
8
0
100
AcDbPolyline
90
3
70
1
43
0.0
10
-116.14307773046701
20
6.2571210894096492
10
-118.32051767570502
20
4.9999816817525788
10
-117.99999938905201
20
4.9999816855734593
42
0.30666676637221046
0
LWPOLYLINE
5
127
100
AcDbEntity
8
0
100
AcDbPolyline
90
5
70
1
43
0.0
10
-131.669877190455
20
34.011781039341798
10
-131.66988166756499
20
38.480749669045899
10
-136.00000091192501
20
40.980739396393197
10
-136.00000117282201
20
30.980745331034303
10
-134.51490719652239
20
31.838166721756952
42
-0.1851537596942632
0
LWPOLYLINE
5
128
100
AcDbEntity
8
0
100
AcDbPolyline
90
12
70
1
43
0.0
10
-131.00000045299501
20
62.999982573682601
42
-0.41421356237308332
10
-129.00000047683699
20
64.999982597524479
10
-128.00000041723303
20
64.999982609445397
42
0.04342104432356253
10
-127.65459067676899
20
65.030035377989009
10
-126.669888631886
20
64.461520072040315
10
-126.66987840770501
20
59.46152007205071
10
-131.00000031452703
20
56.961511217655307
10
-135.33013244553101
20
59.461502363249501
10
-135.33013251106598
20
59.493551593964249
42
-0.18392852697254822
10
-134.00000049173801
20
59.999982463414064
10
-133.000000417232
20
59.99998247533501
42
0.41421356237308071
10
-131.00000044107406
20
61.999982499176802
0
LWPOLYLINE
5
129
100
AcDbEntity
8
0
100
AcDbPolyline
90
7
70
1
43
0.0
10
-126.372872973624
20
65.837031103720108
10
-126.00000323194101
20
65.621756401119399
10
-121.66988497852002
20
68.121771583350807
10
-121.66989156388502
20
69.999982759412006
10
-124.00000047683702
20
69.999982731634887
42
0.41421356237306511
10
-126.00000045299501
20
67.999982707793095
10
-126.00000044107425
20
66.999982633287303
42
-0.15639201195026267
0
LWPOLYLINE
5
130
100
AcDbEntity
8
0
100
AcDbPolyline
90
8
70
1
43
0.0
10
-114.345416853879
20
65.030036762895307
10
-115.330142669712
20
64.461502363239006
10
-115.33013244553102
20
59.461502363249501
10
-111.00000031452701
20
56.961511217655307
10
-106.66987840770501
20
59.46152007205071
10
-106.669888631886
20
64.461520072040315
10
-107.602537930092
20
64.999982852602102
10
-114.00000011920902
20
64.999982776338513
42
-0.043421933519630612
0
LWPOLYLINE
5
131
100
AcDbEntity
8
0
100
AcDbPolyline
90
8
70
1
43
0.0
10
-104.39747144147601
20
64.999982890809505
10
-105.330142669712
20
64.461502363239006
10
-105.33013244553102
20
59.461502363249501
10
-101.00000031452701
20
56.961511217655307
10
-96.669878407704715
20
59.46152007205071
10
-96.66987929049192
20
59.893235386574297
42
-0.25089382034089974
10
-99.77531118409243
20
63.448720079031432
42
0.34938330896826997
10
-101.72431992123101
20
64.999982922675898
0
LWPOLYLINE
5
132
100
AcDbEntity
8
0
100
AcDbPolyline
90
6
70
1
43
0.0
10
-131.669886517066
20
21.160241742964999
10
-136.00000005853499
20
23.660225228300003
10
-135.99999997913807
20
16.999981694514201
42
0.41421356237298057
10
-133.999999955297
20
14.999981718356
10
-133.67950123923899
20
14.999981722176601
10
-131.669878953644
20
16.160241742970701
0
LWPOLYLINE
5
133
100
AcDbEntity
8
0
100
AcDbPolyline
90
8
70
1
43
0.0
10
-131.00000872302601
20
14.999981155007301
10
-131.75417382171199
20
14.564563939662401
42
-0.22843746416339633
10
-130.99999985694899
20
12.999981754118801
10
-130.99999984502804
20
11.999982477398101
42
0.41421355834435841
10
-128.99999984869601
20
9.9999825012399803
10
-127.99999971917002
20
9.9999824994057018
42
-0.18392590618005958
10
-126.66988283979802
20
9.4935651310172489
10
-126.66988221972701
20
12.499980261922101
0
LWPOLYLINE
5
134
100
AcDbEntity
8
0
100
AcDbPolyline
90
4
70
1
43
0.0
10
-135.97898982715699
20
58.289121039073706
10
-136.00001084084704
20
48.301257179800501
10
-131.669883670856
20
50.801256918140808
10
-131.669883368717
20
55.801256918140808
0
LWPOLYLINE
5
135
100
AcDbEntity
8
0
100
AcDbPolyline
90
4
70
1
43
0.0
10
-58.500024322889708
20
78.559983214432506
10
-58.500024322889708
20
92.559983214432506
10
-72.500024322889701
20
92.559983214432506
10
-72.500024322889701
20
78.559983214432506
0
LWPOLYLINE
5
136
100
AcDbEntity
8
0
100
AcDbPolyline
90
6
70
1
43
0.0
10
-127.79292287541701
20
22.625097070326802
10
-130.33014055490099
20
21.1602286427328
10
-130.330132991478
20
16.160228642738499
10
-126.00000219085001
20
13.660235192857503
10
-123.49680534866917
20
15.105461612258777
42
-0.20171923035830017
10
-127.77022944764528
20
22.486183737035663
42
0.017599796393929161
0
LWPOLYLINE
5
137
100
AcDbEntity
8
0
100
AcDbPolyline
90
4
70
1
43
0.0
10
-82.500001117587104
20
34.999981530601296
42
-0.99999999999999989
10
-82.500001117587104
20
36.999981530601318
10
-59.500001117587104
20
36.999981530601303
42
-0.99999999999999989
10
-59.500001117587104
20
34.99998153060131
0
LWPOLYLINE
5
138
100
AcDbEntity
8
0
100
AcDbPolyline
90
3
70
1
43
0.0
10
-76.000001172822294
20
30.980745331034303
10
-72.502589574334806
20
32.999981530601303
10
-79.497428954627594
20
32.999981530601303
0
LWPOLYLINE
5
139
100
AcDbEntity
8
0
100
AcDbPolyline
90
5
70
1
43
0.0
10
-96.669882219727299
20
12.499980261922101
10
-101.00000872302601
20
14.999981155007301
10
-105.330136257571
20
12.499982048092599
10
-105.33013677319401
20
9.9999826068193993
10
-96.669882735349816
20
9.9999825313759896
0
LWPOLYLINE
5
140
100
AcDbEntity
8
0
100
AcDbPolyline
90
3
70
1
43
0.0
10
-33.737847327869403
20
30.739800379672999
10
-35.330134847493703
20
29.8204961384359
10
-35.330137714969936
20
28.02301518512617
42
-0.071938959550338785
0
LWPOLYLINE
5
141
100
AcDbEntity
8
0
100
AcDbPolyline
90
6
70
1
43
0.0
10
-36.669880809660299
20
29.820482322949999
10
-41.000003840389809
20
32.320489230689802
10
-45.33013484749371
20
29.8204961384359
10
-45.330142823868201
20
24.820496138442305
10
-41.000019793138797
20
22.320489230702499
10
-36.669888786034797
20
24.820482322956401
0
LWPOLYLINE
5
142
100
AcDbEntity
8
0
100
AcDbPolyline
90
4
70
1
43
0.0
10
-6.0210317438799299
20
58.289121039073706
10
-10.3301382023197
20
55.801256918140808
10
-10.330137900181199
20
50.801256918140808
10
-6.000010730189711
20
48.301257179800501
0
LWPOLYLINE
5
143
100
AcDbEntity
8
0
100
AcDbPolyline
90
6
70
1
43
0.0
10
-61.000019793138804
20
22.320489230702499
10
-56.669888786034797
20
24.820482322956401
10
-56.669880809660299
20
29.820482322949999
10
-61.000003840389809
20
32.320489230689802
10
-65.330134847493696
20
29.8204961384359
10
-65.330142823868201
20
24.820496138442305
0
LWPOLYLINE
5
144
100
AcDbEntity
8
0
100
AcDbPolyline
90
3
70
1
43
0.0
10
-62.502592616409103
20
32.999981530601303
10
-69.49743199670192
20
32.999981530601303
10
-66.000020398214303
20
30.980745331034303
0
LWPOLYLINE
5
145
100
AcDbEntity
8
0
100
AcDbPolyline
90
5
70
1
43
0.0
10
-55.33013883568691
20
9.9999825313759896
10
-46.6698847978423
20
9.9999826068193993
10
-46.669885313465201
20
12.499982048092599
10
-51.000012848010307
20
14.999981155007301
10
-55.330139351309398
20
12.499980261922101
0
LWPOLYLINE
5
146
100
AcDbEntity
8
0
100
AcDbPolyline
90
5
70
1
43
0.0
10
-7.4851143745142501
20
31.8381667217567
10
-6.0000203982143496
20
30.980745331034303
10
-6.0000206591119598
20
40.980739396393197
10
-10.3301399034713
20
38.480749669045899
10
-10.330144380581201
20
34.011781039341791
42
-0.18515375969424197
0
LWPOLYLINE
5
147
100
AcDbEntity
8
0
100
AcDbPolyline
90
3
70
1
43
0.0
10
-16.143100339608385
20
6.2571206131442123
42
-0.30666671327798167
10
-18.0000218839611
20
4.9999816140479494
10
-18.320518424261799
20
4.9999815650074595
0
LWPOLYLINE
5
148
100
AcDbEntity
8
0
100
AcDbPolyline
90
6
70
1
43
0.0
10
-16.0000107301897
20
48.301257179800501
10
-11.6698838623368
20
50.801257441460102
10
-11.669884164475302
20
55.801257441460102
10
-16.000011334466699
20
58.301257179800501
10
-20.330138202319699
20
55.801256918140808
10
-20.330137900181203
20
50.801256918140808
0
LWPOLYLINE
5
149
100
AcDbEntity
8
0
100
AcDbPolyline
90
5
70
1
43
0.0
10
-26.000010379997001
20
40.980745331029304
10
-30.330139903471299
20
38.480749669045899
10
-30.330144817173309
20
33.575982962529707
42
-0.20591377085028417
10
-21.669890039605001
20
34.314357369852203
10
-21.669885865631301
20
38.480740993015203
0
LWPOLYLINE
5
150
100
AcDbEntity
8
0
100
AcDbPolyline
90
6
70
1
43
0.0
10
-41.669883862336803
20
50.801257441460102
10
-41.669884164475299
20
55.801257441460102
10
-46.000011334466706
20
58.301257179800501
10
-50.330138202319709
20
55.801256918140808
10
-50.330137900181207
20
50.801256918140808
10
-46.0000107301897
20
48.301257179800501
0
LWPOLYLINE
5
151
100
AcDbEntity
8
0
100
AcDbPolyline
90
6
70
1
43
0.0
10
-41.669881016135697
20
21.1602286427328
10
-46.0000042533417
20
23.660235192845999
10
-50.33013505397021
20
21.160241742964999
10
-50.330142617392809
20
16.160241742970701
10
-46.000019380186899
20
13.660235192857503
10
-41.669888579558297
20
16.160228642738499
0
LWPOLYLINE
5
152
100
AcDbEntity
8
0
100
AcDbPolyline
90
6
70
1
43
0.0
10
-11.669881016135699
20
21.1602286427328
10
-14.207098695619999
20
22.625097070326802
42
0.017599796393920876
10
-14.22979212339165
20
22.486183737035709
42
-0.20171923035829348
10
-18.503216222367499
20
15.105461612259001
10
-16.000019380186899
20
13.660235192857503
10
-11.6698885795583
20
16.160228642738499
0
LWPOLYLINE
5
153
100
AcDbEntity
8
0
100
AcDbPolyline
90
6
70
1
43
0.0
10
-36.000020398214303
20
30.980745331034303
10
-31.669890874740002
20
33.480740993017697
10
-31.669885865631304
20
38.480740993015203
10
-36.000010379997001
20
40.980745331029304
10
-40.330139903471299
20
38.480749669045899
10
-40.330144912580003
20
33.4807496690484
0
LWPOLYLINE
5
154
100
AcDbEntity
8
0
100
AcDbPolyline
90
9
70
1
43
0.0
10
-65.330138320063398
20
7.4999802619222491
10
-61.754187852847409
20
5.4354052804487001
42
0.22843633680801473
10
-61.000020593520397
20
6.9999821266477191
10
-61.000020581599458
20
7.9999825232478896
42
-0.4142135563300095
10
-59.000020599022406
20
9.9999824994059807
10
-56.6698847978423
20
9.9999825197048295
10
-56.669885313465201
20
12.499982048092599
10
-61.000012848010307
20
14.999981155007301
10
-65.330139351309398
20
12.499980261922101
0
LWPOLYLINE
5
155
100
AcDbEntity
8
0
100
AcDbPolyline
90
6
70
1
43
0.0
10
-33.654766341194723
20
16.910547161639489
42
-0.22428300870972331
10
-33.241206809473965
20
15.253030808923111
10
-36.000019380186799
20
13.660235192857503
10
-40.330142617392809
20
16.160241742970701
10
-40.33013505397021
20
21.160241742964999
10
-36.137590096920498
20
23.580800246517502
42
0.16622762032913246
0
LWPOLYLINE
5
156
100
AcDbEntity
8
0
100
AcDbPolyline
90
6
70
1
43
0.0
10
-26.000011334466699
20
58.301257179800501
10
-30.330138202319699
20
55.801256918140808
10
-30.330137900181203
20
50.801256918140808
10
-26.0000107301897
20
48.301257179800501
10
-21.6698838623368
20
50.801257441460102
10
-21.669884164475302
20
55.801257441460102
0
LWPOLYLINE
5
157
100
AcDbEntity
8
0
100
AcDbPolyline
90
3
70
1
43
0.0
10
-24.000022181984303
20
4.9999816855734682
42
-0.30666676637221879
10
-25.856943840569286
20
6.2571210894096572
10
-23.6795038953315
20
4.9999816817525788
0
LWPOLYLINE
5
158
100
AcDbEntity
8
0
100
AcDbPolyline
90
5
70
1
43
0.0
10
-45.33013883568691
20
9.9999825313759896
10
-36.6698847978423
20
9.9999826068193993
10
-36.669885313465201
20
12.499982048092599
10
-41.000012848010307
20
14.999981155007301
10
-45.330139351309398
20
12.499980261922101
0
LWPOLYLINE
5
159
100
AcDbEntity
8
0
100
AcDbPolyline
90
8
70
1
43
0.0
10
-37.602550129560697
20
64.999982890809505
10
-40.275701649806201
20
64.999982922675898
42
0.34938330896822722
10
-42.224710386944551
20
63.448720079031524
42
-0.25089382034089691
10
-45.330142280544798
20
59.893235386574602
10
-45.330143163332004
20
59.46152007205071
10
-41.000021256509399
20
56.961511217655307
10
-36.669889125505705
20
59.461502363249501
10
-36.669878901324502
20
64.461502363239006
0
LWPOLYLINE
5
160
100
AcDbEntity
8
0
100
AcDbPolyline
90
6
70
1
43
0.0
10
-31.6698838623368
20
50.801257441460102
10
-31.669884164475302
20
55.801257441460102
10
-36.000011334466699
20
58.301257179800501
10
-40.330138202319709
20
55.801256918140808
10
-40.330137900181199
20
50.801256918140808
10
-36.0000107301897
20
48.301257179800501
0
LWPOLYLINE
5
161
100
AcDbEntity
8
0
100
AcDbPolyline
90
6
70
1
43
0.0
10
-31.000019745883101
20
39.640999368878099
10
-26.6698905485738
20
42.1409955957973
10
-26.6698861917965
20
47.140995595795403
10
-31.000011032328302
20
49.640999368874297
10
-35.330140229637607
20
47.141003141955203
10
-35.330144586415003
20
42.141003141957107
0
LWPOLYLINE
5
162
100
AcDbEntity
8
0
100
AcDbPolyline
90
7
70
1
43
0.0
10
-15.432682028389198
20
32.588364499716398
42
-0.39828623493945586
10
-18.175546607220113
20
32.389766526560784
42
0.05833337988928905
10
-20.330144624311295
20
33.768494147239423
10
-20.330139903471299
20
38.480749669045899
10
-16.000010379997001
20
40.980745331029304
10
-11.669885865631302
20
38.480740993015203
10
-11.669890139438902
20
34.214705013384197
42
0.21438070319923888
0
LWPOLYLINE
5
163
100
AcDbEntity
8
0
100
AcDbPolyline
90
6
70
1
43
0.0
10
-11.000019745883101
20
39.640999368878099
10
-6.6698905485738402
20
42.1409955957973
10
-6.6698861917964605
20
47.140995595795403
10
-11.000011032328301
20
49.640999368874297
10
-15.330140229637601
20
47.141003141955203
10
-15.330144586415003
20
42.141003141957107
0
LWPOLYLINE
5
164
100
AcDbEntity
8
0
100
AcDbPolyline
90
4
70
1
43
0.0
10
-66.000022375398302
20
6.3397271171518588
10
-68.320518177196803
20
4.9999817076511892
10
-66.000020653438895
20
4.9999821862523888
10
-63.679504721241706
20
4.9999821585897495
0
LWPOLYLINE
5
165
100
AcDbEntity
8
0
100
AcDbPolyline
90
8
70
1
43
0.0
10
-28.000021451827305
20
64.999982776338399
10
-34.3974836409445
20
64.999982852602102
10
-35.330132939150801
20
64.461520072040315
10
-35.330143163331996
20
59.46152007205071
10
-31.000021256509402
20
56.961511217655307
10
-26.669889125505701
20
59.461502363249501
10
-26.669878901324502
20
64.461502363239006
10
-27.654604717157309
20
65.030036762895236
42
-0.043421933519629835
0
LWPOLYLINE
5
166
100
AcDbEntity
8
0
100
AcDbPolyline
90
7
70
1
43
0.0
10
-18.0000210941995
20
69.999982731634859
42
-0.41421356237309631
10
-16.000021118041342
20
67.999982707793095
10
-16.000021129962299
20
66.999982633287303
42
0.15639201195024055
10
-15.627148597412594
20
65.837031103720108
10
-16.000018339095405
20
65.621756401119399
10
-20.330136592516702
20
68.121771583350807
10
-20.330130007152004
20
69.999982759412006
0
LWPOLYLINE
5
167
100
AcDbEntity
8
0
100
AcDbPolyline
90
6
70
1
43
0.0
10
-41.000019745883101
20
39.640999368878099
10
-36.669890548573804
20
42.1409955957973
10
-36.6698861917965
20
47.140995595795403
10
-41.000011032328302
20
49.640999368874297
10
-45.330140229637607
20
47.141003141955203
10
-45.330144586415003
20
42.141003141957107
0
LWPOLYLINE
5
168
100
AcDbEntity
8
0
100
AcDbPolyline
90
8
70
1
43
0.0
10
-14.000021851866201
20
9.9999824994059399
10
-13.000021722340803
20
9.9999825012400283
42
0.41421355834436363
10
-11.0000217260088
20
11.999982477398101
10
-11.000021714087872
20
12.999981754118801
42
-0.22843746416339178
10
-10.245847749324902
20
14.564563939662401
10
-11.0000128480103
20
14.999981155007301
10
-15.330139351309402
20
12.499980261922101
10
-15.330138731238673
20
9.4935651310172204
42
-0.18392590618011029
0
LWPOLYLINE
5
169
100
AcDbEntity
8
0
100
AcDbPolyline
90
6
70
1
43
0.0
10
-21.000000808147
20
66.961511217634396
10
-25.330132939150801
20
64.461520072040315
10
-25.330143163332004
20
59.46152007205071
10
-21.000021256509399
20
56.961511217655307
10
-16.669889125505701
20
59.461502363249501
10
-16.669878901324498
20
64.461502363239006
0
LWPOLYLINE
5
170
100
AcDbEntity
8
0
100
AcDbPolyline
90
6
70
1
43
0.0
10
-10.330142617392802
20
16.160241742970701
10
-8.3205203317975993
20
14.999981722176601
10
-8.0000216157401702
20
14.999981718356011
42
0.41421356237310542
10
-6.0000215918983102
20
16.999981694514201
10
-6.0000215125019807
20
23.660225228300003
10
-10.330135053970199
20
21.160241742964999
0
LWPOLYLINE
5
171
100
AcDbEntity
8
0
100
AcDbPolyline
90
7
70
1
43
0.0
10
-26.000021416064591
20
67.999982827002412
42
-0.41421356237308138
10
-24.000021392222802
20
69.999982803160492
10
-21.669875969254399
20
69.999982775383003
10
-21.6698825547256
20
68.121741218857295
10
-26.000018339095405
20
65.621756401119399
10
-26.372890563570103
20
65.837036023444398
42
0.15639125773532533
10
-26.000021427985516
20
66.999982752496521
0
LWPOLYLINE
5
172
100
AcDbEntity
8
0
100
AcDbPolyline
90
6
70
1
43
0.0
10
-71.00001207793845
20
14.999980440171878
10
-75.330136257571496
20
12.499982048092599
10
-75.330137288817497
20
7.4999820480926793
10
-71.000010785518299
20
4.9999811550074993
10
-66.669884282219201
20
7.4999820480926793
10
-66.669885313465201
20
12.499982048092599
0
LWPOLYLINE
5
173
100
AcDbEntity
8
0
100
AcDbPolyline
90
6
70
1
43
0.0
10
-61.669888579558297
20
16.160228642738499
10
-61.669881016135697
20
21.1602286427328
10
-66.0000042533417
20
23.660235192845999
10
-70.330135053970196
20
21.160241742964999
10
-70.330142617392795
20
16.160241742970701
10
-66.000019380186899
20
13.660235192857503
0
LWPOLYLINE
5
174
100
AcDbEntity
8
0
100
AcDbPolyline
90
12
70
1
43
0.0
10
-11.000021129962301
20
61.999982499176802
10
-11.000021118041399
20
62.999982573682601
42
0.4142135623730947
10
-13.0000210941995
20
64.999982597524493
10
-14.000021153804198
20
64.999982609445439
42
-0.04342104432349831
10
-14.3454308942677
20
65.030035377989094
10
-15.330132939150802
20
64.461520072040315
10
-15.330143163332002
20
59.46152007205071
10
-11.000021256509401
20
56.961511217655307
10
-6.6698891255057005
20
59.461502363249501
10
-6.6698890599702745
20
59.493551593964291
42
0.18392852697256043
10
-8.0000210792983495
20
59.999982463414
10
-9.0000211538041892
20
59.999982475334917
42
-0.41421356237309925
0
LWPOLYLINE
5
175
100
AcDbEntity
8
0
100
AcDbPolyline
90
4
70
1
43
0.0
10
-116.00006637751001
20
74.9999828355365
10
-116.00006650908099
20
79.999981747173393
10
-126.00006650908099
20
79.999981484032006
10
-126.00006637751001
20
74.999982572395098
0
LWPOLYLINE
5
176
100
AcDbEntity
8
0
100
AcDbPolyline
90
7
70
1
43
0.0
10
-25.330139203588452
20
11.783754638937822
42
-0.26359977466423551
10
-23.751183645743804
20
12.964792441691245
42
0.096442490164346931
10
-19.758968386179031
20
14.283464142178552
10
-16.669885313465201
20
12.499982048092599
10
-16.669884282219201
20
7.4999820480926793
10
-21.000010785518302
20
4.9999811550074993
10
-25.330138320063401
20
7.4999802619222491
0
LWPOLYLINE
5
177
100
AcDbEntity
8
0
100
AcDbPolyline
90
6
70
1
43
0.0
10
-46.669888786034797
20
24.820482322956401
10
-46.669880809660299
20
29.820482322949999
10
-51.000003840389809
20
32.320489230689802
10
-55.33013484749371
20
29.8204961384359
10
-55.330142823868201
20
24.820496138442305
10
-51.000019793138804
20
22.320489230702499
0
LWPOLYLINE
5
178
100
AcDbEntity
8
0
100
AcDbPolyline
90
6
70
1
43
0.0
10
-21.000019745883101
20
39.640999368878099
10
-16.6698905485738
20
42.1409955957973
10
-16.6698861917965
20
47.140995595795403
10
-21.000011032328302
20
49.640999368874297
10
-25.330140229637603
20
47.141003141955203
10
-25.330144586414999
20
42.141003141957107
0
LWPOLYLINE
5
179
100
AcDbEntity
8
0
100
AcDbPolyline
90
6
70
1
43
0.0
10
-56.0000042533417
20
23.660235192845999
10
-60.33013505397021
20
21.160241742964999
10
-60.330142617392809
20
16.160241742970701
10
-56.000019380186799
20
13.660235192857503
10
-51.669888579558297
20
16.160228642738499
10
-51.669881016135697
20
21.1602286427328
0
LWPOLYLINE
5
180
100
AcDbEntity
8
0
100
AcDbPolyline
90
6
70
1
43
0.0
10
-50.33014491258001
20
33.4807496690484
10
-46.000020398214303
20
30.980745331034303
10
-41.669890874739998
20
33.480740993017697
10
-41.669885865631301
20
38.480740993015203
10
-46.000010379997001
20
40.980745331029304
10
-50.330139903471299
20
38.480749669045899
0
LWPOLYLINE
5
181
100
AcDbEntity
8
0
100
AcDbPolyline
90
6
70
1
43
0.0
10
-75.330134847493696
20
29.8204961384359
10
-75.330142823868201
20
24.820496138442305
10
-71.000019793138804
20
22.320489230702499
10
-66.669888786034804
20
24.820482322956401
10
-66.669880809660299
20
29.820482322949999
10
-71.000003840389795
20
32.320489230689802
0
LWPOLYLINE
5
182
100
AcDbEntity
8
0
100
AcDbPolyline
90
6
70
1
43
0.0
10
-134.08725113680299
20
25.999976018143801
10
-135.33013466661501
20
25.9999740354029
10
-135.33013278500201
20
24.820482322956401
10
-131.00000177789804
20
22.320489230702499
10
-128.48032756337497
20
23.775229176163229
42
0.19298456453005428
10
-129.89817124977503
20
24.228197209857871
42
-0.24058082511833895
0
LWPOLYLINE
5
183
100
AcDbEntity
8
0
100
AcDbPolyline
90
6
70
1
43
0.0
10
-13.519694007662007
20
23.775229176163201
42
-0.192984564530155
10
-12.101850321261203
20
24.228197209857619
42
0.24058109013506029
10
-7.9127672123387471
20
25.999979855187707
10
-6.6698869044152111
20
25.9999778724519
10
-6.6698887860348499
20
24.820482322956401
10
-11.000019793138803
20
22.320489230702499
0
LWPOLYLINE
5
184
100
AcDbEntity
8
0
100
AcDbPolyline
90
8
70
1
43
0.0
10
-122.71998587371004
20
14.006952357051855
42
-0.25182371323966768
10
-121.77319175393193
20
14.035563566872998
42
0.084309252348743355
10
-118.248837925293
20
12.964792441691245
42
-0.26359977466422613
10
-116.66988236744858
20
11.783754638937546
10
-116.669883250973
20
7.4999802619222491
10
-121.000010785518
20
4.9999811550074993
10
-125.330137288817
20
7.4999820480926793
10
-125.330136257571
20
12.499982048092599
0
LWPOLYLINE
5
185
100
AcDbEntity
8
0
100
AcDbPolyline
90
4
70
1
43
0.0
10
-26.0000004470348
20
74.999984019673505
10
-16.0000004470348
20
74.999984019673505
10
-16.0000004470348
20
79.999982931310498
10
-26.0000004470348
20
79.999982931310498
0
LWPOLYLINE
5
186
100
AcDbEntity
8
0
100
AcDbPolyline
90
9
70
1
43
0.0
10
-51.669885865631301
20
38.480740993015203
10
-52.569237048574408
20
38.999982841903503
10
-58.500020453449608
20
38.99998153060131
42
-0.41421356237309503
10
-56.500020453449608
20
36.999981530601303
10
-56.500020453449608
20
34.999981530601303
42
-0.41421356237309503
10
-58.500020453449608
20
32.999981530601303
10
-59.497431996701906
20
32.999981530601303
10
-56.000020398214303
20
30.980745331034303
10
-51.669890874740005
20
33.480740993017697
0
LWPOLYLINE
5
187
100
AcDbEntity
8
0
100
AcDbPolyline
90
6
70
1
43
0.0
10
-51.00001103232831
20
49.640999368874297
10
-52.000001117587104
20
49.063655985758402
10
-52.000001117587104
20
40.218340044802297
10
-51.000019745883101
20
39.640999368878099
10
-46.669890548573804
20
42.1409955957973
10
-46.669886191796508
20
47.140995595795403
0
LWPOLYLINE
5
188
100
AcDbEntity
8
0
100
AcDbPolyline
90
6
70
1
43
0.0
10
-52.000001117587125
20
63.56421173919091
42
-0.014926663502669265
10
-51.969753980174225
20
63.448720195201503
42
0.37357251700237182
10
-46.66988886508291
20
59.588858673238114
10
-46.669889125505705
20
59.461502363249501
10
-51.000021256509399
20
56.961511217655307
10
-52.000001117587104
20
57.538852586029407
0
LWPOLYLINE
5
189
100
AcDbEntity
8
0
100
AcDbPolyline
90
6
70
1
43
0.0
10
-91.000010538708395
20
49.640999368874297
10
-95.330135379240204
20
47.140995595795403
10
-95.330131022462893
20
42.1409955957973
10
-91.000001825153603
20
39.640999368878099
10
-90.000001117587104
20
40.218351208390104
10
-90.000001117587104
20
49.063644822215508
0
LWPOLYLINE
5
190
100
AcDbEntity
8
0
100
AcDbPolyline
90
6
70
1
43
0.0
10
-95.330132705953815
20
59.588858673238107
10
-95.330132445531021
20
59.461502363249501
10
-91.000000314527298
20
56.961511217655307
10
-90.000001117587104
20
57.538863749647504
10
-90.00000111758709
20
63.564277490126102
42
0.014935232301042408
10
-90.030267590862465
20
63.448720195201496
42
-0.37357251700237282
0
LWPOLYLINE
5
191
100
AcDbEntity
8
0
100
AcDbPolyline
90
9
70
1
43
0.0
10
-85.50000111758709
20
36.999981530601303
42
-0.41421356237309503
10
-83.500001117587104
20
38.999981530601296
10
-89.430784696444704
20
38.999982741454502
10
-90.330135705405397
20
38.480740993015203
10
-90.33013069629672
20
33.480740993017697
10
-86.000001172822294
20
30.980745331034303
10
-82.502589574334806
20
32.999981530601303
10
-83.500001117587104
20
32.999981530601296
42
-0.41421356237309503
10
-85.500001117587118
20
34.999981530601303
0
LWPOLYLINE
5
192
100
AcDbEntity
8
0
100
AcDbPolyline
90
12
70
1
43
0.0
10
-80.364877063152278
20
70.124982841903488
42
-0.30561468458070007
10
-77.583802630491405
20
71.999982841903503
10
-62.000001117587104
20
71.999982841903503
42
-0.41421356237309503
10
-57.000001117587104
20
66.999982841903503
10
-57.000001117587104
20
51.416181328999208
42
-0.30561468458070029
10
-58.875001117587111
20
48.635106896338328
42
0.2032313571302706
10
-61.635125172021922
20
45.874982841903517
42
-0.30561468458070018
10
-64.416199604682802
20
43.999982841903496
10
-80.000001117587104
20
43.999982841903488
42
-0.41421356237309503
10
-85.000001117587118
20
48.999982841903503
10
-85.000001117587118
20
64.583784354807804
42
-0.30561468458069913
10
-83.125001117587104
20
67.364858787468705
42
0.20323135713027071
0
LWPOLYLINE
5
193
100
AcDbEntity
8
0
100
AcDbPolyline
90
6
70
1
43
0.0
10
-86.000002190849813
20
13.660235192857503
10
-81.669878953643916
20
16.160241742970701
10
-81.669886517066516
20
21.160241742964999
10
-86.000017317695011
20
23.660235192845999
10
-90.330140554900908
20
21.1602286427328
10
-90.330132991478393
20
16.160228642738499
0
CIRCLE
5
194
100
AcDbEntity
8
0
100
AcDbCircle
10
-111.519798113888
20
10.476894011059501
30
-2.7755575615628914e-15
40
1.5000000000000002
210
0
220
0
230
1
0
CIRCLE
5
195
100
AcDbEntity
8
0
100
AcDbCircle
10
-25.141567099453901
20
23.876567450902805
30
-6.106226635438361e-15
40
6.0000000000000098
210
0
220
-2.4651903288156619e-32
230
1
0
CIRCLE
5
196
100
AcDbEntity
8
0
100
AcDbCircle
10
-47.097232170185997
20
64.570562969920502
30
-4.4408920985006262e-15
40
1.49999999999999
210
0
220
0
230
1
0
CIRCLE
5
197
100
AcDbEntity
8
0
100
AcDbCircle
10
-30.480225769429303
20
10.4768949771262
30
-2.7755575615628914e-15
40
1.5000000000000002
210
0
220
0
230
1
0
CIRCLE
5
198
100
AcDbEntity
8
0
100
AcDbCircle
10
-11.741893532327101
20
29.2152234891247
30
-7.2164496600635175e-15
40
1.5000000000000002
210
0
220
0
230
1
0
CIRCLE
5
199
100
AcDbEntity
8
0
100
AcDbCircle
10
-81.000003501772895
20
87.999983214432518
30
5.5511151231257827e-16
40
4.5599999999999996
210
0
220
0
230
1
0
CIRCLE
5
200
100
AcDbEntity
8
0
100
AcDbCircle
10
-130.25812803871
20
29.2152234891247
30
-7.2164496600635175e-15
40
1.5000000000000002
210
0
220
0
230
1
0
CIRCLE
5
201
100
AcDbEntity
8
0
100
AcDbCircle
10
-85.000001117587104
20
71.999982841903503
30
-6.106226635438361e-15
40
0.999999999999996
210
0
220
-2.4651903288156619e-32
230
1
0
CIRCLE
5
202
100
AcDbEntity
8
0
100
AcDbCircle
10
-57.000001117587104
20
43.999982841903503
30
0
40
0.999999999999996
210
0
220
-2.4651903288156619e-32
230
1
0
CIRCLE
5
203
100
AcDbEntity
8
0
100
AcDbCircle
10
-94.902789400850693
20
64.570562969920502
30
-4.4408920985006262e-15
40
1.49999999999999
210
0
220
0
230
1
0
CIRCLE
5
204
100
AcDbEntity
8
0
100
AcDbCircle
10
-116.858454471583
20
23.876567450902805
30
-6.106226635438361e-15
40
6.0000000000000098
210
0
220
-2.4651903288156619e-32
230
1
0
LWPOLYLINE
5
205
100
AcDbEntity
8
0
100
AcDbPolyline
90
44
70
1
43
0.0
10
-111.00004171326199
20
79.999982787715112
10
-111.00004156932999
20
69.999982713209306
10
-88.5000426689882
20
69.999983037056595
10
-88.500042951443419
20
89.999983066065113
42
-0.4142135626559364
10
-83.500043027937807
20
94.999983125969919
10
-58.500024322889708
20
94.999983454896892
42
-0.4142135626559359
10
-53.500024267813409
20
89.999983526562801
10
-53.500024023985908
20
69.999983497554197
10
-31.000025123643905
20
69.999983765774999
10
-31.000025242853194
20
79.999983840280805
42
-0.41421356237309453
10
-26.0000253024578
20
84.999983899885393
10
-16.000025153446199
20
84.999984019094711
42
-0.4142135536441976
10
-11.0000250938416
20
79.999984227710897
10
-11.000024885225301
20
74.999984078699299
10
-11.0000248256207
20
69.999984004193493
10
-6.0000247660160797
20
69.999984063798095
10
-6.0000247064114411
20
64.999983989292303
10
-1.0000246319056301
20
64.99998404889692
10
-1.0000239762548302
20
9.9999833038388388
10
-6.0000240507606311
20
9.9999832442342491
10
-6.0000239911560103
20
4.9999840637981094
10
-11.000024065661799
20
4.9999839354188893
10
-11.000024006057201
20
-1.7038887795139919e-05
10
-31.000024304080402
20
-1.7277306289531502e-05
10
-31.000024363685004
20
4.9999836970004292
10
-56.000022799063103
20
4.9999828831678697
10
-56.000022739458508
20
-1.757532937074482e-05
10
-86.000042111525914
20
-1.7970041686909966e-05
10
-86.000042183491999
20
4.999982488455549
10
-111.00004061887
20
4.9999826444347297
10
-111.00004054690402
20
-1.8329871985800518e-05
10
-131.00004084492701
20
-1.8617736242676486e-05
10
-131.000040916893
20
4.9999823565704391
10
-136.00004099139903
20
4.9999823533789787
10
-136.00004106336499
20
9.9999815338151201
10
-141.00004113787099
20
9.9999814618490035
10
-141.000041929498
20
64.999982206907106
10
-136.00004185499199
20
64.999982278873205
10
-136.000041926958
20
69.999982353378996
10
-131.00004186735299
20
69.999982425344996
10
-131.00004193931903
20
74.999982499850802
10
-131.00004186227403
20
79.999982648862499
42
-0.41421355364419848
10
-126.00004193424
20
84.999982571816901
10
-116.00004178522802
20
84.999982715748985
42
-0.41421356237309037
0
CIRCLE
5
206
100
AcDbEntity
8
0
100
AcDbCircle
10
-111.519798113888
20
10.476894011059501
30
0
40
1.5000000000000002
210
0
220
-2.4651903288156619e-32
230
1
0
LWPOLYLINE
5
207
100
AcDbEntity
8
0
100
AcDbPolyline
90
6
70
1
43
0.0
10
-101.66987665845701
20
33.4807496690484
10
-101.66988166756499
20
38.480749669045899
10
-106.00001119104
20
40.980745331029304
10
-110.33013570540501
20
38.480740993015203
10
-110.33013069629702
20
33.480740993017697
10
-106.000001172822
20
30.980745331034303
0
LWPOLYLINE
5
208
100
AcDbEntity
8
0
100
AcDbPolyline
90
6
70
1
43
0.0
10
-100.33013570540501
20
38.480740993015203
10
-100.33013069629702
20
33.480740993017697
10
-96.000001172822294
20
30.980745331034303
10
-91.669876658456701
20
33.4807496690484
10
-91.669881667565306
20
38.480749669045899
10
-96.000011191039718
20
40.980745331029304
0
LWPOLYLINE
5
209
100
AcDbEntity
8
0
100
AcDbPolyline
90
6
70
1
43
0.0
10
-111.00000182515402
20
39.640999368878099
10
-106.66987698462201
20
42.141003141957107
10
-106.66988134139901
20
47.141003141955203
10
-111.000010538708
20
49.640999368874297
10
-115.33013537924001
20
47.140995595795403
10
-115.33013102246301
20
42.1409955957973
0
LWPOLYLINE
5
210
100
AcDbEntity
8
0
100
AcDbPolyline
90
6
70
1
43
0.0
10
-101.00000182515402
20
39.640999368878099
10
-96.669876984621709
20
42.141003141957107
10
-96.669881341399119
20
47.141003141955203
10
-101.000010538708
20
49.640999368874297
10
-105.33013537924001
20
47.140995595795403
10
-105.33013102246301
20
42.1409955957973
0
LWPOLYLINE
5
211
100
AcDbEntity
8
0
100
AcDbPolyline
90
6
70
1
43
0.0
10
-101.00000177789802
20
22.320489230702499
10
-96.669878747168511
20
24.820496138442305
10
-96.669886723542916
20
29.8204961384359
10
-101.00001773064702
20
32.320489230689802
10
-105.33014076137601
20
29.820482322949999
10
-105.33013278500199
20
24.820482322956401
0
LWPOLYLINE
5
212
100
AcDbEntity
8
0
100
AcDbPolyline
90
6
70
1
43
0.0
10
-91.000001777897893
20
22.320489230702499
10
-86.669878747168511
20
24.820496138442305
10
-86.669886723542916
20
29.8204961384359
10
-91.000017730646903
20
32.320489230689802
10
-95.330140761376313
20
29.820482322949999
10
-95.330132785001794
20
24.820482322956401
0
LWPOLYLINE
5
213
100
AcDbEntity
8
0
100
AcDbPolyline
90
6
70
1
43
0.0
10
-85.330132785001908
20
24.820482322956401
10
-81.000001777897893
20
22.320489230702499
10
-76.669878747168497
20
24.820496138442305
10
-76.669886723543001
20
29.8204961384359
10
-81.000017730646903
20
32.320489230689802
10
-85.330140761376313
20
29.820482322949999
0
LWPOLYLINE
5
214
100
AcDbEntity
8
0
100
AcDbPolyline
90
4
70
1
43
0.0
10
-73.679503393839894
20
4.9999817076511892
10
-75.999999195638395
20
6.3397271171518588
10
-78.320516849795013
20
4.9999821585897495
10
-76.000000917597802
20
4.9999821862523888
0
LWPOLYLINE
5
215
100
AcDbEntity
8
0
100
AcDbPolyline
90
6
70
1
43
0.0
10
-108.75881476156302
20
15.2530308089231
10
-106.00000219085001
20
13.660235192857503
10
-101.669878953644
20
16.160241742970701
10
-101.66988651706602
20
21.160241742964999
10
-105.86243147411639
20
23.580800246517512
42
-0.16622762032912991
10
-108.34525522984211
20
16.910547161639588
42
0.22428300870974996
0
LWPOLYLINE
5
216
100
AcDbEntity
8
0
100
AcDbPolyline
90
6
70
1
43
0.0
10
-100.33014055490101
20
21.1602286427328
10
-100.330132991478
20
16.160228642738499
10
-96.000002190849813
20
13.660235192857503
10
-91.669878953643916
20
16.160241742970701
10
-91.669886517066516
20
21.160241742964999
10
-96.000017317695011
20
23.660235192845999
0
LWPOLYLINE
5
217
100
AcDbEntity
8
0
100
AcDbPolyline
90
6
70
1
43
0.0
10
-76.000002190849798
20
13.660235192857503
10
-71.669878953643902
20
16.160241742970701
10
-71.669886517066502
20
21.160241742964999
10
-76.000017317694997
20
23.660235192845999
10
-80.330140554900908
20
21.1602286427328
10
-80.330132991478393
20
16.160228642738499
0
LWPOLYLINE
5
218
100
AcDbEntity
8
0
100
AcDbPolyline
90
6
70
1
43
0.0
10
-121.00000182515402
20
39.640999368878099
10
-116.66987698462201
20
42.141003141957107
10
-116.66988134139901
20
47.141003141955203
10
-121.000010538708
20
49.640999368874297
10
-125.33013537924001
20
47.140995595795403
10
-125.33013102246301
20
42.1409955957973
0
LWPOLYLINE
5
219
100
AcDbEntity
8
0
100
AcDbPolyline
90
6
70
1
43
0.0
10
-131.00000182515399
20
39.640999368878099
10
-126.66987698462201
20
42.141003141957107
10
-126.66988134139901
20
47.141003141955203
10
-131.00001053870801
20
49.640999368874297
10
-135.33013537924001
20
47.140995595795403
10
-135.33013102246301
20
42.1409955957973
0
LWPOLYLINE
5
220
100
AcDbEntity
8
0
100
AcDbPolyline
90
6
70
1
43
0.0
10
-100.33013770869999
20
50.801257441460102
10
-96.000010840847011
20
48.301257179800501
10
-91.669883670855498
20
50.801256918140808
10
-91.669883368716995
20
55.801256918140808
10
-96.000010236569921
20
58.301257179800501
10
-100.33013740656101
20
55.801257441460102
0
LWPOLYLINE
5
221
100
AcDbEntity
8
0
100
AcDbPolyline
90
6
70
1
43
0.0
10
-126.00001023657001
20
58.301257179800501
10
-130.33013740656099
20
55.801257441460102
10
-130.33013770869999
20
50.801257441460102
10
-126.00001084084701
20
48.301257179800501
10
-121.66988367085601
20
50.801256918140808
10
-121.669883368717
20
55.801256918140808
0
LWPOLYLINE
5
222
100
AcDbEntity
8
0
100
AcDbPolyline
90
6
70
1
43
0.0
10
-116.00001023657001
20
58.301257179800501
10
-120.33013740656101
20
55.801257441460102
10
-120.33013770869999
20
50.801257441460102
10
-116.00001084084701
20
48.301257179800501
10
-111.66988367085601
20
50.801256918140808
10
-111.669883368717
20
55.801256918140808
0
LWPOLYLINE
5
223
100
AcDbEntity
8
0
100
AcDbPolyline
90
6
70
1
43
0.0
10
-106.00001023657001
20
58.301257179800501
10
-110.33013740656101
20
55.801257441460102
10
-110.33013770869999
20
50.801257441460102
10
-106.00001084084701
20
48.301257179800501
10
-101.66988367085601
20
50.801256918140808
10
-101.669883368717
20
55.801256918140808
0
LWPOLYLINE
5
224
100
AcDbEntity
8
0
100
AcDbPolyline
90
6
70
1
43
0.0
10
-116.66987840770501
20
59.46152007205071
10
-116.669888631886
20
64.461520072040315
10
-121.00002076289002
20
66.961511217634396
10
-125.330142669712
20
64.461502363239006
10
-125.33013244553102
20
59.461502363249501
10
-121.00000031452701
20
56.961511217655307
0
LWPOLYLINE
5
225
100
AcDbEntity
8
0
100
AcDbPolyline
90
9
70
1
43
0.0
10
-81.000000989437098
20
7.9999825232478896
10
-81.000000977516194
20
6.9999821266477191
42
0.22843633680801478
10
-80.245833718189317
20
5.4354052804487001
10
-76.6698832509732
20
7.49998026192225
10
-76.669882219727299
20
12.499980261922101
10
-81.000008723026411
20
14.999981155007301
10
-85.330136257571496
20
12.499982048092599
10
-85.330136773194397
20
9.9999825197048295
10
-83.000000972014206
20
9.9999824994060287
42
-0.4142135563300095
0
LWPOLYLINE
5
226
100
AcDbEntity
8
0
100
AcDbPolyline
90
5
70
1
43
0.0
10
-111.66988166756499
20
38.480749669045899
10
-116.00001119104
20
40.980745331029304
10
-120.33013570540501
20
38.480740993015203
10
-120.33013153143209
20
34.314357369852431
42
-0.20591377085029922
10
-111.66987675386301
20
33.5759829625297
0
LWPOLYLINE
5
227
100
AcDbEntity
8
0
100
AcDbPolyline
90
5
70
1
43
0.0
10
-86.669882219727299
20
12.499980261922101
10
-91.000008723026411
20
14.999981155007301
10
-95.330136257571496
20
12.499982048092599
10
-95.330136773194397
20
9.9999826068193993
10
-86.669882735349816
20
9.9999825313759914
0
LWPOLYLINE
5
228
100
AcDbEntity
8
0
100
AcDbPolyline
90
3
70
1
43
0.0
10
-123.99999968707601
20
4.9999816140478703
42
-0.30666671327787004
10
-125.8569212314279
20
6.2571206131442194
10
-123.67950314677501
20
4.9999815650074595
0
LWPOLYLINE
5
229
100
AcDbEntity
8
0
100
AcDbPolyline
90
3
70
1
43
0.0
10
-106.669886723543
20
29.8204961384359
10
-108.26217424316732
20
30.739800379672751
42
-0.07193895955033075
10
-106.669883856067
20
28.023015185126205
0
LWPOLYLINE
5
230
100
AcDbEntity
8
0
100
AcDbPolyline
90
7
70
1
43
0.0
10
-121.669876946725
20
33.768494147239409
10
-121.66988166756499
20
38.480749669045899
10
-126.00001119104
20
40.980745331029304
10
-130.33013570540501
20
38.480740993015203
10
-130.33013143159801
20
34.214705013384261
42
-0.21438070319922872
10
-126.56733954264789
20
32.588364499716405
42
0.39828623493945076
10
-123.82447496381675
20
32.389766526560415
42
-0.058333379889306015
0
LWPOLYLINE
5
231
100
AcDbEntity
8
0
100
AcDbPolyline
90
7
70
1
43
0.0
10
-118.00000017881403
20
69.999982803160478
42
-0.41421356237311197
10
-116.00000015497203
20
67.999982827002412
10
-116.00000014305101
20
66.999982752496521
42
0.15639125773528087
10
-115.62713100746662
20
65.837036023444682
10
-116.00000323194101
20
65.621756401119399
10
-120.33013901631101
20
68.121741218857295
10
-120.33014560178201
20
69.999982775383003
0
LWPOLYLINE
5
232
100
AcDbEntity
8
0
100
AcDbPolyline
90
3
70
1
43
0.0
10
-116.14307773046701
20
6.2571210894096492
10
-118.32051767570502
20
4.9999816817525788
10
-117.99999938905201
20
4.9999816855734593
42
0.30666676637220985
0
LWPOLYLINE
5
233
100
AcDbEntity
8
0
100
AcDbPolyline
90
5
70
1
43
0.0
10
-131.669877190455
20
34.011781039341798
10
-131.66988166756499
20
38.480749669045899
10
-136.00000091192501
20
40.980739396393197
10
-136.00000117282201
20
30.980745331034303
10
-134.51490719652239
20
31.838166721756952
42
-0.1851537596942632
0
CIRCLE
5
234
100
AcDbEntity
8
0
100
AcDbCircle
10
-25.141569731207404
20
23.876568544253001
30
0
40
6.0000000000000089
210
0
220
-2.4651903288156624e-32
230
1
0
LWPOLYLINE
5
235
100
AcDbEntity
8
0
100
AcDbPolyline
90
12
70
1
43
0.0
10
-131.00000045299498
20
62.999982573682601
42
-0.41421356237308332
10
-129.00000047683699
20
64.999982597524479
10
-128.00000041723303
20
64.999982609445397
42
0.04342104432356253
10
-127.65459067676899
20
65.030035377989009
10
-126.669888631886
20
64.461520072040315
10
-126.66987840770501
20
59.46152007205071
10
-131.00000031452703
20
56.961511217655307
10
-135.33013244553101
20
59.461502363249501
10
-135.33013251106598
20
59.493551593964249
42
-0.18392852697254031
10
-134.00000049173801
20
59.999982463414064
10
-133.000000417232
20
59.99998247533501
42
0.41421356237308071
10
-131.00000044107406
20
61.999982499176802
0
LWPOLYLINE
5
236
100
AcDbEntity
8
0
100
AcDbPolyline
90
7
70
1
43
0.0
10
-126.372872973624
20
65.837031103720108
10
-126.00000323194101
20
65.621756401119399
10
-121.66988497852002
20
68.121771583350807
10
-121.66989156388502
20
69.999982759412006
10
-124.00000047683699
20
69.999982731634887
42
0.414213562373069
10
-126.00000045299501
20
67.999982707793095
10
-126.00000044107425
20
66.999982633287303
42
-0.15639201195026267
0
LWPOLYLINE
5
237
100
AcDbEntity
8
0
100
AcDbPolyline
90
8
70
1
43
0.0
10
-114.345416853879
20
65.030036762895307
10
-115.330142669712
20
64.461502363239006
10
-115.33013244553102
20
59.461502363249501
10
-111.00000031452701
20
56.961511217655307
10
-106.66987840770501
20
59.46152007205071
10
-106.669888631886
20
64.461520072040315
10
-107.602537930092
20
64.999982852602102
10
-114.00000011920902
20
64.999982776338513
42
-0.043421933519630612
0
CIRCLE
5
238
100
AcDbEntity
8
0
100
AcDbCircle
10
-47.097235772159706
20
64.570563539807011
30
0
40
1.49999999999999
210
0
220
0
230
1
0
LWPOLYLINE
5
239
100
AcDbEntity
8
0
100
AcDbPolyline
90
8
70
1
43
0.0
10
-104.39747144147601
20
64.999982890809505
10
-105.330142669712
20
64.461502363239006
10
-105.33013244553102
20
59.461502363249501
10
-101.00000031452701
20
56.961511217655307
10
-96.669878407704715
20
59.46152007205071
10
-96.669879290491934
20
59.893235386574304
42
-0.25089382034089852
10
-99.77531118409243
20
63.448720079031432
42
0.34938330896826558
10
-101.72431992123101
20
64.999982922675898
0
LWPOLYLINE
5
240
100
AcDbEntity
8
0
100
AcDbPolyline
90
6
70
1
43
0.0
10
-131.669886517066
20
21.160241742964999
10
-136.00000005853499
20
23.660225228300003
10
-135.99999997913807
20
16.999981694514201
42
0.4142135623729799
10
-133.999999955297
20
14.999981718356
10
-133.67950123923899
20
14.999981722176601
10
-131.669878953644
20
16.160241742970701
0
LWPOLYLINE
5
241
100
AcDbEntity
8
0
100
AcDbPolyline
90
8
70
1
43
0.0
10
-131.00000872302601
20
14.999981155007301
10
-131.75417382171199
20
14.564563939662401
42
-0.22843746416339633
10
-130.99999985694899
20
12.999981754118801
10
-130.99999984502804
20
11.999982477398101
42
0.41421355834436008
10
-128.99999984869601
20
9.9999825012399803
10
-127.99999971917002
20
9.9999824994057036
42
-0.18392590618005958
10
-126.66988283979802
20
9.4935651310172506
10
-126.66988221972701
20
12.499980261922101
0
CIRCLE
5
242
100
AcDbEntity
8
0
100
AcDbCircle
10
-30.480225769429303
20
10.4768949771262
30
0
40
1.5000000000000002
210
0
220
-2.4651903288156619e-32
230
1
0
CIRCLE
5
243
100
AcDbEntity
8
0
100
AcDbCircle
10
-11.7418962913641
20
29.215224901947899
30
0
40
1.5000000000000002
210
0
220
-2.4651903288156619e-32
230
1
0
LWPOLYLINE
5
244
100
AcDbEntity
8
0
100
AcDbPolyline
90
4
70
1
43
0.0
10
-135.97898982715699
20
58.289121039073706
10
-136.00001084084704
20
48.301257179800501
10
-131.669883670856
20
50.801256918140808
10
-131.669883368717
20
55.801256918140808
0
CIRCLE
5
245
100
AcDbEntity
8
0
100
AcDbCircle
10
-81.000003501772895
20
87.999983214432518
30
0
40
4.5599999999999996
210
0
220
0
230
1
0
LWPOLYLINE
5
246
100
AcDbEntity
8
0
100
AcDbPolyline
90
4
70
1
43
0.0
10
-58.500024322889708
20
78.559983214432506
10
-58.500024322889708
20
92.559983214432506
10
-72.500024322889701
20
92.559983214432506
10
-72.500024322889701
20
78.559983214432506
0
LWPOLYLINE
5
247
100
AcDbEntity
8
0
100
AcDbPolyline
90
6
70
1
43
0.0
10
-127.79292287541701
20
22.625097070326802
10
-130.33014055490099
20
21.1602286427328
10
-130.330132991478
20
16.160228642738499
10
-126.00000219085001
20
13.660235192857503
10
-123.49680534866917
20
15.105461612258777
42
-0.20171923035830017
10
-127.77022944764528
20
22.486183737035663
42
0.017599796393982455
0
LWPOLYLINE
5
248
100
AcDbEntity
8
0
100
AcDbPolyline
90
4
70
1
43
0.0
10
-82.500001117587104
20
34.999981530601296
42
-0.99999999999999989
10
-82.500001117587104
20
36.999981530601318
10
-59.500001117587104
20
36.999981530601303
42
-0.99999999999999989
10
-59.500001117587104
20
34.99998153060131
0
LWPOLYLINE
5
249
100
AcDbEntity
8
0
100
AcDbPolyline
90
3
70
1
43
0.0
10
-76.000001172822294
20
30.980745331034303
10
-72.502589574334806
20
32.999981530601303
10
-79.497428954627594
20
32.999981530601303
0
LWPOLYLINE
5
250
100
AcDbEntity
8
0
100
AcDbPolyline
90
5
70
1
43
0.0
10
-96.669882219727299
20
12.499980261922101
10
-101.00000872302601
20
14.999981155007301
10
-105.330136257571
20
12.499982048092599
10
-105.33013677319401
20
9.9999826068193993
10
-96.669882735349816
20
9.9999825313759914
0
LWPOLYLINE
5
251
100
AcDbEntity
8
0
100
AcDbPolyline
90
3
70
1
43
0.0
10
-33.737847327869403
20
30.739800379672999
10
-35.330134847493703
20
29.8204961384359
10
-35.330137714969929
20
28.02301518512618
42
-0.071938959550338563
0
LWPOLYLINE
5
252
100
AcDbEntity
8
0
100
AcDbPolyline
90
6
70
1
43
0.0
10
-36.669880809660299
20
29.820482322949999
10
-41.000003840389809
20
32.320489230689802
10
-45.33013484749371
20
29.8204961384359
10
-45.330142823868201
20
24.820496138442305
10
-41.000019793138797
20
22.320489230702499
10
-36.669888786034797
20
24.820482322956401
0
LWPOLYLINE
5
253
100
AcDbEntity
8
0
100
AcDbPolyline
90
4
70
1
43
0.0
10
-6.0210317438799299
20
58.289121039073706
10
-10.3301382023197
20
55.801256918140808
10
-10.330137900181199
20
50.801256918140808
10
-6.000010730189711
20
48.301257179800501
0
LWPOLYLINE
5
254
100
AcDbEntity
8
0
100
AcDbPolyline
90
6
70
1
43
0.0
10
-61.000019793138804
20
22.320489230702499
10
-56.669888786034797
20
24.820482322956401
10
-56.669880809660299
20
29.820482322949999
10
-61.000003840389809
20
32.320489230689802
10
-65.330134847493696
20
29.8204961384359
10
-65.330142823868201
20
24.820496138442305
0
LWPOLYLINE
5
255
100
AcDbEntity
8
0
100
AcDbPolyline
90
3
70
1
43
0.0
10
-62.502592616409103
20
32.999981530601303
10
-69.49743199670192
20
32.999981530601303
10
-66.000020398214303
20
30.980745331034303
0
LWPOLYLINE
5
256
100
AcDbEntity
8
0
100
AcDbPolyline
90
5
70
1
43
0.0
10
-55.33013883568691
20
9.9999825313759896
10
-46.6698847978423
20
9.9999826068193993
10
-46.669885313465201
20
12.499982048092599
10
-51.000012848010307
20
14.999981155007301
10
-55.330139351309398
20
12.499980261922099
0
LWPOLYLINE
5
257
100
AcDbEntity
8
0
100
AcDbPolyline
90
5
70
1
43
0.0
10
-7.4851143745142501
20
31.8381667217567
10
-6.0000203982143496
20
30.980745331034303
10
-6.0000206591119598
20
40.980739396393197
10
-10.3301399034713
20
38.480749669045899
10
-10.330144380581194
20
34.011781039341791
42
-0.18515375969424175
0
LWPOLYLINE
5
258
100
AcDbEntity
8
0
100
AcDbPolyline
90
3
70
1
43
0.0
10
-16.143100339608381
20
6.257120613144215
42
-0.30666671327798162
10
-18.0000218839611
20
4.9999816140479494
10
-18.320518424261799
20
4.9999815650074595
0
LWPOLYLINE
5
259
100
AcDbEntity
8
0
100
AcDbPolyline
90
6
70
1
43
0.0
10
-16.0000107301897
20
48.301257179800501
10
-11.6698838623368
20
50.801257441460102
10
-11.669884164475302
20
55.801257441460102
10
-16.000011334466699
20
58.301257179800501
10
-20.330138202319699
20
55.801256918140808
10
-20.330137900181203
20
50.801256918140808
0
LWPOLYLINE
5
260
100
AcDbEntity
8
0
100
AcDbPolyline
90
5
70
1
43
0.0
10
-26.000010379997001
20
40.980745331029304
10
-30.330139903471299
20
38.480749669045899
10
-30.330144817173309
20
33.575982962529707
42
-0.20591377085028417
10
-21.669890039605001
20
34.314357369852203
10
-21.669885865631301
20
38.480740993015203
0
LWPOLYLINE
5
261
100
AcDbEntity
8
0
100
AcDbPolyline
90
6
70
1
43
0.0
10
-41.669883862336803
20
50.801257441460102
10
-41.669884164475299
20
55.801257441460102
10
-46.000011334466706
20
58.301257179800501
10
-50.330138202319709
20
55.801256918140808
10
-50.330137900181207
20
50.801256918140808
10
-46.0000107301897
20
48.301257179800501
0
LWPOLYLINE
5
262
100
AcDbEntity
8
0
100
AcDbPolyline
90
6
70
1
43
0.0
10
-41.669881016135697
20
21.1602286427328
10
-46.0000042533417
20
23.660235192845999
10
-50.33013505397021
20
21.160241742964999
10
-50.330142617392809
20
16.160241742970701
10
-46.000019380186899
20
13.660235192857503
10
-41.669888579558297
20
16.160228642738499
0
LWPOLYLINE
5
263
100
AcDbEntity
8
0
100
AcDbPolyline
90
6
70
1
43
0.0
10
-11.669881016135699
20
21.1602286427328
10
-14.207098695619999
20
22.625097070326802
42
0.017599796393905479
10
-14.22979212339165
20
22.486183737035709
42
-0.20171923035829348
10
-18.503216222367499
20
15.105461612259001
10
-16.000019380186899
20
13.660235192857503
10
-11.6698885795583
20
16.160228642738499
0
LWPOLYLINE
5
264
100
AcDbEntity
8
0
100
AcDbPolyline
90
6
70
1
43
0.0
10
-36.000020398214303
20
30.980745331034303
10
-31.669890874740002
20
33.480740993017697
10
-31.669885865631304
20
38.480740993015203
10
-36.000010379997001
20
40.980745331029304
10
-40.330139903471299
20
38.480749669045899
10
-40.330144912580003
20
33.4807496690484
0
LWPOLYLINE
5
265
100
AcDbEntity
8
0
100
AcDbPolyline
90
9
70
1
43
0.0
10
-65.330138320063398
20
7.4999802619222491
10
-61.754187852847409
20
5.4354052804487001
42
0.22843633680800668
10
-61.000020593520397
20
6.9999821266477191
10
-61.000020581599458
20
7.9999825232478896
42
-0.4142135563300095
10
-59.000020599022406
20
9.9999824994059807
10
-56.6698847978423
20
9.9999825197048295
10
-56.669885313465201
20
12.499982048092599
10
-61.000012848010307
20
14.999981155007301
10
-65.330139351309398
20
12.499980261922099
0
LWPOLYLINE
5
266
100
AcDbEntity
8
0
100
AcDbPolyline
90
6
70
1
43
0.0
10
-33.654766341194723
20
16.910547161639489
42
-0.22428300870972215
10
-33.241206809473965
20
15.253030808923114
10
-36.000019380186799
20
13.660235192857503
10
-40.330142617392809
20
16.160241742970701
10
-40.33013505397021
20
21.160241742964999
10
-36.137590096920498
20
23.580800246517502
42
0.16622762032913244
0
LWPOLYLINE
5
267
100
AcDbEntity
8
0
100
AcDbPolyline
90
6
70
1
43
0.0
10
-26.000011334466699
20
58.301257179800501
10
-30.330138202319699
20
55.801256918140808
10
-30.330137900181203
20
50.801256918140808
10
-26.0000107301897
20
48.301257179800501
10
-21.6698838623368
20
50.801257441460102
10
-21.669884164475302
20
55.801257441460102
0
LWPOLYLINE
5
268
100
AcDbEntity
8
0
100
AcDbPolyline
90
3
70
1
43
0.0
10
-24.000022181984303
20
4.99998168557347
42
-0.30666676637221946
10
-25.856943840569286
20
6.2571210894096563
10
-23.6795038953315
20
4.9999816817525788
0
LWPOLYLINE
5
269
100
AcDbEntity
8
0
100
AcDbPolyline
90
5
70
1
43
0.0
10
-45.33013883568691
20
9.9999825313759896
10
-36.6698847978423
20
9.9999826068193993
10
-36.669885313465201
20
12.499982048092599
10
-41.000012848010307
20
14.999981155007301
10
-45.330139351309398
20
12.499980261922099
0
LWPOLYLINE
5
270
100
AcDbEntity
8
0
100
AcDbPolyline
90
8
70
1
43
0.0
10
-37.602550129560697
20
64.999982890809505
10
-40.275701649806201
20
64.999982922675898
42
0.34938330896822289
10
-42.224710386944551
20
63.448720079031524
42
-0.25089382034089691
10
-45.330142280544798
20
59.893235386574602
10
-45.330143163332004
20
59.46152007205071
10
-41.000021256509399
20
56.961511217655307
10
-36.669889125505705
20
59.461502363249501
10
-36.669878901324502
20
64.461502363239006
0
LWPOLYLINE
5
271
100
AcDbEntity
8
0
100
AcDbPolyline
90
6
70
1
43
0.0
10
-31.6698838623368
20
50.801257441460102
10
-31.669884164475302
20
55.801257441460102
10
-36.000011334466699
20
58.301257179800501
10
-40.330138202319709
20
55.801256918140808
10
-40.330137900181199
20
50.801256918140808
10
-36.0000107301897
20
48.301257179800501
0
LWPOLYLINE
5
272
100
AcDbEntity
8
0
100
AcDbPolyline
90
6
70
1
43
0.0
10
-31.000019745883101
20
39.640999368878099
10
-26.6698905485738
20
42.1409955957973
10
-26.6698861917965
20
47.140995595795403
10
-31.000011032328302
20
49.640999368874297
10
-35.330140229637607
20
47.141003141955203
10
-35.330144586415003
20
42.141003141957107
0
LWPOLYLINE
5
273
100
AcDbEntity
8
0
100
AcDbPolyline
90
7
70
1
43
0.0
10
-15.432682028389198
20
32.588364499716398
42
-0.39828623493945498
10
-18.175546607220113
20
32.389766526560784
42
0.058333379889288689
10
-20.330144624311295
20
33.768494147239416
10
-20.330139903471299
20
38.480749669045899
10
-16.000010379997001
20
40.980745331029304
10
-11.669885865631302
20
38.480740993015203
10
-11.669890139438902
20
34.214705013384197
42
0.21438070319923888
0
LWPOLYLINE
5
274
100
AcDbEntity
8
0
100
AcDbPolyline
90
6
70
1
43
0.0
10
-11.000019745883101
20
39.640999368878099
10
-6.6698905485738402
20
42.1409955957973
10
-6.6698861917964605
20
47.140995595795403
10
-11.000011032328301
20
49.640999368874297
10
-15.330140229637601
20
47.141003141955203
10
-15.330144586415003
20
42.141003141957107
0
CIRCLE
5
275
100
AcDbEntity
8
0
100
AcDbCircle
10
-130.25812803871
20
29.2152234891247
30
0
40
1.5000000000000002
210
0
220
-2.4651903288156619e-32
230
1
0
LWPOLYLINE
5
276
100
AcDbEntity
8
0
100
AcDbPolyline
90
4
70
1
43
0.0
10
-66.000022375398302
20
6.3397271171518588
10
-68.320518177196803
20
4.9999817076511892
10
-66.000020653438895
20
4.9999821862523888
10
-63.679504721241706
20
4.9999821585897495
0
LWPOLYLINE
5
277
100
AcDbEntity
8
0
100
AcDbPolyline
90
8
70
1
43
0.0
10
-28.000021451827305
20
64.999982776338399
10
-34.3974836409445
20
64.999982852602102
10
-35.330132939150801
20
64.461520072040315
10
-35.330143163331996
20
59.46152007205071
10
-31.000021256509402
20
56.961511217655307
10
-26.669889125505701
20
59.461502363249501
10
-26.669878901324502
20
64.461502363239006
10
-27.654604717157309
20
65.030036762895236
42
-0.043421933519629835
0
LWPOLYLINE
5
278
100
AcDbEntity
8
0
100
AcDbPolyline
90
7
70
1
43
0.0
10
-18.0000210941995
20
69.999982731634873
42
-0.41421356237309825
10
-16.000021118041342
20
67.999982707793095
10
-16.000021129962299
20
66.999982633287303
42
0.15639201195024055
10
-15.627148597412594
20
65.837031103720108
10
-16.000018339095405
20
65.621756401119399
10
-20.330136592516702
20
68.121771583350807
10
-20.330130007152004
20
69.999982759412006
0
LWPOLYLINE
5
279
100
AcDbEntity
8
0
100
AcDbPolyline
90
6
70
1
43
0.0
10
-41.000019745883101
20
39.640999368878099
10
-36.669890548573804
20
42.1409955957973
10
-36.6698861917965
20
47.140995595795403
10
-41.000011032328302
20
49.640999368874297
10
-45.330140229637607
20
47.141003141955203
10
-45.330144586415003
20
42.141003141957107
0
LWPOLYLINE
5
280
100
AcDbEntity
8
0
100
AcDbPolyline
90
8
70
1
43
0.0
10
-14.000021851866201
20
9.9999824994059399
10
-13.000021722340803
20
9.9999825012400283
42
0.4142135583443643
10
-11.0000217260088
20
11.999982477398101
10
-11.000021714087872
20
12.999981754118801
42
-0.22843746416339178
10
-10.245847749324902
20
14.564563939662401
10
-11.0000128480103
20
14.999981155007301
10
-15.330139351309402
20
12.499980261922099
10
-15.330138731238673
20
9.4935651310172204
42
-0.18392590618011029
0
LWPOLYLINE
5
281
100
AcDbEntity
8
0
100
AcDbPolyline
90
6
70
1
43
0.0
10
-21.000000808147
20
66.961511217634396
10
-25.330132939150801
20
64.461520072040315
10
-25.330143163332004
20
59.46152007205071
10
-21.000021256509399
20
56.961511217655307
10
-16.669889125505701
20
59.461502363249501
10
-16.669878901324498
20
64.461502363239006
0
LWPOLYLINE
5
282
100
AcDbEntity
8
0
100
AcDbPolyline
90
6
70
1
43
0.0
10
-10.330142617392802
20
16.160241742970701
10
-8.3205203317975993
20
14.999981722176601
10
-8.0000216157401702
20
14.999981718356011
42
0.41421356237310597
10
-6.0000215918983102
20
16.999981694514201
10
-6.0000215125019807
20
23.660225228300003
10
-10.330135053970199
20
21.160241742964999
0
LWPOLYLINE
5
283
100
AcDbEntity
8
0
100
AcDbPolyline
90
7
70
1
43
0.0
10
-26.000021416064591
20
67.999982827002412
42
-0.41421356237307877
10
-24.000021392222802
20
69.999982803160492
10
-21.669875969254399
20
69.999982775383003
10
-21.6698825547256
20
68.121741218857295
10
-26.000018339095405
20
65.621756401119399
10
-26.372890563570103
20
65.837036023444398
42
0.15639125773532533
10
-26.000021427985516
20
66.999982752496521
0
LWPOLYLINE
5
284
100
AcDbEntity
8
0
100
AcDbPolyline
90
6
70
1
43
0.0
10
-71.00001207793845
20
14.999980440171878
10
-75.330136257571496
20
12.499982048092599
10
-75.330137288817497
20
7.4999820480926793
10
-71.000010785518299
20
4.9999811550074993
10
-66.669884282219201
20
7.4999820480926802
10
-66.669885313465201
20
12.499982048092599
0
LWPOLYLINE
5
285
100
AcDbEntity
8
0
100
AcDbPolyline
90
6
70
1
43
0.0
10
-61.669888579558297
20
16.160228642738499
10
-61.669881016135697
20
21.1602286427328
10
-66.0000042533417
20
23.660235192845999
10
-70.330135053970196
20
21.160241742964999
10
-70.330142617392795
20
16.160241742970701
10
-66.000019380186899
20
13.660235192857503
0
LWPOLYLINE
5
286
100
AcDbEntity
8
0
100
AcDbPolyline
90
12
70
1
43
0.0
10
-11.000021129962301
20
61.999982499176802
10
-11.000021118041399
20
62.999982573682601
42
0.41421356237309176
10
-13.0000210941995
20
64.999982597524493
10
-14.000021153804202
20
64.999982609445439
42
-0.043421044323497977
10
-14.3454308942677
20
65.030035377989094
10
-15.330132939150802
20
64.461520072040315
10
-15.330143163332002
20
59.46152007205071
10
-11.000021256509401
20
56.961511217655307
10
-6.6698891255057005
20
59.461502363249501
10
-6.6698890599702745
20
59.493551593964291
42
0.18392852697256654
10
-8.0000210792983495
20
59.999982463414
10
-9.0000211538041892
20
59.999982475334917
42
-0.41421356237309925
0
LWPOLYLINE
5
287
100
AcDbEntity
8
0
100
AcDbPolyline
90
4
70
1
43
0.0
10
-116.00006637751001
20
74.9999828355365
10
-116.00006650908099
20
79.999981747173393
10
-126.00006650908099
20
79.999981484032006
10
-126.00006637751001
20
74.999982572395098
0
LWPOLYLINE
5
288
100
AcDbEntity
8
0
100
AcDbPolyline
90
7
70
1
43
0.0
10
-25.330139203588452
20
11.783754638937822
42
-0.26359977466423634
10
-23.751183645743804
20
12.964792441691245
42
0.096442490164346792
10
-19.758968386179031
20
14.28346414217855
10
-16.669885313465201
20
12.499982048092599
10
-16.669884282219201
20
7.4999820480926802
10
-21.000010785518302
20
4.9999811550074993
10
-25.330138320063401
20
7.4999802619222491
0
LWPOLYLINE
5
289
100
AcDbEntity
8
0
100
AcDbPolyline
90
6
70
1
43
0.0
10
-46.669888786034797
20
24.820482322956401
10
-46.669880809660299
20
29.820482322949999
10
-51.000003840389809
20
32.320489230689802
10
-55.33013484749371
20
29.8204961384359
10
-55.330142823868201
20
24.820496138442305
10
-51.000019793138804
20
22.320489230702499
0
LWPOLYLINE
5
290
100
AcDbEntity
8
0
100
AcDbPolyline
90
6
70
1
43
0.0
10
-21.000019745883101
20
39.640999368878099
10
-16.6698905485738
20
42.1409955957973
10
-16.6698861917965
20
47.140995595795403
10
-21.000011032328302
20
49.640999368874297
10
-25.330140229637603
20
47.141003141955203
10
-25.330144586414999
20
42.141003141957107
0
LWPOLYLINE
5
291
100
AcDbEntity
8
0
100
AcDbPolyline
90
6
70
1
43
0.0
10
-56.0000042533417
20
23.660235192845999
10
-60.33013505397021
20
21.160241742964999
10
-60.330142617392809
20
16.160241742970701
10
-56.000019380186799
20
13.660235192857503
10
-51.669888579558297
20
16.160228642738499
10
-51.669881016135697
20
21.1602286427328
0
LWPOLYLINE
5
292
100
AcDbEntity
8
0
100
AcDbPolyline
90
6
70
1
43
0.0
10
-50.33014491258001
20
33.4807496690484
10
-46.000020398214303
20
30.980745331034303
10
-41.669890874739998
20
33.480740993017697
10
-41.669885865631301
20
38.480740993015203
10
-46.000010379997001
20
40.980745331029304
10
-50.330139903471299
20
38.480749669045899
0
LWPOLYLINE
5
293
100
AcDbEntity
8
0
100
AcDbPolyline
90
6
70
1
43
0.0
10
-75.330134847493696
20
29.8204961384359
10
-75.330142823868201
20
24.820496138442305
10
-71.000019793138804
20
22.320489230702499
10
-66.669888786034804
20
24.820482322956401
10
-66.669880809660299
20
29.820482322949999
10
-71.000003840389795
20
32.320489230689802
0
LWPOLYLINE
5
294
100
AcDbEntity
8
0
100
AcDbPolyline
90
6
70
1
43
0.0
10
-134.08725113680299
20
25.999976018143801
10
-135.33013466661501
20
25.9999740354029
10
-135.33013278500201
20
24.820482322956401
10
-131.00000177789804
20
22.320489230702499
10
-128.480327563375
20
23.775229176163233
42
0.19298456453005255
10
-129.89817124977503
20
24.228197209857871
42
-0.24058082511833895
0
LWPOLYLINE
5
295
100
AcDbEntity
8
0
100
AcDbPolyline
90
6
70
1
43
0.0
10
-13.519694007662004
20
23.775229176163201
42
-0.1929845645301588
10
-12.1018503212612
20
24.228197209857619
42
0.24058109013506018
10
-7.9127672123387471
20
25.999979855187707
10
-6.6698869044152111
20
25.9999778724519
10
-6.6698887860348499
20
24.820482322956401
10
-11.000019793138803
20
22.320489230702499
0
LWPOLYLINE
5
296
100
AcDbEntity
8
0
100
AcDbPolyline
90
8
70
1
43
0.0
10
-122.71998587371003
20
14.006952357051849
42
-0.25182371323967667
10
-121.77319175393193
20
14.035563566872995
42
0.084309252348743188
10
-118.24883792529303
20
12.964792441691239
42
-0.26359977466423529
10
-116.66988236744858
20
11.783754638937546
10
-116.669883250973
20
7.49998026192225
10
-121.000010785518
20
4.9999811550074993
10
-125.330137288817
20
7.4999820480926793
10
-125.330136257571
20
12.499982048092599
0
LWPOLYLINE
5
297
100
AcDbEntity
8
0
100
AcDbPolyline
90
4
70
1
43
0.0
10
-26.0000004470348
20
74.999984019673505
10
-16.0000004470348
20
74.999984019673505
10
-16.0000004470348
20
79.999982931310498
10
-26.0000004470348
20
79.999982931310498
0
LWPOLYLINE
5
298
100
AcDbEntity
8
0
100
AcDbPolyline
90
9
70
1
43
0.0
10
-51.669885865631301
20
38.480740993015203
10
-52.569237048574408
20
38.999982841903503
10
-58.500020453449608
20
38.99998153060131
42
-0.41421356237309503
10
-56.500020453449608
20
36.999981530601303
10
-56.500020453449608
20
34.999981530601303
42
-0.41421356237309503
10
-58.500020453449608
20
32.999981530601303
10
-59.497431996701906
20
32.999981530601303
10
-56.000020398214303
20
30.980745331034303
10
-51.669890874740005
20
33.480740993017697
0
LWPOLYLINE
5
299
100
AcDbEntity
8
0
100
AcDbPolyline
90
6
70
1
43
0.0
10
-51.00001103232831
20
49.640999368874297
10
-52.000001117587104
20
49.063655985758402
10
-52.000001117587104
20
40.218340044802297
10
-51.000019745883101
20
39.640999368878099
10
-46.669890548573804
20
42.1409955957973
10
-46.669886191796508
20
47.140995595795403
0
LWPOLYLINE
5
300
100
AcDbEntity
8
0
100
AcDbPolyline
90
6
70
1
43
0.0
10
-52.000001117587125
20
63.564211739190895
42
-0.014926663502737227
10
-51.969753980174225
20
63.448720195201503
42
0.37357251700237132
10
-46.669888865082918
20
59.588858673238107
10
-46.669889125505705
20
59.461502363249501
10
-51.000021256509399
20
56.961511217655307
10
-52.000001117587104
20
57.538852586029407
0
LWPOLYLINE
5
301
100
AcDbEntity
8
0
100
AcDbPolyline
90
6
70
1
43
0.0
10
-91.000010538708395
20
49.640999368874297
10
-95.330135379240204
20
47.140995595795403
10
-95.330131022462893
20
42.1409955957973
10
-91.000001825153603
20
39.640999368878099
10
-90.000001117587104
20
40.218351208390104
10
-90.000001117587104
20
49.063644822215508
0
LWPOLYLINE
5
302
100
AcDbEntity
8
0
100
AcDbPolyline
90
6
70
1
43
0.0
10
-95.330132705953815
20
59.588858673238107
10
-95.330132445531021
20
59.461502363249501
10
-91.000000314527298
20
56.961511217655307
10
-90.000001117587104
20
57.538863749647504
10
-90.00000111758709
20
63.564277490126102
42
0.014935232301086119
10
-90.030267590862465
20
63.448720195201496
42
-0.37357251700237282
0
LWPOLYLINE
5
303
100
AcDbEntity
8
0
100
AcDbPolyline
90
9
70
1
43
0.0
10
-85.50000111758709
20
36.999981530601303
42
-0.41421356237309503
10
-83.500001117587104
20
38.999981530601296
10
-89.430784696444704
20
38.999982741454502
10
-90.330135705405397
20
38.480740993015203
10
-90.33013069629672
20
33.480740993017697
10
-86.000001172822294
20
30.980745331034303
10
-82.502589574334806
20
32.999981530601303
10
-83.500001117587104
20
32.999981530601296
42
-0.41421356237309503
10
-85.500001117587118
20
34.999981530601303
0
LWPOLYLINE
5
304
100
AcDbEntity
8
0
100
AcDbPolyline
90
12
70
1
43
0.0
10
-80.364877063152278
20
70.124982841903488
42
-0.30561468458069702
10
-77.583802630491405
20
71.999982841903517
10
-62.000001117587104
20
71.999982841903503
42
-0.41421356237309503
10
-57.000001117587104
20
66.999982841903503
10
-57.000001117587104
20
51.416181328999208
42
-0.30561468458069757
10
-58.875001117587111
20
48.635106896338328
42
0.2032313571302706
10
-61.635125172021901
20
45.874982841903503
42
-0.30561468458070074
10
-64.416199604682802
20
43.999982841903496
10
-80.000001117587104
20
43.999982841903488
42
-0.41421356237309503
10
-85.000001117587118
20
48.999982841903503
10
-85.000001117587118
20
64.583784354807804
42
-0.30561468458069857
10
-83.125001117587104
20
67.364858787468705
42
0.20323135713027071
0
CIRCLE
5
305
100
AcDbEntity
8
0
100
AcDbCircle
10
-85.000001117587104
20
71.999982841903503
30
0
40
0.99999999999999589
210
0
220
0
230
1
0
CIRCLE
5
306
100
AcDbEntity
8
0
100
AcDbCircle
10
-57.000001117587104
20
43.999982841903503
30
0
40
0.99999999999999589
210
0
220
0
230
1
0
LWPOLYLINE
5
307
100
AcDbEntity
8
0
100
AcDbPolyline
90
6
70
1
43
0.0
10
-86.000002190849813
20
13.660235192857503
10
-81.669878953643916
20
16.160241742970701
10
-81.669886517066516
20
21.160241742964999
10
-86.000017317695011
20
23.660235192845999
10
-90.330140554900908
20
21.1602286427328
10
-90.330132991478393
20
16.160228642738499
0
CIRCLE
5
308
100
AcDbEntity
8
0
100
AcDbCircle
10
-94.902789400850693
20
64.570562969920502
30
0
40
1.49999999999999
210
0
220
0
230
1
0
CIRCLE
5
309
100
AcDbEntity
8
0
100
AcDbCircle
10
-116.858454471583
20
23.876567450902805
30
0
40
6.0000000000000089
210
0
220
-2.4651903288156624e-32
230
1
0
ENDSEC
0
SECTION
2
OBJECTS
0
DICTIONARY
5
C
100
AcDbDictionary
3
ACAD_GROUP
350
D
3
ACAD_MLINESTYLE
350
17
0
DICTIONARY
5
D
100
AcDbDictionary
0
DICTIONARY
5
1A
330
C
100
AcDbDictionary
0
DICTIONARY
5
17
100
AcDbDictionary
0
ENDSEC
0
EOF
