0
SECTION
2
HEADER
9
$INSUNITS
70
4
9
$ACADVER
1
AC1014
9
$HANDSEED
5
FFFF
0
ENDSEC
0
SECTION
2
TABLES
0
TABLE
2
VPORT
5
8
100
AcDbSymbolTable
0
ENDTAB
0
TABLE
2
LTYPE
5
5
100
AcDbSymbolTable
0
LTYPE
5
14
100
AcDbSymbolTableRecord
100
AcDbLinetypeTableRecord
2
BYBLOCK
70
0
0
LTYPE
5
15
100
AcDbSymbolTableRecord
100
AcDbLinetypeTableRecord
2
BYLAYER
70
0
0
ENDTAB
0
TABLE
2
LAYER
5
2
100
AcDbSymbolTable
70
2
0
LAYER
5
50
100
AcDbSymbolTableRecord
100
AcDbLayerTableRecord
2
0
70
0
6
CONTINUOUS
0
ENDTAB
0
TABLE
2
STYLE
5
3
100
AcDbSymbolTable
70
1
0
STYLE
5
11
100
AcDbSymbolTableRecord
100
AcDbTextStyleTableRecord
2
STANDARD
70
0
0
ENDTAB
0
TABLE
2
VIEW
5
6
100
AcDbSymbolTable
70
0
0
ENDTAB
0
TABLE
2
UCS
5
7
100
AcDbSymbolTable
70
0
0
ENDTAB
0
TABLE
2
APPID
5
9
100
AcDbSymbolTable
70
2
0
APPID
5
12
100
AcDbSymbolTableRecord
100
AcDbRegAppTableRecord
2
ACAD
70
0
0
ENDTAB
0
TABLE
2
DIMSTYLE
5
A
100
AcDbSymbolTable
70
1
0
ENDTAB
0
TABLE
2
BLOCK_RECORD
5
1
100
AcDbSymbolTable
70
1
0
BLOCK_RECORD
5
1F
100
AcDbSymbolTableRecord
100
AcDbBlockTableRecord
2
*MODEL_SPACE
0
BLOCK_RECORD
5
1B
100
AcDbSymbolTableRecord
100
AcDbBlockTableRecord
2
*PAPER_SPACE
0
ENDTAB
0
ENDSEC
0
SECTION
2
BLOCKS
0
BLOCK
5
20
100
AcDbEntity
100
AcDbBlockBegin
2
*MODEL_SPACE
0
ENDBLK
5
21
100
AcDbEntity
100
AcDbBlockEnd
0
BLOCK
5
1C
100
AcDbEntity
100
AcDbBlockBegin
2
*PAPER_SPACE
0
ENDBLK
5
1D
100
AcDbEntity
100
AcDbBlockEnd
0
ENDSEC
0
SECTION
2
ENTITIES
0
LWPOLYLINE
5
100
100
AcDbEntity
8
0
100
AcDbPolyline
90
120
70
1
43
0.0
10
-0.99999968239565418
20
-40.000000336493223
42
-0.41421352744514967
10
1.0000000794206063
20
-42.000000336173997
10
1.0000000745057802
20
-60.000000894069707
10
6.0000000745057802
20
-60.000000894069707
10
6.0000000745057802
20
-89.999999105930314
10
1.0000000745057802
20
-89.999999105930314
10
1.0000000746807876
20
-107.99999964106702
42
-0.41421352745751794
10
-0.99999968688972996
20
-109.99999964107799
10
-2.0000002312438498
20
-109.99999976029301
42
0.41421352745755491
10
-3.9999999927826102
20
-111.99999976033601
10
-3.9999999926337573
20
-112.99999947692902
42
-0.41421356237310758
10
-5.9999999925888403
20
-114.99999947697401
10
-29.0000050660122
20
-114.99999947719401
42
0.41421356237207041
10
-37.000005065930381
20
-122.99999947723002
10
-37.000005065914898
20
-127.00000200978101
42
0.41421356237533569
10
-29.000005065788304
20
-135.0000020097244
10
-5.999999989132192
20
-135.00000200937791
42
-0.41421356237324058
10
-3.9999999890471098
20
-137.00000200932203
10
-3.9999999878475698
20
-144.99999988617
42
0.41421356236605894
10
1.0000000141756593
20
-149.99999988392534
10
8.9999983273082105
20
-149.99999996316077
42
-0.41421356244678659
10
10.999998353747671
20
-151.99999993868701
10
10.999998614008399
20
-175.00073741863102
42
0.41418657385309676
10
18.999998669017401
20
-183.00000016621422
10
22.999998597946401
20
-183.00000012128504
42
0.41421356246863456
10
30.999998525283221
20
-175.00000003045599
10
30.99999828485279
20
-152.00000022221599
42
-0.41421356238044665
10
32.99999826378
20
-150.00000020087097
10
34.000000563809401
20
-150.000000210775
42
0.4142135623679104
10
36.000000565218279
20
-148.00000021233501
10
36.000000565437908
20
-146.999999938586
42
-0.41421356236728085
10
38.000000565598199
20
-144.999999938786
10
53.500001341104507
20
-144.999999940028
10
53.500001341104507
20
-139.999999925494
10
88.499998658895507
20
-139.999999925494
10
88.499998658895507
20
-144.99999993832699
10
103.999999372502
20
-144.99999993932585
42
-0.41421356237705176
10
105.99999937238519
20
-146.99999993949601
10
105.99999937216401
20
-148.00000026795701
42
0.41421356236635998
10
107.99999937063801
20
-150.00000026937221
10
109.000001689844
20
-150.00000025667001
42
-0.4142135624083858
10
111.00000166762
20
-152.00000028057099
10
111.00000142571501
20
-175.00000003213501
42
0.41421356212633204
10
119.00000135067501
20
-183.000000125631
10
123.000001410772
20
-183.00000017054401
42
0.4141867611075547
10
131.00000146704633
20
-175.00073230657404
10
131.00000172378273
20
-151.99999993120801
42
-0.41421356237705437
10
133.000001744217
20
-149.99999995181273
10
141.00000001007999
20
-149.99999985019301
42
0.41421356236923035
10
146.00000000816155
20
-144.99999984841801
10
146.00000000798101
20
-137.00000200580499
42
-0.41421356237309503
10
148.00000000793401
20
-135.00000200575801
10
171.00000506842602
20
-135.00000200522601
42
0.41421356237020163
10
179.00000506824099
20
-127.00000200512001
10
179.00000506818699
20
-122.99999947203102
42
0.41421356237587725
10
171.000005068001
20
-114.99999947214104
10
148.00000000747201
20
-114.99999947267597
42
-0.41421356237310025
10
146.00000000742602
20
-112.999999472722
10
146.00000000740204
20
-111.99999976035102
42
0.41421352745758827
10
144.000000245801
20
-109.99999976037
10
142.999999687317
20
-109.99999964116491
42
-0.41421352745407375
10
140.99999992572913
20
-107.999999641195
10
140.999999925494
20
-92.499999105930314
10
135.999999925494
20
-92.499999105930314
10
135.999999925494
20
-57.500000894069707
10
140.999999925624
20
-57.500000894069707
10
140.99999992569366
20
-42.000000359226199
42
-0.41421352753741658
10
142.99999968707601
20
-40.000000359988775
10
144.00000023841901
20
-40.000000240786406
42
0.41421352764492092
10
146.00000002854563
20
-38.0000002384186
10
146.00000156702239
20
-37.000076363428199
42
-0.414213562373136
10
148.00000464420799
20
-35.000079440618279
10
170.99999275706099
20
-35.000114828257701
42
0.41421401173064198
10
179.00000506581208
20
-27.000114863398998
10
179.000005083377
20
-23.0001823545023
42
0.41421311301569835
10
171.000017392128
20
-15.000182319379697
10
148.00003541597999
20
-15.000146931749914
42
-0.41421356237319451
10
146.00003849316943
20
-13.000143854564602
10
146.000050802141
20
-5.0000000002349401
42
0.41421357449044494
10
141
20
3.6936414038457599e-07
10
133.00000171362399
20
2.7960031345752867e-07
42
-0.41421356237309975
10
131.00000169118312
20
2.0000002571592512
10
131.000001433112
20
25.000000257822805
42
0.41421356237309503
10
123.00000134334802
20
33.000000168058918
10
119.00000134334502
20
33.000000123176903
42
0.41421356237309132
10
111.00000143310905
20
25.000000033413002
10
111.00000169118007
20
2.0000000327498717
42
-0.4142135623730922
10
109.00000171362102
20
1.0308829900829153e-08
10
107.99999940395402
20
-9.1167962068539055e-10
42
0.41421356230674672
10
105.9999994040426
20
-1.9999999999999905
10
105.99999940404265
20
-3.0000000745058104
42
-0.41421356236753443
10
103.99999940398502
20
-5.0000000745254702
10
88.499998658895507
20
-5.00000007452444
10
88.499998658895507
20
-10.000000074505802
10
53.500001341104507
20
-10.000000074505802
10
53.500001341109709
20
-5.0001442261617299
10
37.999907543897201
20
-5.0001355702014392
42
-0.41421338853567313
10
35.999695707174496
20
-2.99992268662107
10
35.999695672125597
20
-2.0005998022943801
42
0.41421354881296257
10
33.999008536939698
20
8.7285179699858606e-05
10
32.9999986370063
20
8.7250142036532363e-05
42
-0.41421356137178345
10
30.999997898740276
20
2.0000865051152905
10
30.999998549773405
20
24.9999998814428
42
0.41421356736837806
10
22.9999985991827
20
33.000000132704223
10
18.999998596868899
20
33.0000001774225
42
0.41425921533262816
10
10.999998602631811
20
24.998753332272699
10
10.99999785898946
20
2.000087215476718
42
-0.41421356113562663
10
8.9999986749579008
20
8.6408403745796836e-05
10
1.00000017397608
20
8.6127824339143899e-05
42
0.41421368290491822
10
-3.9999996506612119
20
-4.999916105144548
10
-4.0000383811317608
20
-13.000143935339201
42
-0.4142135623748861
10
-6.0000353014707697
20
-15.00014701500778
10
-29.008614497198103
20
-15.000182443788098
42
0.41389839321614136
10
-37.000005101421756
20
-23.000177811008303
10
-37.000005111333202
20
-27.000112366189803
42
0.41421401742903141
10
-28.999992762426704
20
-35.000112446536946
10
-6.0000045925694279
20
-35.000079291899198
42
-0.41421356238475832
10
-4.0000015057079716
20
-37.000076205112599
10
-3.99999996587507
20
-38.0000032972941
42
0.41421307645246652
10
-2.0000002040635696
20
-40.000000217401336
0
LINE
5
101
100
AcDbEntity
8
0
100
AcDbLine
10
30.999998286366498
20
-139.99999985098199
30
0
11
30.999998286365699
21
-144.999999925488
31
0
0
LINE
5
102
100
AcDbEntity
8
0
100
AcDbLine
10
30.999998286365699
20
-144.999999925488
30
0
11
28.999998235928103
21
-144.99999992548703
31
0
0
ARC
5
103
100
AcDbEntity
8
0
100
AcDbCircle
10
28.999998235927805
20
-146.999999925487
30
0
40
1.9999999999999929
210
0
220
-0
230
1
100
AcDbArc
50
89.999999999991445
51
180
0
LINE
5
104
100
AcDbEntity
8
0
100
AcDbLine
10
26.999998235927816
20
-146.99999994615399
30
0
11
26.999998525256604
21
-175.00000007223701
31
0
0
ARC
5
105
100
AcDbEntity
8
0
100
AcDbCircle
10
22.999998517504899
20
-175.00000011350704
30
0
40
4.0000000077345277
210
0
220
0
230
1
100
AcDbArc
50
-89.999999488476178
51
0
0
LINE
5
106
100
AcDbEntity
8
0
100
AcDbLine
10
22.999998553215999
20
-179.00000012124156
30
0
11
18.999998624069899
21
-179.000000166164
31
0
0
ARC
5
107
100
AcDbEntity
8
0
100
AcDbCircle
10
18.9999985801192
20
-175.000000166132
30
0
40
4.0000000017519524
210
0
220
0
230
1
100
AcDbArc
50
179.99568990252459
51
270.0000006295474
0
LINE
5
108
100
AcDbEntity
8
0
100
AcDbLine
10
14.999998589684969
20
-174.99969926456399
30
0
11
15.002104863141302
21
-147.00015037601199
31
0
0
ARC
5
109
100
AcDbEntity
8
0
100
AcDbCircle
10
13.0021048688001
20
-146.99999992548501
30
0
40
2.0000000000000422
210
0
220
0
230
1
100
AcDbArc
50
-0.0043100900340672377
51
89.999999999994188
0
LINE
5
110
100
AcDbEntity
8
0
100
AcDbLine
10
13.002104868800302
20
-144.99999992548499
30
0
11
10.9999979883424
21
-144.99999992548399
31
0
0
LINE
5
111
100
AcDbEntity
8
0
100
AcDbLine
10
10.9999979883424
20
-144.99999992548399
30
0
11
10.9999979883432
21
-139.99999992548504
31
0
0
LINE
5
112
100
AcDbEntity
8
0
100
AcDbLine
10
10.9999979883432
20
-139.99999992548504
30
0
11
30.999998286366498
21
-139.99999985098199
31
0
0
LWPOLYLINE
5
113
100
AcDbEntity
8
0
100
AcDbPolyline
90
8
70
1
43
0.0
10
130.99999865889501
20
-135.00000201165699
10
130.99999865889501
20
-128.99999965727301
42
0.41421356237309503
10
128.99999865889501
20
-126.99999965727301
10
98.000001341101409
20
-126.99999965727302
42
0.41421356237309503
10
96.000001341101395
20
-128.99999965727301
10
96.000001341101409
20
-135.00000201165699
42
0.41421356237309503
10
98.000001341101409
20
-137.00000201165699
10
128.99999865889501
20
-137.00000201165699
42
0.41421356237309503
0
LINE
5
114
100
AcDbEntity
8
0
100
AcDbLine
10
123.000001375924
20
-179.00000016617199
30
0
11
119.00000144677801
21
-179.00000012125003
31
0
0
ARC
5
115
100
AcDbEntity
8
0
100
AcDbCircle
10
119.00000143831301
20
-175.000000113033
30
0
40
3.9999999635755761
210
0
220
0
230
1
100
AcDbArc
50
180
51
270.0000001212523
0
LINE
5
116
100
AcDbEntity
8
0
100
AcDbLine
10
115.00000147473743
20
-175.00000007224401
30
0
11
115.000001764071
21
-146.99999994616101
31
0
0
ARC
5
117
100
AcDbEntity
8
0
100
AcDbCircle
10
113.00000176407102
20
-146.99999992549402
30
0
40
1.9999999999999931
210
0
220
0
230
1
100
AcDbArc
50
0
51
90
0
LINE
5
118
100
AcDbEntity
8
0
100
AcDbLine
10
113.00000176407102
20
-144.99999992549397
30
0
11
111.00000171363402
21
-144.999999925494
31
0
0
LINE
5
119
100
AcDbEntity
8
0
100
AcDbLine
10
111.00000171363402
20
-144.999999925494
30
0
11
111.00000171363402
21
-139.99999985098799
31
0
0
LINE
5
120
100
AcDbEntity
8
0
100
AcDbLine
10
111.00000171363402
20
-139.99999985098799
30
0
11
131.00000201165699
21
-139.999999925494
31
0
0
LINE
5
121
100
AcDbEntity
8
0
100
AcDbLine
10
131.00000201165699
20
-139.999999925494
30
0
11
131.00000201165699
21
-144.999999925494
31
0
0
LINE
5
122
100
AcDbEntity
8
0
100
AcDbLine
10
131.00000201165699
20
-144.999999925494
30
0
11
128.99789513119899
21
-144.999999925494
31
0
0
ARC
5
123
100
AcDbEntity
8
0
100
AcDbCircle
10
128.99789513119899
20
-146.99999992549402
30
0
40
2.0000000000000107
210
0
220
-0
230
1
100
AcDbArc
50
90
51
180.0043100900341
0
LINE
5
124
100
AcDbEntity
8
0
100
AcDbLine
10
126.99789513685781
20
-147.000150376021
30
0
11
127.000001410309
21
-174.999699264573
31
0
0
ARC
5
125
100
AcDbEntity
8
0
100
AcDbCircle
10
123.00000149923001
20
-175.00000016922601
30
0
40
3.9999999969459683
210
0
220
0
230
1
100
AcDbArc
50
-90.000001766228479
51
0.0043101417004361622
0
LWPOLYLINE
5
126
100
AcDbEntity
8
0
100
AcDbPolyline
90
8
70
1
43
0.0
10
13.000001341105001
20
-137.00000201164704
42
-0.41421356237305113
10
11.00000134110527
20
-135.00000201164704
10
11.000001341106307
20
-128.999999657263
42
-0.41421356237299356
10
13.000001341106602
20
-126.99999965726403
10
43.9999986589008
20
-126.99999965726902
42
-0.41421356237305212
10
45.999998658900495
20
-128.999999657269
10
45.999998658899493
20
-135.00000201165301
42
-0.41421356237300527
10
43.999998658899102
20
-137.00000201165199
0
LWPOLYLINE
5
127
100
AcDbEntity
8
0
100
AcDbPolyline
90
16
70
1
43
0.0
10
80.100003501772918
20
-60.900001117587109
10
80.100003501772918
20
-58.500000834464998
42
0.41421356237310647
10
77.600003501772804
20
-56.000000834464998
10
60.000003218650697
20
-56.000000834465325
42
0.41421356237309115
10
52.000003218650797
20
-64.000000834465297
10
52.000003218650797
20
-81.600001117587112
42
0.41421356237309503
10
54.500003218650797
20
-84.100001117587112
10
56.9000035017729
20
-84.100001117587112
42
-0.41421356237309503
10
61.9000035017729
20
-89.100001117587112
10
61.9000035017729
20
-91.500001400709209
42
0.41421356237309503
10
64.4000035017729
20
-94.000001400709209
10
82.000003784894901
20
-94.000001400709209
42
0.41421356237309503
10
90.000003784894901
20
-86.000001400709195
10
90.000003784894872
20
-68.400001117587095
42
0.41421356237309503
10
87.500003784894901
20
-65.900001117587095
10
85.100003501772918
20
-65.900001117587109
42
-0.41421356237309503
0
LINE
5
128
100
AcDbEntity
8
0
100
AcDbLine
10
70.999974072310195
20
-124.00004596707602
30
0
11
7.9999983370323857
21
-124.00010304449999
31
0
0
ARC
5
129
100
AcDbEntity
8
0
100
AcDbCircle
10
8.0000001490134292
20
-126.00010304450001
30
0
40
2.0000000000008313
210
0
220
0
230
1
100
AcDbArc
50
90.000051909433168
51
180
0
LINE
5
130
100
AcDbEntity
8
0
100
AcDbLine
10
6.000000149013359
20
-126.00010304449901
30
0
11
6.0000001490121901
21
-134.999999776474
31
0
0
LINE
5
131
100
AcDbEntity
8
0
100
AcDbLine
10
6.0000001490121901
20
-134.999999776474
30
0
11
1.0000000745063897
21
-134.999999776474
31
0
0
LINE
5
132
100
AcDbEntity
8
0
100
AcDbLine
10
1.0000000745063897
20
-134.999999776474
30
0
11
0.99999752648706408
21
-133.00006178138301
31
0
0
ARC
5
133
100
AcDbEntity
8
0
100
AcDbCircle
10
-1.00000247351126
20
-133.00006432948101
30
0
40
1.9999999999999474
210
0
220
-0
230
1
100
AcDbArc
50
7.299639853675914e-05
51
90.000072997636039
0
LINE
5
134
100
AcDbEntity
8
0
100
AcDbLine
10
-1.00000502160945
20
-131.00006432948271
30
0
11
-28.9999868288076
21
-131.00010000283501
31
0
0
ARC
5
135
100
AcDbEntity
8
0
100
AcDbCircle
10
-28.999991925024101
20
-127.00008432723202
30
0
40
4.0000156756062903
210
0
220
0
230
1
100
AcDbArc
50
179.99882082793681
51
270.0000729976382
0
LINE
5
136
100
AcDbEntity
8
0
100
AcDbLine
10
-33.000007599783281
20
-127.00000200515801
30
0
11
-33.000006585623296
21
-122.999999472073
31
0
0
ARC
5
137
100
AcDbEntity
8
0
100
AcDbCircle
10
-29.000016927201404
20
-123.000063196179
30
0
40
3.999989658929457
210
0
220
0
230
1
100
AcDbArc
50
90.000072997638853
51
179.99908721734226
0
LINE
5
138
100
AcDbEntity
8
0
100
AcDbLine
10
-29.000022023384805
20
-119.00007353725279
30
0
11
-1.0000203102327987
21
-119.00003786387501
31
0
0
ARC
5
139
100
AcDbEntity
8
0
100
AcDbCircle
10
-1.00002285833103
20
-117.000037863877
30
0
40
1.9999999999996265
210
0
220
0
230
1
100
AcDbArc
50
-89.999927002362824
51
7.299639853675914e-05
0
LINE
5
140
100
AcDbEntity
8
0
100
AcDbLine
10
0.99997714166734697
20
-117.00003531577801
30
0
11
0.99997459352358908
21
-114.999999478451
31
0
0
LINE
5
141
100
AcDbEntity
8
0
100
AcDbLine
10
0.99997459352358908
20
-114.999999478451
30
0
11
3.9999983370326908
21
-114.999999478451
31
0
0
ARC
5
142
100
AcDbEntity
8
0
100
AcDbCircle
10
3.9999983370329399
20
-112.99999947845102
30
0
40
1.9999999999999929
210
0
220
0
230
1
100
AcDbArc
50
-90.000000000007134
51
5.1904943952083148e-05
0
LINE
5
143
100
AcDbEntity
8
0
100
AcDbLine
10
5.9999983370321299
20
-112.99999766647021
30
0
11
5.9999953925658769
21
-109.000001320235
31
0
0
ARC
5
144
100
AcDbEntity
8
0
100
AcDbCircle
10
7.9999956190625099
20
-108.99999950825402
30
0
40
2.0000000000000284
210
0
220
-0
230
1
100
AcDbArc
50
89.999999999992824
51
180.00005190494394
0
LINE
5
145
100
AcDbEntity
8
0
100
AcDbLine
10
7.9999956190627604
20
-106.99999950825399
30
0
11
45.000006247315902
21
-106.99999950825899
31
0
0
ARC
5
146
100
AcDbEntity
8
0
100
AcDbCircle
10
45.0000062473162
20
-104.99999950826002
30
0
40
1.9999999999989804
210
0
220
0
230
1
100
AcDbArc
50
-90.000000000008541
51
0
0
LINE
5
147
100
AcDbEntity
8
0
100
AcDbLine
10
47.000006247315454
20
-104.99999950826002
30
0
11
47.000006247316399
21
-98.999999508260117
31
0
0
ARC
5
148
100
AcDbEntity
8
0
100
AcDbCircle
10
49.000006247316897
20
-98.999999508260302
30
0
40
2.000000000000508
210
0
220
-0
230
1
100
AcDbArc
50
89.999999999994102
51
180
0
LINE
5
149
100
AcDbEntity
8
0
100
AcDbLine
10
49.000006247317103
20
-96.999999508259805
30
0
11
86.999993752688297
21
-96.999999508261695
31
0
0
ARC
5
150
100
AcDbEntity
8
0
100
AcDbCircle
10
86.999993752688198
20
-98.999999508261595
30
0
40
1.9999999999999574
210
0
220
0
230
1
100
AcDbArc
50
0
51
89.999999999997144
0
LINE
5
151
100
AcDbEntity
8
0
100
AcDbLine
10
88.999993752688169
20
-98.999999508261595
30
0
11
88.999993752688198
21
-104.99999950826201
31
0
0
ARC
5
152
100
AcDbEntity
8
0
100
AcDbCircle
10
90.999993752688212
20
-104.99999950826201
30
0
40
2.0000000000000107
210
0
220
0
230
1
100
AcDbArc
50
180
51
270
0
LINE
5
153
100
AcDbEntity
8
0
100
AcDbLine
10
90.999993752688212
20
-106.99999950826199
30
0
11
134.00000438094102
21
-106.99999928176439
31
0
0
ARC
5
154
100
AcDbEntity
8
0
100
AcDbCircle
10
134.00000438094099
20
-108.99999950826199
30
0
40
2.0000004529948652
210
0
220
0
230
1
100
AcDbArc
50
-5.1904943960176338e-05
51
89.99999999999919
0
LINE
5
155
100
AcDbEntity
8
0
100
AcDbLine
10
136.00000483393504
20
-109.00000132024302
30
0
11
136.00000120997601
21
-112.99999766647801
31
0
0
ARC
5
156
100
AcDbEntity
8
0
100
AcDbCircle
10
138.00000166296999
20
-112.99999947845902
30
0
40
2.0000004529948119
210
0
220
0
230
1
100
AcDbArc
50
179.99994809505606
51
270.0000000000008
0
LINE
5
157
100
AcDbEntity
8
0
100
AcDbLine
10
138.00000166297002
20
-114.99999993145394
30
0
11
141.00002540647901
21
-114.999999478459
31
0
0
LINE
5
158
100
AcDbEntity
8
0
100
AcDbLine
10
141.00002540647901
20
-114.999999478459
30
0
11
141.000022858335
21
-117.00003531578702
31
0
0
ARC
5
159
100
AcDbEntity
8
0
100
AcDbCircle
10
143.00002285833401
20
-117.00003786388601
30
0
40
2.0000000000006213
210
0
220
0
230
1
100
AcDbArc
50
179.99992700360147
51
269.9999270023402
0
LINE
5
160
100
AcDbEntity
8
0
100
AcDbLine
10
143.00002031023499
20
-119.0000378638844
30
0
11
171.000022023387
21
-119.00007353726501
31
0
0
ARC
5
161
100
AcDbEntity
8
0
100
AcDbCircle
10
171.00001692720301
20
-123.000063196192
30
0
40
3.9999896589295352
210
0
220
-0
230
1
100
AcDbArc
50
0.00091278265773879637
51
89.999927002352621
0
LINE
5
162
100
AcDbEntity
8
0
100
AcDbLine
10
175.00000658562496
20
-122.99999947208602
30
0
11
175.00000759978502
21
-127.00000200517101
31
0
0
ARC
5
163
100
AcDbEntity
8
0
100
AcDbCircle
10
170.99999192502599
20
-127.00008432724401
30
0
40
4.0000156756063232
210
0
220
0
230
1
100
AcDbArc
50
-90.000072997644821
51
0.0011791720632143899
0
LINE
5
164
100
AcDbEntity
8
0
100
AcDbLine
10
170.99998682880903
20
-131.00010000284709
30
0
11
143.000005021611
21
-131.00006432949101
31
0
0
ARC
5
165
100
AcDbEntity
8
0
100
AcDbCircle
10
143.00000247351201
20
-133.00006432948999
30
0
40
2.0000000000006035
210
0
220
-0
230
1
100
AcDbArc
50
89.999927002341039
51
179.99992700360147
0
LINE
5
166
100
AcDbEntity
8
0
100
AcDbLine
10
141.00000247351369
20
-133.000061781391
30
0
11
140.999999925494
21
-134.99999977648301
31
0
0
LINE
5
167
100
AcDbEntity
8
0
100
AcDbLine
10
140.999999925494
20
-134.99999977648301
30
0
11
135.99999985098799
21
-134.99999977648301
31
0
0
LINE
5
168
100
AcDbEntity
8
0
100
AcDbLine
10
135.99999985098799
20
-134.99999977648301
30
0
11
135.99999985098799
21
-126.00010304450799
31
0
0
ARC
5
169
100
AcDbEntity
8
0
100
AcDbCircle
10
133.99999985098799
20
-126.00010304450799
30
0
40
1.9999999999999929
210
0
220
0
230
1
100
AcDbArc
50
0
51
89.999948090539348
0
LINE
5
170
100
AcDbEntity
8
0
100
AcDbLine
10
134.00000166296999
20
-124.00010304450872
30
0
11
70.999974072310195
21
-124.00004596707602
31
0
0
LWPOLYLINE
5
171
100
AcDbEntity
8
0
100
AcDbPolyline
90
8
70
1
43
0.0
10
128.99999865889501
20
-12.999997988343173
42
-0.41421356237309503
10
130.99999865889504
20
-14.999997988343202
10
130.99999865889501
20
-21.0000003427267
42
-0.41421356237309503
10
128.99999865889501
20
-23.00000034272669
10
98.000001341101409
20
-23.000000342726693
42
-0.41421356237309503
10
96.000001341101409
20
-21.0000003427267
10
96.000001341101409
20
-14.999997988343202
42
-0.41421356237309503
10
98.000001341101409
20
-12.99999798834321
0
LWPOLYLINE
5
172
100
AcDbEntity
8
0
100
AcDbPolyline
90
8
70
1
43
0.0
10
11.000001341105301
20
-14.999997988353099
10
11.0000013411063
20
-21.000000342736605
42
0.41421356237309503
10
13.000001341106602
20
-23.0000003427363
10
43.999998658900701
20
-23.000000342731191
42
0.4142135623731113
10
45.999998658900402
20
-21.0000003427308
10
45.999998658899401
20
-14.999997988347403
42
0.4142135623730957
10
43.999998658899102
20
-12.999997988347701
10
13.000001341105001
20
-12.99999798835281
42
0.41421356237309503
0
LINE
5
173
100
AcDbEntity
8
0
100
AcDbLine
10
47.000006247316897
20
-51.000000491739897
30
0
11
47.000006247316207
21
-45.000000491739904
31
0
0
ARC
5
174
100
AcDbEntity
8
0
100
AcDbCircle
10
45.0000062473162
20
-45.00000049174011
30
0
40
2.0000000000000018
210
0
220
-0
230
1
100
AcDbArc
50
0
51
90.000000000008541
0
LINE
5
175
100
AcDbEntity
8
0
100
AcDbLine
10
45.000006247315902
20
-43.00000049174011
30
0
11
7.999995619062763
21
-43.000000718243612
31
0
0
ARC
5
176
100
AcDbEntity
8
0
100
AcDbCircle
10
7.9999956190625099
20
-41.000000491746206
30
0
40
2.0000004529948594
210
0
220
0
230
1
100
AcDbArc
50
179.99994809505606
51
270.00000000000722
0
LINE
5
177
100
AcDbEntity
8
0
100
AcDbLine
10
5.9999951660684712
20
-40.999998679764801
30
0
11
5.9999987900270604
21
-37.000002333530396
31
0
0
ARC
5
178
100
AcDbEntity
8
0
100
AcDbCircle
10
3.9999983370329399
20
-37.000000521548998
30
0
40
2.0000004529949407
210
0
220
0
230
1
100
AcDbArc
50
-5.1904943960176338e-05
51
90.000000000007148
0
LINE
5
179
100
AcDbEntity
8
0
100
AcDbLine
10
3.9999983370326904
20
-35.000000068554058
30
0
11
0.99997459352358875
21
-35.000000521549403
31
0
0
LINE
5
180
100
AcDbEntity
8
0
100
AcDbLine
10
0.99997459352358875
20
-35.000000521549403
30
0
11
0.99997714166736507
21
-32.999964684221709
31
0
0
ARC
5
181
100
AcDbEntity
8
0
100
AcDbCircle
10
-1.00002285833103
20
-32.999962136123301
30
0
40
2.0000000000000182
210
0
220
0
230
1
100
AcDbArc
50
-7.2996398552187649e-05
51
89.999927002362824
0
LINE
5
182
100
AcDbEntity
8
0
100
AcDbLine
10
-1.0000203102328
20
-30.999962136124903
30
0
11
-29.000022023384805
21
-30.999926462747105
31
0
0
ARC
5
183
100
AcDbEntity
8
0
100
AcDbCircle
10
-29.000016927201404
20
-26.999936803820901
30
0
40
3.9999896589295396
210
0
220
0
230
1
100
AcDbArc
50
180.00091278265774
51
269.99992700236118
0
LINE
5
184
100
AcDbEntity
8
0
100
AcDbLine
10
-33.000006585623346
20
-27.000000527926904
30
0
11
-33.000007599783302
21
-22.9999979948416
31
0
0
ARC
5
185
100
AcDbEntity
8
0
100
AcDbCircle
10
-28.999991925024101
20
-22.999915672768104
30
0
40
4.0000156756063205
210
0
220
-0
230
1
100
AcDbArc
50
89.999927002361829
51
180.00117917206322
0
LINE
5
186
100
AcDbEntity
8
0
100
AcDbLine
10
-28.9999868288076
20
-18.999899997165027
30
0
11
-1.0000050216094492
21
-18.999935670517502
31
0
0
ARC
5
187
100
AcDbEntity
8
0
100
AcDbCircle
10
-1.00000247351126
20
-16.9999356705192
30
0
40
1.9999999999999241
210
0
220
0
230
1
100
AcDbArc
50
269.99992700236396
51
359.99992700360144
0
LINE
5
188
100
AcDbEntity
8
0
100
AcDbLine
10
0.99999752648707696
20
-16.999938218617402
30
0
11
1.0000000745063899
21
-15.000000223526202
31
0
0
LINE
5
189
100
AcDbEntity
8
0
100
AcDbLine
10
1.0000000745063899
20
-15.000000223526202
30
0
11
6.0000001490121901
21
-15.0000002235256
31
0
0
LINE
5
190
100
AcDbEntity
8
0
100
AcDbLine
10
6.0000001490121901
20
-15.0000002235256
30
0
11
6.0000001490133306
21
-23.999896955500599
31
0
0
ARC
5
191
100
AcDbEntity
8
0
100
AcDbCircle
10
8.0000001490134292
20
-23.999896955500301
30
0
40
2.0000000000000995
210
0
220
0
230
1
100
AcDbArc
50
180
51
269.99994809056693
0
LINE
5
192
100
AcDbEntity
8
0
100
AcDbLine
10
7.9999983370323902
20
-25.99989695549958
30
0
11
71.000025927691794
21
-25.999954032924105
31
0
0
LINE
5
193
100
AcDbEntity
8
0
100
AcDbLine
10
71.000025927691794
20
-25.999954032924105
30
0
11
134.00000166296999
21
-25.9998969554917
31
0
0
ARC
5
194
100
AcDbEntity
8
0
100
AcDbCircle
10
133.99999985098799
20
-23.999896955492403
30
0
40
2.0000000000001208
210
0
220
0
230
1
100
AcDbArc
50
270.00005190946064
51
360
0
LINE
5
195
100
AcDbEntity
8
0
100
AcDbLine
10
135.99999985098808
20
-23.999896955492499
30
0
11
135.99999985098799
21
-15.0000002235174
31
0
0
LINE
5
196
100
AcDbEntity
8
0
100
AcDbLine
10
135.99999985098799
20
-15.0000002235174
30
0
11
140.999999925494
21
-15.0000002235174
31
0
0
LINE
5
197
100
AcDbEntity
8
0
100
AcDbLine
10
140.999999925494
20
-15.0000002235174
30
0
11
141.000002473514
21
-16.999938218608605
31
0
0
ARC
5
198
100
AcDbEntity
8
0
100
AcDbCircle
10
143.00000247351201
20
-16.999935670510201
30
0
40
1.9999999999996265
210
0
220
0
230
1
100
AcDbArc
50
180.00007299639853
51
270.00007299765895
0
LINE
5
199
100
AcDbEntity
8
0
100
AcDbLine
10
143.000005021611
20
-18.999935670508531
30
0
11
170.99998682880903
21
-18.9998999971525
31
0
0
ARC
5
200
100
AcDbEntity
8
0
100
AcDbCircle
10
170.99999192502599
20
-22.999915672755598
30
0
40
4.0000156756062948
210
0
220
0
230
1
100
AcDbArc
50
-0.001179172063230151
51
90.000072997644835
0
LINE
5
201
100
AcDbEntity
8
0
100
AcDbLine
10
175.00000759978519
20
-22.9999979948286
30
0
11
175.00000658562499
21
-27.000000527913901
31
0
0
ARC
5
202
100
AcDbEntity
8
0
100
AcDbCircle
10
171.00001692720301
20
-26.999936803808403
30
0
40
3.9999896589294526
210
0
220
0
230
1
100
AcDbArc
50
270.00007299764735
51
359.99908721734221
0
LINE
5
203
100
AcDbEntity
8
0
100
AcDbLine
10
171.000022023387
20
-30.999926462734607
30
0
11
143.00002031023499
21
-30.999962136116004
31
0
0
ARC
5
204
100
AcDbEntity
8
0
100
AcDbCircle
10
143.00002285833401
20
-32.999962136114299
30
0
40
1.9999999999999196
210
0
220
0
230
1
100
AcDbArc
50
90.000072997659785
51
180.00007299639853
0
LINE
5
205
100
AcDbEntity
8
0
100
AcDbLine
10
141.00002285833563
20
-32.999964684212898
30
0
11
141.00002540647901
21
-35.000000521540599
31
0
0
LINE
5
206
100
AcDbEntity
8
0
100
AcDbLine
10
141.00002540647901
20
-35.000000521540599
30
0
11
138.00000166296999
21
-35.000000521540599
31
0
0
ARC
5
207
100
AcDbEntity
8
0
100
AcDbCircle
10
138.00000166296999
20
-37.000000521540699
30
0
40
2.0000000000000995
210
0
220
-0
230
1
100
AcDbArc
50
90
51
180.00005190494394
0
LINE
5
208
100
AcDbEntity
8
0
100
AcDbLine
10
136.00000166297082
20
-37.000002333521891
30
0
11
136.00000483393501
21
-40.9999986797567
31
0
0
ARC
5
209
100
AcDbEntity
8
0
100
AcDbCircle
10
134.000004833936
20
-41.0000004917379
30
0
40
2.0000000000002149
210
0
220
0
230
1
100
AcDbArc
50
-90
51
5.1904943952083148e-05
0
LINE
5
210
100
AcDbEntity
8
0
100
AcDbLine
10
134.000004833936
20
-43.000000491738113
30
0
11
90.999993752688212
21
-43.000000491738305
31
0
0
ARC
5
211
100
AcDbEntity
8
0
100
AcDbCircle
10
90.999993752688212
20
-45.000000491738305
30
0
40
2.0000000000000018
210
0
220
-0
230
1
100
AcDbArc
50
90
51
180
0
LINE
5
212
100
AcDbEntity
8
0
100
AcDbLine
10
88.999993752688212
20
-45.000000491738305
30
0
11
88.999993752688198
21
-51.000000491738398
31
0
0
ARC
5
213
100
AcDbEntity
8
0
100
AcDbCircle
10
86.999993752688198
20
-51.000000491738398
30
0
40
1.9999999999999662
210
0
220
0
230
1
100
AcDbArc
50
-90
51
0
0
LINE
5
214
100
AcDbEntity
8
0
100
AcDbLine
10
86.999993752688198
20
-53.000000491738362
30
0
11
49.000006247317103
21
-53.000000491740202
31
0
0
ARC
5
215
100
AcDbEntity
8
0
100
AcDbCircle
10
49.000006247316897
20
-51.000000491739705
30
0
40
2.0000000000000018
210
0
220
0
230
1
100
AcDbArc
50
180
51
270.00000000000591
0
LINE
5
216
100
AcDbEntity
8
0
100
AcDbLine
10
128.99789513119899
20
-5.0000000745058406
30
0
11
131.00000201165699
21
-5.0000000745058104
31
0
0
LINE
5
217
100
AcDbEntity
8
0
100
AcDbLine
10
131.00000201165699
20
-5.0000000745058104
30
0
11
131.00000201165699
21
-10.0000000745056
31
0
0
LINE
5
218
100
AcDbEntity
8
0
100
AcDbLine
10
131.00000201165699
20
-10.0000000745056
30
0
11
111.00000171363402
21
-10.000000149011601
31
0
0
LINE
5
219
100
AcDbEntity
8
0
100
AcDbLine
10
111.00000171363402
20
-10.000000149011601
30
0
11
111.00000171363402
21
-5.0000000745058104
31
0
0
LINE
5
220
100
AcDbEntity
8
0
100
AcDbLine
10
111.00000171363402
20
-5.0000000745058104
30
0
11
113.00000176407102
21
-5.00000007450579
31
0
0
ARC
5
221
100
AcDbEntity
8
0
100
AcDbCircle
10
113.00000176407102
20
-3.0000000745058002
30
0
40
1.9999999999999902
210
0
220
0
230
1
100
AcDbArc
50
-90
51
0
0
LINE
5
222
100
AcDbEntity
8
0
100
AcDbLine
10
115.000001764071
20
-3.0000000538391305
30
0
11
115.000001474738
21
25.000000072244003
31
0
0
ARC
5
223
100
AcDbEntity
8
0
100
AcDbCircle
10
119.00000143310902
20
25.0000001231769
30
0
40
3.9999999980729761
210
0
220
-0
230
1
100
AcDbArc
50
89.99999980420607
51
180
0
LINE
5
224
100
AcDbEntity
8
0
100
AcDbLine
10
119.00000144677801
20
29.000000121249876
30
0
11
123.000001375924
21
29.000000166172303
31
0
0
ARC
5
225
100
AcDbEntity
8
0
100
AcDbCircle
10
123.00000143311202
20
25.000000168058804
30
0
40
3.9999999885149871
210
0
220
0
230
1
100
AcDbArc
50
-0.0043101248729981081
51
90.000000819158018
0
LINE
5
226
100
AcDbEntity
8
0
100
AcDbLine
10
127.00000141030914
20
24.999699264573103
30
0
11
126.99789513685801
21
-2.9998496239786121
31
0
0
ARC
5
227
100
AcDbEntity
8
0
100
AcDbCircle
10
128.99789513119899
20
-3.0000000745058104
30
0
40
1.9999999999998219
210
0
220
0
230
1
100
AcDbArc
50
179.9956899099659
51
270
0
LWPOLYLINE
5
228
100
AcDbEntity
8
0
100
AcDbPolyline
90
8
70
1
43
0.0
10
86.499998658895521
20
-12.999997988343209
42
-0.41421356237309503
10
88.499998658895507
20
-14.999997988343202
10
88.499998658895507
20
-21.0000003427267
42
-0.41421356237309503
10
86.499998658895521
20
-23.00000034272669
10
55.500001341101409
20
-23.000000342726693
42
-0.41421356237309503
10
53.500001341101409
20
-21.0000003427267
10
53.500001341101409
20
-14.999997988343202
42
-0.41421356237309503
10
55.500001341101409
20
-12.99999798834321
0
LINE
5
229
100
AcDbEntity
8
0
100
AcDbLine
10
18.9999986240698
20
29.000000166163904
30
0
11
22.999998553215903
21
29.000000121242003
31
0
0
ARC
5
230
100
AcDbEntity
8
0
100
AcDbCircle
10
22.999998517067205
20
25.000000099998001
30
0
40
4.0000000081892706
210
0
220
0
230
1
100
AcDbArc
50
0
51
89.99999948220804
0
LINE
5
231
100
AcDbEntity
8
0
100
AcDbLine
10
26.999998525256473
20
25.000000072236702
30
0
11
26.999998235927801
21
-3.00000005384637
31
0
0
ARC
5
232
100
AcDbEntity
8
0
100
AcDbCircle
10
28.999998235927702
20
-3.0000000745127098
30
0
40
1.9999999999998996
210
0
220
0
230
1
100
AcDbArc
50
180
51
270.00000000001148
0
LINE
5
233
100
AcDbEntity
8
0
100
AcDbLine
10
28.999998235928103
20
-5.0000000745126707
30
0
11
30.999998286365603
21
-5.0000000745123803
31
0
0
LINE
5
234
100
AcDbEntity
8
0
100
AcDbLine
10
30.999998286365603
20
-5.0000000745123803
30
0
11
30.999998286366402
21
-10.0000001490182
31
0
0
LINE
5
235
100
AcDbEntity
8
0
100
AcDbLine
10
30.999998286366402
20
-10.0000001490182
30
0
11
10.9999979883432
21
-10.0000000745154
31
0
0
LINE
5
236
100
AcDbEntity
8
0
100
AcDbLine
10
10.9999979883432
20
-10.0000000745154
30
0
11
10.9999979883424
21
-5.0000000745156807
31
0
0
LINE
5
237
100
AcDbEntity
8
0
100
AcDbLine
10
10.9999979883424
20
-5.0000000745156807
30
0
11
13.002104868800302
21
-5.0000000745153503
31
0
0
ARC
5
238
100
AcDbEntity
8
0
100
AcDbCircle
10
13.002104868800002
20
-3.0000000745153499
30
0
40
2.0000000000000009
210
0
220
0
230
1
100
AcDbArc
50
-89.999999999991402
51
0.0043100900340887387
0
LINE
5
239
100
AcDbEntity
8
0
100
AcDbLine
10
15.002104863141161
20
-2.9998496239878101
30
0
11
14.999998589684802
21
24.999699264563905
31
0
0
ARC
5
240
100
AcDbEntity
8
0
100
AcDbCircle
10
18.999998507994899
20
25.000000174895799
30
0
40
3.9999999912681057
210
0
220
-0
230
1
100
AcDbArc
50
89.999998337349524
51
180.00431022304619
0
LWPOLYLINE
5
241
100
AcDbEntity
8
0
100
AcDbPolyline
90
16
70
1
43
0.0
10
126.000004321337
20
-102.00000154972102
42
-0.41421356237309503
10
124.00000432133702
20
-104.00000154972102
10
96.00000387430191
20
-104.00000154972096
42
-0.41421356237309503
10
92.000003874301953
20
-100.00000154972101
10
92.00000387430191
20
-59.000000819563908
42
-0.61803398874989413
10
93.600003874301905
20
-58.200000819563897
42
1.1646479451087748
10
97.333337207635196
20
-51.228764653235643
42
-0.31783724519577888
10
96.000003874301868
20
-49.343146570071497
10
96.000003874301882
20
-48.000000670552303
42
-0.41421356237309503
10
98.000003874301896
20
-46.000000670552303
10
126.000004321337
20
-46.000000670552396
42
-0.41421356237309503
10
130.00000432133692
20
-50.000000670552311
10
130.00000432133706
20
-91.000001415610313
42
-0.61803398874989723
10
128.40000432133701
20
-91.800001415610325
42
1.164647945108674
10
124.66667098800298
20
-98.771237581938593
42
-0.31783724519588796
10
126.00000432133704
20
-100.656855665103
0
LWPOLYLINE
5
242
100
AcDbEntity
8
0
100
AcDbPolyline
90
8
70
1
43
0.0
10
88.499998658895507
20
-135.00000201165699
10
88.499998658895507
20
-128.99999965727301
42
0.41421356237309503
10
86.499998658895521
20
-126.99999965727301
10
55.500001341101409
20
-126.99999965727302
42
0.41421356237309503
10
53.500001341101402
20
-128.99999965727301
10
53.500001341101409
20
-135.00000201165699
42
0.41421356237309503
10
55.500001341101409
20
-137.00000201165699
10
86.499998658895521
20
-137.00000201165699
42
0.41421356237309503
0
LWPOLYLINE
5
243
100
AcDbEntity
8
0
100
AcDbPolyline
90
8
70
1
43
0.0
10
16.000002622604299
20
-97.400000000000006
42
-0.41421356237309503
10
11.000002622604299
20
-92.400000000000006
10
11.00000262260429
20
-57.600000000000009
42
-0.41421356237309503
10
16.000002622604299
20
-52.599999999999994
10
37.400002622604298
20
-52.599999999999994
42
-0.41421356237309503
10
42.400002622604305
20
-57.600000000000009
10
42.400002622604319
20
-92.400000000000006
42
-0.41421356237309503
10
37.400002622604298
20
-97.40000000000002
0
CIRCLE
5
244
100
AcDbEntity
8
0
100
AcDbCircle
10
96.00000387430191
20
-55.000000819563901
30
0
40
1.5000000000000202
210
0
220
0
230
1
0
CIRCLE
5
245
100
AcDbEntity
8
0
100
AcDbCircle
10
85.100003501772918
20
-60.900001117587109
30
0
40
1.25
210
0
220
0
230
1
0
CIRCLE
5
246
100
AcDbEntity
8
0
100
AcDbCircle
10
42.400002622604298
20
-99.400000000000006
30
0
40
1.49999999999999
210
0
220
0
230
1
0
CIRCLE
5
247
100
AcDbEntity
8
0
100
AcDbCircle
10
42.400002622604298
20
-50.600000000000009
30
0
40
1.49999999999999
210
0
220
0
230
1
0
CIRCLE
5
248
100
AcDbEntity
8
0
100
AcDbCircle
10
126.000004321337
20
-95.000001415610299
30
0
40
1.49999999999999
210
0
220
0
230
1
0
CIRCLE
5
249
100
AcDbEntity
8
0
100
AcDbCircle
10
56.9000035017729
20
-89.100001117587112
30
0
40
1.25
210
0
220
0
230
1
0
CIRCLE
5
250
100
AcDbEntity
8
0
100
AcDbCircle
10
11.000002622604301
20
-99.400000000000006
30
0
40
1.49999999999999
210
0
220
0
230
1
0
CIRCLE
5
251
100
AcDbEntity
8
0
100
AcDbCircle
10
11.000002622604301
20
-50.600000000000009
30
0
40
1.49999999999999
210
0
220
0
230
1
0
LWPOLYLINE
5
252
100
AcDbEntity
8
0
100
AcDbPolyline
90
120
70
1
43
0.0
10
-0.99999968239565473
20
-40.000000336493223
42
-0.4142135274451505
10
1.0000000794206063
20
-42.000000336173997
10
1.0000000745057802
20
-60.000000894069707
10
6.0000000745057802
20
-60.000000894069707
10
6.0000000745057802
20
-89.999999105930314
10
1.0000000745057802
20
-89.999999105930314
10
1.00000007468078
20
-107.99999964106702
42
-0.4142135274575221
10
-0.99999968688973007
20
-109.99999964107799
10
-2.0000002312438498
20
-109.99999976029301
42
0.41421352745755491
10
-3.9999999927826106
20
-111.99999976033601
10
-3.9999999926337582
20
-112.99999947692902
42
-0.4142135623731022
10
-5.9999999925888403
20
-114.99999947697401
10
-29.0000050660122
20
-114.99999947719401
42
0.41421356237207108
10
-37.000005065930381
20
-122.99999947723003
10
-37.000005065914898
20
-127.00000200978101
42
0.41421356237533569
10
-29.000005065788304
20
-135.0000020097244
10
-5.999999989132192
20
-135.00000200937791
42
-0.41421356237324025
10
-3.9999999890471098
20
-137.00000200932203
10
-3.9999999878475698
20
-144.99999988617
42
0.41421356236605894
10
1.0000000141756604
20
-149.99999988392534
10
8.9999983273082105
20
-149.99999996316077
42
-0.41421356244679081
10
10.999998353747671
20
-151.99999993868704
10
10.999998614008399
20
-175.00073741863102
42
0.41418657385309676
10
18.999998669017401
20
-183.00000016621422
10
22.999998597946401
20
-183.00000012128504
42
0.41421356246863456
10
30.999998525283218
20
-175.00000003045599
10
30.999998284852779
20
-152.00000022221602
42
-0.41421356238044793
10
32.99999826378
20
-150.00000020087097
10
34.000000563809401
20
-150.000000210775
42
0.4142135623679104
10
36.000000565218279
20
-148.00000021233501
10
36.000000565437915
20
-146.999999938586
42
-0.41421356236728024
10
38.000000565598199
20
-144.999999938786
10
53.500001341104507
20
-144.999999940028
10
53.500001341104507
20
-139.999999925494
10
88.499998658895507
20
-139.999999925494
10
88.499998658895507
20
-144.99999993832699
10
103.999999372502
20
-144.99999993932585
42
-0.41421356237705176
10
105.99999937238519
20
-146.99999993949601
10
105.99999937216401
20
-148.00000026795701
42
0.41421356236635998
10
107.99999937063801
20
-150.00000026937221
10
109.000001689844
20
-150.00000025667001
42
-0.4142135624083858
10
111.00000166762
20
-152.00000028057099
10
111.00000142571501
20
-175.00000003213501
42
0.41421356212633204
10
119.00000135067501
20
-183.000000125631
10
123.000001410772
20
-183.00000017054401
42
0.41418676110755598
10
131.00000146704633
20
-175.00073230657398
10
131.00000172378273
20
-151.99999993120801
42
-0.41421356237705437
10
133.000001744217
20
-149.99999995181273
10
141.00000001007999
20
-149.99999985019301
42
0.41421356236923035
10
146.00000000816155
20
-144.99999984841801
10
146.00000000798101
20
-137.00000200580499
42
-0.41421356237308982
10
148.00000000793401
20
-135.00000200575801
10
171.00000506842602
20
-135.00000200522601
42
0.41421356237020163
10
179.00000506824099
20
-127.00000200512001
10
179.00000506818699
20
-122.99999947203102
42
0.41421356237587725
10
171.000005068001
20
-114.99999947214104
10
148.00000000747201
20
-114.99999947267597
42
-0.41421356237310025
10
146.00000000742602
20
-112.999999472722
10
146.00000000740204
20
-111.99999976035102
42
0.41421352745758827
10
144.000000245801
20
-109.99999976037
10
142.999999687317
20
-109.99999964116489
42
-0.41421352745407114
10
140.99999992572913
20
-107.999999641195
10
140.999999925494
20
-92.499999105930314
10
135.999999925494
20
-92.499999105930314
10
135.999999925494
20
-57.500000894069707
10
140.999999925624
20
-57.500000894069707
10
140.99999992569369
20
-42.000000359226199
42
-0.41421352753742174
10
142.99999968707604
20
-40.000000359988775
10
144.00000023841901
20
-40.000000240786406
42
0.41421352764492092
10
146.00000002854563
20
-38.0000002384186
10
146.00000156702237
20
-37.000076363428199
42
-0.41421356237313339
10
148.00000464420799
20
-35.000079440618279
10
170.99999275706099
20
-35.000114828257701
42
0.41421401173064198
10
179.00000506581208
20
-27.000114863398998
10
179.000005083377
20
-23.0001823545023
42
0.41421311301569835
10
171.000017392128
20
-15.000182319379697
10
148.00003541597999
20
-15.000146931749921
42
-0.41421356237319029
10
146.00003849316943
20
-13.000143854564602
10
146.000050802141
20
-5.0000000002349401
42
0.41421357449044494
10
141
20
3.6936414060441672e-07
10
133.00000171362399
20
2.7960030929419233e-07
42
-0.41421356237310042
10
131.00000169118312
20
2.0000002571592512
10
131.000001433112
20
25.000000257822805
42
0.41421356237309503
10
123.00000134334802
20
33.000000168058918
10
119.00000134334502
20
33.000000123176903
42
0.41421356237309132
10
111.00000143310905
20
25.000000033413002
10
111.00000169118006
20
2.0000000327498713
42
-0.41421356237308299
10
109.00000171362102
20
1.0308830178384909e-08
10
107.99999940395402
20
-9.1167962068539055e-10
42
0.41421356230674672
10
105.9999994040426
20
-1.9999999999999905
10
105.99999940404265
20
-3.0000000745058104
42
-0.41421356236752921
10
103.99999940398502
20
-5.0000000745254702
10
88.499998658895507
20
-5.00000007452444
10
88.499998658895507
20
-10.000000074505802
10
53.500001341104507
20
-10.000000074505802
10
53.500001341109709
20
-5.0001442261617299
10
37.999907543897201
20
-5.0001355702014365
42
-0.4142133885356728
10
35.999695707174496
20
-2.99992268662107
10
35.999695672125597
20
-2.0005998022943801
42
0.41421354881296257
10
33.999008536939698
20
8.7285179699499003e-05
10
32.9999986370063
20
8.7250142036254807e-05
42
-0.4142135613717835
10
30.999997898740276
20
2.0000865051152905
10
30.999998549773405
20
24.9999998814428
42
0.41421356736837806
10
22.9999985991827
20
33.000000132704223
10
18.999998596868899
20
33.0000001774225
42
0.41425921533262833
10
10.999998602631809
20
24.998753332272695
10
10.999997858989456
20
2.0000872154767184
42
-0.41421356113562741
10
8.9999986749579008
20
8.6408403745796836e-05
10
1.00000017397608
20
8.6127824339143899e-05
42
0.41421368290491822
10
-3.9999996506612119
20
-4.9999161051445498
10
-4.0000383811317608
20
-13.000143935339201
42
-0.41421356237488544
10
-6.0000353014707697
20
-15.00014701500778
10
-29.008614497198103
20
-15.000182443788098
42
0.41389839321614136
10
-37.000005101421756
20
-23.000177811008303
10
-37.000005111333202
20
-27.000112366189803
42
0.41421401742903141
10
-28.999992762426704
20
-35.000112446536946
10
-6.0000045925694279
20
-35.000079291899198
42
-0.41421356238475815
10
-4.0000015057079716
20
-37.000076205112599
10
-3.99999996587507
20
-38.0000032972941
42
0.41421307645246652
10
-2.0000002040635696
20
-40.000000217401322
0
LWPOLYLINE
5
253
100
AcDbEntity
8
0
100
AcDbPolyline
90
12
70
1
43
0.0
10
30.999998286365699
20
-144.999999925488
10
30.999998286366498
20
-139.99999985098199
10
10.9999979883432
20
-139.99999992548504
10
10.9999979883424
20
-144.99999992548399
10
13.002104868800302
20
-144.99999992548499
42
-0.41423559551428152
10
15.002104863141302
20
-147.00015037601199
10
14.999998589684969
20
-174.99969926456399
42
0.41423559882104344
10
18.999998624069899
20
-179.000000166164
10
22.999998553215999
20
-179.00000012124156
42
0.4142135627904614
10
26.999998525256604
20
-175.00000007223701
10
26.999998235927812
20
-146.99999994615399
42
-0.41421356539974896
10
28.999998235928103
20
-144.99999992548703
0
LWPOLYLINE
5
254
100
AcDbEntity
8
0
100
AcDbPolyline
90
8
70
1
43
0.0
10
130.99999865889501
20
-135.00000201165699
10
130.99999865889501
20
-128.99999965727301
42
0.41421356237309243
10
128.99999865889501
20
-126.99999965727301
10
98.000001341101409
20
-126.99999965727302
42
0.41421356237309503
10
96.000001341101395
20
-128.99999965727301
10
96.000001341101409
20
-135.00000201165699
42
0.41421356237309503
10
98.000001341101409
20
-137.00000201165699
10
128.99999865889501
20
-137.00000201165699
42
0.41421356237309503
0
LWPOLYLINE
5
255
100
AcDbEntity
8
0
100
AcDbPolyline
90
12
70
1
43
0.0
10
119.00000144677801
20
-179.00000012125003
10
123.000001375924
20
-179.00000016617199
42
0.41423559882097971
10
127.000001410309
20
-174.999699264573
10
126.99789513685781
20
-147.000150376021
42
-0.41423559551431371
10
128.99789513119899
20
-144.999999925494
10
131.00000201165699
20
-144.999999925494
10
131.00000201165699
20
-139.999999925494
10
111.00000171363402
20
-139.99999985098799
10
111.00000171363402
20
-144.999999925494
10
113.00000176407102
20
-144.99999992549402
42
-0.41421356539970799
10
115.000001764071
20
-146.99999994616101
10
115.00000147473743
20
-175.00000007224398
42
0.41421356279054139
0
LWPOLYLINE
5
256
100
AcDbEntity
8
0
100
AcDbPolyline
90
8
70
1
43
0.0
10
13.000001341105001
20
-137.00000201164707
42
-0.41421356237304918
10
11.00000134110527
20
-135.00000201164704
10
11.000001341106316
20
-128.999999657263
42
-0.4142135623729975
10
13.000001341106602
20
-126.99999965726403
10
43.9999986589008
20
-126.999999657269
42
-0.41421356237305862
10
45.999998658900495
20
-128.99999965726903
10
45.9999986588995
20
-135.00000201165301
42
-0.41421356237300139
10
43.999998658899102
20
-137.00000201165199
0
LWPOLYLINE
5
257
100
AcDbEntity
8
0
100
AcDbPolyline
90
16
70
1
43
0.0
10
80.100003501772918
20
-60.900001117587109
10
80.100003501772918
20
-58.500000834464998
42
0.41421356237310958
10
77.600003501772804
20
-56.000000834464998
10
60.000003218650697
20
-56.000000834465325
42
0.41421356237309115
10
52.000003218650797
20
-64.000000834465297
10
52.000003218650797
20
-81.600001117587112
42
0.41421356237309193
10
54.500003218650797
20
-84.100001117587112
10
56.9000035017729
20
-84.100001117587112
42
-0.41421356237309503
10
61.9000035017729
20
-89.100001117587112
10
61.9000035017729
20
-91.500001400709209
42
0.41421356237309193
10
64.4000035017729
20
-94.000001400709209
10
82.000003784894901
20
-94.000001400709209
42
0.41421356237309631
10
90.000003784894901
20
-86.000001400709195
10
90.000003784894872
20
-68.400001117587095
42
0.41421356237309709
10
87.500003784894901
20
-65.900001117587095
10
85.100003501772918
20
-65.900001117587109
42
-0.41421356237309503
0
CIRCLE
5
258
100
AcDbEntity
8
0
100
AcDbCircle
10
96.00000387430191
20
-55.000000819563901
30
0
40
1.5000000000000202
210
0
220
-0
230
1
0
CIRCLE
5
259
100
AcDbEntity
8
0
100
AcDbCircle
10
85.100003501772918
20
-60.900001117587109
30
0
40
1.25
210
0
220
-0
230
1
0
CIRCLE
5
260
100
AcDbEntity
8
0
100
AcDbCircle
10
42.400002622604298
20
-99.400000000000006
30
0
40
1.49999999999999
210
0
220
-0
230
1
0
CIRCLE
5
261
100
AcDbEntity
8
0
100
AcDbCircle
10
42.400002622604298
20
-50.600000000000009
30
0
40
1.49999999999999
210
0
220
-0
230
1
0
CIRCLE
5
262
100
AcDbEntity
8
0
100
AcDbCircle
10
126.000004321337
20
-95.000001415610299
30
0
40
1.49999999999999
210
0
220
-0
230
1
0
CIRCLE
5
263
100
AcDbEntity
8
0
100
AcDbCircle
10
56.9000035017729
20
-89.100001117587112
30
0
40
1.25
210
0
220
-0
230
1
0
LINE
5
264
100
AcDbEntity
8
0
100
AcDbLine
10
70.999974072310195
20
-124.00004596707602
30
0
11
7.9999983370323857
21
-124.00010304449999
31
0
0
ARC
5
265
100
AcDbEntity
8
0
100
AcDbCircle
10
8.0000001490134292
20
-126.00010304450001
30
0
40
2.0000000000008313
210
0
220
0
230
1
100
AcDbArc
50
90.000051909433168
51
180
0
LINE
5
266
100
AcDbEntity
8
0
100
AcDbLine
10
6.000000149013359
20
-126.00010304449901
30
0
11
6.0000001490121901
21
-134.999999776474
31
0
0
LINE
5
267
100
AcDbEntity
8
0
100
AcDbLine
10
6.0000001490121901
20
-134.999999776474
30
0
11
1.0000000745063897
21
-134.999999776474
31
0
0
LINE
5
268
100
AcDbEntity
8
0
100
AcDbLine
10
1.0000000745063897
20
-134.999999776474
30
0
11
0.99999752648706408
21
-133.00006178138301
31
0
0
ARC
5
269
100
AcDbEntity
8
0
100
AcDbCircle
10
-1.00000247351126
20
-133.00006432948101
30
0
40
1.9999999999999474
210
0
220
-0
230
1
100
AcDbArc
50
7.299639853675914e-05
51
90.000072997636039
0
LINE
5
270
100
AcDbEntity
8
0
100
AcDbLine
10
-1.0000050216094503
20
-131.00006432948271
30
0
11
-28.9999868288076
21
-131.00010000283501
31
0
0
ARC
5
271
100
AcDbEntity
8
0
100
AcDbCircle
10
-28.999991925024116
20
-127.00008432723202
30
0
40
4.0000156756062779
210
0
220
0
230
1
100
AcDbArc
50
179.99882082793681
51
270.00007299763843
0
LINE
5
272
100
AcDbEntity
8
0
100
AcDbLine
10
-33.000007599783281
20
-127.00000200515801
30
0
11
-33.000006585623296
21
-122.999999472073
31
0
0
ARC
5
273
100
AcDbEntity
8
0
100
AcDbCircle
10
-29.000016927201429
20
-123.00006319617896
30
0
40
3.9999896589294215
210
0
220
0
230
1
100
AcDbArc
50
90.000072997638483
51
179.99908721734226
0
LINE
5
274
100
AcDbEntity
8
0
100
AcDbLine
10
-29.000022023384805
20
-119.00007353725279
30
0
11
-1.0000203102327987
21
-119.00003786387501
31
0
0
ARC
5
275
100
AcDbEntity
8
0
100
AcDbCircle
10
-1.00002285833103
20
-117.000037863877
30
0
40
1.9999999999996265
210
-0
220
0
230
1
100
AcDbArc
50
-89.999927002362824
51
7.299639853675914e-05
0
LINE
5
276
100
AcDbEntity
8
0
100
AcDbLine
10
0.99997714166734697
20
-117.00003531577801
30
0
11
0.99997459352358908
21
-114.999999478451
31
0
0
LINE
5
277
100
AcDbEntity
8
0
100
AcDbLine
10
0.99997459352358908
20
-114.999999478451
30
0
11
3.9999983370326908
21
-114.999999478451
31
0
0
ARC
5
278
100
AcDbEntity
8
0
100
AcDbCircle
10
3.9999983370329399
20
-112.99999947845102
30
0
40
1.9999999999999929
210
0
220
0
230
1
100
AcDbArc
50
-90.000000000007134
51
5.1904943952083148e-05
0
LINE
5
279
100
AcDbEntity
8
0
100
AcDbLine
10
5.9999983370321299
20
-112.99999766647021
30
0
11
5.9999953925658769
21
-109.000001320235
31
0
0
ARC
5
280
100
AcDbEntity
8
0
100
AcDbCircle
10
7.9999956190624992
20
-108.99999950825401
30
0
40
2.0000000000000107
210
0
220
-0
230
1
100
AcDbArc
50
89.999999999992511
51
180.00005190494394
0
LINE
5
281
100
AcDbEntity
8
0
100
AcDbLine
10
7.9999956190627604
20
-106.99999950825399
30
0
11
45.000006247315902
21
-106.99999950825899
31
0
0
ARC
5
282
100
AcDbEntity
8
0
100
AcDbCircle
10
45.0000062473162
20
-104.99999950826002
30
0
40
1.9999999999989804
210
0
220
0
230
1
100
AcDbArc
50
-90.000000000008541
51
0
0
LINE
5
283
100
AcDbEntity
8
0
100
AcDbLine
10
47.000006247315454
20
-104.99999950826002
30
0
11
47.000006247316399
21
-98.999999508260117
31
0
0
ARC
5
284
100
AcDbEntity
8
0
100
AcDbCircle
10
49.000006247316904
20
-98.999999508260316
30
0
40
2.0000000000005258
210
0
220
-0
230
1
100
AcDbArc
50
89.999999999994301
51
180
0
LINE
5
285
100
AcDbEntity
8
0
100
AcDbLine
10
49.000006247317103
20
-96.999999508259805
30
0
11
86.999993752688297
21
-96.999999508261695
31
0
0
ARC
5
286
100
AcDbEntity
8
0
100
AcDbCircle
10
86.999993752688198
20
-98.999999508261624
30
0
40
1.9999999999999574
210
0
220
-0
230
1
100
AcDbArc
50
0
51
89.999999999997144
0
LINE
5
287
100
AcDbEntity
8
0
100
AcDbLine
10
88.999993752688169
20
-98.999999508261595
30
0
11
88.999993752688198
21
-104.99999950826201
31
0
0
ARC
5
288
100
AcDbEntity
8
0
100
AcDbCircle
10
90.999993752688212
20
-104.99999950826201
30
0
40
2.0000000000000107
210
0
220
0
230
1
100
AcDbArc
50
180
51
270
0
LINE
5
289
100
AcDbEntity
8
0
100
AcDbLine
10
90.999993752688212
20
-106.99999950826199
30
0
11
134.00000438094102
21
-106.99999928176439
31
0
0
ARC
5
290
100
AcDbEntity
8
0
100
AcDbCircle
10
134.00000438094099
20
-108.99999950826202
30
0
40
2.0000004529948825
210
0
220
0
230
1
100
AcDbArc
50
-5.1904943960176338e-05
51
89.99999999999919
0
LINE
5
291
100
AcDbEntity
8
0
100
AcDbLine
10
136.00000483393504
20
-109.00000132024302
30
0
11
136.00000120997601
21
-112.99999766647801
31
0
0
ARC
5
292
100
AcDbEntity
8
0
100
AcDbCircle
10
138.00000166296999
20
-112.99999947845902
30
0
40
2.0000004529948119
210
0
220
0
230
1
100
AcDbArc
50
179.99994809505606
51
270.0000000000008
0
LINE
5
293
100
AcDbEntity
8
0
100
AcDbLine
10
138.00000166297002
20
-114.99999993145394
30
0
11
141.00002540647901
21
-114.999999478459
31
0
0
LINE
5
294
100
AcDbEntity
8
0
100
AcDbLine
10
141.00002540647901
20
-114.999999478459
30
0
11
141.000022858335
21
-117.00003531578702
31
0
0
ARC
5
295
100
AcDbEntity
8
0
100
AcDbCircle
10
143.00002285833401
20
-117.00003786388601
30
0
40
2.0000000000006213
210
0
220
0
230
1
100
AcDbArc
50
179.99992700360147
51
269.9999270023402
0
LINE
5
296
100
AcDbEntity
8
0
100
AcDbLine
10
143.00002031023499
20
-119.0000378638844
30
0
11
171.000022023387
21
-119.00007353726501
31
0
0
ARC
5
297
100
AcDbEntity
8
0
100
AcDbCircle
10
171.00001692720301
20
-123.000063196192
30
0
40
3.9999896589295352
210
0
220
-0
230
1
100
AcDbArc
50
0.00091278265773879637
51
89.999927002352621
0
LINE
5
298
100
AcDbEntity
8
0
100
AcDbLine
10
175.00000658562496
20
-122.99999947208602
30
0
11
175.00000759978502
21
-127.00000200517101
31
0
0
ARC
5
299
100
AcDbEntity
8
0
100
AcDbCircle
10
170.99999192502599
20
-127.00008432724404
30
0
40
4.0000156756062877
210
0
220
0
230
1
100
AcDbArc
50
-90.000072997644821
51
0.0011791720632143899
0
LINE
5
300
100
AcDbEntity
8
0
100
AcDbLine
10
170.99998682880903
20
-131.00010000284709
30
0
11
143.000005021611
21
-131.00006432949101
31
0
0
ARC
5
301
100
AcDbEntity
8
0
100
AcDbCircle
10
143.00000247351201
20
-133.00006432948999
30
0
40
2.0000000000006035
210
0
220
-0
230
1
100
AcDbArc
50
89.999927002341039
51
179.99992700360147
0
LINE
5
302
100
AcDbEntity
8
0
100
AcDbLine
10
141.00000247351369
20
-133.000061781391
30
0
11
140.999999925494
21
-134.99999977648301
31
0
0
LINE
5
303
100
AcDbEntity
8
0
100
AcDbLine
10
140.999999925494
20
-134.99999977648301
30
0
11
135.99999985098799
21
-134.99999977648301
31
0
0
LINE
5
304
100
AcDbEntity
8
0
100
AcDbLine
10
135.99999985098799
20
-134.99999977648301
30
0
11
135.99999985098799
21
-126.00010304450799
31
0
0
ARC
5
305
100
AcDbEntity
8
0
100
AcDbCircle
10
133.99999985098799
20
-126.00010304450799
30
0
40
1.9999999999999929
210
0
220
-0
230
1
100
AcDbArc
50
0
51
89.999948090539348
0
LINE
5
306
100
AcDbEntity
8
0
100
AcDbLine
10
134.00000166296999
20
-124.00010304450872
30
0
11
70.999974072310195
21
-124.00004596707602
31
0
0
LWPOLYLINE
5
307
100
AcDbEntity
8
0
100
AcDbPolyline
90
8
70
1
43
0.0
10
128.99999865889501
20
-12.999997988343164
42
-0.41421356237309115
10
130.99999865889504
20
-14.999997988343202
10
130.99999865889501
20
-21.0000003427267
42
-0.41421356237309503
10
128.99999865889501
20
-23.00000034272669
10
98.000001341101409
20
-23.000000342726693
42
-0.41421356237309503
10
96.000001341101409
20
-21.0000003427267
10
96.000001341101409
20
-14.999997988343202
42
-0.4142135623730957
10
98.000001341101409
20
-12.99999798834321
0
LWPOLYLINE
5
308
100
AcDbEntity
8
0
100
AcDbPolyline
90
8
70
1
43
0.0
10
11.000001341105301
20
-14.999997988353099
10
11.0000013411063
20
-21.000000342736605
42
0.4142135623730957
10
13.000001341106602
20
-23.0000003427363
10
43.999998658900701
20
-23.000000342731191
42
0.4142135623731113
10
45.999998658900402
20
-21.0000003427308
10
45.999998658899401
20
-14.999997988347403
42
0.41421356237309598
10
43.999998658899102
20
-12.999997988347701
10
13.000001341105001
20
-12.99999798835281
42
0.41421356237309537
0
LINE
5
309
100
AcDbEntity
8
0
100
AcDbLine
10
47.000006247316897
20
-51.000000491739897
30
0
11
47.000006247316207
21
-45.000000491739904
31
0
0
ARC
5
310
100
AcDbEntity
8
0
100
AcDbCircle
10
45.0000062473162
20
-45.00000049174011
30
0
40
2.0000000000000018
210
0
220
-0
230
1
100
AcDbArc
50
0
51
90.000000000008541
0
LINE
5
311
100
AcDbEntity
8
0
100
AcDbLine
10
45.000006247315902
20
-43.00000049174011
30
0
11
7.999995619062763
21
-43.000000718243612
31
0
0
ARC
5
312
100
AcDbEntity
8
0
100
AcDbCircle
10
7.9999956190625108
20
-41.000000491746206
30
0
40
2.0000004529948603
210
0
220
0
230
1
100
AcDbArc
50
179.99994809505606
51
270.00000000000722
0
LINE
5
313
100
AcDbEntity
8
0
100
AcDbLine
10
5.9999951660684712
20
-40.999998679764801
30
0
11
5.9999987900270604
21
-37.000002333530396
31
0
0
ARC
5
314
100
AcDbEntity
8
0
100
AcDbCircle
10
3.9999983370329399
20
-37.000000521548998
30
0
40
2.0000004529949407
210
-0
220
0
230
1
100
AcDbArc
50
-5.1904943960176338e-05
51
90.000000000007162
0
LINE
5
315
100
AcDbEntity
8
0
100
AcDbLine
10
3.9999983370326895
20
-35.000000068554058
30
0
11
0.99997459352358875
21
-35.000000521549403
31
0
0
LINE
5
316
100
AcDbEntity
8
0
100
AcDbLine
10
0.99997459352358875
20
-35.000000521549403
30
0
11
0.99997714166736507
21
-32.999964684221709
31
0
0
ARC
5
317
100
AcDbEntity
8
0
100
AcDbCircle
10
-1.00002285833103
20
-32.999962136123301
30
0
40
2.0000000000000182
210
-0
220
0
230
1
100
AcDbArc
50
-7.2996398552187649e-05
51
89.999927002362824
0
LINE
5
318
100
AcDbEntity
8
0
100
AcDbLine
10
-1.0000203102328002
20
-30.999962136124903
30
0
11
-29.000022023384805
21
-30.999926462747105
31
0
0
ARC
5
319
100
AcDbEntity
8
0
100
AcDbCircle
10
-29.000016927201401
20
-26.999936803820901
30
0
40
3.9999896589295441
210
0
220
0
230
1
100
AcDbArc
50
180.00091278265774
51
269.99992700236106
0
LINE
5
320
100
AcDbEntity
8
0
100
AcDbLine
10
-33.000006585623346
20
-27.000000527926904
30
0
11
-33.000007599783302
21
-22.9999979948416
31
0
0
ARC
5
321
100
AcDbEntity
8
0
100
AcDbCircle
10
-28.999991925024094
20
-22.999915672768108
30
0
40
4.0000156756063259
210
0
220
-0
230
1
100
AcDbArc
50
89.999927002361872
51
180.00117917206322
0
LINE
5
322
100
AcDbEntity
8
0
100
AcDbLine
10
-28.999986828807597
20
-18.999899997165027
30
0
11
-1.0000050216094492
21
-18.999935670517502
31
0
0
ARC
5
323
100
AcDbEntity
8
0
100
AcDbCircle
10
-1.00000247351126
20
-16.9999356705192
30
0
40
1.9999999999999241
210
0
220
0
230
1
100
AcDbArc
50
269.99992700236396
51
359.99992700360144
0
LINE
5
324
100
AcDbEntity
8
0
100
AcDbLine
10
0.99999752648707696
20
-16.999938218617402
30
0
11
1.0000000745063899
21
-15.000000223526202
31
0
0
LINE
5
325
100
AcDbEntity
8
0
100
AcDbLine
10
1.0000000745063899
20
-15.000000223526202
30
0
11
6.0000001490121901
21
-15.0000002235256
31
0
0
LINE
5
326
100
AcDbEntity
8
0
100
AcDbLine
10
6.0000001490121901
20
-15.0000002235256
30
0
11
6.0000001490133306
21
-23.999896955500599
31
0
0
ARC
5
327
100
AcDbEntity
8
0
100
AcDbCircle
10
8.0000001490134292
20
-23.999896955500301
30
0
40
2.0000000000000995
210
0
220
0
230
1
100
AcDbArc
50
180
51
269.99994809056693
0
LINE
5
328
100
AcDbEntity
8
0
100
AcDbLine
10
7.9999983370323902
20
-25.99989695549958
30
0
11
71.000025927691794
21
-25.999954032924105
31
0
0
LINE
5
329
100
AcDbEntity
8
0
100
AcDbLine
10
71.000025927691794
20
-25.999954032924105
30
0
11
134.00000166296999
21
-25.9998969554917
31
0
0
ARC
5
330
100
AcDbEntity
8
0
100
AcDbCircle
10
133.99999985098799
20
-23.999896955492403
30
0
40
2.0000000000001208
210
-0
220
0
230
1
100
AcDbArc
50
270.00005190946064
51
360
0
LINE
5
331
100
AcDbEntity
8
0
100
AcDbLine
10
135.99999985098808
20
-23.999896955492499
30
0
11
135.99999985098799
21
-15.0000002235174
31
0
0
LINE
5
332
100
AcDbEntity
8
0
100
AcDbLine
10
135.99999985098799
20
-15.0000002235174
30
0
11
140.999999925494
21
-15.0000002235174
31
0
0
LINE
5
333
100
AcDbEntity
8
0
100
AcDbLine
10
140.999999925494
20
-15.0000002235174
30
0
11
141.000002473514
21
-16.999938218608605
31
0
0
ARC
5
334
100
AcDbEntity
8
0
100
AcDbCircle
10
143.00000247351201
20
-16.999935670510201
30
0
40
1.9999999999996265
210
0
220
0
230
1
100
AcDbArc
50
180.00007299639853
51
270.00007299765895
0
LINE
5
335
100
AcDbEntity
8
0
100
AcDbLine
10
143.000005021611
20
-18.999935670508531
30
0
11
170.99998682880903
21
-18.9998999971525
31
0
0
ARC
5
336
100
AcDbEntity
8
0
100
AcDbCircle
10
170.99999192502597
20
-22.999915672755638
30
0
40
4.0000156756063312
210
0
220
0
230
1
100
AcDbArc
50
-0.001179172063230151
51
90.000072997644438
0
LINE
5
337
100
AcDbEntity
8
0
100
AcDbLine
10
175.00000759978519
20
-22.9999979948286
30
0
11
175.00000658562499
21
-27.000000527913901
31
0
0
ARC
5
338
100
AcDbEntity
8
0
100
AcDbCircle
10
171.00001692720303
20
-26.999936803808403
30
0
40
3.9999896589294526
210
0
220
0
230
1
100
AcDbArc
50
270.00007299764695
51
359.99908721734221
0
LINE
5
339
100
AcDbEntity
8
0
100
AcDbLine
10
171.000022023387
20
-30.999926462734607
30
0
11
143.00002031023499
21
-30.999962136116004
31
0
0
ARC
5
340
100
AcDbEntity
8
0
100
AcDbCircle
10
143.00002285833401
20
-32.999962136114299
30
0
40
1.9999999999999196
210
0
220
0
230
1
100
AcDbArc
50
90.000072997659785
51
180.00007299639853
0
LINE
5
341
100
AcDbEntity
8
0
100
AcDbLine
10
141.00002285833563
20
-32.999964684212898
30
0
11
141.00002540647901
21
-35.000000521540599
31
0
0
LINE
5
342
100
AcDbEntity
8
0
100
AcDbLine
10
141.00002540647901
20
-35.000000521540599
30
0
11
138.00000166296999
21
-35.000000521540599
31
0
0
ARC
5
343
100
AcDbEntity
8
0
100
AcDbCircle
10
138.00000166296999
20
-37.000000521540699
30
0
40
2.0000000000000995
210
0
220
-0
230
1
100
AcDbArc
50
90
51
180.00005190494394
0
LINE
5
344
100
AcDbEntity
8
0
100
AcDbLine
10
136.00000166297082
20
-37.000002333521891
30
0
11
136.00000483393501
21
-40.9999986797567
31
0
0
ARC
5
345
100
AcDbEntity
8
0
100
AcDbCircle
10
134.000004833936
20
-41.000000491737879
30
0
40
2.0000000000002327
210
0
220
0
230
1
100
AcDbArc
50
-90
51
5.1904943952083148e-05
0
LINE
5
346
100
AcDbEntity
8
0
100
AcDbLine
10
134.000004833936
20
-43.000000491738113
30
0
11
90.999993752688212
21
-43.000000491738305
31
0
0
ARC
5
347
100
AcDbEntity
8
0
100
AcDbCircle
10
90.999993752688212
20
-45.000000491738305
30
0
40
2.0000000000000018
210
0
220
-0
230
1
100
AcDbArc
50
90
51
180
0
LINE
5
348
100
AcDbEntity
8
0
100
AcDbLine
10
88.999993752688212
20
-45.000000491738305
30
0
11
88.999993752688198
21
-51.000000491738398
31
0
0
ARC
5
349
100
AcDbEntity
8
0
100
AcDbCircle
10
86.999993752688226
20
-51.000000491738398
30
0
40
1.9999999999999662
210
0
220
0
230
1
100
AcDbArc
50
-90.00000000000081
51
0
0
LINE
5
350
100
AcDbEntity
8
0
100
AcDbLine
10
86.999993752688198
20
-53.000000491738362
30
0
11
49.000006247317103
21
-53.000000491740202
31
0
0
ARC
5
351
100
AcDbEntity
8
0
100
AcDbCircle
10
49.000006247316897
20
-51.000000491739698
30
0
40
2.0000000000000018
210
0
220
0
230
1
100
AcDbArc
50
180
51
270.00000000000591
0
LWPOLYLINE
5
352
100
AcDbEntity
8
0
100
AcDbPolyline
90
12
70
1
43
0.0
10
131.00000201165699
20
-5.0000000745058104
10
128.99789513119899
20
-5.0000000745056328
42
-0.41423559551434452
10
126.99789513685801
20
-2.9998496239786121
10
127.00000141030914
20
24.999699264573103
42
0.41423559882101224
10
123.000001375924
20
29.000000166172303
10
119.00000144677801
20
29.000000121249876
42
0.41421356279056093
10
115.000001474738
20
25.000000072244003
10
115.000001764071
20
-3.0000000538391305
42
-0.41421356539965881
10
113.00000176407102
20
-5.00000007450579
10
111.00000171363402
20
-5.0000000745058104
10
111.00000171363402
20
-10.000000149011601
10
131.00000201165699
20
-10.0000000745056
0
CIRCLE
5
353
100
AcDbEntity
8
0
100
AcDbCircle
10
11.000002622604301
20
-99.400000000000006
30
0
40
1.49999999999999
210
0
220
-0
230
1
0
CIRCLE
5
354
100
AcDbEntity
8
0
100
AcDbCircle
10
11.000002622604301
20
-50.600000000000009
30
0
40
1.49999999999999
210
0
220
-0
230
1
0
LWPOLYLINE
5
355
100
AcDbEntity
8
0
100
AcDbPolyline
90
8
70
1
43
0.0
10
86.499998658895521
20
-12.999997988343203
42
-0.4142135623730957
10
88.499998658895507
20
-14.999997988343202
10
88.499998658895507
20
-21.0000003427267
42
-0.41421356237309503
10
86.499998658895521
20
-23.00000034272669
10
55.500001341101409
20
-23.000000342726679
42
-0.41421356237309309
10
53.500001341101409
20
-21.0000003427267
10
53.500001341101402
20
-14.999997988343202
42
-0.41421356237309342
10
55.500001341101409
20
-12.99999798834321
0
LWPOLYLINE
5
356
100
AcDbEntity
8
0
100
AcDbPolyline
90
12
70
1
43
0.0
10
22.999998553215903
20
29.000000121242003
10
18.9999986240698
20
29.000000166163904
42
0.41423559882103966
10
14.999998589684802
20
24.999699264563905
10
15.002104863141161
20
-2.9998496239878101
42
-0.41423559551435057
10
13.002104868800302
20
-5.0000000745153503
10
10.9999979883424
20
-5.0000000745156807
10
10.9999979883432
20
-10.0000000745154
10
30.999998286366402
20
-10.0000001490182
10
30.999998286365603
20
-5.0000000745123803
10
28.999998235928103
20
-5.0000000745126094
42
-0.41421356539966897
10
26.999998235927801
20
-3.00000005384637
10
26.999998525256473
20
25.000000072236702
42
0.4142135627905183
0
LWPOLYLINE
5
357
100
AcDbEntity
8
0
100
AcDbPolyline
90
16
70
1
43
0.0
10
126.000004321337
20
-102.00000154972102
42
-0.41421356237309503
10
124.00000432133702
20
-104.00000154972102
10
96.00000387430191
20
-104.00000154972096
42
-0.41421356237309243
10
92.000003874301953
20
-100.00000154972101
10
92.000003874301882
20
-59.000000819563908
42
-0.61803398874988924
10
93.600003874301905
20
-58.200000819563897
42
1.1646479451087748
10
97.333337207635196
20
-51.228764653235643
42
-0.31783724519578094
10
96.000003874301868
20
-49.34314657007149
10
96.000003874301925
20
-48.000000670552303
42
-0.41421356237309243
10
98.000003874301896
20
-46.000000670552303
10
126.000004321337
20
-46.000000670552382
42
-0.4142135623730957
10
130.00000432133692
20
-50.000000670552311
10
130.00000432133706
20
-91.000001415610313
42
-0.61803398874989723
10
128.40000432133701
20
-91.800001415610325
42
1.164647945108674
10
124.66667098800298
20
-98.771237581938593
42
-0.31783724519589573
10
126.00000432133704
20
-100.656855665103
0
LWPOLYLINE
5
358
100
AcDbEntity
8
0
100
AcDbPolyline
90
8
70
1
43
0.0
10
88.499998658895507
20
-135.00000201165699
10
88.499998658895507
20
-128.99999965727301
42
0.41421356237309503
10
86.499998658895521
20
-126.99999965727301
10
55.500001341101409
20
-126.99999965727302
42
0.41421356237309631
10
53.500001341101402
20
-128.99999965727301
10
53.500001341101409
20
-135.00000201165699
42
0.41421356237309631
10
55.500001341101409
20
-137.00000201165699
10
86.499998658895521
20
-137.00000201165699
42
0.41421356237309503
0
LWPOLYLINE
5
359
100
AcDbEntity
8
0
100
AcDbPolyline
90
8
70
1
43
0.0
10
16.000002622604299
20
-97.400000000000006
42
-0.41421356237309331
10
11.000002622604299
20
-92.400000000000006
10
11.000002622604288
20
-57.600000000000009
42
-0.4142135623730962
10
16.000002622604299
20
-52.599999999999994
10
37.400002622604298
20
-52.599999999999994
42
-0.41421356237309503
10
42.400002622604305
20
-57.600000000000009
10
42.400002622604333
20
-92.400000000000006
42
-0.4142135623730937
10
37.400002622604298
20
-97.40000000000002
0
ENDSEC
0
SECTION
2
OBJECTS
0
DICTIONARY
5
C
100
AcDbDictionary
3
ACAD_GROUP
350
D
3
ACAD_MLINESTYLE
350
17
0
DICTIONARY
5
D
100
AcDbDictionary
0
DICTIONARY
5
1A
330
C
100
AcDbDictionary
0
DICTIONARY
5
17
100
AcDbDictionary
0
ENDSEC
0
EOF
