0
SECTION
2
HEADER
9
$INSUNITS
70
4
9
$ACADVER
1
AC1014
9
$HANDSEED
5
FFFF
0
ENDSEC
0
SECTION
2
TABLES
0
TABLE
2
VPORT
5
8
100
AcDbSymbolTable
0
ENDTAB
0
TABLE
2
LTYPE
5
5
100
AcDbSymbolTable
0
LTYPE
5
14
100
AcDbSymbolTableRecord
100
AcDbLinetypeTableRecord
2
BYBLOCK
70
0
0
LTYPE
5
15
100
AcDbSymbolTableRecord
100
AcDbLinetypeTableRecord
2
BYLAYER
70
0
0
ENDTAB
0
TABLE
2
LAYER
5
2
100
AcDbSymbolTable
70
2
0
LAYER
5
50
100
AcDbSymbolTableRecord
100
AcDbLayerTableRecord
2
0
70
0
6
CONTINUOUS
0
ENDTAB
0
TABLE
2
STYLE
5
3
100
AcDbSymbolTable
70
1
0
STYLE
5
11
100
AcDbSymbolTableRecord
100
AcDbTextStyleTableRecord
2
STANDARD
70
0
0
ENDTAB
0
TABLE
2
VIEW
5
6
100
AcDbSymbolTable
70
0
0
ENDTAB
0
TABLE
2
UCS
5
7
100
AcDbSymbolTable
70
0
0
ENDTAB
0
TABLE
2
APPID
5
9
100
AcDbSymbolTable
70
2
0
APPID
5
12
100
AcDbSymbolTableRecord
100
AcDbRegAppTableRecord
2
ACAD
70
0
0
ENDTAB
0
TABLE
2
DIMSTYLE
5
A
100
AcDbSymbolTable
70
1
0
ENDTAB
0
TABLE
2
BLOCK_RECORD
5
1
100
AcDbSymbolTable
70
1
0
BLOCK_RECORD
5
1F
100
AcDbSymbolTableRecord
100
AcDbBlockTableRecord
2
*MODEL_SPACE
0
BLOCK_RECORD
5
1B
100
AcDbSymbolTableRecord
100
AcDbBlockTableRecord
2
*PAPER_SPACE
0
ENDTAB
0
ENDSEC
0
SECTION
2
BLOCKS
0
BLOCK
5
20
100
AcDbEntity
100
AcDbBlockBegin
2
*MODEL_SPACE
0
ENDBLK
5
21
100
AcDbEntity
100
AcDbBlockEnd
0
BLOCK
5
1C
100
AcDbEntity
100
AcDbBlockBegin
2
*PAPER_SPACE
0
ENDBLK
5
1D
100
AcDbEntity
100
AcDbBlockEnd
0
ENDSEC
0
SECTION
2
ENTITIES
0
LWPOLYLINE
5
100
100
AcDbEntity
8
0
100
AcDbPolyline
90
44
70
1
43
0.0
10
111.00004156932999
20
69.999982713209278
10
111.00004171326199
20
79.999982787715069
42
-0.41421356237309609
10
116.00004178522802
20
84.99998271574907
10
126.00004193424
20
84.999982571816872
42
-0.41421355364419848
10
131.00004186227403
20
79.999982648862471
10
131.00004193931903
20
74.999982499850859
10
131.00004186735299
20
69.999982425345053
10
136.000041926958
20
69.999982353378968
10
136.00004185499199
20
64.999982278873176
10
141.000041929498
20
64.999982206907077
10
141.00004113787099
20
9.9999814618489982
10
136.00004106336499
20
9.9999815338151077
10
136.00004099139903
20
4.9999823533789778
10
131.000040916893
20
4.9999823565704284
10
131.00004084492701
20
-1.8617736247117364e-05
10
111.00004054690402
20
-1.8329871989686275e-05
10
111.00004061887
20
4.999982644434728
10
86.000042183491999
20
4.999982488455549
10
86.000042111525914
20
-1.7970041691350864e-05
10
56.000022739458508
20
-1.7575329374630577e-05
10
56.000022799063103
20
4.9999828831678679
10
31.000024363685004
20
4.9999836970004177
10
31.000024304080402
20
-1.7277306293417266e-05
10
11.000024006057201
20
-1.7038887799580849e-05
10
11.000024065661799
20
4.9999839354188778
10
6.0000239911560103
20
4.9999840637981077
10
6.0000240507606311
20
9.9999832442342385
10
1.00002397625483
20
9.9999833038388264
10
1.0000246319056305
20
64.999984048896877
10
6.0000247064114411
20
64.999983989292275
10
6.0000247660160797
20
69.999984063798053
10
11.0000248256207
20
69.999984004193465
10
11.000024885225301
20
74.999984078699271
10
11.000025093841597
20
79.999984227710868
42
-0.4142135536441976
10
16.000025153446199
20
84.999984019094668
10
26.0000253024578
20
84.999983899885478
42
-0.41421356237310125
10
31.000025242853205
20
79.999983840280777
10
31.000025123643905
20
69.999983765774971
10
53.500024023985908
20
69.999983497554268
10
53.50002426781338
20
89.999983526562772
42
-0.4142135626559359
10
58.500024322889708
20
94.999983454896878
10
83.500043027937807
20
94.999983125969877
42
-0.4142135626559364
10
88.500042951443419
20
89.99998306606507
10
88.5000426689882
20
69.999983037056552
0
LWPOLYLINE
5
101
100
AcDbEntity
8
0
100
AcDbPolyline
90
6
70
1
43
0.0
10
81.669878953643916
20
16.160241742970673
10
86.000002190849813
20
13.660235192857471
10
90.330132991478393
20
16.160228642738566
10
90.330140554900908
20
21.160228642732768
10
86.000017317695011
20
23.660235192846066
10
81.669886517066516
20
21.160241742964967
0
LWPOLYLINE
5
102
100
AcDbEntity
8
0
100
AcDbPolyline
90
6
70
1
43
0.0
10
71.669878953643902
20
16.160241742970673
10
76.000002190849798
20
13.660235192857471
10
80.330132991478393
20
16.160228642738566
10
80.330140554900908
20
21.160228642732768
10
76.000017317694997
20
23.660235192846066
10
71.669886517066502
20
21.160241742964967
0
LWPOLYLINE
5
103
100
AcDbEntity
8
0
100
AcDbPolyline
90
6
70
1
43
0.0
10
100.330132991478
20
16.160228642738566
10
100.33014055490101
20
21.160228642732768
10
96.000017317695011
20
23.660235192846066
10
91.669886517066516
20
21.160241742964967
10
91.669878953643916
20
16.160241742970673
10
96.000002190849813
20
13.660235192857471
0
LWPOLYLINE
5
104
100
AcDbEntity
8
0
100
AcDbPolyline
90
6
70
1
43
0.0
10
46.0000042533417
20
23.660235192846066
10
41.669881016135697
20
21.160228642732768
10
41.669888579558297
20
16.160228642738566
10
46.000019380186899
20
13.660235192857471
10
50.330142617392809
20
16.160241742970673
10
50.33013505397021
20
21.160241742964967
0
LWPOLYLINE
5
105
100
AcDbEntity
8
0
100
AcDbPolyline
90
6
70
1
43
0.0
10
31.669890874740002
20
33.480740993017669
10
36.000020398214303
20
30.98074533103437
10
40.330144912580003
20
33.480749669048471
10
40.330139903471299
20
38.480749669045871
10
36.000010379997001
20
40.980745331029269
10
31.669885865631304
20
38.480740993015175
0
LWPOLYLINE
5
106
100
AcDbEntity
8
0
100
AcDbPolyline
90
9
70
1
43
0.0
10
61.754187852847409
20
5.4354052804486983
10
65.330138320063398
20
7.4999802619222491
10
65.330139351309398
20
12.49998026192217
10
61.000012848010307
20
14.999981155007269
10
56.669885313465201
20
12.499982048092569
10
56.6698847978423
20
9.9999825197048278
10
59.000020599022406
20
9.9999824994060198
42
-0.41421355633000967
10
61.000020581599507
20
7.9999825232478887
10
61.000020593520446
20
6.9999821266477182
42
0.22843633680801473
0
LWPOLYLINE
5
107
100
AcDbEntity
8
0
100
AcDbPolyline
90
6
70
1
43
0.0
10
41.669884164475299
20
55.801257441460066
10
41.669883862336803
20
50.801257441460066
10
46.0000107301897
20
48.301257179800466
10
50.330137900181207
20
50.801256918140865
10
50.330138202319709
20
55.801256918140865
10
46.000011334466706
20
58.301257179800466
0
LWPOLYLINE
5
108
100
AcDbEntity
8
0
100
AcDbPolyline
90
6
70
1
43
0.0
10
14.207098695619999
20
22.62509707032677
10
11.669881016135699
20
21.160228642732768
10
11.6698885795583
20
16.160228642738566
10
16.000019380186899
20
13.660235192857471
10
18.503216222367499
20
15.105461612258962
42
-0.20171923035829567
10
14.229792123391633
20
22.486183737035759
42
0.017599796393910218
0
LWPOLYLINE
5
109
100
AcDbEntity
8
0
100
AcDbPolyline
90
5
70
1
43
0.0
10
30.330139903471299
20
38.480749669045871
10
26.000010379997001
20
40.980745331029269
10
21.669885865631301
20
38.480740993015175
10
21.669890039605001
20
34.31435736985226
42
-0.2059137708502822
10
30.330144817173302
20
33.575982962529771
0
LWPOLYLINE
5
110
100
AcDbEntity
8
0
100
AcDbPolyline
90
6
70
1
43
0.0
10
11.6698838623368
20
50.801257441460066
10
16.0000107301897
20
48.301257179800466
10
20.330137900181203
20
50.801256918140865
10
20.330138202319699
20
55.801256918140865
10
16.000011334466699
20
58.301257179800466
10
11.669884164475302
20
55.801257441460066
0
LWPOLYLINE
5
111
100
AcDbEntity
8
0
100
AcDbPolyline
90
3
70
1
43
0.0
10
18.0000218839611
20
4.9999816140479378
42
-0.30666671327798312
10
16.143100339608381
20
6.2571206131442105
10
18.320518424261799
20
4.9999815650074577
0
LWPOLYLINE
5
112
100
AcDbEntity
8
0
100
AcDbPolyline
90
5
70
1
43
0.0
10
6.0000203982143496
20
30.98074533103437
10
7.485114374514243
20
31.838166721756672
42
-0.18515375969424208
10
10.330144380581199
20
34.01178103934177
10
10.3301399034713
20
38.480749669045871
10
6.0000206591119598
20
40.980739396393162
0
LWPOLYLINE
5
113
100
AcDbEntity
8
0
100
AcDbPolyline
90
5
70
1
43
0.0
10
46.6698847978423
20
9.9999826068193887
10
55.33013883568691
20
9.9999825313759878
10
55.330139351309398
20
12.49998026192217
10
51.000012848010307
20
14.999981155007269
10
46.669885313465201
20
12.499982048092569
0
LWPOLYLINE
5
114
100
AcDbEntity
8
0
100
AcDbPolyline
90
3
70
1
43
0.0
10
69.49743199670192
20
32.999981530601374
10
62.502592616409103
20
32.999981530601374
10
66.000020398214303
20
30.98074533103437
0
LWPOLYLINE
5
115
100
AcDbEntity
8
0
100
AcDbPolyline
90
6
70
1
43
0.0
10
56.669888786034797
20
24.820482322956373
10
61.000019793138804
20
22.320489230702467
10
65.330142823868201
20
24.820496138442273
10
65.330134847493696
20
29.820496138435871
10
61.000003840389809
20
32.320489230689773
10
56.669880809660299
20
29.820482322949967
0
LWPOLYLINE
5
116
100
AcDbEntity
8
0
100
AcDbPolyline
90
4
70
1
43
0.0
10
10.3301382023197
20
55.801256918140865
10
6.0210317438799299
20
58.28912103907367
10
6.000010730189711
20
48.301257179800466
10
10.330137900181199
20
50.801256918140865
0
LWPOLYLINE
5
117
100
AcDbEntity
8
0
100
AcDbPolyline
90
6
70
1
43
0.0
10
41.000003840389809
20
32.320489230689773
10
36.669880809660299
20
29.820482322949967
10
36.669888786034797
20
24.820482322956373
10
41.000019793138797
20
22.320489230702467
10
45.330142823868201
20
24.820496138442273
10
45.33013484749371
20
29.820496138435871
0
LWPOLYLINE
5
118
100
AcDbEntity
8
0
100
AcDbPolyline
90
3
70
1
43
0.0
10
35.330134847493703
20
29.820496138435871
10
33.73784732786946
20
30.739800379673021
42
-0.071938959550338785
10
35.33013771497
20
28.023015185126173
0
LWPOLYLINE
5
119
100
AcDbEntity
8
0
100
AcDbPolyline
90
5
70
1
43
0.0
10
101.00000872302601
20
14.999981155007269
10
96.669882219727299
20
12.49998026192217
10
96.669882735349816
20
9.9999825313759878
10
105.33013677319401
20
9.9999826068193887
10
105.330136257571
20
12.499982048092569
0
LWPOLYLINE
5
120
100
AcDbEntity
8
0
100
AcDbPolyline
90
3
70
1
43
0.0
10
72.502589574334806
20
32.999981530601374
10
76.000001172822294
20
30.98074533103437
10
79.497428954627594
20
32.999981530601374
0
LWPOLYLINE
5
121
100
AcDbEntity
8
0
100
AcDbPolyline
90
4
70
1
43
0.0
10
82.500001117587104
20
36.999981530601382
42
-0.99999999999999989
10
82.500001117587104
20
34.99998153060136
10
59.500001117587104
20
34.999981530601374
42
-0.99999999999999989
10
59.500001117587104
20
36.999981530601367
0
LWPOLYLINE
5
122
100
AcDbEntity
8
0
100
AcDbPolyline
90
6
70
1
43
0.0
10
130.33014055490099
20
21.160228642732768
10
127.79292287541701
20
22.62509707032677
42
0.017599796393915741
10
127.77022944764502
20
22.48618373703577
42
-0.20171923035830261
10
123.496805348669
20
15.105461612258971
10
126.00000219085001
20
13.660235192857471
10
130.330132991478
20
16.160228642738566
0
LWPOLYLINE
5
123
100
AcDbEntity
8
0
100
AcDbPolyline
90
4
70
1
43
0.0
10
58.500024322889708
20
92.559983214432464
10
58.500024322889708
20
78.559983214432478
10
72.500024322889701
20
78.559983214432478
10
72.500024322889701
20
92.559983214432464
0
LWPOLYLINE
5
124
100
AcDbEntity
8
0
100
AcDbPolyline
90
4
70
1
43
0.0
10
136.00001084084704
20
48.301257179800466
10
135.97898982715699
20
58.28912103907367
10
131.669883368717
20
55.801256918140865
10
131.669883670856
20
50.801256918140865
0
LWPOLYLINE
5
125
100
AcDbEntity
8
0
100
AcDbPolyline
90
8
70
1
43
0.0
10
131.75417382171199
20
14.564563939662369
10
131.00000872302601
20
14.999981155007269
10
126.66988221972701
20
12.49998026192217
10
126.66988283979782
20
9.4935651310174602
42
-0.18392590618006038
10
127.99999971917002
20
9.9999824994059878
10
128.99999984869601
20
9.9999825012399182
42
0.41421355834435841
10
130.99999984502799
20
11.999982477398071
10
130.99999985694899
20
12.999981754118771
42
-0.22843746416339633
0
LWPOLYLINE
5
126
100
AcDbEntity
8
0
100
AcDbPolyline
90
6
70
1
43
0.0
10
136.00000005853499
20
23.660225228299971
10
131.669886517066
20
21.160241742964967
10
131.669878953644
20
16.160241742970673
10
133.67950123923899
20
14.99998172217667
10
133.999999955297
20
14.999981718356018
42
0.41421356237296592
10
135.99999997913801
20
16.999981694514169
0
LWPOLYLINE
5
127
100
AcDbEntity
8
0
100
AcDbPolyline
90
8
70
1
43
0.0
10
105.330142669712
20
64.461502363238978
10
104.39747144147601
20
64.999982890809477
10
101.72431992123101
20
64.999982922675969
42
0.34938330896826969
10
99.775311184092047
20
63.448720079031595
42
-0.25089382034090302
10
96.669879290491821
20
59.893235386574666
10
96.669878407704715
20
59.461520072050774
10
101.00000031452701
20
56.961511217655371
10
105.33013244553102
20
59.461502363249465
0
LWPOLYLINE
5
128
100
AcDbEntity
8
0
100
AcDbPolyline
90
8
70
1
43
0.0
10
115.330142669712
20
64.461502363238978
10
114.34541685387902
20
65.030036762895165
42
-0.04342193351963039
10
114.00000011920902
20
64.999982776338371
10
107.602537930092
20
64.999982852602074
10
106.669888631886
20
64.461520072040273
10
106.66987840770501
20
59.461520072050774
10
111.00000031452701
20
56.961511217655371
10
115.33013244553102
20
59.461502363249465
0
LWPOLYLINE
5
129
100
AcDbEntity
8
0
100
AcDbPolyline
90
7
70
1
43
0.0
10
126.00000323194101
20
65.62175640111947
10
126.37287297362376
20
65.83703110371998
42
-0.15639201195025254
10
126.00000044107401
20
66.99998263328726
10
126.00000045299497
20
67.999982707793066
42
0.41421356237307944
10
124.00000047683702
20
69.999982731634873
10
121.66989156388502
20
69.999982759411978
10
121.66988497852002
20
68.121771583350778
0
LWPOLYLINE
5
130
100
AcDbEntity
8
0
100
AcDbPolyline
90
12
70
1
43
0.0
10
129.00000047683699
20
64.999982597524436
42
-0.414213562373069
10
131.00000045299498
20
62.999982573682665
10
131.00000044107401
20
61.999982499176767
42
0.41421356237306639
10
133.000000417232
20
59.99998247533501
10
134.00000049173801
20
59.999982463414021
42
-0.18392852697254788
10
135.33013251106598
20
59.493551593964213
10
135.33013244553101
20
59.461502363249465
10
131.00000031452703
20
56.961511217655371
10
126.66987840770501
20
59.461520072050774
10
126.669888631886
20
64.461520072040273
10
127.654590676769
20
65.030035377989066
42
0.04342104432356237
10
128.00000041723303
20
64.999982609445368
0
LWPOLYLINE
5
131
100
AcDbEntity
8
0
100
AcDbPolyline
90
5
70
1
43
0.0
10
131.66988166756499
20
38.480749669045871
10
131.66987719045488
20
34.011781039341301
42
-0.18515375969426287
10
134.51490719652199
20
31.838166721756668
10
136.00000117282201
20
30.98074533103437
10
136.00000091192501
20
40.980739396393162
0
LWPOLYLINE
5
132
100
AcDbEntity
8
0
100
AcDbPolyline
90
3
70
1
43
0.0
10
118.32051767570502
20
4.999981681752578
10
116.14307773046701
20
6.2571210894096376
42
0.30666676637220902
10
117.99999938905201
20
4.9999816855734478
0
LWPOLYLINE
5
133
100
AcDbEntity
8
0
100
AcDbPolyline
90
7
70
1
43
0.0
10
116.00000015497201
20
67.99998282700237
42
-0.41421356237311197
10
118.00000017881402
20
69.999982803160464
10
120.33014560178201
20
69.999982775382975
10
120.33013901631101
20
68.121741218857352
10
116.00000323194101
20
65.62175640111947
10
115.627131007467
20
65.837036023444369
42
0.15639125773529292
10
116.00000014305098
20
66.999982752496578
0
LWPOLYLINE
5
134
100
AcDbEntity
8
0
100
AcDbPolyline
90
7
70
1
43
0.0
10
121.66988166756499
20
38.480749669045871
10
121.66987694672514
20
33.768494147239664
42
-0.058333379889304683
10
123.82447496381693
20
32.38976652656067
42
0.39828623493946691
10
126.56733954264797
20
32.588364499716398
42
-0.21438070319922431
10
130.33013143159801
20
34.214705013384169
10
130.33013570540501
20
38.480740993015175
10
126.00001119104
20
40.980745331029269
0
LWPOLYLINE
5
135
100
AcDbEntity
8
0
100
AcDbPolyline
90
3
70
1
43
0.0
10
108.26217424316701
20
30.739800379672971
10
106.669886723543
20
29.820496138435871
10
106.66988385606663
20
28.023015185126322
42
-0.07193895955033075
0
LWPOLYLINE
5
136
100
AcDbEntity
8
0
100
AcDbPolyline
90
3
70
1
43
0.0
10
125.8569212314279
20
6.2571206131442123
42
-0.30666671327786488
10
123.99999968707601
20
4.999981614047857
10
123.67950314677501
20
4.9999815650074577
0
LWPOLYLINE
5
137
100
AcDbEntity
8
0
100
AcDbPolyline
90
5
70
1
43
0.0
10
91.000008723026411
20
14.999981155007269
10
86.669882219727299
20
12.49998026192217
10
86.669882735349816
20
9.9999825313759878
10
95.330136773194397
20
9.9999826068193887
10
95.330136257571496
20
12.499982048092569
0
LWPOLYLINE
5
138
100
AcDbEntity
8
0
100
AcDbPolyline
90
5
70
1
43
0.0
10
116.00001119104
20
40.980745331029269
10
111.66988166756499
20
38.480749669045871
10
111.66987675386311
20
33.575982962529572
42
-0.20591377085029713
10
120.33013153143202
20
34.314357369852274
10
120.33013570540501
20
38.480740993015175
0
LWPOLYLINE
5
139
100
AcDbEntity
8
0
100
AcDbPolyline
90
9
70
1
43
0.0
10
81.000000977516194
20
6.9999821266477182
10
81.000000989437154
20
7.9999825232478887
42
-0.41421355633000967
10
83.000000972014206
20
9.9999824994059683
10
85.330136773194397
20
9.9999825197048278
10
85.330136257571496
20
12.499982048092569
10
81.000008723026411
20
14.999981155007269
10
76.669882219727299
20
12.49998026192217
10
76.6698832509732
20
7.4999802619222491
10
80.245833718189289
20
5.4354052804487241
42
0.22843633680801267
0
LWPOLYLINE
5
140
100
AcDbEntity
8
0
100
AcDbPolyline
90
6
70
1
43
0.0
10
116.669888631886
20
64.461520072040273
10
116.66987840770501
20
59.461520072050774
10
121.00000031452701
20
56.961511217655371
10
125.33013244553102
20
59.461502363249465
10
125.330142669712
20
64.461502363238978
10
121.00002076289002
20
66.961511217634367
0
LWPOLYLINE
5
141
100
AcDbEntity
8
0
100
AcDbPolyline
90
6
70
1
43
0.0
10
110.33013740656101
20
55.801257441460066
10
106.00001023657001
20
58.301257179800466
10
101.669883368717
20
55.801256918140865
10
101.66988367085601
20
50.801256918140865
10
106.00001084084701
20
48.301257179800466
10
110.33013770869999
20
50.801257441460066
0
LWPOLYLINE
5
142
100
AcDbEntity
8
0
100
AcDbPolyline
90
6
70
1
43
0.0
10
120.33013740656101
20
55.801257441460066
10
116.00001023657001
20
58.301257179800466
10
111.669883368717
20
55.801256918140865
10
111.66988367085601
20
50.801256918140865
10
116.00001084084701
20
48.301257179800466
10
120.33013770869999
20
50.801257441460066
0
LWPOLYLINE
5
143
100
AcDbEntity
8
0
100
AcDbPolyline
90
6
70
1
43
0.0
10
130.33013740656099
20
55.801257441460066
10
126.00001023657001
20
58.301257179800466
10
121.669883368717
20
55.801256918140865
10
121.66988367085601
20
50.801256918140865
10
126.00001084084701
20
48.301257179800466
10
130.33013770869999
20
50.801257441460066
0
LWPOLYLINE
5
144
100
AcDbEntity
8
0
100
AcDbPolyline
90
6
70
1
43
0.0
10
96.000010840847011
20
48.301257179800466
10
100.33013770869999
20
50.801257441460066
10
100.33013740656101
20
55.801257441460066
10
96.000010236569921
20
58.301257179800466
10
91.669883368716995
20
55.801256918140865
10
91.669883670855498
20
50.801256918140865
0
LWPOLYLINE
5
145
100
AcDbEntity
8
0
100
AcDbPolyline
90
6
70
1
43
0.0
10
126.66987698462201
20
42.141003141957071
10
131.00000182515399
20
39.64099936887807
10
135.33013102246301
20
42.140995595797264
10
135.33013537924001
20
47.140995595795367
10
131.00001053870801
20
49.640999368874361
10
126.66988134139901
20
47.141003141955167
0
LWPOLYLINE
5
146
100
AcDbEntity
8
0
100
AcDbPolyline
90
6
70
1
43
0.0
10
116.66987698462201
20
42.141003141957071
10
121.00000182515402
20
39.64099936887807
10
125.33013102246301
20
42.140995595797264
10
125.33013537924001
20
47.140995595795367
10
121.000010538708
20
49.640999368874361
10
116.66988134139901
20
47.141003141955167
0
LWPOLYLINE
5
147
100
AcDbEntity
8
0
100
AcDbPolyline
90
6
70
1
43
0.0
10
106.00000219085001
20
13.660235192857471
10
108.75881476156302
20
15.25303080892307
42
0.22428300870973891
10
108.34525522984183
20
16.910547161639304
42
-0.16622762032913241
10
105.86243147411601
20
23.580800246517573
10
101.66988651706602
20
21.160241742964967
10
101.669878953644
20
16.160241742970673
0
LWPOLYLINE
5
148
100
AcDbEntity
8
0
100
AcDbPolyline
90
4
70
1
43
0.0
10
75.999999195638395
20
6.3397271171518579
10
73.679503393839894
20
4.9999817076511883
10
76.000000917597802
20
4.9999821862523781
10
78.320516849795013
20
4.9999821585897477
0
LWPOLYLINE
5
149
100
AcDbEntity
8
0
100
AcDbPolyline
90
6
70
1
43
0.0
10
81.000001777897893
20
22.320489230702467
10
85.330132785001908
20
24.820482322956373
10
85.330140761376313
20
29.820482322949967
10
81.000017730646903
20
32.320489230689773
10
76.669886723543001
20
29.820496138435871
10
76.669878747168497
20
24.820496138442273
0
LWPOLYLINE
5
150
100
AcDbEntity
8
0
100
AcDbPolyline
90
6
70
1
43
0.0
10
86.669878747168511
20
24.820496138442273
10
91.000001777897893
20
22.320489230702467
10
95.330132785001794
20
24.820482322956373
10
95.330140761376313
20
29.820482322949967
10
91.000017730646903
20
32.320489230689773
10
86.669886723542916
20
29.820496138435871
0
LWPOLYLINE
5
151
100
AcDbEntity
8
0
100
AcDbPolyline
90
6
70
1
43
0.0
10
96.669878747168511
20
24.820496138442273
10
101.00000177789802
20
22.320489230702467
10
105.33013278500199
20
24.820482322956373
10
105.33014076137601
20
29.820482322949967
10
101.00001773064702
20
32.320489230689773
10
96.669886723542916
20
29.820496138435871
0
LWPOLYLINE
5
152
100
AcDbEntity
8
0
100
AcDbPolyline
90
6
70
1
43
0.0
10
96.669876984621709
20
42.141003141957071
10
101.00000182515402
20
39.64099936887807
10
105.33013102246301
20
42.140995595797264
10
105.33013537924001
20
47.140995595795367
10
101.000010538708
20
49.640999368874361
10
96.669881341399119
20
47.141003141955167
0
LWPOLYLINE
5
153
100
AcDbEntity
8
0
100
AcDbPolyline
90
6
70
1
43
0.0
10
100.33013069629702
20
33.480740993017669
10
100.33013570540501
20
38.480740993015175
10
96.000011191039718
20
40.980745331029269
10
91.669881667565306
20
38.480749669045871
10
91.669876658456701
20
33.480749669048471
10
96.000001172822294
20
30.98074533103437
0
LWPOLYLINE
5
154
100
AcDbEntity
8
0
100
AcDbPolyline
90
6
70
1
43
0.0
10
106.66987698462201
20
42.141003141957071
10
111.00000182515402
20
39.64099936887807
10
115.33013102246301
20
42.140995595797264
10
115.33013537924001
20
47.140995595795367
10
111.000010538708
20
49.640999368874361
10
106.66988134139901
20
47.141003141955167
0
LWPOLYLINE
5
155
100
AcDbEntity
8
0
100
AcDbPolyline
90
6
70
1
43
0.0
10
101.66988166756499
20
38.480749669045871
10
101.66987665845701
20
33.480749669048471
10
106.000001172822
20
30.98074533103437
10
110.33013069629702
20
33.480740993017669
10
110.33013570540501
20
38.480740993015175
10
106.00001119104
20
40.980745331029269
0
LWPOLYLINE
5
156
100
AcDbEntity
8
0
100
AcDbPolyline
90
12
70
1
43
0.0
10
77.583802630491405
20
71.99998284190346
42
-0.30561468458070007
10
80.364877063152278
20
70.12498284190346
42
0.2032313571302706
10
83.125001117587104
20
67.364858787468677
42
-0.30561468458069946
10
85.000001117587118
20
64.583784354807776
10
85.000001117587118
20
48.999982841903467
42
-0.41421356237309503
10
80.000001117587104
20
43.999982841903453
10
64.416199604682802
20
43.99998284190346
42
-0.30561468458070068
10
61.635125172021915
20
45.874982841903474
42
0.20323135713027035
10
58.875001117587111
20
48.6351068963383
42
-0.30561468458070024
10
57.000001117587104
20
51.416181328999173
10
57.000001117587104
20
66.99998284190346
42
-0.41421356237309503
10
62.000001117587104
20
71.99998284190346
0
LWPOLYLINE
5
157
100
AcDbEntity
8
0
100
AcDbPolyline
90
9
70
1
43
0.0
10
83.500001117587104
20
38.999981530601367
42
-0.41421356237309503
10
85.50000111758709
20
36.999981530601374
10
85.50000111758709
20
34.999981530601275
42
-0.41421356237308071
10
83.500001117587104
20
32.999981530601374
10
82.502589574334806
20
32.999981530601374
10
86.000001172822294
20
30.98074533103437
10
90.33013069629672
20
33.480740993017669
10
90.330135705405397
20
38.480740993015175
10
89.430784696444704
20
38.999982741454474
0
LWPOLYLINE
5
158
100
AcDbEntity
8
0
100
AcDbPolyline
90
6
70
1
43
0.0
10
95.330132445531021
20
59.461502363249465
10
95.330132705953829
20
59.588858673238107
42
-0.37357251700237359
10
90.030267590862479
20
63.448720195201467
42
0.014935232301053567
10
90.000001117587104
20
63.564277490126173
10
90.000001117587104
20
57.538863749647469
10
91.000000314527298
20
56.961511217655371
0
LWPOLYLINE
5
159
100
AcDbEntity
8
0
100
AcDbPolyline
90
6
70
1
43
0.0
10
95.330135379240204
20
47.140995595795367
10
91.000010538708395
20
49.640999368874361
10
90.000001117587104
20
49.063644822215473
10
90.000001117587104
20
40.218351208390175
10
91.000001825153603
20
39.64099936887807
10
95.330131022462893
20
42.140995595797264
0
LWPOLYLINE
5
160
100
AcDbEntity
8
0
100
AcDbPolyline
90
6
70
1
43
0.0
10
51.969753980174225
20
63.448720195201467
42
-0.014926663502669265
10
52.000001117587125
20
63.564211739190867
10
52.000001117587104
20
57.538852586029364
10
51.000021256509399
20
56.961511217655371
10
46.669889125505705
20
59.461502363249465
10
46.66988886508291
20
59.588858673238164
42
0.37357251700237226
0
LWPOLYLINE
5
161
100
AcDbEntity
8
0
100
AcDbPolyline
90
6
70
1
43
0.0
10
52.000001117587104
20
49.063655985758466
10
51.00001103232831
20
49.640999368874361
10
46.669886191796508
20
47.140995595795367
10
46.669890548573804
20
42.140995595797264
10
51.000019745883101
20
39.64099936887807
10
52.000001117587104
20
40.218340044802261
0
LWPOLYLINE
5
162
100
AcDbEntity
8
0
100
AcDbPolyline
90
9
70
1
43
0.0
10
52.569237048574408
20
38.999982841903474
10
51.669885865631301
20
38.480740993015175
10
51.669890874740005
20
33.480740993017669
10
56.000020398214303
20
30.98074533103437
10
59.497431996701906
20
32.999981530601374
10
58.500020453449608
20
32.999981530601367
42
-0.41421356237308071
10
56.500020453449608
20
34.999981530601275
10
56.500020453449707
20
36.999981530601374
42
-0.41421356237309503
10
58.500020453449608
20
38.999981530601275
0
LWPOLYLINE
5
163
100
AcDbEntity
8
0
100
AcDbPolyline
90
4
70
1
43
0.0
10
16.0000004470348
20
74.999984019673477
10
26.0000004470348
20
74.999984019673477
10
26.0000004470348
20
79.999982931310456
10
16.0000004470348
20
79.999982931310456
0
LWPOLYLINE
5
164
100
AcDbEntity
8
0
100
AcDbPolyline
90
8
70
1
43
0.0
10
121.77319175393195
20
14.035563566872982
42
-0.25182371323964658
10
122.71998587371
20
14.006952357051841
10
125.330136257571
20
12.499982048092569
10
125.330137288817
20
7.4999820480926784
10
121.000010785518
20
4.9999811550074984
10
116.669883250973
20
7.4999802619222491
10
116.66988236744859
20
11.783754638937598
42
-0.26359977466421436
10
118.248837925293
20
12.964792441691216
42
0.084309252348744285
0
LWPOLYLINE
5
165
100
AcDbEntity
8
0
100
AcDbPolyline
90
6
70
1
43
0.0
10
12.1018503212612
20
24.228197209857584
42
-0.19298456453014706
10
13.519694007661956
20
23.775229176163212
10
11.000019793138803
20
22.320489230702467
10
6.6698887860348499
20
24.820482322956373
10
6.6698869044151996
20
25.999977872451868
10
7.9127672123387498
20
25.999979855187672
42
0.24058109013505985
0
LWPOLYLINE
5
166
100
AcDbEntity
8
0
100
AcDbPolyline
90
6
70
1
43
0.0
10
135.33013466661501
20
25.999974035402872
10
134.08725113680316
20
25.999976018143627
42
-0.24058082511833859
10
129.898171249775
20
24.228197209857619
42
0.19298456453004562
10
128.480327563375
20
23.775229176163268
10
131.00000177789804
20
22.320489230702467
10
135.33013278500201
20
24.820482322956373
0
LWPOLYLINE
5
167
100
AcDbEntity
8
0
100
AcDbPolyline
90
6
70
1
43
0.0
10
75.330142823868201
20
24.820496138442273
10
75.330134847493696
20
29.820496138435871
10
71.000003840389795
20
32.320489230689773
10
66.669880809660299
20
29.820482322949967
10
66.669888786034804
20
24.820482322956373
10
71.000019793138804
20
22.320489230702467
0
LWPOLYLINE
5
168
100
AcDbEntity
8
0
100
AcDbPolyline
90
6
70
1
43
0.0
10
46.000020398214303
20
30.98074533103437
10
50.33014491258001
20
33.480749669048471
10
50.330139903471299
20
38.480749669045871
10
46.000010379997001
20
40.980745331029269
10
41.669885865631301
20
38.480740993015175
10
41.669890874739998
20
33.480740993017669
0
LWPOLYLINE
5
169
100
AcDbEntity
8
0
100
AcDbPolyline
90
6
70
1
43
0.0
10
60.33013505397021
20
21.160241742964967
10
56.0000042533417
20
23.660235192846066
10
51.669881016135697
20
21.160228642732768
10
51.669888579558297
20
16.160228642738566
10
56.000019380186799
20
13.660235192857471
10
60.330142617392809
20
16.160241742970673
0
LWPOLYLINE
5
170
100
AcDbEntity
8
0
100
AcDbPolyline
90
6
70
1
43
0.0
10
16.6698905485738
20
42.140995595797264
10
21.000019745883101
20
39.64099936887807
10
25.330144586414999
20
42.141003141957071
10
25.330140229637603
20
47.141003141955167
10
21.000011032328302
20
49.640999368874361
10
16.6698861917965
20
47.140995595795367
0
LWPOLYLINE
5
171
100
AcDbEntity
8
0
100
AcDbPolyline
90
6
70
1
43
0.0
10
46.669880809660299
20
29.820482322949967
10
46.669888786034797
20
24.820482322956373
10
51.000019793138804
20
22.320489230702467
10
55.330142823868201
20
24.820496138442273
10
55.33013484749371
20
29.820496138435871
10
51.000003840389809
20
32.320489230689773
0
LWPOLYLINE
5
172
100
AcDbEntity
8
0
100
AcDbPolyline
90
7
70
1
43
0.0
10
23.751183645743804
20
12.964792441691218
42
-0.26359977466422352
10
25.330139203588416
20
11.783754638937873
10
25.330138320063401
20
7.4999802619222491
10
21.000010785518302
20
4.9999811550074984
10
16.669884282219201
20
7.4999820480926784
10
16.669885313465201
20
12.499982048092569
10
19.758968386178999
20
14.283464142178568
42
0.096442490164348055
0
LWPOLYLINE
5
173
100
AcDbEntity
8
0
100
AcDbPolyline
90
4
70
1
43
0.0
10
116.00006650908099
20
79.999981747173479
10
116.00006637751001
20
74.999982835536471
10
126.00006637751001
20
74.999982572395069
10
126.00006650908099
20
79.999981484032077
0
LWPOLYLINE
5
174
100
AcDbEntity
8
0
100
AcDbPolyline
90
12
70
1
43
0.0
10
11.000021118041399
20
62.999982573682665
10
11.000021129962313
20
61.999982499176767
42
-0.41421356237308493
10
9.0000211538041892
20
59.999982475334974
10
8.0000210792983495
20
59.999982463414028
42
0.18392852697255999
10
6.6698890599702709
20
59.493551593964263
10
6.6698891255057005
20
59.461502363249465
10
11.000021256509401
20
56.961511217655371
10
15.330143163332002
20
59.461520072050774
10
15.330132939150802
20
64.461520072040273
10
14.345430894267711
20
65.030035377989023
42
-0.04342104432349831
10
14.000021153804202
20
64.999982609445368
10
13.0000210941995
20
64.999982597524451
42
0.41421356237308038
0
LWPOLYLINE
5
175
100
AcDbEntity
8
0
100
AcDbPolyline
90
6
70
1
43
0.0
10
61.669881016135697
20
21.160228642732768
10
61.669888579558297
20
16.160228642738566
10
66.000019380186899
20
13.660235192857471
10
70.330142617392795
20
16.160241742970673
10
70.330135053970196
20
21.160241742964967
10
66.0000042533417
20
23.660235192846066
0
LWPOLYLINE
5
176
100
AcDbEntity
8
0
100
AcDbPolyline
90
6
70
1
43
0.0
10
75.330136257571496
20
12.499982048092569
10
71.00001207793845
20
14.999980440171846
10
66.669885313465201
20
12.499982048092569
10
66.669884282219201
20
7.4999820480926784
10
71.000010785518299
20
4.9999811550074984
10
75.330137288817497
20
7.4999820480926784
0
LWPOLYLINE
5
177
100
AcDbEntity
8
0
100
AcDbPolyline
90
7
70
1
43
0.0
10
24.000021392222802
20
69.999982803160464
42
-0.41421356237308138
10
26.000021416064584
20
67.99998282700237
10
26.000021427985502
20
66.999982752496578
42
0.15639125773533824
10
26.372890563570092
20
65.837036023444355
10
26.000018339095405
20
65.62175640111947
10
21.6698825547256
20
68.121741218857352
10
21.669875969254399
20
69.999982775382975
0
LWPOLYLINE
5
178
100
AcDbEntity
8
0
100
AcDbPolyline
90
6
70
1
43
0.0
10
8.3205203317975993
20
14.99998172217667
10
10.330142617392802
20
16.160241742970673
10
10.330135053970199
20
21.160241742964967
10
6.0000215125019709
20
23.660225228299971
10
6.0000215918983093
20
16.999981694514169
42
0.41421356237309082
10
8.0000216157401702
20
14.99998171835607
0
LWPOLYLINE
5
179
100
AcDbEntity
8
0
100
AcDbPolyline
90
6
70
1
43
0.0
10
25.330132939150801
20
64.461520072040273
10
21.000000808147
20
66.961511217634367
10
16.669878901324498
20
64.461502363238978
10
16.669889125505701
20
59.461502363249465
10
21.000021256509399
20
56.961511217655371
10
25.330143163332004
20
59.461520072050774
0
LWPOLYLINE
5
180
100
AcDbEntity
8
0
100
AcDbPolyline
90
8
70
1
43
0.0
10
13.000021722340803
20
9.9999825012400283
10
14.000021851866201
20
9.9999824994059701
42
-0.18392590618011123
10
15.330138731238701
20
9.4935651310172382
10
15.330139351309402
20
12.49998026192217
10
11.0000128480103
20
14.999981155007269
10
10.245847749324922
20
14.564563939662392
42
-0.22843746416339167
10
11.0000217140879
20
12.999981754118771
10
11.000021726008811
20
11.999982477398071
42
0.41421355834436363
0
LWPOLYLINE
5
181
100
AcDbEntity
8
0
100
AcDbPolyline
90
6
70
1
43
0.0
10
36.669890548573804
20
42.140995595797264
10
41.000019745883101
20
39.64099936887807
10
45.330144586415003
20
42.141003141957071
10
45.330140229637607
20
47.141003141955167
10
41.000011032328302
20
49.640999368874361
10
36.6698861917965
20
47.140995595795367
0
LWPOLYLINE
5
182
100
AcDbEntity
8
0
100
AcDbPolyline
90
7
70
1
43
0.0
10
16.000021118041342
20
67.999982707793066
42
-0.41421356237311063
10
18.0000210941995
20
69.99998273163493
10
20.330130007152004
20
69.999982759411978
10
20.330136592516702
20
68.121771583350778
10
16.000018339095405
20
65.62175640111947
10
15.627148597412601
20
65.837031103720165
42
0.15639201195023086
10
16.000021129962281
20
66.99998263328726
0
LWPOLYLINE
5
183
100
AcDbEntity
8
0
100
AcDbPolyline
90
8
70
1
43
0.0
10
34.3974836409445
20
64.999982852602074
10
28.000021451827305
20
64.999982776338442
42
-0.043421933519631833
10
27.654604717157305
20
65.030036762895264
10
26.669878901324502
20
64.461502363238978
10
26.669889125505701
20
59.461502363249465
10
31.000021256509402
20
56.961511217655371
10
35.330143163331996
20
59.461520072050774
10
35.330132939150801
20
64.461520072040273
0
LWPOLYLINE
5
184
100
AcDbEntity
8
0
100
AcDbPolyline
90
4
70
1
43
0.0
10
68.320518177196803
20
4.9999817076511883
10
66.000022375398302
20
6.3397271171518579
10
63.679504721241706
20
4.9999821585897477
10
66.000020653438895
20
4.9999821862523781
0
LWPOLYLINE
5
185
100
AcDbEntity
8
0
100
AcDbPolyline
90
6
70
1
43
0.0
10
31.669884164475302
20
55.801257441460066
10
31.6698838623368
20
50.801257441460066
10
36.0000107301897
20
48.301257179800466
10
40.330137900181199
20
50.801256918140865
10
40.330138202319709
20
55.801256918140865
10
36.000011334466699
20
58.301257179800466
0
LWPOLYLINE
5
186
100
AcDbEntity
8
0
100
AcDbPolyline
90
5
70
1
43
0.0
10
36.6698847978423
20
9.9999826068193887
10
45.33013883568691
20
9.9999825313759878
10
45.330139351309398
20
12.49998026192217
10
41.000012848010307
20
14.999981155007269
10
36.669885313465201
20
12.499982048092569
0
LWPOLYLINE
5
187
100
AcDbEntity
8
0
100
AcDbPolyline
90
6
70
1
43
0.0
10
26.6698905485738
20
42.140995595797264
10
31.000019745883101
20
39.64099936887807
10
35.330144586415003
20
42.141003141957071
10
35.330140229637607
20
47.141003141955167
10
31.000011032328302
20
49.640999368874361
10
26.6698861917965
20
47.140995595795367
0
LWPOLYLINE
5
188
100
AcDbEntity
8
0
100
AcDbPolyline
90
6
70
1
43
0.0
10
6.6698905485738402
20
42.140995595797264
10
11.000019745883101
20
39.64099936887807
10
15.330144586415003
20
42.141003141957071
10
15.330140229637601
20
47.141003141955167
10
11.000011032328301
20
49.640999368874361
10
6.6698861917964605
20
47.140995595795367
0
LWPOLYLINE
5
189
100
AcDbEntity
8
0
100
AcDbPolyline
90
7
70
1
43
0.0
10
18.175546607220113
20
32.389766526560756
42
-0.39828623493945586
10
15.432682028389198
20
32.588364499716363
42
0.21438070319923888
10
11.669890139438902
20
34.214705013384204
10
11.669885865631302
20
38.480740993015175
10
16.000010379997001
20
40.980745331029269
10
20.330139903471299
20
38.480749669045871
10
20.330144624311298
20
33.768494147239373
42
0.058333379889288689
0
LWPOLYLINE
5
190
100
AcDbEntity
8
0
100
AcDbPolyline
90
8
70
1
43
0.0
10
40.275701649806201
20
64.999982922675969
10
37.602550129560697
20
64.999982890809477
10
36.669878901324502
20
64.461502363238978
10
36.669889125505705
20
59.461502363249465
10
41.000021256509399
20
56.961511217655371
10
45.330143163332004
20
59.461520072050774
10
45.33014228054477
20
59.893235386574588
42
-0.25089382034089974
10
42.224710386944544
20
63.448720079031574
42
0.349383308968228
0
LWPOLYLINE
5
191
100
AcDbEntity
8
0
100
AcDbPolyline
90
3
70
1
43
0.0
10
25.856943840569283
20
6.2571210894096456
42
-0.30666676637221707
10
24.000022181984303
20
4.9999816855734673
10
23.6795038953315
20
4.999981681752578
0
LWPOLYLINE
5
192
100
AcDbEntity
8
0
100
AcDbPolyline
90
6
70
1
43
0.0
10
30.330138202319699
20
55.801256918140865
10
26.000011334466699
20
58.301257179800466
10
21.669884164475302
20
55.801257441460066
10
21.6698838623368
20
50.801257441460066
10
26.0000107301897
20
48.301257179800466
10
30.330137900181203
20
50.801256918140865
0
LWPOLYLINE
5
193
100
AcDbEntity
8
0
100
AcDbPolyline
90
6
70
1
43
0.0
10
33.241206809473965
20
15.25303080892308
42
-0.22428300870972331
10
33.65476634119473
20
16.910547161639453
42
0.16622762032913496
10
36.137590096920519
20
23.580800246517573
10
40.33013505397021
20
21.160241742964967
10
40.330142617392809
20
16.160241742970673
10
36.000019380186799
20
13.660235192857471
0
CIRCLE
5
194
100
AcDbEntity
8
0
100
AcDbCircle
10
-116.858454471583
20
23.876567450902773
30
1.7763568394002505e-14
40
6.0000000000000098
210
0
220
-2.4651903288156619e-32
230
-1
0
CIRCLE
5
195
100
AcDbEntity
8
0
100
AcDbCircle
10
-111.519798113888
20
10.476894011059469
30
1.7763568394002505e-14
40
1.5000000000000002
210
0
220
0
230
-1
0
CIRCLE
5
196
100
AcDbEntity
8
0
100
AcDbCircle
10
-94.902789400850693
20
64.570562969920474
30
0
40
1.49999999999999
210
0
220
0
230
-1
0
CIRCLE
5
197
100
AcDbEntity
8
0
100
AcDbCircle
10
-130.25812803871
20
29.215223489124668
30
1.7763568394002505e-14
40
1.5000000000000002
210
0
220
0
230
-1
0
CIRCLE
5
198
100
AcDbEntity
8
0
100
AcDbCircle
10
-81.000003501772895
20
87.999983214432476
30
0
40
4.5599999999999996
210
0
220
0
230
-1
0
CIRCLE
5
199
100
AcDbEntity
8
0
100
AcDbCircle
10
-11.741893532327101
20
29.215223489124668
30
1.7763568394002505e-14
40
1.5000000000000002
210
0
220
0
230
-1
0
CIRCLE
5
200
100
AcDbEntity
8
0
100
AcDbCircle
10
-30.480225769429303
20
10.476894977126269
30
1.7763568394002505e-14
40
1.5000000000000002
210
0
220
0
230
-1
0
CIRCLE
5
201
100
AcDbEntity
8
0
100
AcDbCircle
10
-47.097232170185997
20
64.570562969920474
30
0
40
1.49999999999999
210
0
220
0
230
-1
0
CIRCLE
5
202
100
AcDbEntity
8
0
100
AcDbCircle
10
-25.141567099453901
20
23.876567450902773
30
1.7763568394002505e-14
40
6.0000000000000098
210
0
220
-2.4651903288156619e-32
230
-1
0
CIRCLE
5
203
100
AcDbEntity
8
0
100
AcDbCircle
10
-57.000001117587104
20
43.999982841903467
30
-1.0846833216991549e-30
40
0.999999999999996
210
0
220
-2.4651903288156619e-32
230
-1
0
CIRCLE
5
204
100
AcDbEntity
8
0
100
AcDbCircle
10
-85.000001117587104
20
71.99998284190346
30
-1.77493661376754e-30
40
0.999999999999996
210
0
220
-2.4651903288156619e-32
230
-1
0
LWPOLYLINE
5
205
100
AcDbEntity
8
0
100
AcDbPolyline
90
44
70
1
43
0.0
10
111.00004156932999
20
69.999982713209278
10
111.00004171326198
20
79.999982787715069
42
-0.4142135623730997
10
116.00004178522802
20
84.99998271574907
10
126.00004193424
20
84.999982571816858
42
-0.41421355364420004
10
131.00004186227403
20
79.999982648862471
10
131.00004193931903
20
74.999982499850859
10
131.00004186735299
20
69.999982425345053
10
136.000041926958
20
69.999982353378968
10
136.00004185499199
20
64.999982278873176
10
141.000041929498
20
64.999982206907077
10
141.00004113787099
20
9.9999814618489982
10
136.00004106336499
20
9.9999815338151077
10
136.00004099139903
20
4.9999823533789778
10
131.000040916893
20
4.9999823565704284
10
131.00004084492701
20
-1.8617736247117364e-05
10
111.00004054690402
20
-1.8329871989686275e-05
10
111.00004061887
20
4.999982644434728
10
86.000042183491999
20
4.999982488455549
10
86.000042111525914
20
-1.7970041691350864e-05
10
56.000022739458508
20
-1.7575329374630577e-05
10
56.000022799063103
20
4.9999828831678679
10
31.000024363685004
20
4.9999836970004177
10
31.000024304080402
20
-1.7277306293417266e-05
10
11.000024006057201
20
-1.7038887799580849e-05
10
11.000024065661799
20
4.9999839354188778
10
6.0000239911560103
20
4.9999840637981077
10
6.0000240507606311
20
9.9999832442342385
10
1.00002397625483
20
9.9999833038388264
10
1.0000246319056305
20
64.999984048896877
10
6.0000247064114411
20
64.999983989292275
10
6.0000247660160797
20
69.999984063798053
10
11.0000248256207
20
69.999984004193465
10
11.000024885225301
20
74.999984078699271
10
11.000025093841593
20
79.999984227710868
42
-0.41421355364419782
10
16.000025153446199
20
84.999984019094668
10
26.0000253024578
20
84.999983899885478
42
-0.41421356237310203
10
31.000025242853205
20
79.999983840280777
10
31.000025123643905
20
69.999983765774971
10
53.500024023985908
20
69.999983497554268
10
53.500024267813401
20
89.999983526562787
42
-0.41421356265593379
10
58.500024322889708
20
94.999983454896878
10
83.500043027937807
20
94.999983125969862
42
-0.41421356265593534
10
88.500042951443419
20
89.99998306606507
10
88.5000426689882
20
69.999983037056552
0
LWPOLYLINE
5
206
100
AcDbEntity
8
0
100
AcDbPolyline
90
6
70
1
43
0.0
10
81.669878953643916
20
16.160241742970673
10
86.000002190849813
20
13.660235192857471
10
90.330132991478393
20
16.160228642738566
10
90.330140554900908
20
21.160228642732768
10
86.000017317695011
20
23.660235192846066
10
81.669886517066516
20
21.160241742964967
0
CIRCLE
5
207
100
AcDbEntity
8
0
100
AcDbCircle
10
116.858454471583
20
23.876567450902773
30
0
40
6.0000000000000089
210
0
220
2.4651903288156624e-32
230
1
0
LWPOLYLINE
5
208
100
AcDbEntity
8
0
100
AcDbPolyline
90
6
70
1
43
0.0
10
71.669878953643902
20
16.160241742970673
10
76.000002190849798
20
13.660235192857471
10
80.330132991478393
20
16.160228642738566
10
80.330140554900908
20
21.160228642732768
10
76.000017317694997
20
23.660235192846066
10
71.669886517066502
20
21.160241742964967
0
LWPOLYLINE
5
209
100
AcDbEntity
8
0
100
AcDbPolyline
90
6
70
1
43
0.0
10
100.330132991478
20
16.160228642738566
10
100.33014055490101
20
21.160228642732768
10
96.000017317695011
20
23.660235192846066
10
91.669886517066516
20
21.160241742964967
10
91.669878953643916
20
16.160241742970673
10
96.000002190849813
20
13.660235192857471
0
CIRCLE
5
210
100
AcDbEntity
8
0
100
AcDbCircle
10
111.519798113888
20
10.476894011059469
30
0
40
1.5000000000000002
210
0
220
2.4651903288156619e-32
230
1
0
CIRCLE
5
211
100
AcDbEntity
8
0
100
AcDbCircle
10
94.902789400850693
20
64.570562969920474
30
0
40
1.49999999999999
210
0
220
0
230
1
0
CIRCLE
5
212
100
AcDbEntity
8
0
100
AcDbCircle
10
130.25812803871
20
29.215223489124668
30
0
40
1.5000000000000002
210
0
220
2.4651903288156619e-32
230
1
0
LWPOLYLINE
5
213
100
AcDbEntity
8
0
100
AcDbPolyline
90
6
70
1
43
0.0
10
46.0000042533417
20
23.660235192846066
10
41.669881016135697
20
21.160228642732768
10
41.669888579558297
20
16.160228642738566
10
46.000019380186899
20
13.660235192857471
10
50.330142617392809
20
16.160241742970673
10
50.33013505397021
20
21.160241742964967
0
LWPOLYLINE
5
214
100
AcDbEntity
8
0
100
AcDbPolyline
90
6
70
1
43
0.0
10
31.669890874740002
20
33.480740993017669
10
36.000020398214303
20
30.98074533103437
10
40.330144912580003
20
33.480749669048471
10
40.330139903471299
20
38.480749669045863
10
36.000010379997001
20
40.980745331029276
10
31.669885865631304
20
38.480740993015175
0
LWPOLYLINE
5
215
100
AcDbEntity
8
0
100
AcDbPolyline
90
9
70
1
43
0.0
10
61.754187852847409
20
5.4354052804486983
10
65.330138320063398
20
7.4999802619222491
10
65.330139351309398
20
12.49998026192217
10
61.000012848010307
20
14.999981155007269
10
56.669885313465201
20
12.499982048092569
10
56.6698847978423
20
9.9999825197048278
10
59.000020599022406
20
9.9999824994060251
42
-0.41421355633001034
10
61.000020581599507
20
7.9999825232478887
10
61.000020593520446
20
6.9999821266477182
42
0.22843633680801473
0
LWPOLYLINE
5
216
100
AcDbEntity
8
0
100
AcDbPolyline
90
6
70
1
43
0.0
10
41.669884164475299
20
55.801257441460066
10
41.669883862336803
20
50.801257441460066
10
46.0000107301897
20
48.301257179800466
10
50.330137900181207
20
50.801256918140865
10
50.330138202319709
20
55.801256918140865
10
46.000011334466706
20
58.301257179800466
0
LWPOLYLINE
5
217
100
AcDbEntity
8
0
100
AcDbPolyline
90
6
70
1
43
0.0
10
14.207098695619999
20
22.62509707032677
10
11.669881016135699
20
21.160228642732768
10
11.6698885795583
20
16.160228642738566
10
16.000019380186899
20
13.660235192857471
10
18.503216222367495
20
15.105461612258962
42
-0.20171923035829625
10
14.229792123391633
20
22.486183737035759
42
0.017599796393910218
0
LWPOLYLINE
5
218
100
AcDbEntity
8
0
100
AcDbPolyline
90
5
70
1
43
0.0
10
30.330139903471299
20
38.480749669045863
10
26.000010379997001
20
40.980745331029269
10
21.669885865631301
20
38.480740993015175
10
21.669890039605001
20
34.31435736985226
42
-0.20591377085028187
10
30.330144817173302
20
33.575982962529771
0
LWPOLYLINE
5
219
100
AcDbEntity
8
0
100
AcDbPolyline
90
6
70
1
43
0.0
10
11.6698838623368
20
50.801257441460066
10
16.0000107301897
20
48.301257179800466
10
20.330137900181203
20
50.801256918140865
10
20.330138202319699
20
55.801256918140865
10
16.000011334466699
20
58.301257179800466
10
11.669884164475302
20
55.801257441460066
0
LWPOLYLINE
5
220
100
AcDbEntity
8
0
100
AcDbPolyline
90
3
70
1
43
0.0
10
18.000021883961104
20
4.9999816140479378
42
-0.30666671327798317
10
16.143100339608381
20
6.2571206131442105
10
18.320518424261799
20
4.9999815650074577
0
LWPOLYLINE
5
221
100
AcDbEntity
8
0
100
AcDbPolyline
90
5
70
1
43
0.0
10
6.0000203982143496
20
30.98074533103437
10
7.4851143745142421
20
31.838166721756672
42
-0.18515375969424233
10
10.330144380581199
20
34.01178103934177
10
10.3301399034713
20
38.480749669045863
10
6.0000206591119598
20
40.980739396393169
0
LWPOLYLINE
5
222
100
AcDbEntity
8
0
100
AcDbPolyline
90
5
70
1
43
0.0
10
46.6698847978423
20
9.9999826068193887
10
55.33013883568691
20
9.9999825313759878
10
55.330139351309398
20
12.49998026192217
10
51.000012848010307
20
14.999981155007269
10
46.669885313465201
20
12.499982048092569
0
LWPOLYLINE
5
223
100
AcDbEntity
8
0
100
AcDbPolyline
90
3
70
1
43
0.0
10
69.49743199670192
20
32.999981530601374
10
62.502592616409103
20
32.999981530601374
10
66.000020398214303
20
30.98074533103437
0
LWPOLYLINE
5
224
100
AcDbEntity
8
0
100
AcDbPolyline
90
6
70
1
43
0.0
10
56.669888786034797
20
24.820482322956373
10
61.000019793138804
20
22.320489230702467
10
65.330142823868201
20
24.820496138442273
10
65.330134847493696
20
29.820496138435871
10
61.000003840389809
20
32.320489230689773
10
56.669880809660299
20
29.820482322949967
0
LWPOLYLINE
5
225
100
AcDbEntity
8
0
100
AcDbPolyline
90
4
70
1
43
0.0
10
10.3301382023197
20
55.801256918140865
10
6.0210317438799299
20
58.28912103907367
10
6.000010730189711
20
48.301257179800466
10
10.330137900181199
20
50.801256918140865
0
LWPOLYLINE
5
226
100
AcDbEntity
8
0
100
AcDbPolyline
90
6
70
1
43
0.0
10
41.000003840389809
20
32.320489230689773
10
36.669880809660299
20
29.820482322949967
10
36.669888786034797
20
24.820482322956373
10
41.000019793138797
20
22.320489230702467
10
45.330142823868201
20
24.820496138442273
10
45.33013484749371
20
29.820496138435871
0
LWPOLYLINE
5
227
100
AcDbEntity
8
0
100
AcDbPolyline
90
3
70
1
43
0.0
10
35.330134847493703
20
29.820496138435871
10
33.73784732786946
20
30.739800379673014
42
-0.071938959550339673
10
35.33013771497
20
28.023015185126173
0
LWPOLYLINE
5
228
100
AcDbEntity
8
0
100
AcDbPolyline
90
5
70
1
43
0.0
10
101.00000872302601
20
14.999981155007269
10
96.669882219727299
20
12.49998026192217
10
96.669882735349816
20
9.9999825313759878
10
105.33013677319401
20
9.9999826068193904
10
105.330136257571
20
12.499982048092569
0
LWPOLYLINE
5
229
100
AcDbEntity
8
0
100
AcDbPolyline
90
3
70
1
43
0.0
10
72.502589574334806
20
32.999981530601374
10
76.000001172822294
20
30.98074533103437
10
79.497428954627594
20
32.999981530601374
0
LWPOLYLINE
5
230
100
AcDbEntity
8
0
100
AcDbPolyline
90
4
70
1
43
0.0
10
82.500001117587104
20
36.999981530601382
42
-0.99999999999999989
10
82.500001117587104
20
34.99998153060136
10
59.500001117587104
20
34.999981530601374
42
-0.99999999999999989
10
59.500001117587104
20
36.999981530601367
0
LWPOLYLINE
5
231
100
AcDbEntity
8
0
100
AcDbPolyline
90
6
70
1
43
0.0
10
130.33014055490099
20
21.160228642732768
10
127.79292287541701
20
22.62509707032677
42
0.017599796393915741
10
127.77022944764504
20
22.48618373703577
42
-0.2017192303583018
10
123.496805348669
20
15.105461612258971
10
126.00000219085001
20
13.660235192857471
10
130.330132991478
20
16.160228642738566
0
LWPOLYLINE
5
232
100
AcDbEntity
8
0
100
AcDbPolyline
90
4
70
1
43
0.0
10
58.500024322889708
20
92.559983214432464
10
58.500024322889708
20
78.559983214432478
10
72.500024322889701
20
78.559983214432478
10
72.500024322889701
20
92.559983214432464
0
CIRCLE
5
233
100
AcDbEntity
8
0
100
AcDbCircle
10
81.000003501772895
20
87.999983214432476
30
0
40
4.5599999999999996
210
0
220
0
230
1
0
LWPOLYLINE
5
234
100
AcDbEntity
8
0
100
AcDbPolyline
90
4
70
1
43
0.0
10
136.00001084084704
20
48.301257179800466
10
135.97898982715699
20
58.28912103907367
10
131.669883368717
20
55.801256918140865
10
131.669883670856
20
50.801256918140865
0
CIRCLE
5
235
100
AcDbEntity
8
0
100
AcDbCircle
10
11.7418962913641
20
29.21522490194797
30
0
40
1.5000000000000002
210
0
220
2.4651903288156619e-32
230
1
0
CIRCLE
5
236
100
AcDbEntity
8
0
100
AcDbCircle
10
30.480225769429303
20
10.476894977126269
30
0
40
1.5000000000000002
210
0
220
2.4651903288156619e-32
230
1
0
LWPOLYLINE
5
237
100
AcDbEntity
8
0
100
AcDbPolyline
90
8
70
1
43
0.0
10
131.75417382171199
20
14.564563939662369
10
131.00000872302601
20
14.999981155007269
10
126.66988221972701
20
12.49998026192217
10
126.66988283979782
20
9.493565131017446
42
-0.18392590618006072
10
127.99999971917002
20
9.9999824994059878
10
128.99999984869601
20
9.9999825012399199
42
0.41421355834435841
10
130.99999984502799
20
11.999982477398071
10
130.99999985694899
20
12.999981754118771
42
-0.22843746416338981
0
LWPOLYLINE
5
238
100
AcDbEntity
8
0
100
AcDbPolyline
90
6
70
1
43
0.0
10
136.00000005853499
20
23.660225228299971
10
131.669886517066
20
21.160241742964967
10
131.669878953644
20
16.160241742970673
10
133.67950123923899
20
14.99998172217667
10
133.999999955297
20
14.999981718356018
42
0.41421356237296592
10
135.99999997913801
20
16.999981694514169
0
LWPOLYLINE
5
239
100
AcDbEntity
8
0
100
AcDbPolyline
90
8
70
1
43
0.0
10
105.330142669712
20
64.461502363238978
10
104.39747144147601
20
64.999982890809477
10
101.72431992123101
20
64.999982922675969
42
0.34938330896826969
10
99.775311184092033
20
63.448720079031588
42
-0.2508938203409008
10
96.669879290491821
20
59.893235386574666
10
96.669878407704715
20
59.461520072050774
10
101.00000031452701
20
56.961511217655371
10
105.33013244553102
20
59.461502363249465
0
CIRCLE
5
240
100
AcDbEntity
8
0
100
AcDbCircle
10
47.097235772159706
20
64.570563539806969
30
0
40
1.49999999999999
210
0
220
0
230
1
0
LWPOLYLINE
5
241
100
AcDbEntity
8
0
100
AcDbPolyline
90
8
70
1
43
0.0
10
115.330142669712
20
64.461502363238978
10
114.34541685387902
20
65.030036762895179
42
-0.043421933519631056
10
114.00000011920902
20
64.999982776338371
10
107.602537930092
20
64.999982852602074
10
106.669888631886
20
64.461520072040273
10
106.66987840770501
20
59.461520072050774
10
111.00000031452701
20
56.961511217655371
10
115.33013244553102
20
59.461502363249465
0
LWPOLYLINE
5
242
100
AcDbEntity
8
0
100
AcDbPolyline
90
7
70
1
43
0.0
10
126.00000323194101
20
65.62175640111947
10
126.37287297362376
20
65.83703110371998
42
-0.15639201195025154
10
126.00000044107401
20
66.99998263328726
10
126.00000045299497
20
67.999982707793066
42
0.41421356237307944
10
124.00000047683702
20
69.999982731634873
10
121.66989156388502
20
69.999982759411978
10
121.66988497852002
20
68.121771583350778
0
LWPOLYLINE
5
243
100
AcDbEntity
8
0
100
AcDbPolyline
90
12
70
1
43
0.0
10
129.00000047683699
20
64.999982597524436
42
-0.414213562373069
10
131.00000045299498
20
62.999982573682665
10
131.00000044107401
20
61.999982499176767
42
0.41421356237307161
10
133.000000417232
20
59.99998247533501
10
134.00000049173801
20
59.999982463414021
42
-0.18392852697254788
10
135.33013251106598
20
59.493551593964213
10
135.33013244553101
20
59.461502363249465
10
131.00000031452703
20
56.961511217655371
10
126.66987840770501
20
59.461520072050774
10
126.669888631886
20
64.461520072040273
10
127.654590676769
20
65.030035377989066
42
0.043421044323526461
10
128.00000041723303
20
64.999982609445368
0
CIRCLE
5
244
100
AcDbEntity
8
0
100
AcDbCircle
10
25.141569731207404
20
23.876568544252969
30
0
40
6.0000000000000089
210
0
220
2.4651903288156624e-32
230
1
0
LWPOLYLINE
5
245
100
AcDbEntity
8
0
100
AcDbPolyline
90
5
70
1
43
0.0
10
131.66988166756499
20
38.480749669045871
10
131.66987719045488
20
34.011781039341301
42
-0.18515375969426057
10
134.51490719652199
20
31.838166721756668
10
136.00000117282201
20
30.980745331034363
10
136.00000091192501
20
40.980739396393169
0
LWPOLYLINE
5
246
100
AcDbEntity
8
0
100
AcDbPolyline
90
3
70
1
43
0.0
10
118.32051767570502
20
4.999981681752578
10
116.14307773046701
20
6.2571210894096376
42
0.30666676637220902
10
117.99999938905201
20
4.9999816855734478
0
LWPOLYLINE
5
247
100
AcDbEntity
8
0
100
AcDbPolyline
90
7
70
1
43
0.0
10
116.00000015497201
20
67.99998282700237
42
-0.41421356237311197
10
118.00000017881402
20
69.999982803160464
10
120.33014560178201
20
69.999982775382975
10
120.33013901631101
20
68.121741218857352
10
116.00000323194101
20
65.62175640111947
10
115.627131007467
20
65.837036023444369
42
0.15639125773530324
10
116.00000014305098
20
66.999982752496578
0
LWPOLYLINE
5
248
100
AcDbEntity
8
0
100
AcDbPolyline
90
7
70
1
43
0.0
10
121.66988166756499
20
38.480749669045871
10
121.66987694672514
20
33.768494147239664
42
-0.058333379889304454
10
123.82447496381693
20
32.389766526560678
42
0.3982862349394683
10
126.567339542648
20
32.588364499716405
42
-0.21438070319922545
10
130.33013143159801
20
34.214705013384169
10
130.33013570540501
20
38.480740993015168
10
126.00001119104
20
40.980745331029276
0
LWPOLYLINE
5
249
100
AcDbEntity
8
0
100
AcDbPolyline
90
3
70
1
43
0.0
10
108.26217424316701
20
30.739800379672971
10
106.669886723543
20
29.820496138435871
10
106.66988385606663
20
28.023015185126336
42
-0.07193895955032785
0
LWPOLYLINE
5
250
100
AcDbEntity
8
0
100
AcDbPolyline
90
3
70
1
43
0.0
10
125.8569212314279
20
6.2571206131442123
42
-0.30666671327786488
10
123.99999968707601
20
4.999981614047857
10
123.67950314677501
20
4.9999815650074577
0
LWPOLYLINE
5
251
100
AcDbEntity
8
0
100
AcDbPolyline
90
5
70
1
43
0.0
10
91.000008723026411
20
14.999981155007269
10
86.669882219727299
20
12.49998026192217
10
86.669882735349816
20
9.9999825313759878
10
95.330136773194397
20
9.9999826068193904
10
95.330136257571496
20
12.499982048092569
0
LWPOLYLINE
5
252
100
AcDbEntity
8
0
100
AcDbPolyline
90
5
70
1
43
0.0
10
116.00001119104
20
40.980745331029276
10
111.66988166756499
20
38.480749669045871
10
111.66987675386311
20
33.575982962529565
42
-0.20591377085029808
10
120.33013153143202
20
34.314357369852274
10
120.33013570540501
20
38.480740993015168
0
LWPOLYLINE
5
253
100
AcDbEntity
8
0
100
AcDbPolyline
90
9
70
1
43
0.0
10
81.000000977516194
20
6.9999821266477182
10
81.000000989437154
20
7.9999825232478887
42
-0.41421355633000917
10
83.000000972014206
20
9.9999824994059683
10
85.330136773194397
20
9.9999825197048295
10
85.330136257571496
20
12.499982048092569
10
81.000008723026411
20
14.999981155007269
10
76.669882219727299
20
12.49998026192217
10
76.6698832509732
20
7.4999802619222491
10
80.245833718189289
20
5.4354052804487241
42
0.22843633680801267
0
LWPOLYLINE
5
254
100
AcDbEntity
8
0
100
AcDbPolyline
90
6
70
1
43
0.0
10
116.669888631886
20
64.461520072040273
10
116.66987840770501
20
59.461520072050774
10
121.00000031452701
20
56.961511217655371
10
125.33013244553102
20
59.461502363249465
10
125.330142669712
20
64.461502363238978
10
121.00002076289002
20
66.961511217634367
0
LWPOLYLINE
5
255
100
AcDbEntity
8
0
100
AcDbPolyline
90
6
70
1
43
0.0
10
110.33013740656101
20
55.801257441460066
10
106.00001023657001
20
58.301257179800466
10
101.669883368717
20
55.801256918140865
10
101.66988367085601
20
50.801256918140865
10
106.00001084084701
20
48.301257179800466
10
110.33013770869999
20
50.801257441460066
0
LWPOLYLINE
5
256
100
AcDbEntity
8
0
100
AcDbPolyline
90
6
70
1
43
0.0
10
120.33013740656101
20
55.801257441460066
10
116.00001023657001
20
58.301257179800466
10
111.669883368717
20
55.801256918140865
10
111.66988367085601
20
50.801256918140865
10
116.00001084084701
20
48.301257179800466
10
120.33013770869999
20
50.801257441460066
0
LWPOLYLINE
5
257
100
AcDbEntity
8
0
100
AcDbPolyline
90
6
70
1
43
0.0
10
130.33013740656099
20
55.801257441460066
10
126.00001023657001
20
58.301257179800466
10
121.669883368717
20
55.801256918140865
10
121.66988367085601
20
50.801256918140865
10
126.00001084084701
20
48.301257179800466
10
130.33013770869999
20
50.801257441460066
0
LWPOLYLINE
5
258
100
AcDbEntity
8
0
100
AcDbPolyline
90
6
70
1
43
0.0
10
96.000010840847011
20
48.301257179800466
10
100.33013770869999
20
50.801257441460066
10
100.33013740656101
20
55.801257441460066
10
96.000010236569921
20
58.301257179800466
10
91.669883368716995
20
55.801256918140865
10
91.669883670855498
20
50.801256918140865
0
LWPOLYLINE
5
259
100
AcDbEntity
8
0
100
AcDbPolyline
90
6
70
1
43
0.0
10
126.66987698462201
20
42.141003141957079
10
131.00000182515399
20
39.64099936887807
10
135.33013102246301
20
42.140995595797264
10
135.33013537924001
20
47.140995595795367
10
131.00001053870801
20
49.640999368874361
10
126.66988134139901
20
47.141003141955167
0
LWPOLYLINE
5
260
100
AcDbEntity
8
0
100
AcDbPolyline
90
6
70
1
43
0.0
10
116.66987698462201
20
42.141003141957079
10
121.00000182515402
20
39.64099936887807
10
125.33013102246301
20
42.140995595797264
10
125.33013537924001
20
47.140995595795367
10
121.000010538708
20
49.640999368874361
10
116.66988134139901
20
47.141003141955167
0
LWPOLYLINE
5
261
100
AcDbEntity
8
0
100
AcDbPolyline
90
6
70
1
43
0.0
10
106.00000219085001
20
13.660235192857471
10
108.75881476156302
20
15.25303080892307
42
0.22428300870973891
10
108.34525522984183
20
16.910547161639311
42
-0.16622762032913035
10
105.86243147411601
20
23.580800246517573
10
101.66988651706602
20
21.160241742964967
10
101.669878953644
20
16.160241742970673
0
LWPOLYLINE
5
262
100
AcDbEntity
8
0
100
AcDbPolyline
90
4
70
1
43
0.0
10
75.999999195638395
20
6.3397271171518579
10
73.679503393839894
20
4.9999817076511883
10
76.000000917597802
20
4.9999821862523781
10
78.320516849795013
20
4.9999821585897477
0
LWPOLYLINE
5
263
100
AcDbEntity
8
0
100
AcDbPolyline
90
6
70
1
43
0.0
10
81.000001777897893
20
22.320489230702467
10
85.330132785001908
20
24.820482322956373
10
85.330140761376313
20
29.820482322949967
10
81.000017730646903
20
32.320489230689773
10
76.669886723543001
20
29.820496138435871
10
76.669878747168497
20
24.820496138442273
0
LWPOLYLINE
5
264
100
AcDbEntity
8
0
100
AcDbPolyline
90
6
70
1
43
0.0
10
86.669878747168511
20
24.820496138442273
10
91.000001777897893
20
22.320489230702467
10
95.330132785001794
20
24.820482322956373
10
95.330140761376313
20
29.820482322949967
10
91.000017730646903
20
32.320489230689773
10
86.669886723542916
20
29.820496138435871
0
LWPOLYLINE
5
265
100
AcDbEntity
8
0
100
AcDbPolyline
90
6
70
1
43
0.0
10
96.669878747168511
20
24.820496138442273
10
101.00000177789802
20
22.320489230702467
10
105.33013278500199
20
24.820482322956373
10
105.33014076137601
20
29.820482322949967
10
101.00001773064702
20
32.320489230689773
10
96.669886723542916
20
29.820496138435871
0
LWPOLYLINE
5
266
100
AcDbEntity
8
0
100
AcDbPolyline
90
6
70
1
43
0.0
10
96.669876984621709
20
42.141003141957079
10
101.00000182515402
20
39.64099936887807
10
105.33013102246301
20
42.140995595797264
10
105.33013537924001
20
47.140995595795367
10
101.000010538708
20
49.640999368874361
10
96.669881341399119
20
47.141003141955167
0
LWPOLYLINE
5
267
100
AcDbEntity
8
0
100
AcDbPolyline
90
6
70
1
43
0.0
10
100.33013069629702
20
33.480740993017669
10
100.33013570540501
20
38.480740993015175
10
96.000011191039718
20
40.980745331029276
10
91.669881667565306
20
38.480749669045871
10
91.669876658456701
20
33.480749669048471
10
96.000001172822294
20
30.98074533103437
0
LWPOLYLINE
5
268
100
AcDbEntity
8
0
100
AcDbPolyline
90
6
70
1
43
0.0
10
106.66987698462201
20
42.141003141957079
10
111.00000182515402
20
39.64099936887807
10
115.33013102246301
20
42.140995595797264
10
115.33013537924001
20
47.140995595795367
10
111.000010538708
20
49.640999368874361
10
106.66988134139901
20
47.141003141955167
0
LWPOLYLINE
5
269
100
AcDbEntity
8
0
100
AcDbPolyline
90
6
70
1
43
0.0
10
101.66988166756499
20
38.480749669045871
10
101.66987665845701
20
33.480749669048471
10
106.000001172822
20
30.98074533103437
10
110.33013069629702
20
33.480740993017669
10
110.33013570540501
20
38.480740993015168
10
106.00001119104
20
40.980745331029276
0
CIRCLE
5
270
100
AcDbEntity
8
0
100
AcDbCircle
10
57.000001117587104
20
43.999982841903467
30
0
40
0.99999999999999589
210
0
220
0
230
1
0
CIRCLE
5
271
100
AcDbEntity
8
0
100
AcDbCircle
10
85.000001117587104
20
71.99998284190346
30
0
40
0.99999999999999589
210
0
220
0
230
1
0
LWPOLYLINE
5
272
100
AcDbEntity
8
0
100
AcDbPolyline
90
12
70
1
43
0.0
10
77.583802630491405
20
71.99998284190346
42
-0.30561468458070007
10
80.364877063152278
20
70.12498284190346
42
0.20323135713026547
10
83.125001117587104
20
67.364858787468677
42
-0.30561468458069946
10
85.000001117587118
20
64.583784354807776
10
85.000001117587118
20
48.999982841903467
42
-0.41421356237309503
10
80.000001117587104
20
43.999982841903453
10
64.416199604682802
20
43.99998284190346
42
-0.30561468458070068
10
61.635125172021915
20
45.874982841903474
42
0.20323135713027193
10
58.875001117587111
20
48.6351068963383
42
-0.30561468458070024
10
57.000001117587104
20
51.416181328999173
10
57.000001117587104
20
66.99998284190346
42
-0.41421356237309503
10
62.000001117587104
20
71.99998284190346
0
LWPOLYLINE
5
273
100
AcDbEntity
8
0
100
AcDbPolyline
90
9
70
1
43
0.0
10
83.500001117587104
20
38.999981530601367
42
-0.41421356237309503
10
85.50000111758709
20
36.999981530601374
10
85.50000111758709
20
34.999981530601275
42
-0.41421356237308071
10
83.500001117587104
20
32.999981530601374
10
82.502589574334806
20
32.999981530601374
10
86.000001172822294
20
30.98074533103437
10
90.33013069629672
20
33.480740993017669
10
90.330135705405397
20
38.480740993015175
10
89.430784696444704
20
38.999982741454474
0
LWPOLYLINE
5
274
100
AcDbEntity
8
0
100
AcDbPolyline
90
6
70
1
43
0.0
10
95.330132445531021
20
59.461502363249465
10
95.330132705953815
20
59.588858673238093
42
-0.37357251700237121
10
90.030267590862479
20
63.448720195201467
42
0.014935232301053567
10
90.000001117587104
20
63.564277490126173
10
90.000001117587104
20
57.538863749647469
10
91.000000314527298
20
56.961511217655371
0
LWPOLYLINE
5
275
100
AcDbEntity
8
0
100
AcDbPolyline
90
6
70
1
43
0.0
10
95.330135379240204
20
47.140995595795367
10
91.000010538708395
20
49.640999368874361
10
90.000001117587104
20
49.063644822215473
10
90.000001117587104
20
40.218351208390182
10
91.000001825153603
20
39.640999368878063
10
95.330131022462893
20
42.140995595797264
0
LWPOLYLINE
5
276
100
AcDbEntity
8
0
100
AcDbPolyline
90
6
70
1
43
0.0
10
51.969753980174225
20
63.448720195201467
42
-0.014926663502669265
10
52.000001117587125
20
63.564211739190867
10
52.000001117587104
20
57.538852586029364
10
51.000021256509399
20
56.961511217655371
10
46.669889125505705
20
59.461502363249465
10
46.66988886508291
20
59.588858673238164
42
0.37357251700237226
0
LWPOLYLINE
5
277
100
AcDbEntity
8
0
100
AcDbPolyline
90
6
70
1
43
0.0
10
52.000001117587104
20
49.063655985758466
10
51.00001103232831
20
49.640999368874361
10
46.669886191796508
20
47.140995595795367
10
46.669890548573804
20
42.140995595797278
10
51.000019745883101
20
39.640999368878063
10
52.000001117587104
20
40.218340044802261
0
LWPOLYLINE
5
278
100
AcDbEntity
8
0
100
AcDbPolyline
90
9
70
1
43
0.0
10
52.569237048574408
20
38.999982841903474
10
51.669885865631301
20
38.480740993015175
10
51.669890874740005
20
33.480740993017669
10
56.000020398214303
20
30.98074533103437
10
59.497431996701906
20
32.999981530601374
10
58.500020453449608
20
32.999981530601367
42
-0.4142135623730781
10
56.500020453449608
20
34.999981530601275
10
56.5000204534497
20
36.999981530601374
42
-0.41421356237309176
10
58.500020453449608
20
38.999981530601275
0
LWPOLYLINE
5
279
100
AcDbEntity
8
0
100
AcDbPolyline
90
4
70
1
43
0.0
10
16.0000004470348
20
74.999984019673477
10
26.0000004470348
20
74.999984019673477
10
26.0000004470348
20
79.999982931310456
10
16.0000004470348
20
79.999982931310456
0
LWPOLYLINE
5
280
100
AcDbEntity
8
0
100
AcDbPolyline
90
8
70
1
43
0.0
10
121.77319175393195
20
14.035563566872982
42
-0.25182371323964658
10
122.71998587371
20
14.006952357051841
10
125.330136257571
20
12.499982048092569
10
125.330137288817
20
7.4999820480926793
10
121.000010785518
20
4.9999811550074984
10
116.669883250973
20
7.4999802619222491
10
116.66988236744859
20
11.783754638937598
42
-0.26359977466421436
10
118.248837925293
20
12.964792441691216
42
0.084309252348742328
0
LWPOLYLINE
5
281
100
AcDbEntity
8
0
100
AcDbPolyline
90
6
70
1
43
0.0
10
12.1018503212612
20
24.228197209857587
42
-0.19298456453014728
10
13.519694007661958
20
23.775229176163212
10
11.000019793138803
20
22.320489230702467
10
6.6698887860348499
20
24.820482322956373
10
6.6698869044151996
20
25.999977872451868
10
7.9127672123387507
20
25.999979855187672
42
0.24058109013505882
0
LWPOLYLINE
5
282
100
AcDbEntity
8
0
100
AcDbPolyline
90
6
70
1
43
0.0
10
135.33013466661501
20
25.999974035402872
10
134.08725113680316
20
25.99997601814362
42
-0.24058082511833753
10
129.898171249775
20
24.228197209857619
42
0.19298456453004562
10
128.480327563375
20
23.775229176163268
10
131.00000177789804
20
22.320489230702467
10
135.33013278500201
20
24.820482322956373
0
LWPOLYLINE
5
283
100
AcDbEntity
8
0
100
AcDbPolyline
90
6
70
1
43
0.0
10
75.330142823868201
20
24.820496138442273
10
75.330134847493696
20
29.820496138435871
10
71.000003840389795
20
32.320489230689773
10
66.669880809660299
20
29.820482322949967
10
66.669888786034804
20
24.820482322956373
10
71.000019793138804
20
22.320489230702467
0
LWPOLYLINE
5
284
100
AcDbEntity
8
0
100
AcDbPolyline
90
6
70
1
43
0.0
10
46.000020398214303
20
30.98074533103437
10
50.33014491258001
20
33.480749669048471
10
50.330139903471299
20
38.480749669045863
10
46.000010379997001
20
40.980745331029276
10
41.669885865631301
20
38.480740993015175
10
41.669890874739998
20
33.480740993017669
0
LWPOLYLINE
5
285
100
AcDbEntity
8
0
100
AcDbPolyline
90
6
70
1
43
0.0
10
60.33013505397021
20
21.160241742964967
10
56.0000042533417
20
23.660235192846066
10
51.669881016135697
20
21.160228642732768
10
51.669888579558297
20
16.160228642738566
10
56.000019380186799
20
13.660235192857471
10
60.330142617392809
20
16.160241742970673
0
LWPOLYLINE
5
286
100
AcDbEntity
8
0
100
AcDbPolyline
90
6
70
1
43
0.0
10
16.6698905485738
20
42.140995595797278
10
21.000019745883101
20
39.64099936887807
10
25.330144586414999
20
42.141003141957071
10
25.330140229637603
20
47.141003141955167
10
21.000011032328302
20
49.640999368874361
10
16.6698861917965
20
47.140995595795367
0
LWPOLYLINE
5
287
100
AcDbEntity
8
0
100
AcDbPolyline
90
6
70
1
43
0.0
10
46.669880809660299
20
29.820482322949967
10
46.669888786034797
20
24.820482322956373
10
51.000019793138804
20
22.320489230702467
10
55.330142823868201
20
24.820496138442273
10
55.33013484749371
20
29.820496138435871
10
51.000003840389809
20
32.320489230689773
0
LWPOLYLINE
5
288
100
AcDbEntity
8
0
100
AcDbPolyline
90
7
70
1
43
0.0
10
23.751183645743804
20
12.964792441691218
42
-0.26359977466422352
10
25.330139203588416
20
11.783754638937873
10
25.330138320063401
20
7.49998026192225
10
21.000010785518302
20
4.9999811550074984
10
16.669884282219201
20
7.4999820480926784
10
16.669885313465201
20
12.499982048092569
10
19.758968386178999
20
14.283464142178568
42
0.096442490164348804
0
LWPOLYLINE
5
289
100
AcDbEntity
8
0
100
AcDbPolyline
90
4
70
1
43
0.0
10
116.00006650908099
20
79.999981747173479
10
116.00006637751001
20
74.999982835536471
10
126.00006637751001
20
74.999982572395069
10
126.00006650908099
20
79.999981484032077
0
LWPOLYLINE
5
290
100
AcDbEntity
8
0
100
AcDbPolyline
90
12
70
1
43
0.0
10
11.000021118041399
20
62.999982573682665
10
11.000021129962308
20
61.999982499176767
42
-0.41421356237308382
10
9.0000211538041892
20
59.999982475334974
10
8.0000210792983495
20
59.999982463414028
42
0.18392852697255999
10
6.6698890599702709
20
59.493551593964263
10
6.6698891255057005
20
59.461502363249465
10
11.000021256509401
20
56.961511217655371
10
15.330143163332002
20
59.461520072050774
10
15.330132939150802
20
64.461520072040273
10
14.345430894267711
20
65.030035377989037
42
-0.043421044323503653
10
14.000021153804202
20
64.999982609445368
10
13.0000210941995
20
64.999982597524451
42
0.41421356237308038
0
LWPOLYLINE
5
291
100
AcDbEntity
8
0
100
AcDbPolyline
90
6
70
1
43
0.0
10
61.669881016135697
20
21.160228642732768
10
61.669888579558297
20
16.160228642738566
10
66.000019380186899
20
13.660235192857471
10
70.330142617392795
20
16.160241742970673
10
70.330135053970196
20
21.160241742964967
10
66.0000042533417
20
23.660235192846066
0
LWPOLYLINE
5
292
100
AcDbEntity
8
0
100
AcDbPolyline
90
6
70
1
43
0.0
10
75.330136257571496
20
12.499982048092569
10
71.00001207793845
20
14.999980440171846
10
66.669885313465201
20
12.499982048092569
10
66.669884282219201
20
7.4999820480926784
10
71.000010785518299
20
4.9999811550074984
10
75.330137288817497
20
7.4999820480926793
0
LWPOLYLINE
5
293
100
AcDbEntity
8
0
100
AcDbPolyline
90
7
70
1
43
0.0
10
24.000021392222802
20
69.999982803160464
42
-0.41421356237308138
10
26.000021416064584
20
67.99998282700237
10
26.000021427985502
20
66.999982752496578
42
0.15639125773533394
10
26.372890563570092
20
65.837036023444355
10
26.000018339095405
20
65.62175640111947
10
21.6698825547256
20
68.121741218857352
10
21.669875969254399
20
69.999982775382975
0
LWPOLYLINE
5
294
100
AcDbEntity
8
0
100
AcDbPolyline
90
6
70
1
43
0.0
10
8.3205203317975993
20
14.99998172217667
10
10.330142617392802
20
16.160241742970673
10
10.330135053970199
20
21.160241742964967
10
6.0000215125019709
20
23.660225228299971
10
6.0000215918983102
20
16.999981694514169
42
0.41421356237309082
10
8.0000216157401702
20
14.99998171835607
0
LWPOLYLINE
5
295
100
AcDbEntity
8
0
100
AcDbPolyline
90
6
70
1
43
0.0
10
25.330132939150801
20
64.461520072040273
10
21.000000808147
20
66.961511217634367
10
16.669878901324498
20
64.461502363238978
10
16.669889125505701
20
59.461502363249465
10
21.000021256509399
20
56.961511217655371
10
25.330143163332004
20
59.461520072050774
0
LWPOLYLINE
5
296
100
AcDbEntity
8
0
100
AcDbPolyline
90
8
70
1
43
0.0
10
13.000021722340803
20
9.9999825012400283
10
14.000021851866201
20
9.9999824994059736
42
-0.18392590618011168
10
15.330138731238701
20
9.49356513101724
10
15.330139351309402
20
12.49998026192217
10
11.0000128480103
20
14.999981155007269
10
10.245847749324922
20
14.564563939662394
42
-0.22843746416339331
10
11.0000217140879
20
12.999981754118771
10
11.000021726008811
20
11.999982477398071
42
0.41421355834436363
0
LWPOLYLINE
5
297
100
AcDbEntity
8
0
100
AcDbPolyline
90
6
70
1
43
0.0
10
36.669890548573804
20
42.140995595797278
10
41.000019745883101
20
39.64099936887807
10
45.330144586415003
20
42.141003141957071
10
45.330140229637607
20
47.141003141955167
10
41.000011032328302
20
49.640999368874361
10
36.6698861917965
20
47.140995595795367
0
LWPOLYLINE
5
298
100
AcDbEntity
8
0
100
AcDbPolyline
90
7
70
1
43
0.0
10
16.000021118041342
20
67.999982707793066
42
-0.41421356237311063
10
18.0000210941995
20
69.99998273163493
10
20.330130007152004
20
69.999982759411978
10
20.330136592516702
20
68.121771583350778
10
16.000018339095405
20
65.62175640111947
10
15.627148597412601
20
65.837031103720165
42
0.15639201195023072
10
16.000021129962278
20
66.99998263328726
0
LWPOLYLINE
5
299
100
AcDbEntity
8
0
100
AcDbPolyline
90
8
70
1
43
0.0
10
34.3974836409445
20
64.999982852602074
10
28.000021451827308
20
64.999982776338442
42
-0.043421933519636732
10
27.654604717157305
20
65.030036762895264
10
26.669878901324502
20
64.461502363238978
10
26.669889125505701
20
59.461502363249465
10
31.000021256509402
20
56.961511217655371
10
35.330143163331996
20
59.461520072050774
10
35.330132939150801
20
64.461520072040273
0
LWPOLYLINE
5
300
100
AcDbEntity
8
0
100
AcDbPolyline
90
4
70
1
43
0.0
10
68.320518177196803
20
4.9999817076511883
10
66.000022375398302
20
6.3397271171518579
10
63.679504721241706
20
4.9999821585897477
10
66.000020653438895
20
4.9999821862523781
0
LWPOLYLINE
5
301
100
AcDbEntity
8
0
100
AcDbPolyline
90
6
70
1
43
0.0
10
31.669884164475302
20
55.801257441460066
10
31.6698838623368
20
50.801257441460066
10
36.0000107301897
20
48.301257179800466
10
40.330137900181199
20
50.801256918140865
10
40.330138202319709
20
55.801256918140865
10
36.000011334466699
20
58.301257179800466
0
LWPOLYLINE
5
302
100
AcDbEntity
8
0
100
AcDbPolyline
90
5
70
1
43
0.0
10
36.6698847978423
20
9.9999826068193887
10
45.33013883568691
20
9.9999825313759878
10
45.330139351309398
20
12.49998026192217
10
41.000012848010307
20
14.999981155007269
10
36.669885313465201
20
12.499982048092569
0
LWPOLYLINE
5
303
100
AcDbEntity
8
0
100
AcDbPolyline
90
6
70
1
43
0.0
10
26.6698905485738
20
42.140995595797278
10
31.000019745883101
20
39.64099936887807
10
35.330144586415003
20
42.141003141957071
10
35.330140229637607
20
47.141003141955167
10
31.000011032328302
20
49.640999368874361
10
26.6698861917965
20
47.140995595795367
0
LWPOLYLINE
5
304
100
AcDbEntity
8
0
100
AcDbPolyline
90
6
70
1
43
0.0
10
6.6698905485738402
20
42.140995595797278
10
11.000019745883101
20
39.64099936887807
10
15.330144586415003
20
42.141003141957071
10
15.330140229637601
20
47.141003141955167
10
11.000011032328301
20
49.640999368874361
10
6.6698861917964605
20
47.140995595795367
0
LWPOLYLINE
5
305
100
AcDbEntity
8
0
100
AcDbPolyline
90
7
70
1
43
0.0
10
18.175546607220113
20
32.389766526560756
42
-0.39828623493945586
10
15.432682028389198
20
32.588364499716363
42
0.21438070319923805
10
11.669890139438902
20
34.214705013384204
10
11.669885865631302
20
38.480740993015175
10
16.000010379997001
20
40.980745331029276
10
20.330139903471299
20
38.480749669045863
10
20.330144624311298
20
33.768494147239373
42
0.05833337988928905
0
LWPOLYLINE
5
306
100
AcDbEntity
8
0
100
AcDbPolyline
90
8
70
1
43
0.0
10
40.275701649806201
20
64.999982922675969
10
37.602550129560697
20
64.999982890809477
10
36.669878901324502
20
64.461502363238978
10
36.669889125505705
20
59.461502363249465
10
41.000021256509399
20
56.961511217655371
10
45.330143163332004
20
59.461520072050774
10
45.330142280544763
20
59.893235386574595
42
-0.25089382034090113
10
42.224710386944544
20
63.448720079031574
42
0.349383308968228
0
LWPOLYLINE
5
307
100
AcDbEntity
8
0
100
AcDbPolyline
90
3
70
1
43
0.0
10
25.856943840569283
20
6.2571210894096465
42
-0.30666676637221729
10
24.000022181984303
20
4.9999816855734673
10
23.6795038953315
20
4.999981681752578
0
LWPOLYLINE
5
308
100
AcDbEntity
8
0
100
AcDbPolyline
90
6
70
1
43
0.0
10
30.330138202319699
20
55.801256918140865
10
26.000011334466699
20
58.301257179800466
10
21.669884164475302
20
55.801257441460066
10
21.6698838623368
20
50.801257441460066
10
26.0000107301897
20
48.301257179800466
10
30.330137900181203
20
50.801256918140865
0
LWPOLYLINE
5
309
100
AcDbEntity
8
0
100
AcDbPolyline
90
6
70
1
43
0.0
10
33.241206809473965
20
15.25303080892308
42
-0.22428300870972309
10
33.654766341194723
20
16.910547161639457
42
0.16622762032913416
10
36.137590096920519
20
23.580800246517573
10
40.33013505397021
20
21.160241742964967
10
40.330142617392809
20
16.160241742970673
10
36.000019380186799
20
13.660235192857471
0
ENDSEC
0
SECTION
2
OBJECTS
0
DICTIONARY
5
C
100
AcDbDictionary
3
ACAD_GROUP
350
D
3
ACAD_MLINESTYLE
350
17
0
DICTIONARY
5
D
100
AcDbDictionary
0
DICTIONARY
5
1A
330
C
100
AcDbDictionary
0
DICTIONARY
5
17
100
AcDbDictionary
0
ENDSEC
0
EOF
